<svg xmlns="http://www.w3.org/2000/svg" viewBox="0 0 800 225"><defs><style>.a,.b{fill:#f2f2f2}.b{fill-rule:evenodd}</style></defs><title>logo-onefaculty-white</title><path class="a" d="M747.88 86.28V85.2h4.81v1.08h-1.76v4.79h-1.29v-4.79h-1.76zM755.22 85.2l1.38 4.04h.01l1.3-4.04h1.82v5.87h-1.21v-4.16h-.02l-1.43 4.16h-1l-1.44-4.12h-.02v4.12h-1.21V85.2h1.82z"/><path class="b" d="M732.11 181.83h11.38v3h-7.37v3.29h5.57l.54 2.51h-6.11v4h7.53v2.89H732zm-115.17 15.76v-15.76h4.52v12.72h5.71l.66 3h-10.89zm113.42-15.76v3h-6.53v12.73h-4v-12.7h-5.94v-3h16.49zm-28.54 15.76h-4.1l7.36-15.76h4.27l7.65 15.76h-4.18l-2-3.81h-7.11zm-68.56 0h-4.1l7.37-15.76h4.27l7.62 15.76h-4.19l-2-3.81h-7.13zm3.1-6.47l2.18-5.17 2.43 5.17h-4.61zm12.48-9.29h3.93v11.5c1.74 1.81 4.4 1.76 7.87.08v-11.58h4v15.76h-4v-1.65c-3 2.77-11.81 2.21-11.81-2.61v-11.5zm19.83 0h7.78c3 0 5.84 1.6 5.94 4.13s-.44 3.89-3.74 5.09l4.9 6-4.43.52-5.13-6.3h-1.32v6.3h-4v-15.74zm7.78 2.61h-3.77v4.76h3.22c3.6-.33 3-4.77.54-4.76m8.79-2.61h11.38v3h-7.36v3.29h5.57l.55 2.51h-6.11v4h7.53v2.89h-11.63zm19.67 9.29l2.18-5.17 2.43 5.17h-4.6z"/><path class="a" d="M591 181.63v4.56a2.66 2.66 0 0 1 1.23-1 4.27 4.27 0 0 1 1.62-.33 3.52 3.52 0 0 1 2.56 1.14 4.45 4.45 0 0 1 .87 1.49 7.2 7.2 0 0 1 0 4.31 4.42 4.42 0 0 1-.87 1.48 3.47 3.47 0 0 1-2.56 1.14 4.73 4.73 0 0 1-1.79-.32 2.24 2.24 0 0 1-1.19-1.07v1.16h-2.37v-12.56h2.5zm4 6.9a3.09 3.09 0 0 0-.39-.93 2 2 0 0 0-.61-.6 1.87 1.87 0 0 0-1-.24 1.89 1.89 0 0 0-.95.24 2 2 0 0 0-.67.64 2.78 2.78 0 0 0-.38.93 4.79 4.79 0 0 0-.12 1.11 4.59 4.59 0 0 0 .12 1.09 2.64 2.64 0 0 0 .38.93 2 2 0 0 0 .67.65 1.88 1.88 0 0 0 .95.23 1.86 1.86 0 0 0 1-.23 2.06 2.06 0 0 0 .66-.65 2.91 2.91 0 0 0 .39-.93 4.79 4.79 0 0 0 .12-1.09 5 5 0 0 0-.12-1.11M602.12 196.87a3.61 3.61 0 0 1-2 .47h-.76l-.77-.06v-2.08l.72.07a5.57 5.57 0 0 0 .74 0 1 1 0 0 0 .73-.39 1.24 1.24 0 0 0 .24-.73 1.48 1.48 0 0 0-.11-.56l-3.18-8.52h2.65l2.05 6.22 2-6.22H607l-3.79 10.2a3.11 3.11 0 0 1-1.12 1.58M260 93.11a34.27 34.27 0 0 1 6.63-11.48 30.31 30.31 0 0 1 10.61-7.68 37.55 37.55 0 0 1 28.38 0 30.43 30.43 0 0 1 10.57 7.68 34.26 34.26 0 0 1 6.63 11.48 42.84 42.84 0 0 1 2.31 14.26 41.41 41.41 0 0 1-2.31 14 33.37 33.37 0 0 1-6.63 11.29 30.46 30.46 0 0 1-10.57 7.54 38.15 38.15 0 0 1-28.38 0 30.35 30.35 0 0 1-10.61-7.54 33.37 33.37 0 0 1-6.63-11.31 41.42 41.42 0 0 1-2.31-14A42.86 42.86 0 0 1 260 93.11zm13.78 22.67a22.67 22.67 0 0 0 3.22 7.35 16.47 16.47 0 0 0 5.76 5.23 20 20 0 0 0 17.29 0 16.5 16.5 0 0 0 5.76-5.23 22.72 22.72 0 0 0 3.22-7.35 34.9 34.9 0 0 0 1-8.4 37.54 37.54 0 0 0-1-8.74 23.18 23.18 0 0 0-3.22-7.54 16.35 16.35 0 0 0-5.81-5.29 20 20 0 0 0-17.29 0 16.32 16.32 0 0 0-5.71 5.28 23.14 23.14 0 0 0-3.22 7.54 37.54 37.54 0 0 0-1 8.74 34.9 34.9 0 0 0 .99 8.41zM343.55 91.72v6.92h.29a15.66 15.66 0 0 1 6.72-6.29 19.46 19.46 0 0 1 8.45-2 23.17 23.17 0 0 1 9 1.49 13.34 13.34 0 0 1 5.51 4.16 16 16 0 0 1 2.83 6.44 40.12 40.12 0 0 1 .82 8.4v30.54h-13.64v-28q0-6.15-1.92-9.17t-6.82-3q-5.57 0-8.07 3.31t-2.5 10.9v26h-13.63v-49.7h13zM398.78 129.47q3.07 3 8.84 3a12.15 12.15 0 0 0 7.11-2.07 8.57 8.57 0 0 0 3.65-4.37h12q-2.88 8.93-8.84 12.77a26 26 0 0 1-14.41 3.84 28.37 28.37 0 0 1-10.57-1.87 22 22 0 0 1-8-5.33 24 24 0 0 1-5-8.26 30.21 30.21 0 0 1-1.78-10.57 29 29 0 0 1 1.82-10.37 24 24 0 0 1 13.21-13.83 25.71 25.71 0 0 1 10.33-2 23.62 23.62 0 0 1 11 2.45 22.07 22.07 0 0 1 7.73 6.58 27.08 27.08 0 0 1 4.37 9.41 35.12 35.12 0 0 1 1 11h-35.82q.29 6.64 3.36 9.62zm15.42-26.12q-2.45-2.69-7.44-2.69a11.88 11.88 0 0 0-5.43 1.1 10.33 10.33 0 0 0-3.46 2.74A10 10 0 0 0 396 108a15.59 15.59 0 0 0-.62 3.27h22.19a15.77 15.77 0 0 0-3.37-7.93zM485.61 72.8v12.68h-33.14v15.85h28.72V113h-28.72v28.33h-15.08V72.8h48.22zM489 107a15.84 15.84 0 0 1 2.4-8 16.34 16.34 0 0 1 5.38-5.09 23.44 23.44 0 0 1 7.35-2.74 41.79 41.79 0 0 1 8.21-.82 55.75 55.75 0 0 1 7.59.53 23.26 23.26 0 0 1 7 2.06 13.81 13.81 0 0 1 5.19 4.27 12 12 0 0 1 2 7.25v25.84a51.93 51.93 0 0 0 .38 6.44 11.61 11.61 0 0 0 1.34 4.61H522a19.22 19.22 0 0 1-.62-2.35 20 20 0 0 1-.34-2.45 17.78 17.78 0 0 1-7.68 4.71 30.88 30.88 0 0 1-9 1.34 24.36 24.36 0 0 1-6.63-.87 15.15 15.15 0 0 1-5.38-2.69 12.5 12.5 0 0 1-3.6-4.61 15.59 15.59 0 0 1-1.3-6.63 14.47 14.47 0 0 1 1.49-7 12.45 12.45 0 0 1 3.84-4.37 17.23 17.23 0 0 1 5.38-2.45 57.92 57.92 0 0 1 6.1-1.3q3.07-.48 6.05-.77a36.34 36.34 0 0 0 5.28-.87 9.2 9.2 0 0 0 3.65-1.68 3.69 3.69 0 0 0 1.25-3.22 7.24 7.24 0 0 0-.72-3.51 5.31 5.31 0 0 0-1.92-2 7.58 7.58 0 0 0-2.79-1 22.9 22.9 0 0 0-3.41-.24 10.36 10.36 0 0 0-6.34 1.73Q503 103 502.61 107H489zm31.5 10.08a6.11 6.11 0 0 1-2.16 1.2 22 22 0 0 1-2.79.72q-1.49.29-3.12.48t-3.27.48a24.61 24.61 0 0 0-3 .77 9 9 0 0 0-2.59 1.3 6.16 6.16 0 0 0-1.78 2.07 6.65 6.65 0 0 0-.67 3.17 6.41 6.41 0 0 0 .67 3.07 5.14 5.14 0 0 0 1.83 2 7.7 7.7 0 0 0 2.69 1 17.13 17.13 0 0 0 3.17.29 12 12 0 0 0 6.24-1.34 9 9 0 0 0 3.27-3.22 10.3 10.3 0 0 0 1.3-3.79 26.25 26.25 0 0 0 .24-3.07v-5.09zM565 100.65a9.58 9.58 0 0 0-5.47 1.49A11.84 11.84 0 0 0 556 106a16.6 16.6 0 0 0-2 5.19 28.16 28.16 0 0 0-.58 5.62 27 27 0 0 0 .58 5.47 16.91 16.91 0 0 0 1.87 5 10.75 10.75 0 0 0 3.51 3.7 9.64 9.64 0 0 0 5.38 1.44q4.9 0 7.54-2.74a13 13 0 0 0 3.31-7.35h13.16q-1.35 9.89-7.68 15.08t-16.23 5.19a27.19 27.19 0 0 1-10.23-1.87 22.65 22.65 0 0 1-7.92-5.24 23.8 23.8 0 0 1-5.09-8 27.81 27.81 0 0 1-1.83-10.23 33.07 33.07 0 0 1 1.68-10.71 24.06 24.06 0 0 1 4.94-8.55 22.62 22.62 0 0 1 8-5.62 27.08 27.08 0 0 1 10.76-2 31.14 31.14 0 0 1 8.5 1.15 22.72 22.72 0 0 1 7.3 3.51 18.13 18.13 0 0 1 7.54 14.17h-13.38q-1.35-8.56-10.13-8.56zM626.7 141.38v-6.92h-.29a15.35 15.35 0 0 1-6.72 6.24 19.87 19.87 0 0 1-8.45 1.92 23.85 23.85 0 0 1-9-1.44 12.94 12.94 0 0 1-5.52-4.08 16 16 0 0 1-2.83-6.44 40 40 0 0 1-.82-8.4V91.72h13.64v28q0 6.15 1.92 9.17t6.82 3q5.57 0 8.07-3.31t2.5-10.9v-26h13.64v49.66h-13zM660.7 72.8v68.58h-13.63V72.8h13.63zM695.38 91.72v9.12h-10v24.59q0 3.46 1.15 4.61t4.61 1.15c.77 0 1.5 0 2.21-.1a18.8 18.8 0 0 0 2-.29v10.57a32.51 32.51 0 0 1-3.84.38q-2.11.1-4.13.1a39.83 39.83 0 0 1-6-.43 14.14 14.14 0 0 1-5-1.68 8.89 8.89 0 0 1-3.41-3.55 12.68 12.68 0 0 1-1.25-6.05v-29.3h-8.26v-9.12h8.26V76.83h13.64v14.89h10z"/><path class="a" d="M716.89 156.17q-3.94 2.59-10.95 2.59-2.12 0-4.18-.14t-4.18-.34V147l3.94.38a28.55 28.55 0 0 0 4 .1 5.3 5.3 0 0 0 4-2.11 6.81 6.81 0 0 0 1.3-4 8.19 8.19 0 0 0-.58-3.07l-17.36-46.58h14.5l11.24 34h.19l10.85-34h14.12L723 147.52q-2.17 6.05-6.11 8.65z"/><circle class="a" cx="59.12" cy="110.22" r="6.4"/><path class="a" d="M52.72 72.63h12.8v39.51h-12.8z"/><circle class="a" cx="59.23" cy="72.2" r="6.4"/><circle class="a" cx="148.61" cy="33.8" r="6.4"/><path class="a" d="M56.27 66.53l91.07-39.14 1.27 12.81-85.17 38.31-7.17-11.98z"/><circle class="a" cx="238.08" cy="72.2" r="6.4"/><circle class="a" cx="148.69" cy="33.8" r="6.4"/><path class="a" d="M241.03 66.53l-91.06-39.14-1.28 12.81 85.17 38.31 7.17-11.98zM148.3 149.05l-46.69-21a6.69 6.69 0 0 0-3.82-1.72 6.8 6.8 0 0 0-.7 0 6.72 6.72 0 0 0-6.72 6.67c0 3.29 2.47 5.2 5.5 6.6 0 .08 49.56 21.55 49.56 21.55a6.36 6.36 0 0 0 .69.3l.92.26a6.4 6.4 0 1 0 1.26-12.66z"/><circle class="a" cx="238.08" cy="72.12" r="6.4"/><circle class="a" cx="148.69" cy="110.53" r="6.4"/><path class="a" d="M240.15 78.17l-90.18 38.76-1.28-12.8 85.17-38.32 6.29 12.36zM57.12 78.16l-.84-.36a6.35 6.35 0 0 0 .84.36zM146.43 116.54l-.69-.3a6.35 6.35 0 0 0 .69.3zM147.34 116.93v-.13a6.33 6.33 0 0 1-.92-.26zM98.47 81.57l2.59 1.16a6.68 6.68 0 0 0-2.59-1.16zM95.6 94.7l-2.27-1a6.69 6.69 0 0 0 2.27 1z"/><path class="a" d="M148.61 104.13l-47.55-21.4-2.59-1.16a6.72 6.72 0 0 0-5.14 12.15l2.27 1 50.14 21.55.69.3a6.33 6.33 0 0 0 .92.26 6.4 6.4 0 1 0 1.26-12.7zM150.88 160.83a6.35 6.35 0 0 0 .69-.3zM150 161.22l.91-.39a6.33 6.33 0 0 1-.92.26v.13z"/><path class="a" d="M206.18 132.42v-21.07-.1a6.4 6.4 0 0 0-12.8 0v17.7l-44.69 20.1a6.4 6.4 0 1 0 1.31 12.68 6.33 6.33 0 0 0 .92-.26l.69-.3L200.83 140c3.2-1.38 5.35-3.42 5.35-6.31v-1.27zM103.59 134.05l-13.22-1.27V87.66h13.22v46.39zM59 104.41c-4.44 0-18.69 12.53-18.69 38.11 0 32.1 18.75 38.15 18.75 38.15s18.75-5.83 18.75-38.15c-.05-25.58-14.42-38.11-18.81-38.11zM59 117s6.34 3.54 8.35 14.37L59 136.89l-8.35-5.56C52.63 120.5 59 117 59 117zm.15 51h-.09s-2.76-1.27-5.36-5.62a27.18 27.18 0 0 1-2.55-5.85q-.37-1.19-.69-2.55a51.43 51.43 0 0 1-1.2-11.61 12.15 12.15 0 0 1 .08-1.31c0-.22 0-.44.08-.65l9.58 6.21h.11l9.62-6.25a14.15 14.15 0 0 1 .16 2c.03 21.1-9.77 25.63-9.77 25.63z"/></svg>