<svg xmlns="http://www.w3.org/2000/svg" viewBox="0 0 204.21 153.27"><defs><style>.a{fill:#f2f2f2}</style></defs><title>logo-onefaculty-icon-white</title><circle class="a" cx="18.85" cy="82.82" r="6.4"/><path class="a" d="M12.45 45.24h12.8v39.51h-12.8z"/><circle class="a" cx="18.96" cy="44.81" r="6.4"/><circle class="a" cx="108.34" cy="6.4" r="6.4"/><path class="a" d="M16 39.13L107.07 0l1.27 12.8-85.17 38.32L16 39.13z"/><circle class="a" cx="197.81" cy="44.81" r="6.4"/><circle class="a" cx="108.42" cy="6.4" r="6.4"/><path class="a" d="M200.76 39.13L109.7 0l-1.28 12.8 85.17 38.32 7.17-11.99zM108 121.66l-46.69-21a6.69 6.69 0 0 0-3.82-1.72 6.8 6.8 0 0 0-.7 0 6.72 6.72 0 0 0-6.72 6.72c0 3.29 2.47 5.2 5.5 6.6 0 .08 49.56 21.55 49.56 21.55a6.36 6.36 0 0 0 .69.3l.92.26a6.4 6.4 0 1 0 1.26-12.71z"/><circle class="a" cx="197.81" cy="44.73" r="6.4"/><circle class="a" cx="108.42" cy="83.13" r="6.4"/><path class="a" d="M199.88 50.78L109.7 89.53l-1.28-12.8 85.17-38.32 6.29 12.37zM16.84 50.76L16 50.4a6.35 6.35 0 0 0 .84.36zM106.16 89.14l-.69-.3a6.35 6.35 0 0 0 .69.3zM107.07 89.53v-.12a6.33 6.33 0 0 1-.92-.26zM58.2 54.17l2.59 1.16a6.68 6.68 0 0 0-2.59-1.16zM55.33 67.3l-2.27-1a6.69 6.69 0 0 0 2.27 1z"/><path class="a" d="M108.34 76.73L60.79 55.34l-2.59-1.17a6.72 6.72 0 0 0-5.14 12.15l2.27 1 50.14 21.55.69.3a6.33 6.33 0 0 0 .92.26 6.4 6.4 0 1 0 1.26-12.7zM110.6 133.43a6.35 6.35 0 0 0 .69-.3zM109.7 133.82l.91-.39a6.33 6.33 0 0 1-.92.26v.13z"/><path class="a" d="M165.91 105V84v-.1a6.4 6.4 0 0 0-12.8 0v17.7l-44.69 20.1a6.4 6.4 0 1 0 1.26 12.68 6.33 6.33 0 0 0 .92-.26l.69-.3 49.27-21.17c3.2-1.38 5.35-3.42 5.35-6.31V105zM63.32 106.66l-13.22-1.27V60.26h13.22v46.4zM18.69 77C14.25 77 0 89.55 0 115.13c0 32.1 18.75 38.15 18.75 38.15s18.75-5.83 18.75-38.15C37.49 89.55 23.12 77 18.69 77zm0 12.55s6.34 3.54 8.35 14.37l-8.34 5.58-8.35-5.56c2.01-10.83 8.35-14.38 8.35-14.38zm.15 51h-.05s-2.76-1.27-5.36-5.62a27.18 27.18 0 0 1-2.55-5.85q-.37-1.19-.69-2.55A51.43 51.43 0 0 1 9 114.93a12.15 12.15 0 0 1 .08-1.31c0-.22 0-.44.08-.65l9.62 6.26h.11l9.6-6.23a14.15 14.15 0 0 1 .16 2c0 21.07-9.8 25.56-9.8 25.56z"/></svg>