<svg xmlns="http://www.w3.org/2000/svg" viewBox="0 0 362.45 347.91"><defs><style>.a,.b,.f{fill:none}.b{clip-rule:evenodd}.c{clip-path:url(#a)}.d{clip-path:url(#b)}.e{fill:#fff}.f{stroke:#979797;stroke-miterlimit:10;stroke-width:2px}.g{clip-path:url(#e)}.h{fill:#282d33}.i{clip-path:url(#g)}.j{fill:#151e32}.k{clip-path:url(#i)}.l{clip-path:url(#k)}.m{clip-path:url(#m)}.n{clip-path:url(#o)}.o{clip-path:url(#q)}.p{clip-path:url(#s)}.q{clip-path:url(#u)}.r{clip-path:url(#w)}.s{clip-path:url(#y)}.t{clip-path:url(#aa)}.u{clip-path:url(#ac)}.v{clip-path:url(#ae)}.w{clip-path:url(#ag)}.x{fill:#cf4128}.y{clip-path:url(#ai)}.z{clip-path:url(#ak)}.aa{clip-path:url(#am)}.ab{clip-path:url(#ao)}.ac{clip-path:url(#aq)}.ad{clip-path:url(#as)}.ae{clip-path:url(#au)}.af{clip-path:url(#aw)}.ag{clip-path:url(#ay)}.ah{clip-path:url(#ba)}.ai{clip-path:url(#bc)}.aj{clip-path:url(#be)}.ak{clip-path:url(#bg)}.al{clip-path:url(#bi)}.am{clip-path:url(#bk)}.an{clip-path:url(#bm)}.ao{clip-path:url(#bo)}</style><clipPath id="a" transform="translate(5 5)"><path class="a" d="M6 213h272v118H6z"/></clipPath><clipPath id="b" transform="translate(5 5)"><path class="a" d="M0 0h353v338H0z"/></clipPath><clipPath id="e" transform="translate(5 5)"><path class="a" transform="rotate(-89.36 137.307 66.798)" d="M130.2 63.24h14.22v7.11H130.2z"/></clipPath><clipPath id="g" transform="translate(5 5)"><path class="b" d="M152.7 180.29l-14.39-.16.16-14.22 14.39.16zm-28.77-.29l-14.39-.16.16-14.22 14.39.16zm-28.77-.32l-14.39-.16.16-14.22 14.39.16zm-29-.35a59.9 59.9 0 0 1-16-2.84l4.36-13.53a45.7 45.7 0 0 0 12.22 2.17zm-30.66-9.94a59.91 59.91 0 0 1-12.21-10.75L34 149.33a45.8 45.8 0 0 0 9.32 8.21zM14.41 145a59.5 59.5 0 0 1-4.88-15.55l14-2.36a45.14 45.14 0 0 0 3.71 11.83zm8.76-30.34L9 113.19a59.67 59.67 0 0 1 3.87-15.82l13.21 5.24a45.38 45.38 0 0 0-2.91 12.05zm9-22.85L20.91 83.2a60.31 60.31 0 0 1 11.51-11.5L41 83a45.89 45.89 0 0 0-8.78 8.81zm19.6-14.87L46.6 63.71a59.56 59.56 0 0 1 15.82-3.85L63.87 74a45.35 45.35 0 0 0-12.05 2.94zm68.78-2.59l-14.39-.16.21-14.19 14.39.16zM91.83 74l-14.39-.16.16-14.19 14.4.16z"/></clipPath><clipPath id="i" transform="translate(5 5)"><path class="a" transform="rotate(-89.36 169.822 173.436)" d="M162.72 169.88h14.22v7.11h-14.22z"/></clipPath><clipPath id="k" transform="translate(5 5)"><path class="a" transform="rotate(-89.36 146.34 173.436)" d="M139.23 169.88h14.22v7.11h-14.22z"/></clipPath><clipPath id="m" transform="translate(5 5)"><path class="b" d="M309.34 253.25l-8.91-.1.16-14.22 8.91.1a28.67 28.67 0 0 0 4.16-.26l1.9 14.09a43.23 43.23 0 0 1-6.22.39zm22.12-5.9l-7.22-12.25a28.43 28.43 0 0 0 8.36-7.5l11.4 8.53a42.57 42.57 0 0 1-12.54 11.22zm19.73-26.44l-13.79-3.43a28.79 28.79 0 0 0 .51-11.22l14.09-2.14a43.08 43.08 0 0 1-.81 16.8zm-89.83-39.31l-14.11-.16.16-14.22 14.11.16zm-28.23-.31l-14.13-.15.16-14.22 14.11.16zm-28.21-.29l-14.11-.16.19-14.24 14.11.16zm-28.22-.31l-14.11-.16.16-14.22 14.11.16z"/></clipPath><clipPath id="o" transform="translate(5 5)"><path class="a" transform="rotate(-89.36 283.628 245.735)" d="M276.52 242.18h14.22v7.11h-14.22z"/></clipPath><clipPath id="q" transform="translate(5 5)"><path class="b" d="M70.5 81.34a39.37 39.37 0 1 0 38.91 39.81A39.36 39.36 0 0 0 70.5 81.34zM70.29 100a12.94 12.94 0 1 1-13.07 12.79A12.94 12.94 0 0 1 70.29 100zm22.13 45a32.92 32.92 0 0 1-45.25-.5v-1.05a12.94 12.94 0 0 1 13.08-12.79l19.39.22A12.93 12.93 0 0 1 92.43 144v1z"/></clipPath><clipPath id="s" transform="translate(5 5)"><path class="b" d="M312.56 131.95a39.37 39.37 0 1 0 38.91 39.81 39.36 39.36 0 0 0-38.91-39.81zm-.21 18.65a12.94 12.94 0 1 1-13.07 12.79 12.94 12.94 0 0 1 13.07-12.79zm22.13 45a32.92 32.92 0 0 1-45.25-.5v-1.05a12.94 12.94 0 0 1 13.08-12.79l19.39.22a12.93 12.93 0 0 1 12.78 13.08v1.05z"/></clipPath><clipPath id="u" transform="translate(5 5)"><path class="b" d="M204.14 146.24A73.12 73.12 0 1 1 278 73.94a73.19 73.19 0 0 1-73.89 72.3m1.47-132a58.9 58.9 0 1 0 58.21 59.56 59 59 0 0 0-58.21-59.56"/></clipPath><clipPath id="w" transform="translate(5 5)"><path class="b" d="M205.86 28.92A44.65 44.65 0 0 0 160.78 73a44 44 0 0 0 7.71 25.54 23.93 23.93 0 0 1 17-14.28 26.35 26.35 0 1 1 39.48.44 23.92 23.92 0 0 1 16.69 14.65A44 44 0 0 0 249.94 74a44.65 44.65 0 0 0-44.08-45.1"/></clipPath><clipPath id="y" transform="translate(5 5)"><path class="b" d="M191.38 83.15a23.78 23.78 0 0 0-5.32.54 26.22 26.22 0 0 0 39.48.44 23.83 23.83 0 0 0-5.3-.66z"/></clipPath><clipPath id="aa" transform="translate(5 5)"><path class="b" d="M205.48 39.77a26.32 26.32 0 0 0-20.23 43.53 23.89 23.89 0 0 1 5.32-.54l28.86.32a23.75 23.75 0 0 1 5.3.66 26.32 26.32 0 0 0-19.25-44m-.43 38.5a12.14 12.14 0 1 1 12.27-12 12.15 12.15 0 0 1-12.27 12"/></clipPath><clipPath id="ac" transform="translate(5 5)"><path class="b" d="M245.94 130.53l-14.21-.16.27-22.21a12.15 12.15 0 0 0-12-12.28l-28.86-.32a12.15 12.15 0 0 0-12.27 12l-.25 22.21-14.21-.16.25-22.21a26.39 26.39 0 0 1 26.64-26.07l28.86.32a26.39 26.39 0 0 1 26.05 26.66z"/></clipPath><clipPath id="ae" transform="translate(5 5)"><path class="b" d="M275.83 206.05H11.51A11.52 11.52 0 0 0 0 217.57v108.82a11.53 11.53 0 0 0 11.51 11.52h264.32a11.53 11.53 0 0 0 11.51-11.52V217.57a11.52 11.52 0 0 0-11.51-11.52zM14.21 323.69h258.91V220.27H14.21v103.42z"/></clipPath><clipPath id="ag" transform="translate(5 5)"><path class="a" d="M28.9 236.78h20.72V251H28.9z"/></clipPath><clipPath id="ai" transform="translate(5 5)"><path class="a" d="M65.03 236.78h20.72V251H65.03z"/></clipPath><clipPath id="ak" transform="translate(5 5)"><path class="a" d="M99.35 236.78h20.71V251H99.35z"/></clipPath><clipPath id="am" transform="translate(5 5)"><path class="a" d="M133.68 236.78h20.71V251h-20.71z"/></clipPath><clipPath id="ao" transform="translate(5 5)"><path class="a" d="M168 236.78h20.71V251H168z"/></clipPath><clipPath id="aq" transform="translate(5 5)"><path class="a" d="M202.32 236.78h20.7V251h-20.7z"/></clipPath><clipPath id="as" transform="translate(5 5)"><path class="a" d="M238.45 236.78h20.71V251h-20.71z"/></clipPath><clipPath id="au" transform="translate(5 5)"><path class="a" d="M28.9 265.7h20.72v14.22H28.9z"/></clipPath><clipPath id="aw" transform="translate(5 5)"><path class="a" d="M65.03 265.7h20.72v14.22H65.03z"/></clipPath><clipPath id="ay" transform="translate(5 5)"><path class="a" d="M99.35 265.7h20.71v14.22H99.35z"/></clipPath><clipPath id="ba" transform="translate(5 5)"><path class="a" d="M133.68 265.7h20.71v14.22h-20.71z"/></clipPath><clipPath id="bc" transform="translate(5 5)"><path class="a" d="M168 265.7h20.71v14.22H168z"/></clipPath><clipPath id="be" transform="translate(5 5)"><path class="a" d="M202.32 265.7h20.7v14.22h-20.7z"/></clipPath><clipPath id="bg" transform="translate(5 5)"><path class="a" d="M238.45 265.7h20.71v14.22h-20.71z"/></clipPath><clipPath id="bi" transform="translate(5 5)"><path class="a" d="M28.9 294.62h20.72v14.22H28.9z"/></clipPath><clipPath id="bk" transform="translate(5 5)"><path class="a" d="M65.03 294.62h20.72v14.22H65.03z"/></clipPath><clipPath id="bm" transform="translate(5 5)"><path class="a" d="M99.35 294.62h125v14.22h-125z"/></clipPath><clipPath id="bo" transform="translate(5 5)"><path class="a" d="M238.45 294.62h20.71v14.22h-20.71z"/></clipPath></defs><title>img-cover-xl-onefaculty-connect</title><g class="c"><g class="d"><path class="e" d="M11 218h272v118H11z"/></g></g><g class="c"><g class="d"><path class="f" d="M11 218h272v118H11z"/></g></g><g class="g"><g class="d"><path class="h" d="M133.68 59.65h17.27v24.3h-17.27z"/></g></g><g class="i"><g class="d"><path class="j" d="M9.03 59.65h153.83v130.64H9.03z"/></g></g><g class="k"><g class="d"><path class="h" d="M166.19 166.29h17.27v24.3h-17.27z"/></g></g><g class="l"><g class="d"><path class="h" d="M142.71 166.29h17.27v24.3h-17.27z"/></g></g><g class="m"><g class="d"><path class="j" d="M162.58 166.29h199.87v96.97H162.58z"/></g></g><g class="n"><g class="d"><path class="h" d="M280 238.59h17.27v24.3H280z"/></g></g><g class="o"><g class="d"><path class="e" d="M30.71 81.34h88.7v88.75h-88.7z"/></g></g><g class="p"><g class="d"><path class="e" d="M272.77 131.95h88.7v88.75h-88.7z"/></g></g><g class="q"><g class="d"><path class="j" d="M131.87 0h156.16v156.25H131.87z"/></g></g><g class="r"><g class="d"><path class="e" d="M160.77 28.92h99.17v80.47h-99.17z"/></g></g><g class="s"><g class="d"><path class="j" d="M186.06 83.14h49.48v19.73h-49.48z"/></g></g><g class="t"><g class="d"><path class="j" d="M178.84 39.76h62.7v53.98h-62.7z"/></g></g><g class="u"><g class="d"><path class="j" d="M164.39 81.34h91.8v59.19h-91.8z"/></g></g><g class="v"><g class="d"><path class="j" d="M0 206.05h297.34V347.9H0z"/></g></g><g class="w"><g class="d"><path class="x" d="M28.9 236.78h30.72V261H28.9z"/></g></g><g class="y"><g class="d"><path class="x" d="M65.03 236.78h30.72V261H65.03z"/></g></g><g class="z"><g class="d"><path class="x" d="M99.35 236.78h30.71V261H99.35z"/></g></g><g class="aa"><g class="d"><path class="x" d="M133.68 236.78h30.71V261h-30.71z"/></g></g><g class="ab"><g class="d"><path class="x" d="M168 236.78h30.71V261H168z"/></g></g><g class="ac"><g class="d"><path class="x" d="M202.32 236.78h30.7V261h-30.7z"/></g></g><g class="ad"><g class="d"><path class="x" d="M238.45 236.78h30.71V261h-30.71z"/></g></g><g class="ae"><g class="d"><path class="x" d="M28.9 265.7h30.72v24.22H28.9z"/></g></g><g class="af"><g class="d"><path class="x" d="M65.03 265.7h30.72v24.22H65.03z"/></g></g><g class="ag"><g class="d"><path class="x" d="M99.35 265.7h30.71v24.22H99.35z"/></g></g><g class="ah"><g class="d"><path class="x" d="M133.68 265.7h30.71v24.22h-30.71z"/></g></g><g class="ai"><g class="d"><path class="x" d="M168 265.7h30.71v24.22H168z"/></g></g><g class="aj"><g class="d"><path class="x" d="M202.32 265.7h30.7v24.22h-30.7z"/></g></g><g class="ak"><g class="d"><path class="x" d="M238.45 265.7h30.71v24.22h-30.71z"/></g></g><g class="al"><g class="d"><path class="x" d="M28.9 294.62h30.72v24.22H28.9z"/></g></g><g class="am"><g class="d"><path class="x" d="M65.03 294.62h30.72v24.22H65.03z"/></g></g><g class="an"><g class="d"><path class="x" d="M99.35 294.62h135v24.22h-135z"/></g></g><g class="ao"><g class="d"><path class="x" d="M238.45 294.62h30.71v24.22h-30.71z"/></g></g></svg>