<svg xmlns="http://www.w3.org/2000/svg" viewBox="0 0 256 75"><defs><style>.a,.b{fill:none}.a{clip-rule:evenodd}.c{clip-path:url(#a)}.d{clip-path:url(#b)}.e{fill:#6dada1}.f{clip-path:url(#c)}.g{clip-path:url(#e)}.h{fill:#fff}.i{clip-path:url(#g)}.j{fill:#354262}.k{clip-path:url(#i)}.l{clip-path:url(#k)}.m{clip-path:url(#m)}.n{clip-path:url(#o)}.o{clip-path:url(#q)}.p{fill:#9eb9d9}.q{clip-path:url(#s)}.r{clip-path:url(#u)}.s{clip-path:url(#w)}.t{clip-path:url(#y)}.u{clip-path:url(#aa)}.v{clip-path:url(#ac)}.w{clip-path:url(#ae)}.x{clip-path:url(#ag)}.y{clip-path:url(#ai)}.z{clip-path:url(#ak)}.aa{clip-path:url(#am)}.ab{clip-path:url(#ao)}.ac{clip-path:url(#aq)}.ad{clip-path:url(#as)}.ae{clip-path:url(#au)}.af{clip-path:url(#aw)}.ag{clip-path:url(#ay)}.ah{clip-path:url(#ba)}.ai{clip-path:url(#bc)}.aj{clip-path:url(#be)}.ak{clip-path:url(#bg)}.al{clip-path:url(#bi)}.am{clip-path:url(#bk)}.an{clip-path:url(#bm)}.ao{clip-path:url(#bo)}.ap{clip-path:url(#bq)}.aq{clip-path:url(#bs)}.ar{clip-path:url(#bu)}.as{clip-path:url(#bw)}.at{clip-path:url(#by)}.au{clip-path:url(#ca)}.av{clip-path:url(#cc)}.aw{clip-path:url(#ce)}.ax{clip-path:url(#cg)}.ay{clip-path:url(#ci)}</style><clipPath id="a"><path class="a" d="M151.7 22.54v-4.85a4.46 4.46 0 0 1 8.91 0v4.85h-8.91"/></clipPath><clipPath id="b"><path class="b" d="M0 0h256v75H0z"/></clipPath><clipPath id="c"><path class="a" d="M161.87 23.79h-11.4V17.7a5.7 5.7 0 0 1 11.4 0v6.09zM153 21.3h6.43v-3.6a3.21 3.21 0 0 0-6.43 0v3.6z"/></clipPath><clipPath id="e"><path class="a" d="M151.79 17.66v50.58a4.47 4.47 0 0 1-4 4.42h-41.43a4.45 4.45 0 0 0 3.94-4.42V17.66a4.45 4.45 0 0 1 3.94-4.42h41.48a4.45 4.45 0 0 0-3.94 4.42"/></clipPath><clipPath id="g"><path class="a" d="M148.06 73.91h-41.55l-.15-2.48a3.21 3.21 0 0 0 2.84-3.19V17.67a5.69 5.69 0 0 1 5-5.66h41.62l.18 2.47a3.21 3.21 0 0 0-2.84 3.19v51.07a5.7 5.7 0 0 1-5 5.16h-.07zm-30.19-2.49h30a3.21 3.21 0 0 0 2.78-3.18V17.67a5.68 5.68 0 0 1 1-3.18h-37.18a3.21 3.21 0 0 0-2.77 3.18v50.8a5.67 5.67 0 0 1-1 2.95h7.15z"/></clipPath><clipPath id="i"><path class="a" d="M143.71 66v2.24a4.45 4.45 0 0 0 3.94 4.42h-41.48a4.45 4.45 0 0 1-3.94-4.42V66h41.48"/></clipPath><clipPath id="k"><path class="a" d="M106.18 73.91H106a5.69 5.69 0 0 1-5-5.66v-3.49h44v3.48a3.21 3.21 0 0 0 2.84 3.19l-.15 2.48h-41.51zm-2.69-6.66v1a3.21 3.21 0 0 0 2.77 3.18h37.19a5.68 5.68 0 0 1-1-3.18v-1h-39z"/></clipPath><clipPath id="m"><path class="a" d="M161.87 23.93h-2.49V17.7a3.21 3.21 0 0 0-6.43 0h-2.49a5.7 5.7 0 0 1 11.4 0v6.23"/></clipPath><clipPath id="o"><path class="a" d="M148.07 74a5.7 5.7 0 0 1-5.44-5.67v-3.57h2.49v3.61a3.28 3.28 0 0 0 3 3.18V74"/></clipPath><clipPath id="q"><path class="a" d="M143.14 61.44L140 59.27l-3.14 2.17v-8.63h6.28v8.63"/></clipPath><clipPath id="s"><path class="a" d="M146.71 51.87a8.45 8.45 0 0 1-.63.9 10.2 10.2 0 0 1 .32 1.05 8.93 8.93 0 0 1-.88.66 9.74 9.74 0 0 1 0 1.1 9.52 9.52 0 0 1-1 .36 9.49 9.49 0 0 1-.36 1 9.9 9.9 0 0 1-1.1 0 8.83 8.83 0 0 1-.66.88 10.14 10.14 0 0 1-1.05-.32 8.52 8.52 0 0 1-.9.63 8.51 8.51 0 0 1-.9-.63 10.14 10.14 0 0 1-1.05.32 8.77 8.77 0 0 1-.66-.88 9.77 9.77 0 0 1-1.1 0 9.66 9.66 0 0 1-.36-1 9.4 9.4 0 0 1-1-.36 9.77 9.77 0 0 1 0-1.1 8.75 8.75 0 0 1-.88-.66 10.24 10.24 0 0 1 .33-1.05 8.42 8.42 0 0 1-.63-.9 8.49 8.49 0 0 1 .63-.9 10 10 0 0 1-.33-1.05 9 9 0 0 1 .88-.66 9.9 9.9 0 0 1 0-1.1 9.54 9.54 0 0 1 1-.36 9.41 9.41 0 0 1 .36-1 9.76 9.76 0 0 1 1.1 0 9 9 0 0 1 .66-.88 10 10 0 0 1 1.05.33 8.42 8.42 0 0 1 .9-.63 8.42 8.42 0 0 1 .9.63 10 10 0 0 1 1.05-.33 8.84 8.84 0 0 1 .66.88 9.76 9.76 0 0 1 1.1 0 9.5 9.5 0 0 1 .36 1 9.44 9.44 0 0 1 1 .36 9.76 9.76 0 0 1 0 1.1 9 9 0 0 1 .88.66 10.15 10.15 0 0 1-.33 1.05 8.58 8.58 0 0 1 .63.9"/></clipPath><clipPath id="u"><path class="a" d="M143.27 52a2.79 2.79 0 1 1-2.79-2.79 2.79 2.79 0 0 1 2.79 2.79"/></clipPath><clipPath id="w"><path class="b" d="M122.85 20.66h16.03v2.49h-16.03z"/></clipPath><clipPath id="y"><path class="b" d="M117.08 27.25h27v2.49h-27z"/></clipPath><clipPath id="aa"><path class="b" d="M117.08 33.02h27v2.49h-27z"/></clipPath><clipPath id="ac"><path class="b" d="M117.08 39.21h27v2.49h-27z"/></clipPath><clipPath id="ae"><path class="b" d="M117.08 45.39h16.05v2.49h-16.05z"/></clipPath><clipPath id="ag"><path class="b" d="M117.08 51.57h10.66v2.49h-10.66z"/></clipPath><clipPath id="ai"><path class="a" d="M237.53 60.84V58a14.71 14.71 0 0 0 0-29.42v-2.9a17.58 17.58 0 0 1 0 35.16"/></clipPath><clipPath id="ak"><path class="b" d="M238.96 55.16h5.38v6.82h-5.38z"/></clipPath><clipPath id="am"><path class="a" d="M245.78 61.99h-2.87v-5.38h-2.51v5.38h-2.87v-8.25h8.25v8.25"/></clipPath><clipPath id="ao"><path class="a" d="M225.64 46.88h11.24V0h-11.24v46.88zm2.87-2.88H234V2.87h-5.5V44z"/></clipPath><clipPath id="aq"><path class="b" d="M224.22 11.41h14.11v29.66h-14.11z"/></clipPath><clipPath id="as"><path class="b" d="M224.22 9.99h14.11v2.87h-14.11z"/></clipPath><clipPath id="au"><path class="b" d="M224.22 5.71h14.11v2.87h-14.11z"/></clipPath><clipPath id="aw"><path class="b" d="M218.51 53.74h26.07v2.87h-26.07z"/></clipPath><clipPath id="ay"><path class="a" d="M254 70.44h-45v-6a3.59 3.59 0 0 1 3.59-3.59h37.79a3.59 3.59 0 0 1 3.62 3.61v6zm-42.09-2.87h39.22v-3.11a.72.72 0 0 0-.72-.72h-37.82a.72.72 0 0 0-.72.72v3.11z"/></clipPath><clipPath id="ba"><path class="a" d="M244.5 27.5a6.58 6.58 0 1 1-6.58-6.58 6.58 6.58 0 0 1 6.58 6.58"/></clipPath><clipPath id="bc"><path class="a" d="M237.94 35.52a8 8 0 1 1 8-8 8 8 0 0 1-8 8zm0-13.15a5.14 5.14 0 1 0 5.14 5.14 5.15 5.15 0 0 0-5.14-5.14z"/></clipPath><clipPath id="be"><path class="a" d="M240.89 26.88a2.63 2.63 0 1 1-2.63-2.63 2.63 2.63 0 0 1 2.63 2.63"/></clipPath><clipPath id="bg"><path class="a" d="M31.85 66.81h-21a2.07 2.07 0 0 1-2.07-2.07V15.33a2.07 2.07 0 0 1 2.07-2.07h34.86a2.07 2.07 0 0 1 2.07 2.07v29.28"/></clipPath><clipPath id="bi"><path class="a" d="M31.85 68.06h-21a3.33 3.33 0 0 1-3.33-3.32V15.33A3.33 3.33 0 0 1 10.88 12h34.83A3.33 3.33 0 0 1 49 15.33v29.28h-2.48V15.33a.81.81 0 0 0-.81-.81H10.88a.81.81 0 0 0-.81.81v49.41a.81.81 0 0 0 .81.81h21v2.51"/></clipPath><clipPath id="bk"><path class="b" d="M11.95 19.53H45v42.96H11.95z"/></clipPath><clipPath id="bm"><path class="b" d="M30.18 17.02h-3.14"/></clipPath><clipPath id="bo"><path class="b" d="M27.04 15.77h3.13v2.51h-3.13z"/></clipPath><clipPath id="bq"><path class="a" d="M54.44 74.74v-3.19a6.56 6.56 0 0 0 2.65-5.27V54.85L57 52.32a2.45 2.45 0 0 0-2.46-2.45c-1.36 0-2.46.48-2.46 1.84v-.61a2.45 2.45 0 0 0-4.91 0v-1.23a2.45 2.45 0 0 0-4.91 0V37.13a2.54 2.54 0 0 0-5.08 0V61.9l-.05-1.21v-5.06a3.74 3.74 0 0 0-3.75-3.74h-1.3V62.8l7.11 8.43a13.85 13.85 0 0 0 3 1.44v2.06"/></clipPath><clipPath id="bs"><path class="a" d="M55.77 74.74h-2.51v-3.81l.51-.38a5.29 5.29 0 0 0 2.15-4.27V54.85l-.12-2.47a1.21 1.21 0 0 0-1.2-1.26c-1.19 0-1.2.38-1.2.58h-2.52v-.6a1.2 1.2 0 0 0-2.39 0H46v-1.23a1.2 1.2 0 0 0-2.39 0v1.38h-2.55V37.14a1.28 1.28 0 0 0-2.56 0V61.9l-2.55.1-.05-1.25v-5.12a2.49 2.49 0 0 0-2.48-2.49v3.33l.15 1h-.15v4.85l6.69 7.93a11.53 11.53 0 0 0 2.44 1.18l1 .23v3H41v-1.1a18.49 18.49 0 0 1-2.39-1.27l-.16-.1-7.55-8.93v-6.59l-.08-1h.08V53h-.07l.07-1.43v-.94h2.5a5 5 0 0 1 2.55.7v-14.2a3.8 3.8 0 0 1 7.6 0v9.23a3.72 3.72 0 0 1 4.32 1.49 3.71 3.71 0 0 1 4.82 1.09 4.91 4.91 0 0 1 1.89-.33 3.71 3.71 0 0 1 3.71 3.71l.12 2.46v11.5a7.76 7.76 0 0 1-2.65 5.87v2.58"/></clipPath><clipPath id="bu"><path class="a" d="M6.84 42.19v-.06l8.35.13v1.57A4.17 4.17 0 0 1 11 47.91h-.91l-1.33 3.84c2.62 1.93 4.4 5.61 4.4 9.84a13.1 13.1 0 0 1-2.72 8.23h-7.3V50.54l3.7-8.35"/></clipPath><clipPath id="bw"><path class="a" d="M11 71.09H1.89v-20.8l4.18-9.41 10.34.12.06 1.17a2.63 2.63 0 0 1 0 .28v1.37A5.44 5.44 0 0 1 11 49.18l-.72 2.16a13.86 13.86 0 0 1 4.18 10.27 14.29 14.29 0 0 1-3 9zm-6.6-2.51h5.41a12.17 12.17 0 0 0 2.08-7c0-3.69-1.49-7.07-3.88-8.83l-.74-.54 1.88-5.62 1.85.08a2.93 2.93 0 0 0 2.94-2.86v-.3l-6.27-.09-3.27 7.4v17.76z"/></clipPath><clipPath id="by"><path class="b" d="M0 67.87h19.43v6.59H0z"/></clipPath><clipPath id="ca"><path class="a" d="M14.47 33.34H27V22H14.47v11.3zM17 30.83h7.55v-6.28H17v6.28z"/></clipPath><clipPath id="cc"><path class="b" d="M13.84 35.85h19.13v2.51H13.84z"/></clipPath><clipPath id="ce"><path class="b" d="M18.24 40.88h14.73v2.51H18.24z"/></clipPath><clipPath id="cg"><path class="b" d="M18.24 45.9h14.73v2.51H18.24z"/></clipPath><clipPath id="ci"><path class="b" d="M13.84 50.92H28.1v2.51H13.84z"/></clipPath></defs><title>img-cover-xs-onefaculty-homepage</title><g class="c"><g class="d"><path class="e" d="M146.7 8.24h18.91v19.3H146.7z"/></g></g><g class="f"><g class="d"><path class="e" d="M145.46 7h21.4v21.79h-21.4z"/></g></g><g class="g"><g class="d"><path class="h" d="M101.36 8.24h59.37v69.42h-59.37z"/></g></g><g class="i"><g class="d"><path class="j" d="M101.36 7h59.66v71.91h-59.66z"/></g></g><g class="k"><g class="d"><path class="e" d="M97.24 61h55.42v16.66H97.24z"/></g></g><g class="l"><g class="d"><path class="e" d="M96 59.76h56.8v19.15H96z"/></g></g><g class="m"><g class="d"><path class="j" d="M145.46 7h21.4v21.93h-21.4z"/></g></g><g class="n"><g class="d"><path class="j" d="M137.63 59.76h15.44v19.28h-15.44z"/></g></g><g class="o"><g class="d"><path class="p" d="M131.86 47.81h16.28v18.63h-16.28z"/></g></g><g class="q"><g class="d"><path class="e" d="M129.07 40.55h22.64v22.64h-22.64z"/></g></g><g class="r"><g class="d"><path class="h" d="M132.7 44.17h15.57v15.57H132.7z"/></g></g><g class="s"><g class="d"><path class="p" d="M117.85 15.66h26.03v12.49h-26.03z"/></g></g><g class="t"><g class="d"><path class="j" d="M112.08 22.25h37v12.49h-37z"/></g></g><g class="u"><g class="d"><path class="j" d="M112.08 28.02h37v12.49h-37z"/></g></g><g class="v"><g class="d"><path class="j" d="M112.08 34.21h37V46.7h-37z"/></g></g><g class="w"><g class="d"><path class="j" d="M112.08 40.39h26.05v12.49h-26.05z"/></g></g><g class="x"><g class="d"><path class="p" d="M112.08 46.57h20.66v12.49h-20.66z"/></g></g><g class="y"><g class="d"><path class="j" d="M232.53 20.68h27.58v45.16h-27.58z"/></g></g><g class="z"><g class="d"><path class="h" d="M233.96 50.16h15.38v16.82h-15.38z"/></g></g><g class="aa"><g class="d"><path class="j" d="M232.53 48.74h18.25v18.25h-18.25z"/></g></g><g class="ab"><g class="d"><path class="j" d="M220.64-5h21.24v56.88h-21.24z"/></g></g><g class="ac"><g class="d"><path class="e" d="M219.22 6.41h24.11v39.66h-24.11z"/></g></g><g class="ad"><g class="d"><path class="j" d="M219.22 4.99h24.11v12.87h-24.11z"/></g></g><g class="ae"><g class="d"><path class="j" d="M219.22.71h24.11v12.87h-24.11z"/></g></g><g class="af"><g class="d"><path class="j" d="M213.51 48.74h36.07v12.87h-36.07z"/></g></g><g class="ag"><g class="d"><path class="j" d="M204 55.87h54.96v19.57H204z"/></g></g><g class="ah"><g class="d"><path class="h" d="M226.35 15.92h23.15v23.15h-23.15z"/></g></g><g class="ai"><g class="d"><path class="j" d="M224.92 14.5h26.02v26.02h-26.02z"/></g></g><g class="aj"><g class="d"><path class="p" d="M230.63 19.25h15.26v15.26h-15.26z"/></g></g><g class="ak"><g class="d"><path class="h" d="M3.81 8.26h48.97v63.55H3.81z"/></g></g><g class="al"><g class="d"><path class="j" d="M2.55 7h51.49v66.06H2.55z"/></g></g><g class="am"><g class="d"><path class="p" d="M6.95 14.53H50v52.96H6.95z"/></g></g><g class="an"><g class="d"><path class="h" d="M22.04 12.02h13.13v10H22.04z"/></g></g><g class="ao"><g class="d"><path class="j" d="M22.04 10.77h13.13v12.51H22.04z"/></g></g><g class="ap"><g class="d"><path class="h" d="M27.08 29.6H62.1v50.14H27.08z"/></g></g><g class="aq"><g class="d"><path class="j" d="M25.82 28.34h37.61v51.39H25.82z"/></g></g><g class="ar"><g class="d"><path class="h" d="M-1.86 37.13h22.08v37.69H-1.86z"/></g></g><g class="as"><g class="d"><path class="j" d="M-3.11 35.88h24.6V76.1h-24.6z"/></g></g><g class="at"><g class="d"><path class="e" d="M-5 62.87h29.43v16.59H-5z"/></g></g><g class="au"><g class="d"><path class="j" d="M9.47 17.04h22.58v21.3H9.47z"/></g></g><g class="av"><g class="d"><path class="j" d="M8.84 30.85h29.13v12.51H8.84z"/></g></g><g class="aw"><g class="d"><path class="j" d="M13.24 35.88h24.73v12.51H13.24z"/></g></g><g class="ax"><g class="d"><path class="j" d="M13.24 40.9h24.73v12.51H13.24z"/></g></g><g class="ay"><g class="d"><path class="j" d="M8.84 45.92H33.1v12.51H8.84z"/></g></g></svg>