<svg xmlns="http://www.w3.org/2000/svg" viewBox="0 0 636.33 460.4"><defs><style>.a,.b{fill:none}.b{clip-rule:evenodd}.c{clip-path:url(#a)}.d{clip-path:url(#b)}.e{fill:#fff}.f{clip-path:url(#c)}.g{clip-path:url(#e)}.h{clip-path:url(#g)}.i{clip-path:url(#i)}.j{clip-path:url(#k)}.k{clip-path:url(#m)}.l{clip-path:url(#o)}.m{clip-path:url(#q)}.n{clip-path:url(#s)}.o{clip-path:url(#u)}.p{clip-path:url(#w)}.q{clip-path:url(#y)}.r{clip-path:url(#aa)}.s{clip-path:url(#ac)}.t{clip-path:url(#ae)}.u{clip-path:url(#ag)}.v{clip-path:url(#ai)}.w{fill:#354262}.x{clip-path:url(#ak)}.y{fill:#6dada1}.z{clip-path:url(#am)}.aa{clip-path:url(#ao)}.ab{clip-path:url(#aq)}.ac{clip-path:url(#as)}.ad{clip-path:url(#au)}.ae{clip-path:url(#aw)}.af{clip-path:url(#ay)}.ag{clip-path:url(#ba)}.ah{clip-path:url(#bc)}.ai{clip-path:url(#be)}.aj{clip-path:url(#bg)}.ak{clip-path:url(#bi)}.al{clip-path:url(#bk)}.am{clip-path:url(#bm)}.an{clip-path:url(#bo)}.ao{clip-path:url(#bq)}.ap{clip-path:url(#bs)}.aq{clip-path:url(#bu)}.ar{clip-path:url(#bw)}.as{clip-path:url(#by)}.at{clip-path:url(#ca)}.au{clip-path:url(#cc)}.av{clip-path:url(#ce)}.aw{clip-path:url(#cg)}.ax{clip-path:url(#ci)}.ay{clip-path:url(#ck)}.az{clip-path:url(#cm)}.ba{clip-path:url(#co)}.bb{clip-path:url(#cq)}.bc{clip-path:url(#cs)}.bd{clip-path:url(#cu)}.be{clip-path:url(#cw)}.bf{clip-path:url(#cy)}.bg{clip-path:url(#da)}.bh{clip-path:url(#dc)}.bi{clip-path:url(#de)}.bj{clip-path:url(#dg)}.bk{clip-path:url(#di)}.bl{clip-path:url(#dk)}.bm{clip-path:url(#dm)}.bn{clip-path:url(#do)}.bo{clip-path:url(#dq)}.bp{clip-path:url(#ds)}.bq{clip-path:url(#du)}.br{clip-path:url(#dw)}.bs{clip-path:url(#dy)}.bt{clip-path:url(#ea)}.bu{fill:#9eb9d9}.bv{clip-path:url(#ec)}.bw{clip-path:url(#ee)}.bx{clip-path:url(#eg)}.by{clip-path:url(#ei)}.bz{clip-path:url(#ek)}.ca{clip-path:url(#em)}.cb{clip-path:url(#eo)}.cc{clip-path:url(#eq)}.cd{clip-path:url(#es)}.ce{clip-path:url(#eu)}.cf{clip-path:url(#ew)}.cg{clip-path:url(#ey)}.ch{clip-path:url(#fa)}.ci{clip-path:url(#fc)}.cj{clip-path:url(#fe)}.ck{clip-path:url(#fg)}.cl{clip-path:url(#fi)}.cm{clip-path:url(#fk)}.cn{clip-path:url(#fm)}.co{clip-path:url(#fo)}.cp{clip-path:url(#fq)}.cq{clip-path:url(#fs)}.cr{clip-path:url(#fu)}.cs{clip-path:url(#fw)}.ct{clip-path:url(#fy)}.cu{clip-path:url(#ga)}.cv{clip-path:url(#gc)}.cw{clip-path:url(#ge)}.cx{clip-path:url(#gg)}.cy{clip-path:url(#gi)}.cz{clip-path:url(#gk)}.da{clip-path:url(#gm)}.db{clip-path:url(#go)}.dc{clip-path:url(#gq)}.dd{clip-path:url(#gs)}.de{clip-path:url(#gu)}.df{clip-path:url(#gw)}.dg{clip-path:url(#gy)}.dh{clip-path:url(#ha)}.di{clip-path:url(#hc)}.dj{clip-path:url(#he)}.dk{clip-path:url(#hg)}.dl{clip-path:url(#hi)}.dm{clip-path:url(#hk)}.dn{clip-path:url(#hm)}.do{clip-path:url(#ho)}.dp{clip-path:url(#hq)}.dq{clip-path:url(#hs)}.dr{clip-path:url(#hu)}.ds{clip-path:url(#hw)}.dt{clip-path:url(#hy)}.du{clip-path:url(#ia)}.dv{clip-path:url(#ic)}.dw{clip-path:url(#ie)}.dx{clip-path:url(#ig)}.dy{clip-path:url(#ii)}.dz{clip-path:url(#ik)}.ea{clip-path:url(#im)}.eb{clip-path:url(#io)}.ec{clip-path:url(#iq)}.ed{clip-path:url(#is)}.ee{clip-path:url(#iu)}.ef{clip-path:url(#iw)}.eg{clip-path:url(#iy)}.eh{clip-path:url(#ja)}.ei{clip-path:url(#jc)}.ej{clip-path:url(#je)}.ek{clip-path:url(#jg)}.el{clip-path:url(#ji)}.em{clip-path:url(#jk)}.en{clip-path:url(#jm)}.eo{clip-path:url(#jo)}.ep{clip-path:url(#jq)}.eq{clip-path:url(#js)}.er{clip-path:url(#ju)}.es{clip-path:url(#jw)}.et{clip-path:url(#jy)}.eu{clip-path:url(#ka)}.ev{clip-path:url(#kc)}.ew{clip-path:url(#ke)}.ex{clip-path:url(#kg)}.ey{clip-path:url(#ki)}.ez{clip-path:url(#kk)}.fa{clip-path:url(#km)}.fb{clip-path:url(#ko)}.fc{clip-path:url(#kq)}.fd{clip-path:url(#ks)}.fe{clip-path:url(#ku)}.ff{clip-path:url(#kw)}.fg{clip-path:url(#ky)}.fh{clip-path:url(#la)}.fi{clip-path:url(#lc)}.fj{clip-path:url(#le)}.fk{clip-path:url(#lg)}.fl{clip-path:url(#li)}.fm{clip-path:url(#lk)}.fn{clip-path:url(#lm)}.fo{clip-path:url(#lo)}.fp{clip-path:url(#lq)}.fq{clip-path:url(#ls)}.fr{clip-path:url(#lu)}.fs{clip-path:url(#lw)}.ft{clip-path:url(#ly)}.fu{clip-path:url(#ma)}.fv{clip-path:url(#mc)}.fw{clip-path:url(#me)}.fx{clip-path:url(#mg)}</style><clipPath id="a"><path class="a" d="M147.97 285.77h89.16v-8h-93.16v8h4z"/></clipPath><clipPath id="b"><path class="a" d="M-2.23-2.59h641v464h-641z"/></clipPath><clipPath id="c"><path class="a" d="M87.78 143.2h149.35v-8H83.78v8h4z"/></clipPath><clipPath id="e"><path class="a" d="M492.27 180.23h53.06v-8h-57.06v8h4z"/></clipPath><clipPath id="g"><path class="a" d="M492.27 258h53.06v-8h-57.06v8h4z"/></clipPath><clipPath id="i"><path class="a" d="M417.28 410.75h25.31v-8h-29.31v8h4z"/></clipPath><clipPath id="k"><path class="a" d="M52.71 97.78l107.16-50.31 3.62-1.7-3.4-7.24-3.62 1.7L49.31 90.54l-3.62 1.7 3.4 7.24 3.62-1.7z"/></clipPath><clipPath id="m"><path class="a" d="M174.36 399.64h183.02v-8H170.36v8h4z"/></clipPath><clipPath id="o"><path class="a" d="M440.43 285.77h51.15v-8h-55.15v8h4z"/></clipPath><clipPath id="q"><path class="a" d="M147.25 437.35l-1.44-195.74-.02-3.68-8 .03.02 3.69 1.44 195.74.03 3.68 8-.03-.03-3.69z"/></clipPath><clipPath id="s"><path class="a" d="M193.63 137.54V62.07h-8v79.47h8v-4z"/></clipPath><clipPath id="u"><path class="a" d="M353.74 221.13V172.2h-8v52.93h8v-4z"/></clipPath><clipPath id="w"><path class="a" d="M357.44 395.67V366.5h-8v33.17h8v-4z"/></clipPath><clipPath id="y"><path class="a" d="M421.3 405.93v-40.36h-8v44.36h8v-4z"/></clipPath><clipPath id="aa"><path class="a" d="M45.82 343.89v-27.47l-1.27 2.93 84.29-78.58 2.92-2.72-5.45-5.86-2.93 2.73-84.29 78.58-1.27 1.18v33.21h8v-4z"/></clipPath><clipPath id="ac"><path class="a" d="M491.64 280.1V173.93h-8V284.1h8v-4z"/></clipPath><clipPath id="ae"><path class="a" d="M565.68 373.6v-47.84h-8v51.84h8v-4z"/></clipPath><clipPath id="ag"><path class="a" d="M301.91 414.33v-23.05h-8v27.05h8v-4z"/></clipPath><clipPath id="ai"><path class="b" d="M561.79 439.08a33 33 0 1 1 33-33 33 33 0 0 1-33 33zm0-59.58a26.58 26.58 0 1 0 26.59 26.58 26.61 26.61 0 0 0-26.59-26.57z"/></clipPath><clipPath id="ak"><path class="b" d="M545.27 417.57a19.86 19.86 0 0 1-3.61-11.49 20.14 20.14 0 0 1 40.27 0 19.86 19.86 0 0 1-3.61 11.48 10.78 10.78 0 0 0-10-6.8h-13a10.78 10.78 0 0 0-10 6.8"/></clipPath><clipPath id="am"><path class="b" d="M570.48 403.19a8.69 8.69 0 1 1-8.69-8.69 8.69 8.69 0 0 1 8.69 8.69"/></clipPath><clipPath id="ao"><path class="b" d="M561.79 415.09a11.9 11.9 0 1 1 11.9-11.9 11.91 11.91 0 0 1-11.9 11.9zm0-17.37a5.48 5.48 0 1 0 5.48 5.48 5.49 5.49 0 0 0-5.48-5.49z"/></clipPath><clipPath id="aq"><path class="b" d="M580.21 431.55h-6.42v-10a5.49 5.49 0 0 0-5.48-5.48h-13a5.49 5.49 0 0 0-5.48 5.48v10h-6.42v-10a11.91 11.91 0 0 1 11.9-11.9h13a11.91 11.91 0 0 1 11.9 11.9v10"/></clipPath><clipPath id="as"><path class="b" d="M187.84 66a33 33 0 1 1 33-33 33 33 0 0 1-33 33zm0-59.58A26.58 26.58 0 1 0 214.43 33a26.61 26.61 0 0 0-26.59-26.58z"/></clipPath><clipPath id="au"><path class="b" d="M171.31 44.48A19.86 19.86 0 0 1 167.7 33a20.14 20.14 0 0 1 40.3 0 19.86 19.86 0 0 1-3.61 11.48 10.78 10.78 0 0 0-10-6.8h-13a10.78 10.78 0 0 0-10 6.8"/></clipPath><clipPath id="aw"><path class="b" d="M196.53 30.1a8.69 8.69 0 1 1-8.69-8.69 8.69 8.69 0 0 1 8.69 8.69"/></clipPath><clipPath id="ay"><path class="b" d="M187.84 42a11.9 11.9 0 1 1 11.9-11.9 11.91 11.91 0 0 1-11.9 11.9zm0-17.37a5.48 5.48 0 1 0 5.48 5.48 5.49 5.49 0 0 0-5.48-5.49z"/></clipPath><clipPath id="ba"><path class="b" d="M206.26 58.46h-6.42v-10a5.49 5.49 0 0 0-5.48-5.46h-13a5.49 5.49 0 0 0-5.48 5.48v10h-6.42v-10a11.91 11.91 0 0 1 11.9-11.9h13a11.91 11.91 0 0 1 11.9 11.9v10"/></clipPath><clipPath id="bc"><path class="b" d="M297.53 460.4A22.46 22.46 0 1 1 320 437.95a22.49 22.49 0 0 1-22.47 22.45zm0-40.55a18.09 18.09 0 1 0 18.09 18.09 18.11 18.11 0 0 0-18.09-18.09z"/></clipPath><clipPath id="be"><path class="b" d="M286.28 445.76a13.51 13.51 0 0 1-2.46-7.82 13.7 13.7 0 0 1 27.41 0 13.52 13.52 0 0 1-2.46 7.82 7.34 7.34 0 0 0-6.81-4.63h-8.87a7.34 7.34 0 0 0-6.81 4.63"/></clipPath><clipPath id="bg"><path class="b" d="M303.44 436a5.91 5.91 0 1 1-5.91-5.91 5.91 5.91 0 0 1 5.91 5.91"/></clipPath><clipPath id="bi"><path class="b" d="M297.53 444.07a8.1 8.1 0 1 1 8.1-8.1 8.11 8.11 0 0 1-8.1 8.1zm0-11.82a3.73 3.73 0 1 0 3.73 3.73 3.73 3.73 0 0 0-3.73-3.73z"/></clipPath><clipPath id="bk"><path class="b" d="M310.06 455.28h-4.37v-6.82a3.73 3.73 0 0 0-3.73-3.73h-8.87a3.73 3.73 0 0 0-3.73 3.73v6.82H285v-6.82a8.11 8.11 0 0 1 8.1-8.1h8.9a8.11 8.11 0 0 1 8.1 8.1v6.82"/></clipPath><clipPath id="bm"><path class="b" d="M541.84 192.86a18.79 18.79 0 1 1 18.8-18.79 18.81 18.81 0 0 1-18.8 18.79zm0-33.93A15.14 15.14 0 1 0 557 174.07a15.16 15.16 0 0 0-15.16-15.14z"/></clipPath><clipPath id="bo"><path class="b" d="M532.43 180.61a11.31 11.31 0 0 1-2.06-6.54 11.47 11.47 0 0 1 22.93 0 11.31 11.31 0 0 1-2.06 6.54 6.14 6.14 0 0 0-5.7-3.87h-7.42a6.14 6.14 0 0 0-5.7 3.87"/></clipPath><clipPath id="bq"><path class="b" d="M546.79 172.42a4.95 4.95 0 1 1-4.95-4.95 4.95 4.95 0 0 1 4.95 4.95"/></clipPath><clipPath id="bs"><path class="b" d="M541.84 179.19a6.77 6.77 0 1 1 6.78-6.77 6.78 6.78 0 0 1-6.78 6.77zm0-9.89a3.12 3.12 0 1 0 3.12 3.12 3.12 3.12 0 0 0-3.12-3.12z"/></clipPath><clipPath id="bu"><path class="b" d="M552.33 188.57h-3.66v-5.71a3.12 3.12 0 0 0-3.12-3.12h-7.42a3.12 3.12 0 0 0-3.12 3.12v5.71h-3.66v-5.71a6.78 6.78 0 0 1 6.78-6.78h7.42a6.78 6.78 0 0 1 6.78 6.78v5.71"/></clipPath><clipPath id="bw"><path class="b" d="M459.48 427.08a18.79 18.79 0 1 1 18.8-18.79 18.81 18.81 0 0 1-18.8 18.79zm0-33.93a15.14 15.14 0 1 0 15.14 15.14 15.16 15.16 0 0 0-15.14-15.14z"/></clipPath><clipPath id="by"><path class="b" d="M450.07 414.83a11.31 11.31 0 0 1-2.06-6.54 11.47 11.47 0 0 1 22.93 0 11.31 11.31 0 0 1-2.06 6.54 6.14 6.14 0 0 0-5.7-3.87h-7.42a6.14 6.14 0 0 0-5.7 3.87"/></clipPath><clipPath id="ca"><path class="b" d="M464.42 406.64a4.95 4.95 0 1 1-4.95-4.95 4.95 4.95 0 0 1 4.95 4.95"/></clipPath><clipPath id="cc"><path class="b" d="M459.48 413.42a6.77 6.77 0 1 1 6.78-6.77 6.78 6.78 0 0 1-6.78 6.77zm0-9.89a3.12 3.12 0 1 0 3.12 3.12 3.12 3.12 0 0 0-3.12-3.13z"/></clipPath><clipPath id="ce"><path class="b" d="M470 422.79h-3.66v-5.71a3.12 3.12 0 0 0-3.12-3.12h-7.42a3.12 3.12 0 0 0-3.12 3.12v5.71H449v-5.71a6.78 6.78 0 0 1 6.78-6.77h7.42a6.78 6.78 0 0 1 6.78 6.77v5.71"/></clipPath><clipPath id="cg"><path class="b" d="M140.18 241.92A18.79 18.79 0 1 1 159 223.13a18.81 18.81 0 0 1-18.82 18.79zm0-33.93a15.14 15.14 0 1 0 15.14 15.14A15.16 15.16 0 0 0 140.18 208z"/></clipPath><clipPath id="ci"><path class="b" d="M130.77 229.67a11.31 11.31 0 0 1-2.06-6.54 11.47 11.47 0 0 1 22.93 0 11.31 11.31 0 0 1-2.06 6.54 6.14 6.14 0 0 0-5.7-3.87h-7.42a6.14 6.14 0 0 0-5.7 3.87"/></clipPath><clipPath id="ck"><path class="b" d="M145.13 221.48a4.95 4.95 0 1 1-4.95-4.95 4.95 4.95 0 0 1 4.95 4.95"/></clipPath><clipPath id="cm"><path class="b" d="M140.18 228.26a6.77 6.77 0 1 1 6.78-6.77 6.78 6.78 0 0 1-6.78 6.77zm0-9.89a3.12 3.12 0 1 0 3.12 3.12 3.12 3.12 0 0 0-3.12-3.12z"/></clipPath><clipPath id="co"><path class="b" d="M150.67 237.64H147v-5.71a3.12 3.12 0 0 0-3.12-3.12h-7.42a3.12 3.12 0 0 0-3.12 3.12v5.71h-3.64v-5.71a6.78 6.78 0 0 1 6.78-6.77h7.42a6.78 6.78 0 0 1 6.78 6.77v5.71"/></clipPath><clipPath id="cq"><path class="b" d="M40.62 382.64a18.79 18.79 0 1 1 18.8-18.79 18.81 18.81 0 0 1-18.8 18.79zm0-33.93a15.14 15.14 0 1 0 15.14 15.14 15.16 15.16 0 0 0-15.14-15.13z"/></clipPath><clipPath id="cs"><path class="b" d="M31.2 370.39a11.31 11.31 0 0 1-2.06-6.54 11.47 11.47 0 0 1 22.93 0 11.31 11.31 0 0 1-2.07 6.54 6.14 6.14 0 0 0-5.7-3.87h-7.4a6.14 6.14 0 0 0-5.7 3.87"/></clipPath><clipPath id="cu"><path class="b" d="M45.56 362.2a4.95 4.95 0 1 1-4.95-4.95 4.95 4.95 0 0 1 4.95 4.95"/></clipPath><clipPath id="cw"><path class="b" d="M40.62 369a6.77 6.77 0 1 1 6.78-6.77 6.78 6.78 0 0 1-6.78 6.77zm0-9.89a3.12 3.12 0 1 0 3.12 3.12 3.12 3.12 0 0 0-3.12-3.15z"/></clipPath><clipPath id="cy"><path class="b" d="M51.1 378.35h-3.65v-5.71a3.12 3.12 0 0 0-3.12-3.12H36.9a3.12 3.12 0 0 0-3.12 3.12v5.71h-3.65v-5.71a6.78 6.78 0 0 1 6.78-6.77h7.42a6.78 6.78 0 0 1 6.78 6.77v5.71"/></clipPath><clipPath id="da"><path class="b" d="M40.2 314.1a33 33 0 1 1 33-33 33 33 0 0 1-33 33zm0-59.58a26.58 26.58 0 1 0 26.59 26.58 26.61 26.61 0 0 0-26.59-26.57z"/></clipPath><clipPath id="dc"><path class="b" d="M23.68 292.59a19.86 19.86 0 0 1-3.61-11.49 20.14 20.14 0 0 1 40.27 0 19.86 19.86 0 0 1-3.61 11.48 10.78 10.78 0 0 0-10-6.8h-13a10.78 10.78 0 0 0-10 6.8"/></clipPath><clipPath id="de"><path class="b" d="M48.89 278.21a8.69 8.69 0 1 1-8.69-8.69 8.69 8.69 0 0 1 8.69 8.69"/></clipPath><clipPath id="dg"><path class="b" d="M40.2 290.11a11.9 11.9 0 1 1 11.9-11.9 11.91 11.91 0 0 1-11.9 11.9zm0-17.37a5.48 5.48 0 1 0 5.48 5.48 5.49 5.49 0 0 0-5.48-5.49z"/></clipPath><clipPath id="di"><path class="b" d="M58.62 306.57H52.2v-10a5.49 5.49 0 0 0-5.48-5.48h-13a5.49 5.49 0 0 0-5.48 5.48v10h-6.46v-10a11.91 11.91 0 0 1 11.9-11.9h13a11.91 11.91 0 0 1 11.9 11.9v10"/></clipPath><clipPath id="dk"><path class="b" d="M176.08 355.11V346a8.37 8.37 0 0 1 16.75 0v9.1h-16.75"/></clipPath><clipPath id="dm"><path class="b" d="M195.17 357.46h-21.42V346a10.71 10.71 0 0 1 21.42 0v11.44zm-16.75-4.67h12.08V346a6 6 0 0 0-12.07 0v6.77z"/></clipPath><clipPath id="do"><path class="b" d="M176.24 345.94v94.98a8.39 8.39 0 0 1-7.42 8.31H90.88a8.37 8.37 0 0 0 7.4-8.31v-94.98a8.36 8.36 0 0 1 7.4-8.31h77.93a8.37 8.37 0 0 0-7.4 8.31"/></clipPath><clipPath id="dq"><path class="b" d="M169.23 451.58H91.16l-.28-4.66a6 6 0 0 0 5.33-6v-95a10.69 10.69 0 0 1 9.46-10.63h78.23l.28 4.66a6 6 0 0 0-5.33 6v95.92a10.72 10.72 0 0 1-9.45 9.69zm-56.72-4.68h56.44a6 6 0 0 0 5.23-6l-.07-3.74h.07V346a10.67 10.67 0 0 1 1.82-6h-69.87a6 6 0 0 0-5.2 6v95.41a10.65 10.65 0 0 1-1.81 5.54h13.43z"/></clipPath><clipPath id="ds"><path class="b" d="M161.07 436.73v4.21a8.37 8.37 0 0 0 7.4 8.31H90.54a8.37 8.37 0 0 1-7.4-8.31v-4.21h77.93"/></clipPath><clipPath id="du"><path class="b" d="M90.55 451.6h-.27a10.7 10.7 0 0 1-9.46-10.6v-6.54h82.6V441a6 6 0 0 0 5.33 6l-.28 4.66H90.55zm-5.06-12.51V441a6 6 0 0 0 5.21 6h69.87a10.66 10.66 0 0 1-1.82-6v-1.87H85.49z"/></clipPath><clipPath id="dw"><path class="b" d="M195.17 357.72h-4.67V346a6 6 0 0 0-12.07 0h-4.67a10.71 10.71 0 0 1 21.42 0v11.71"/></clipPath><clipPath id="dy"><path class="b" d="M169.26 451.83c-5.45 0-10.22-5-10.22-10.64v-6.78h4.67v6.78c0 3 2.75 6 5.55 6v4.67"/></clipPath><clipPath id="ea"><path class="b" d="M159.99 428.17l-5.9-4.07-5.9 4.07v-16.21h11.8v16.21"/></clipPath><clipPath id="ec"><path class="b" d="M166.7 410.19c0 .6-1.1 1.12-1.19 1.69s.79 1.42.61 2-1.39.71-1.65 1.24.31 1.59 0 2.07-1.54.25-2 .67-.19 1.61-.67 2-1.54-.24-2.07 0-.67 1.47-1.24 1.65-1.38-.7-2-.61-1.09 1.19-1.69 1.19-1.11-1.1-1.69-1.19-1.42.79-2 .61-.72-1.39-1.24-1.66-1.59.32-2.07 0-.25-1.54-.67-2-1.61-.19-2-.67.24-1.54 0-2.07-1.47-.67-1.66-1.24.7-1.38.61-2-1.19-1.09-1.19-1.69 1.1-1.11 1.19-1.69-.79-1.42-.61-2 1.39-.71 1.65-1.24-.31-1.59 0-2.07 1.54-.25 2-.67.19-1.61.67-2 1.54.24 2.07 0 .67-1.47 1.24-1.66 1.38.7 2 .61 1.09-1.19 1.69-1.19 1.11 1.1 1.69 1.19 1.42-.79 2-.61.72 1.39 1.24 1.66 1.59-.31 2.07 0 .25 1.54.67 2 1.61.19 2 .67-.24 1.54 0 2.07 1.47.67 1.66 1.24-.7 1.38-.61 2 1.19 1.09 1.19 1.69"/></clipPath><clipPath id="ee"><path class="b" d="M160.23 410.36a5.24 5.24 0 1 1-5.23-5.23 5.23 5.23 0 0 1 5.23 5.23"/></clipPath><clipPath id="eg"><path class="a" d="M121.86 351.57h30.11v4.67h-30.11z"/></clipPath><clipPath id="ei"><path class="a" d="M111.02 363.96h50.72v4.67h-50.72z"/></clipPath><clipPath id="ek"><path class="a" d="M111.02 374.79h50.72v4.67h-50.72z"/></clipPath><clipPath id="em"><path class="a" d="M111.02 386.41h50.72v4.67h-50.72z"/></clipPath><clipPath id="eo"><path class="a" d="M111.02 398.02h30.15v4.67h-30.15z"/></clipPath><clipPath id="eq"><path class="a" d="M111.02 409.63h20.02v4.67h-20.02z"/></clipPath><clipPath id="es"><path class="b" d="M53.61 175.3v-5.39a27.63 27.63 0 1 0 0-55.25v-5.39a33 33 0 1 1 0 66"/></clipPath><clipPath id="eu"><path class="a" d="M56.29 164.65H66.4v12.8H56.29z"/></clipPath><clipPath id="ew"><path class="b" d="M69.11 177.46h-5.39v-10.1H59v10.1h-5.39v-15.49h15.5v15.49"/></clipPath><clipPath id="ey"><path class="b" d="M31.27 149.08h21.12V61H31.27v88zm5.39-5.39H47V66.43H36.66v77.26z"/></clipPath><clipPath id="fa"><path class="a" d="M28.59 82.47H55.1v55.7H28.59z"/></clipPath><clipPath id="fc"><path class="a" d="M28.59 79.8H55.1v5.39H28.59z"/></clipPath><clipPath id="fe"><path class="a" d="M28.59 71.76H55.1v5.39H28.59z"/></clipPath><clipPath id="fg"><path class="a" d="M17.87 161.97h48.98v5.39H17.87z"/></clipPath><clipPath id="fi"><path class="b" d="M84.48 193.33H0V182.1a6.75 6.75 0 0 1 6.74-6.74h71a6.75 6.75 0 0 1 6.74 6.74v11.23zm-79.09-5.39h73.7v-5.84a1.35 1.35 0 0 0-1.35-1.35h-71a1.35 1.35 0 0 0-1.35 1.35v5.84z"/></clipPath><clipPath id="fk"><path class="b" d="M66.71 112.69a12.36 12.36 0 1 1-12.36-12.35 12.36 12.36 0 0 1 12.36 12.35"/></clipPath><clipPath id="fm"><path class="b" d="M54.36 127.76a15 15 0 1 1 15.05-15 15.07 15.07 0 0 1-15.05 15zm0-24.71a9.66 9.66 0 1 0 9.64 9.66 9.67 9.67 0 0 0-9.64-9.71z"/></clipPath><clipPath id="fo"><path class="b" d="M59.92 111.53a4.94 4.94 0 1 1-4.92-4.94 4.94 4.94 0 0 1 4.94 4.94"/></clipPath><clipPath id="fq"><path class="b" d="M248.08 238.33h-2.91a5.78 5.78 0 0 0-5.9 5.64v120.39h215.65V244a5.79 5.79 0 0 0-5.91-5.64h-2.85"/></clipPath><clipPath id="fs"><path class="b" d="M459.49 368.72h-224.8V244a10.26 10.26 0 0 1 10.48-10h2.91v8.73h-2.91a1.31 1.31 0 0 0-1.33 1.27v116h206.51V244a1.31 1.31 0 0 0-1.34-1.27h-2.85V234H449a10.26 10.26 0 0 1 10.48 10v124.72"/></clipPath><clipPath id="fu"><path class="a" d="M255.26 225.24h181.93v122.57H255.26z"/></clipPath><clipPath id="fw"><path class="b" d="M335.28 218.7H269v117.6h66.3c7.16 0 13 5.54 13 12.38v-117.6c0-6.83-5.81-12.38-13-12.38"/></clipPath><clipPath id="fy"><path class="b" d="M352.83 348.67h-9.14a8.22 8.22 0 0 0-8.4-8h-70.88V214.33h70.87c9.67 0 17.55 7.51 17.55 16.74v117.6zm-79.27-16.74h61.73a18.11 18.11 0 0 1 8.4 2V231.08a8.23 8.23 0 0 0-8.4-8h-61.74v108.85z"/></clipPath><clipPath id="ga"><path class="b" d="M362 218.7h66.3v117.6H362c-7.16 0-13 5.54-13 12.38v-117.6c0-6.83 5.81-12.38 13-12.38"/></clipPath><clipPath id="gc"><path class="b" d="M353.56 348.67h-9.14V231.08c0-9.23 7.87-16.74 17.54-16.74h70.87v126.32H362a8.22 8.22 0 0 0-8.44 8.01zM362 223.06a8.22 8.22 0 0 0-8.4 8V334a18.12 18.12 0 0 1 8.4-2h61.73V223.06H362z"/></clipPath><clipPath id="ge"><path class="a" d="M280.41 236.15h30.86"/></clipPath><clipPath id="gg"><path class="a" d="M280.41 231.79h30.86v8.73h-30.86z"/></clipPath><clipPath id="gi"><path class="a" d="M280.41 251.42h51.97"/></clipPath><clipPath id="gk"><path class="a" d="M280.41 247.06h51.98v8.73h-51.98z"/></clipPath><clipPath id="gm"><path class="a" d="M280.41 268.87h51.97"/></clipPath><clipPath id="go"><path class="a" d="M280.41 264.51h51.98v8.73h-51.98z"/></clipPath><clipPath id="gq"><path class="a" d="M280.41 284.14h51.97"/></clipPath><clipPath id="gs"><path class="a" d="M280.41 279.78h51.98v8.73h-51.98z"/></clipPath><clipPath id="gu"><path class="a" d="M280.41 299.41h51.97"/></clipPath><clipPath id="gw"><path class="a" d="M280.41 295.05h51.98v8.73h-51.98z"/></clipPath><clipPath id="gy"><path class="a" d="M280.41 314.68h51.97"/></clipPath><clipPath id="ha"><path class="a" d="M280.41 310.32h51.98v8.73h-51.98z"/></clipPath><clipPath id="hc"><path class="a" d="M360.41 251.42h51.98"/></clipPath><clipPath id="he"><path class="a" d="M360.41 247.06h51.98v8.73h-51.98z"/></clipPath><clipPath id="hg"><path class="a" d="M360.41 268.87h51.98"/></clipPath><clipPath id="hi"><path class="a" d="M360.41 264.51h51.98v8.73h-51.98z"/></clipPath><clipPath id="hk"><path class="a" d="M360.41 284.14h51.98"/></clipPath><clipPath id="hm"><path class="a" d="M360.41 279.78h51.98v8.73h-51.98z"/></clipPath><clipPath id="ho"><path class="a" d="M360.41 299.41h51.98"/></clipPath><clipPath id="hq"><path class="a" d="M360.41 295.05h51.98v8.73h-51.98z"/></clipPath><clipPath id="hs"><path class="a" d="M360.41 314.68h51.98"/></clipPath><clipPath id="hu"><path class="a" d="M360.41 310.32h51.98v8.73h-51.98z"/></clipPath><clipPath id="hw"><path class="a" d="M500.84 39.6h132.78v91.52H500.84z"/></clipPath><clipPath id="hy"><path class="b" d="M498.16 133.83h138.17V36.92H498.16v96.91zm5.39-5.39h127.39V42.31H503.55v86.13z"/></clipPath><clipPath id="ia"><path class="a" d="M513.35 111.95h54.32"/></clipPath><clipPath id="ic"><path class="a" d="M513.35 109.27h54.33v5.39h-54.33z"/></clipPath><clipPath id="ie"><path class="a" d="M513.35 89.62h72.22"/></clipPath><clipPath id="ig"><path class="a" d="M513.35 86.94h72.23v5.39h-72.23z"/></clipPath><clipPath id="ii"><path class="a" d="M585.57 100.34h-72.22"/></clipPath><clipPath id="ik"><path class="a" d="M513.35 97.66h72.23v5.39h-72.23z"/></clipPath><clipPath id="im"><path class="a" d="M513.35 75.33h72.22"/></clipPath><clipPath id="io"><path class="a" d="M513.35 73.54h72.23v5.39h-72.23z"/></clipPath><clipPath id="iq"><path class="a" d="M500.84 23.53h132.78v15.5H500.84z"/></clipPath><clipPath id="is"><path class="b" d="M498.16 41.73h138.17V20.85H498.16v20.88zm5.39-5.39h127.39v-10.1H503.55v10.1z"/></clipPath><clipPath id="iu"><path class="a" d="M506.2 31.56h5.04"/></clipPath><clipPath id="iw"><path class="a" d="M506.2 28.88h5.04v5.39h-5.04z"/></clipPath><clipPath id="iy"><path class="a" d="M516.03 31.56h5.04"/></clipPath><clipPath id="ja"><path class="a" d="M516.03 28.88h5.04v5.39h-5.04z"/></clipPath><clipPath id="jc"><path class="a" d="M524.07 31.56h5.04"/></clipPath><clipPath id="je"><path class="a" d="M524.07 28.88h5.04v5.39h-5.04z"/></clipPath><clipPath id="jg"><path class="a" d="M513.35 53h44.49v10h-44.49z"/></clipPath><clipPath id="ji"><path class="b" d="M598.22 74.15v-3.24l9.26-17.02 9.26 17.02.01 3.24"/></clipPath><clipPath id="jk"><path class="b" d="M614.07 74.43l-.01-2.55-6.56-12.07-6.57 12.07v2.55h-5.39V70.5l11.96-21.97 11.96 21.97v3.93h-5.39"/></clipPath><clipPath id="jm"><path class="b" d="M598.23 74.44h18.75v55.18h-18.76l.01-55.18"/></clipPath><clipPath id="jo"><path class="b" d="M614.3 77.15v49.79h-13.36V77.15h13.36zm5.39-5.39h-24.14v60.57h24.15V71.76z"/></clipPath><clipPath id="jq"><path class="b" d="M598.22 148.57V156a1.87 1.87 0 0 0 2 1.66h14.47a1.88 1.88 0 0 0 2-1.66v-7.47"/></clipPath><clipPath id="js"><path class="b" d="M600.27 160.4a4.52 4.52 0 0 1-4.73-4.35v-7.47h5.39V155h13.15v-6.43h5.39V156a4.16 4.16 0 0 1-1.25 3 5 5 0 0 1-3.49 1.4h-14.46"/></clipPath><clipPath id="ju"><path class="b" d="M619.69 133.38v11.49h-24.15v-11.49h24.15"/></clipPath><clipPath id="jw"><path class="b" d="M572.46 329.17h-39.4a3.89 3.89 0 0 1-3.89-3.88v-92.82a3.89 3.89 0 0 1 3.89-3.89h65.44a3.89 3.89 0 0 1 3.89 3.89v55"/></clipPath><clipPath id="jy"><path class="b" d="M572.46 331.53h-39.4a6.26 6.26 0 0 1-6.26-6.24v-92.82a6.26 6.26 0 0 1 6.26-6.25h65.44a6.26 6.26 0 0 1 6.26 6.25v55H600v-55a1.53 1.53 0 0 0-1.53-1.53h-65.41a1.53 1.53 0 0 0-1.53 1.53v92.81a1.53 1.53 0 0 0 1.53 1.53h39.4v4.72"/></clipPath><clipPath id="ka"><path class="a" d="M535.08 240.37h62.1v80.68h-62.1z"/></clipPath><clipPath id="kc"><path class="a" d="M569.33 235.66h-5.89"/></clipPath><clipPath id="ke"><path class="a" d="M563.44 233.3h5.89v4.72h-5.89z"/></clipPath><clipPath id="kg"><path class="b" d="M614.91 344.06v-6a12.32 12.32 0 0 0 5-9.9V306.7l-.24-4.7a4.61 4.61 0 0 0-4.61-4.6c-2.55 0-4.61.91-4.61 3.45v-1.15a4.61 4.61 0 0 0-9.22 0v-2.3a4.61 4.61 0 0 0-9.22 0v-23.92a4.77 4.77 0 0 0-9.54 0V320l-.1-2.26v-9.51a7 7 0 0 0-7-7h-2.35v20.5l13.36 15.84a26 26 0 0 0 5.59 2.71v3.87"/></clipPath><clipPath id="ki"><path class="b" d="M617.42 344.06h-4.73v-7.16l.95-.71a9.93 9.93 0 0 0 4-8V306.7l-.23-4.63a2.28 2.28 0 0 0-2.25-2.36c-2.24 0-2.25.71-2.25 1.09h-4.73v-1.15a2.25 2.25 0 0 0-4.5 0H599v-2.3a2.25 2.25 0 0 0-4.5 0v2.59h-4.73v-26.51a2.41 2.41 0 0 0-4.82 0v46.52l-4.72.1-.1-2.26v-9.61a4.68 4.68 0 0 0-4.67-4.67v6.25l.29 1.83-.29.09v9.11L588 335.68a21.66 21.66 0 0 0 4.58 2.22l1.8.44v5.72h-4.73v-2.2a34.74 34.74 0 0 1-4.5-2.39l-.31-.2-14.17-16.77v-12.37l-.15-1.84h.15v-5h-.13l.13-2.69V299h.09v-.17h4.61a9.37 9.37 0 0 1 4.79 1.31v-26.71a7.14 7.14 0 0 1 14.27 0v17.34a7 7 0 0 1 8.11 2.8 7 7 0 0 1 9.05 2.05 9.23 9.23 0 0 1 3.54-.62 7 7 0 0 1 7 7l.23 4.63v21.59a14.57 14.57 0 0 1-5 11v4.85"/></clipPath><clipPath id="kk"><path class="b" d="M525.48 282.93l.05-.12 15.68.24v2.93a7.83 7.83 0 0 1-8 7.69l-1.72-.05-2.43 7.26c4.93 3.62 8.26 10.54 8.26 18.49a24.6 24.6 0 0 1-5.11 15.46h-13.7v-36.22l6.94-15.68"/></clipPath><clipPath id="km"><path class="b" d="M533.36 337.21h-17.19v-39.07l7.83-17.68 19.43.29.11 2.2a4.94 4.94 0 0 1 0 .52v2.57a10.23 10.23 0 0 1-10.19 10h-.15l-1.35 4.05c4.89 4.37 7.86 11.58 7.86 19.28a26.83 26.83 0 0 1-5.64 16.95zm-12.46-4.71h10.17a22.86 22.86 0 0 0 3.93-13.1c0-6.92-2.8-13.28-7.3-16.59l-1.38-1 3.53-10.56 3.48.11a5.5 5.5 0 0 0 5.52-5.37v-.59l-11.78-.18-6.16 13.91v33.37z"/></clipPath><clipPath id="ko"><path class="a" d="M512.63 331.16h36.51v12.39h-36.51z"/></clipPath><clipPath id="kq"><path class="b" d="M539.8 266.31h23.63v-21.22H539.8v21.22zm4.73-4.72h14.18v-11.78h-14.18v11.79z"/></clipPath><clipPath id="ks"><path class="a" d="M538.62 271.03h35.94v4.72h-35.94z"/></clipPath><clipPath id="ku"><path class="a" d="M546.89 280.46h27.67v4.72h-27.67z"/></clipPath><clipPath id="kw"><path class="a" d="M546.89 289.89h27.67v4.72h-27.67z"/></clipPath><clipPath id="ky"><path class="a" d="M538.62 299.32h26.78v4.72h-26.78z"/></clipPath><clipPath id="la"><path class="b" d="M257.73 125.81a7.26 7.26 0 1 1-7.26-7.51 7.39 7.39 0 0 1 7.26 7.51"/></clipPath><clipPath id="lc"><path class="a" d="M243.22 81.22h14.52v46.34h-14.52z"/></clipPath><clipPath id="le"><ellipse class="a" cx="250.48" cy="80.87" rx="7.26" ry="7.51"/></clipPath><clipPath id="lg"><ellipse class="a" cx="453.04" cy="80.73" rx="7.26" ry="7.51"/></clipPath><clipPath id="li"><path class="b" d="M359.33 35.93a7.26 7.26 0 1 1-7.26-7.51 7.39 7.39 0 0 1 7.26 7.51"/></clipPath><clipPath id="lk"><path class="b" d="M247.64 74.33l103.25-45.91 1.44 15.02-96.56 44.95-8.13-14.06z"/></clipPath><clipPath id="lm"><path class="b" d="M344.82 35.93a7.26 7.26 0 1 0 7.26-7.51 7.39 7.39 0 0 0-7.26 7.51"/></clipPath><clipPath id="lo"><path class="b" d="M457.24 74.33L353.99 28.42l-1.44 15.02 96.56 44.95 8.13-14.06z"/></clipPath><clipPath id="lq"><path class="b" d="M352 170.84l-53-24.64a7.47 7.47 0 0 0-4.34-2 7.32 7.32 0 0 0-.79 0 7.76 7.76 0 0 0-7.62 7.88c0 3.86 2.79 6.1 6.23 7.75 0 .09 56.19 25.28 56.19 25.28a7 7 0 0 0 .78.35l1 .31a7 7 0 0 0 1.43.15 7.51 7.51 0 0 0 0-15"/></clipPath><clipPath id="ls"><path class="b" d="M344.82 125.81a7.26 7.26 0 1 1 7.26 7.51 7.39 7.39 0 0 1-7.26-7.51"/></clipPath><clipPath id="lu"><path class="b" d="M456.24 87.87l-102.25 45.45-1.44-15.01 96.56-44.95 7.13 14.51z"/></clipPath><clipPath id="lw"><path class="b" d="M295.12 92.46l2.93 2.73a7.09 7.09 0 0 0-2.93-2.73"/></clipPath><clipPath id="ly"><path class="b" d="M292.23 108.47l-2.63-2.53a7.19 7.19 0 0 0 2.63 2.53"/></clipPath><clipPath id="ma"><path class="b" d="M352.33 119.09L298.41 94l-2.93-1.36a7.39 7.39 0 0 0-1.57-.17 7.76 7.76 0 0 0-7.62 7.88 8 8 0 0 0 3.37 6.54l2.57 1.14 56.85 25.27.78.35a6.87 6.87 0 0 0 1 .31 7 7 0 0 0 1.43.15 7.51 7.51 0 0 0 0-15"/></clipPath><clipPath id="mc"><path class="b" d="M417.25 151.77v-24.89a7.26 7.26 0 1 0-14.52 0v20.76l-50.67 23.58a7.51 7.51 0 0 0 0 15 6.78 6.78 0 0 0 2.47-.46l.78-.35 55.86-24.84c3.62-1.61 6.06-4 6.07-7.4v-1.49"/></clipPath><clipPath id="me"><path class="b" d="M301.28 153.62l-14.99-1.48V99.2h14.99v54.42z"/></clipPath><clipPath id="mg"><path class="b" d="M250 119.42c-5 0-21.19 14.7-21.19 44.7 0 37.66 21.25 44.75 21.25 44.75s21.26-6.84 21.26-44.75c0-30-16.3-44.7-21.33-44.7m0 14.72s7.19 4.16 9.47 16.86l-9.47 6.52-9.4-6.52c2.28-12.71 9.47-16.86 9.47-16.86m.18 59.86h-.07s-3.13-1.49-6.07-6.6a32.47 32.47 0 0 1-2.89-6.86q-.42-1.4-.78-3a62.35 62.35 0 0 1-1.36-13.62 14.48 14.48 0 0 1 .1-1.54c0-.26.05-.51.08-.77l10.91 7.34h.12l10.9-7.34a17 17 0 0 1 .18 2.3c0 24.81-11.11 30.07-11.11 30.07"/></clipPath></defs><title>img-cover-onefaculty-homepage</title><g class="c"><g class="d"><path class="e" d="M138.97 272.77h103.17v18H138.97z"/></g></g><g class="f"><g class="d"><path class="e" d="M78.78 130.2h163.35v18H78.78z"/></g></g><g class="g"><g class="d"><path class="e" d="M483.27 167.23h67.06v18h-67.06z"/></g></g><g class="h"><g class="d"><path class="e" d="M483.27 245h67.06v18h-67.06z"/></g></g><g class="i"><g class="d"><path class="e" d="M408.28 397.75h39.31v18h-39.31z"/></g></g><g class="j"><g class="d"><path class="e" d="M40.69 33.53h127.79v70.95H40.69z"/></g></g><g class="k"><g class="d"><path class="e" d="M165.36 386.64h197.02v18H165.36z"/></g></g><g class="l"><g class="d"><path class="e" d="M431.43 272.77h65.15v18h-65.15z"/></g></g><g class="m"><g class="d"><path class="e" d="M131.51 232.9h21.84v230.61h-21.84z"/></g></g><g class="n"><g class="d"><path class="e" d="M180.63 57.07h18v89.47h-18z"/></g></g><g class="o"><g class="d"><path class="e" d="M340.74 167.2h18v62.94h-18z"/></g></g><g class="p"><g class="d"><path class="e" d="M344.44 361.49h18v43.18h-18z"/></g></g><g class="q"><g class="d"><path class="e" d="M408.3 360.57h18v54.37h-18z"/></g></g><g class="r"><g class="d"><path class="e" d="M32.82 227.19h103.94v125.7H32.82z"/></g></g><g class="s"><g class="d"><path class="e" d="M478.64 168.93h18v120.16h-18z"/></g></g><g class="t"><g class="d"><path class="e" d="M552.68 320.76h18v61.84h-18z"/></g></g><g class="u"><g class="d"><path class="e" d="M288.91 386.28h18v37.05h-18z"/></g></g><g class="v"><g class="d"><path class="w" d="M523.78 368.09h76.01v75.99h-76.01z"/></g></g><g class="x"><g class="d"><path class="y" d="M536.65 380.96h50.27v41.62h-50.27z"/></g></g><g class="z"><g class="d"><path class="e" d="M548.1 389.51h27.38v27.37H548.1z"/></g></g><g class="aa"><g class="d"><path class="w" d="M544.89 386.3h33.8v33.79h-33.8z"/></g></g><g class="ab"><g class="d"><path class="w" d="M538.37 404.63h46.84v31.92h-46.84z"/></g></g><g class="ac"><g class="d"><path class="w" d="M149.83-5h76.01v75.99h-76.01z"/></g></g><g class="ad"><g class="d"><path class="y" d="M162.7 7.87h50.27v41.62H162.7z"/></g></g><g class="ae"><g class="d"><path class="e" d="M174.15 16.42h27.38v27.37h-27.38z"/></g></g><g class="af"><g class="d"><path class="w" d="M170.94 13.21h33.8V47h-33.8z"/></g></g><g class="ag"><g class="d"><path class="w" d="M164.42 31.54h46.84v31.92h-46.84z"/></g></g><g class="ah"><g class="d"><path class="w" d="M270.07 410.49H325v54.91h-54.93z"/></g></g><g class="ai"><g class="d"><path class="y" d="M278.82 419.25h37.41v31.52h-37.41z"/></g></g><g class="aj"><g class="d"><path class="e" d="M286.61 425.06h21.83v21.82h-21.83z"/></g></g><g class="ak"><g class="d"><path class="w" d="M284.43 422.88h26.2v26.19h-26.2z"/></g></g><g class="al"><g class="d"><path class="w" d="M279.99 435.36h35.07v24.92h-35.07z"/></g></g><g class="am"><g class="d"><path class="w" d="M518.05 150.28h47.59v47.58h-47.59z"/></g></g><g class="an"><g class="d"><path class="y" d="M525.38 157.6h32.93v28h-32.93z"/></g></g><g class="ao"><g class="d"><path class="e" d="M531.9 162.47h19.9v19.89h-19.9z"/></g></g><g class="ap"><g class="d"><path class="w" d="M530.07 160.65h23.55v23.55h-23.55z"/></g></g><g class="aq"><g class="d"><path class="w" d="M526.36 171.09h30.98v22.48h-30.98z"/></g></g><g class="ar"><g class="d"><path class="w" d="M435.68 384.5h47.59v47.58h-47.59z"/></g></g><g class="as"><g class="d"><path class="y" d="M443.01 391.83h32.93v28h-32.93z"/></g></g><g class="at"><g class="d"><path class="e" d="M449.53 396.7h19.9v19.89h-19.9z"/></g></g><g class="au"><g class="d"><path class="w" d="M447.7 394.87h23.55v23.55H447.7z"/></g></g><g class="av"><g class="d"><path class="w" d="M443.99 405.31h30.98v22.48h-30.98z"/></g></g><g class="aw"><g class="d"><path class="w" d="M116.39 199.34h47.59v47.58h-47.59z"/></g></g><g class="ax"><g class="d"><path class="y" d="M123.72 206.67h32.93v28h-32.93z"/></g></g><g class="ay"><g class="d"><path class="e" d="M130.24 211.54h19.9v19.89h-19.9z"/></g></g><g class="az"><g class="d"><path class="w" d="M128.41 209.71h23.55v23.55h-23.55z"/></g></g><g class="ba"><g class="d"><path class="w" d="M124.7 220.15h30.98v22.48H124.7z"/></g></g><g class="bb"><g class="d"><path class="w" d="M16.82 340.06h47.59v47.58H16.82z"/></g></g><g class="bc"><g class="d"><path class="y" d="M24.15 347.39h32.93v28H24.15z"/></g></g><g class="bd"><g class="d"><path class="e" d="M30.67 352.26h19.9v19.89h-19.9z"/></g></g><g class="be"><g class="d"><path class="w" d="M28.84 350.43h23.55v23.55H28.84z"/></g></g><g class="bf"><g class="d"><path class="w" d="M25.13 360.87h30.98v22.48H25.13z"/></g></g><g class="bg"><g class="d"><path class="w" d="M2.19 243.11H78.2v75.99H2.19z"/></g></g><g class="bh"><g class="d"><path class="y" d="M15.06 255.98h50.27v41.62H15.06z"/></g></g><g class="bi"><g class="d"><path class="e" d="M26.51 264.53h27.38v27.37H26.51z"/></g></g><g class="bj"><g class="d"><path class="w" d="M23.3 261.32h33.8v33.79H23.3z"/></g></g><g class="bk"><g class="d"><path class="w" d="M16.78 279.65h46.84v31.92H16.78z"/></g></g><g class="bl"><g class="d"><path class="y" d="M171.08 332.63h26.75v27.47h-26.75z"/></g></g><g class="bm"><g class="d"><path class="y" d="M168.75 330.31h31.42v32.15h-31.42z"/></g></g><g class="bn"><g class="d"><path class="e" d="M85.89 332.63h102.76v121.6H85.89z"/></g></g><g class="bo"><g class="d"><path class="w" d="M85.89 330.31h103.3v126.27H85.89z"/></g></g><g class="bp"><g class="d"><path class="y" d="M78.14 431.73h95.33v22.51H78.14z"/></g></g><g class="bq"><g class="d"><path class="y" d="M75.82 429.41h97.94v27.19H75.82z"/></g></g><g class="br"><g class="d"><path class="w" d="M168.75 330.31h31.42v32.41h-31.42z"/></g></g><g class="bs"><g class="d"><path class="w" d="M154.04 429.41h20.22v27.42h-20.22z"/></g></g><g class="bt"><g class="d"><path class="bu" d="M143.2 406.96H165v26.21h-21.8z"/></g></g><g class="bv"><g class="d"><path class="y" d="M137.95 393.31h33.75v33.74h-33.75z"/></g></g><g class="bw"><g class="d"><path class="e" d="M144.76 400.13h20.47v20.47h-20.47z"/></g></g><g class="bx"><g class="d"><path class="bu" d="M116.86 346.57h40.11v14.67h-40.11z"/></g></g><g class="by"><g class="d"><path class="w" d="M106.02 358.96h60.72v14.67h-60.72z"/></g></g><g class="bz"><g class="d"><path class="w" d="M106.02 369.79h60.72v14.67h-60.72z"/></g></g><g class="ca"><g class="d"><path class="w" d="M106.02 381.41h60.72v14.67h-60.72z"/></g></g><g class="cb"><g class="d"><path class="w" d="M106.02 393.02h40.15v14.67h-40.15z"/></g></g><g class="cc"><g class="d"><path class="bu" d="M106.02 404.63h30.02v14.67h-30.02z"/></g></g><g class="cd"><g class="d"><path class="w" d="M48.61 104.27h43.03v76.03H48.61z"/></g></g><g class="ce"><g class="d"><path class="e" d="M51.29 159.65H71.4v22.8H51.29z"/></g></g><g class="cf"><g class="d"><path class="w" d="M48.61 156.97h25.5v25.5h-25.5z"/></g></g><g class="cg"><g class="d"><path class="w" d="M26.27 56.04h31.12v98.04H26.27z"/></g></g><g class="ch"><g class="d"><path class="y" d="M23.59 77.47H60.1v65.7H23.59z"/></g></g><g class="ci"><g class="d"><path class="w" d="M23.59 74.8H60.1v15.39H23.59z"/></g></g><g class="cj"><g class="d"><path class="w" d="M23.59 66.76H60.1v15.39H23.59z"/></g></g><g class="ck"><g class="d"><path class="w" d="M12.87 156.97h58.98v15.39H12.87z"/></g></g><g class="cl"><g class="d"><path class="w" d="M-5 170.36h94.48v27.97H-5z"/></g></g><g class="cm"><g class="d"><path class="e" d="M36.99 95.34H71.7v34.71H36.99z"/></g></g><g class="cn"><g class="d"><path class="w" d="M34.31 92.66h40.11v40.1H34.31z"/></g></g><g class="co"><g class="d"><path class="bu" d="M45.03 101.59h19.89v19.88H45.03z"/></g></g><g class="cp"><g class="d"><path class="e" d="M234.26 233.33h225.66v136.03H234.26z"/></g></g><g class="cq"><g class="d"><path class="w" d="M229.69 228.97h234.8v144.75h-234.8z"/></g></g><g class="cr"><g class="d"><path class="y" d="M250.26 220.24h191.93v132.57H250.26z"/></g></g><g class="cs"><g class="d"><path class="e" d="M263.98 213.7h89.27v139.97h-89.27z"/></g></g><g class="ct"><g class="d"><path class="w" d="M259.41 209.33h98.42v144.34h-98.42z"/></g></g><g class="cu"><g class="d"><path class="e" d="M343.98 213.7h89.27v139.97h-89.27z"/></g></g><g class="cv"><g class="d"><path class="w" d="M339.41 209.33h98.41v144.34h-98.41z"/></g></g><g class="cw"><g class="d"><path class="e" d="M275.41 231.15h40.86v10h-40.86z"/></g></g><g class="cx"><g class="d"><path class="w" d="M275.41 226.79h40.86v18.73h-40.86z"/></g></g><g class="cy"><g class="d"><path class="e" d="M275.41 246.42h61.98v10h-61.98z"/></g></g><g class="cz"><g class="d"><path class="w" d="M275.41 242.06h61.98v18.73h-61.98z"/></g></g><g class="da"><g class="d"><path class="e" d="M275.41 263.87h61.98v10h-61.98z"/></g></g><g class="db"><g class="d"><path class="w" d="M275.41 259.51h61.98v18.73h-61.98z"/></g></g><g class="dc"><g class="d"><path class="e" d="M275.41 279.14h61.98v10h-61.98z"/></g></g><g class="dd"><g class="d"><path class="w" d="M275.41 274.78h61.98v18.73h-61.98z"/></g></g><g class="de"><g class="d"><path class="e" d="M275.41 294.41h61.98v10h-61.98z"/></g></g><g class="df"><g class="d"><path class="w" d="M275.41 290.05h61.98v18.73h-61.98z"/></g></g><g class="dg"><g class="d"><path class="e" d="M275.41 309.68h61.98v10h-61.98z"/></g></g><g class="dh"><g class="d"><path class="w" d="M275.41 305.32h61.98v18.73h-61.98z"/></g></g><g class="di"><g class="d"><path class="e" d="M355.41 246.42h61.98v10h-61.98z"/></g></g><g class="dj"><g class="d"><path class="w" d="M355.41 242.06h61.98v18.73h-61.98z"/></g></g><g class="dk"><g class="d"><path class="e" d="M355.41 263.87h61.98v10h-61.98z"/></g></g><g class="dl"><g class="d"><path class="w" d="M355.41 259.51h61.98v18.73h-61.98z"/></g></g><g class="dm"><g class="d"><path class="e" d="M355.41 279.14h61.98v10h-61.98z"/></g></g><g class="dn"><g class="d"><path class="w" d="M355.41 274.78h61.98v18.73h-61.98z"/></g></g><g class="do"><g class="d"><path class="e" d="M355.41 294.41h61.98v10h-61.98z"/></g></g><g class="dp"><g class="d"><path class="w" d="M355.41 290.05h61.98v18.73h-61.98z"/></g></g><g class="dq"><g class="d"><path class="e" d="M355.41 309.68h61.98v10h-61.98z"/></g></g><g class="dr"><g class="d"><path class="w" d="M355.41 305.32h61.98v18.73h-61.98z"/></g></g><g class="ds"><g class="d"><path class="e" d="M495.84 34.6h142.78v101.52H495.84z"/></g></g><g class="dt"><g class="d"><path class="w" d="M493.16 31.92h148.17v106.91H493.16z"/></g></g><g class="du"><g class="d"><path class="e" d="M508.35 106.95h64.33v10h-64.33z"/></g></g><g class="dv"><g class="d"><path class="w" d="M508.35 104.27h64.33v15.39h-64.33z"/></g></g><g class="dw"><g class="d"><path class="e" d="M508.35 84.62h82.23v10h-82.23z"/></g></g><g class="dx"><g class="d"><path class="w" d="M508.35 81.94h82.23v15.39h-82.23z"/></g></g><g class="dy"><g class="d"><path class="e" d="M508.35 95.34h82.23v10h-82.23z"/></g></g><g class="dz"><g class="d"><path class="w" d="M508.35 92.66h82.23v15.39h-82.23z"/></g></g><g class="ea"><g class="d"><path class="e" d="M508.35 70.33h82.23v10h-82.23z"/></g></g><g class="eb"><g class="d"><path class="w" d="M508.35 68.54h82.23v15.39h-82.23z"/></g></g><g class="ec"><g class="d"><path class="e" d="M495.84 18.53h142.78v25.5H495.84z"/></g></g><g class="ed"><g class="d"><path class="w" d="M493.16 15.85h148.17v30.89H493.16z"/></g></g><g class="ee"><g class="d"><path class="e" d="M501.2 26.56h15.04v10H501.2z"/></g></g><g class="ef"><g class="d"><path class="w" d="M501.2 23.88h15.04v15.39H501.2z"/></g></g><g class="eg"><g class="d"><path class="e" d="M511.03 26.56h15.04v10h-15.04z"/></g></g><g class="eh"><g class="d"><path class="w" d="M511.03 23.88h15.04v15.39h-15.04z"/></g></g><g class="ei"><g class="d"><path class="e" d="M519.07 26.56h15.04v10h-15.04z"/></g></g><g class="ej"><g class="d"><path class="w" d="M519.07 23.88h15.04v15.39h-15.04z"/></g></g><g class="ek"><g class="d"><path class="bu" d="M508.35 48h54.49v20h-54.49z"/></g></g><g class="el"><g class="d"><path class="e" d="M593.22 48.89h28.52v30.26h-28.52z"/></g></g><g class="em"><g class="d"><path class="w" d="M590.54 43.53h33.91v35.9h-33.91z"/></g></g><g class="en"><g class="d"><path class="y" d="M593.22 69.44h28.76v65.18h-28.76z"/></g></g><g class="eo"><g class="d"><path class="w" d="M590.54 66.76h34.15v70.57h-34.15z"/></g></g><g class="ep"><g class="d"><path class="e" d="M593.22 143.57h28.55v19.13h-28.55z"/></g></g><g class="eq"><g class="d"><path class="w" d="M590.54 143.57h33.94v21.83h-33.94z"/></g></g><g class="er"><g class="d"><path class="bu" d="M590.54 128.39h34.15v21.49h-34.15z"/></g></g><g class="es"><g class="d"><path class="e" d="M524.17 223.58h83.23v110.59h-83.23z"/></g></g><g class="et"><g class="d"><path class="w" d="M521.81 221.23h87.95v115.3h-87.95z"/></g></g><g class="eu"><g class="d"><path class="bu" d="M530.08 235.37h72.1v90.68h-72.1z"/></g></g><g class="ev"><g class="d"><path class="e" d="M558.44 230.66h15.89v10h-15.89z"/></g></g><g class="ew"><g class="d"><path class="w" d="M558.44 228.3h15.89v14.72h-15.89z"/></g></g><g class="ex"><g class="d"><path class="e" d="M567.89 263.67h57.01v85.39h-57.01z"/></g></g><g class="ey"><g class="d"><path class="w" d="M565.53 261.31h61.88v87.74h-61.88z"/></g></g><g class="ez"><g class="d"><path class="e" d="M513.53 277.82h32.7v62.02h-32.7z"/></g></g><g class="fa"><g class="d"><path class="w" d="M511.17 275.46h37.42v66.76h-37.42z"/></g></g><g class="fb"><g class="d"><path class="y" d="M507.63 326.16h46.51v22.39h-46.51z"/></g></g><g class="fc"><g class="d"><path class="w" d="M534.8 240.09h33.63v31.22H534.8z"/></g></g><g class="fd"><g class="d"><path class="w" d="M533.62 266.03h45.94v14.72h-45.94z"/></g></g><g class="fe"><g class="d"><path class="w" d="M541.89 275.46h37.67v14.72h-37.67z"/></g></g><g class="ff"><g class="d"><path class="w" d="M541.89 284.89h37.67v14.72h-37.67z"/></g></g><g class="fg"><g class="d"><path class="w" d="M533.62 294.32h36.78v14.72h-36.78z"/></g></g><g class="fh"><g class="d"><path class="w" d="M238.22 113.3h24.52v25.02h-24.52z"/></g></g><g class="fi"><g class="d"><path class="w" d="M238.22 76.22h24.52v56.34h-24.52z"/></g></g><g class="fj"><g class="d"><path class="w" d="M238.22 68.36h24.52v25.02h-24.52z"/></g></g><g class="fk"><g class="d"><path class="w" d="M440.78 68.22h24.52v25.02h-24.52z"/></g></g><g class="fl"><g class="d"><path class="w" d="M339.82 23.42h24.52v25.02h-24.52z"/></g></g><g class="fm"><g class="d"><path class="w" d="M242.64 23.42h114.7v69.96h-114.7z"/></g></g><g class="fn"><g class="d"><path class="w" d="M339.82 23.42h24.52v25.02h-24.52z"/></g></g><g class="fo"><g class="d"><path class="w" d="M347.55 23.42h114.7v69.96h-114.7z"/></g></g><g class="fp"><g class="d"><path class="w" d="M281.29 139.14h82.94v51.72h-82.94z"/></g></g><g class="fq"><g class="d"><path class="w" d="M339.82 113.3h24.52v25.02h-24.52z"/></g></g><g class="fr"><g class="d"><path class="w" d="M347.55 68.36h113.69v69.97H347.55z"/></g></g><g class="fs"><g class="d"><path class="w" d="M290.12 87.46h12.93v12.73h-12.93z"/></g></g><g class="ft"><g class="d"><path class="w" d="M284.6 100.94h12.63v12.53H284.6z"/></g></g><g class="fu"><g class="d"><path class="w" d="M281.29 87.46h83.3v51.65h-83.3z"/></g></g><g class="fv"><g class="d"><path class="w" d="M339.82 114.42h82.44v76.87h-82.44z"/></g></g><g class="fw"><g class="d"><path class="w" d="M281.29 94.2h24.99v64.42h-24.99z"/></g></g><g class="fx"><g class="d"><path class="w" d="M223.86 114.42h52.51v99.45h-52.51z"/></g></g></svg>