<svg width="234" height="234" viewBox="0 0 234 234" xmlns="http://www.w3.org/2000/svg" xmlns:xlink="http://www.w3.org/1999/xlink"><title>symbol-learn2</title><defs><path id="a" d="M0 124.339h129.581V.495H0z"/></defs><g fill="none" fill-rule="evenodd"><path d="M117 233.093C52.633 233.093.454 180.913.454 116.547.454 52.18 52.633 0 117 0c39.785 0 74.914 19.935 95.943 50.362 12.993 18.799 20.603 41.603 20.603 66.185 0 64.367-52.18 116.546-116.546 116.546z" fill="#EEE"/><path d="M117.046 219.093C60.135 219.093 14 172.958 14 116.047 14 59.137 60.135 13 117.046 13c56.911 0 103.047 46.136 103.047 103.047 0 56.91-46.136 103.046-103.047 103.046z" fill="#FFF"/><path fill="#272D32" d="M108.751 75.785l-2.609-.029.059-5.203 2.609.03z"/><g transform="translate(57 48.166)"><path d="M33.296 27.414l-5.283-.059.058-5.203 5.283.059-.058 5.203zm10.564.118l-5.283-.06.059-5.203 5.282.059-.058 5.204zm-25.255.949l-1.916-4.84a21.929 21.929 0 0 1 5.81-1.41l.53 5.176a16.69 16.69 0 0 0-4.424 1.074zm-7.196 5.44L7.257 30.77a22.107 22.107 0 0 1 4.225-4.207l3.155 4.147c-1.217.92-2.304 2-3.228 3.21zm-3.322 8.36l-5.191-.536a21.772 21.772 0 0 1 1.422-5.789l4.85 1.918a16.56 16.56 0 0 0-1.081 4.407zM4.87 53.382a21.717 21.717 0 0 1-1.79-5.69l5.147-.863c.252 1.499.71 2.956 1.362 4.33L4.87 53.382zm7.744 8.925a21.975 21.975 0 0 1-4.483-3.935l3.946-3.404A16.8 16.8 0 0 0 15.5 57.97l-2.885 4.336zm11.264 3.628a22.063 22.063 0 0 1-5.882-1.039l1.603-4.952c1.445.465 2.955.731 4.486.792l-.207 5.2zm10.638.127l-5.282-.058.059-5.204 5.282.06-.059 5.202zm10.565.118l-5.283-.059.058-5.203 5.283.059-.058 5.203zm10.564.117l-5.283-.058.059-5.204 5.282.059-.058 5.203z" fill="#141E32"/><path fill="#272D32" d="M63.576 66.385l-2.61-.029.059-5.203 2.61.03zM54.686 66.287l-2.61-.03.06-5.203 2.608.03z"/><path d="M65.048 66.402l-5.181-.058.058-5.203 5.182.058-.059 5.203zm10.363.115l-5.18-.058.057-5.203 5.182.058-.059 5.203zm10.362.115l-5.18-.058.057-5.203 5.182.058-.059 5.203zm10.364.115l-5.181-.058.058-5.203 5.18.058-.057 5.203zM129.12 81.13l-5.065-1.255a10.477 10.477 0 0 0 .188-4.106l5.159-.785a15.741 15.741 0 0 1-.282 6.146zm-7.246 9.674l-2.652-4.481a10.428 10.428 0 0 0 3.068-2.744l4.179 3.117a15.611 15.611 0 0 1-4.595 4.108zm-8.123 2.159l-3.27-.037.057-5.203 3.272.037c.511.005 1.024-.026 1.526-.094l.699 5.157c-.752.1-1.52.148-2.284.14z" fill="#141E32"/><path fill="#272D32" d="M105.272 92.868l-2.61-.029.059-5.203 2.61.03z"/><path d="M33.575 53.183a12.089 12.089 0 0 1-8.344 3.204 12.094 12.094 0 0 1-8.27-3.388l.003-.386c.03-2.614 2.18-4.71 4.803-4.681l7.12.08a4.74 4.74 0 0 1 4.692 4.786l-.004.385zm-8.124-16.475c2.621.03 4.724 2.172 4.695 4.786-.029 2.614-2.18 4.709-4.801 4.68-2.62-.03-4.723-2.172-4.694-4.785.03-2.614 2.18-4.71 4.8-4.68zm.077-6.823c-7.98-.089-14.52 6.29-14.609 14.246-.088 7.955 6.308 14.477 14.287 14.566 7.979.089 14.52-6.29 14.609-14.245.089-7.956-6.309-14.479-14.287-14.567zM122.736 72.063a12.089 12.089 0 0 1-8.345 3.203 12.094 12.094 0 0 1-8.27-3.388l.004-.386c.03-2.613 2.18-4.71 4.803-4.68l7.12.079a4.739 4.739 0 0 1 4.692 4.786l-.004.385zm-8.125-16.475c2.622.029 4.725 2.172 4.696 4.785-.03 2.614-2.18 4.71-4.802 4.68-2.62-.029-4.723-2.172-4.694-4.785.03-2.614 2.18-4.71 4.8-4.68zm.077-6.824c-7.979-.088-14.52 6.29-14.608 14.246-.089 7.955 6.308 14.478 14.286 14.566 7.98.089 14.52-6.29 14.61-14.245.088-7.956-6.31-14.478-14.288-14.567z" fill="#ECA69B"/><path d="M75.652 5.7c-11.917-.132-21.722 9.428-21.854 21.312-.134 11.883 9.454 21.66 21.373 21.791 11.917.133 21.72-9.427 21.852-21.31.133-11.884-9.453-21.66-21.37-21.793m-.54 48.307c-14.796-.165-26.698-12.3-26.534-27.053C48.744 12.202 60.915.332 75.711.497c14.794.164 26.695 12.3 26.53 27.054-.164 14.752-12.335 26.62-27.129 26.456" fill="#141E32"/><path d="M75.594 10.93c-9.027-.1-16.452 7.141-16.552 16.14a16.068 16.068 0 0 0 2.83 9.347 8.777 8.777 0 0 1 6.247-5.226 9.58 9.58 0 0 1-2.355-6.394c.06-5.318 4.447-9.596 9.781-9.537 5.334.059 9.625 4.434 9.566 9.752a9.58 9.58 0 0 1-2.497 6.34 8.774 8.774 0 0 1 6.126 5.362c1.94-2.69 3.001-5.892 3.04-9.28.1-9-7.16-16.403-16.186-16.504" fill="#ECA69B"/><path d="M70.07 30.992a8.76 8.76 0 0 0-1.951.2 9.659 9.659 0 0 0 7.21 3.358 9.656 9.656 0 0 0 7.285-3.198 8.777 8.777 0 0 0-1.947-.242l-10.596-.118z" fill="#141E32"/><path d="M75.388 29.347c-2.457-.027-4.433-2.042-4.406-4.492.027-2.449 2.049-4.42 4.505-4.392 2.457.028 4.433 2.042 4.406 4.49-.028 2.45-2.048 4.42-4.505 4.394m.158-14.087c-5.334-.06-9.722 4.22-9.782 9.537a9.576 9.576 0 0 0 2.355 6.394 8.799 8.799 0 0 1 1.952-.199l10.596.118c.67.007 1.321.092 1.947.242a9.579 9.579 0 0 0 2.497-6.34c.06-5.317-4.231-9.692-9.565-9.752" fill="#141E32"/><path d="M90.151 48.067l-5.217-.058.09-8.126c.028-2.45-1.949-4.465-4.405-4.492l-10.596-.118a4.455 4.455 0 0 0-4.506 4.394l-.09 8.126-5.219-.058.091-8.127c.06-5.318 4.447-9.597 9.782-9.539l10.596.118c5.334.06 9.625 4.435 9.565 9.754l-.09 8.126z" fill="#141E32"/><mask id="b" fill="#fff"><use xlink:href="#a"/></mask><path d="M5.219 119.135h95.063v-37.84H5.219v37.84zm96.055-43.043H4.226c-2.33 0-4.226 1.89-4.226 4.212v39.821a4.224 4.224 0 0 0 4.226 4.214h97.048c2.33 0 4.226-1.89 4.226-4.214V80.304c0-2.323-1.895-4.212-4.226-4.212z" fill="#141E32" mask="url(#b)"/><path fill="#CD4026" mask="url(#b)" d="M10.775 92.272h7.607V87.07h-7.607zM23.5 92.272h7.606V87.07h-7.607zM36.224 92.272h7.604V87.07h-7.604zM48.948 92.272h7.605V87.07h-7.605zM61.674 92.272h7.604V87.07h-7.604zM74.4 92.272h7.602V87.07H74.4zM87.123 92.272h7.603V87.07h-7.603zM10.775 102.818h7.607v-5.204h-7.607zM23.5 102.818h7.606v-5.204h-7.607zM36.224 102.818h7.604v-5.204h-7.604zM48.948 102.818h7.605v-5.204h-7.605zM61.674 102.818h7.604v-5.204h-7.604zM74.4 102.818h7.602v-5.204H74.4zM87.123 102.818h7.603v-5.204h-7.603zM10.775 113.361h7.607v-5.204h-7.607zM23.5 113.361h7.606v-5.204h-7.607zM36.225 113.361H82.12v-5.204H36.225zM87.123 113.361h7.603v-5.204h-7.603z"/></g></g></svg>