<svg width="240" height="240" viewBox="0 0 240 240" xmlns="http://www.w3.org/2000/svg" xmlns:xlink="http://www.w3.org/1999/xlink"><title>share-create</title><defs><circle id="a" cx="110" cy="110" r="110"/><mask id="b" x="-10" y="-10" width="240" height="240"><path fill="#fff" d="M-10-10h240v240H-10z"/><use xlink:href="#a"/></mask></defs><g transform="translate(10 10)" fill="none" fill-rule="evenodd"><g opacity=".35"><use fill="#334162" xlink:href="#a"/><use stroke="#7289AF" mask="url(#b)" stroke-width="20" xlink:href="#a"/></g><circle fill="#FFF" cx="110" cy="110" r="95"/><path d="M101.448 123.718h-4v-1.378a14.03 14.03 0 0 1-4.787-2.976l-.141-.148-13.405-15.596-.004-11.991-.056-1.479.06-.021v-5.354L79 84.76l.115-2.291v-1.323l.081-.005.009-.14L83.386 81c4.862 0 8.819 3.955 8.819 8.817v11.42h-4v-11.42A4.824 4.824 0 0 0 83.386 85h-.271v6.362l.257 1.518-.257.09v9.167l12.369 14.39a10.022 10.022 0 0 0 4.439 2.394l1.525.374v4.423" fill="#282D33"/><path d="M63.195 91h-3.432a.768.768 0 0 0-.763.779v5.536a.77.77 0 0 0 .763.782h3.432" fill="#FFF"/><path d="M63.195 100.097h-3.432c-1.523 0-2.763-1.248-2.763-2.782v-5.536A2.775 2.775 0 0 1 59.763 89h3.432v4H61v3.097h2.195v4M147.92 100.087H146v-4h1.056l3.405-1.543L147.056 93H146v-4h1.92l12.23 5.543-12.23 5.544" fill="#282D33"/><path fill="#7FC569" d="M127 100.065h17.035V89H127zM66 100.065h22.243V89H66z"/><path d="M82 101v2.118l12.922 15.033a12.013 12.013 0 0 0 5.411 2.952v2.854" fill="#FFF"/><path d="M102.371 123.957h-4v-1.378a14.03 14.03 0 0 1-4.787-2.976l-.141-.148-13.405-15.596L80 99.545l1.442-.452.594 1.9.002-.008V99l.432.371.08-.297 1.488.394v2.908l12.369 14.39a10.022 10.022 0 0 0 4.439 2.394l1.525.374v4.423M124.448 123.852h-4v-5.896l.801-.6c2.559-1.915 4.027-4.831 4.027-8V88.527l-.223-4.504c-.002-1.456-1.107-2.561-2.465-2.561-2.454 0-2.463.904-2.463 1.343v.004h-4v-1.114a2.466 2.466 0 0 0-2.463-2.464 2.466 2.466 0 0 0-2.462 2.464h-4v-2.233A2.465 2.465 0 0 0 104.739 77a2.466 2.466 0 0 0-2.463 2.462v2.513h-4c0-.925-1.117-2.296-2.659-2.296A2.62 2.62 0 0 0 93 82.295v19.076h-4V82.295a6.624 6.624 0 0 1 6.617-6.616c1.196 0 2.342.334 3.336.905A6.47 6.47 0 0 1 104.739 73a6.466 6.466 0 0 1 5.562 3.176 6.425 6.425 0 0 1 3.361-.945 6.463 6.463 0 0 1 5.398 2.912c.919-.426 2.082-.681 3.528-.681a6.47 6.47 0 0 1 6.463 6.463l.222 4.504.003 20.927c0 4.099-1.747 7.892-4.828 10.557v3.939" fill="#282D33"/><path fill="#5EB4E7" d="M97 163.605h36.784V127H97z"/><path fill="#619252" d="M97 163.605h36.784V127H97z"/><path fill="#282D33" d="M126 137h4v-4h-4z"/></g></svg>