<svg width="240" height="240" viewBox="0 0 240 240" xmlns="http://www.w3.org/2000/svg" xmlns:xlink="http://www.w3.org/1999/xlink"><title>share-learn</title><defs><circle id="a" cx="110" cy="110" r="110"/><mask id="b" x="-10" y="-10" width="240" height="240"><path fill="#fff" d="M-10-10h240v240H-10z"/><use xlink:href="#a"/></mask></defs><g transform="translate(10 10)" fill="none" fill-rule="evenodd"><g opacity=".35"><use fill="#334162" xlink:href="#a"/><use stroke="#7289AF" mask="url(#b)" stroke-width="20" xlink:href="#a"/></g><circle fill="#FFF" cx="109" cy="110" r="95"/><path d="M63.007 144.663v7.958c0 1.525 1.561 3.225 3.086 3.225h88.842c1.525 0 2.437-1.568 2.437-3.094v-8.089H63.007" fill="#FFF"/><path d="M65.007 146.663v5.958c0 .481.722 1.225 1.086 1.225h88.842c.127 0 .437-.473.437-1.094v-6.089H65.007zm89.928 11.183H66.093c-2.614 0-5.086-2.539-5.086-5.225v-9.958h98.365v10.089c0 2.504-1.66 5.094-4.437 5.094z" fill="#282D33"/><path d="M99.693 155.909c-.163 1.978.19 6.379-.237 8.529-.39 1.968-.662 2.034-1.707 2.614-.589.324-1.584.775-2.418 1.135" fill="#FFF"/><path d="M96.125 170.023l-1.587-3.672c.992-.429 1.812-.812 2.249-1.052l.135-.075c.125-.069.233-.121.325-.18.043-.114.126-.382.247-.995.219-1.102.191-3.236.168-4.951-.017-1.277-.034-2.482.038-3.353l3.987.328c-.057.68-.041 1.793-.026 2.972.028 2.099.057 4.269-.243 5.782-.473 2.387-1.055 3.068-2.565 3.9l-.133.074c-.751.412-1.948.942-2.595 1.222" fill="#282D33"/><path d="M124.947 168.201c-.839-.366-1.85-.824-2.446-1.149-1.042-.58-1.248-.646-1.637-2.614-.425-2.15-.076-6.442-.237-8.421" fill="#FFF"/><path d="M124.149 170.034c-.809-.352-1.918-.851-2.606-1.226l-.095-.053c-1.634-.908-2.087-1.606-2.546-3.929-.299-1.514-.271-3.652-.243-5.719.015-1.156.03-2.248-.025-2.928l3.986-.324c.071.868.055 2.052.038 3.306-.022 1.686-.051 3.785.168 4.888.123.62.202.904.247 1.033.089.055.195.108.318.176.504.277 1.316.657 2.355 1.109l-1.597 3.667" fill="#282D33"/><path d="M92.741 168.028h34.907" fill="#FFF"/><path fill="#282D33" d="M92.741 170.028h34.907v-4H92.741z"/><path d="M74.858 86.948h-9.275A2.586 2.586 0 0 0 63 89.532v55.186h94.343V89.532a2.588 2.588 0 0 0-2.585-2.584h-9.244" fill="#FFF"/><path d="M159.343 146.718H61V89.532a4.588 4.588 0 0 1 4.583-4.584h9.275v4h-9.275a.584.584 0 0 0-.583.584v53.186h90.343V89.532a.585.585 0 0 0-.585-.584h-9.244v-4h9.244a4.59 4.59 0 0 1 4.585 4.584v57.186" fill="#282D33"/><path fill="#619252" d="M70.378 137.164h11.73v-42.72h-11.73zM138.264 137.164h11.603v-42.72h-11.603z"/><path fill="#282D33" d="M137.451 137.164h4V85.282h-4zM83.039 137.164h-4V66h44.135v4H83.039v67.164"/><path fill="#7FC469" d="M125.918 81.537h15.416l-15.416-15.419v15.419"/><path fill="#282D33" d="M90.844 88.955h21.907v-4H90.844zM90.844 97.668h37.547v-4H90.844zM90.844 106.381h37.547v-4H90.844zM90.844 115.094h37.547v-4H90.844zM90.844 123.808h37.547v-4H90.844zM90.844 132.521h37.547v-4H90.844z"/></g></svg>