<svg width="240" height="240" viewBox="0 0 240 240" xmlns="http://www.w3.org/2000/svg" xmlns:xlink="http://www.w3.org/1999/xlink"><title>share-gain</title><defs><path d="M110 220c60.751 0 110-49.249 110-110S170.751 0 110 0 0 49.249 0 110s49.249 110 110 110z" id="a"/><mask id="b" x="-10" y="-10" width="240" height="240"><path fill="#fff" d="M-10-10h240v240H-10z"/><use xlink:href="#a"/></mask></defs><g fill="none" fill-rule="evenodd"><g opacity=".35" transform="translate(10 10)"><use fill="#334162" xlink:href="#a"/><use stroke="#7289AF" mask="url(#b)" stroke-width="20" xlink:href="#a"/></g><path d="M121 215c52.467 0 95-42.533 95-95s-42.533-95-95-95-95 42.533-95 95 42.533 95 95 95z" fill="#FFF"/><path d="M137.895 137.574h-4c0-.401-.192-.628-.258-.661l-26.673.011c-.006.022-.196.25-.196.65h-4c0-2.564 1.882-4.65 4.196-4.65h26.732c2.316 0 4.199 2.086 4.199 4.65" fill="#282D33"/><path d="M119.031 134.843h-4v-14.828c-12.238-7.648-19.793-21.333-19.793-35.998 0-4.269.631-8.494 1.876-12.56l.433-1.414h45.566l.433 1.415a42.866 42.866 0 0 1 1.874 12.559c0 14.668-7.553 28.353-19.79 35.998v10.828h-4v-13.101l.988-.579c11.597-6.8 18.802-19.501 18.802-33.146 0-3.379-.435-6.728-1.295-9.974h-39.59a38.892 38.892 0 0 0-1.297 9.974c0 13.642 7.206 26.343 18.805 33.146l.988.579v17.101" fill="#282D33"/><path d="M134.046 112.017a2 2 0 0 1-.65-3.892c12.014-4.126 20.337-15.944 21.176-29.777h-11.848a2 2 0 0 1 0-4h15.932l-.015 2.015c-.127 16.385-9.749 30.67-23.946 35.545a1.991 1.991 0 0 1-.649.109M106.618 112.019c-.215 0-.434-.035-.649-.109-14.197-4.873-23.823-19.158-23.952-35.546L82 74.349h15.934a2 2 0 1 1 0 4H86.086c.842 13.836 9.167 25.653 21.182 29.778a2 2 0 0 1-.65 3.892M98.108 166.374h44.444v-2.545H98.108v2.545zm-4 4h52.444v-10.545H94.108v10.545z" fill="#282D33"/><path d="M99.882 159.829h40.897v-15.132H99.882v15.132zm-4 4h48.897v-23.132H95.882v23.132z" fill="#282D33"/><path fill="#7FC469" d="M104.33 155.422h32v-6.276h-32z"/><path d="M98.108 166.374h44.444v-2.545H98.108v2.545zm-4 4h52.444v-10.545H94.108v10.545z" fill="#282D33"/><path d="M99.882 159.829h40.897v-15.132H99.882v15.132zm-4 4h48.897v-23.132H95.882v23.132z" fill="#282D33"/><path fill="#619252" d="M118.673 92.072l-6.37-4.04-6.368 4.04V70h12.738v22.072"/></g></svg>