<svg width="234" height="234" viewBox="0 0 234 234" xmlns="http://www.w3.org/2000/svg" xmlns:xlink="http://www.w3.org/1999/xlink"><title>symbol-learn3</title><defs><path id="a" d="M0 126.433h133.907V.013H0z"/></defs><g fill="none" fill-rule="evenodd"><path d="M117 233.093C52.633 233.093.454 180.913.454 116.547.454 52.18 52.633 0 117 0c39.785 0 74.914 19.935 95.943 50.362 12.993 18.799 20.603 41.603 20.603 66.185 0 64.367-52.18 116.546-116.546 116.546z" fill="#EEE"/><path d="M118.046 219.093C61.135 219.093 15 172.958 15 116.047 15 59.137 61.135 13 118.046 13c56.911 0 103.047 46.136 103.047 103.047 0 56.91-46.136 103.046-103.047 103.046z" fill="#FFF"/><path fill="#CD4026" d="M54 96.524v73.541h54.392v-7.308H60.53V96.524z"/><path fill="#272D32" d="M68.445 105.712h20.273v-5.235H68.445zM68.445 115.333h20.273v-5.236H68.445zM68.445 124.8h29.738v-5.236H68.445zM68.445 134.267h29.738v-5.235H68.445zM68.445 143.735h29.738v-5.236H68.445zM68.445 153.2h29.738v-5.235H68.445z"/><g transform="translate(54 43.652)"><path d="M80.384 68.714c-6.981 0-12.641-5.664-12.641-12.652 0-6.987 5.66-12.652 12.641-12.652 6.982 0 12.642 5.665 12.642 12.652 0 6.988-5.66 12.652-12.642 12.652zm0-35.775c-12.76 0-23.105 10.352-23.105 23.122 0 12.772 10.345 23.124 23.105 23.124s23.104-10.352 23.104-23.124c0-12.77-10.344-23.122-23.104-23.122z" fill="#ECA69B"/><mask id="b" fill="#fff"><use xlink:href="#a"/></mask><path fill="#272D32" mask="url(#b)" d="M24.839 51.068h9.879v-5.236h-9.88zM49.639 117.617a9.97 9.97 0 0 0-4.807-1.228H9.515V51.068h4.86v-5.236H4.285v75.793h40.548a4.813 4.813 0 0 1 4.807 4.808h5.231V78.965H49.64v38.652z"/><path d="M90.41 56.062c0 5.533-4.497 10.035-10.026 10.035-5.528 0-10.025-4.502-10.025-10.035s4.497-10.035 10.025-10.035c5.529 0 10.026 4.502 10.026 10.035M76.482 14.605c-7.842 0-15.395 2.047-22.084 5.94v-3.62c0-6.387 5.151-11.587 11.513-11.668 5.584.071 10.234 4.075 11.297 9.367-.243-.004-.482-.019-.726-.019m57.074 67.906l-13.024-22.578c.013-.406.022-.813.022-1.222 0-22.255-16.56-40.703-37.993-43.676C81.629 6.695 74.61.172 66.062.02V.013c-.05 0-.1.004-.15.004-.051 0-.101-.004-.152-.004v.008c-9.177.162-16.594 7.68-16.594 16.904v50.631a2.384 2.384 0 0 1-2.38 2.384 2.382 2.382 0 0 1-2.374-2.384V44.911h.016v-3.387c0-7.497-6.032-13.6-13.49-13.728v-.012c-.04 0-.08.005-.119.006-.04-.001-.078-.006-.118-.006v.012c-7.46.127-13.491 6.231-13.491 13.728v9.3h5.231v-9.3c0-4.65 3.748-8.435 8.378-8.499 4.63.064 8.378 3.85 8.378 8.5v2.772h-.017v23.26c0 4.2 3.412 7.618 7.607 7.618 4.196 0 7.61-3.418 7.61-7.619V26.743c6.507-4.513 14.127-6.902 22.085-6.902.32 0 .637.017.956.024V41.08c-7.008 1.379-12.31 7.571-12.31 14.982 0 8.42 6.844 15.27 15.256 15.27 8.413 0 15.257-6.85 15.257-15.27 0-7.643-5.64-13.991-12.972-15.098V20.339c18.486 2.976 32.654 19.047 32.654 38.372 0 .591-.021 1.177-.046 1.764-.022.497.099.99.347 1.421l11.136 19.306h-5.1a2.618 2.618 0 0 0-2.616 2.618v16.38c0 4.725-3.84 8.57-8.56 8.57H92.783a2.617 2.617 0 0 0-2.616 2.619v14.896h5.231v-12.279h15.088c7.604 0 13.79-6.193 13.79-13.807V86.438h7.016a2.619 2.619 0 0 0 2.265-3.927" fill="#272D32" mask="url(#b)"/></g></g></svg>