<svg width="167" height="177" viewBox="0 0 167 177" xmlns="http://www.w3.org/2000/svg"><title>symbol-learn-finder-icon</title><g fill="#FFF" fill-rule="evenodd"><path d="M20.904 138.845c-3.427 0-6.219 2.775-6.219 6.186s2.792 6.184 6.219 6.184c3.43 0 6.22-2.773 6.22-6.184 0-3.41-2.79-6.186-6.22-6.186zm0 19.62c-7.447 0-13.507-6.026-13.507-13.434 0-7.41 6.06-13.436 13.507-13.436 7.448 0 13.508 6.027 13.508 13.436 0 7.408-6.06 13.434-13.508 13.434z"/><path d="M7.34 164.947a21.503 21.503 0 0 0 13.564 4.803c4.969 0 9.728-1.695 13.567-4.801-.394-3.038-3.01-5.393-6.166-5.393H13.51c-3.16 0-5.777 2.355-6.17 5.39zM20.903 177a28.803 28.803 0 0 1-19.758-7.817L0 168.11v-2.366c0-7.41 6.06-13.438 13.51-13.438h14.795c7.447 0 13.505 6.029 13.505 13.438v2.366l-1.144 1.07A28.798 28.798 0 0 1 20.904 177zM55.828 117.978l1.438 1.138c11.273 8.925 24.843 13.643 39.248 13.643 34.784 0 63.085-28.152 63.085-62.754 0-34.604-28.3-62.755-63.085-62.755-34.786 0-63.085 28.151-63.085 62.755 0 14.328 4.744 27.831 13.72 39.047l1.144 1.43-2.76 10.238 10.295-2.742zm40.686 22.03c-15.45 0-30.043-4.864-42.32-14.09l-18.969 5.054 5.083-18.865C31.033 99.891 26.14 85.373 26.14 70.005 26.14 31.403 57.71 0 96.514 0c38.803 0 70.374 31.403 70.374 70.005 0 38.6-31.57 70.004-70.374 70.004z"/><path d="M100.078 72.075l-4.62-5.606 5.595-4.53c1.823-1.15 2.472-2.122 2.472-2.647V54.31a3.71 3.71 0 0 0-3.711-3.7h-5.91a3.71 3.71 0 0 0-3.71 3.7v2.327h-7.289v-2.327c0-6.037 4.934-10.95 11-10.95h5.909c6.065 0 11 4.913 11 10.95v4.98c0 2.283-.988 5.62-5.658 8.644l-5.078 4.14"/><path d="M96.73 80.346h-7.287v-4.983c0-2.28.987-5.617 5.657-8.64l5.076-4.142 4.623 5.605-5.596 4.53c-1.822 1.154-2.472 2.123-2.472 2.647v4.983M93.087 85.906v7.087M89.443 92.993h7.288v-7.087h-7.288z"/></g></svg>