<svg width="234" height="234" viewBox="0 0 234 234" xmlns="http://www.w3.org/2000/svg" xmlns:xlink="http://www.w3.org/1999/xlink"><title>symbol-learn1</title><defs><path id="a" d="M0 117.535h112.965V0H0z"/></defs><g fill="none" fill-rule="evenodd"><path d="M117.046 233.593C52.679 233.593.5 181.413.5 117.047.5 52.68 52.679.5 117.046.5c39.785 0 74.914 19.935 95.943 50.362 12.993 18.799 20.604 41.603 20.604 66.185 0 64.367-52.18 116.546-116.547 116.546z" fill="#EEE"/><path d="M98.697 94.421c-.262 1.043-.04 1.56.138 1.977.098.23.169.419.208.56l-2.35.668-2.309.79c-.354-.83-1.086-2.545-.426-5.182.783-3.122 4.327-5.514 9.03-6.092l.597 4.849c-3.37.415-4.762 1.926-4.888 2.43m27.12-12.155c-.28-.017-.56-.054-.841-.053-4.05.002-7.573 1.815-10.765 4.917-3.192-3.102-6.716-4.915-10.764-4.917-.28 0-.561.037-.842.053-7.106.795-13.99 5.735-13.593 11.965.328 5.95 1.685 12.005 3.682 17.955 2.628 6.819 9.61 12.1 14.553 12.095h5.155a21.318 21.318 0 0 0 1.809-1.64c.589.596 1.194 1.145 1.809 1.64h5.155c4.943.006 11.927-5.276 14.554-12.095 1.994-5.95 3.353-12.005 3.681-17.955.397-6.231-6.488-11.17-13.593-11.965" fill="#CD4026"/><path d="M98.697 94.421c-.262 1.043-.04 1.56.138 1.977.098.23.169.419.208.56l-2.35.668-2.309.79c-.354-.83-1.086-2.545-.426-5.182.783-3.122 4.327-5.514 9.03-6.092l.597 4.849c-3.37.415-4.762 1.926-4.888 2.43m27.12-12.155c-.28-.017-.56-.054-.841-.053-4.05.002-7.573 1.815-10.765 4.917-3.192-3.102-6.716-4.915-10.764-4.917-.28 0-.561.037-.842.053-7.106.795-13.99 5.735-13.593 11.965.328 5.95 1.685 12.005 3.682 17.955 2.628 6.819 9.61 12.1 14.553 12.095h5.155a21.318 21.318 0 0 0 1.809-1.64c.589.596 1.194 1.145 1.809 1.64h5.155c4.943.006 11.927-5.276 14.554-12.095 1.994-5.95 3.353-12.005 3.681-17.955.397-6.231-6.488-11.17-13.593-11.965" fill="#CD4026"/><path d="M117.046 220.093C60.135 220.093 14 173.958 14 117.047 14 60.137 60.135 14 117.046 14c35.177 0 66.237 17.626 84.83 44.528 11.488 16.622 18.217 36.785 18.217 58.519 0 56.91-46.136 103.046-103.047 103.046z" fill="#FFF"/><g transform="translate(62 55)"><path d="M54.143 34.263h-4.886V21.639c0-4.153 3.379-7.533 7.531-7.533v4.887a2.649 2.649 0 0 0-2.645 2.646v12.624z" fill="#141E32"/><mask id="b" fill="#fff"><use xlink:href="#a"/></mask><path d="M4.884 112.648H108.08V96.157H4.884v16.491zM0 117.535h112.965V91.27H0v26.264z" fill="#141E32" mask="url(#b)"/><path fill="#141E32" mask="url(#b)" d="M84.877 107.762h3.053v-6.719h-3.053zM92.815 107.762h10.38v-6.719h-10.38zM9.77 107.762h70.222v-6.719H9.77z"/><path fill="#ECA69B" mask="url(#b)" d="M87.93 98.6V110.205h4.884V98.6zM79.991 101.044v9.161h4.885V98.6h-4.885z"/><path d="M18.902 74.587h74.64a13.14 13.14 0 0 0-2.001 3.449H18.727v4.886h71.887a13.14 13.14 0 0 0 2.927 8.231h-74.64c-4.566 0-8.28-3.715-8.28-8.282 0-4.568 3.714-8.284 8.28-8.284m82.254.432l1.67-.558v-4.76H18.901c-7.26 0-13.167 5.907-13.167 13.17 0 7.261 5.907 13.169 13.167 13.169h83.922v-4.761l-1.669-.558a8.27 8.27 0 0 1-5.658-7.85 8.272 8.272 0 0 1 5.658-7.852" fill="#141E32" mask="url(#b)"/><path fill="#ECA69B" mask="url(#b)" d="M35.923 101.597l-7.78-4.936-7.777 4.936V83.184h15.557z"/><path d="M36.697 39.421c-.262 1.043-.04 1.56.138 1.977.098.23.169.419.208.56l-2.35.668-2.309.79c-.354-.83-1.086-2.545-.426-5.182.783-3.122 4.327-5.514 9.03-6.092l.597 4.849c-3.37.415-4.762 1.926-4.888 2.43m27.12-12.155c-.28-.017-.56-.054-.841-.053-4.05.002-7.573 1.815-10.765 4.917-3.192-3.102-6.716-4.915-10.764-4.917-.28 0-.561.037-.842.053-7.106.795-13.99 5.735-13.593 11.965.328 5.95 1.685 12.005 3.682 17.955 2.628 6.819 9.61 12.1 14.553 12.095h5.155a21.318 21.318 0 0 0 1.809-1.64c.589.596 1.194 1.145 1.809 1.64h5.155c4.943.006 11.927-5.276 14.554-12.095 1.994-5.95 3.353-12.005 3.681-17.955.397-6.231-6.488-11.17-13.593-11.965" fill="#CD4026" mask="url(#b)"/><path d="M98.696 66.853l-4.535-1.816c.286-.714.553-1.437.802-2.17l4.625 1.574a49.422 49.422 0 0 1-.892 2.412M55.859 4.951a45.548 45.548 0 0 0-4.759-.005l-.254-4.88c1.749-.09 3.53-.088 5.277.006l-.264 4.88zM41.733 6.462l-1.3-4.71A48.388 48.388 0 0 1 45.594.626l.778 4.824a43.56 43.56 0 0 0-4.64 1.012zm23.49.026a43.773 43.773 0 0 0-4.64-1.023l.79-4.822a48.91 48.91 0 0 1 5.16 1.138l-1.31 4.707zm-32.31 3.483l-2.288-4.318a48.995 48.995 0 0 1 4.797-2.218l1.806 4.54a43.676 43.676 0 0 0-4.315 1.996zm41.118.045a43.733 43.733 0 0 0-4.308-2.004l1.814-4.537a48.831 48.831 0 0 1 4.792 2.228l-2.298 4.313zm-48.975 5.285l-3.162-3.725A49.121 49.121 0 0 1 26.1 8.378l2.743 4.044a44.297 44.297 0 0 0-3.786 2.88zm56.819.06a44.313 44.313 0 0 0-3.779-2.886l2.752-4.038a49.369 49.369 0 0 1 4.196 3.206l-3.17 3.718zM18.52 22.19l-3.884-2.962a48.918 48.918 0 0 1 3.423-4.022l3.542 3.363a44.498 44.498 0 0 0-3.081 3.62zm69.874.074a44.268 44.268 0 0 0-3.075-3.628l3.551-3.356a49.382 49.382 0 0 1 3.415 4.03l-3.891 2.954zm-74.777 8.053l-4.431-2.056c.737-1.589 1.57-3.159 2.48-4.665l4.182 2.525a43.984 43.984 0 0 0-2.23 4.196zm79.665.088a44.196 44.196 0 0 0-2.224-4.204l4.189-2.514a48.99 48.99 0 0 1 2.47 4.671l-4.435 2.047zM10.587 39.31l-4.772-1.047a48.704 48.704 0 0 1 1.413-5.093l4.628 1.561a43.806 43.806 0 0 0-1.27 4.579zm85.708.099a43.774 43.774 0 0 0-1.26-4.584l4.633-1.55a48.89 48.89 0 0 1 1.4 5.097l-4.773 1.037zm-86.727 9.34H4.683c0-1.756.095-3.53.283-5.271L9.822 44a44.715 44.715 0 0 0-.254 4.75zm87.724.108l.001-.143c0-1.51-.083-3.078-.244-4.612l4.857-.513c.18 1.703.271 3.444.271 5.171l-4.885.097zM5.82 59.243a48.478 48.478 0 0 1-.854-5.217l4.856-.526c.17 1.574.429 3.152.768 4.691l-4.77 1.052zm95.196.11l-4.768-1.064c.343-1.541.605-3.12.779-4.689l4.855.537a48.631 48.631 0 0 1-.866 5.215zM8.163 66.853a49.422 49.422 0 0 1-.891-2.412l4.625-1.573c.249.732.516 1.455.802 2.169l-4.536 1.816z" fill="#141E32" mask="url(#b)"/></g></g></svg>