<svg width="240" height="240" viewBox="0 0 240 240" xmlns="http://www.w3.org/2000/svg" xmlns:xlink="http://www.w3.org/1999/xlink"><title>symbol-share</title><defs><circle id="a" cx="110" cy="110" r="110"/><mask id="b" x="-10" y="-10" width="240" height="240"><path fill="#fff" d="M-10-10h240v240H-10z"/><use xlink:href="#a"/></mask></defs><g fill="none" fill-rule="evenodd"><g opacity=".35" transform="translate(10 10)"><use fill="#334162" xlink:href="#a"/><use stroke="#7289AF" mask="url(#b)" stroke-width="20" xlink:href="#a"/></g><path d="M120 215c52.467 0 95-42.533 95-95s-42.533-95-95-95-95 42.533-95 95 42.533 95 95 95z" fill="#FFF"/><path d="M111.35 174.228h11.552l1.163-13.718 1.86-.348a41.51 41.51 0 0 0 13.822-5.248l1.537-.925 10.95 9.114 8.172-8.035-9.039-10.504 1.066-1.541a40.087 40.087 0 0 0 5.99-13.323l.422-1.724 14.3-1.172.002-11.36-13.949-1.143-.354-1.83a40.055 40.055 0 0 0-5.339-13.596l-.94-1.511 9.267-10.766-8.17-8.034-10.682 8.89-1.565-1.049a41.462 41.462 0 0 0-13.551-5.892l-1.752-.415-1.193-14.063h-11.552l-1.164 13.718-1.86.348a41.54 41.54 0 0 0-13.824 5.246l-1.537.926-10.95-9.113-8.17 8.034 9.04 10.505-1.065 1.541a40.059 40.059 0 0 0-5.992 13.323l-.422 1.723-14.299 1.174-.004 11.358 13.952 1.145.354 1.83a39.982 39.982 0 0 0 5.335 13.591l.942 1.511-9.266 10.77 8.168 8.034 10.684-8.888 1.567 1.047a41.414 41.414 0 0 0 13.548 5.893l1.752.415 1.193 14.062zm16.14 4.903h-20.73l-1.277-15.062a46.372 46.372 0 0 1-11.835-5.135l-11.325 9.423-14.655-14.416 9.925-11.535a44.69 44.69 0 0 1-4.671-11.863l-14.789-1.212.006-20.383 15.315-1.257a44.804 44.804 0 0 1 5.22-11.637l-9.583-11.137 14.661-14.415 11.729 9.762a46.456 46.456 0 0 1 12.065-4.592l1.233-14.54h20.726l1.28 15.063a46.43 46.43 0 0 1 11.835 5.134l11.323-9.423L168.6 86.321l-9.927 11.534a44.757 44.757 0 0 1 4.672 11.865l14.787 1.211-.001 20.385-15.318 1.254a44.877 44.877 0 0 1-5.22 11.64l9.582 11.135-14.66 14.414-11.73-9.761a46.459 46.459 0 0 1-12.064 4.593l-1.231 14.54z" fill="#282D33"/><path d="M118.674 151.312c-17.573 0-31.87-14.059-31.87-31.342h4.986c0 14.578 12.06 26.439 26.884 26.439s26.886-11.861 26.886-26.439h4.986c0 17.283-14.298 31.342-31.872 31.342" fill="#282D33"/><path d="M91.79 120.175h-4.986c0-.885.038-1.779.113-2.656l4.969.413c-.064.74-.096 1.495-.096 2.243M124.554 95.007a27.127 27.127 0 0 0-4.617-.796l.429-4.886c1.848.157 3.69.474 5.477.945l-1.289 4.737zm-13.928.008l-1.295-4.734a32.212 32.212 0 0 1 5.477-.951l.434 4.884a27.331 27.331 0 0 0-4.616.801zm22.39 3.881a27.041 27.041 0 0 0-4.058-2.312l2.113-4.44a31.988 31.988 0 0 1 4.812 2.74l-2.866 4.012zm-30.846.022l-2.871-4.01a32.242 32.242 0 0 1 4.807-2.745l2.12 4.438a27.044 27.044 0 0 0-4.056 2.317zm37.46 6.484a26.915 26.915 0 0 0-3.02-3.534l3.527-3.467a31.703 31.703 0 0 1 3.574 4.185l-4.08 2.816zm-44.064.029l-4.085-2.81a31.82 31.82 0 0 1 3.568-4.19l3.532 3.46a26.884 26.884 0 0 0-3.015 3.54zm48.019 8.294a26.078 26.078 0 0 0-1.606-4.332l4.518-2.075a30.996 30.996 0 0 1 1.905 5.14l-4.817 1.267zm-51.962.035l-4.82-1.26a30.861 30.861 0 0 1 1.899-5.144l4.519 2.071a26.01 26.01 0 0 0-1.598 4.333zM150.473 120.175h-4.986c0-.748-.032-1.503-.096-2.243l4.968-.413c.076.877.114 1.771.114 2.656" fill="#282D33"/><path d="M101.581 131.02a19.046 19.046 0 0 1-3.559-11.14c0-10.764 8.907-19.523 19.853-19.523 10.95 0 19.854 8.759 19.854 19.523 0 4.052-1.244 7.894-3.56 11.139-1.557-3.86-5.393-6.597-9.866-6.597H111.45c-4.474 0-8.31 2.738-9.869 6.598" fill="#619252"/><path d="M126.376 117.364c0 4.652-3.835 8.424-8.568 8.424-4.732 0-8.567-3.772-8.567-8.424 0-4.654 3.835-8.426 8.567-8.426 4.733 0 8.568 3.772 8.568 8.426" fill="#FFF"/><path d="M117.808 111.39c-3.349 0-6.074 2.68-6.074 5.974 0 3.293 2.725 5.972 6.074 5.972 3.35 0 6.075-2.68 6.075-5.972 0-3.295-2.725-5.974-6.075-5.974zm0 16.85c-6.098 0-11.06-4.88-11.06-10.876 0-5.998 4.962-10.878 11.06-10.878 6.099 0 11.062 4.88 11.062 10.878 0 5.997-4.963 10.876-11.062 10.876z" fill="#282D33"/><path d="M135.489 145.47h-4.987v-9.72c0-3.294-2.724-5.973-6.073-5.973h-12.853c-3.35 0-6.074 2.68-6.074 5.973v9.72h-4.986v-9.72c0-5.998 4.962-10.876 11.06-10.876h12.853c6.098 0 11.06 4.878 11.06 10.876v9.72" fill="#282D33"/></g></svg>