<?xml version="1.0" encoding="utf-8"?>
<!-- Generator: Adobe Illustrator 19.2.1, SVG Export Plug-In . SVG Version: 6.00 Build 0)  -->
<svg version="1.1" id="Layer_1" xmlns="http://www.w3.org/2000/svg" xmlns:xlink="http://www.w3.org/1999/xlink" x="0px" y="0px"
	 viewBox="0 0 400 400" style="enable-background:new 0 0 400 400;" xml:space="preserve">
<style type="text/css">
	.st0{fill:#B8E986;}
</style>
<g id="Layer_x25_2019">
	<path class="st0" d="M114.5,332c-7.7-8-7.7-20.8,0.1-28.6L315.4,67.6c7.8-7.8,20.4-7.7,28.1,0.4l0,0c7.7,8,7.7,20.8-0.1,28.6
		L142.7,332.4C134.9,340.2,122.3,340,114.5,332L114.5,332z"/>
	<g>
		<path class="st0" d="M58.3,245.7c7.3-7.1,19.2-6.2,27.4,2l56.1,56.2c8.1,8.2,8.8,20,1.6,27l-2.5,2.5c-7.3,7-19.2,6.2-27.4-2
			l-56.1-56.2c-8.1-8.2-8.8-20-1.6-27L58.3,245.7z"/>
	</g>
</g>
</svg>
