<?xml version="1.0" encoding="utf-8"?>
<!-- Generator: Adobe Illustrator 19.1.0, SVG Export Plug-In . SVG Version: 6.00 Build 0)  -->
<svg version="1.1" id="Layer_1" xmlns="http://www.w3.org/2000/svg" xmlns:xlink="http://www.w3.org/1999/xlink" x="0px" y="0px"
	 viewBox="0 0 200 200" style="enable-background:new 0 0 200 200;" xml:space="preserve">
<path d="M29.6,98.8c0.6-10,0.3-20.5,1.9-30.6c4.9-31.1,31.8-56.1,63.2-59.7c36.6-4.1,68.1,16.3,79.3,51.5c1.2,3.7-0.3,7-3.8,8.2
	c-3.4,1.1-6.6-0.7-7.8-4.4c-8.1-23.8-24.4-38.5-49.1-42.6c-33.4-5.6-64.6,17.2-70.3,49.9c-0.4,2.4-0.5,4.9-0.9,7.3
	c-0.4,2.3,0.3,3.3,2.9,3.2c9.5-0.1,19-0.1,28.5-0.1c32,0,64,0,96,0c1.6,0,3.5,0.1,4.7,0.9c1.2,0.9,2.5,2.7,2.5,4.1
	c0.2,13.6,0.9,27.2-0.1,40.8c-1.1,15.6-8,29.2-18.6,40.8c-12.1,13.3-27.1,21.5-44.9,23.5c-44.4,5-76.1-26.3-81.5-60.8
	C29.9,120.4,30.2,109.7,29.6,98.8z M165.2,94c-41.2,0-81.9,0-123.3,0c0.5,11.8,0.2,23.4,1.8,34.8c3.9,27.5,27.6,49.1,54.6,50.9
	c29.6,2,56.2-16,64.4-43.4C166.8,122.4,164.3,108.3,165.2,94z"/>
<path d="M103,110.9c8.7,0,16,5.7,18.2,14.1c2.2,8.3-1.6,17.3-9.4,21.3c-2,1.1-2.9,2.2-2.6,4.5c0.2,1.6,0.1,3.3-0.1,4.9
	c-0.3,3.2-3.1,5.7-6.2,5.5c-3.2-0.1-5.7-2.6-5.9-6c0-0.3,0-0.6,0-0.9c0.5-4.1-0.4-6.8-4.6-9.2c-7.3-4.1-10-13.1-7.5-21.2
	C87.4,116.2,94.7,110.9,103,110.9z M96.7,129.5c0,3.7,2.9,6.7,6.5,6.7c3.6,0,6.7-3.1,6.7-6.6c0-3.5-2.9-6.4-6.4-6.5
	C99.7,123,96.8,125.7,96.7,129.5z"/>
</svg>
