<?xml version="1.0" encoding="utf-8"?>
<!-- Generator: Adobe Illustrator 19.2.1, SVG Export Plug-In . SVG Version: 6.00 Build 0)  -->
<svg version="1.1" id="Raichu-Icons.fw-icon-email" xmlns="http://www.w3.org/2000/svg" xmlns:xlink="http://www.w3.org/1999/xlink"
	 x="0px" y="0px" viewBox="0 0 400 400" style="enable-background:new 0 0 400 400;" xml:space="preserve">
<style type="text/css">
	.st0{fill:none;}
	.st1{fill:#728AB0;}
</style>
<path class="st0" d="z"/>
<g id="Master_x25_20Page_x25_20Layer2">
	<g id="Layer_x25_2014">
	</g>
</g>
<g id="Layer_x25_2015">
	<path class="st1" d="M360.1,160.1c0-5.5-4.5-10-10-10c-5.5,0-10,4.5-10,10v149.8H60.4V90.1h265.8L200.4,216L107.4,123
		c-3.9-3.9-10.3-3.9-14.3,0c-3.9,3.9-3.9,10.3,0,14.3l99.9,99.9c0.3,0.3,0.6,0.5,0.9,0.8c3.9,3.3,9.6,3.1,13.2-0.4L356.2,88.4
		c2.7-1.8,4.4-4.8,4.4-8.3c0-4.9-3.6-9-8.3-9.8c-1.1-0.2-2.1-0.3-3.2-0.2H50.7c0,0-0.1,0-0.1,0c0,0-0.1,0-0.1,0c-5.5,0-10,4.5-10,10
		v240c0,5.5,4.5,10,10,10c0.6,0,1.2-0.1,1.8-0.2h296.2c0.6,0.1,1.2,0.2,1.8,0.2c1.1,0,2.2-0.2,3.2-0.5c4.2-1.2,7.4-5,7.4-9.6
		c0-1.1-0.2-2.2-0.6-3.3V160.1z"/>
</g>
<path class="st0" d="z"/>
</svg>
