<?xml version="1.0" encoding="utf-8"?>
<!-- Generator: Adobe Illustrator 19.1.0, SVG Export Plug-In . SVG Version: 6.00 Build 0)  -->
<svg version="1.1" id="Layer_1" xmlns="http://www.w3.org/2000/svg" xmlns:xlink="http://www.w3.org/1999/xlink" x="0px" y="0px"
	 viewBox="0 0 200 200" style="enable-background:new 0 0 200 200;" xml:space="preserve">
<style type="text/css">
	.st0{fill-rule:evenodd;clip-rule:evenodd;fill:#FFFFFF;}
	.st1{fill:#FFFFFF;}
</style>
<path class="st0" d="M193.5,70.4C177.2,18.3,121.6-10.8,69.4,5.5C17.3,21.9-11.8,77.4,4.5,129.6c0.6,2,1.3,3.9,2,5.8c0,0,0,0,0,0
	c0,0.1,0.1,0.2,0.1,0.4c0,0.1,0.1,0.2,0.1,0.3c1.2,2.9,4.5,4.4,7.5,3.4c3.3-1,5.1-4.5,4.1-7.8c-0.1-0.2-0.1-0.4-0.2-0.6
	c-0.6-1.7-1.2-3.4-1.8-5.2C2.1,80.3,27.5,31.6,73.1,17.4c45.7-14.3,94.3,11.1,108.6,56.8c14.3,45.7-11.1,94.3-56.8,108.6
	c-31.6,9.9-64.6,0.8-86.7-21c-0.2-0.2-0.3-0.3-0.5-0.5c-1.6-1.4-3.8-2-6-1.3c-3.3,1-5.1,4.5-4.1,7.8c0.3,1.1,1,2,1.8,2.7
	c0,0,0,0,0,0c0,0,0,0,0,0c25.2,24.9,63,35.3,99.1,24C180.8,178.2,209.8,122.6,193.5,70.4z"/>
<g>
	<g>
		<path class="st1" d="M139.8,74c-0.1-0.8-0.1-1.5-0.1-2.3c-0.1-1.7-0.2-3.4-0.5-5.1c-3.2-18.7-20.7-33.4-40-33.4
			c-2.3,0-4.7,0.2-6.9,0.6c-18.7,3.5-31.7,17.4-33.8,36.3c-0.3,2.7-0.2,5.4,0,8.5c0.3,3.2,3,5.6,6.3,5.4c3.2-0.2,5.5-2.8,5.5-6.3
			c0-0.6,0-1.2-0.1-1.8c-0.4-8.2,2.4-15.9,7.9-21.7c5.5-5.8,12.9-8.9,20.9-8.9c1.5,0,3,0.1,4.5,0.3c9,1.3,16.6,6.8,21,15
			c4.4,8.2,4.6,17.7,0.6,25.9c-2.9,5.9-7.6,10.5-14.4,14.1c-10.1,5.2-17,13.3-20.5,24.1c-2.1,6.5-2.5,13.2-1.2,19.8
			c0.6,2.9,2.9,4.9,5.7,4.9c0.2,0,0.4,0,0.6,0c3.3-0.3,5.5-2.9,5.4-6.4c0-1.7-0.1-3.3-0.2-5c0-2.5-0.1-4.8,0.4-7
			c1.8-8.9,7.2-15.6,16.4-20.5c14.4-7.6,21.9-19.8,22.2-36.3l0-0.1L139.8,74z"/>
	</g>
	<circle class="st1" cx="97" cy="160.6" r="6.2"/>
</g>
</svg>
