<?xml version="1.0" encoding="utf-8"?>
<!-- Generator: Adobe Illustrator 19.1.0, SVG Export Plug-In . SVG Version: 6.00 Build 0)  -->
<svg version="1.1" id="Layer_1" xmlns="http://www.w3.org/2000/svg" xmlns:xlink="http://www.w3.org/1999/xlink" x="0px" y="0px"
	 width="10px" height="10px" viewBox="-126.9 102.9 10 10" style="enable-background:new -126.9 102.9 10 10;" xml:space="preserve"
	>
<style type="text/css">
	.st0{fill:#FFFFFF;}
</style>
<path class="st0" d="M-117.2,103.2c-0.3-0.3-0.9-0.3-1.2,0l-3.6,3.6l-3.6-3.6c-0.3-0.3-0.9-0.3-1.2,0c-0.3,0.3-0.3,0.9,0,1.2
	l3.6,3.6l-3.6,3.6c-0.3,0.3-0.3,0.9,0,1.2c0.3,0.3,0.9,0.3,1.2,0l3.6-3.6l3.6,3.6c0.3,0.3,0.9,0.3,1.2,0c0.3-0.3,0.3-0.9,0-1.2
	l-3.6-3.6l3.6-3.6C-116.9,104.1-116.9,103.5-117.2,103.2z"/>
</svg>
