<?xml version="1.0" encoding="utf-8"?>
<!-- Generator: Adobe Illustrator 19.2.1, SVG Export Plug-In . SVG Version: 6.00 Build 0)  -->
<svg version="1.1" id="Layer_1" xmlns="http://www.w3.org/2000/svg" xmlns:xlink="http://www.w3.org/1999/xlink" x="0px" y="0px"
	 viewBox="0 0 200 200" style="enable-background:new 0 0 200 200;" xml:space="preserve">
<style type="text/css">
	.st0{fill:#728AB0;}
</style>
<path class="st0" d="M65.7,17.2c4.4,0.6,8.7,1.2,13,1.8c10.5,1.6,21,3.3,31.6,4.8c14.7,2.1,29.2,1.3,43.7-1.8
	c6.2-1.3,12.4-2.6,18.6-3.8c7.7-1.4,13.6,3.6,13.7,11.4c0.1,8.7,0,17.5,0,26.2c0.1,19.7,0.2,39.5,0.3,59.2c0,8-6.5,13.3-14.3,11.7
	c-8.9-1.8-17.7-3.7-26.6-5.4c-13.2-2.5-26.4-1.8-39.5,0c-11.9,1.6-23.8,3.7-35.8,5.5c-3,0.4-6.1,0.4-9.2,0.4c-2.8,0-4.6-2.1-4.6-4.9
	c0-2.7,1.8-4.8,4.4-4.8c13.6,0,26.8-2.9,40.1-5c20.6-3.2,40.9-2.8,61.2,2.3c3.9,1,7.8,1.6,11.7,2.6c2.2,0.5,3-0.5,3.3-2.3
	c0.2-0.9,0.1-1.8,0.1-2.7c-0.1-27-0.2-53.9-0.3-80.9c0-4-0.6-4.4-4.6-3.6c-10.6,2-21.2,4.6-31.9,5.6c-9.8,0.9-19.8,0.7-29.6-0.3
	c-13.7-1.4-27.3-4.2-41-5.8c-7.4-0.9-15-0.5-22.4-0.6c-3.6-0.1-7.3,0-11.3,0c0,1.3,0,2.3,0,3.4c0,47.1,0,94.3,0.1,141.4
	c0,3.6-2.5,6.7-5.9,5.8c-1.5-0.4-2.7-2.1-4.1-3.3c0-51,0-101.9,0-152.9c1.3-2.3,3.1-3.7,5.9-3.5c0.5,0,1-0.3,1.6-0.5
	C44.4,17.2,55,17.2,65.7,17.2z"/>
</svg>
