<svg xmlns="http://www.w3.org/2000/svg" viewBox="0 0 250 256.82"><defs><style>.a,.b{fill:none}.a{clip-rule:evenodd}.c{isolation:isolate}.d{clip-path:url(#a)}.e{clip-path:url(#b)}.f{fill:#344262}.g{clip-path:url(#c)}.h{fill:#fff}.i{clip-path:url(#e)}.j{fill:#151e32}.k{clip-path:url(#g)}.l{fill:#eca69b}.m{clip-path:url(#i)}.n{clip-path:url(#k)}.o{clip-path:url(#m)}.p{clip-path:url(#o)}.q{clip-path:url(#q)}.r{clip-path:url(#s)}.s{clip-path:url(#u)}.t{clip-path:url(#w)}.u{clip-path:url(#y)}.v{clip-path:url(#aa)}.w{clip-path:url(#ac)}.x{clip-path:url(#ae)}.y{clip-path:url(#ag)}.z{clip-path:url(#ai)}.aa{clip-path:url(#ak)}.ab{clip-path:url(#am)}.ac{clip-path:url(#ao)}.ad{clip-path:url(#aq)}.ae{fill:#292e33}.af{clip-path:url(#as)}.ag{clip-path:url(#au)}.ah{clip-path:url(#aw)}.ai{clip-path:url(#ay)}.aj{clip-path:url(#ba)}.ak{clip-path:url(#bc)}.al{clip-path:url(#be)}</style><clipPath id="a"><path class="a" d="M126.69 127.05l55.13-26.57 2.27-31.81 51.78-20.25L120.59 4.73 17.12 48.5l49.97 22.43-.47 23.85 13.46 13.13 46.61 19.14z"/></clipPath><clipPath id="b"><path class="b" d="M0 0h250v256.82H0z"/></clipPath><clipPath id="c"><path class="b" d="M14.56 177.12h176.58v76.54H14.56z"/></clipPath><clipPath id="e"><path class="a" d="M189.77 170.89H17.6a7.5 7.5 0 0 0-7.5 7.49v70.77a7.5 7.5 0 0 0 7.5 7.49h172.17a7.5 7.5 0 0 0 7.5-7.49v-70.78a7.5 7.5 0 0 0-7.5-7.48zm-170.4 76.5H188v-67.25H19.36v67.25z"/></clipPath><clipPath id="g"><path class="b" d="M29.22 190.4h13.5v9.25h-13.5z"/></clipPath><clipPath id="i"><path class="b" d="M51.79 190.4h13.49v9.25H51.79z"/></clipPath><clipPath id="k"><path class="b" d="M74.37 190.4h13.49v9.25H74.37z"/></clipPath><clipPath id="m"><path class="b" d="M96.94 190.4h13.49v9.25H96.94z"/></clipPath><clipPath id="o"><path class="b" d="M119.51 190.4H133v9.25h-13.49z"/></clipPath><clipPath id="q"><path class="b" d="M142.09 190.4h13.49v9.25h-13.49z"/></clipPath><clipPath id="s"><path class="b" d="M164.66 190.4h13.49v9.25h-13.49z"/></clipPath><clipPath id="u"><path class="b" d="M29.22 209.14h13.5v9.25h-13.5z"/></clipPath><clipPath id="w"><path class="b" d="M51.79 209.14h13.49v9.25H51.79z"/></clipPath><clipPath id="y"><path class="b" d="M74.37 209.14h13.49v9.25H74.37z"/></clipPath><clipPath id="aa"><path class="b" d="M96.94 209.14h13.49v9.25H96.94z"/></clipPath><clipPath id="ac"><path class="b" d="M119.51 209.14H133v9.25h-13.49z"/></clipPath><clipPath id="ae"><path class="b" d="M142.09 209.14h13.49v9.25h-13.49z"/></clipPath><clipPath id="ag"><path class="b" d="M164.66 209.14h13.49v9.25h-13.49z"/></clipPath><clipPath id="ai"><path class="b" d="M29.22 227.88h13.5v9.25h-13.5z"/></clipPath><clipPath id="ak"><path class="b" d="M51.79 227.88h13.49v9.25H51.79z"/></clipPath><clipPath id="am"><path class="b" d="M74.37 227.88h81.42v9.25H74.37z"/></clipPath><clipPath id="ao"><path class="b" d="M164.66 227.88h13.49v9.25h-13.49z"/></clipPath><clipPath id="aq"><path class="a" d="M79.7 152.06h9v-9.25h-9v9.25zm-18 0h9v-9.25h-9v9.25zm-9 0h-3.23a31.07 31.07 0 0 1-6.83-.76l2-9a21.75 21.75 0 0 0 4.79.53h3.16v9.25zm-19.75-4.82a31 31 0 0 1-7.8-7.1l7.3-5.68a21.7 21.7 0 0 0 5.48 5zm-12.84-16.41a30.76 30.76 0 0 1-1.54-9.63v-.8l9.26.23v.57a21.59 21.59 0 0 0 1.07 6.8zm9.17-17.44l-8.63-3.34a30.73 30.73 0 0 1 5.44-9l7 6.05a21.56 21.56 0 0 0-3.81 6.29zm9.54-11l-4.56-8a30.63 30.63 0 0 1 10-3.55l1.56 9.11a21.42 21.42 0 0 0-7 2.43z"/></clipPath><clipPath id="as"><path class="b" d="M97.81 142.82h4.63v9.25h-4.63z"/></clipPath><clipPath id="au"><path class="b" d="M101.84 142.82h4.63v9.25h-4.63z"/></clipPath><clipPath id="aw"><path class="a" d="M211.78 198.3H206v-9.25h5.8a18.69 18.69 0 0 0 2.71-.2l1.34 9.15a28.19 28.19 0 0 1-4.07.3zm14.37-4l-4.79-7.91a18.5 18.5 0 0 0 5.39-4.94l7.48 5.46a27.75 27.75 0 0 1-8.09 7.4zM238.8 177l-9-2.13a18.67 18.67 0 0 0 .25-7.3l9.14-1.5a27.94 27.94 0 0 1-.39 10.93zm-11.34-16.25a18.53 18.53 0 0 0-5-5.3l5.33-7.56a27.75 27.75 0 0 1 7.54 7.93zm-11.71-8.24a18.79 18.79 0 0 0-4-.43h-4.19v-9.25h4.19a28 28 0 0 1 5.95.64zm-26.55-.43h9.19v-9.25h-9.19v9.25zm-18.38 0H180v-9.25h-9.19v9.25zm-18.39 0h9.19v-9.25h-9.19v9.25zm-18.38 0h9.19v-9.25H134v9.25zm-18.39 0h9.19v-9.25h-9.19v9.25z"/></clipPath><clipPath id="ay"><path class="b" d="M192.1 189.05h4.63v9.25h-4.63z"/></clipPath><clipPath id="ba"><path class="a" d="M249.65 47.51L124.36.58 0 49.91l60.83 22.78.17 14.8c.2 12.86 7.77 21.11 28 30.42 13.07 6 24.77 10.06 35.75 12.31l.93-.77.94.75c11-2.47 22.58-6.72 35.51-13 20-9.69 27.42-18.08 27.36-31l-.14-14.78zm-69.48 38.78c0 6.23-1.65 12.65-22.15 22.59a166.9 166.9 0 0 1-27.83 10.86L129.94 95l50.12-19.88zm-87.36 23.22C72.12 100 70.32 93.59 70.23 87.38l-.11-11.21 50.49 18.91.24 24.76a167.17 167.17 0 0 1-28.04-10.33zm91.76-46.15L180 65.19l-50.16 19.88h-.07l-4.54 1.8-4.57-1.71h-.07L70 66.25l-4.65-1.74-4.65-1.74-35-13.11 98.74-39.17 99.49 37.26-34.75 13.79z"/></clipPath><clipPath id="bc"><path class="a" d="M125 26.46h-.29c-8.14.08-14.38 3.3-16.22 8a7.56 7.56 0 0 0-.36 4.63 8.9 8.9 0 0 0 2.73 4.6 17.74 17.74 0 0 0 9.32 4.09h.07a28.25 28.25 0 0 0 4.4.35h.16V43.5h.07v4.62a28.56 28.56 0 0 0 4.52-.4h.07a17.74 17.74 0 0 0 9.41-4.3 8.89 8.89 0 0 0 2.62-4.65 8 8 0 0 0 .17-1.63 7.89 7.89 0 0 0-.63-3c-1.91-4.58-8.1-7.67-16.08-7.67"/></clipPath><clipPath id="be"><path class="a" d="M197.84 102.33l-.24-40.69L123 33.71l-3.25 8.66 68.61 25.7.21 34.68c-5 1.74-8.43 5.81-8.43 10.56v20h27.57v-20c0-5.2-4.17-9.58-9.88-11"/></clipPath></defs><title>img-cover-xl-onefaculty-learn</title><g class="c"><g class="d"><g class="e"><path class="f" d="M11.44-.95h230.11v133.69H11.44z"/></g></g><g class="g"><g class="e"><path class="h" d="M8.88 171.43h187.95v87.9H8.88z"/></g></g><g class="i"><g class="e"><path class="j" d="M4.42 165.21h198.52v97.11H4.42z"/></g></g><g class="k"><g class="e"><path class="l" d="M23.53 184.72h24.86v20.61H23.53z"/></g></g><g class="m"><g class="e"><path class="l" d="M46.11 184.72h24.86v20.61H46.11z"/></g></g><g class="n"><g class="e"><path class="l" d="M68.68 184.72h24.85v20.61H68.68z"/></g></g><g class="o"><g class="e"><path class="l" d="M91.26 184.72h24.86v20.61H91.26z"/></g></g><g class="p"><g class="e"><path class="l" d="M113.83 184.72h24.85v20.61h-24.85z"/></g></g><g class="q"><g class="e"><path class="l" d="M136.41 184.72h24.85v20.61h-24.85z"/></g></g><g class="r"><g class="e"><path class="l" d="M158.98 184.72h24.85v20.61h-24.85z"/></g></g><g class="s"><g class="e"><path class="l" d="M23.53 203.46h24.86v20.61H23.53z"/></g></g><g class="t"><g class="e"><path class="l" d="M46.11 203.46h24.86v20.61H46.11z"/></g></g><g class="u"><g class="e"><path class="l" d="M68.68 203.46h24.85v20.61H68.68z"/></g></g><g class="v"><g class="e"><path class="l" d="M91.26 203.46h24.86v20.61H91.26z"/></g></g><g class="w"><g class="e"><path class="l" d="M113.83 203.46h24.85v20.61h-24.85z"/></g></g><g class="x"><g class="e"><path class="l" d="M136.41 203.46h24.85v20.61h-24.85z"/></g></g><g class="y"><g class="e"><path class="l" d="M158.98 203.46h24.85v20.61h-24.85z"/></g></g><g class="z"><g class="e"><path class="l" d="M23.53 222.2h24.86v20.61H23.53z"/></g></g><g class="aa"><g class="e"><path class="l" d="M46.11 222.2h24.86v20.61H46.11z"/></g></g><g class="ab"><g class="e"><path class="l" d="M68.68 222.2h92.78v20.61H68.68z"/></g></g><g class="ac"><g class="e"><path class="l" d="M158.98 222.2h24.85v20.61h-24.85z"/></g></g><g class="ad"><g class="e"><path class="ae" d="M12.89 85.1h81.52v72.64H12.89z"/></g></g><g class="af"><g class="e"><path class="ae" d="M92.12 137.13h15.99v20.61H92.12z"/></g></g><g class="ag"><g class="e"><path class="j" d="M96.16 137.13h15.99v20.61H96.16z"/></g></g><g class="ah"><g class="e"><path class="j" d="M109.98 137.13h135.25v66.85H109.98z"/></g></g><g class="ai"><g class="e"><path class="j" d="M186.42 183.37h15.99v20.61h-15.99z"/></g></g><g class="aj"><g class="e"><path class="j" d="M-5.68-5.1h261.02v141H-5.68z"/></g></g><g class="ak"><g class="e"><path class="j" d="M102.22 20.78h45.15V53.8h-45.15z"/></g></g><g class="al"><g class="e"><path class="l" d="M114.08 28.03h99.32v111.01h-99.32z"/></g></g></g></svg>