<svg xmlns="http://www.w3.org/2000/svg" viewBox="0 0 358.95 341.12"><defs><style>.a,.b{fill:none}.a{clip-rule:evenodd}.c{fill:#fff}.d{isolation:isolate}.e{clip-path:url(#a)}.f{clip-path:url(#b)}.g{fill:#151e32}.h{clip-path:url(#c)}.i{clip-path:url(#e)}.j{clip-path:url(#g)}.k{clip-path:url(#i)}.l{fill:#cd4027}.m{clip-path:url(#k)}.n{clip-path:url(#m)}.o{clip-path:url(#o)}.p{clip-path:url(#q)}.q{clip-path:url(#s)}.r{clip-path:url(#u)}.s{clip-path:url(#w)}.t{clip-path:url(#y)}.u{clip-path:url(#aa)}.v{clip-path:url(#ac)}.w{clip-path:url(#ae)}.x{clip-path:url(#ag)}.y{clip-path:url(#ai)}.z{clip-path:url(#ak)}.aa{clip-path:url(#am)}.ab{fill:#282d33}.ac{clip-path:url(#ao)}.ad{clip-path:url(#aq)}.ae{clip-path:url(#as)}.af{clip-path:url(#au)}.ag{clip-path:url(#aw)}.ah{clip-path:url(#ay)}.ai{clip-path:url(#ba)}.aj{clip-path:url(#bc)}.ak{clip-path:url(#be)}.al{clip-path:url(#bg)}.am{clip-path:url(#bi)}.an{clip-path:url(#bk)}.ao{clip-path:url(#bm)}.ap{clip-path:url(#bo)}.aq{clip-path:url(#bq)}.ar{clip-path:url(#bs)}.as{clip-path:url(#bu)}.at{clip-path:url(#bw)}.au{clip-path:url(#by)}.av{clip-path:url(#ca)}.aw{clip-path:url(#cc)}.ax{clip-path:url(#ce)}.ay{clip-path:url(#cg)}</style><clipPath id="a" transform="translate(.35 3.44)"><path class="a" d="M175.43 211.24c-58.72 0-106.51-46.81-106.54-104.34A102.71 102.71 0 0 1 100 33.25a108.1 108.1 0 0 1 150.82-.16 102.72 102.72 0 0 1 .19 147.4 107.06 107.06 0 0 1-75.49 30.75l-.07-5.62.06-5.62a95.52 95.52 0 0 0 67.38-27.45A91.65 91.65 0 0 0 242.7 41a96.46 96.46 0 0 0-134.58.13 91.65 91.65 0 0 0-27.76 65.77c.02 51.34 42.64 93.1 95.07 93.1v11.23z"/></clipPath><clipPath id="b" transform="translate(.35 3.44)"><path class="b" d="M5.61 2.52h348.03v330.15H5.61z"/></clipPath><clipPath id="c" transform="translate(.35 3.44)"><path class="a" d="M298.18 189.29l-34.25 33.53 46.29 45.33 34.25-33.54zm20.46 49.6L292.22 213l4.06-4 4.06-4 26.42 26-4.06 4z"/></clipPath><clipPath id="e" transform="translate(.35 3.44)"><path class="a" d="M257.32 204.14l-11.08-10.84 8.11-7.94 11.08 10.84-8.11 7.94z"/></clipPath><clipPath id="g" transform="translate(.35 3.44)"><path class="a" d="M267.09 186.92l-14.33-14.04 8.11-7.94 14.33 14.04-8.11 7.94z"/></clipPath><clipPath id="i" transform="translate(.35 3.44)"><path class="a" d="M119.16 107.2a150.22 150.22 0 0 1 2-24.66H99.6a76.58 76.58 0 0 0 .22 49.31h21.35a150.11 150.11 0 0 1-2-24.65"/></clipPath><clipPath id="k" transform="translate(.35 3.44)"><path class="a" d="M169.89 184.86v-41.78h-34.33c5.64 19.51 15.64 34.66 27.53 41.05 2.24.34 4.51.57 6.8.73z"/></clipPath><clipPath id="m" transform="translate(.35 3.44)"><path class="a" d="M138.73 37.45a80.21 80.21 0 0 0-19.79 14.26 78.72 78.72 0 0 0-14.56 19.59h19.14c3.39-13.22 8.63-24.76 15.21-33.86"/></clipPath><clipPath id="o" transform="translate(.35 3.44)"><path class="a" d="M104.72 143.08A79.49 79.49 0 0 0 138 175.91c-6.23-8.94-11.2-20.11-14.46-32.83h-18.8z"/></clipPath><clipPath id="q" transform="translate(.35 3.44)"><path class="a" d="M135.57 71.31h34.32V28.88q-2.51.17-5 .49c-12.68 5.78-23.41 21.46-29.33 41.94"/></clipPath><clipPath id="s" transform="translate(.35 3.44)"><path class="a" d="M220.6 107.2a133.82 133.82 0 0 0-2.28-24.66h-37v49.31h37a134 134 0 0 0 2.27-24.65"/></clipPath><clipPath id="u" transform="translate(.35 3.44)"><path class="a" d="M246.61 71.31a78.51 78.51 0 0 0-14.69-19.71 80 80 0 0 0-19.3-14c6.52 9.07 11.71 20.55 15.07 33.68h18.91z"/></clipPath><clipPath id="w" transform="translate(.35 3.44)"><path class="a" d="M186.45 29.41c-1.68-.23-3.38-.39-5.09-.51v42.41h34.3c-5.9-20.42-16.58-36.08-29.2-41.9"/></clipPath><clipPath id="y" transform="translate(.35 3.44)"><path class="a" d="M251.4 82.54h-21.35a152.18 152.18 0 0 1 0 49.31h21.14a76.65 76.65 0 0 0 .21-49.31"/></clipPath><clipPath id="aa" transform="translate(.35 3.44)"><path class="a" d="M213.4 175.7a80.4 80.4 0 0 0 18.67-13.7 78.67 78.67 0 0 0 14.22-18.92h-18.58c-3.23 12.62-8.15 23.72-14.31 32.62"/></clipPath><clipPath id="ac" transform="translate(.35 3.44)"><path class="a" d="M130.63 107.2a133.85 133.85 0 0 0 2.27 24.65h37V82.54h-37a133.81 133.81 0 0 0-2.28 24.66"/></clipPath><clipPath id="ae" transform="translate(.35 3.44)"><path class="a" d="M181.36 143.08v41.76q3.51-.25 6.95-.79c11.82-6.44 21.75-21.55 27.36-41h-34.3z"/></clipPath><clipPath id="ag" transform="translate(.35 3.44)"><path class="a" d="M267.34 226.46l-21.05-20.63L280.84 172l21 20.62zm-4.84-20.63l4.84 4.74 18.32-17.94-4.83-4.73z"/></clipPath><clipPath id="ai" transform="translate(.35 3.44)"><path class="a" d="M318.1 276.16L306 264.32l34.53-33.82 12.09 11.83v2.32c0 17.36-14.43 31.49-32.17 31.5h-2.35zm4.14-11.83l.49.48a20.54 20.54 0 0 0 18.33-17.94l-.49-.48z"/></clipPath><clipPath id="ak" transform="translate(.35 3.44)"><path class="a" d="M89.51 245.76l-8-.09.09-7.76 8 .09zm-16-.17l-8-.09.09-7.76 8 .09zm-16-.18l-8-.09.09-7.76 8 .09zm-16.11-.19a33.89 33.89 0 0 1-8.91-1.55l2.43-7.38a25.85 25.85 0 0 0 6.79 1.18zm-17.06-5.41a33.12 33.12 0 0 1-6.78-5.81l6-5.07a25.32 25.32 0 0 0 5.18 4.48zm-11.73-13.3a32 32 0 0 1-2.7-8.51l7.79-1.29a24.28 24.28 0 0 0 2.06 6.45zM17.49 210l-7.86-.8a32 32 0 0 1 2.15-8.63l7.35 2.86a24.36 24.36 0 0 0-1.64 6.57zm5-12.46l-6.29-4.7a33.22 33.22 0 0 1 6.4-6.27l4.78 6.18a25.28 25.28 0 0 0-4.86 4.76zm10.9-8.11l-2.9-7.21a33.64 33.64 0 0 1 8.8-2.1l.8 7.72a25.61 25.61 0 0 0-6.67 1.56zM71.66 188l-8-.09.09-7.76 8 .09zm-16-.18l-8-.09.09-7.73 8 .09z"/></clipPath><clipPath id="am" transform="translate(.35 3.44)"><path class="b" transform="rotate(-89.4 98.864 241.945)" d="M95.15 240.05h7.76V244h-7.76z"/></clipPath><clipPath id="ao" transform="translate(.35 3.44)"><path class="b" transform="rotate(-89.4 85.819 241.94)" d="M82.09 240.05h7.76V244h-7.76z"/></clipPath><clipPath id="aq" transform="translate(.35 3.44)"><path class="a" d="M177.6 285.56l-5-.05.09-7.76 5 .05a16.25 16.25 0 0 0 2.31-.14l1.06 7.69a24.5 24.5 0 0 1-3.46.21zm12.3-3.22l-4-6.68a15.71 15.71 0 0 0 4.65-4.09l6.33 4.65a23.52 23.52 0 0 1-6.98 6.12zm11-14.42l-7.67-1.87a15.41 15.41 0 0 0 .28-6.12l7.81-1.17a23.06 23.06 0 0 1-.45 9.16zm-49.94-21.44l-7.85-.09.09-7.76 7.84.09zm-15.69-.17l-7.84-.09.09-7.76 7.85.09zm-15.69-.17l-7.84-.09.09-7.76 7.85.09zm-15.73-.14l-7.85-.12.09-7.76 7.85.09z"/></clipPath><clipPath id="as" transform="translate(.35 3.44)"><path class="b" transform="rotate(-89.37 162.306 281.458)" d="M158.42 279.48h7.76v3.95h-7.76z"/></clipPath><clipPath id="au" transform="translate(.35 3.44)"><path class="a" d="M178.39 219.4A21.48 21.48 0 1 0 200 241.11a21.69 21.69 0 0 0-21.61-21.71zm-.12 10.17a7.06 7.06 0 1 1-7.27 7 7.12 7.12 0 0 1 7.27-7zm12.3 24.56a18.56 18.56 0 0 1-25.16-.28v-.57a7.13 7.13 0 0 1 7.27-7l10.78.12a7.12 7.12 0 0 1 7.11 7.13v.57z"/></clipPath><clipPath id="aw" transform="translate(.35 3.44)"><path class="a" d="M159 259.81H12a6.35 6.35 0 0 0-6.4 6.28v59.35a6.35 6.35 0 0 0 6.4 6.28h147a6.35 6.35 0 0 0 6.4-6.28v-59.35a6.35 6.35 0 0 0-6.4-6.28zM13.52 324h143.94v-56.4H13.52V324z"/></clipPath><clipPath id="ay" transform="translate(.35 3.44)"><path class="b" d="M21.68 276.57H33.2v7.76H21.68z"/></clipPath><clipPath id="ba" transform="translate(.35 3.44)"><path class="b" d="M40.77 276.57h11.52v7.76H40.77z"/></clipPath><clipPath id="bc" transform="translate(.35 3.44)"><path class="b" d="M59.85 276.57h11.51v7.76H59.85z"/></clipPath><clipPath id="be" transform="translate(.35 3.44)"><path class="b" d="M78.93 276.57h11.52v7.76H78.93z"/></clipPath><clipPath id="bg" transform="translate(.35 3.44)"><path class="b" d="M99.02 276.57h11.51v7.76H99.02z"/></clipPath><clipPath id="bi" transform="translate(.35 3.44)"><path class="b" d="M118.1 276.57h11.51v7.76H118.1z"/></clipPath><clipPath id="bk" transform="translate(.35 3.44)"><path class="b" d="M137.18 276.57h11.51v7.76h-11.51z"/></clipPath><clipPath id="bm" transform="translate(.35 3.44)"><path class="b" d="M21.68 292.35H33.2v7.76H21.68z"/></clipPath><clipPath id="bo" transform="translate(.35 3.44)"><path class="b" d="M40.77 292.35h11.52v7.76H40.77z"/></clipPath><clipPath id="bq" transform="translate(.35 3.44)"><path class="b" d="M59.85 292.35h11.51v7.76H59.85z"/></clipPath><clipPath id="bs" transform="translate(.35 3.44)"><path class="b" d="M78.93 292.35h11.52v7.76H78.93z"/></clipPath><clipPath id="bu" transform="translate(.35 3.44)"><path class="b" d="M99.02 292.35h11.51v7.76H99.02z"/></clipPath><clipPath id="bw" transform="translate(.35 3.44)"><path class="b" d="M118.1 292.35h11.51v7.76H118.1z"/></clipPath><clipPath id="by" transform="translate(.35 3.44)"><path class="b" d="M137.18 292.35h11.51v7.76h-11.51z"/></clipPath><clipPath id="ca" transform="translate(.35 3.44)"><path class="b" d="M21.68 308.12H33.2v7.76H21.68z"/></clipPath><clipPath id="cc" transform="translate(.35 3.44)"><path class="b" d="M40.77 308.12h11.52v7.76H40.77z"/></clipPath><clipPath id="ce" transform="translate(.35 3.44)"><path class="b" d="M59.85 308.12h69.5v7.76h-69.5z"/></clipPath><clipPath id="cg" transform="translate(.35 3.44)"><path class="b" d="M137.18 308.12h11.51v7.76h-11.51z"/></clipPath></defs><title>img-cover-xl-onefaculty-research</title><path class="c" d="M8.1 264.85h151.47v67H8.1z"/><g class="d"><g class="e"><g class="f"><path class="g" d="M63.27 0h225.1v220.64H63.27z"/></g></g><g class="h"><g class="f"><path class="c" d="M258.32 186.77h92.46v90.78h-92.46z"/></g></g><g class="i"><g class="f"><path class="g" d="M240.63 182.83h31.1v30.71h-31.1z"/></g></g><g class="j"><g class="f"><path class="g" d="M247.14 162.42h34.36v33.9h-34.36z"/></g></g><g class="k"><g class="f"><path class="l" d="M90.01 80.01h37.46v61.23H90.01z"/></g></g><g class="m"><g class="f"><path class="l" d="M129.95 140.56h46.24v53.7h-46.24z"/></g></g><g class="n"><g class="f"><path class="l" d="M98.76 34.92h46.27V80.7H98.76z"/></g></g><g class="o"><g class="f"><path class="l" d="M99.1 140.55h45.18v44.75H99.1z"/></g></g><g class="p"><g class="f"><path class="l" d="M129.96 26.35h46.24V80.7h-46.24z"/></g></g><g class="q"><g class="f"><path class="l" d="M175.75 80.01h51.16v61.23h-51.16z"/></g></g><g class="r"><g class="f"><path class="l" d="M207.02 35.1h45.9v45.6h-45.9z"/></g></g><g class="s"><g class="f"><path class="l" d="M175.75 26.37h46.22V80.7h-46.22z"/></g></g><g class="t"><g class="f"><path class="l" d="M224.44 80.01h37.24v61.23h-37.24z"/></g></g><g class="u"><g class="f"><path class="l" d="M207.79 140.55h44.81v44.54h-44.81z"/></g></g><g class="v"><g class="f"><path class="l" d="M125.01 80.01h51.18v61.23h-51.18z"/></g></g><g class="w"><g class="f"><path class="l" d="M175.75 140.55h46.22v53.68h-46.22z"/></g></g><g class="x"><g class="f"><path class="g" d="M240.68 169.49h67.51v66.36h-67.51z"/></g></g><g class="y"><g class="f"><path class="g" d="M300.42 227.98h58.54v57.57h-58.54z"/></g></g><g class="z"><g class="f"><path class="g" d="M4.02 177.44H95.9v77.72H4.02z"/></g></g><g class="aa"><g class="f"><path class="ab" d="M91.39 235.6h15.96v19.72H91.39z"/></g></g><g class="ac"><g class="f"><path class="ab" d="M78.34 235.6H94.3v19.72H78.34z"/></g></g><g class="ad"><g class="f"><path class="g" d="M90.39 235.6h117.48v59.35H90.39z"/></g></g><g class="ae"><g class="f"><path class="ab" d="M154.67 275.04h15.96v19.72h-15.96z"/></g></g><g class="af"><g class="f"><path class="c" d="M150.65 216.87h55.68v54.87h-55.68z"/></g></g><g class="ag"><g class="f"><path class="g" d="M0 257.29h171.67v83.83H0z"/></g></g><g class="ah"><g class="f"><path class="l" d="M16.07 274.05h23.44v19.68H16.07z"/></g></g><g class="ai"><g class="f"><path class="l" d="M35.15 274.05h23.44v19.68H35.15z"/></g></g><g class="aj"><g class="f"><path class="l" d="M54.23 274.05h23.43v19.68H54.23z"/></g></g><g class="ak"><g class="f"><path class="l" d="M73.32 274.05h23.43v19.68H73.32z"/></g></g><g class="al"><g class="f"><path class="l" d="M93.4 274.05h23.43v19.68H93.4z"/></g></g><g class="am"><g class="f"><path class="l" d="M112.49 274.05h23.43v19.68h-23.43z"/></g></g><g class="an"><g class="f"><path class="l" d="M131.57 274.05H155v19.68h-23.43z"/></g></g><g class="ao"><g class="f"><path class="l" d="M16.07 289.82h23.44v19.68H16.07z"/></g></g><g class="ap"><g class="f"><path class="l" d="M35.15 289.82h23.44v19.68H35.15z"/></g></g><g class="aq"><g class="f"><path class="l" d="M54.23 289.82h23.43v19.68H54.23z"/></g></g><g class="ar"><g class="f"><path class="l" d="M73.32 289.82h23.43v19.68H73.32z"/></g></g><g class="as"><g class="f"><path class="l" d="M93.4 289.82h23.43v19.68H93.4z"/></g></g><g class="at"><g class="f"><path class="l" d="M112.49 289.82h23.43v19.68h-23.43z"/></g></g><g class="au"><g class="f"><path class="l" d="M131.57 289.82H155v19.68h-23.43z"/></g></g><g class="av"><g class="f"><path class="l" d="M16.07 305.6h23.44v19.68H16.07z"/></g></g><g class="aw"><g class="f"><path class="l" d="M35.15 305.6h23.44v19.68H35.15z"/></g></g><g class="ax"><g class="f"><path class="l" d="M54.23 305.6h81.42v19.68H54.23z"/></g></g><g class="ay"><g class="f"><path class="l" d="M131.57 305.6H155v19.68h-23.43z"/></g></g></g></svg>