<?xml version="1.0" encoding="UTF-8" standalone="no"?>
<svg width="150px" height="50px" viewBox="0 0 150 50" version="1.1" xmlns="http://www.w3.org/2000/svg" xmlns:xlink="http://www.w3.org/1999/xlink">
    <!-- Generator: Sketch 3.7.1 (28215) - http://www.bohemiancoding.com/sketch -->
    <title>OneCampus Login@1x</title>
    <desc>Created with Sketch.</desc>
    <defs></defs>
    <g id="Page-1" stroke="none" stroke-width="1" fill="none" fill-rule="evenodd">
        <g id="OneCampus-Login">
            <path d="M50.957266,14.85866 L50.957266,9.29309984 L49.3456559,9.29309984 L49.3456559,16.2 L53.349656,16.2 L53.349656,14.85866 L50.957266,14.85866 Z M58.4047061,13.4172199 C58.4047061,12.6764799 58.2045061,12.1159199 57.8141161,11.7455499 C57.4037061,11.3651699 56.7830861,11.1749799 55.9722761,11.1749799 C55.2315361,11.1749799 54.530836,11.3451499 53.860166,11.6754799 L54.280586,12.7165199 C54.600906,12.5063099 55.2315361,12.2760799 55.7920961,12.2760799 C56.4627661,12.2760799 56.8031061,12.5363399 56.8031061,13.0668699 L56.8031061,13.1769799 L55.5618661,13.2270299 C54.891196,13.2570599 54.340646,13.4072099 53.940246,13.8776799 C53.740046,14.10791 53.639946,14.38819 53.639946,14.73854 C53.639946,15.24905 53.820126,15.63944 54.170476,15.90971 C54.520826,16.17998 54.941246,16.31011 55.4317361,16.31011 C55.9222261,16.31011 56.3926961,16.07988 56.5528561,15.94975 C56.6329361,15.87968 56.7330361,15.78959 56.8431461,15.67948 L56.8731761,16.2 L58.4047061,16.2 L58.4047061,13.4172199 Z M56.8131161,14.83864 C56.6829861,15.04885 56.3826861,15.28909 55.9922961,15.28909 C55.5518561,15.28909 55.2415461,15.04885 55.2415461,14.67848 C55.2415461,14.2981 55.5018061,14.0979 56.0223261,14.07788 L56.8131161,14.02783 L56.8131161,14.83864 Z M62.5288262,11.2650699 L62.5288262,13.8876899 C62.5288262,14.56837 62.2485462,14.98879 61.6979962,14.98879 C61.2075062,14.98879 60.9672662,14.66847 60.9672662,14.02783 L60.9672662,11.2650699 L59.3656662,11.2650699 L59.3656662,14.24805 C59.3656662,14.8987 59.4857862,15.38919 59.7260262,15.72953 C60.0163162,16.11992 60.4867862,16.31011 61.1374362,16.31011 C61.7880862,16.31011 62.3386362,15.98979 62.5788762,15.63944 L62.5888862,16.2 L64.1304263,16.2 L64.1304263,11.2650699 L62.5288262,11.2650699 Z M68.4747664,11.2350399 C68.4046964,11.2050099 68.2245164,11.1749799 68.0243163,11.1749799 C67.4837763,11.1749799 67.0733663,11.4352399 66.8030963,11.9657699 L66.7830763,11.9657699 L66.7930863,11.2650699 L65.1914863,11.2650699 L65.1914863,16.2 L66.7930863,16.2 L66.7930863,14.0078099 C66.7930863,13.5373399 66.8731663,13.1969999 67.0433363,12.9767799 C67.2235163,12.7365399 67.4737663,12.6164199 67.7840763,12.6164199 C68.0243163,12.6164199 68.2145064,12.6564599 68.3646564,12.7365399 L68.4347264,12.7365399 L68.5248164,11.2650699 L68.4747664,11.2350399 Z M73.7600465,13.5873899 C73.7600465,12.8666699 73.5298165,12.2860899 73.0693565,11.8456499 C72.6189065,11.3951999 72.0183064,11.1749799 71.2875764,11.1749799 C70.5268164,11.1749799 69.8961864,11.4052099 69.3856764,11.8656699 C68.8751664,12.3261299 68.6249164,12.9467499 68.6249164,13.7375399 C68.6249164,14.53834 68.8651564,15.16897 69.3556464,15.62943 C69.8461364,16.07988 70.4767664,16.31011 71.2575464,16.31011 C71.9081964,16.31011 72.4086964,16.15996 72.7690565,16.03984 C73.1694565,15.86967 73.3396265,15.71952 73.5097965,15.58939 L73.5998865,15.50931 L72.9692565,14.67848 C72.5087965,14.98879 72.0183064,15.14895 71.4877764,15.14895 C70.7970864,15.14895 70.2965864,14.7986 70.2265164,14.11792 L73.7400265,14.11792 L73.7600465,13.5873899 Z M70.2365264,13.2070099 C70.2665564,12.6864899 70.6469364,12.2160199 71.2575464,12.2160199 C71.8881764,12.2160199 72.2585464,12.6964999 72.2685564,13.2070099 L70.2365264,13.2070099 Z M78.9252066,13.4172199 C78.9252066,12.6764799 78.7250066,12.1159199 78.3346166,11.7455499 C77.9242066,11.3651699 77.3035866,11.1749799 76.4927765,11.1749799 C75.7520365,11.1749799 75.0513365,11.3451499 74.3806665,11.6754799 L74.8010865,12.7165199 C75.1214065,12.5063099 75.7520365,12.2760799 76.3125965,12.2760799 C76.9832666,12.2760799 77.3236066,12.5363399 77.3236066,13.0668699 L77.3236066,13.1769799 L76.0823665,13.2270299 C75.4116965,13.2570599 74.8611465,13.4072099 74.4607465,13.8776799 C74.2605465,14.10791 74.1604465,14.38819 74.1604465,14.73854 C74.1604465,15.24905 74.3406265,15.63944 74.6909765,15.90971 C75.0413265,16.17998 75.4617465,16.31011 75.9522365,16.31011 C76.4427265,16.31011 76.9131966,16.07988 77.0733566,15.94975 C77.1534366,15.87968 77.2535366,15.78959 77.3636466,15.67948 L77.3936766,16.2 L78.9252066,16.2 L78.9252066,13.4172199 Z M77.3336166,14.83864 C77.2034866,15.04885 76.9031866,15.28909 76.5127965,15.28909 C76.0723565,15.28909 75.7620465,15.04885 75.7620465,14.67848 C75.7620465,14.2981 76.0223065,14.0979 76.5428265,14.07788 L77.3336166,14.02783 L77.3336166,14.83864 Z M81.7680467,11.2750799 L81.7680467,9.93373986 L80.1564366,9.93373986 L80.1564366,11.2750799 L79.4557366,11.2750799 L79.4557366,12.4862899 L80.1564366,12.4862899 L80.1564366,14.3982 C80.1564366,15.08889 80.2765566,15.57938 80.5067866,15.84965 C80.7770566,16.15996 81.1774566,16.31011 81.7079867,16.31011 C82.0383167,16.31011 82.4186967,16.26006 82.8491267,16.14995 L82.7690467,14.8987 L82.7089867,14.91872 C82.6188967,14.94875 82.4387167,14.98879 82.2885667,14.98879 C82.0983767,14.98879 81.9782567,14.94875 81.9081867,14.86867 C81.8180967,14.75856 81.7680467,14.55836 81.7680467,14.25806 L81.7680467,12.4862899 L82.8591367,12.4862899 L82.8591367,11.2750799 L81.7680467,11.2750799 Z M88.2445168,13.5873899 C88.2445168,12.8666699 88.0142868,12.2860899 87.5538268,11.8456499 C87.1033768,11.3951999 86.5027768,11.1749799 85.7720468,11.1749799 C85.0112867,11.1749799 84.3806567,11.4052099 83.8701467,11.8656699 C83.3596367,12.3261299 83.1093867,12.9467499 83.1093867,13.7375399 C83.1093867,14.53834 83.3496267,15.16897 83.8401167,15.62943 C84.3306067,16.07988 84.9612367,16.31011 85.7420168,16.31011 C86.3926668,16.31011 86.8931668,16.15996 87.2535268,16.03984 C87.6539268,15.86967 87.8240968,15.71952 87.9942668,15.58939 L88.0843568,15.50931 L87.4537268,14.67848 C86.9932668,14.98879 86.5027768,15.14895 85.9722468,15.14895 C85.2815567,15.14895 84.7810567,14.7986 84.7109867,14.11792 L88.2244968,14.11792 L88.2445168,13.5873899 Z M84.7209967,13.2070099 C84.7510267,12.6864899 85.1314067,12.2160199 85.7420168,12.2160199 C86.3726468,12.2160199 86.7430168,12.6964999 86.7530268,13.2070099 L84.7209967,13.2070099 Z" id="Laureate" fill="#666666"></path>
            <path d="M36.6233423,13.2142463 C36.34901,13.0704755 36.071354,12.9216685 35.7805177,12.7629134 C35.588891,12.658686 35.4560001,12.5629773 35.3807916,12.4854897 C35.3590001,12.4631412 35.3379112,12.4391477 35.3153885,12.4109474 C35.2925676,12.3822153 35.265347,12.3446737 35.2358685,12.3006173 C35.1636787,12.1927276 35.090019,12.0681187 35.0159135,11.9274699 C34.9368896,11.7790055 34.8760023,11.6650798 34.730292,11.3927803 C34.6500929,11.2425645 34.5855744,11.1221536 34.4404829,10.8516936 L34.4408181,10.8523191 C34.328608,10.6426762 34.2122349,10.4474666 34.0911805,10.2665475 C33.9874074,10.1114557 33.8813304,9.96937485 33.7721907,9.84021423 C33.618157,9.65860274 33.4472019,9.5079439 33.2554341,9.39209056 L32.7269037,10.2811278 L33.2834379,9.4096298 C32.9716418,9.20729115 32.5983952,9.07721841 32.1652127,9.00406975 C31.8312809,8.94768974 31.4840923,8.90447736 31.125566,8.87454052 C30.8275193,8.84965372 30.5201252,8.82169394 30.1680655,8.78784828 C29.9486914,8.76625404 29.7876634,8.73024976 29.6933509,8.69035299 C29.6327387,8.66532296 29.5585504,8.62231256 29.4663603,8.55569039 C29.3309262,8.4577925 29.1873542,8.34702013 29.0346432,8.22251554 C28.8597636,8.07908967 28.6974278,7.94387171 28.5397844,7.8099159 C28.3469634,7.64683886 28.1626562,7.49844199 27.9824603,7.3615065 C27.7823306,7.20902001 27.5803429,7.07422253 27.3782382,6.95855955 C27.1235837,6.81422365 26.8712609,6.71494326 26.6147018,6.6641074 C26.2426648,6.59201567 25.8463201,6.61293628 25.4174104,6.71163943 C25.0865029,6.78842108 24.7497774,6.88200544 24.4050514,6.99281189 C24.0969026,7.09225643 23.7923069,7.18746645 23.4897091,7.27906203 C23.2719579,7.34516779 23.1036704,7.37570194 22.9911818,7.37718419 C22.8858745,7.3783084 22.7218045,7.35137784 22.510037,7.28956229 C22.2147429,7.20370215 21.9133348,7.11155368 21.6035004,7.01241115 C21.2493251,6.89967259 20.9127174,6.8076467 20.5877126,6.73547279 C20.1604021,6.63989949 19.7616906,6.62228396 19.3907568,6.69708301 C19.1895574,6.73927851 18.997923,6.80886338 18.8077313,6.90413903 C18.6501534,6.98283658 18.4911918,7.07682062 18.3324341,7.18476836 C18.1531143,7.30669737 17.9726735,7.44375072 17.7905457,7.59590728 C17.7202374,7.65464799 17.7202374,7.65464799 17.6500408,7.7132934 C17.6165363,7.74128204 17.6165363,7.74128204 17.5830465,7.76925392 C17.4829699,7.85283713 17.4010625,7.92118602 17.3222407,7.98686811 C17.1015011,8.17171385 16.9877349,8.26709828 16.8606894,8.37396611 C16.7389337,8.47656577 16.6238856,8.56430797 16.5152687,8.63816232 C16.4698604,8.66903783 16.4297264,8.69428297 16.3948394,8.71419575 C16.3674048,8.72959357 16.3381146,8.74437736 16.3135351,8.7551885 C16.2735139,8.77188573 16.1886101,8.7949673 16.0753239,8.81363487 C15.9048541,8.84189077 15.7247139,8.86616161 15.5332075,8.88657707 C15.3245639,8.90870643 15.115702,8.9282419 14.9058963,8.94508481 C14.6605604,8.96457331 14.420317,8.99189912 14.1864011,9.02684035 C13.9370945,9.0645299 13.7064082,9.1118751 13.4912226,9.170136 C13.2103505,9.2457395 12.9558871,9.35723084 12.7327839,9.50893055 C12.5107726,9.6598878 12.3132483,9.85508456 12.1359849,10.0902426 C11.9975179,10.2730982 11.8648754,10.4750117 11.7388629,10.6939512 C11.6237395,10.8935569 11.5103502,11.1046281 11.3989214,11.3267608 C11.3035895,11.5164153 11.2056419,11.7062322 11.1043316,11.8980366 C11.0137557,12.0692998 10.923789,12.2288656 10.8344401,12.3769432 C10.7746538,12.4760268 10.7212456,12.5472192 10.6791312,12.5902353 C10.6723064,12.596709 10.6469861,12.6192002 10.6170403,12.6435442 C10.5914528,12.6640277 10.5531049,12.6921531 10.5079898,12.7228292 C10.3987903,12.7970798 10.2731432,12.8729346 10.1317055,12.949313 C9.99988395,13.020702 9.86789888,13.092329 9.60099019,13.2372264 C9.44647216,13.3214405 9.30010769,13.4010866 9.0646018,13.5291513 C8.85647432,13.6423563 8.66539719,13.7578985 8.49049428,13.8768242 C8.13294843,14.1199386 7.85456903,14.3764196 7.65754044,14.6652403 L7.63925562,14.6929885 C7.44093684,15.0047027 7.31107456,15.3778189 7.23667826,15.8089529 C7.17840491,16.1456861 7.13521484,16.4987646 7.10668386,16.8685768 C7.08194584,17.1913271 7.05369375,17.5081957 7.02192193,17.8207516 C6.99944828,18.0418366 6.96277969,18.2050654 6.92133776,18.3052319 C6.87785402,18.4099279 6.78536686,18.5594353 6.64205908,18.7429838 C6.44746179,18.9918921 6.24891475,19.2398214 6.04644839,19.4864808 C5.82048067,19.7621192 5.61061226,20.037336 5.41685943,20.3118692 C5.1598607,20.6769635 4.98908257,21.0412627 4.91669776,21.4152505 C4.86656731,21.6766827 4.86335082,21.9504629 4.90053042,22.2388461 C4.93007264,22.4661417 4.97595251,22.7015256 5.03787543,22.9472103 C5.09733963,23.1815321 5.1650901,23.4158027 5.2418647,23.6518763 C5.30949489,23.8607509 5.37420987,24.0669925 5.43578615,24.2697748 C5.49217572,24.4548429 5.54033854,24.6305833 5.5808606,24.7981025 C5.60696355,24.9070953 5.61872093,24.9930276 5.61895698,25.0502276 C5.61918255,25.1109195 5.60800728,25.2005989 5.58207675,25.3158654 C5.54504065,25.4799116 5.49874212,25.6544512 5.44322297,25.8383014 C5.38096041,26.0460907 5.31712265,26.2531899 5.25098063,26.4619018 C5.17584254,26.6990009 5.11028288,26.9337425 5.05407151,27.1665549 C4.99535282,27.4067288 4.95106454,27.6421864 4.92227396,27.8691829 C4.88588655,28.1580752 4.88797571,28.4281116 4.93621445,28.6840982 L5.94631641,28.4906668 L4.92976677,28.6460266 C4.96369563,28.8716281 5.03868335,29.090443 5.14858651,29.3026854 C5.22720322,29.4538307 5.31795385,29.605479 5.42166069,29.7604717 C5.54361195,29.9427313 5.6798568,30.1251263 5.83031836,30.307752 C5.88162135,30.3702923 5.88162135,30.3702923 5.93432493,30.4345665 C6.00932842,30.5260456 6.04554104,30.5702077 6.08456987,30.6177792 C6.13359289,30.6775324 6.17654781,30.729845 6.21768403,30.779882 C6.36951159,30.964522 6.48830841,31.1085246 6.60170094,31.2452052 C6.7056856,31.3708565 6.79318911,31.4869572 6.86370872,31.5923507 C6.8912031,31.6334418 6.91535998,31.6729179 6.9363476,31.7106021 C6.95370072,31.7417234 6.96896363,31.7723912 6.98296606,31.8040068 C7.02170385,31.8941334 7.06098146,32.0598928 7.08632078,32.2850586 C7.12066987,32.5862617 7.15525077,32.9070415 7.19234827,33.2665878 C7.22990406,33.6307073 7.27750275,33.9776565 7.33536455,34.3074708 C7.41299776,34.7469018 7.54829677,35.1232078 7.75776969,35.4362709 C7.90779764,35.6604918 8.10150373,35.8594775 8.33371142,36.0363534 C8.51915654,36.1763366 8.71658274,36.3072978 8.92873484,36.4313816 C9.13296271,36.5506994 9.3427145,36.6645705 9.55944465,36.773398 C9.74719966,36.8678726 9.93422904,36.9644009 10.1221414,37.0636487 C10.2860478,37.1502175 10.4373608,37.2368984 10.5757343,37.3232619 C10.6725288,37.3836604 10.7437224,37.4385189 10.7904579,37.4847467 L11.510556,36.7449404 L10.769388,37.4632896 C10.7939947,37.4890895 10.8168492,37.5152617 10.838662,37.5427192 C10.865523,37.5765491 10.8928255,37.6139775 10.9203342,37.6550899 C10.9908593,37.7604918 11.0648254,37.8857135 11.1417131,38.0305668 C11.2257223,38.1891271 11.3153143,38.3571626 11.4257254,38.5634442 C11.4761597,38.6576946 11.5214208,38.7420666 11.6044652,38.8967219 C11.6602563,39.0006183 11.6860059,39.0485804 11.7158401,39.1041933 C11.8263514,39.3112409 11.942852,39.5065729 12.0647817,39.6888003 C12.1687955,39.8442519 12.2744545,39.9861283 12.3826755,40.114537 C12.5373338,40.2975677 12.7100354,40.4492542 12.9043777,40.5656667 L13.4295975,39.6746379 L12.8633993,40.5397869 C13.1819671,40.7516534 13.5623763,40.8854901 14.0007712,40.9562995 C14.3288799,41.0101316 14.675875,41.0511593 15.0396263,41.0794509 C15.37048,41.1051839 15.6857472,41.1326975 15.9870729,41.1622081 C16.204632,41.1830692 16.3630259,41.2185464 16.4601606,41.2593223 C16.5146673,41.2835233 16.6021622,41.3342131 16.7044795,41.4060708 C16.8371773,41.499217 16.9782772,41.6070698 17.1281845,41.7300903 C17.289977,41.8636189 17.4533064,42.0013465 17.6164571,42.1419289 C17.8045602,42.3044319 17.994501,42.4567638 18.1866199,42.5991864 C18.3895722,42.7495544 18.5891953,42.8807586 18.7873053,42.9934488 C19.0399418,43.1368054 19.2931085,43.2365285 19.5506315,43.2869891 C19.8070529,43.3375172 20.0791241,43.340936 20.3661075,43.303641 C20.5990934,43.2727454 20.8365007,43.2239211 21.0819335,43.157065 C21.3038124,43.09632 21.5273428,43.0295906 21.7538786,42.9563718 C21.9866061,42.8808158 22.183527,42.8183293 22.3675919,42.7619191 C22.5656692,42.7010698 22.740699,42.6517781 22.899269,42.612428 C23.0116893,42.5841085 23.0972272,42.5718381 23.1554601,42.5713251 C23.210352,42.571258 23.2994058,42.5826039 23.4124397,42.6087199 C23.5781215,42.646749 23.7543001,42.6932736 23.941,42.7483267 C24.1301351,42.8043368 24.3296749,42.8671087 24.5412691,42.9370467 C24.7778133,43.015078 25.0112811,43.0835482 25.2425371,43.1428016 C25.4876684,43.2058079 25.7242355,43.2521151 25.9524973,43.2813552 C26.2484883,43.3190074 26.526749,43.312407 26.7889623,43.2529724 L26.5634103,42.2417548 L26.7211217,43.2659536 C26.9427882,43.231267 27.1577998,43.1566833 27.3671991,43.0472314 C27.520201,42.966122 27.6703147,42.8747574 27.8235281,42.7705795 C27.9971404,42.6525313 28.1742669,42.5179297 28.3568563,42.3660407 C28.5116001,42.2364638 28.6668008,42.1070605 28.8251888,41.9755322 C28.8813101,41.928287 29.2009265,41.6606069 29.2939009,41.5819556 C29.4188191,41.4774355 29.5356504,41.3880869 29.640453,41.3168261 C29.6823241,41.2883557 29.7209134,41.2643181 29.7551874,41.2450504 C29.7887492,41.2260712 29.8159137,41.2123772 29.8382519,41.2026805 L29.4316114,40.2507232 L29.8129285,41.2132719 C29.9192942,41.1704517 30.0892429,41.1316928 30.3168684,41.1053824 C30.6149689,41.0713041 30.9297897,41.0394832 31.2595527,41.0100283 C31.6265539,40.9769004 31.9732984,40.9312849 32.3039916,40.8721323 C32.7387612,40.7949079 33.1159896,40.6565985 33.4307322,40.4425883 C33.7418651,40.2310326 34.0066877,39.9327066 34.2412649,39.5544102 C34.4198626,39.2671615 34.592242,38.9593705 34.7588808,38.6308377 C34.9147782,38.3230102 35.0598541,38.043205 35.1984635,37.7835665 C35.3043338,37.5853917 35.4022073,37.4437166 35.4837605,37.3588807 C35.4862227,37.3566785 35.508238,37.3370787 35.5358751,37.3147791 C35.5690983,37.2878202 35.6055669,37.2608294 35.6477319,37.2321592 C35.7519892,37.1612691 35.8761164,37.0867133 36.0215655,37.0079866 C36.1304038,36.949902 36.5199118,36.739065 36.544731,36.7257045 C36.7232144,36.6278758 36.8992873,36.5318762 37.0836109,36.4318712 C37.2946813,36.3164918 37.4874534,36.1995651 37.6654679,36.0785236 C37.8182433,35.9746435 37.9585558,35.8685415 38.0861829,35.759725 C38.270424,35.600425 38.4197986,35.4271323 38.5345122,35.2329488 L37.6511247,34.7026308 L38.5091098,35.2737604 C38.6561653,35.0492643 38.7639955,34.793268 38.8381456,34.5086315 C38.8958328,34.2900259 38.9414559,34.0531809 38.9756436,33.7998257 C39.0066263,33.5668081 39.0312935,33.3297196 39.0498321,33.0865418 C39.0660703,32.8684817 39.0838102,32.6522404 39.1031838,32.4351693 C39.1203685,32.240205 39.1422022,32.0616734 39.1686926,31.8980132 C39.1877265,31.7781322 39.2103631,31.6913714 39.2331445,31.6349391 C39.2711913,31.5440913 39.3615343,31.4010913 39.5025299,31.2270958 C39.7236177,30.9541883 39.9211919,30.7124187 40.1157742,30.4771748 C40.3533,30.1868224 40.5641758,29.9087349 40.7540338,29.6346416 C41.0056451,29.2725202 41.1741187,28.9080964 41.246378,28.5361382 C41.2964804,28.274857 41.2995885,28.0016282 41.2628891,27.7134416 C41.231643,27.4758589 41.183339,27.2363718 41.1173905,26.9906653 C41.0585948,26.7693197 40.9896687,26.5401957 40.9106026,26.3025799 C40.8415804,26.095541 40.7764311,25.8921948 40.7147526,25.6913037 C40.6579126,25.5062302 40.6115888,25.3341835 40.5755932,25.1751168 C40.5476192,25.0516345 40.5337315,24.9509917 40.5315583,24.8734102 L39.5038022,24.9026657 L40.5319676,24.9017967 C40.5319188,24.8430382 40.5430572,24.7585684 40.5688588,24.6512332 C40.6103522,24.473792 40.6572358,24.2965847 40.7113432,24.1132627 C40.7667616,23.9223217 40.8283303,23.7228777 40.8997266,23.5018263 C40.9776604,23.2606682 41.0450091,23.0286221 41.1019214,22.8039169 C41.1638904,22.5594187 41.2095656,22.3225474 41.2384814,22.0931692 C41.275297,21.8008749 41.2708146,21.5233591 41.2179778,21.259793 L41.2135617,21.2388778 C41.137851,20.8976293 40.9748958,20.5544509 40.7343015,20.1948761 C40.6132674,20.0139872 40.4775468,19.8324272 40.3266277,19.648892 C40.2693937,19.5791368 40.2693937,19.5791368 40.2113534,19.5084138 C40.1016536,19.3747586 40.0187513,19.2738961 39.9375216,19.175323 C39.7546605,18.9528943 39.661782,18.8400439 39.5560362,18.7119507 C39.4516552,18.586705 39.3646866,18.4712505 39.292494,18.3633566 C39.2629976,18.3192734 39.2386212,18.2796986 39.2192493,18.2449363 C39.2034341,18.2163175 39.1890048,18.1870893 39.1771086,18.1595846 C39.1593739,18.1165641 39.1353184,18.0278437 39.115436,17.9096478 C39.0859304,17.7354129 39.0613354,17.5546079 39.0418453,17.3671069 C39.020556,17.1649583 39.0013685,16.9549574 38.9838856,16.7336345 C38.9644101,16.484472 38.9374187,16.2425898 38.9027862,16.0076225 C38.8654727,15.7576141 38.8181249,15.5245695 38.7600029,15.306745 C38.6856605,15.0247638 38.5754356,14.7680779 38.4246209,14.5426811 L38.4091857,14.5196128 L38.3925449,14.4974126 C38.1785951,14.2119846 37.8897741,13.9617966 37.5299518,13.7349178 C37.24286,13.5541258 36.9408427,13.3806404 36.6233423,13.2142463 L36.6233423,13.2142463 Z M35.6748219,15.0534753 C35.9448721,15.195002 36.1998724,15.3414798 36.4399891,15.4926897 C36.6015231,15.594542 36.7042665,15.6835423 36.7519207,15.7471172 L37.5722328,15.1222649 L36.7198447,15.7018487 C36.734779,15.7241683 36.7543674,15.7697847 36.7734615,15.8422041 C36.8114082,15.9844353 36.8432192,16.141008 36.8690635,16.3141624 C36.8963692,16.499432 36.9180864,16.6940503 36.9339755,16.8973253 C36.952918,17.1371298 36.973754,17.3651729 36.9968586,17.5845488 C37.020789,17.8147756 37.0514079,18.0398644 37.0882381,18.2573474 C37.1326282,18.521239 37.1973772,18.7600443 37.2861547,18.9739167 C37.3312691,19.0785099 37.3753836,19.1678688 37.4247378,19.2571406 C37.4742964,19.346084 37.5280216,19.4333064 37.5877179,19.5225241 C37.7016805,19.6928444 37.8322037,19.8661196 37.9785663,20.0417132 C38.0800125,20.1646164 38.1722494,20.2766873 38.3550024,20.4989834 C38.4359795,20.597251 38.5181017,20.6971644 38.6270168,20.8298634 C38.684872,20.900361 38.684872,20.900361 38.742793,20.9709525 C38.852441,21.1042982 38.9475563,21.2315385 39.0295254,21.3540436 C39.1379598,21.5161018 39.1942205,21.6345851 39.206808,21.6913202 L40.2101848,21.465099 L39.2023919,21.6704049 C39.2078134,21.6974491 39.2086851,21.7514204 39.1985416,21.8319545 C39.1806758,21.9736765 39.1511477,22.1268089 39.1095486,22.2909382 C39.0640014,22.4707704 39.0091024,22.6599221 38.9444779,22.8598959 C38.866986,23.0998202 38.7993808,23.3188182 38.7390598,23.5266941 C38.6750615,23.743489 38.6179666,23.9592918 38.5688488,24.1694454 C38.5079464,24.4227129 38.4754419,24.669214 38.4756368,24.9035347 L38.4760461,24.9319212 C38.482275,25.154291 38.514488,25.3877358 38.5708189,25.6363902 C38.6187935,25.8483932 38.6786893,26.0708462 38.7503836,26.3042855 C38.8169552,26.521114 38.8871715,26.7402756 38.961214,26.9623729 C39.0269464,27.1599177 39.0835791,27.3481762 39.1317402,27.5294748 C39.1751096,27.6910713 39.2053322,27.8409121 39.22385,27.9816729 C39.2336545,28.0587352 39.2330319,28.1134701 39.2278979,28.1402455 C39.2165314,28.1987386 39.1675805,28.3046239 39.0689061,28.4466379 C38.9108987,28.6747473 38.733139,28.9091637 38.5328499,29.1540184 C38.3369544,29.3908257 38.1350524,29.6378911 37.9099157,29.9157966 C37.6533816,30.2323722 37.4602508,30.5380705 37.3332911,30.8418877 C37.2423066,31.067063 37.1805084,31.3039213 37.138696,31.5673366 C37.1043413,31.7795522 37.0764012,32.0080156 37.055023,32.2505635 C37.0348527,32.4765544 37.0162768,32.7029869 36.9994074,32.9295447 C36.9839528,33.1322481 36.9633277,33.3304858 36.9378066,33.5224395 C36.9149397,33.6918849 36.8854997,33.844718 36.8500826,33.9789433 C36.8292517,34.0588857 36.8086178,34.1078719 36.7931395,34.1315012 L36.7799677,34.1516094 L36.7677372,34.1723129 C36.7732995,34.1628971 36.7697622,34.1670008 36.7527599,34.1817046 C36.6898129,34.2353406 36.6087755,34.2966198 36.5155819,34.359987 C36.3945394,34.4422902 36.2581945,34.5249908 36.1062028,34.6080798 C35.9221582,34.7079275 35.7434354,34.8053718 35.5691495,34.9009339 C35.5466836,34.9129929 35.1618056,35.1213237 35.0540013,35.1788755 C34.8455813,35.2916669 34.662911,35.4013861 34.4978459,35.5136226 C34.4089378,35.5740759 34.32593,35.6355111 34.2486014,35.6982717 C34.1683736,35.7629998 34.0917775,35.831192 34.0207776,35.902296 C33.7808062,36.1516579 33.5774483,36.4460252 33.3878399,36.8009466 C33.2415998,37.0748785 33.089735,37.3677774 32.9277124,37.6876998 C32.7879046,37.9633342 32.6448508,38.2187629 32.498229,38.4545843 C32.4046307,38.6055264 32.3276918,38.692199 32.2808462,38.7240518 C32.2283465,38.7597491 32.1174728,38.8004006 31.9459422,38.8308683 C31.6742149,38.8794727 31.3859395,38.9173964 31.0771061,38.945274 C30.7319951,38.9760994 30.4004888,39.0096068 30.0838884,39.0458009 C29.6868148,39.0916963 29.3443246,39.1698055 29.0502944,39.2881746 L29.0249709,39.298766 C28.9334603,39.3384894 28.8425765,39.3843053 28.7513081,39.4359286 C28.6671255,39.4832493 28.5792796,39.5379692 28.490567,39.5982895 C28.3255456,39.7104963 28.1551275,39.8408262 27.976242,39.9905285 C27.8838308,40.0686843 27.5664485,40.3344933 27.5121483,40.380238 C27.357209,40.508869 27.1998361,40.6400833 27.0454663,40.7693543 C26.9144481,40.878336 26.7897665,40.9730838 26.6736421,41.0520429 C26.5802191,41.1155662 26.493822,41.1681506 26.4152785,41.2097985 C26.4006171,41.2174417 26.3958405,41.2190986 26.405699,41.2175559 L26.3715623,41.2228977 L26.3378583,41.2305372 C26.3265876,41.2330919 26.2836402,41.2341106 26.2108285,41.2248485 C26.0700086,41.2068092 25.9161728,41.1766964 25.7498412,41.1339442 C25.5629458,41.0860569 25.3738128,41.0305889 25.181376,40.9671079 C24.9508059,40.8908977 24.7310308,40.82176 24.5194484,40.7591033 C24.2928883,40.6922957 24.0766182,40.6351839 23.8703928,40.5878501 C23.6150331,40.5288493 23.3732875,40.4980496 23.1447475,40.4984365 C22.9060645,40.5005136 22.6619303,40.5355346 22.4041836,40.6004784 C22.2100704,40.648642 21.9998252,40.7078511 21.768813,40.7788182 C21.5733997,40.838706 21.3661607,40.9044667 21.1247784,40.9828335 C20.9288254,41.0461667 20.7349243,41.104051 20.5442471,41.1562545 C20.3857731,41.1994221 20.2375896,41.2298969 20.1005396,41.2480728 C20.0232567,41.2581126 19.9698818,41.2574419 19.9440553,41.2523528 C19.9169929,41.2470495 19.8671117,41.2274011 19.7969194,41.1875712 C19.6739924,41.1176465 19.5430917,41.0316107 19.4046484,40.9290377 C19.2542803,40.8175659 19.1042765,40.6972634 18.9535584,40.5670583 C18.7783275,40.4160657 18.6038323,40.2689224 18.4285986,40.1243063 C18.2380755,39.9679495 18.0562511,39.8289682 17.8797419,39.7050688 C17.672686,39.559653 17.4697076,39.4420583 17.2673264,39.3528524 C16.9443545,39.2170988 16.5900216,39.137735 16.1838417,39.0987917 C15.8706389,39.0681158 15.5418635,39.0394233 15.197812,39.0126638 C14.8901518,38.9887348 14.6004113,38.9544767 14.3285913,38.9098825 C14.1563386,38.8820571 14.0471482,38.8436414 13.9957958,38.809489 L13.9756085,38.7960633 L13.9548174,38.7836092 C13.9652504,38.7898587 13.9625724,38.7875065 13.9489342,38.7713665 C13.8931124,38.7051303 13.832762,38.6240932 13.7695578,38.5296328 C13.6867574,38.4058853 13.6054575,38.2695728 13.5256474,38.1200488 C13.4945992,38.0621681 13.4686793,38.0138887 13.4128595,37.9099388 C13.330265,37.7561215 13.2853619,37.6724168 13.2354829,37.5792042 C13.1262881,37.3751949 13.0379903,37.2095868 12.955174,37.0532787 C12.846412,36.848375 12.7370012,36.6631464 12.6251103,36.4959224 C12.5663831,36.408153 12.5059355,36.3252867 12.4439,36.2471568 C12.3825596,36.1699425 12.318724,36.0968401 12.2517239,36.0265912 L12.230654,36.0051341 C12.0686182,35.8448585 11.877752,35.6977859 11.6581137,35.5607344 C11.4769513,35.447665 11.2829532,35.3365316 11.0764675,35.2274741 C10.8768607,35.1220497 10.6778665,35.0193462 10.4770477,34.9182986 C10.2984718,34.8286293 10.1268203,34.7354423 9.96027251,34.6381387 C9.8166465,34.5541344 9.6861727,34.4675856 9.56979,34.379742 C9.5137086,34.3370114 9.47827725,34.3006144 9.46254582,34.2771033 C9.43026414,34.2288575 9.3907451,34.1189435 9.36005692,33.9452394 C9.31117813,33.6666242 9.27027198,33.3684573 9.23765014,33.0521746 C9.19982822,32.6856072 9.16446386,32.3575599 9.12937157,32.0498501 C9.08289072,31.63681 8.99760995,31.2769081 8.86498798,30.9688408 C8.82115827,30.8697398 8.77755727,30.7821324 8.72915846,30.695334 C8.68088126,30.6086499 8.62725853,30.5210221 8.56848485,30.4331832 C8.45664983,30.2660426 8.3273429,30.0944766 8.17990431,29.9163189 C8.06794225,29.7813613 7.95090871,29.6394962 7.80089559,29.4570628 C7.76031473,29.4077012 7.71778775,29.3559099 7.66917597,29.2966579 C7.63034455,29.249327 7.5943223,29.2053971 7.51930652,29.113903 C7.4664744,29.049472 7.4664744,29.049472 7.41353,28.9849345 C7.30450109,28.8525952 7.20930748,28.7251567 7.12643681,28.6013042 C7.06346763,28.507195 7.01159447,28.4205127 6.97062436,28.3417472 C6.96190227,28.3248995 6.96083049,28.321772 6.96286605,28.3353069 L6.95641836,28.2972354 C6.95177629,28.2726015 6.95134378,28.2166967 6.96211445,28.1311836 C6.98056556,27.9857108 7.01026229,27.8278288 7.05137047,27.6596737 C7.09678689,27.4715892 7.14925388,27.283727 7.20978514,27.0927199 C7.27923965,26.8735553 7.34630758,26.655977 7.41107052,26.4398344 C7.47994902,26.2117534 7.53892716,25.9894133 7.58731238,25.7750959 C7.64585374,25.5148691 7.67612722,25.2719304 7.67527243,25.042031 C7.67431692,24.8104758 7.64110608,24.5677445 7.57920264,24.3092935 C7.5284185,24.0993395 7.46952537,23.8844455 7.40176884,23.6620735 C7.33676413,23.447999 7.26823573,23.2296043 7.19628382,23.0073853 C7.13325258,22.8135682 7.0782343,22.6233235 7.03046648,22.4350964 C6.98827933,22.2677095 6.9579927,22.1123258 6.93957373,21.9706143 C6.92940429,21.8917308 6.93003593,21.8379676 6.9353151,21.8104356 C6.94581196,21.7562102 6.99407317,21.6532607 7.09314013,21.5125249 C7.25708982,21.2802219 7.43677143,21.0445914 7.6311402,20.8074975 C7.84368849,20.5485558 8.05248557,20.2878271 8.25751835,20.0255705 C8.50751771,19.7053718 8.69494595,19.4023902 8.81867609,19.1044775 C8.94605977,18.7965896 9.02599798,18.4407477 9.06754148,18.0320627 C9.10105864,17.702337 9.130845,17.3682604 9.15686458,17.028788 C9.18042469,16.7234089 9.21565286,16.4354189 9.26250137,16.1647037 C9.29330588,15.9861892 9.33424324,15.8685692 9.37017898,15.812086 L8.5047173,15.2525373 L9.35189416,15.8398342 C9.38406435,15.7926765 9.47948488,15.7047621 9.6403803,15.5953608 C9.75691819,15.5161205 9.89032756,15.4354493 10.0409632,15.3535154 C10.2769083,15.2252119 10.4237431,15.1453099 10.5773539,15.0615882 C10.8429033,14.9174306 10.9739732,14.8463003 11.1037972,14.7759922 C11.3038625,14.667955 11.4891107,14.5561182 11.6578758,14.4413658 C11.7457127,14.3816409 11.8271868,14.3218854 11.9024415,14.2615526 C11.986631,14.1931425 12.0604882,14.1275373 12.1292868,14.0598054 C12.3050112,13.8805689 12.4532725,13.6829384 12.5912932,13.4541973 C12.7013125,13.2718626 12.8104373,13.0783178 12.9191445,12.8727712 C13.0270832,12.668418 13.1314263,12.466207 13.2335889,12.2629625 C13.3276397,12.0754736 13.4219699,11.8998805 13.5170317,11.7350575 C13.6013323,11.588591 13.6863171,11.4592238 13.7718838,11.3462244 C13.8210696,11.2809785 13.8587844,11.2437081 13.8826699,11.2274671 C13.9055917,11.2118814 13.951324,11.1918441 14.0231653,11.172506 C14.1612091,11.1351321 14.3161066,11.1033415 14.4896005,11.077112 C14.6749452,11.0494278 14.8685447,11.0274073 15.0682873,11.0115403 C15.2965321,10.9932175 15.522689,10.9720643 15.7489182,10.9480696 C15.9793966,10.9234997 16.198609,10.8939646 16.4080092,10.8592553 C16.669546,10.8161591 16.9069422,10.7516216 17.1207733,10.6616426 C17.2244064,10.6162047 17.3129391,10.5715191 17.402197,10.5213412 C17.4918621,10.4701873 17.5771199,10.4165584 17.6651547,10.3566989 C17.8339333,10.2419374 18.0050823,10.1114095 18.1788429,9.96498623 C18.3036859,9.85997164 18.4166023,9.76529971 18.6343029,9.58299483 C18.7118803,9.51835361 18.794343,9.44954141 18.8949604,9.36550651 C18.9285624,9.33744094 18.9285624,9.33744094 18.9621427,9.30938892 C19.0324394,9.25065993 19.0324394,9.25065993 19.1026886,9.19196864 C19.2342418,9.08206402 19.3608526,8.98589709 19.4823201,8.90330491 C19.5672303,8.84556999 19.6474316,8.79815202 19.7217172,8.76105186 C19.762622,8.74056166 19.7898846,8.73066227 19.8020027,8.72811891 C19.8585447,8.71674964 19.975695,8.72192547 20.1438169,8.75952755 C20.4082191,8.8182446 20.6862587,8.89425843 20.9828445,8.98866447 C21.3083081,9.09280939 21.6271213,9.19027906 21.9391239,9.28099675 C22.3292438,9.39487448 22.6863541,9.4534908 23.0155382,9.44996684 C23.3425599,9.44566082 23.6943076,9.38183961 24.0818817,9.26417774 C24.3955179,9.1692412 24.7119738,9.07032395 25.0308772,8.96740797 C25.3216141,8.87395616 25.6039194,8.79549651 25.8768696,8.73216146 C26.0452475,8.69341512 26.1619823,8.68725341 26.2223408,8.69894791 C26.245956,8.70363646 26.2963372,8.72345975 26.3667595,8.7633716 C26.485222,8.83117716 26.6124519,8.91608468 26.7435876,9.01600128 C26.8951657,9.13119046 27.0517262,9.2572467 27.2162999,9.39643072 C27.381885,9.53713857 27.5532846,9.67990618 27.7392341,9.83240507 C27.9240759,9.9831113 28.0990357,10.1181007 28.268178,10.2403645 C28.4830062,10.3956123 28.6938463,10.5178462 28.9063817,10.6054477 C29.2035076,10.7311874 29.5591088,10.8106964 29.9705454,10.8511915 C30.332794,10.8860193 30.648391,10.9147252 30.9558191,10.9403954 C31.2583875,10.9656597 31.548943,11.0018233 31.8255133,11.0485186 C32.0028894,11.0784709 32.117817,11.1185221 32.1703695,11.1526258 L32.1983733,11.170165 C32.1886267,11.1642768 32.1929508,11.1680875 32.208026,11.1858614 C32.2640267,11.2521379 32.3241085,11.3326121 32.3864044,11.4257151 C32.4684427,11.5483235 32.5500967,11.6852937 32.6312407,11.8368955 L32.6313698,11.8371368 C32.7761436,12.1070049 32.8402264,12.2266026 32.9200207,12.3760592 C33.0654753,12.6478818 33.125921,12.7609813 33.2019246,12.9037521 C33.3067488,13.1027237 33.4171862,13.2895488 33.5310924,13.4597848 C33.5908366,13.5490742 33.6509805,13.6320223 33.7119905,13.7088205 C33.7778203,13.7912508 33.8438683,13.8663954 33.912703,13.9369762 C34.1449517,14.176267 34.4425444,14.3905949 34.8027315,14.5865012 C35.1019444,14.7498301 35.3897138,14.9040572 35.6748219,15.0534753 L35.6748219,15.0534753 Z M34.7818492,8.65977194 C34.4416254,8.57127199 34.0965022,8.47806775 33.7343277,8.37726341 C33.4840068,8.30799775 33.3004781,8.23119948 33.1849984,8.15667979 C33.1516234,8.13525294 33.1185615,8.11151674 33.0830537,8.08338775 C33.0472262,8.05484867 33.004833,8.01791386 32.9584729,7.97433346 C32.8477766,7.87027421 32.7315502,7.74805627 32.6110325,7.60817119 C32.4866461,7.46502514 32.3905996,7.35486981 32.1608033,7.09159253 C32.0341945,6.94625846 31.9324952,6.82987165 31.7038417,6.5684602 C31.530185,6.36954313 31.3553678,6.18707909 31.1792758,6.02154523 C31.0290246,5.88030275 30.8798088,5.7539328 30.730861,5.64252219 C30.5263522,5.49014095 30.3124289,5.37470112 30.086218,5.30089739 L29.7696224,6.28700179 L30.1174179,5.31163676 C29.7411841,5.17530485 29.3141199,5.12952254 28.8343805,5.15902185 C28.4550974,5.18235388 28.0644121,5.22348029 27.664481,5.28204292 C27.3283009,5.33127036 26.9810944,5.37949083 26.5830757,5.43268719 C26.3223098,5.46693544 26.1219769,5.46867758 25.9925693,5.44622695 C25.9090638,5.43249066 25.8061347,5.40095926 25.6781253,5.34714952 C25.5011705,5.27273973 25.3121293,5.18617721 25.1096176,5.08676361 C24.879101,4.97276837 24.6648499,4.86477213 24.4560441,4.75692515 C24.204111,4.62754708 23.9650985,4.51203052 23.7336554,4.4081025 C23.4791889,4.29344484 23.2275604,4.19858016 22.9809177,4.12453482 C22.6769179,4.03464942 22.3873999,3.99196073 22.1066934,4.00124806 C21.6989594,4.0164575 21.2844037,4.13626791 20.8515222,4.34777759 C20.509074,4.5158682 20.1640826,4.70401598 19.8144801,4.91314864 C19.4986388,5.10258285 19.1855143,5.28649868 18.8736823,5.46589932 C18.6396005,5.6008218 18.449953,5.68277387 18.3122818,5.71673088 C18.1815103,5.74864051 17.9803889,5.76193585 17.71833,5.74740116 C17.3692978,5.72841151 17.011796,5.70402332 16.6432329,5.6740605 C16.2275731,5.64090504 15.8364867,5.62594028 15.4634388,5.62972502 C14.9848521,5.63385406 14.5584652,5.71344423 14.1866633,5.88276813 C13.9872909,5.97543371 13.803015,6.09519262 13.6256884,6.24215332 C13.4762622,6.36568527 13.3288696,6.50615206 13.1848606,6.66182932 C13.0207932,6.83919023 12.8590286,7.03350764 12.6989889,7.24490412 C12.6397138,7.32320386 12.6397138,7.32320386 12.5805211,7.4013929 C12.5571101,7.43231471 12.5571101,7.43231471 12.5337063,7.46322369 C12.4342552,7.59456222 12.3561916,7.6975641 12.2804489,7.79735181 C12.0836196,8.05796433 11.9821164,8.1925287 11.8688833,8.34314671 C11.7576353,8.4913924 11.6497197,8.62154283 11.5451025,8.73463663 C11.5004046,8.78295612 11.4599371,8.82369832 11.4236606,8.8572302 C11.393408,8.88480206 11.3613757,8.9115124 11.3332097,8.93257821 C11.2820987,8.96937991 11.1848224,9.0217232 11.0550369,9.0753381 C10.8714818,9.15136826 10.6761485,9.22543171 10.4673076,9.29807249 C10.2412592,9.37656308 10.0143631,9.45221171 9.7857209,9.52511952 C9.52248546,9.60881579 9.26695643,9.69971784 9.02032845,9.79729416 C8.75933083,9.90108733 8.52117144,10.010538 8.30299453,10.127647 C8.02453166,10.276591 7.78386643,10.4560553 7.58679454,10.6690949 C7.39062799,10.8811557 7.22986187,11.1348619 7.09940357,11.4270672 C6.99504185,11.659456 6.90161634,11.9111671 6.81945457,12.1800181 C6.74354588,12.427615 6.67239615,12.6873427 6.60612724,12.9588106 C6.548539,13.1938824 6.48812621,13.4296661 6.42449799,13.6684882 C6.36708704,13.88352 6.30732776,14.0854329 6.24524989,14.2745369 C6.20110708,14.4090063 6.15582251,14.511066 6.11417919,14.5792401 C6.10447897,14.5941596 6.07967737,14.6290625 6.05016591,14.6669814 C6.02414957,14.6999084 5.98656265,14.7435546 5.94213301,14.7915841 C5.83700513,14.9052299 5.71404326,15.0245828 5.57370661,15.1483318 C5.44631733,15.2609339 5.31868393,15.37395 5.06046702,15.6026592 C4.91121767,15.7352922 4.76964874,15.8609343 4.54184931,16.0629877 C4.3438523,16.238644 4.16523496,16.412266 4.00531536,16.585143 C3.68265499,16.9339467 3.44942114,17.2750989 3.31196901,17.6265722 L3.30034483,17.6577556 C3.16689565,18.0340048 3.11981537,18.461583 3.14577503,18.9398362 C3.1663548,19.3223743 3.20751926,19.7191711 3.26893174,20.1308079 C3.32342111,20.4947942 3.37253625,20.8532564 3.41665757,21.2078599 C3.44932315,21.4703935 3.45016687,21.6733553 3.4272423,21.8094162 C3.40333115,21.950161 3.33508683,22.1505484 3.21831404,22.4006492 C3.06581201,22.726726 2.90872173,23.0526576 2.74696452,23.3781962 C2.56857276,23.737769 2.40773296,24.0927288 2.26442691,24.4427022 C2.07986063,24.8950099 1.98745085,25.3224764 2.00137071,25.7325823 C2.01156134,26.0182355 2.07415981,26.3071355 2.18333261,26.6029838 C2.27144794,26.8410108 2.37947533,27.0842722 2.50763928,27.3350634 C2.63111323,27.5757086 2.76374348,27.8144184 2.90671344,28.0528535 C3.0347996,28.2670962 3.15890203,28.4790328 3.27865696,28.6879621 C3.38903978,28.8801153 3.4879935,29.0642669 3.57637492,29.2413814 C3.63742149,29.3644164 3.67589031,29.4662198 3.693266,29.5406752 C3.71144381,29.6187122 3.72283038,29.7309357 3.72338525,29.8748303 C3.72398572,30.069081 3.71688481,30.2771113 3.7018456,30.4977257 C3.68560579,30.7437166 3.66742532,30.9896498 3.64710154,31.2379567 C3.62434554,31.5159793 3.61146418,31.7889064 3.60830703,32.0572748 C3.60427405,32.3329363 3.61471244,32.599162 3.63980078,32.8519233 C3.67132137,33.1667212 3.73864534,33.4505691 3.85040669,33.7065441 L4.7914556,33.2890128 L3.8356286,33.6709105 C3.92427514,33.8963743 4.0544399,34.1058885 4.22012236,34.3009983 C4.34159594,34.4435162 4.47671462,34.5840692 4.62693221,34.72528 C4.80434853,34.8920588 4.9975127,35.0555671 5.20637614,35.215901 C5.27185212,35.2663847 5.27185212,35.2663847 5.33905645,35.318222 C5.40427333,35.3685314 5.40427333,35.3685314 5.46959383,35.4189187 C5.58695855,35.5094459 5.67053201,35.5738521 5.75387593,35.637971 C5.96816188,35.8027916 6.13568646,35.9312194 6.29534965,36.0529191 C6.44569729,36.1678085 6.57529148,36.2765516 6.68347607,36.3782496 C6.72698266,36.4191477 6.76629639,36.4592386 6.80155006,36.4982794 C6.83142534,36.5313303 6.85874275,36.564567 6.88473105,36.5992581 C6.96013167,36.7022264 7.051357,36.887203 7.14053487,37.1414578 C7.25479808,37.4656888 7.37431878,37.811634 7.50641939,38.1997411 C7.6389973,38.5892976 7.77819614,38.957266 7.92424481,39.3036205 C8.1141275,39.7524278 8.34858378,40.1174471 8.64369855,40.3948674 C8.85441811,40.5929526 9.10601169,40.7547784 9.39408226,40.8845282 C9.62880926,40.9890183 9.87501837,41.0810563 10.1357491,41.1620266 C10.3887373,41.2404593 10.6464737,41.3115573 10.910607,41.3753763 C11.1429328,41.4317158 11.3748434,41.4904881 11.6084,41.5520419 C11.8144852,41.6063556 12.0067227,41.6641573 12.1846325,41.7250828 C12.3159893,41.7700508 12.417695,41.8165453 12.4902384,41.861283 L13.0267927,40.9771436 L12.4649203,41.8451538 C12.5020582,41.8695832 12.5372995,41.8950576 12.5716489,41.922415 C12.6128498,41.9552466 12.6553198,41.9920339 12.6988423,42.0329468 C12.8070395,42.1346568 12.9236394,42.2573492 13.0481675,42.4009952 C13.1810143,42.554473 13.3223822,42.7169333 13.4964286,42.9162961 C13.5741664,43.0053602 13.6461684,43.0876831 13.7699589,43.2290984 C13.8483841,43.3186854 13.8857509,43.3613749 13.9265945,43.4080581 C13.940127,43.423526 13.940127,43.423526 13.9536518,43.4389877 C14.1253568,43.6361321 14.3003026,43.8186551 14.4776828,43.9853998 C14.6283493,44.1270327 14.7771078,44.2533239 14.9248784,44.3641523 C15.1302872,44.517796 15.3461417,44.6338115 15.5751119,44.7075605 L15.8880374,43.7202664 L15.5294086,44.6916366 C15.9148729,44.8362562 16.3498807,44.8841989 16.833946,44.8509573 C17.2063982,44.826309 17.5962807,44.7828465 18.0015636,44.7211453 C18.374453,44.6643757 18.7305966,44.6135858 19.0718752,44.568592 C19.3299229,44.534038 19.527307,44.532395 19.6598757,44.5550177 C19.7380152,44.5699476 19.8560238,44.6060596 19.9951769,44.6623483 C20.1686376,44.732466 20.3549208,44.8167476 20.5546271,44.915582 C20.7683587,45.0221003 20.9845073,45.1327034 21.2011775,45.2465162 C21.447253,45.3761783 21.6925453,45.494147 21.9376519,45.600714 C22.1949674,45.7125054 22.4435384,45.8042246 22.6854373,45.876155 C22.9872959,45.9655702 23.2777613,46.0085111 23.5592533,45.998601 C23.8396772,45.9890273 24.1268114,45.9259915 24.4213206,45.8159003 C24.6646591,45.7242145 24.9090352,45.6117877 25.1580197,45.4776493 C25.3857833,45.354568 25.6140415,45.2244054 25.8440083,45.0863371 C26.0824381,44.9427646 26.2847964,44.8227346 26.4745934,44.712671 C26.6799758,44.5933863 26.8630123,44.4927506 27.0306368,44.4072849 C27.1563728,44.3426159 27.2577619,44.3031797 27.3332292,44.2849143 C27.4056388,44.2679596 27.5171323,44.2565493 27.6584776,44.256323 C27.8538153,44.2557289 28.0629867,44.2619113 28.2858625,44.2748854 C28.5106174,44.288231 28.74835,44.3063821 29.0011689,44.3293672 C29.2790962,44.3544709 29.551254,44.3699112 29.8186077,44.3758438 C30.0999651,44.3823005 30.3673892,44.3728341 30.6211474,44.3470394 C30.942633,44.3140752 31.2331113,44.2391746 31.4922413,44.1136131 L31.0468171,43.1794606 L31.4290362,44.1416456 C31.6505917,44.0522082 31.8566367,43.9224753 32.0494088,43.7570472 C32.1933415,43.632073 32.3324865,43.4960391 32.4720979,43.3451157 C32.630862,43.1734879 32.7896604,42.9826428 32.9503589,42.7713011 C33.088369,42.588574 33.2271985,42.4055647 33.3690099,42.2193911 C33.4186646,42.1532838 33.7039118,41.775551 33.7864742,41.6650928 C33.9010944,41.5134524 34.0104367,41.3812246 34.1114995,41.2719732 C34.1531301,41.2269694 34.1924317,41.1877459 34.2283874,41.1549413 C34.2638033,41.122464 34.2940217,41.0972914 34.3203064,41.0778295 L33.711659,40.2424834 L34.2979955,41.093892 C34.415771,41.0114692 34.6043706,40.9197744 34.8598499,40.8283666 C35.1818024,40.713629 35.5226052,40.5971705 35.8804921,40.4795049 C36.2737733,40.3497942 36.6415944,40.2116401 36.9881925,40.0628842 C37.432573,39.8727988 37.7984119,39.6334228 38.0775403,39.3316781 C38.3531895,39.0336946 38.5611819,38.6526836 38.7187932,38.1914942 C38.8421303,37.8320024 38.9535605,37.4515153 39.0535819,37.0495453 C39.1481327,36.6685582 39.2378572,36.3211934 39.325572,35.9976984 C39.3955141,35.7400432 39.4723894,35.5468146 39.5482038,35.4201208 C39.5544908,35.410403 39.576685,35.3790952 39.6044908,35.3436357 C39.6365913,35.3024648 39.6725696,35.26032 39.714469,35.2150257 C39.8150556,35.106289 39.9366103,34.9888315 40.0806728,34.8615494 C40.1864512,34.7691886 40.5631445,34.4363601 40.5874457,34.4149881 C40.7592335,34.2615881 40.929609,34.1101311 41.108082,33.9521319 C41.308534,33.7735474 41.4887448,33.5978993 41.6516432,33.4218021 C41.7908576,33.271308 41.915826,33.1218397 42.0261835,32.9730008 C42.1803867,32.7620002 42.2945813,32.5453938 42.367379,32.3164753 L41.3882923,32.0000723 L42.3517348,32.3620013 C42.4518149,32.0912736 42.5035765,31.7955591 42.5130513,31.4764185 C42.5212867,31.2257057 42.5119643,30.9580478 42.4861345,30.6748746 C42.461677,30.4123828 42.4292596,30.1467161 42.3885993,29.8758673 C42.3513008,29.6303539 42.3160909,29.3862282 42.2824818,29.1407729 C42.251713,28.9178833 42.2303166,28.7116938 42.2179483,28.5205862 C42.2080014,28.3737685 42.2113697,28.2617241 42.2240473,28.1823264 C42.2458485,28.0561176 42.3137443,27.8627502 42.4308909,27.6232276 C42.6062711,27.2645174 42.7635711,26.9462197 42.919245,26.6358503 C43.1062692,26.2578901 43.2673657,25.8998107 43.4063333,25.5517724 C43.5860317,25.1036092 43.6760173,24.676369 43.6624415,24.2680633 C43.6522611,23.9826739 43.5896661,23.6943103 43.4810152,23.3984599 C43.3887624,23.150418 43.277325,22.9038379 43.1451162,22.654653 C43.0253685,22.4275334 42.8926658,22.1946121 42.7466482,21.9548154 C42.6174843,21.7429682 42.4934982,21.5341222 42.3739741,21.3270802 C42.2626698,21.1343165 42.166329,20.9530823 42.084741,20.7833279 C42.0188862,20.6463924 41.9749042,20.5304021 41.9504494,20.4358788 L40.955563,20.6974455 L41.9571826,20.463445 C41.9396323,20.3871047 41.92954,20.2800397 41.9310003,20.1443453 C41.9319511,19.9358454 41.939,19.7253551 41.9525567,19.506272 C41.9655177,19.2802267 41.9831758,19.0426997 42.0062368,18.7788304 C42.0310667,18.4952541 42.0465889,18.2245753 42.0525389,17.9648136 C42.0590109,17.6843128 42.0497376,17.4165941 42.0242356,17.1616328 C41.9923783,16.843476 41.9207861,16.5525646 41.8023535,16.2896774 L41.7933833,16.2702996 C41.6317676,15.9303653 41.3752292,15.6061701 41.0300264,15.281665 C40.8539687,15.1161634 40.6615563,14.9534079 40.4518934,14.7921432 C40.3866223,14.7418277 40.3866223,14.7418277 40.3203955,14.6907822 C40.1471063,14.5572264 40.0246855,14.4630082 39.9023374,14.3691083 C39.6439959,14.1703579 39.5128924,14.0696096 39.3637614,13.955364 C39.2135334,13.841392 39.0845443,13.7330982 38.9738391,13.6290306 C38.9274583,13.5854307 38.8878923,13.5453182 38.8550769,13.5089964 C38.8271166,13.4778281 38.8009489,13.4457798 38.7781344,13.414764 C38.7398749,13.360908 38.6859609,13.2599158 38.6302906,13.1252579 C38.5525191,12.937725 38.4785502,12.7415132 38.4086225,12.5365794 C38.3336144,12.3177282 38.2589095,12.0895166 38.1832461,11.8483824 C38.0995934,11.5810146 38.0096273,11.3237408 37.9130932,11.0760797 C37.8105598,10.8144358 37.7014462,10.5739069 37.5846662,10.3530173 C37.4378287,10.073257 37.2601758,9.83041068 37.0484281,9.63135899 L37.0282409,9.61238209 L37.0070726,9.59452441 C36.7126523,9.34614934 36.3448196,9.1517005 35.9046662,8.99870173 C35.5453069,8.87401694 35.1712352,8.76106011 34.7818492,8.65977194 L34.7818492,8.65977194 Z M34.268063,10.6669546 C34.6056658,10.7547728 34.9278988,10.8520761 35.2348858,10.9585894 C35.4539333,11.0347312 35.6044886,11.1143199 35.6873689,11.1842383 L36.3472208,10.3893814 L35.6460134,11.1474037 C35.6800465,11.1793963 35.7222858,11.2371362 35.7685274,11.3252342 C35.8487805,11.4770431 35.9256908,11.6465832 35.999899,11.8359438 C36.0782041,12.0368424 36.1524842,12.2492596 36.2224027,12.4727294 C36.3036124,12.7315406 36.3839496,12.976958 36.4645708,13.2121834 C36.5483592,13.4577409 36.6380796,13.6957356 36.7326387,13.9237471 C36.8447006,14.194809 36.9717566,14.4328114 37.1173636,14.6370304 C37.1897473,14.7356261 37.2582575,14.8195323 37.3324319,14.9021936 C37.4067507,14.9844625 37.485546,15.0643461 37.5714244,15.1450754 C37.7367594,15.3004973 37.9210895,15.4552531 38.1234583,15.6087626 C38.2672416,15.7189261 38.3975461,15.8190604 38.6557527,16.0177061 C38.7777174,16.1113126 38.8991696,16.2047855 39.0714489,16.3375628 C39.1375329,16.3884983 39.1375329,16.3884983 39.2036699,16.4394805 C39.3619197,16.561201 39.502646,16.6802369 39.6276116,16.7977098 C39.7999659,16.9597301 39.9024038,17.0891838 39.939025,17.1662111 L40.8662042,16.7182554 L39.9300549,17.1468333 C39.9495076,17.1900128 39.9676978,17.2639279 39.9782892,17.3697036 C39.9949977,17.5367496 40.0013179,17.719214 39.9967593,17.9167866 C39.9918698,18.1302481 39.9789063,18.3563086 39.9578543,18.5967382 C39.9330654,18.8803788 39.9138891,19.1383276 39.89993,19.3819856 C39.8842054,19.6359265 39.8758196,19.8863387 39.8747396,20.1284415 C39.8716428,20.4142876 39.897074,20.6840762 39.9539433,20.931446 L39.9606765,20.9590121 C40.0213926,21.1936932 40.112865,21.434926 40.234282,21.6873951 C40.3393548,21.9060126 40.4601679,22.1332835 40.5967385,22.369805 C40.7245868,22.5912663 40.8570392,22.8143733 40.994455,23.0397545 C41.1185389,23.2435309 41.2301442,23.4394218 41.3305932,23.6299325 C41.4220325,23.8022831 41.4958473,23.9656148 41.5540923,24.1222028 C41.5894253,24.2184388 41.6056852,24.293345 41.6073515,24.3400416 C41.6103097,24.4291077 41.5790906,24.5773321 41.4992924,24.7763482 C41.3810978,25.0723585 41.2425235,25.3803765 41.0816288,25.705561 C40.9250243,26.0177515 40.7646891,26.3421907 40.586479,26.7066889 C40.3885719,27.1113376 40.2568289,27.4865422 40.1959177,27.8404246 C40.15444,28.0997066 40.146408,28.3668819 40.1661899,28.6587207 C40.1817306,28.8989225 40.2083193,29.1551488 40.2456205,29.4253534 C40.2804437,29.6796804 40.3171132,29.9339258 40.3556931,30.1878623 C40.3903264,30.4185746 40.4180127,30.6454698 40.4386285,30.8667116 C40.4567644,31.0655584 40.4631079,31.2476878 40.4577424,31.4111328 C40.4545427,31.5187346 40.4415484,31.5929715 40.4248497,31.6381432 L40.4165027,31.6607229 L40.4092056,31.6836693 C40.408168,31.6869321 40.3983184,31.7056149 40.374801,31.737801 C40.3151524,31.8182064 40.2379376,31.910559 40.1477375,32.0080675 C40.0317065,32.1334999 39.8988391,32.2630033 39.7487459,32.3967278 C39.5705097,32.5545105 39.3978747,32.7079761 39.2296709,32.8582157 C39.2073723,32.877786 38.8346311,33.2071225 38.7297413,33.2987298 C38.5319234,33.4734832 38.3611728,33.6384785 38.2105633,33.8012911 C38.1302112,33.8881536 38.0565727,33.9744135 37.9894865,34.0604702 C37.9199057,34.1491966 37.855373,34.2402285 37.7976803,34.3326242 C37.604222,34.6555512 37.4586391,35.0214789 37.342083,35.4508523 C37.2501227,35.7900048 37.1567052,36.1516671 37.0588852,36.5458281 C36.9732028,36.890171 36.878662,37.2129879 36.7750051,37.5151195 C36.7040254,37.7228123 36.6318708,37.8549887 36.5736346,37.9179435 C36.5102373,37.9864775 36.3821341,38.0702981 36.1838121,38.1551314 C35.8923148,38.2802379 35.5797478,38.3976385 35.241972,38.509043 C34.8694363,38.6315244 34.5127519,38.7534099 34.1732458,38.8744042 C33.7570318,39.0233202 33.409094,39.1924835 33.1253225,39.3910749 L33.1030115,39.4071373 C33.0160278,39.4715424 32.9308912,39.5424629 32.8465322,39.6198336 C32.768207,39.6912899 32.6877581,39.771579 32.6075938,39.8582386 C32.4569926,40.0210421 32.304582,40.2053525 32.1474601,40.4132552 C32.0653359,40.5231028 31.781848,40.8985058 31.7336328,40.9627382 C31.5945353,41.1453067 31.4539934,41.3305731 31.3162794,41.5129173 C31.1962556,41.6707568 31.0796646,41.8108767 30.9681922,41.9313811 C30.8777667,42.0291334 30.7920514,42.1129322 30.711863,42.1825716 C30.6861191,42.2046402 30.6686472,42.2156411 30.6645981,42.2172756 L30.6325284,42.2302215 L30.601393,42.2453082 C30.5740811,42.2585421 30.5116395,42.2746429 30.4139483,42.28466 C30.2478905,42.3015394 30.064691,42.3080244 29.8646334,42.3034336 C29.6430398,42.2985161 29.4169818,42.2856912 29.1852783,42.2647628 C28.9125703,42.2399694 28.6537004,42.2202044 28.4055904,42.2054728 C28.1412529,42.1900844 27.890655,42.1826775 27.6537365,42.1833994 C27.366375,42.1838585 27.1017622,42.210939 26.8602263,42.2675829 C26.609283,42.3282924 26.358439,42.4258606 26.0992741,42.5591704 C25.8989841,42.6612837 25.6838479,42.7795682 25.4486325,42.91618 C25.248554,43.0322056 25.0368727,43.1577656 24.7906372,43.3060394 C24.5882633,43.4275404 24.3869011,43.5423657 24.1876336,43.6500488 C24.018093,43.7413865 23.8565593,43.8157011 23.7038594,43.8732382 C23.6075941,43.9092196 23.5341642,43.92534 23.4885648,43.9268968 C23.4417036,43.928546 23.3671822,43.9175292 23.2661937,43.887615 C23.107094,43.840305 22.9355634,43.7770126 22.7517689,43.6971626 C22.5542498,43.6112856 22.3550182,43.5154689 22.1525768,43.4087992 C21.9218131,43.2875825 21.6926837,43.1703371 21.4633812,43.0560634 C21.2166611,42.9339575 20.9837508,42.82858 20.7607391,42.7384325 C20.5031173,42.6342221 20.2576552,42.5591078 20.0209254,42.5143722 C19.6471135,42.4504184 19.2490189,42.4537321 18.8031498,42.5134402 C18.4500384,42.5599919 18.0804699,42.6126963 17.6944918,42.6714585 C17.3448358,42.7246909 17.0122512,42.7617661 16.6967064,42.782651 C16.481554,42.7974228 16.3321069,42.7809521 16.2466662,42.7488962 L16.2240004,42.7403923 L16.200963,42.7329722 C16.1988918,42.7323051 16.1820271,42.7232408 16.1512656,42.7002317 C16.0684251,42.6381 15.9773902,42.5608143 15.8800975,42.4693551 C15.7538936,42.3507181 15.6264164,42.2177197 15.4974622,42.0696625 C15.4824139,42.0524556 15.4824139,42.0524556 15.4688012,42.0368961 C15.4277752,41.9900044 15.3902338,41.9471153 15.3118119,41.8575321 C15.188636,41.716819 15.1171493,41.6350852 15.0401691,41.5468891 C14.8678148,41.3494647 14.7282497,41.1890761 14.5970678,41.0375222 C14.4280822,40.8425929 14.2635554,40.6694693 14.101257,40.5169021 C14.0169047,40.4376073 13.9319996,40.3640629 13.8466402,40.296043 C13.7626731,40.2291678 13.6770285,40.1672591 13.5886651,40.1091334 L13.563347,40.0930042 C13.3530087,39.963288 13.1141201,39.8540805 12.8459627,39.7622811 C12.6204014,39.6850373 12.3811162,39.6130893 12.1285246,39.5465188 C11.8821952,39.4815988 11.6372483,39.4195228 11.3907268,39.3597411 C11.1680449,39.3059371 10.952048,39.2463531 10.7406866,39.1808259 C10.5556694,39.1233684 10.3846073,39.0594219 10.2288076,38.990074 C10.1422838,38.9510919 10.08119,38.9117962 10.0461133,38.8788226 C9.9827423,38.8192512 9.90105648,38.6920765 9.81621255,38.49154 C9.69034175,38.1930355 9.56854967,37.8710813 9.45145402,37.5270167 C9.31708081,37.1322328 9.19517499,36.779384 9.07873567,36.4489817 C8.927034,36.0164619 8.74766167,35.6527506 8.53214969,35.3587173 C8.46203924,35.2650343 8.39440396,35.1827434 8.32185436,35.1024826 C8.24907622,35.0218862 8.1703068,34.9415594 8.08589083,34.8622049 C7.9236709,34.7097113 7.74096764,34.5564041 7.53656298,34.4002079 C7.3786781,34.2798627 7.21334857,34.1531177 7.00132296,33.9900357 C6.91888604,33.9266146 6.83591534,33.8626729 6.719176,33.7726281 C6.65397388,33.7223321 6.65397388,33.7223321 6.58868641,33.6719683 C6.52131029,33.6199985 6.52131029,33.6199985 6.45382362,33.5679674 C6.29655234,33.4472355 6.1556508,33.3279662 6.02934697,33.2092353 C5.93240906,33.1181096 5.84966858,33.0320414 5.78102826,32.9515112 C5.75753592,32.9238436 5.74752326,32.9077272 5.74728261,32.9071151 L5.73250452,32.8714815 C5.71484878,32.8310433 5.69692243,32.7554631 5.68582571,32.6446408 C5.66885489,32.4736584 5.66150993,32.286329 5.66445474,32.0848338 C5.66707463,31.862495 5.67766,31.6382147 5.69646897,31.4084151 C5.71768785,31.1491724 5.73667728,30.8922961 5.75348935,30.6375989 C5.77167541,30.370858 5.78046427,30.113377 5.77970405,29.86757 C5.77857631,29.5750352 5.75159868,29.3091497 5.69504914,29.0663846 C5.63806511,28.822206 5.54370299,28.5724872 5.41442193,28.311943 C5.30657213,28.0958083 5.18842597,27.8759399 5.05864316,27.6500165 C4.93302785,27.430862 4.80249778,27.2079485 4.66722284,26.9816833 C4.54707353,26.7813052 4.43667353,26.5826057 4.33488222,26.3842216 C4.24342032,26.2052459 4.16843857,26.0363983 4.11025947,25.8792394 C4.0741544,25.7813963 4.05813408,25.7074605 4.05643651,25.6598835 C4.05356981,25.5753785 4.08492292,25.4303462 4.1656708,25.2324603 C4.28936121,24.9303931 4.42962157,24.6208504 4.58582547,24.3059998 C4.75466544,23.9662075 4.91888686,23.6254802 5.07857824,23.2840308 C5.26881464,22.876588 5.39531895,22.5051304 5.45430351,22.1579239 C5.51461415,21.7999767 5.51294947,21.3995264 5.45700206,20.9498765 C5.41074991,20.5781475 5.35928975,20.2025704 5.30231758,19.822 C5.25043986,19.4742721 5.21604204,19.1427011 5.19906216,18.8270797 C5.18699997,18.6048565 5.20444843,18.4463915 5.23663119,18.3556547 L4.26848801,18.0067051 L5.22500701,18.3868381 C5.25575313,18.3082185 5.34833294,18.1728016 5.50922106,17.9988776 C5.62112734,17.8779041 5.75133642,17.7513366 5.90029319,17.6191872 C6.12846733,17.4168014 6.27043738,17.2908033 6.41891273,17.1588559 C6.6759702,16.9311758 6.80282272,16.8188511 6.92850692,16.7077552 C7.11890383,16.539864 7.29190984,16.3719358 7.44603871,16.2053187 C7.52561291,16.1192971 7.59816251,16.0350519 7.66368065,15.952034 C7.73621222,15.8588779 7.79868597,15.7709593 7.85510176,15.6822981 C7.99653303,15.4510966 8.10602507,15.2043298 8.19746402,14.9257851 C8.27203811,14.6986147 8.34288206,14.4592492 8.41030924,14.2067012 C8.4775957,13.9541488 8.54147434,13.7048383 8.60268562,13.4549759 C8.65975264,13.2212046 8.72024865,13.0003677 8.78437182,12.7912113 C8.84206303,12.6024346 8.90524102,12.4322177 8.97364663,12.2798907 C9.01722582,12.1822865 9.05751962,12.1186985 9.09070025,12.0828295 C9.12309508,12.0478099 9.18078708,12.0047889 9.26813219,11.9580694 C9.41580535,11.8788054 9.58358942,11.801697 9.77327466,11.726262 C9.97419569,11.646771 10.1854602,11.5716156 10.405079,11.501787 C10.6513575,11.4232558 10.8947444,11.3421091 11.1375114,11.2578131 C11.3833984,11.1722868 11.6156278,11.0842337 11.8356754,10.9930874 C12.1044606,10.8820517 12.3410701,10.7547348 12.5451834,10.6071152 C12.6426499,10.5343834 12.7257338,10.4651034 12.808464,10.3896233 C12.8911432,10.3132293 12.9692441,10.2345982 13.0490082,10.1483712 C13.2031168,9.98177611 13.3561478,9.79721468 13.5082885,9.59447566 C13.6197891,9.44616285 13.7206233,9.31248543 13.9150586,9.05503777 C13.9898537,8.95650345 14.0683652,8.85291058 14.1682588,8.72098757 C14.1917217,8.69000058 14.1917217,8.69000058 14.2151742,8.65902387 C14.274433,8.58074754 14.274433,8.58074754 14.3336625,8.50250811 C14.4538524,8.34374929 14.5722904,8.20147723 14.6887663,8.07556393 C14.7720255,7.9855587 14.8530676,7.90832474 14.9306188,7.84421195 C14.979173,7.80397327 15.0166088,7.77964417 15.0405943,7.76849181 C15.1202167,7.73226558 15.2694829,7.70440327 15.4825876,7.70256418 C15.7935833,7.69941016 16.1240295,7.71205455 16.4794849,7.74040674 C16.864393,7.77169954 17.2400412,7.79732565 17.6064377,7.81725943 C18.0538955,7.84207753 18.4501802,7.81588074 18.798555,7.73086503 C19.1446309,7.64550762 19.5056085,7.48951895 19.8936558,7.26585156 C20.2154978,7.08069245 20.5393512,6.89047492 20.8648969,6.69521944 C21.1657666,6.51523956 21.4611078,6.35416954 21.7500847,6.21232367 C21.9424911,6.1183141 22.0878967,6.07629054 22.178463,6.07291017 C22.2218981,6.07148224 22.2969194,6.08254395 22.3981067,6.11245944 C22.5525716,6.1588412 22.7202253,6.22204718 22.8957352,6.30112787 C23.0944414,6.39035649 23.3014328,6.49039707 23.520511,6.60290002 C23.7385616,6.71552508 23.9633289,6.82882211 24.2066564,6.94914754 C24.4463223,7.06680502 24.6713508,7.16984625 24.8865873,7.26035351 C25.1538682,7.37270716 25.4076255,7.45044344 25.6531233,7.49069639 C25.9993019,7.55079851 26.3989291,7.54732326 26.8510527,7.48793806 C27.2592184,7.43338817 27.614584,7.38403455 27.9600799,7.33344298 C28.3044446,7.28301705 28.6383754,7.24786503 28.959606,7.22810417 C29.1804561,7.21452403 29.3357337,7.23117017 29.4218268,7.26236681 L29.4530267,7.27310619 C29.4557213,7.27398534 29.4745153,7.28412715 29.5070667,7.30838114 C29.590205,7.37056943 29.6808569,7.447342 29.7768611,7.53758998 C29.9019249,7.65515525 30.0299167,7.7887457 30.160818,7.93868748 C30.3892094,8.19980006 30.4903027,8.31549334 30.6163476,8.46017946 C30.8457884,8.72305007 30.9412203,8.8325005 31.0613932,8.97078374 C31.2248571,9.16053093 31.390802,9.33503046 31.5560582,9.49037821 C31.6420019,9.57116896 31.7266071,9.6448806 31.8103708,9.71159383 C31.9001772,9.78274225 31.9884603,9.84612336 32.0784358,9.90387847 C32.3830372,10.100443 32.7535162,10.2554713 33.1885355,10.3758422 C33.5598925,10.4792036 33.9160794,10.5753957 34.268063,10.6669546 L34.268063,10.6669546 Z" id="Combined-Shape" fill="#CC3E1F"></path>
            <path d="M52.9634244,33.8378729 L52.9634244,39.6516905 L48.9283723,39.6516905 L48.9283723,22.2579896 L55.0645166,22.2579896 C56.2901599,22.2579896 57.3426852,22.4032341 58.222124,22.6937275 C59.1015628,22.9842208 59.8257957,23.3841406 60.3948444,23.8934989 C60.963893,24.4028571 61.3837093,25.0037316 61.6543059,25.6961405 C61.9249024,26.3885494 62.0601987,27.136658 62.0601987,27.940489 C62.0601987,28.8079898 61.9209231,29.6038501 61.6423679,30.3280938 C61.3638126,31.0523376 60.9380273,31.6731086 60.3649993,32.1904255 C59.7919713,32.7077425 59.0657487,33.1116416 58.1863099,33.402135 C57.3068711,33.6926284 56.2662837,33.8378729 55.0645166,33.8378729 L52.9634244,33.8378729 Z M52.9634244,30.7936767 L55.0645166,30.7936767 C56.115068,30.7936767 56.8711353,30.5429807 57.3327412,30.0415812 C57.7943471,29.5401817 58.0251466,28.8398246 58.0251466,27.940489 C58.0251466,27.5425529 57.9654571,27.1804364 57.8460762,26.8541288 C57.7266954,26.5278212 57.5456372,26.2472804 57.3028961,26.0124981 C57.0601551,25.7777158 56.7537489,25.5966576 56.3836683,25.469318 C56.0135877,25.3419785 55.5738749,25.2783097 55.0645166,25.2783097 L52.9634244,25.2783097 L52.9634244,30.7936767 Z M71.6344939,39.6516905 C71.2843102,39.6516905 71.0196866,39.6039389 70.8406153,39.5084343 C70.6615441,39.4129296 70.5123203,39.2139645 70.3929394,38.9115331 L70.1303029,38.2310657 C69.8199127,38.4937035 69.5214651,38.724503 69.2349511,38.9234711 C68.9484371,39.1224391 68.6519791,39.2915595 68.3455683,39.4308371 C68.0391575,39.5701147 67.7128548,39.6735766 67.3666504,39.7412257 C67.0204459,39.8088749 66.6364433,39.8426989 66.2146311,39.8426989 C65.6495618,39.8426989 65.1362319,39.7690818 64.674626,39.6218455 C64.2130201,39.4746091 63.8210589,39.2577372 63.4987306,38.9712232 C63.1764023,38.6847092 62.927696,38.3285617 62.7526041,37.90277 C62.5775122,37.4769784 62.4899676,36.9855346 62.4899676,36.4284241 C62.4899676,35.9906943 62.601388,35.5410333 62.8242322,35.0794274 C63.0470765,34.6178215 63.4330687,34.1980051 63.9822206,33.8199658 C64.5313724,33.4419265 65.2715225,33.125572 66.202693,32.8708929 C67.1338636,32.6162138 68.3077575,32.4729589 69.7244101,32.4411241 L69.7244101,31.915851 C69.7244101,31.1916073 69.5751863,30.6683291 69.2767342,30.3460008 C68.9782821,30.0236726 68.5544865,29.8625109 68.0053346,29.8625109 C67.5676049,29.8625109 67.2094678,29.9102625 66.9309125,30.0057672 C66.6523572,30.1012718 66.4036509,30.208713 66.184786,30.3280938 C65.9659211,30.4474746 65.7530285,30.5549158 65.5461017,30.6504205 C65.3391749,30.7459251 65.0924582,30.7936767 64.8059442,30.7936767 C64.5512651,30.7936767 64.3363828,30.7300079 64.1612909,30.6026684 C63.986199,30.4753288 63.8429442,30.3241153 63.7315221,30.1490234 L63.0629927,28.9910351 C63.8111126,28.3304612 64.640797,27.8390174 65.5520707,27.5166892 C66.4633444,27.1943609 67.440263,27.0331992 68.4828556,27.0331992 C69.2309755,27.0331992 69.9054671,27.1545679 70.5063507,27.3973089 C71.1072342,27.64005 71.6165848,27.9782906 72.0344177,28.412041 C72.4522507,28.8457913 72.7725844,29.3611109 72.9954287,29.9580151 C73.2182729,30.5549192 73.3296933,31.2075247 73.3296933,31.915851 L73.3296933,39.6516905 L71.6344939,39.6516905 Z M67.3845574,37.395404 C67.8620807,37.395404 68.2799074,37.3118387 68.6380499,37.1447055 C68.9961924,36.9775723 69.3583089,36.7069798 69.7244101,36.3329199 L69.7244101,34.6138444 C68.9842489,34.6456793 68.3754158,34.7093481 67.8978924,34.8048528 C67.4203691,34.9003575 67.0423354,35.0197365 66.7637802,35.1629935 C66.4852249,35.3062505 66.2922287,35.4694019 66.184786,35.6524525 C66.0773432,35.8355031 66.0236227,36.0344682 66.0236227,36.2493537 C66.0236227,36.671166 66.1390224,36.967624 66.3698254,37.1387365 C66.6006283,37.309849 66.9388689,37.395404 67.3845574,37.395404 L67.3845574,37.395404 Z M83.5605799,29.9818911 C83.4650752,30.1331068 83.3636031,30.240548 83.2561603,30.3042178 C83.1487175,30.3678875 83.0114316,30.399722 82.8442985,30.399722 C82.6692066,30.399722 82.4941173,30.3619186 82.3190254,30.2863107 C82.1439335,30.2107029 81.9549167,30.1291272 81.7519693,30.0415812 C81.5490219,29.9540353 81.320212,29.8724596 81.0655329,29.7968517 C80.8108538,29.7212439 80.5203648,29.6834405 80.1940571,29.6834405 C79.7244925,29.6834405 79.3643657,29.7729748 79.113666,29.9520461 C78.8629662,30.1311173 78.7376182,30.3798237 78.7376182,30.6981726 C78.7376182,30.9289755 78.8191939,31.119982 78.9823477,31.2711977 C79.1455015,31.4224134 79.3623735,31.55572 79.63297,31.6711215 C79.9035666,31.786523 80.2099728,31.8959538 80.5521979,31.9994172 C80.8944229,32.1028806 81.2446015,32.2182803 81.602744,32.3456199 C81.9608865,32.4729594 82.311065,32.6221832 82.6532901,32.7932958 C82.9955152,32.9644083 83.3019214,33.1753113 83.5725179,33.426011 C83.8431145,33.6767108 84.0599864,33.9811274 84.2231402,34.3392699 C84.3862941,34.6974124 84.4678697,35.1271769 84.4678697,35.6285765 C84.4678697,36.2413981 84.3564493,36.8064589 84.1336051,37.3237759 C83.9107608,37.8410928 83.5784892,38.2867746 83.1367801,38.6608346 C82.695071,39.0348945 82.1499067,39.3253835 81.5012708,39.5323103 C80.8526349,39.7392371 80.1065159,39.8426989 79.2628913,39.8426989 C78.841079,39.8426989 78.419273,39.8029059 77.9974607,39.7233187 C77.5756484,39.6437315 77.16777,39.5362903 76.7738133,39.400992 C76.3798565,39.2656938 76.0157504,39.104532 75.6814841,38.9175021 C75.3472177,38.7304721 75.060708,38.5295174 74.8219463,38.3146319 L75.6814841,36.9536971 C75.7769887,36.7945227 75.8983574,36.6691747 76.0455938,36.5776494 C76.1928302,36.4861241 76.381847,36.4403621 76.6126499,36.4403621 C76.8275355,36.4403621 77.0205316,36.4881137 77.1916441,36.5836184 C77.3627566,36.679123 77.5477942,36.7825849 77.7467622,36.894007 C77.9457303,37.0054291 78.1785194,37.108891 78.4451366,37.2043956 C78.7117538,37.2999003 79.0480048,37.3476519 79.4538997,37.3476519 C79.7404137,37.3476519 79.9831511,37.3178072 80.1821191,37.2581167 C80.3810872,37.1984263 80.5402592,37.1168506 80.6596401,37.0133872 C80.7790209,36.9099239 80.8665656,36.7945241 80.9222766,36.6671845 C80.9779877,36.539845 81.0058428,36.408528 81.0058428,36.2732298 C81.0058428,36.0265094 80.9222774,35.823565 80.7551443,35.6643905 C80.5880111,35.5052161 80.3691495,35.3679302 80.098553,35.2525287 C79.8279564,35.1371272 79.5195605,35.0296861 79.1733561,34.9302021 C78.8271517,34.830718 78.4749835,34.7173079 78.116841,34.5899684 C77.7586985,34.4626288 77.4065303,34.3094257 77.0603258,34.1303544 C76.7141214,33.9512832 76.4057256,33.724463 76.135129,33.4498871 C75.8645324,33.1753112 75.6456708,32.8390602 75.4785377,32.4411241 C75.3114045,32.0431879 75.2278392,31.5616924 75.2278392,30.9966232 C75.2278392,30.4713475 75.3293114,29.9719451 75.5322588,29.4984011 C75.7352062,29.0248572 76.0396228,28.6090201 76.4455176,28.2508776 C76.8514125,27.8927351 77.3607631,27.6082151 77.9735847,27.3973089 C78.5864063,27.1864028 79.3026806,27.0809513 80.122429,27.0809513 C80.5681175,27.0809513 80.9998717,27.1207443 81.4177046,27.2003315 C81.8355375,27.2799187 82.2274987,27.3913392 82.5936,27.5345962 C82.9597012,27.6778532 83.2939625,27.8469735 83.596394,28.0419622 C83.8988254,28.2369509 84.1654386,28.4498435 84.3962416,28.6806465 L83.5605799,29.9818911 Z M94.1973593,29.9818911 C94.1018546,30.1331068 94.0003824,30.240548 93.8929397,30.3042178 C93.7854969,30.3678875 93.648211,30.399722 93.4810778,30.399722 C93.305986,30.399722 93.1308967,30.3619186 92.9558048,30.2863107 C92.7807129,30.2107029 92.5916961,30.1291272 92.3887487,30.0415812 C92.1858012,29.9540353 91.9569914,29.8724596 91.7023123,29.7968517 C91.4476332,29.7212439 91.1571441,29.6834405 90.8308365,29.6834405 C90.3612719,29.6834405 90.0011451,29.7729748 89.7504454,29.9520461 C89.4997456,30.1311173 89.3743976,30.3798237 89.3743976,30.6981726 C89.3743976,30.9289755 89.4559733,31.119982 89.6191271,31.2711977 C89.7822809,31.4224134 89.9991528,31.55572 90.2697494,31.6711215 C90.540346,31.786523 90.8467522,31.8959538 91.1889772,31.9994172 C91.5312023,32.1028806 91.8813808,32.2182803 92.2395234,32.3456199 C92.5976659,32.4729594 92.9478444,32.6221832 93.2900695,32.7932958 C93.6322945,32.9644083 93.9387007,33.1753113 94.2092973,33.426011 C94.4798939,33.6767108 94.6967658,33.9811274 94.8599196,34.3392699 C95.0230734,34.6974124 95.1046491,35.1271769 95.1046491,35.6285765 C95.1046491,36.2413981 94.9932287,36.8064589 94.7703844,37.3237759 C94.5475402,37.8410928 94.2152685,38.2867746 93.7735594,38.6608346 C93.3318503,39.0348945 92.786686,39.3253835 92.1380501,39.5323103 C91.4894143,39.7392371 90.7432952,39.8426989 89.8996707,39.8426989 C89.4778584,39.8426989 89.0560524,39.8029059 88.6342401,39.7233187 C88.2124278,39.6437315 87.8045494,39.5362903 87.4105926,39.400992 C87.0166359,39.2656938 86.6525298,39.104532 86.3182635,38.9175021 C85.9839971,38.7304721 85.6974874,38.5295174 85.4587257,38.3146319 L86.3182635,36.9536971 C86.4137681,36.7945227 86.5351368,36.6691747 86.6823732,36.5776494 C86.8296095,36.4861241 87.0186264,36.4403621 87.2494293,36.4403621 C87.4643148,36.4403621 87.657311,36.4881137 87.8284235,36.5836184 C87.999536,36.679123 88.1845735,36.7825849 88.3835416,36.894007 C88.5825097,37.0054291 88.8152988,37.108891 89.081916,37.2043956 C89.3485332,37.2999003 89.6847842,37.3476519 90.090679,37.3476519 C90.377193,37.3476519 90.6199304,37.3178072 90.8188985,37.2581167 C91.0178666,37.1984263 91.1770386,37.1168506 91.2964195,37.0133872 C91.4158003,36.9099239 91.5033449,36.7945241 91.559056,36.6671845 C91.614767,36.539845 91.6426222,36.408528 91.6426222,36.2732298 C91.6426222,36.0265094 91.5590568,35.823565 91.3919236,35.6643905 C91.2247905,35.5052161 91.0059289,35.3679302 90.7353323,35.2525287 C90.4647358,35.1371272 90.1563399,35.0296861 89.8101355,34.9302021 C89.463931,34.830718 89.1117629,34.7173079 88.7536203,34.5899684 C88.3954778,34.4626288 88.0433097,34.3094257 87.6971052,34.1303544 C87.3509008,33.9512832 87.0425049,33.724463 86.7719084,33.4498871 C86.5013118,33.1753112 86.2824502,32.8390602 86.115317,32.4411241 C85.9481839,32.0431879 85.8646185,31.5616924 85.8646185,30.9966232 C85.8646185,30.4713475 85.9660907,29.9719451 86.1690382,29.4984011 C86.3719856,29.0248572 86.6764021,28.6090201 87.082297,28.2508776 C87.4881918,27.8927351 87.9975424,27.6082151 88.6103641,27.3973089 C89.2231857,27.1864028 89.93946,27.0809513 90.7592084,27.0809513 C91.2048968,27.0809513 91.6366511,27.1207443 92.054484,27.2003315 C92.4723169,27.2799187 92.8642781,27.3913392 93.2303793,27.5345962 C93.5964806,27.6778532 93.9307419,27.8469735 94.2331734,28.0419622 C94.5356048,28.2369509 94.802218,28.4498435 95.033021,28.6806465 L94.1973593,29.9818911 Z M96.9669809,43.5793004 L96.9669809,27.2719597 L99.2590815,27.2719597 C99.7206874,27.2719597 100.023114,27.4788833 100.166371,27.8927369 L100.440946,28.8000267 C100.679708,28.5373889 100.936372,28.2986308 101.210948,28.0837453 C101.485524,27.8688598 101.779993,27.6838223 102.094362,27.5286272 C102.408732,27.3734321 102.746972,27.2520634 103.109094,27.1645174 C103.471216,27.0769715 103.867157,27.0331992 104.296928,27.0331992 C104.941584,27.0331992 105.538479,27.176454 106.087631,27.462968 C106.636783,27.7494821 107.11032,28.1633294 107.508256,28.7045225 C107.906192,29.2457157 108.218567,29.9082694 108.445391,30.6922035 C108.672215,31.4761377 108.785625,32.3655116 108.785625,33.3603519 C108.785625,34.2915224 108.656297,35.1510516 108.397639,35.9389651 C108.13898,36.7268786 107.776864,37.4113185 107.311279,37.9923052 C106.845693,38.5732919 106.288591,39.0269323 105.639955,39.3532399 C104.991319,39.6795476 104.273055,39.8426989 103.485142,39.8426989 C102.840485,39.8426989 102.2993,39.751175 101.861571,39.5681244 C101.423841,39.3850738 101.025911,39.1383571 100.667768,38.8279669 L100.667768,43.5793004 L96.9669809,43.5793004 Z M103.007621,29.8625109 C102.737024,29.8625109 102.492297,29.8883763 102.273433,29.940108 C102.054568,29.9918397 101.851623,30.0654568 101.664593,30.1609615 C101.477563,30.2564661 101.304464,30.3778348 101.145289,30.5250712 C100.986115,30.6723076 100.826943,30.8414279 100.667768,31.0324372 L100.667768,36.2851678 C100.946324,36.595558 101.24875,36.8124299 101.575058,36.9357901 C101.901366,37.0591503 102.243586,37.1208295 102.601728,37.1208295 C102.943953,37.1208295 103.258318,37.0531813 103.544832,36.9178831 C103.831346,36.7825848 104.080052,36.5657128 104.290959,36.2672607 C104.501865,35.9688087 104.667006,35.5808268 104.786387,35.1033034 C104.905767,34.6257801 104.965457,34.044802 104.965457,33.3603519 C104.965457,32.7077367 104.917705,32.158593 104.822201,31.7129046 C104.726696,31.2672161 104.593389,30.9070893 104.422277,30.6325134 C104.251164,30.3579375 104.04623,30.1609621 103.807469,30.0415812 C103.568707,29.9222004 103.302094,29.8625109 103.007621,29.8625109 L103.007621,29.8625109 Z M116.402084,27.0809513 C117.341213,27.0809513 118.196763,27.2281854 118.968759,27.5226582 C119.740755,27.8171309 120.403309,28.2389369 120.95644,28.7880887 C121.509571,29.3372406 121.939336,30.0037736 122.245747,30.7877077 C122.552157,31.5716419 122.705361,32.4530572 122.705361,33.43198 C122.705361,34.4188616 122.552157,35.3082355 122.245747,36.1001284 C121.939336,36.8920213 121.509571,37.5645233 120.95644,38.1176545 C120.403309,38.6707857 119.740755,39.0965709 118.968759,39.395023 C118.196763,39.6934751 117.341213,39.8426989 116.402084,39.8426989 C115.454996,39.8426989 114.593477,39.6934751 113.817502,39.395023 C113.041526,39.0965709 112.373004,38.6707857 111.811914,38.1176545 C111.250824,37.5645233 110.81708,36.8920213 110.510669,36.1001284 C110.204258,35.3082355 110.051055,34.4188616 110.051055,33.43198 C110.051055,32.4530572 110.204258,31.5716419 110.510669,30.7877077 C110.81708,30.0037736 111.250824,29.3372406 111.811914,28.7880887 C112.373004,28.2389369 113.041526,27.8171309 113.817502,27.5226582 C114.593477,27.2281854 115.454996,27.0809513 116.402084,27.0809513 L116.402084,27.0809513 Z M116.402084,37.0969534 C117.253667,37.0969534 117.880407,36.7965161 118.282323,36.1956326 C118.684238,35.5947491 118.885193,34.6814994 118.885193,33.4558561 C118.885193,32.2302128 118.684238,31.3189528 118.282323,30.7220486 C117.880407,30.1251444 117.253667,29.8266968 116.402084,29.8266968 C115.526624,29.8266968 114.885957,30.1251444 114.480062,30.7220486 C114.074167,31.3189528 113.871223,32.2302128 113.871223,33.4558561 C113.871223,34.6814994 114.074167,35.5947491 114.480062,36.1956326 C114.885957,36.7965161 115.526624,37.0969534 116.402084,37.0969534 L116.402084,37.0969534 Z M124.567692,39.6516905 L124.567692,27.2719597 L126.764289,27.2719597 C126.947339,27.2719597 127.100542,27.2878769 127.223903,27.3197118 C127.347263,27.3515467 127.450725,27.4012879 127.534291,27.4689371 C127.617858,27.5365862 127.681527,27.6261205 127.7253,27.7375426 C127.769073,27.8489647 127.806876,27.984261 127.838711,28.1434354 L128.017781,29.1939815 C128.407759,28.5254488 128.851451,27.9981914 129.348871,27.6121933 C129.846291,27.2261953 130.417321,27.0331992 131.061977,27.0331992 C131.619088,27.0331992 132.072728,27.1645161 132.422912,27.427154 L132.184152,30.1490234 C132.144358,30.3241153 132.0787,30.4434944 131.987174,30.5071642 C131.895649,30.5708339 131.770301,30.6026684 131.611126,30.6026684 C131.547457,30.6026684 131.463891,30.5986891 131.360428,30.5907303 C131.256965,30.5827716 131.149523,30.5728234 131.038101,30.5608853 C130.926679,30.5489472 130.813269,30.5370093 130.697868,30.5250712 C130.582466,30.5131331 130.477015,30.5071642 130.38151,30.5071642 C129.840317,30.5071642 129.408563,30.6524087 129.086234,30.942902 C128.763906,31.2333954 128.491324,31.6333152 128.26848,32.1426735 L128.26848,39.6516905 L124.567692,39.6516905 Z M138.105412,39.8426989 C137.516466,39.8426989 136.997167,39.7571439 136.547499,39.5860314 C136.097832,39.4149189 135.719798,39.1721815 135.413387,38.8578119 C135.106976,38.5434424 134.874187,38.1634191 134.715013,37.7177307 C134.555838,37.2720422 134.476252,36.7746295 134.476252,36.2254777 L134.476252,29.8266968 L133.425706,29.8266968 C133.234697,29.8266968 133.071545,29.7650176 132.936247,29.6416574 C132.800949,29.5182972 132.733301,29.337239 132.733301,29.0984773 L132.733301,27.6539764 L134.703075,27.2719597 L135.431294,24.2516396 C135.526799,23.8696209 135.797391,23.6786144 136.24308,23.6786144 L138.17704,23.6786144 L138.17704,27.2958357 L141.245112,27.2958357 L141.245112,29.8266968 L138.17704,29.8266968 L138.17704,35.9747792 C138.17704,36.2612932 138.246677,36.4980616 138.385955,36.6850916 C138.525233,36.8721216 138.726187,36.9656351 138.988825,36.9656351 C139.124124,36.9656351 139.237534,36.9517076 139.329059,36.9238521 C139.420584,36.8959965 139.50017,36.8641621 139.567819,36.8283479 C139.635469,36.7925336 139.699137,36.7606992 139.758828,36.7328437 C139.818518,36.7049881 139.888156,36.6910606 139.967743,36.6910606 C140.079165,36.6910606 140.1687,36.7169261 140.236349,36.7686578 C140.303998,36.8203894 140.373636,36.9019651 140.445264,37.0133872 L141.567438,38.7682768 C141.089915,39.1264193 140.552709,39.3950221 139.955805,39.5740934 C139.358901,39.7531646 138.742109,39.8426989 138.105412,39.8426989 L138.105412,39.8426989 Z" id="Passport" fill="#333333"></path>
        </g>
    </g>
</svg>