<?xml version="1.0" encoding="UTF-8" standalone="no"?>
<svg width="181px" height="63px" viewBox="0 0 181 63" version="1.1" xmlns="http://www.w3.org/2000/svg" xmlns:xlink="http://www.w3.org/1999/xlink">
    <!-- Generator: Sketch 3.8.2 (29753) - http://www.bohemiancoding.com/sketch -->
    <title>Artboard 1</title>
    <desc>Created with Sketch.</desc>
    <defs></defs>
    <g id="Page-1" stroke="none" stroke-width="1" fill="none" fill-rule="evenodd">
        <g id="Artboard-1" fill="#FFFFFF">
            <g id="Group-4" transform="translate(5.000000, 7.000000)">
                <path d="M61.1126839,8.37594819 C61.1126839,7.54675648 60.8323938,6.90442487 60.2718135,6.44895337 C59.7813057,6.04019689 59.0805803,5.84165803 58.1696373,5.84165803 L55.2849845,5.84165803 L55.2849845,13.9 L57.176943,13.9 L57.176943,10.9219171 L58.1696373,10.9219171 C59.0805803,10.9219171 59.7813057,10.7233782 60.2718135,10.3146218 C60.8323938,9.83579275 61.1126839,9.19346114 61.1126839,8.37594819 L61.1126839,8.37594819 Z M59.1973679,8.37594819 C59.1973679,8.76134715 59.0689016,9.05331606 58.8119689,9.24017617 C58.6017513,9.392 58.2981036,9.46207254 57.9010259,9.46207254 L57.1652642,9.46207254 L57.1652642,7.30150259 L57.9010259,7.30150259 C58.2981036,7.30150259 58.6017513,7.37157513 58.8119689,7.52339896 C59.0689016,7.71025907 59.1973679,7.99054922 59.1973679,8.37594819 L59.1973679,8.37594819 Z M64.4878446,14.0284663 C65.4104663,14.0284663 66.1812642,13.7598549 66.7768808,13.2226321 C67.3724974,12.6737306 67.6761451,11.9496477 67.6761451,11.0387047 C67.6761451,10.1277617 67.3724974,9.40367876 66.7768808,8.8547772 C66.1812642,8.30587565 65.4104663,8.03726425 64.4878446,8.03726425 C63.5652228,8.03726425 62.7944249,8.30587565 62.1871295,8.8547772 C61.591513,9.40367876 61.2878653,10.1277617 61.2878653,11.0387047 C61.2878653,11.9496477 61.591513,12.6737306 62.1871295,13.2226321 C62.7827461,13.7598549 63.553544,14.0284663 64.4878446,14.0284663 L64.4878446,14.0284663 Z M64.4878446,9.50878756 C65.282,9.50878756 65.7958653,10.1277617 65.7958653,11.0036684 C65.7958653,11.8795751 65.282,12.4985492 64.4878446,12.4985492 C63.6820104,12.4985492 63.1798238,11.8795751 63.1798238,11.0036684 C63.1798238,10.1277617 63.6820104,9.50878756 64.4878446,9.50878756 L64.4878446,9.50878756 Z M74.4731813,11.8211813 L73.3636995,8.14237306 L71.8337824,8.14237306 L70.7243005,11.8211813 L69.7082487,8.14237306 L67.8162902,8.14237306 L69.7082487,13.9 L71.4717409,13.9 L72.6045803,10.3730155 L73.7257409,13.9 L75.4892332,13.9 L77.3811917,8.14237306 L75.4892332,8.14237306 L74.4731813,11.8211813 Z M83.5592539,10.8518446 C83.5592539,10.0109741 83.2906425,9.33360622 82.7534197,8.81974093 C82.2278756,8.29419689 81.5271503,8.03726425 80.674601,8.03726425 C79.7870155,8.03726425 79.0512539,8.30587565 78.4556373,8.84309845 C77.8600207,9.38032124 77.5680518,10.1044041 77.5680518,11.0270259 C77.5680518,11.9613264 77.848342,12.6970881 78.420601,13.2343109 C78.9928601,13.7598549 79.7286218,14.0284663 80.6395648,14.0284663 C81.3986839,14.0284663 81.9826218,13.853285 82.403057,13.7131399 C82.8702073,13.514601 83.0687461,13.3394197 83.267285,13.1875959 L83.3723938,13.0941658 L82.6366321,12.124829 C82.0994093,12.4868705 81.5271503,12.6737306 80.9081762,12.6737306 C80.102342,12.6737306 79.5184041,12.2649741 79.4366528,11.4708187 L83.5358964,11.4708187 L83.5592539,10.8518446 Z M79.4483316,10.4080518 C79.4833679,9.80075648 79.9271606,9.25185492 80.6395648,9.25185492 C81.3753264,9.25185492 81.8074404,9.81243523 81.8191192,10.4080518 L79.4483316,10.4080518 Z M88.254114,8.10733679 C88.1723627,8.07230052 87.9621451,8.03726425 87.7285699,8.03726425 C87.0979171,8.03726425 86.6190881,8.34091192 86.3037617,8.95988601 L86.2804041,8.95988601 L86.2920829,8.14237306 L84.4234819,8.14237306 L84.4234819,13.9 L86.2920829,13.9 L86.2920829,11.3423523 C86.2920829,10.7934508 86.385513,10.3963731 86.5840518,10.1394404 C86.7942694,9.85915026 87.0862383,9.71900518 87.4482798,9.71900518 C87.7285699,9.71900518 87.9504663,9.76572021 88.1256477,9.85915026 L88.207399,9.85915026 L88.3125078,8.14237306 L88.254114,8.10733679 Z M94.4204974,10.8518446 C94.4204974,10.0109741 94.151886,9.33360622 93.6146632,8.81974093 C93.0891192,8.29419689 92.3883938,8.03726425 91.5358446,8.03726425 C90.6482591,8.03726425 89.9124974,8.30587565 89.3168808,8.84309845 C88.7212642,9.38032124 88.4292953,10.1044041 88.4292953,11.0270259 C88.4292953,11.9613264 88.7095855,12.6970881 89.2818446,13.2343109 C89.8541036,13.7598549 90.5898653,14.0284663 91.5008083,14.0284663 C92.2599275,14.0284663 92.8438653,13.853285 93.2643005,13.7131399 C93.7314508,13.514601 93.9299896,13.3394197 94.1285285,13.1875959 L94.2336373,13.0941658 L93.4978756,12.124829 C92.9606528,12.4868705 92.3883938,12.6737306 91.7694197,12.6737306 C90.9635855,12.6737306 90.3796477,12.2649741 90.2978964,11.4708187 L94.3971399,11.4708187 L94.4204974,10.8518446 Z M90.3095751,10.4080518 C90.3446114,9.80075648 90.7884041,9.25185492 91.5008083,9.25185492 C92.2365699,9.25185492 92.6686839,9.81243523 92.6803627,10.4080518 L90.3095751,10.4080518 Z M99.4890777,5.84165803 L99.4890777,8.84309845 C99.2204663,8.45769948 98.6014922,8.03726425 97.6671917,8.03726425 C96.8496788,8.03726425 96.1956684,8.3175544 95.6934819,8.88981347 C95.1912953,9.45039378 94.9460415,10.1627979 94.9460415,11.0270259 C94.9460415,11.8912539 95.1912953,12.603658 95.6934819,13.1759171 C96.1956684,13.7481762 96.8496788,14.0284663 97.6671917,14.0284663 C98.4963834,14.0284663 99.1270363,13.7364974 99.5591503,13.1525596 L99.5941865,13.1408808 L99.5825078,13.9 L101.357679,13.9 L101.357679,5.84165803 L99.4890777,5.84165803 Z M99.1737513,12.0897927 C98.9284974,12.3584041 98.613171,12.4985492 98.2044145,12.4985492 C97.795658,12.4985492 97.4686528,12.3584041 97.223399,12.0897927 C96.9781451,11.8095026 96.8496788,11.4474611 96.8496788,11.0036684 C96.8496788,10.5598756 96.9781451,10.1978342 97.223399,9.9292228 C97.4686528,9.64893264 97.795658,9.50878756 98.2044145,9.50878756 C98.613171,9.50878756 98.9284974,9.64893264 99.1737513,9.9292228 C99.4190052,10.1978342 99.5474715,10.5598756 99.5474715,11.0036684 C99.5474715,11.4474611 99.4190052,11.8095026 99.1737513,12.0897927 L99.1737513,12.0897927 Z M108.66858,14.0284663 C109.486093,14.0284663 110.140104,13.7481762 110.64229,13.1759171 C111.144477,12.603658 111.389731,11.8912539 111.389731,11.0270259 C111.389731,10.1627979 111.144477,9.45039378 110.64229,8.88981347 C110.151782,8.3175544 109.497772,8.03726425 108.680259,8.03726425 C107.792674,8.03726425 107.162021,8.41098446 106.870052,8.84309845 L106.835016,8.84309845 L106.858373,7.78033161 L106.858373,5.84165803 L104.989772,5.84165803 L104.989772,13.9 L106.764943,13.9 L106.753264,13.1408808 L106.764943,13.1408808 C107.185378,13.7364974 107.816031,14.0284663 108.66858,14.0284663 L108.66858,14.0284663 Z M109.112373,12.0897927 C108.867119,12.3584041 108.551793,12.4985492 108.143036,12.4985492 C107.73428,12.4985492 107.407275,12.3584041 107.162021,12.0897927 C106.916767,11.8095026 106.788301,11.4474611 106.788301,11.0036684 C106.788301,10.5598756 106.916767,10.1978342 107.162021,9.9292228 C107.407275,9.64893264 107.73428,9.50878756 108.143036,9.50878756 C108.551793,9.50878756 108.867119,9.64893264 109.112373,9.9292228 C109.357627,10.1978342 109.486093,10.5598756 109.486093,11.0036684 C109.486093,11.4474611 109.357627,11.8095026 109.112373,12.0897927 L109.112373,12.0897927 Z M114.893358,11.8445389 L113.585337,8.14237306 L111.634984,8.14237306 L113.912342,13.7248187 L113.702124,14.2270052 C113.550301,14.6124041 113.351762,14.6007254 113.141544,14.6007254 C112.954684,14.6007254 112.721109,14.5540104 112.452497,14.4489016 L112.078777,15.8269948 L112.265637,15.8970674 C112.499212,15.9904974 113.106508,16.107285 113.678767,16.107285 C114.601389,16.107285 115.080218,15.5700622 115.547368,14.4489016 L118.116694,8.14237306 L116.189699,8.14237306 L114.893358,11.8445389 Z" id="Powered-by"></path>
                <g id="Group-3">
                    <path d="M40.4297413,10.749954 C40.109403,10.5822214 39.7851836,10.4086133 39.4455735,10.223399 C39.2218106,10.1018004 39.0666336,9.99014015 38.9788125,9.89973804 C38.9533666,9.87366479 38.928741,9.84567236 38.9024413,9.81277202 C38.8757933,9.77925122 38.8440077,9.73545269 38.8095856,9.68405353 C38.7252894,9.55818219 38.6392768,9.41280511 38.5527437,9.24871489 C38.4604674,9.07550644 38.3893692,8.94259308 38.2192229,8.62491038 C38.1255743,8.4496586 38.050236,8.30917924 37.8808123,7.99364258 L37.8812038,7.9943723 C37.7501758,7.74978892 37.6142867,7.52204438 37.4729313,7.31097211 C37.3517552,7.13003162 37.2278889,6.96427066 37.1004463,6.81358327 C36.9205808,6.60170319 36.7209562,6.42593455 36.4970286,6.29077232 L35.8798627,7.32798243 L36.5297287,6.31123476 C36.1656439,6.075173 35.7298031,5.92342148 35.2239751,5.83808138 C34.8340423,5.77230469 34.4286295,5.72189025 34.0099777,5.68696394 C33.661948,5.65792933 33.3030033,5.62530959 32.8919026,5.58582299 C32.6357391,5.56062971 32.4477064,5.51862472 32.3375774,5.47207849 C32.2668005,5.44287679 32.1801707,5.39269798 32.07252,5.31497212 C31.9143735,5.20075792 31.7467242,5.07152349 31.5684032,4.92626813 C31.3641961,4.75893795 31.1746361,4.60118366 30.9905556,4.44490189 C30.7653983,4.25464533 30.5501824,4.08151566 30.3397673,3.92175758 C30.1060755,3.74385668 29.8702141,3.58659295 29.6342161,3.45165281 C29.3368555,3.28326092 29.0422177,3.16743381 28.7426331,3.10812531 C28.3082048,3.02401829 27.8453924,3.04842566 27.3445537,3.16357934 C26.9581525,3.25315793 26.5649575,3.36233968 26.1624202,3.49161387 C25.8025944,3.6076325 25.4469174,3.71871086 25.0935733,3.82557237 C24.8393049,3.90269576 24.6427952,3.93831893 24.5114421,3.94004822 C24.3884746,3.9413598 24.1968898,3.90994081 23.9496085,3.83782267 C23.604793,3.73765251 23.2528381,3.63014596 22.891044,3.51447967 C22.4774728,3.38295136 22.0844154,3.27558782 21.7049066,3.19138492 C21.2059353,3.07988274 20.7403592,3.05933129 20.3072191,3.14659684 C20.0722782,3.19582493 19.8485064,3.27700727 19.6264192,3.3881622 C19.4424152,3.47997601 19.2567954,3.58962406 19.0714137,3.71556309 C18.8620217,3.8578136 18.6513206,4.01770917 18.4386496,4.19522516 C18.3565505,4.26375599 18.3565505,4.26375599 18.2745818,4.33217563 C18.2354585,4.36482904 18.2354585,4.36482904 18.1963524,4.39746291 C18.0794928,4.49497665 17.9838493,4.57471702 17.891809,4.65134613 C17.634051,4.86699949 17.501206,4.97828132 17.3528547,5.10296046 C17.2106803,5.22266007 17.0763384,5.32502596 16.9495063,5.41118938 C16.896483,5.4472108 16.8496184,5.47666347 16.8088807,5.49989504 C16.7768453,5.51785917 16.7426431,5.53510692 16.7139416,5.54771992 C16.6672088,5.56720002 16.5680665,5.59412852 16.4357819,5.61590735 C16.236724,5.64887257 16.026374,5.67718854 15.8027516,5.70100659 C15.5591181,5.72682417 15.3152297,5.74961555 15.0702392,5.76926562 C14.78376,5.7920022 14.5032273,5.8238823 14.2300833,5.86464707 C13.9389675,5.90861822 13.6695947,5.96385428 13.418322,6.03182533 C13.0903471,6.12002941 12.7932098,6.25010264 12.5326917,6.42708564 C12.2734487,6.60320243 12.0427993,6.83093199 11.8358085,7.10528301 C11.6741203,7.31861461 11.5192334,7.55418031 11.3720883,7.80960976 C11.2376586,8.04248305 11.1052537,8.2887328 10.975138,8.54788756 C10.8638188,8.7691512 10.7494452,8.99060424 10.631145,9.21437604 C10.5253793,9.41418308 10.4203251,9.60034317 10.3159922,9.77310041 C10.2461796,9.88869796 10.1838148,9.97175577 10.1346377,10.0219411 C10.1266683,10.0294938 10.0971018,10.0557335 10.062134,10.0841349 C10.0322555,10.1080323 9.98747655,10.1408453 9.93479557,10.1766341 C9.80728308,10.2632598 9.66056471,10.3517571 9.49540762,10.4408651 C9.3414794,10.5241523 9.18736019,10.6077171 8.87569041,10.7767641 C8.69525942,10.875014 8.52434935,10.9679344 8.24934869,11.1173432 C8.00631783,11.2494157 7.78319672,11.3842149 7.57896227,11.5229616 C7.16145531,11.806595 6.83639116,12.1058228 6.60632051,12.4427804 L6.58496929,12.4751533 C6.35339209,12.8388198 6.20175166,13.274122 6.11487897,13.7771118 C6.04683306,14.1699671 5.99639994,14.581892 5.96308426,15.0133396 C5.93419763,15.3898816 5.90120761,15.7595617 5.86410759,16.1242102 C5.83786507,16.3821427 5.79504709,16.5725763 5.74665528,16.6894372 C5.69587923,16.8115825 5.5878818,16.9860078 5.42054104,17.2001477 C5.19330942,17.4905408 4.96146567,17.7797916 4.72504532,18.0675609 C4.4611824,18.3891391 4.21611866,18.7102254 3.98987312,19.0305141 C3.68977523,19.4564574 3.49035729,19.8814732 3.40583341,20.3177923 C3.34729599,20.6227965 3.34354009,20.9422068 3.38695477,21.2786538 C3.42145128,21.543832 3.4750253,21.8184466 3.5473328,22.1050787 C3.61676925,22.3784542 3.69588161,22.6517698 3.78553145,22.9271891 C3.86450335,23.170876 3.94007115,23.4114912 4.01197389,23.6480706 C4.0778201,23.8639834 4.13405991,24.0690138 4.1813776,24.2644529 C4.21185806,24.3916112 4.22558717,24.4918655 4.22586281,24.5585989 C4.22612621,24.6294061 4.21307682,24.7340321 4.18279769,24.8685096 C4.13955057,25.0598968 4.08548769,25.2635264 4.02065788,25.4780184 C3.94795378,25.7204391 3.8734103,25.9620548 3.79617614,26.2055521 C3.70843726,26.4821677 3.63188312,26.7560329 3.56624499,27.0276474 C3.49767907,27.3078502 3.44596356,27.5825508 3.41234475,27.8473801 C3.36985511,28.184421 3.37229461,28.4994636 3.42862309,28.7981145 L4.60812102,28.5724446 L3.42109411,28.7536977 C3.46071291,29.0168995 3.5482762,29.2721835 3.67661034,29.5197996 C3.76841121,29.6961358 3.8743809,29.8730588 3.99547956,30.0538837 C4.13788228,30.2665198 4.29697564,30.479314 4.47266988,30.6923773 C4.53257648,30.765341 4.53257648,30.765341 4.59411856,30.8403276 C4.68170027,30.9470532 4.72398581,30.9985756 4.76955985,31.0540757 C4.82680413,31.1237878 4.87696266,31.1848191 4.9249975,31.2431957 C5.10228683,31.458609 5.24100609,31.626612 5.37341476,31.7860727 C5.49483784,31.9326659 5.59701586,32.0681167 5.67936174,32.1910758 C5.71146697,32.2390154 5.73967501,32.2850709 5.76418229,32.3290358 C5.78444556,32.365344 5.80226808,32.401123 5.81861875,32.4380079 C5.86385295,32.5431557 5.90971748,32.7365415 5.93930626,32.999235 C5.97941575,33.3506387 6.01979593,33.7248817 6.06311475,34.1443525 C6.10696872,34.5691586 6.16254979,34.9739326 6.23011512,35.358716 C6.32076757,35.8713855 6.47875648,36.3104091 6.7233584,36.6756493 C6.89854631,36.9372404 7.12473727,37.1693904 7.39588663,37.3757456 C7.61243124,37.5390594 7.84296618,37.6918474 8.09069658,37.8366118 C8.32917385,37.975816 8.57410141,38.1086656 8.82717761,38.235631 C9.04641948,38.3458513 9.26481403,38.4584677 9.48423965,38.5742568 C9.67563343,38.6752538 9.85232189,38.7763815 10.013901,38.8771388 C10.126928,38.9476038 10.210061,39.0116054 10.2646341,39.0655378 L11.1054939,38.2024305 L10.2400307,39.0405045 C10.268764,39.0706044 10.2954513,39.1011387 10.3209221,39.1331725 C10.3522878,39.1726407 10.3841689,39.2163071 10.4162908,39.2642716 C10.4986432,39.3872404 10.5850135,39.5333324 10.6747954,39.7023279 C10.7728932,39.887315 10.8775099,40.0833564 11.0064371,40.3240183 C11.0653294,40.433977 11.1181808,40.5324111 11.2151519,40.7128422 C11.2802993,40.8340547 11.3103671,40.8900105 11.3452046,40.9548922 C11.4742489,41.1964478 11.6102867,41.4243351 11.7526643,41.6369337 C11.8741215,41.8182938 11.9974997,41.9838163 12.1238696,42.1336265 C12.3044643,42.3471623 12.5061283,42.5241299 12.7330621,42.6599445 L13.3463623,41.6204109 L12.6852116,42.6297514 C13.0572038,42.876929 13.5014084,43.0330718 14.0133229,43.1156828 C14.396456,43.1784868 14.8016429,43.2263525 15.2263959,43.2593594 C15.6127344,43.2893813 15.9808725,43.3214804 16.332731,43.3559094 C16.5867753,43.3802474 16.7717321,43.4216374 16.8851565,43.4692093 C16.9488041,43.4974439 17.0509721,43.556582 17.1704481,43.6404159 C17.3253996,43.7490865 17.4901622,43.8749148 17.6652092,44.0184387 C17.8541346,44.174222 18.0448546,44.3349043 18.2353661,44.4989171 C18.4550144,44.6885039 18.6768086,44.8662244 18.9011462,45.0323842 C19.138134,45.2078135 19.3712343,45.360885 19.6025677,45.4923569 C19.8975718,45.6596063 20.193195,45.7759499 20.4939051,45.8348207 C20.7933289,45.8937701 21.1110269,45.8977586 21.4461379,45.8542478 C21.7181961,45.818203 21.995417,45.7612413 22.2820093,45.6832426 C22.5410978,45.6123733 22.8021146,45.5345224 23.0666408,45.4491004 C23.3383972,45.3609518 23.5683421,45.2880508 23.783275,45.222239 C24.0145703,45.1512481 24.2189529,45.0937411 24.4041153,45.0478327 C24.5353888,45.0147933 24.6352715,45.0004778 24.7032702,44.9998792 C24.7673675,44.999801 24.8713559,45.0130379 25.0033458,45.0435065 C25.1968127,45.0878739 25.4025368,45.1421525 25.6205466,45.2063812 C25.8414,45.2717262 26.074403,45.3449601 26.3214819,45.4265544 C26.597695,45.517591 26.8703158,45.597473 27.1403539,45.6666018 C27.4265941,45.7401093 27.702834,45.7941342 27.9693758,45.8282477 C28.315005,45.8721754 28.6399306,45.8644748 28.9461174,45.7951344 L28.68274,44.6153806 L28.8668998,45.8102792 C29.1257402,45.7698116 29.3768097,45.6827972 29.6213256,45.5551034 C29.7999863,45.4604757 29.9752743,45.3538836 30.1541819,45.2323427 C30.3569092,45.0946199 30.5637402,44.9375846 30.7769502,44.7603808 C30.9576448,44.6092077 31.138873,44.4582373 31.3238229,44.3047876 C31.3893559,44.2496682 31.7625726,43.9373747 31.871139,43.8456149 C32.0170061,43.7236747 32.1534303,43.6194347 32.2758085,43.5362971 C32.3247014,43.5030817 32.3697623,43.4750378 32.409784,43.4525588 C32.4489742,43.4304164 32.4806943,43.4144401 32.5067786,43.4031273 L32.0319438,42.2925104 L32.4772084,43.4154838 C32.6014119,43.365527 32.7998613,43.3203083 33.06566,43.2896128 C33.4137525,43.2498547 33.7813693,43.2127304 34.1664342,43.1783663 C34.5949822,43.1397171 34.9998764,43.0864991 35.3860275,43.0174876 C35.8937088,42.9273926 36.334199,42.7660316 36.7017246,42.5163531 C37.065035,42.2695381 37.3742689,41.921491 37.6481852,41.4801452 C37.8567339,41.1450218 38.0580217,40.7859323 38.2526061,40.402644 C38.4346478,40.0435119 38.6040532,39.7170725 38.7659077,39.4141609 C38.8895326,39.182957 39.0038197,39.0176694 39.0990495,38.9186942 C39.1019247,38.9161249 39.1276319,38.8932584 39.1599038,38.8672423 C39.1986987,38.8357903 39.2412831,38.8043009 39.2905192,38.7708523 C39.4122607,38.6881472 39.5572042,38.6011655 39.7270454,38.5093177 C39.8541361,38.4415523 40.3089654,38.1955758 40.3379468,38.1799886 C40.5463622,38.0658551 40.7519628,37.9538556 40.9671979,37.8371831 C41.2136652,37.7025738 41.4387655,37.5661593 41.6466334,37.4249442 C41.8250294,37.3037508 41.9888726,37.1799651 42.137903,37.0530125 C42.3530417,36.8671624 42.5274667,36.6649877 42.6614179,36.4384403 L41.6298847,35.819736 L42.6317556,36.4860539 C42.8034725,36.2241416 42.9293861,35.9254793 43.0159713,35.5934035 C43.0833327,35.3383636 43.1366069,35.0620444 43.176528,34.7664633 C43.2127065,34.4946094 43.2415105,34.2180062 43.2631579,33.9342987 C43.2821194,33.6798953 43.3028343,33.4276138 43.3254568,33.1743642 C43.3455235,32.9469058 43.3710187,32.7386189 43.4019517,32.5476821 C43.4241776,32.407821 43.4506103,32.3065999 43.4772122,32.2407623 C43.5216395,32.1347732 43.6271332,31.9679399 43.7917741,31.7649451 C44.0499386,31.446553 44.2806465,31.1644885 44.5078606,30.8900373 C44.7852199,30.5512928 45.03146,30.2268574 45.2531575,29.9070819 C45.5469644,29.4846069 45.7436914,29.0594458 45.8280687,28.6254945 C45.8865734,28.3206665 45.8902027,28.0018995 45.8473488,27.6656819 C45.8108626,27.3885021 45.7544579,27.1091004 45.6774498,26.8224428 C45.6087939,26.5642063 45.5283088,26.2968949 45.4359831,26.0196765 C45.3553859,25.7781312 45.2793109,25.5408939 45.2072888,25.306521 C45.1409166,25.0906019 45.0868241,24.8898808 45.0447921,24.704303 C45.0121268,24.5602403 44.9959101,24.4428236 44.9933724,24.3523119 L43.7932597,24.3864433 L44.9938504,24.3854295 C44.9937933,24.3168779 45.0067997,24.2183298 45.0369283,24.0931054 C45.0853802,23.8860907 45.1401263,23.6793489 45.2033076,23.4654731 C45.2680197,23.2427086 45.3399137,23.010024 45.4232832,22.7521306 C45.5142867,22.4707796 45.5929298,22.2000591 45.6593865,21.937903 C45.7317477,21.6526551 45.7850828,21.3763053 45.8188479,21.1086974 C45.8618374,20.7676874 45.8566034,20.4439189 45.7949057,20.1364252 L45.789749,20.1120241 C45.7013415,19.7139009 45.5110585,19.3135261 45.2301161,18.8940221 C45.0887843,18.6829851 44.9303031,18.471165 44.7540746,18.2570407 C44.6872424,18.1756596 44.6872424,18.1756596 44.6194686,18.0931494 C44.4913719,17.9372184 44.3945667,17.8195454 44.2997146,17.7045435 C44.0861874,17.4450434 43.9777331,17.3133846 43.8542534,17.1639424 C43.7323676,17.0178226 43.6308142,16.8831255 43.5465147,16.7572493 C43.5120717,16.7058189 43.4836074,16.6596483 43.4609868,16.6190924 C43.4425193,16.5857038 43.4256702,16.5516042 43.4117789,16.5195154 C43.3910701,16.4693248 43.3629805,16.3658177 43.3397638,16.2279225 C43.30531,16.0246484 43.2765905,15.8137092 43.2538318,15.5949581 C43.2289722,15.359118 43.206567,15.114117 43.1861521,14.8559069 C43.1634106,14.5652174 43.1318927,14.2830215 43.0914522,14.008893 C43.0478812,13.7172165 42.9925931,13.445331 42.9247238,13.1912025 C42.8379141,12.8622244 42.7092043,12.5627576 42.5330977,12.2997947 L42.515074,12.2728816 L42.4956425,12.2469813 C42.2458129,11.913982 41.9085561,11.6220961 41.4883909,11.3574041 C41.1531532,11.1464801 40.8004871,10.9440805 40.4297413,10.749954 L40.4297413,10.749954 Z M39.3221522,12.8957212 C39.6374904,13.0608357 39.9352547,13.2317264 40.2156395,13.408138 C40.404263,13.5269656 40.5242366,13.6307993 40.5798826,13.7049701 L41.5377625,12.9759757 L40.5424274,13.6521568 C40.5598661,13.6781963 40.5827395,13.7314155 40.6050357,13.8159048 C40.6493463,13.9818412 40.686492,14.1645094 40.7166705,14.3665228 C40.7485553,14.5826707 40.7739146,14.8097253 40.7924682,15.0468795 C40.8145875,15.3266515 40.8389177,15.5927017 40.865897,15.8486402 C40.8938405,16.1172382 40.9295943,16.3798418 40.972601,16.633572 C41.0244354,16.9414455 41.100043,17.2200516 41.2037086,17.4695695 C41.2563888,17.5915949 41.3079013,17.6958469 41.3655324,17.7999974 C41.423402,17.9037646 41.4861371,18.0055242 41.5558445,18.1096114 C41.6889188,18.3083184 41.841331,18.5104728 42.0122389,18.7153321 C42.1306979,18.8587191 42.238403,18.9894685 42.451804,19.2488139 C42.5463611,19.3634595 42.6422554,19.4800252 42.7694357,19.6348407 C42.8369934,19.7170879 42.8369934,19.7170879 42.9046278,19.7994446 C43.0326641,19.9550146 43.1437303,20.1034616 43.2394458,20.2463842 C43.3660648,20.4354521 43.4317606,20.5736826 43.446459,20.6398735 L44.618104,20.3759488 L43.4413023,20.6154724 C43.447633,20.647024 43.4486509,20.7099905 43.4368063,20.8039469 C43.4159444,20.9692892 43.3814644,21.1479437 43.332889,21.3394279 C43.2797035,21.5492322 43.2155978,21.7699091 43.1401356,22.0032119 C43.0496482,22.2831235 42.9707056,22.5386212 42.9002685,22.7811431 C42.8255376,23.0340705 42.7588678,23.2858405 42.7015129,23.5310196 C42.630397,23.8264983 42.5924415,24.114083 42.592669,24.3874571 L42.593147,24.4205747 C42.6004205,24.6800062 42.6380357,24.9523584 42.7038134,25.2424553 C42.7598334,25.4897921 42.8297738,25.7493205 42.9134914,26.0216665 C42.9912272,26.274633 43.0732189,26.5303215 43.1596784,26.789435 C43.2364343,27.0199039 43.3025645,27.2395389 43.3588023,27.4510539 C43.4094448,27.6395831 43.4447358,27.8143974 43.466359,27.9786184 C43.4778078,28.0685244 43.4770807,28.1323818 43.4710857,28.1636197 C43.4578131,28.2318617 43.400653,28.3553946 43.2854307,28.5210775 C43.1009252,28.7872052 42.8933549,29.060691 42.6594769,29.3463548 C42.4307294,29.62263 42.194968,29.9108729 41.9320755,30.235096 C41.6325201,30.6044343 41.4070009,30.9610823 41.2587498,31.3155357 C41.1525071,31.5782401 41.0803453,31.8545748 41.0315207,32.1618927 C40.9914047,32.4094776 40.958779,32.6760182 40.9338157,32.9589907 C40.9102628,33.2226467 40.8885716,33.4868181 40.8688732,33.7511355 C40.8508269,33.9876228 40.8267429,34.2189002 40.7969419,34.4428461 C40.7702402,34.6405324 40.735863,34.8188377 40.6945064,34.9754338 C40.6701821,35.0686999 40.6460879,35.1258505 40.6280138,35.1534181 L40.6126331,35.1768776 L40.5983515,35.2010317 C40.6048467,35.1900466 40.6007161,35.1948343 40.5808625,35.2119887 C40.5073591,35.2745641 40.4127316,35.3460564 40.3039093,35.4199849 C40.1625678,35.5160053 40.0033576,35.6124893 39.8258765,35.7094264 C39.6109673,35.8259154 39.4022724,35.9396005 39.1987584,36.0510896 C39.1725249,36.0651583 38.7231021,36.308211 38.5972189,36.3753547 C38.3538465,36.5069447 38.1405421,36.6349504 37.9477952,36.765893 C37.8439771,36.8364219 37.7470486,36.9080963 37.656752,36.9813169 C37.5630697,37.0568331 37.4736284,37.1363906 37.3907216,37.2193453 C37.1105066,37.5102675 36.8730452,37.8536961 36.6516391,38.2677711 C36.4808743,38.5873582 36.3035415,38.9290736 36.1143474,39.3023164 C35.9510936,39.6238899 35.7840494,39.92189 35.6128388,40.1970151 C35.5035439,40.3731141 35.4137022,40.4742322 35.3590005,40.5113938 C35.2976966,40.5530406 35.1682291,40.6004673 34.9679325,40.6360131 C34.650636,40.6927182 34.3140164,40.7369624 33.953391,40.7694864 C33.5504042,40.8054494 33.1633036,40.8445413 32.7936088,40.8867677 C32.3299453,40.9403124 31.9300188,41.0314397 31.5866791,41.169537 L31.5571089,41.1818936 C31.4502518,41.2282377 31.3441266,41.2816895 31.2375523,41.3419167 C31.1392521,41.3971242 31.0366743,41.460964 30.9330844,41.5313378 C30.7403887,41.6622457 30.5413912,41.8142972 30.3325062,41.9889499 C30.2245975,42.0801317 29.8539896,42.3902422 29.7905831,42.443611 C29.6096602,42.5936805 29.4258956,42.7467639 29.2456376,42.89758 C29.0926475,43.0247253 28.9470566,43.1352644 28.8114579,43.2273834 C28.7023676,43.3014939 28.6014815,43.3628424 28.5097662,43.4114316 C28.492646,43.4203486 28.4870685,43.4222817 28.4985802,43.4204819 L28.4587187,43.4267139 L28.4193625,43.4356267 C28.4062017,43.4386072 28.3560519,43.4397957 28.2710295,43.4289899 C28.1065939,43.4079441 27.9269595,43.3728125 27.7327339,43.322935 C27.5144957,43.2670664 27.2936447,43.2023537 27.0689359,43.1282925 C26.7996989,43.0393806 26.543067,42.95872 26.2960019,42.8856205 C26.0314472,42.8076783 25.7789082,42.7410479 25.5380984,42.6858251 C25.2399144,42.6169909 24.9576277,42.5810579 24.690761,42.5815092 C24.4120505,42.5839326 24.1269745,42.6247904 23.8260032,42.7005582 C23.5993369,42.756749 23.3538332,42.8258262 23.0840797,42.9086213 C22.8558953,42.9784904 22.6139019,43.0552112 22.3320394,43.146639 C22.1032247,43.2205278 21.876806,43.2880595 21.6541519,43.3489636 C21.4691015,43.3993257 21.2960674,43.4348797 21.1360338,43.4560849 C21.0457904,43.467798 20.9834644,43.4670155 20.9533068,43.4610783 C20.921706,43.454891 20.8634596,43.431968 20.781496,43.3854998 C20.6379539,43.3039209 20.4851009,43.2035459 20.3234403,43.0838773 C20.1478553,42.9538269 19.9726955,42.8134739 19.7967017,42.661568 C19.5920843,42.48541 19.3883259,42.3137428 19.1837052,42.145024 C18.961231,41.9626078 18.7489143,41.8004629 18.5428043,41.6559137 C18.3010247,41.4862618 18.0640064,41.3490681 17.8276855,41.2449945 C17.4505505,41.0866153 17.0367954,40.9940242 16.5624984,40.9485903 C16.1967709,40.9128017 15.8128593,40.8793272 15.4111096,40.8481078 C15.0518542,40.8201906 14.7135238,40.7802228 14.396119,40.7281962 C14.1949792,40.6957332 14.0674774,40.650915 14.0075131,40.6110705 L13.9839404,40.5954071 L13.9596625,40.5808774 C13.9718452,40.5881685 13.9687181,40.5854243 13.9527927,40.5665942 C13.8876095,40.4893187 13.8171383,40.3947754 13.7433346,40.2845716 C13.6466484,40.1401995 13.5517144,39.9811683 13.45852,39.8067236 C13.4222649,39.7391961 13.3919982,39.6828701 13.3268173,39.5615953 C13.2303715,39.3821418 13.1779382,39.2844863 13.1196943,39.1757382 C12.9921873,38.9377273 12.8890819,38.744518 12.7923771,38.5621585 C12.6653755,38.3231041 12.5376163,38.1070041 12.4069611,37.9119095 C12.3383853,37.8095118 12.2678004,37.7128345 12.1953615,37.6216829 C12.1237342,37.5315996 12.0491932,37.4463134 11.9709571,37.3643565 L11.9463537,37.3393232 C11.7571442,37.152335 11.5342694,36.9807502 11.2777973,36.8208568 C11.0662537,36.6889425 10.8397218,36.5592869 10.598608,36.4320531 C10.3655268,36.309058 10.1331609,36.1892372 9.89866443,36.0713484 C9.69014095,35.9667342 9.48970321,35.858016 9.29522504,35.7444952 C9.12751269,35.6464902 8.97515819,35.5455165 8.83925789,35.4430323 C8.77377153,35.39318 8.73239828,35.3507168 8.71402866,35.3232872 C8.67633328,35.2670004 8.63018682,35.1387674 8.59435218,34.9361127 C8.53727632,34.6110616 8.48951014,34.2632002 8.45141755,33.8942037 C8.40725283,33.4665417 8.3659578,33.0838199 8.32498047,32.7248251 C8.2707047,32.242945 8.17112217,31.8230594 8.01625926,31.4636476 C7.96507923,31.3480297 7.91416625,31.2458212 7.85765087,31.1445564 C7.8012775,31.0434249 7.73866213,30.9411924 7.670032,30.8387137 C7.53944204,30.6437164 7.38845009,30.4435561 7.21628577,30.2357054 C7.08554747,30.0782549 6.94888719,29.9127456 6.77371659,29.6999066 C6.72633024,29.6423181 6.67667141,29.5818948 6.61990734,29.5127675 C6.57456383,29.4575481 6.53250057,29.4062966 6.44490451,29.2995535 C6.38321234,29.224384 6.38321234,29.224384 6.32138906,29.1490902 C6.19407581,28.9946944 6.08291805,28.8460162 5.98614982,28.7015216 C5.91262058,28.5917275 5.8520482,28.4905981 5.80420732,28.398705 C5.79402253,28.3790494 5.79277101,28.3754007 5.79514793,28.3911914 L5.78761895,28.3467746 C5.7821984,28.3180351 5.78169335,28.2528128 5.79427029,28.1530476 C5.81581568,27.9833292 5.85049261,27.7991336 5.89849472,27.6029526 C5.95152755,27.3835207 6.01279335,27.1643481 6.08347581,26.9415065 C6.16457797,26.6858145 6.24289333,26.4319731 6.31851713,26.1798068 C6.39894668,25.9137123 6.46781557,25.6543155 6.52431507,25.4042786 C6.59267394,25.1006806 6.62802434,24.8172522 6.62702619,24.5490362 C6.62591044,24.2788885 6.58713008,23.9957019 6.51484531,23.6941757 C6.45554459,23.4492294 6.38677496,23.1985197 6.30765554,22.9390857 C6.23174942,22.6893322 6.15172867,22.4345384 6.0677103,22.1752828 C5.99410861,21.9491629 5.92986365,21.7272108 5.87408508,21.5076125 C5.82482306,21.3123277 5.78945732,21.1310467 5.76794944,20.9657167 C5.75607458,20.873686 5.75681214,20.8109622 5.76297663,20.7788416 C5.77523385,20.7155785 5.83158854,20.5954708 5.94726923,20.431279 C6.13871358,20.1602588 6.34852813,19.8853566 6.57549291,19.608747 C6.82368594,19.3066484 7.06749868,19.002465 7.30691584,18.6964989 C7.59884056,18.3229338 7.81770086,17.9694552 7.96218077,17.6218904 C8.11092693,17.2626879 8.20427093,16.8475389 8.25278136,16.3707398 C8.29191941,15.9860599 8.32670099,15.5963038 8.35708411,15.2002527 C8.38459529,14.843977 8.42573129,14.5079887 8.48043638,14.1921543 C8.51640687,13.9838874 8.5642095,13.8466641 8.60617173,13.780767 L7.59557051,13.1279601 L8.58482051,13.8131399 C8.6223857,13.7581225 8.73380843,13.6555558 8.92168632,13.5279209 C9.05776782,13.4354739 9.2135502,13.3413576 9.38944767,13.245768 C9.66496127,13.0960805 9.83642048,13.0028615 10.0157922,12.9051863 C10.3258746,12.7370024 10.4789252,12.654017 10.630521,12.5719908 C10.8641376,12.4459475 11.0804522,12.3154712 11.2775196,12.1815934 C11.3800869,12.1119144 11.4752244,12.0421997 11.5630994,11.9718113 C11.6614076,11.8919996 11.7476509,11.8154602 11.8279871,11.7364397 C12.0331807,11.5273303 12.2063058,11.2967614 12.3674728,11.0298969 C12.4959426,10.8171731 12.6233678,10.5913708 12.7503054,10.3515664 C12.8763456,10.1131543 12.9981873,9.8772415 13.1174827,9.64012289 C13.227306,9.42138592 13.3374555,9.21652726 13.4484594,9.02423379 C13.5468974,8.85335613 13.6461343,8.70242782 13.7460507,8.5705951 C13.803485,8.49447493 13.8475246,8.45099282 13.8754158,8.43204495 C13.9021816,8.41386162 13.9555834,8.39048473 14.0394725,8.36792362 C14.2006666,8.32432081 14.3815407,8.28723179 14.5841297,8.25663072 C14.8005571,8.22433239 15.0266236,8.19864188 15.2598634,8.18013034 C15.5263853,8.15875371 15.7904691,8.13407507 16.0546374,8.10608125 C16.3237674,8.07741635 16.5797422,8.04295867 16.8242592,8.00246447 C17.1296562,7.95218562 17.4068642,7.87689188 17.6565552,7.77191635 C17.7775677,7.71890545 17.8809475,7.66677227 17.9851742,7.60823135 C18.0898762,7.54855188 18.189432,7.48598478 18.2922304,7.41614868 C18.4893134,7.28226031 18.6891644,7.12997769 18.892065,6.9591506 C19.0378444,6.83663358 19.1696971,6.72618299 19.4239065,6.51349397 C19.5144938,6.43807921 19.6107856,6.35779831 19.7282768,6.25975759 C19.7675138,6.22701443 19.7675138,6.22701443 19.8067257,6.19428708 C19.8888113,6.12576992 19.8888113,6.12576992 19.9708413,6.05729674 C20.1244563,5.92907469 20.2723,5.81687994 20.4141378,5.72052239 C20.5132875,5.65316499 20.6069387,5.59784402 20.6936822,5.55456051 C20.7414468,5.53065527 20.7732814,5.51910599 20.7874317,5.51613873 C20.8534559,5.50287458 20.9902526,5.50891305 21.1865688,5.55278214 C21.4953117,5.62128537 21.819979,5.70996817 22.1663028,5.82010854 C22.5463473,5.94161095 22.9186262,6.05532557 23.2829521,6.16116288 C23.7384959,6.29402023 24.1554942,6.36240594 24.5398831,6.35829465 C24.921747,6.35327096 25.3324835,6.27881287 25.7850544,6.14154069 C26.151288,6.0307814 26.5208141,5.91537794 26.8931982,5.79530929 C27.2326922,5.68628218 27.5623407,5.59474593 27.8810652,5.52085504 C28.0776803,5.47565098 28.2139917,5.46846231 28.2844725,5.4821059 C28.312048,5.48757587 28.3708782,5.51070304 28.4531105,5.55726687 C28.5914393,5.63637335 28.740006,5.73543212 28.8931333,5.85200149 C29.0701314,5.98638887 29.2529474,6.13345448 29.4451204,6.29583585 C29.6384744,6.459995 29.838618,6.62655721 30.0557516,6.80447258 C30.2715918,6.98029652 30.4758926,7.1377842 30.6734004,7.2804253 C30.9242557,7.46154768 31.1704541,7.60415388 31.4186321,7.70635568 C31.7655865,7.85305202 32.1808227,7.94581244 32.661258,7.99305675 C33.0842563,8.03368919 33.4527795,8.0671794 33.8117639,8.09712791 C34.1650736,8.12660301 34.5043558,8.16879389 34.8273074,8.22327171 C35.0344298,8.25821609 35.1686311,8.30494244 35.2299967,8.3447301 L35.2626968,8.36519254 C35.2513157,8.3583229 35.2563649,8.36276876 35.2739682,8.38350499 C35.3393604,8.4608275 35.409518,8.55471417 35.482261,8.66333424 C35.5780573,8.80637741 35.6734048,8.966176 35.7681568,9.14304481 L35.7683076,9.14332622 C35.9373602,9.45817239 36.0121898,9.59770304 36.1053657,9.77206908 C36.2752134,10.0891954 36.345796,10.2211449 36.4345455,10.3877108 C36.5569489,10.6198444 36.6859068,10.8378069 36.8189154,11.0364157 C36.8886787,11.1405865 36.9589089,11.2373593 37.0301504,11.3269573 C37.10702,11.4231259 37.1841444,11.5107946 37.2645227,11.5931389 C37.53572,11.8723115 37.8832195,12.1223607 38.3038107,12.3509181 C38.6532022,12.5414685 38.989231,12.7214001 39.3221522,12.8957212 L39.3221522,12.8957212 Z M38.2794263,5.43640059 C37.8821464,5.33315066 37.4791454,5.22441237 37.0562336,5.10680731 C36.7639334,5.02599737 36.5496266,4.9363994 36.4147807,4.84945976 C36.3758087,4.82446176 36.3372022,4.79676953 36.2957397,4.76395237 C36.2539039,4.73065679 36.2044013,4.68756617 36.1502665,4.63672237 C36.0210062,4.51531991 35.8852884,4.37273232 35.7445596,4.20953305 C35.5993134,4.04252933 35.4871598,3.91401478 35.2188262,3.60685795 C35.0709849,3.43730154 34.9522304,3.30151693 34.6852313,2.9965369 C34.482452,2.76446698 34.2783177,2.55159227 34.0726947,2.35846943 C33.8972461,2.19368654 33.7230066,2.04625493 33.5490799,1.91627589 C33.3102746,1.73849778 33.0604759,1.60381797 32.7963291,1.51771362 L32.4266398,2.66816875 L32.8327613,1.53024289 C32.3934324,1.37118899 31.8947487,1.31777629 31.3345561,1.35219216 C30.8916665,1.37941286 30.4354626,1.42739367 29.9684623,1.49571674 C29.5759042,1.55314875 29.1704704,1.60940597 28.7057033,1.67146839 C28.4012064,1.71142468 28.1672774,1.71345717 28.0161679,1.68726478 C27.9186583,1.67123911 27.7984679,1.63445247 27.6489911,1.57167444 C27.4423606,1.48486302 27.2216169,1.38387341 26.9851435,1.26789088 C26.7159689,1.13489643 26.4657874,1.00890082 26.2219646,0.883079345 C25.9277817,0.73213826 25.6486865,0.597368944 25.3784299,0.476119582 C25.0812889,0.342352316 24.7874618,0.231676854 24.4994567,0.145290622 C24.1444755,0.0404243181 23.8064049,-0.00937914263 23.4786233,0.00145606648 C23.0025116,0.0192004123 22.5184342,0.158979231 22.0129576,0.405740518 C21.6130802,0.601846232 21.2102331,0.821351973 20.8020016,1.06534008 C20.4331931,1.28634666 20.067557,1.50091513 19.7034302,1.71021587 C19.4300925,1.86762543 19.2086408,1.96323618 19.0478818,2.00285269 C18.8951797,2.0400806 18.6603299,2.05559182 18.3543232,2.03863469 C17.9467576,2.0164801 17.5293021,1.98802721 17.0989303,1.95307059 C16.6135636,1.91438922 16.1568913,1.89693032 15.7212825,1.90134585 C15.162436,1.90616307 14.6645432,1.99901827 14.2303894,2.19656282 C13.997582,2.30467266 13.7824026,2.4443914 13.5753381,2.61584554 C13.4008528,2.75996615 13.2287422,2.92384407 13.0605826,3.10546755 C12.8690008,3.3123886 12.680108,3.53909225 12.4932293,3.78572148 C12.4240136,3.87707117 12.4240136,3.87707117 12.3548942,3.96829172 C12.3275572,4.00436716 12.3275572,4.00436716 12.3002285,4.04042764 C12.1840993,4.19365593 12.0929443,4.31382479 12.0044994,4.43024378 C11.7746614,4.73429172 11.6561359,4.89128348 11.5239134,5.06700449 C11.394009,5.2399578 11.2679957,5.39179997 11.145834,5.52374273 C11.0936402,5.58011548 11.0463862,5.62764804 11.004026,5.66676856 C10.9687001,5.69893573 10.9312959,5.7300978 10.8984063,5.75467458 C10.838724,5.7976099 10.7251343,5.85867707 10.5735835,5.92122778 C10.3592458,6.00992964 10.1311547,6.09633699 9.88729084,6.18108458 C9.62333371,6.27265693 9.35838674,6.36091366 9.09140081,6.44597277 C8.78402029,6.54361842 8.48563857,6.64967081 8.19765062,6.76350985 C7.8928832,6.88460188 7.61478405,7.01229438 7.36001845,7.14892149 C7.03485684,7.32268956 6.75383161,7.53206454 6.5237104,7.78061067 C6.29464634,8.02801501 6.10691945,8.32400553 5.95458305,8.66491172 C5.83271967,8.93603201 5.72362654,9.22969491 5.62768608,9.54335448 C5.53904736,9.83221751 5.45596569,10.1352331 5.37858336,10.4519457 C5.31133747,10.7261962 5.24079334,11.0012771 5.16649455,11.2799029 C5.09945568,11.5307733 5.02967466,11.7663384 4.9571862,11.9869597 C4.90564056,12.1438407 4.85276169,12.2629104 4.80413471,12.3424467 C4.79280774,12.3598528 4.76384687,12.400573 4.72938628,12.4448116 C4.69900695,12.4832264 4.65511663,12.534147 4.60323606,12.5901815 C4.48047804,12.7227683 4.33689523,12.8620133 4.17302387,13.0063871 C4.02427117,13.1377562 3.87523341,13.2696084 3.57371304,13.5364357 C3.3994343,13.6911742 3.23412399,13.8377567 2.96812218,14.0734857 C2.7369207,14.278418 2.52834889,14.480977 2.34161048,14.6826668 C1.96483936,15.0896045 1.69249176,15.4876153 1.53198866,15.8976676 L1.51841508,15.9340481 C1.36258623,16.3730056 1.3076105,16.8718468 1.33792364,17.4298089 C1.36195467,17.8761034 1.41002249,18.339033 1.48173396,18.8192759 C1.5453613,19.2439266 1.60271314,19.6621325 1.65423369,20.0758366 C1.69237735,20.3821257 1.69336256,20.6189145 1.66659349,20.7776522 C1.6386724,20.9418545 1.55898338,21.1756398 1.42262758,21.4674241 C1.24455067,21.847847 1.06111606,22.2281005 0.872231862,22.6078956 C0.663923473,23.0273972 0.476110538,23.441517 0.308771799,23.8498193 C0.0932534056,24.3775115 -0.0146536647,24.8762224 0.00160058319,25.3546793 C0.0135001955,25.6879415 0.0865965494,26.0249914 0.21407783,26.3701477 C0.316970264,26.647846 0.443114048,26.9316509 0.592771331,27.2242407 C0.736952093,27.5049933 0.89182468,27.7834881 1.05877098,28.0616624 C1.20833742,28.3116122 1.35325206,28.5588716 1.49309012,28.8026225 C1.62198434,29.0268012 1.73753279,29.2416447 1.84073593,29.4482783 C1.91202013,29.5918192 1.95694024,29.7105898 1.97722986,29.7974544 C1.99845612,29.8884976 2.01175224,30.019425 2.01240017,30.1873021 C2.01310133,30.4139279 2.00480959,30.6566299 1.98724828,30.9140133 C1.96828502,31.2010027 1.94705565,31.4879248 1.92332353,31.7776162 C1.89675131,32.1019758 1.88170972,32.4203908 1.87802312,32.7334872 C1.8733138,33.0550923 1.88550272,33.365689 1.91479843,33.6605771 C1.95160507,34.0278414 2.0302194,34.3589973 2.16072334,34.6576348 L3.25958791,34.1705149 L2.14346693,34.6160623 C2.24697967,34.8791034 2.3989733,35.1235366 2.59244102,35.3511647 C2.73428594,35.5174356 2.89206427,35.6814141 3.06747364,35.8461601 C3.27464301,36.0407353 3.50020117,36.2314949 3.74409139,36.4185511 C3.82054782,36.4774489 3.82054782,36.4774489 3.89902244,36.5379257 C3.97517631,36.59662 3.97517631,36.59662 4.05145118,36.6554052 C4.18849818,36.7610202 4.28608707,36.8361608 4.38340792,36.9109661 C4.63363002,37.1032569 4.82924878,37.2530892 5.01568779,37.3950723 C5.19124901,37.5291099 5.34257639,37.6559768 5.46890373,37.7746246 C5.51970646,37.8223389 5.56561317,37.8691117 5.60677895,37.9146593 C5.64166437,37.9532187 5.67356297,37.9919948 5.70390955,38.0324678 C5.79195499,38.1525975 5.89847898,38.3684035 6.00261214,38.6650341 C6.13603751,39.0433036 6.27560205,39.4469063 6.42985618,39.8996979 C6.58466766,40.3541805 6.7472104,40.783477 6.9177517,41.1875572 C7.13947807,41.7111657 7.41325311,42.1370216 7.75785917,42.4606786 C8.0039168,42.6917781 8.29770309,42.8805748 8.63408363,43.0319495 C8.90817479,43.1538547 9.19567363,43.2612324 9.50012936,43.3556977 C9.79554415,43.4472025 10.0965035,43.5301502 10.4049324,43.6046056 C10.6762196,43.6703352 10.9470221,43.7389028 11.2197466,43.8107155 C11.4603926,43.8740815 11.6848687,43.9415169 11.8926143,44.0125966 C12.046,44.0650592 12.1647619,44.1193029 12.2494709,44.1714968 L12.8760064,43.1400008 L12.219907,44.1526794 C12.2632729,44.1811804 12.3044243,44.2109005 12.3445341,44.2428175 C12.3926445,44.281121 12.4422368,44.3240395 12.493058,44.3717713 C12.6194002,44.4904329 12.7555541,44.6335741 12.9009658,44.8011611 C13.0560912,44.9802185 13.2211667,45.1697555 13.4244011,45.4023454 C13.5151757,45.5062535 13.5992525,45.602297 13.743803,45.7672815 C13.8353802,45.8717996 13.8790135,45.9216041 13.9267066,45.9760678 C13.9425085,45.9941136 13.9425085,45.9941136 13.9583015,46.0121523 C14.1588017,46.2421541 14.3630863,46.4550976 14.5702134,46.6496331 C14.746147,46.8148715 14.9198526,46.9622113 15.0924046,47.091511 C15.3322609,47.270762 15.5843146,47.4061134 15.8516834,47.4921539 L16.2170872,46.3403108 L15.7983157,47.473576 C16.248423,47.6422989 16.7563825,47.698232 17.3216264,47.6594502 C17.7565395,47.6306938 18.211806,47.5799875 18.6850557,47.5080028 C19.1204793,47.4417717 19.5363489,47.3825168 19.9348605,47.3300241 C20.2361832,47.289711 20.4666691,47.2877941 20.6214698,47.3141873 C20.7127134,47.3316056 20.8505123,47.3737362 21.0130016,47.4394064 C21.2155519,47.5212103 21.4330753,47.6195388 21.6662726,47.7348457 C21.9158474,47.859117 22.1682445,47.988154 22.4212507,48.1209355 C22.7085936,48.2722081 22.9950219,48.4098381 23.2812332,48.5341663 C23.5817011,48.6645896 23.8719579,48.7715954 24.1544237,48.8555141 C24.5069045,48.9598319 24.8460815,49.0099297 25.1747803,48.9983678 C25.5022317,48.9871985 25.8375189,48.9136567 26.1814178,48.785217 C26.4655647,48.6782502 26.7509231,48.5470857 27.0416628,48.3905909 C27.3076228,48.246996 27.5741603,48.0951397 27.8426929,47.9340599 C28.1211079,47.7665587 28.3574021,47.6265237 28.5790283,47.4981161 C28.8188538,47.3589506 29.0325858,47.2415424 29.2283212,47.1418324 C29.3751434,47.0663853 29.4935356,47.0203763 29.5816589,46.9990666 C29.6662117,46.9792862 29.796403,46.9659742 29.9614521,46.9657101 C30.1895483,46.965017 30.4337981,46.9722299 30.6940507,46.9873663 C30.9564973,47.0029362 31.2340982,47.0241125 31.5293152,47.0509283 C31.8538514,47.080216 32.1716507,47.0982297 32.48384,47.1051511 C32.8123816,47.1126839 33.1246532,47.1016398 33.4209671,47.071546 C33.7963665,47.0330878 34.1355586,46.9457037 34.4381451,46.7992153 L33.9180225,45.7093707 L34.3643404,46.8319199 C34.6230512,46.7275762 34.8636504,46.5762212 35.0887507,46.3832218 C35.2568211,46.2374185 35.419301,46.0787123 35.5823255,45.902635 C35.7677147,45.7024025 35.9531438,45.4797499 36.1407918,45.2331846 C36.3019464,45.020003 36.4640579,44.8064922 36.6296513,44.5892896 C36.6876333,44.5121644 37.0207169,44.0714761 37.1171252,43.9426083 C37.2509674,43.7656944 37.3786465,43.6114287 37.4966578,43.4839687 C37.5452699,43.4314644 37.5911625,43.3857036 37.633148,43.3474315 C37.6745033,43.3095413 37.7097894,43.2801733 37.740482,43.2574678 L37.0297633,42.2828973 L37.7144295,43.2762073 C37.8519562,43.1800475 38.0721842,43.0730701 38.3705079,42.9664277 C38.7464525,42.8325671 39.1444086,42.6966989 39.5623137,42.5594223 C40.0215489,42.4080933 40.4510544,42.2469134 40.8557776,42.0733649 C41.3746815,41.8515986 41.8018722,41.5723266 42.127811,41.2202911 C42.4496871,40.8726437 42.6925603,40.4281309 42.8766033,39.8900766 C43.0206242,39.4706695 43.1507414,39.0267678 43.2675367,38.5578029 C43.3779438,38.1133179 43.4827153,37.708059 43.58514,37.3306481 C43.6668115,37.0300504 43.7565789,36.804617 43.8451075,36.6568076 C43.8524489,36.6454702 43.8783651,36.6089444 43.910834,36.567575 C43.9483178,36.5195422 43.9903297,36.4703733 44.0392557,36.41753 C44.1567109,36.2906706 44.2986505,36.1536367 44.4668726,36.005141 C44.5903903,35.8973867 45.0302557,35.5090868 45.0586322,35.4841528 C45.2592292,35.3051861 45.4581769,35.1284863 45.6665802,34.9441539 C45.9006485,34.7358053 46.1110808,34.5308825 46.3012977,34.3254358 C46.4638585,34.1498593 46.6097844,33.9754796 46.738649,33.8018343 C46.9187124,33.5556669 47.0520577,33.3029594 47.1370636,33.0358879 L45.9937823,32.666751 L47.118796,33.0890016 C47.2356596,32.7731526 47.2961017,32.4281523 47.3071655,32.0558216 C47.3167819,31.7633234 47.3058962,31.4510558 47.2757347,31.120687 C47.2471756,30.8144466 47.2093218,30.5045021 47.1618427,30.1885119 C47.1182891,29.9020795 47.0771745,29.6172662 47.037929,29.3309017 C47.0020002,29.0708638 46.9770157,28.8303094 46.9625732,28.6073506 C46.9509581,28.4360632 46.9548914,28.3053448 46.969695,28.2127142 C46.9951523,28.0654705 47.0744343,27.8398752 47.2112266,27.5604322 C47.4160184,27.141937 47.599698,26.7705896 47.7814786,26.408492 C47.9998672,25.9675385 48.1879798,25.5497792 48.3502525,25.1437345 C48.5600867,24.6208774 48.665163,24.1224305 48.6493105,23.6460739 C48.6374229,23.3131195 48.5643306,22.9766953 48.4374587,22.6315366 C48.3297349,22.3421543 48.1996093,22.0544776 48.0452288,21.7637619 C47.9053993,21.4987889 47.7504421,21.2270474 47.579937,20.9472846 C47.4291122,20.7001295 47.2843334,20.4564759 47.1447648,20.2149269 C47.0147946,19.9900359 46.9022973,19.778596 46.8070268,19.5805492 C46.730128,19.4207911 46.6787702,19.2854691 46.6502142,19.175192 L45.4884834,19.4803531 L46.6580766,19.2073525 C46.6375831,19.1182888 46.6257983,18.9933796 46.6275034,18.8350695 C46.6286137,18.5918197 46.6368447,18.3462476 46.6526749,18.0906507 C46.6678095,17.8269311 46.6884289,17.5498163 46.7153573,17.2419689 C46.7443512,16.9111298 46.7624764,16.5953379 46.7694243,16.2922825 C46.7769816,15.9650316 46.7661532,15.6526931 46.7363745,15.3552383 C46.6991747,14.9840553 46.6155763,14.6446587 46.4772823,14.337957 L46.4668078,14.3153496 C46.2780889,13.9187596 45.9785285,13.5405318 45.5754345,13.1619425 C45.3698516,12.9688573 45.1451713,12.7789759 44.9003476,12.5908338 C44.8241304,12.5321323 44.8241304,12.5321323 44.7467972,12.4725792 C44.5444471,12.3167642 44.4014961,12.2068429 44.25863,12.097293 C43.9569642,11.8654176 43.8038743,11.7478778 43.6297338,11.6145913 C43.4543123,11.481624 43.3036915,11.3552812 43.1744208,11.2338691 C43.1202618,11.1830025 43.0740605,11.1362046 43.035742,11.0938292 C43.0030927,11.0574661 42.9725366,11.0200764 42.945896,10.9838913 C42.9012204,10.9210593 42.8382649,10.8032351 42.7732585,10.6461342 C42.6824447,10.4273458 42.5960711,10.198432 42.5144163,9.95934268 C42.4268292,9.70401627 42.3395962,9.43776942 42.2512439,9.15644616 C42.1535625,8.84451705 42.0485089,8.5443643 41.9357858,8.25542635 C41.8160574,7.95017509 41.6886453,7.66955805 41.5522811,7.41185354 C41.3808186,7.08546644 41.173373,6.80214579 40.9261148,6.56991882 L40.9025421,6.54777911 L40.8778239,6.52694515 C40.5340288,6.23717423 40.1045099,6.01031725 39.5905419,5.83181868 C39.1709174,5.6863531 38.7341132,5.55457013 38.2794263,5.43640059 L38.2794263,5.43640059 Z M37.6794773,7.77811372 C38.0736967,7.88056826 38.4499688,7.99408881 38.808438,8.11835435 C39.0642202,8.20718645 39.240024,8.30003988 39.3368034,8.38161137 L40.1073137,7.45427826 L39.2885125,8.3386377 C39.3282531,8.37596237 39.377576,8.44332553 39.4315723,8.54610659 C39.5252841,8.72321691 39.6150923,8.92101378 39.7017454,9.14193438 C39.7931824,9.37631618 39.8799195,9.62413624 39.9615633,9.88485094 C40.0563921,10.1867973 40.150202,10.4731177 40.2443435,10.7475472 C40.3421834,11.0340311 40.4469501,11.3116915 40.5573669,11.577705 C40.6882218,11.8939439 40.8365854,12.1716133 41.0066109,12.4098688 C41.0911335,12.5248971 41.1711329,12.6227877 41.2577465,12.7192258 C41.3445287,12.8152062 41.4365382,12.9084038 41.5368185,13.002588 C41.7298806,13.1839135 41.9451231,13.3644619 42.1814296,13.5435563 C42.3493256,13.6720804 42.5014825,13.7889038 42.8029907,14.0206571 C42.9454091,14.1298647 43.0872291,14.2389164 43.2884,14.3938233 C43.3655664,14.453248 43.3655664,14.453248 43.4427947,14.5127273 C43.6275833,14.6547345 43.7919096,14.7936097 43.9378322,14.9306614 C44.1390907,15.1196851 44.2587076,15.2707145 44.3014702,15.3605796 L45.384139,14.8379646 L44.2909957,15.3379721 C44.3137107,15.3883483 44.3349515,15.4745826 44.3473191,15.5979875 C44.3668296,15.7928745 44.3742097,16.0057496 44.3688866,16.236251 C44.3631772,16.4852895 44.3480397,16.7490268 44.3234573,17.0295279 C44.2945111,17.360442 44.2721189,17.6613822 44.2558189,17.9456498 C44.2374572,18.2419143 44.2276651,18.5340618 44.226404,18.8165151 C44.2227878,19.1500022 44.2524839,19.4647556 44.3188903,19.7533536 L44.3267527,19.7855141 C44.397651,20.0593087 44.5044635,20.340747 44.6462423,20.6352943 C44.7689361,20.890348 44.9100097,21.1554974 45.0694834,21.4314391 C45.2187721,21.6898107 45.3734371,21.9501021 45.5338978,22.2130469 C45.6787907,22.450786 45.8091124,22.6793254 45.926407,22.9015879 C46.0331809,23.1026637 46.1193745,23.2932173 46.1873872,23.4759033 C46.2286457,23.5881786 46.2476324,23.6755692 46.2495781,23.7300485 C46.2530325,23.833959 46.2165779,24.0068874 46.1233973,24.2390729 C45.9853812,24.5844182 45.8235678,24.9437726 45.6356907,25.3231545 C45.4528234,25.6873767 45.2655997,26.0658891 45.0575035,26.4911371 C44.826407,26.9632272 44.6725704,27.4009659 44.6014443,27.8138287 C44.5530107,28.1163243 44.5436317,28.4280289 44.566731,28.7685074 C44.584878,29.048743 44.6159257,29.3476736 44.6594823,29.6629123 C44.7001455,29.9596272 44.7429644,30.2562468 44.7880143,30.552506 C44.8284556,30.8216704 44.8607851,31.0863814 44.8848581,31.3444968 C44.9060354,31.5764848 44.9134427,31.7889691 44.9071775,31.9796549 C44.9034412,32.1051904 44.8882677,32.1918001 44.8687686,32.2445005 L44.8590217,32.2708434 L44.8505009,32.2976141 C44.8492893,32.3014208 44.837788,32.3232174 44.8103266,32.3607678 C44.7406748,32.4545741 44.650511,32.5623188 44.5451842,32.6760787 C44.4096945,32.8224165 44.2545451,32.9735038 44.0792809,33.1295158 C43.8711541,33.3135956 43.6695679,33.4926388 43.4731561,33.6679183 C43.447118,33.6907503 43.0118674,34.0749763 42.8893874,34.1818514 C42.658395,34.3857303 42.4590092,34.5782249 42.2831422,34.768173 C42.189315,34.8695126 42.1033271,34.9701491 42.0249904,35.0705486 C41.9437409,35.1740627 41.8683859,35.2802666 41.801018,35.3880615 C41.5751163,35.7648097 41.4051189,36.1917254 41.2690162,36.692661 C41.161634,37.0883389 41.0525501,37.5102783 40.9383256,37.9701328 C40.838274,38.3718662 40.7278787,38.7484858 40.6068383,39.1009727 C40.5239551,39.3432811 40.4397001,39.4974869 40.3716975,39.5709341 C40.2976684,39.6508904 40.1480821,39.7486812 39.9165011,39.8476533 C39.5761192,39.9936109 39.211134,40.1305783 38.8167126,40.2605501 C38.381702,40.4034451 37.9652009,40.5456448 37.568759,40.6868049 C37.0827452,40.8605403 36.6764575,41.0578974 36.345097,41.2895874 L36.3190445,41.3083269 C36.2174735,41.3834661 36.1180593,41.4662067 36.0195531,41.5564725 C35.9280927,41.6398382 35.8341523,41.7335089 35.7405443,41.8346117 C35.5646871,42.0245491 35.3867169,42.2395779 35.2032453,42.4821311 C35.1073488,42.6102865 34.7763194,43.0482568 34.7200185,43.1231945 C34.557594,43.3361911 34.393483,43.5523353 34.2326741,43.7650702 C34.0925221,43.9492163 33.9563786,44.1126895 33.8262121,44.253278 C33.720622,44.3673223 33.620532,44.4650875 33.5268959,44.5463335 C33.4968347,44.5720802 33.4764328,44.5849146 33.4717046,44.5868216 L33.4342567,44.6019251 L33.3978999,44.6195262 C33.3660078,44.6349658 33.2930946,44.65375 33.1790204,44.6654366 C32.9851144,44.6851293 32.771192,44.6926952 32.5375844,44.6873392 C32.278829,44.6816022 32.0148608,44.6666398 31.7443002,44.6422233 C31.4258585,44.6132976 31.1235756,44.5902384 30.8338571,44.5730516 C30.5251898,44.5550985 30.2325661,44.5464571 29.9559159,44.5472993 C29.6203634,44.547835 29.3113745,44.5794289 29.0293326,44.6455134 C28.7363056,44.7163411 28.4433946,44.8301707 28.1407673,44.9856988 C27.9068883,45.104831 27.6556733,45.2428295 27.3810118,45.40221 C27.1473798,45.5375732 26.9001992,45.6840598 26.6126695,45.857046 C26.3763572,45.9987971 26.1412262,46.13276 25.9085411,46.2583903 C25.7105682,46.3649509 25.521945,46.4516513 25.343637,46.5187779 C25.2312279,46.5607562 25.1454837,46.5795633 25.0922372,46.5813796 C25.0375173,46.5833037 24.9504985,46.5704507 24.832574,46.5355508 C24.646793,46.4803558 24.4464964,46.4065147 24.2318792,46.3133564 C24.0012358,46.2131665 23.7685927,46.1013804 23.5322014,45.9769324 C23.2627382,45.8355129 22.9951835,45.6987266 22.7274265,45.5654073 C22.439331,45.4229504 22.1673612,45.3000101 21.90695,45.1948379 C21.6061245,45.0732591 21.319498,44.9856258 21.0430682,44.9334342 C20.6065673,44.8588214 20.1417115,44.8626874 19.6210694,44.9323469 C19.2087405,44.9866572 18.7771946,45.0481457 18.3264873,45.1167016 C17.9181934,45.1788061 17.5298337,45.2220605 17.1613714,45.2464262 C16.9101376,45.2636599 16.7356279,45.2444441 16.6358587,45.2070455 L16.6093918,45.1971244 L16.5824909,45.1884676 C16.5800724,45.1876893 16.5603795,45.1771143 16.5244592,45.1502703 C16.4277262,45.0777833 16.3214246,44.9876167 16.2078157,44.8809143 C16.0604472,44.7425044 15.9115918,44.5873397 15.7610117,44.4146063 C15.7434398,44.3945315 15.7434398,44.3945315 15.7275443,44.3763788 C15.6796381,44.3216718 15.6358009,44.2716345 15.5442275,44.1671208 C15.4003948,44.0029555 15.3169197,43.9075994 15.2270297,43.804704 C15.0257713,43.5743754 14.8628009,43.3872554 14.7096196,43.2104426 C14.5122947,42.983025 14.3201764,42.7810476 14.1306604,42.6030524 C14.032162,42.5105419 13.9330181,42.42474 13.8333438,42.3453835 C13.7352952,42.2673624 13.6352879,42.1951356 13.5321058,42.1273223 L13.5025418,42.1085049 C13.2569294,41.9571693 12.9779787,41.8297606 12.6648509,41.7226612 C12.4014625,41.6325435 12.1220488,41.5486042 11.8270971,41.4709386 C11.5394577,41.3951986 11.2534327,41.3227766 10.9655692,41.2530313 C10.7055432,41.19026 10.4533231,41.1207453 10.206516,41.0442969 C9.99047111,40.9772632 9.79072159,40.9026589 9.60879399,40.821753 C9.50775991,40.7762739 9.4364206,40.7304289 9.39546149,40.6919597 C9.32146306,40.6224598 9.22607837,40.4740893 9.12700596,40.2401301 C8.98002639,39.8918747 8.83780955,39.5162615 8.70107674,39.1148528 C8.5441689,38.6542716 8.40181925,38.2426147 8.26585283,37.8571453 C8.08871051,37.3525389 7.8792571,36.9282091 7.62760337,36.5851702 C7.54573527,36.4758733 7.46675742,36.3798673 7.38204112,36.2862297 C7.29705795,36.1922005 7.20507874,36.098486 7.10650606,36.0059057 C6.91708154,35.8279966 6.70373861,35.6491382 6.4650549,35.4669093 C6.28069244,35.3265065 6.08763684,35.1786374 5.84005414,34.988375 C5.74379239,34.9143837 5.64690735,34.839785 5.51059061,34.7347328 C5.43445397,34.6760542 5.43445397,34.6760542 5.35821767,34.6172963 C5.27954245,34.5566649 5.27954245,34.5566649 5.20073814,34.4959619 C5.01709217,34.3551081 4.85256118,34.2159606 4.70507596,34.0774412 C4.59188139,33.9711278 4.49526517,33.870715 4.41511375,33.7767631 C4.38768169,33.7444842 4.37598989,33.7256817 4.37570889,33.7249676 L4.35845248,33.683395 C4.33783584,33.6362171 4.31690322,33.5480403 4.30394555,33.4187476 C4.28412869,33.2192682 4.27555197,33.0007171 4.27899063,32.7656395 C4.28204987,32.5062441 4.29441044,32.2445838 4.3163737,31.9764843 C4.34115103,31.6740345 4.36332502,31.3743454 4.38295651,31.0771987 C4.4041924,30.7660009 4.41445518,30.4656065 4.41356746,30.1788316 C4.4122506,29.8375411 4.38074876,29.5273413 4.31471577,29.2441154 C4.24817541,28.9592403 4.13798859,28.6679017 3.98702684,28.3639335 C3.86109044,28.1117764 3.72313094,27.8552632 3.57158332,27.5916859 C3.42490209,27.3360056 3.27248188,27.07594 3.11452109,26.8119639 C2.97422251,26.5781894 2.84530822,26.3463733 2.72644631,26.1149252 C2.61964609,25.9061202 2.53208976,25.7091313 2.46415392,25.5257793 C2.42199396,25.4116291 2.403287,25.3253706 2.40130475,25.269864 C2.39795729,25.1712749 2.43456838,25.0020705 2.52885782,24.7712037 C2.67329135,24.418792 2.83707363,24.0576588 3.01947322,23.6903332 C3.21662796,23.2939088 3.40838962,22.8963936 3.59486154,22.4980359 C3.81700095,22.022686 3.96472026,21.5893189 4.03359665,21.1842445 C4.10402149,20.7666395 4.10207764,20.2994474 4.03674774,19.7748559 C3.98273903,19.3411721 3.9226489,18.9029988 3.8561224,18.459 C3.79554468,18.0533175 3.75537828,17.6664846 3.73555084,17.2982597 C3.7214658,17.0389993 3.7418404,16.8541234 3.77942028,16.7482639 L2.64891768,16.341156 L3.7658467,16.7846445 C3.80174899,16.6929215 3.90985461,16.5349352 4.09772397,16.3320238 C4.22839714,16.1908882 4.38044252,16.043226 4.55437963,15.8890517 C4.820819,15.652935 4.98659769,15.5059372 5.15997263,15.3519985 C5.46013911,15.0863718 5.60826504,14.9553263 5.75502671,14.8257144 C5.97735354,14.6298413 6.17937298,14.4339251 6.35934955,14.2395385 C6.4522685,14.1391799 6.5369848,14.0408939 6.61349045,13.9440397 C6.6981857,13.8353575 6.77113641,13.7327858 6.83701323,13.6293478 C7.00216279,13.3596127 7.13001686,13.0717181 7.23679028,12.7467493 C7.32387059,12.4817172 7.40659521,12.2024574 7.48533005,11.907818 C7.56390057,11.6131736 7.63849177,11.3223114 7.70996831,11.0308052 C7.77660557,10.7580721 7.84724687,10.500429 7.92212361,10.2564132 C7.98948975,10.0361737 8.06326281,9.83758734 8.14314017,9.65987249 C8.19402766,9.54600088 8.24107881,9.47181497 8.27982389,9.42996771 C8.3176514,9.3891115 8.38501846,9.33892036 8.4870115,9.28441429 C8.65944973,9.1919396 8.85537149,9.10197982 9.0768673,9.01397231 C9.31148317,8.92123278 9.55817717,8.83355151 9.81462642,8.75208484 C10.1022063,8.66046514 10.3864096,8.56579392 10.6698891,8.46744864 C10.9570118,8.36766795 11.2281865,8.2649393 11.4851365,8.15860195 C11.7989975,8.02906033 12.0752868,7.88052393 12.3136303,7.70830105 C12.4274421,7.62344725 12.5244593,7.54262059 12.6210636,7.45456054 C12.7176082,7.36543413 12.8088068,7.27369784 12.9019475,7.17309977 C13.0819003,6.9787388 13.2605949,6.76341713 13.43825,6.52688826 C13.5684494,6.35385666 13.6861936,6.19789966 13.9132361,5.89754407 C14.0005745,5.78258735 14.0922525,5.66172901 14.2088985,5.50781883 C14.2362962,5.47166735 14.2362962,5.47166735 14.2636817,5.43552785 C14.3328783,5.34420547 14.3328783,5.34420547 14.4020407,5.25292613 C14.5423866,5.06770751 14.680687,4.90172344 14.8166961,4.75482458 C14.913918,4.64981849 15.0085509,4.55971219 15.0991077,4.48491394 C15.1558045,4.43796882 15.1995183,4.40958487 15.2275263,4.39657378 C15.3205014,4.35430985 15.4947999,4.32180382 15.7436427,4.3196582 C16.1067929,4.31597851 16.4926556,4.33073031 16.9077215,4.36380786 C17.3571794,4.40031613 17.7958245,4.43021325 18.2236664,4.45346933 C18.7461637,4.48242379 19.208906,4.45186086 19.615704,4.35267587 C20.0198174,4.25309222 20.4413316,4.07110544 20.8944552,3.81016016 C21.2702707,3.59414119 21.6484349,3.37222074 22.0285752,3.14442268 C22.3799014,2.93444616 22.7247718,2.74653113 23.0622108,2.58104428 C23.2868841,2.47136645 23.4566745,2.42233896 23.5624288,2.4183952 C23.6131481,2.41672928 23.7007506,2.4296346 23.8189072,2.46453602 C23.9992761,2.51864807 24.1950457,2.59238838 24.399989,2.68464918 C24.6320185,2.78874924 24.8737228,2.90546325 25.1295408,3.03671669 C25.3841589,3.16811259 25.6466201,3.30029246 25.930754,3.44067213 C26.2106124,3.57793919 26.4733785,3.69815395 26.7247106,3.80374576 C27.036815,3.93482501 27.3331279,4.02551734 27.6197961,4.07247913 C28.0240295,4.14259826 28.490675,4.13854381 29.0186206,4.06926106 C29.4952363,4.00561953 29.9101975,3.94804031 30.3136337,3.88901682 C30.715749,3.83018655 31.1056806,3.78917587 31.4807821,3.76612153 C31.7386692,3.75027804 31.9199872,3.76969853 32.0205182,3.80609462 L32.0569505,3.81862388 C32.060097,3.81964956 32.0820427,3.83148168 32.1200531,3.859778 C32.2171337,3.932331 32.3229881,4.021899 32.4350924,4.12718831 C32.5811297,4.26434779 32.730586,4.42020332 32.8834396,4.5951354 C33.1501327,4.89976673 33.2681796,5.03474223 33.4153625,5.2035427 C33.6832809,5.51022508 33.7947168,5.63791725 33.935043,5.7992477 C34.1259201,6.02061942 34.3196943,6.2242022 34.5126642,6.40544125 C34.6130209,6.49969712 34.7118145,6.58569403 34.8096256,6.66352613 C34.9144927,6.74653263 35.017581,6.82047726 35.1226455,6.88785822 C35.4783291,7.11718346 35.9109382,7.2980498 36.418911,7.43848259 C36.8525453,7.55907083 37.2684653,7.67129495 37.6794773,7.77811372 L37.6794773,7.77811372 Z" id="Combined-Shape"></path>
                    <path d="M59.2116845,33.8108517 L59.2116845,40.593639 L54.5041237,40.593639 L54.5041237,20.3009879 L61.6629588,20.3009879 C63.0928759,20.3009879 64.320822,20.4704398 65.346834,20.8093487 C66.372846,21.1482576 67.2177843,21.6148307 67.8816744,22.209082 C68.5455645,22.8033333 69.0353502,23.5043536 69.3510462,24.3121639 C69.6667422,25.1199742 69.8245878,25.9927677 69.8245878,26.9305705 C69.8245878,27.9426547 69.6620997,28.8711584 69.3371185,29.7161094 C69.0121373,30.5610605 68.5153879,31.2852934 67.8468552,31.8888298 C67.1783225,32.4923663 66.3310629,32.9635819 65.3050509,33.3024908 C64.2790389,33.6413997 63.0650204,33.8108517 61.6629588,33.8108517 L59.2116845,33.8108517 Z M59.2116845,30.2592895 L61.6629588,30.2592895 C62.888602,30.2592895 63.7706805,29.9668109 64.3092207,29.3818448 C64.847761,28.7968787 65.117027,27.9797954 65.117027,26.9305705 C65.117027,26.4663117 65.0473892,26.0438425 64.9081116,25.6631503 C64.768834,25.2824581 64.5575994,24.9551605 64.2744015,24.6812478 C63.9912036,24.4073351 63.6337297,24.1961005 63.201969,24.0475377 C62.7702083,23.8989749 62.25721,23.8246946 61.6629588,23.8246946 L59.2116845,23.8246946 L59.2116845,30.2592895 Z M81.5517067,40.593639 C81.143159,40.593639 80.8344315,40.5379287 80.625515,40.4265066 C80.4165986,40.3150845 80.2425041,40.0829586 80.1032265,39.7301219 L79.7968172,38.9362433 C79.4346953,39.2426541 79.0865064,39.5119202 78.7522401,39.7440496 C78.4179738,39.976179 78.0721061,40.173486 77.7146268,40.3359766 C77.3571476,40.4984672 76.976461,40.6191727 76.5725559,40.6980967 C76.1686507,40.7770207 75.7206477,40.8164821 75.2285333,40.8164821 C74.5692858,40.8164821 73.970401,40.7305955 73.4318607,40.5588197 C72.8933205,40.387044 72.4360324,40.1340267 72.0599828,39.7997604 C71.6839332,39.465494 71.3937758,39.0499886 71.1895019,38.5532317 C70.985228,38.0564748 70.8830926,37.4831237 70.8830926,36.8331614 C70.8830926,36.3224767 71.0130831,35.7978721 71.2730681,35.2593319 C71.533053,34.7207917 71.9833773,34.231006 72.6240544,33.7899601 C73.2647316,33.3489143 74.12824,32.979834 75.2146057,32.6827084 C76.3009713,32.3855828 77.6705142,32.2184521 79.3232756,32.1813114 L79.3232756,31.5684928 C79.3232756,30.7235418 79.1491811,30.1130506 78.800987,29.737001 C78.4527929,29.3609513 77.9583647,29.1729293 77.3176875,29.1729293 C76.8070029,29.1729293 76.3891762,29.2286396 76.064195,29.3400617 C75.7392139,29.4514838 75.4490565,29.5768318 75.1937141,29.7161094 C74.9383718,29.8553871 74.689997,29.9807351 74.4485824,30.0921572 C74.2071679,30.2035793 73.9193317,30.2592895 73.5850654,30.2592895 C73.2879397,30.2592895 73.0349225,30.1873305 72.826006,30.0434103 C72.6170896,29.89949 72.4522801,29.7207531 72.3315729,29.507194 L71.551622,28.1562076 C72.4244285,27.385538 73.3923936,26.812187 74.4555463,26.4361373 C75.518699,26.0600877 76.6584372,25.8720657 77.8747953,25.8720657 C78.7476019,25.8720657 79.5345088,26.0136625 80.2355396,26.2968604 C80.9365704,26.5800583 81.5308127,26.9746723 82.0182845,27.4807144 C82.5057562,27.9867566 82.879479,28.5879627 83.1394639,29.2843509 C83.3994488,29.9807391 83.5294394,30.7421121 83.5294394,31.5684928 L83.5294394,40.593639 L81.5517067,40.593639 Z M76.5934474,37.9613047 C77.150558,37.9613047 77.6380224,37.8638118 78.0558554,37.6688231 C78.4736883,37.4738344 78.8961575,37.1581431 79.3232756,36.7217399 L79.3232756,34.7161518 C78.4597542,34.7532925 77.7494489,34.8275728 77.1923383,34.9389949 C76.6352277,35.0504171 76.1941885,35.1896926 75.8692073,35.3568258 C75.5442261,35.5239589 75.319064,35.7143022 75.1937141,35.9278613 C75.0683642,36.1414203 75.0056902,36.3735462 75.0056902,36.624246 C75.0056902,37.1163603 75.1403233,37.462228 75.4095934,37.6618592 C75.6788635,37.8614905 76.0734776,37.9613047 76.5934474,37.9613047 L76.5934474,37.9613047 Z M95.4236906,29.3122063 C95.3122685,29.4886246 95.1938843,29.6139726 95.0685344,29.6882541 C94.9431845,29.7625355 94.7830176,29.7996756 94.5880289,29.7996756 C94.383755,29.7996756 94.1794842,29.7555717 93.9752104,29.6673625 C93.7709365,29.5791533 93.5504169,29.4839817 93.3136449,29.3818448 C93.0768729,29.2797078 92.8099281,29.1845362 92.5128024,29.096327 C92.2156768,29.0081179 91.8767729,28.9640139 91.4960807,28.9640139 C90.9482553,28.9640139 90.5281074,29.0684706 90.2356243,29.2773871 C89.9431413,29.4863035 89.796902,29.7764609 89.796902,30.147868 C89.796902,30.4171381 89.8920736,30.639979 90.0824197,30.8163973 C90.2727658,30.9928157 90.5257831,31.14834 90.8414791,31.2829751 C91.157175,31.4176101 91.514649,31.5452794 91.9139115,31.6659867 C92.3131741,31.786694 92.7217157,31.921327 93.1395487,32.0698898 C93.5573816,32.2184527 93.9659232,32.3925471 94.3651858,32.5921784 C94.7644484,32.7918097 95.1219223,33.0378632 95.4376183,33.3303462 C95.7533143,33.6228293 96.0063315,33.9779819 96.1966777,34.3958148 C96.3870238,34.8136478 96.4821954,35.3150398 96.4821954,35.9000059 C96.4821954,36.6149644 96.3522049,37.2742021 96.0922199,37.8777385 C95.832235,38.481275 95.4445847,39.001237 94.9292574,39.4376403 C94.4139302,39.8740436 93.7779051,40.2129474 93.0211633,40.454362 C92.2644214,40.6957766 91.3939492,40.8164821 90.4097205,40.8164821 C89.9176062,40.8164821 89.4254992,40.7700569 88.9333849,40.6772051 C88.4412706,40.5843534 87.9654124,40.4590054 87.5057962,40.3011574 C87.04618,40.1433094 86.6213895,39.9552874 86.2314121,39.7370857 C85.8414347,39.5188841 85.5071734,39.2844369 85.2286181,39.0337372 L86.2314121,37.44598 C86.3521194,37.2602765 86.4960375,37.1140371 86.6631707,37.0072576 C86.8303038,36.9004781 87.0485022,36.8470891 87.3177723,36.8470891 C87.5684721,36.8470891 87.7936342,36.9027993 87.9932655,37.0142214 C88.1928968,37.1256436 88.4087739,37.246349 88.6409033,37.3763415 C88.8730327,37.506334 89.14462,37.6270394 89.4556734,37.7384616 C89.7667268,37.8498837 90.1590197,37.9055939 90.6325636,37.9055939 C90.96683,37.9055939 91.2500236,37.870775 91.482153,37.8011362 C91.7142824,37.7314974 91.8999832,37.6363257 92.0392608,37.5156184 C92.1785384,37.3949112 92.2806738,37.2602781 92.3456701,37.1117153 C92.4106663,36.9631525 92.4431639,36.8099494 92.4431639,36.6521014 C92.4431639,36.3642609 92.3456711,36.1274925 92.1506824,35.941789 C91.9556937,35.7560854 91.7003551,35.5959185 91.3846591,35.4612835 C91.0689632,35.3266484 90.709168,35.2013004 90.3052628,35.0852357 C89.9013576,34.969171 89.4904948,34.8368593 89.0726618,34.6882964 C88.6548289,34.5397336 88.243966,34.3609967 87.8400609,34.1520802 C87.4361557,33.9431637 87.0763605,33.6785402 86.7606645,33.3582016 C86.4449685,33.037863 86.18963,32.6455702 85.9946413,32.1813114 C85.7996526,31.7170526 85.7021597,31.1553079 85.7021597,30.4960603 C85.7021597,29.8832387 85.8205439,29.3006026 86.0573159,28.7481347 C86.2940879,28.1956667 86.6492406,27.7105235 87.1227846,27.2926906 C87.5963286,26.8748576 88.1905709,26.5429176 88.9055295,26.2968604 C89.6204881,26.0508032 90.4561414,25.9277765 91.4125145,25.9277765 C91.9324844,25.9277765 92.4361977,25.9742017 92.9236694,26.0670534 C93.4111412,26.1599052 93.8684292,26.2898957 94.2955473,26.4570289 C94.7226654,26.6241621 95.112637,26.8214691 95.4654737,27.0489559 C95.8183104,27.2764427 96.1293591,27.5248175 96.3986292,27.7940876 L95.4236906,29.3122063 Z M107.680062,29.3122063 C107.56864,29.4886246 107.450256,29.6139726 107.324906,29.6882541 C107.199556,29.7625355 107.039389,29.7996756 106.8444,29.7996756 C106.640126,29.7996756 106.435856,29.7555717 106.231582,29.6673625 C106.027308,29.5791533 105.806788,29.4839817 105.570016,29.3818448 C105.333244,29.2797078 105.066299,29.1845362 104.769174,29.096327 C104.472048,29.0081179 104.133144,28.9640139 103.752452,28.9640139 C103.204627,28.9640139 102.784479,29.0684706 102.491996,29.2773871 C102.199513,29.4863035 102.053273,29.7764609 102.053273,30.147868 C102.053273,30.4171381 102.148445,30.639979 102.338791,30.8163973 C102.529137,30.9928157 102.782154,31.14834 103.09785,31.2829751 C103.413546,31.4176101 103.77102,31.5452794 104.170283,31.6659867 C104.569545,31.786694 104.978087,31.921327 105.39592,32.0698898 C105.813753,32.2184527 106.222295,32.3925471 106.621557,32.5921784 C107.02082,32.7918097 107.378294,33.0378632 107.69399,33.3303462 C108.009686,33.6228293 108.262703,33.9779819 108.453049,34.3958148 C108.643395,34.8136478 108.738567,35.3150398 108.738567,35.9000059 C108.738567,36.6149644 108.608576,37.2742021 108.348591,37.8777385 C108.088606,38.481275 107.700956,39.001237 107.185629,39.4376403 C106.670301,39.8740436 106.034276,40.2129474 105.277535,40.454362 C104.520793,40.6957766 103.65032,40.8164821 102.666092,40.8164821 C102.173977,40.8164821 101.681871,40.7700569 101.189756,40.6772051 C100.697642,40.5843534 100.221784,40.4590054 99.7621675,40.3011574 C99.3025513,40.1433094 98.8777608,39.9552874 98.4877834,39.7370857 C98.097806,39.5188841 97.7635447,39.2844369 97.4849894,39.0337372 L98.4877834,37.44598 C98.6084907,37.2602765 98.7524088,37.1140371 98.919542,37.0072576 C99.0866751,36.9004781 99.3048735,36.8470891 99.5741436,36.8470891 C99.8248434,36.8470891 100.050006,36.9027993 100.249637,37.0142214 C100.449268,37.1256436 100.665145,37.246349 100.897275,37.3763415 C101.129404,37.506334 101.400991,37.6270394 101.712045,37.7384616 C102.023098,37.8498837 102.415391,37.9055939 102.888935,37.9055939 C103.223201,37.9055939 103.506395,37.870775 103.738524,37.8011362 C103.970654,37.7314974 104.156354,37.6363257 104.295632,37.5156184 C104.43491,37.3949112 104.537045,37.2602781 104.602041,37.1117153 C104.667038,36.9631525 104.699535,36.8099494 104.699535,36.6521014 C104.699535,36.3642609 104.602042,36.1274925 104.407054,35.941789 C104.212065,35.7560854 103.956726,35.5959185 103.64103,35.4612835 C103.325334,35.3266484 102.965539,35.2013004 102.561634,35.0852357 C102.157729,34.969171 101.746866,34.8368593 101.329033,34.6882964 C100.9112,34.5397336 100.500337,34.3609967 100.096432,34.1520802 C99.692527,33.9431637 99.3327318,33.6785402 99.0170358,33.3582016 C98.7013398,33.037863 98.4460013,32.6455702 98.2510126,32.1813114 C98.0560239,31.7170526 97.958531,31.1553079 97.958531,30.4960603 C97.958531,29.8832387 98.0769152,29.3006026 98.3136872,28.7481347 C98.5504592,28.1956667 98.9056119,27.7105235 99.3791559,27.2926906 C99.8526999,26.8748576 100.446942,26.5429176 101.161901,26.2968604 C101.876859,26.0508032 102.712513,25.9277765 103.668886,25.9277765 C104.188856,25.9277765 104.692569,25.9742017 105.180041,26.0670534 C105.667512,26.1599052 106.124801,26.2898957 106.551919,26.4570289 C106.979037,26.6241621 107.369008,26.8214691 107.721845,27.0489559 C108.074682,27.2764427 108.38573,27.5248175 108.655001,27.7940876 L107.680062,29.3122063 Z M111.106275,45.1758505 L111.106275,26.1506196 L113.780392,26.1506196 C114.049662,26.1506196 114.274824,26.2109723 114.455885,26.3316796 C114.636946,26.4523869 114.764616,26.6334452 114.838897,26.8748597 L115.159234,27.9333645 C115.437789,27.6269537 115.737232,27.3484026 116.05757,27.0977028 C116.377909,26.8470031 116.721455,26.631126 117.08822,26.450065 C117.454984,26.2690041 117.849598,26.1274073 118.272074,26.0252704 C118.694549,25.9231334 119.15648,25.8720657 119.657879,25.8720657 C120.409979,25.8720657 121.106356,26.0391964 121.747034,26.3734627 C122.387711,26.7077291 122.94017,27.190551 123.404429,27.821943 C123.868688,28.4533349 124.233126,29.2263143 124.497753,30.1409041 C124.762381,31.055494 124.894692,32.0930969 124.894692,33.2537439 C124.894692,34.3401095 124.743811,35.3428935 124.442042,36.2621259 C124.140274,37.1813584 123.717805,37.9798715 123.174622,38.6576894 C122.631439,39.3355073 121.981487,39.8647544 121.224745,40.2454466 C120.468003,40.6261388 119.630029,40.8164821 118.710796,40.8164821 C117.958697,40.8164821 117.327314,40.7097042 116.81663,40.4961451 C116.305945,40.2825861 115.841693,39.9947499 115.42386,39.632628 L115.42386,45.1758505 L111.106275,45.1758505 Z M118.153688,29.1729293 C117.837992,29.1729293 117.552477,29.2031057 117.297135,29.2634594 C117.041793,29.323813 116.805024,29.4096996 116.586823,29.5211217 C116.368621,29.6325438 116.166671,29.7741406 115.980968,29.9459164 C115.795264,30.1176922 115.609564,30.3149992 115.42386,30.5378434 L115.42386,36.6660291 C115.748841,37.0281509 116.101673,37.2811682 116.482365,37.4250884 C116.863057,37.5690087 117.262314,37.6409677 117.680147,37.6409677 C118.079409,37.6409677 118.446168,37.5620449 118.780435,37.4041969 C119.114701,37.2463489 119.404858,36.9933316 119.650915,36.6451375 C119.896973,36.2969434 120.089637,35.8442979 120.228915,35.2871873 C120.368192,34.7300767 120.43783,34.052269 120.43783,33.2537439 C120.43783,32.4923594 120.38212,31.8516919 120.270698,31.331722 C120.159276,30.8117522 120.003751,30.3916042 119.80412,30.0712657 C119.604489,29.7509271 119.365399,29.5211224 119.086844,29.3818448 C118.808289,29.2425671 118.49724,29.1729293 118.153688,29.1729293 L118.153688,29.1729293 Z M133.641285,25.9277765 C134.736936,25.9277765 135.735077,26.0995497 136.635739,26.4431012 C137.536401,26.7866527 138.309381,27.2787597 138.9547,27.9194368 C139.60002,28.560114 140.101412,29.3377358 140.458891,30.2523257 C140.816371,31.1669155 140.995108,32.1952334 140.995108,33.3373101 C140.995108,34.4886719 140.816371,35.5262748 140.458891,36.4501498 C140.101412,37.3740248 139.60002,38.1586105 138.9547,38.8039302 C138.309381,39.44925 137.536401,39.9459994 136.635739,40.2941935 C135.735077,40.6423876 134.736936,40.8164821 133.641285,40.8164821 C132.536349,40.8164821 131.531244,40.6423876 130.625939,40.2941935 C129.720634,39.9459994 128.940691,39.44925 128.286086,38.8039302 C127.631481,38.1586105 127.125447,37.3740248 126.767967,36.4501498 C126.410488,35.5262748 126.231751,34.4886719 126.231751,33.3373101 C126.231751,32.1952334 126.410488,31.1669155 126.767967,30.2523257 C127.125447,29.3377358 127.631481,28.560114 128.286086,27.9194368 C128.940691,27.2787597 129.720634,26.7866527 130.625939,26.4431012 C131.531244,26.0995497 132.536349,25.9277765 133.641285,25.9277765 L133.641285,25.9277765 Z M133.641285,37.6131123 C134.634799,37.6131123 135.365995,37.2626022 135.834897,36.5615714 C136.303798,35.8605406 136.538245,34.7950826 136.538245,33.3651654 C136.538245,31.9352483 136.303798,30.8721116 135.834897,30.1757234 C135.365995,29.4793352 134.634799,29.1311463 133.641285,29.1311463 C132.619915,29.1311463 131.87247,29.4793352 131.398926,30.1757234 C130.925382,30.8721116 130.688613,31.9352483 130.688613,33.3651654 C130.688613,34.7950826 130.925382,35.8605406 131.398926,36.5615714 C131.87247,37.2626022 132.619915,37.6131123 133.641285,37.6131123 L133.641285,37.6131123 Z M143.362816,40.593639 L143.362816,26.1506196 L145.925511,26.1506196 C146.13907,26.1506196 146.317807,26.1691897 146.461728,26.2063304 C146.605648,26.2434711 146.726353,26.3015026 146.823848,26.3804266 C146.921342,26.4593506 146.995622,26.5638072 147.046691,26.6937997 C147.097759,26.8237922 147.141863,26.9816378 147.179004,27.1673413 L147.415775,28.5183277 C147.94503,27.7012322 148.539272,27.0559221 149.19852,26.5823781 C149.857767,26.1088342 150.577358,25.8720657 151.357312,25.8720657 C152.01656,25.8720657 152.545807,26.0299113 152.94507,26.3456073 L152.387962,29.5211217 C152.350821,29.7161104 152.276541,29.8530647 152.165119,29.9319887 C152.053697,30.0109127 151.905136,30.0503741 151.719432,30.0503741 C151.561584,30.0503741 151.375884,30.0294828 151.162325,29.9876995 C150.948766,29.9459162 150.679499,29.9250249 150.354518,29.9250249 C149.221727,29.9250249 148.330363,30.5285523 147.680401,31.7356252 L147.680401,40.593639 L143.362816,40.593639 Z M159.936772,40.8164821 C159.249669,40.8164821 158.643821,40.7166679 158.119208,40.5170366 C157.594596,40.3174054 157.153556,40.0342117 156.796077,39.6674473 C156.438598,39.3006828 156.16701,38.8573223 155.981307,38.3373524 C155.795603,37.8173826 155.702753,37.2370678 155.702753,36.5963906 L155.702753,29.1311463 L154.477116,29.1311463 C154.254272,29.1311463 154.063928,29.0591872 153.90608,28.915267 C153.748232,28.7713468 153.66931,28.5601122 153.66931,28.2815569 L153.66931,26.5963058 L155.967379,26.1506196 L156.816969,22.6269129 C156.928391,22.1812244 157.244082,21.9583835 157.764052,21.9583835 L160.020338,21.9583835 L160.020338,26.178475 L163.530117,26.178475 L163.530117,29.1311463 L160.020338,29.1311463 L160.020338,36.303909 C160.020338,36.6381754 160.101582,36.9144052 160.264073,37.1326068 C160.426564,37.3508085 160.661011,37.4599077 160.967422,37.4599077 C161.12527,37.4599077 161.257581,37.4436589 161.364361,37.4111607 C161.47114,37.3786626 161.563991,37.3415225 161.642915,37.2997392 C161.721839,37.2579559 161.796119,37.2208157 161.865758,37.1883176 C161.935397,37.1558195 162.016641,37.1395707 162.109493,37.1395707 C162.239485,37.1395707 162.343942,37.1697471 162.422866,37.2301007 C162.50179,37.2904544 162.583034,37.385626 162.6666,37.5156184 L163.975804,39.5629896 C163.418693,39.9808225 162.791953,40.2941925 162.095565,40.503109 C161.399177,40.7120254 160.679586,40.8164821 159.936772,40.8164821 L159.936772,40.8164821 Z" id="Passport"></path>
                </g>
            </g>
        </g>
    </g>
</svg>