<?xml version="1.0" encoding="UTF-8" standalone="no"?>
<svg width="465px" height="417px" viewBox="0 0 465 417" version="1.1" xmlns="http://www.w3.org/2000/svg" xmlns:xlink="http://www.w3.org/1999/xlink">
    <!-- Generator: Sketch 39.1 (31720) - http://www.bohemiancoding.com/sketch -->
    <title>Artboard 2 Copy 3</title>
    <desc>Created with Sketch.</desc>
    <defs></defs>
    <g id="Page-1" stroke="none" stroke-width="1" fill="none" fill-rule="evenodd">
        <g id="Artboard-2-Copy-3">
            <path d="M355.249558,206.684671 C354.224063,209.231468 353.022381,211.88217 351.626443,214.680823 C351.000755,215.918646 350.366032,217.183574 349.714368,218.489161 C349.27842,217.168892 348.843601,215.849753 348.443793,214.557719 C347.951375,212.965265 347.549308,211.484621 347.237594,210.115788 C347.009455,209.119657 346.893127,208.30423 346.863763,207.654825 C346.875057,207.155631 346.968797,206.471214 347.178865,205.608352 C347.538014,204.081403 347.944599,202.555584 348.414429,200.978941 C348.895553,199.335664 349.42976,197.618976 350.048671,195.717066 C350.442832,194.508608 350.795204,193.332903 351.127248,192.174138 C352.097403,193.76998 352.98737,195.318388 353.785856,196.819361 C354.579824,198.302263 355.220194,199.708366 355.725036,201.055741 C356.031103,201.883591 356.172278,202.528478 356.186961,202.930545 C356.212937,203.696278 355.941881,204.971371 355.249558,206.684671 M345.929749,265.729709 C344.977664,267.279246 344.30793,268.074343 343.525256,268.913488 C342.51896,269.992065 341.366972,271.106783 340.064774,272.257641 C338.518625,273.61518 337.021041,274.935449 335.561856,276.228612 C335.47828,276.300894 334.834522,276.865594 334.055236,277.547751 C334.182858,275.889792 334.316127,274.240868 334.464079,272.588556 C334.614289,270.910267 334.802899,269.374283 335.033296,267.965921 C335.198189,266.934779 335.394704,266.188245 335.592349,265.702603 C335.922134,264.919929 336.705938,263.690012 337.929078,262.192428 C339.8468,259.844405 341.5601,257.76405 343.248553,255.740165 C343.967981,254.867138 344.650138,254.009924 345.316484,253.159485 C345.321002,253.189979 345.32439,253.220473 345.328908,253.249837 C345.629328,255.235323 345.86989,257.188056 346.048336,259.092224 C346.206452,260.803265 346.260663,262.369743 346.214358,263.776976 C346.187252,264.701955 346.074312,265.341195 345.929749,265.729709 M329.517306,244.354682 C327.818688,246.39212 326.066989,248.517651 324.114256,250.90972 C321.888208,253.633833 320.213308,256.264206 319.112143,258.877638 C318.322692,260.815689 317.786227,262.854256 317.42369,265.120962 C317.125528,266.947202 316.883837,268.912358 316.698615,270.99949 C316.523558,272.944317 316.362054,274.892532 316.215232,276.841876 C316.081962,278.5868 315.902388,280.292194 315.681025,281.944506 C315.48338,283.402562 315.228136,284.717183 314.920939,285.87256 C314.739106,286.560364 314.560661,286.981631 314.426262,287.184923 L314.312193,287.357721 L314.206029,287.536166 C314.254593,287.454849 314.224099,287.49099 314.076148,287.617483 C313.530648,288.078278 312.827031,288.605708 312.018381,289.151208 C310.969168,289.859342 309.785557,290.570864 308.467547,291.285774 C306.871705,292.145248 305.321038,292.984392 303.808771,293.806596 C303.614515,293.909371 300.276008,295.702858 299.340865,296.197536 C297.532695,297.16882 295.948147,298.112998 294.516067,299.078635 C293.744687,299.598159 293.025259,300.126719 292.354395,300.667701 C291.658685,301.224495 290.993468,301.810654 290.377945,302.422789 C288.296461,304.568649 286.532338,307.101894 284.887931,310.155792 C283.618486,312.51285 282.301605,315.033671 280.896631,317.786019 C279.683656,320.157759 278.442445,322.355572 277.17074,324.385104 C276.358702,325.683914 275.691226,326.429318 275.284642,326.703762 C274.829494,327.010959 273.868374,327.361073 272.379825,327.623094 C270.022767,328.040972 267.522275,328.367368 264.843338,328.607931 C261.849298,328.87221 258.973846,329.161337 256.228274,329.471922 C252.783604,329.867212 249.812152,330.539205 247.261967,331.557924 L247.041733,331.649405 C246.248895,331.990484 245.460573,332.385774 244.668864,332.829628 C243.938142,333.236212 243.175797,333.707172 242.406675,334.226696 C240.974596,335.192333 239.497341,336.313828 237.945545,337.601344 C237.143671,338.274466 234.390193,340.561501 233.919234,340.955662 C232.575247,342.062474 231.209803,343.190745 229.871464,344.303204 C228.735287,345.241736 227.653322,346.057162 226.645897,346.735932 C225.836117,347.282562 225.086195,347.735451 224.405167,348.093471 C224.277545,348.158976 224.235757,348.173658 224.321591,348.160105 L224.025689,348.206411 L223.733174,348.271916 C223.636046,348.294504 223.263343,348.30241 222.630879,348.223352 C221.409998,348.067495 220.075047,347.808862 218.632803,347.440678 C217.010984,347.028447 215.371095,346.55184 213.701842,346.00521 C211.701675,345.349029 209.795247,344.753835 207.959972,344.215111 C205.994816,343.640246 204.118882,343.148957 202.329912,342.741244 C200.114029,342.234143 198.017863,341.968734 196.034636,341.972122 C193.964446,341.990193 191.84682,342.291742 189.610608,342.850795 C187.926673,343.265285 186.103821,343.774645 184.099136,344.384521 C182.403906,344.900657 180.607031,345.466486 178.513123,346.140738 C176.813376,346.685109 175.131699,347.183174 173.477128,347.632676 C172.102648,348.004248 170.81739,348.266269 169.628132,348.423256 C168.958398,348.50909 168.495344,348.503443 168.270593,348.459396 C168.035678,348.41422 167.603118,348.24481 166.994371,347.902602 C165.928217,347.300632 164.79317,346.560875 163.591488,345.677684 C162.287031,344.718823 160.985962,343.683163 159.679246,342.562798 C158.159074,341.263988 156.645678,339.997931 155.125505,338.753332 C153.472063,337.407087 151.895421,336.212182 150.363954,335.144899 C148.568208,333.894653 146.807473,332.88271 145.052386,332.114718 C142.250344,330.946918 139.176117,330.263631 135.653518,329.928199 C132.936181,329.665049 130.084446,329.417711 127.100571,329.187313 C124.431798,328.981762 121.917754,328.686989 119.560696,328.302993 C118.066499,328.06356 117.118933,327.732646 116.672819,327.439002 L116.497762,327.323803 L116.318188,327.21651 C116.40854,327.270721 116.384822,327.249262 116.266235,327.111475 C115.782852,326.541128 115.258811,325.844289 114.711051,325.03112 C113.992753,323.966096 113.286878,322.792649 112.595685,321.506263 C112.325758,321.008197 112.101008,320.592578 111.616495,319.698093 C110.900455,318.374436 110.510812,317.655008 110.078252,316.852005 C109.130686,315.096917 108.364952,313.671614 107.646654,312.326499 C106.702475,310.563505 105.753779,308.969921 104.783624,307.531066 C104.274265,306.775497 103.749094,306.062846 103.2115,305.389723 C102.679552,304.725636 102.126146,304.09656 101.544505,303.492331 L101.361542,303.307109 C99.9565684,301.928112 98.3008678,300.663184 96.3955698,299.48296 C94.8234449,298.510547 93.1406387,297.553945 91.3494101,296.615414 C89.6180397,295.708505 87.8923164,294.825314 86.1507814,293.955676 C84.6012444,293.184296 83.1126951,292.382422 81.6670629,291.544407 C80.4213346,290.821591 79.2896757,290.077316 78.279992,289.320618 C77.7943499,288.953563 77.4871531,288.640719 77.3504957,288.438557 C77.0704045,288.022938 76.7270668,287.07763 76.4616578,285.582304 C76.0370033,283.184587 75.6823717,280.61972 75.3988923,277.897866 C75.0713663,274.743451 74.7641694,271.919951 74.4603608,269.272637 C74.0571649,265.718415 73.3174079,262.6216 72.1665492,259.970897 C71.7859413,259.1182 71.4087217,258.363761 70.9885848,257.617228 C70.5695774,256.871824 70.1042645,256.117384 69.5949051,255.361816 C68.6247504,253.92296 67.5032561,252.446834 66.2236458,250.914238 C65.2523617,249.752085 64.2381604,248.531204 62.935962,246.962467 C62.5847186,246.536683 62.2154047,246.091699 61.7941385,245.581211 C61.4564479,245.174627 61.1447334,244.796278 60.494199,244.009086 C60.0356625,243.45455 60.0356625,243.45455 59.5759967,242.898885 C58.6306888,241.76045 57.8050973,240.663803 57.0856694,239.597649 C56.5390398,238.787869 56.0895385,238.042465 55.7337775,237.364825 C55.6581077,237.219132 55.6490725,237.193156 55.6671429,237.309484 L55.6106729,236.981958 C55.5711439,236.769631 55.5666263,236.288506 55.6603665,235.553267 C55.8207413,234.300762 56.0782445,232.942094 56.435135,231.495332 C56.8281662,229.876902 57.2833144,228.26073 57.8084855,226.616324 C58.4115852,224.731355 58.9932262,222.85881 59.5545381,220.998688 C60.1519907,219.03579 60.663609,217.122587 61.0837458,215.278276 C61.5908465,213.039805 61.8539967,210.949286 61.8460909,208.970577 C61.8381851,206.978315 61.5501881,204.890054 61.013723,202.665136 C60.573257,200.859225 60.0616387,199.009268 59.4743507,197.096064 C58.91078,195.254012 58.3155862,193.37469 57.6921573,191.462616 C57.1443982,189.794492 56.6677914,188.157991 56.2533015,186.538431 C55.8873759,185.097317 55.6242257,183.761237 55.4649803,182.541484 C55.3768871,181.862715 55.3825341,181.399661 55.4277101,181.162487 C55.5191915,180.696045 55.9381989,179.810595 56.796543,178.599878 C58.2195871,176.60084 59.7781593,174.572437 61.4643537,172.532741 C63.3075347,170.304434 65.1190924,168.061446 66.8967682,165.803775 C69.0663458,163.049168 70.6915526,160.441383 71.7644827,157.878774 C72.8701654,155.229201 73.5636171,152.167398 73.9238957,148.650446 C74.2141516,145.813393 74.4727842,142.93794 74.6986642,140.017311 C74.9030856,137.389197 75.2080237,134.911293 75.6146077,132.581341 C75.8630757,131.156038 76.1849548,130.201695 76.4797282,129.681041 C76.8117718,129.258646 77.5967049,128.556159 78.8921268,127.683133 C79.9040693,127.000975 81.0605751,126.306394 82.367291,125.601648 C84.413764,124.497095 85.6877273,123.81042 87.0204195,123.089862 C89.3243957,121.848652 90.4605722,121.236517 91.5865841,120.632288 C93.3224721,119.701662 94.9296085,118.739413 96.393311,117.752317 C97.1556561,117.23844 97.8615312,116.724563 98.5143244,116.205039 C99.2450463,115.616622 99.8854162,115.051922 100.482869,114.469151 C102.00643,112.926391 103.292816,111.226644 104.48998,109.258099 C105.444324,107.689362 106.390761,106.023497 107.33381,104.254857 C108.270083,102.496381 109.175862,100.755975 110.061311,99.0076638 C110.877867,97.393751 111.695553,95.8837431 112.520015,94.4652165 C113.251867,93.204806 113.988235,92.0912175 114.731381,91.118804 C115.157165,90.5574921 115.484691,90.2367425 115.6925,90.0966969 C115.891275,89.9622983 116.287694,89.7906294 116.911123,89.6246076 C118.108287,89.3027286 119.452273,89.0294138 120.956634,88.8035337 C122.5649,88.5652303 124.244318,88.3754911 125.976818,88.2388337 C127.956656,88.0807177 129.918424,87.8988842 131.880192,87.6933334 C133.87923,87.4810062 135.78114,87.2268912 137.597215,86.9287295 C139.86618,86.5571569 141.926206,86.0026215 143.780681,85.227853 C144.679684,84.8370805 145.447676,84.4519551 146.221315,84.0205243 C146.999471,83.5800582 147.739228,83.119263 148.502703,82.6042565 C149.966405,81.6160314 151.451567,80.4934077 152.959316,79.2329972 C154.041281,78.3294771 155.0216,77.5151796 156.909957,75.9464428 C157.58308,75.390778 158.29799,74.7978429 159.171016,74.0750268 C159.462402,73.8333352 159.462402,73.8333352 159.753787,73.5916436 C160.363663,73.0868017 160.363663,73.0868017 160.97241,72.5819599 C162.113104,71.6355226 163.21201,70.8088017 164.26574,70.0972796 C165.002109,69.601473 165.69782,69.1926302 166.342707,68.8741393 C166.697339,68.6968235 166.933383,68.6121185 167.038418,68.5906599 C167.528577,68.4924021 168.545037,68.5364487 170.004222,68.8605865 C172.296905,69.3654284 174.709303,70.019351 177.282077,70.8325191 C180.104447,71.7281334 182.870348,72.5672777 185.576391,73.3476932 C188.961203,74.3280125 192.059148,74.8317249 194.914271,74.8012311 C197.751324,74.7650903 200.801834,74.2150725 204.164058,73.20313 C206.884783,72.3854443 209.629225,71.535006 212.396256,70.6495563 C214.918206,69.8454234 217.366745,69.1700421 219.733968,68.6256713 C221.195412,68.2913689 222.207354,68.2382871 222.731396,68.3388037 C222.935817,68.3794621 223.372895,68.5500015 223.983901,68.8933391 C225.011655,69.477239 226.115079,70.2079609 227.252385,71.0674343 C228.567006,72.0590476 229.925675,73.1432718 231.353236,74.3404359 C232.789833,75.5522822 234.276124,76.7799401 235.888907,78.0923031 C237.492656,79.3899838 239.010569,80.5510071 240.47766,81.6024786 C242.34117,82.9385589 244.169669,83.9911599 246.013979,84.7444697 C248.59127,85.826435 251.675662,86.5108515 255.244567,86.8587067 C258.386558,87.1591272 261.124224,87.4053364 263.791867,87.6266988 C266.415463,87.844673 268.936284,88.1552581 271.33513,88.5573245 C272.874502,88.8148277 273.870633,89.1592948 274.326911,89.4529388 L274.569732,89.603149 C274.485027,89.5534554 274.522297,89.586208 274.653307,89.738677 C275.13895,90.3090241 275.660732,91.0013464 276.200586,91.8032204 C276.912108,92.8580801 277.620242,94.0371739 278.323858,95.341631 L278.324987,95.3438898 C279.58201,97.6659364 280.137674,98.6948199 280.829997,99.9800773 C282.091537,102.320194 282.615578,103.292608 283.275148,104.521395 C284.184315,106.233566 285.142046,107.840702 286.130271,109.305534 C286.648666,110.074655 287.170449,110.788436 287.699008,111.449135 C288.270485,112.158399 288.843091,112.804416 289.440543,113.412033 C291.455393,115.470929 294.036072,117.31524 297.161122,119.001434 C299.756484,120.406408 302.252458,121.733453 304.725844,123.01984 C307.06822,124.237333 309.279586,125.497743 311.363329,126.798812 C312.620351,127.586004 313.445943,128.273809 313.904479,128.803498 C314.012901,129.02486 314.134877,129.353515 314.255722,129.806405 C314.585507,131.030675 314.861081,132.378049 315.084702,133.867728 C315.321876,135.462441 315.510486,137.136212 315.648273,138.885652 C315.812036,140.949066 315.99274,142.911964 316.193773,144.799191 C316.401583,146.780159 316.666992,148.71708 316.986612,150.588496 C317.370608,152.85972 317.933049,154.914099 318.7033,156.755021 C319.094073,157.655153 319.476939,158.424274 319.904982,159.192266 C320.335283,159.95687 320.801726,160.707921 321.318991,161.475914 C322.307216,162.940745 323.440004,164.432683 324.70945,165.94382 C325.589253,167.000939 326.388868,167.965447 327.974546,169.877521 C328.677033,170.723442 329.389684,171.582915 330.333863,172.724739 C330.836446,173.332356 330.836446,173.332356 331.337899,173.938844 C332.289984,175.086314 333.114446,176.181832 333.825968,177.235563 C334.727229,178.572772 335.203836,179.551962 335.338234,180.061322 C335.370987,180.315437 335.369858,180.737832 335.291929,181.347709 C335.137201,182.567461 334.880827,183.885471 334.519419,185.297221 C334.125259,186.845628 333.648652,188.473094 333.088469,190.19317 C332.415347,192.257714 331.829188,194.142682 331.306276,195.931652 C330.750611,197.796292 330.255934,199.654155 329.829021,201.462325 C329.301591,203.640937 329.019241,205.76308 329.0215,207.779059 L329.024888,208.02301 C329.079099,209.936214 329.358061,211.945416 329.847091,214.0845 C330.26271,215.909611 330.782234,217.823944 331.404534,219.832017 C331.981657,221.697786 332.590404,223.583885 333.233033,225.49483 C333.80338,227.194577 334.294669,228.815266 334.712547,230.374967 C335.088637,231.765259 335.350658,233.055034 335.511033,234.265751 C335.596867,234.929838 335.59122,235.400798 335.546044,235.631196 C335.447786,236.133779 335.023132,237.045205 334.167047,238.267215 C332.797084,240.230113 331.254324,242.247221 329.517306,244.354682 M316.731368,307.960238 C315.988222,310.923784 315.168278,313.700979 314.269275,316.300858 C313.653752,318.088698 313.028065,319.226004 312.522093,319.766987 C311.972075,320.356533 310.860746,321.07822 309.140669,321.808942 C306.611943,322.88526 303.901382,323.894944 300.970589,324.853805 C299.468487,325.343964 298.003655,325.831865 296.561411,326.319766 C296.633693,326.178591 296.708233,326.043063 296.780515,325.901888 C298.132406,323.252315 299.391688,320.845564 300.593369,318.61161 C301.511572,316.906216 302.36088,315.686464 303.069014,314.956871 C303.089344,314.937672 303.281342,314.769391 303.520774,314.577393 C303.808771,314.344737 304.125003,314.11321 304.490929,313.865871 C305.395579,313.255995 306.471897,312.614496 307.733437,311.936856 C308.677615,311.437661 312.05678,309.623844 312.271366,309.507516 C313.819774,308.666113 315.346723,307.840521 316.945954,306.979918 C316.959506,306.972013 316.9708,306.965236 316.984353,306.95733 C316.899648,307.292762 316.817202,307.619159 316.731368,307.960238 M270.537773,345.96794 C269.331574,347.538935 268.112951,349.132519 266.918046,350.702385 C265.876739,352.059924 264.865926,353.266123 263.89916,354.302913 C263.114227,355.144316 262.371081,355.864873 261.675371,356.464584 C261.45175,356.654324 260.71651,357.004438 260.71651,357.004438 C260.479336,357.117378 259.938353,357.256294 259.090174,357.342128 C257.650189,357.487821 256.061123,357.544291 254.325235,357.504762 C252.404125,357.461845 250.442357,357.351164 248.433154,357.171589 C246.480422,356.995403 244.627076,356.856486 242.823424,356.739029 C243.649016,356.055742 244.46896,355.375843 245.309234,354.682391 C245.796005,354.275807 248.568682,351.97296 249.375074,351.29532 C250.459298,350.396318 251.47237,349.627196 252.381537,349.013932 C252.744075,348.769981 253.079506,348.563301 253.376539,348.397279 C253.610325,348.266269 253.800064,348.17027 253.969474,348.092341 C254.896711,347.73658 256.331049,347.414701 258.248771,347.195598 C260.835097,346.901954 263.564857,346.627509 266.425628,346.374524 C267.843025,346.248031 269.219764,346.095562 270.570526,345.926152 C270.56262,345.936317 270.54455,345.958905 270.537773,345.96794 M210.312512,366.13112 C208.556295,367.176945 206.810243,368.16517 205.081131,369.092407 C203.610652,369.87734 202.209067,370.51771 200.88541,371.012387 C200.049654,371.321843 199.412672,371.460759 199.017382,371.474312 C198.610798,371.487865 197.964781,371.392995 197.088366,371.136621 C195.708239,370.728908 194.22082,370.184537 192.626107,369.496732 C190.912807,368.758105 189.184824,367.933643 187.428607,367.01544 C185.426181,365.973004 183.439566,364.96445 181.449563,363.980742 C181.414552,363.963801 181.381799,363.949119 181.346788,363.932178 C182.217555,363.671287 183.090581,363.404748 183.970384,363.122398 C185.988622,362.472993 187.697404,361.935399 189.293247,361.449757 C191.012194,360.925715 192.530108,360.50219 193.905717,360.16337 C194.880389,359.919419 195.622405,359.813256 196.127247,359.809868 C196.603854,359.808738 197.376363,359.905867 198.356683,360.130617 C199.794409,360.458143 201.322487,360.85908 202.942047,361.332299 C204.583066,361.814553 206.313307,362.354406 208.148582,362.956376 C209.840423,363.509782 211.509676,363.994295 213.168765,364.43702 C212.268633,364.966709 211.325584,365.525762 210.312512,366.13112 M148.756818,360.67047 C145.724379,361.129007 142.838761,361.448627 140.102225,361.628202 C138.235326,361.754695 136.938775,361.61352 136.197889,361.337946 C134.65174,360.383603 133.862289,359.718386 133.018627,358.932324 C131.924239,357.911346 130.818556,356.766134 129.69932,355.4933 C129.095091,354.807754 128.768695,354.438441 128.088796,353.66706 C127.020383,352.456343 126.400343,351.752727 125.732867,350.99377 C124.237541,349.295153 123.026825,347.915026 121.889519,346.611698 C121.885001,346.60718 121.881613,346.603792 121.878225,346.599274 C123.140894,346.738191 124.413728,346.87033 125.72835,346.971977 C128.598155,347.193339 131.332433,347.430513 133.946994,347.683499 C135.833092,347.863073 137.207572,348.169141 138.050105,348.519255 C138.523323,348.728194 139.28228,349.164142 140.169989,349.783053 C141.320848,350.583798 142.543988,351.512165 143.845057,352.570413 C145.248901,353.719013 146.665169,354.904883 148.080307,356.11447 C149.711161,357.511538 151.357826,358.822772 153.023692,360.047042 C151.624365,360.246945 150.210356,360.451367 148.756818,360.67047 M94.075782,332.173447 C92.1445078,331.711522 90.270833,331.198775 88.4378166,330.634074 C86.8318096,330.140527 85.3489073,329.589379 83.9970154,328.993056 C83.2459643,328.657624 82.7162756,328.318804 82.412467,328.035325 C81.8624491,327.522577 81.1543153,326.428188 80.4179464,324.703594 C79.3258165,322.134209 78.2698274,319.363791 77.2544967,316.403633 C76.1849548,313.286489 75.2080237,310.482188 74.2740098,307.84391 C75.5547495,308.555432 76.8524302,309.252271 78.1907694,309.918618 C79.8193643,310.731786 81.4423123,311.561895 83.0720367,312.415721 C84.4939514,313.161125 85.8063143,313.906529 87.0068667,314.649675 C87.7850233,315.131928 88.3632762,315.570136 88.7687308,315.948485 C88.9494349,316.141612 89.1233625,316.33474 89.2871255,316.539161 C89.5197819,316.829417 89.7569559,317.151296 89.9952594,317.505928 C90.6073942,318.412836 91.2488935,319.490284 91.916369,320.736012 C92.644832,322.100327 93.4218593,323.547089 94.3795906,325.321376 C94.8166685,326.132286 95.2096997,326.85849 95.930257,328.190053 C96.4136402,329.083408 96.6372614,329.496769 96.8958941,329.975634 C97.5351345,331.162634 98.2059982,332.287516 98.8904147,333.383034 C97.2855371,332.971933 95.6840477,332.560831 94.075782,332.173447 M56.0003159,285.967429 C55.2854056,285.421929 54.5659778,284.871911 53.5529059,284.097143 C52.9870764,283.664582 52.9870764,283.664582 52.421247,283.230893 C51.8362177,282.78365 51.8362177,282.78365 51.2511884,282.336408 C49.8868731,281.29736 48.6648622,280.270735 47.5693441,279.248628 C46.727941,278.464824 46.0107719,277.723938 45.415578,277.031616 C44.8407134,275.994826 44.6859856,275.344292 44.5888572,274.391078 C44.4420351,272.91947 44.3787887,271.307816 44.4036355,269.574187 C44.4262235,267.659853 44.5188344,265.730838 44.681468,263.753258 C44.8655602,261.522693 45.0304526,259.312457 45.1761452,257.120292 C45.257462,255.945715 45.3150614,254.793727 45.3523316,253.663198 C45.5206123,253.869878 45.6708225,254.075429 45.8424913,254.282109 C46.2874749,254.819704 46.2874749,254.819704 46.744882,255.37311 C47.3954164,256.160302 47.7093897,256.540909 48.0482097,256.949752 C48.4739936,257.463629 48.8455662,257.91426 49.2024566,258.344561 C50.5204666,259.933627 51.5504795,261.172579 52.534187,262.348285 C53.4365777,263.43025 54.1955345,264.42864 54.80654,265.335548 C55.0448434,265.68905 55.2549118,266.029 55.4367453,266.353138 C55.5869555,266.620805 55.7202247,266.885085 55.8410705,267.15727 C56.1776317,267.932039 56.5175812,269.359601 56.7378142,271.296522 C57.0359758,273.888495 57.3352669,276.648749 57.6571459,279.742176 C57.9609545,282.661675 58.3483388,285.439999 58.8046164,288.103125 C57.9564369,287.459367 57.0483992,286.767045 56.0003159,285.967429 M43.6898547,211.326505 C43.3679756,212.738255 42.9670386,214.240357 42.4847847,215.822647 C41.9449315,217.610487 41.3915254,219.392681 40.8177902,221.188427 C40.1649969,223.229253 39.5969087,225.24862 39.1090078,227.252176 C38.8605398,228.259601 38.6448244,229.255732 38.4573439,230.240569 C37.5752825,228.728302 36.687574,227.211518 35.7535601,225.660851 C34.7111238,223.937387 33.7533925,222.227475 32.8702016,220.519822 C32.0773627,218.98045 31.4268282,217.526912 30.9219864,216.17502 C30.6091425,215.332487 30.4702263,214.696635 30.4555441,214.286663 C30.4306973,213.560459 30.7028828,212.312471 31.4031108,210.609336 C32.4760409,208.010586 33.6924049,205.346332 35.047685,202.636901 C36.5125169,199.712884 37.9366905,196.780961 39.321335,193.843391 C39.4207222,193.633323 39.4986508,193.434549 39.5935205,193.226739 C39.9492815,194.483761 40.3231129,195.743042 40.7376028,197.007971 C41.3248908,198.805975 41.8862027,200.580263 42.4204089,202.325186 C42.9094392,203.91764 43.3273172,205.429907 43.6785607,206.872151 C43.9055701,207.809553 44.0072161,208.54931 44.0094749,209.040599 C44.0117337,209.563512 43.9146053,210.334892 43.6898547,211.326505 M40.6551566,151.57898 C40.961224,150.890046 41.7348631,149.783234 43.0573906,148.364708 C44.0286747,147.323401 45.1580748,146.234659 46.4501086,145.097353 C48.4288176,143.355818 49.6609931,142.271594 50.9485092,141.136547 C53.177945,139.177038 54.2791101,138.210271 55.3689813,137.254799 C56.0172569,136.68784 56.6226154,136.120881 57.2234562,135.555051 C57.1139044,136.5749 56.9964468,137.586842 56.9140006,138.638314 C56.6994146,141.415509 56.4543348,144.14301 56.1787611,146.832112 C55.9845043,148.734021 55.6660135,150.138995 55.3068642,151.000727 C54.9296446,151.901989 54.1266411,153.188375 52.884301,154.767277 C51.1958478,156.909749 49.4735127,159.043186 47.7172955,161.165328 C45.7577863,163.537069 43.9371933,165.905421 42.2566459,168.268126 C42.1459647,168.422854 42.0465775,168.578711 41.9392845,168.733439 C41.7246985,167.181643 41.4999478,165.623071 41.2627738,164.052075 C40.8121432,161.060294 40.5139815,158.20743 40.3671595,155.491222 C40.2677723,153.678535 40.4033003,152.376337 40.6551566,151.57898 M69.8908079,109.264876 C70.3866146,107.253414 70.9106562,105.352634 71.4674505,103.553499 C71.9677747,101.928292 72.5155338,100.463461 73.1095983,99.1533564 C73.4868179,98.3130827 73.8369319,97.766453 74.124929,97.4569974 C74.4061496,97.1554476 74.9064738,96.7861337 75.6631719,96.3840673 C76.945041,95.7019096 78.3997084,95.0378224 80.0452444,94.3895467 C81.7879087,93.7051302 83.6209251,93.057984 85.5262231,92.4571431 C87.6619187,91.7817618 89.7738969,91.0837926 91.8790988,90.3575883 C92.9700993,89.9814981 94.0272178,89.5997608 95.0572307,89.2112472 C94.753422,89.7883706 94.4473546,90.3564589 94.1469342,90.9516528 C93.3202133,92.5836359 92.4709044,94.2167485 91.5911017,95.8668021 C90.8061686,97.3406692 90.0257532,98.7140197 89.2509847,99.9879831 C88.7314606,100.84068 88.2684066,101.452815 87.9036104,101.823258 C87.8437521,101.879728 87.6246485,102.072856 87.3648865,102.282924 C87.1423947,102.459111 86.810351,102.700802 86.4184492,102.965082 C85.4720119,103.603193 84.3821408,104.255986 83.1544829,104.913297 C82.01153,105.527691 80.8663182,106.144343 78.551048,107.391201 C77.2104501,108.115146 75.9410043,108.800692 73.8979195,109.902987 C72.1089498,110.868624 70.4679314,111.853461 68.962441,112.866533 C69.2730261,111.66711 69.5960345,110.46204 69.8908079,109.264876 M115.972591,71.4028662 C116.621996,70.5558161 117.303025,69.66359 118.169275,68.5285429 C119.089736,67.3223436 119.089736,67.3223436 119.603613,66.6492211 C120.647178,65.282647 121.673803,64.0583772 122.684616,62.9752825 C123.406303,62.200514 124.109919,61.5352974 124.781912,60.9841501 C125.203179,60.6385537 125.528446,60.4284853 125.736255,60.3324863 C126.427448,60.0207718 127.721741,59.781339 129.570569,59.7655274 C132.267576,59.7384218 135.133994,59.8468442 138.218385,60.0907946 C141.331012,60.3426509 144.36684,60.5459429 147.339421,60.7119647 C146.678722,61.2597237 146.083528,61.7521422 145.527863,62.211808 C143.61353,63.8020034 142.626434,64.6230773 141.52414,65.542409 C140.46815,66.4255999 139.47089,67.1800391 138.527841,67.8158914 C138.13481,68.0824298 137.785825,68.2992747 137.483146,68.4709435 C137.245972,68.6030833 136.991857,68.7307055 136.7784,68.8233163 C136.431674,68.9667501 135.694176,69.1655245 134.711598,69.3258994 C133.233213,69.5687204 131.670124,69.7776594 130.009905,69.9538458 C128.199477,70.1447144 126.387919,70.3118657 124.567326,70.4575583 C122.439536,70.6247095 120.355793,70.8596247 118.326261,71.1611746 C117.460011,71.2910556 116.637808,71.444654 115.822381,71.6016406 C115.873204,71.5338766 115.91951,71.472889 115.972591,71.4028662 M176.25884,51.0973815 C178.868884,49.548974 181.430363,48.1620706 183.936502,46.9423185 C185.605755,46.1325386 186.867295,45.7711306 187.653358,45.7428956 C188.029448,45.7304722 188.679983,45.8253418 189.558656,46.082845 C190.898124,46.4815232 192.352792,47.0258941 193.875223,47.705793 C195.598688,48.4737851 197.394434,49.3343879 199.294085,50.3034132 C201.18583,51.2724385 203.135175,52.2471108 205.246023,53.2827707 C205.645831,53.4770276 206.019663,53.6453082 206.410435,53.8305298 C203.929143,54.6211099 201.46818,55.3879726 199.027546,56.1209532 C197.13806,56.6901709 195.678875,56.9533211 194.703073,56.9657445 C193.789389,56.9747797 192.366345,56.7432527 190.528811,56.2113052 C187.967331,55.4726776 185.35277,54.6798387 182.665927,53.8271416 C180.06153,53.0038089 177.572332,52.318263 175.155416,51.7467866 C175.523601,51.5288124 175.889526,51.3164851 176.25884,51.0973815 M237.805499,56.5896543 C240.792763,56.1548352 243.688545,55.852156 246.475904,55.682746 C248.391367,55.5652884 249.737612,55.7087222 250.485274,55.9775194 C251.945589,56.9081451 252.731651,57.5688442 253.564019,58.3458715 C254.649373,59.357814 255.759573,60.5064139 256.89462,61.7973182 C258.876717,64.043695 259.753132,65.0398259 260.846391,66.2844249 C262.29767,67.933349 263.128909,68.8797863 263.877701,69.7324834 C261.718288,69.5483912 259.471911,69.3439698 256.957866,69.1045369 C255.054827,68.9181859 253.657759,68.6087303 252.840074,68.2653927 C252.313773,68.0496772 251.671145,67.6803634 250.871529,67.1066281 C249.695824,66.2640957 248.451225,65.310882 247.126438,64.2390812 C245.609654,63.0057763 244.201292,61.8413648 242.833589,60.6893767 C241.160947,59.2855323 239.561717,58.0093102 237.998627,56.8302165 C237.894722,56.7511585 237.788558,56.6845239 237.683524,56.6065953 C237.723053,56.6009483 237.764841,56.5953013 237.805499,56.5896543 M300.909601,87.7836854 C302.674854,88.3924321 303.90477,89.0237668 304.650175,89.5929844 C304.911066,89.885499 305.211486,90.3214475 305.537883,90.9381 C306.234723,92.2448159 306.902198,93.7040008 307.545956,95.3325958 C308.224726,97.0617074 308.869613,98.8890768 309.476101,100.812445 C310.082589,102.731296 310.684559,104.55076 311.28653,106.317141 C309.443349,105.348116 307.582097,104.358762 305.642917,103.309549 C303.98044,102.412805 302.827323,101.589472 302.175659,100.921997 C301.98592,100.729999 301.802957,100.523319 301.607571,100.280498 C301.409926,100.033159 301.173881,99.7101506 300.918637,99.3318016 C300.291819,98.4034347 299.652579,97.3305046 299.00995,96.1209171 C298.324404,94.8424362 297.795845,93.8621169 296.532046,91.519741 C295.837465,90.2277073 295.277283,89.190918 294.020261,86.8666125 C293.759369,86.3843587 293.490572,85.933728 293.224034,85.4695446 C295.893935,86.1754197 298.46445,86.9422824 300.909601,87.7836854 M334.189635,134.068761 C334.76224,134.506968 334.76224,134.506968 335.335976,134.946305 C336.709326,135.993259 337.930208,137.017625 339.013302,138.028438 C340.464582,139.381459 341.33309,140.462295 341.674169,141.132029 C341.828897,141.511508 341.971201,142.10896 342.055906,142.950363 C342.20047,144.38809 342.25581,145.957956 342.216281,147.658833 C342.173364,149.495237 342.060424,151.440064 341.87859,153.509125 C341.730639,155.185155 341.607534,156.750503 341.504759,158.250347 C340.052351,156.497518 339.269676,155.554469 338.393262,154.500738 C337.487483,153.423291 336.733044,152.429419 336.107356,151.501052 C335.850982,151.121573 335.639784,150.780494 335.471504,150.482333 C335.334846,150.236124 335.209483,149.984267 335.105578,149.747093 C334.95198,149.377779 334.743041,148.614305 334.571372,147.596715 C334.314998,146.096872 334.101541,144.541688 333.932131,142.928905 C333.748039,141.188499 333.580888,139.381459 333.429548,137.47729 C333.31322,135.998906 333.153975,134.561179 332.975529,133.141523 C333.35162,133.428391 333.74691,133.73107 334.189635,134.068761 M374.013412,202.310504 C373.925319,199.855188 373.382077,197.373896 372.440158,194.828228 C371.639413,192.693662 370.672646,190.571519 369.526305,188.426788 C368.487257,186.472926 367.336398,184.46937 366.069212,182.404827 C364.948847,180.581975 363.873658,178.7851 362.836868,177.004036 C361.871231,175.344947 361.035475,173.785245 360.327341,172.324931 C359.785229,171.204566 359.418174,170.253611 359.201329,169.463031 C359.062413,168.814755 358.982226,167.934953 358.994649,166.825882 C359.002555,165.032394 359.063543,163.220837 359.181,161.335868 C359.29394,159.391041 359.446409,157.346827 359.647442,155.075603 C359.862029,152.636099 359.996427,150.307276 360.04838,148.072193 C360.10485,145.657536 360.024662,143.354689 359.8033,141.160264 C359.526597,138.422598 358.905427,135.919848 357.878802,133.65653 L357.800873,133.490508 C356.398158,130.565362 354.17324,127.775743 351.1792,124.982737 C349.652251,123.558563 347.982998,122.158107 346.163535,120.771204 C345.597705,120.337514 345.597705,120.337514 345.02284,119.898178 C343.519609,118.749578 342.457973,117.938668 341.396337,117.131147 C339.155607,115.420106 338.018301,114.553856 336.725138,113.570149 C335.42181,112.58983 334.302575,111.658074 333.342584,110.76246 C332.940518,110.387499 332.59718,110.041903 332.312572,109.729059 C332.069751,109.461391 331.842741,109.185818 331.645096,108.91815 C331.313052,108.455096 330.845481,107.585458 330.362098,106.427823 C329.687846,104.81391 329.046346,103.125457 328.439859,101.362463 C327.789324,99.4786236 327.141048,97.5145968 326.484867,95.4398888 C325.758663,93.1393008 324.978247,90.9256766 324.141362,88.7944985 C323.252524,86.5424747 322.306087,84.4734137 321.291885,82.5726333 C320.019051,80.1647523 318.47742,78.0753621 316.641016,76.3620621 L316.465959,76.1994285 L316.281866,76.04583 C313.728293,73.909005 310.537737,72.2352341 306.719236,70.9183535 C303.602091,69.8454234 300.357325,68.8741393 296.979289,68.0022424 C294.028166,67.2410268 291.035256,66.4380233 287.893265,65.570644 C285.721429,64.9754501 284.130104,64.3147511 283.128326,63.6732518 C282.83807,63.4880302 282.551202,63.2847382 282.244006,63.0419171 C281.933421,62.7968373 281.565236,62.4783465 281.16317,62.1033856 C280.20318,61.2089007 279.194625,60.1562998 278.148801,58.9534887 C277.070224,57.7213132 276.236726,56.7737465 274.243335,54.5081699 C273.145558,53.2579239 272.263497,52.256146 270.28027,50.006381 C268.77365,48.2942104 267.256866,46.7243443 265.729917,45.3001707 C264.426589,44.0849362 263.132297,42.9973239 261.840263,42.0384632 C260.147292,40.7882173 258.378652,39.836133 256.516271,39.1991513 L256.51853,39.1912455 C256.459801,39.1697869 256.397684,39.1539753 256.337826,39.1325167 C256.307332,39.1223521 256.277968,39.1087993 256.247474,39.0986347 L256.246344,39.1031523 C253.049013,38.0031166 249.437191,37.631544 245.389421,37.8777532 C242.099479,38.0787864 238.710149,38.433418 235.240632,38.9371305 C232.324521,39.3606555 229.31241,39.7751454 225.859834,40.2336818 C223.598775,40.5284552 221.860629,40.5431374 220.738005,40.35001 C220.014059,40.231423 219.120704,39.960367 218.010504,39.4973129 C216.475649,38.8569431 214.83576,38.111539 213.078413,37.2565831 C211.079375,36.2751344 209.220382,35.3467675 207.409954,34.4184006 C205.224565,33.3048121 203.150986,32.31094 201.142913,31.4164551 C198.936065,30.4304888 196.752935,29.6139325 194.613851,28.9769509 C191.976702,28.2033118 189.464916,27.8362568 187.031058,27.9153148 C183.493777,28.0463252 179.897767,29.0774675 176.142512,30.8980605 C173.17219,32.3436926 170.179279,33.9632524 167.14684,35.7623868 C164.406915,37.3921111 161.690708,38.9755301 158.985795,40.51942 C156.955133,41.6804434 155.310727,42.385189 154.115821,42.6777037 C152.981904,42.9521479 151.236981,43.0662173 148.963498,42.9419833 C145.936706,42.7782203 142.835373,42.5681519 139.638041,42.3095192 C136.032996,42.0249104 132.640278,41.8961588 129.404547,41.9289114 C125.252872,41.9639228 121.554087,42.6494687 118.32852,44.1063948 C116.599408,44.9037513 115.001307,45.9337642 113.463064,47.1986923 C112.166513,48.2614578 110.888032,49.469916 109.638916,50.8093845 C108.215871,52.3363334 106.812027,54.0078456 105.423994,55.8273092 C104.910117,56.5004317 104.910117,56.5004317 104.39624,57.1735541 C104.194078,57.4400926 104.194078,57.4400926 103.990786,57.7055016 C103.127924,58.8360311 102.450284,59.7226102 101.794102,60.5809543 C100.086449,62.8239429 99.2055173,63.981578 98.2240686,65.277 C97.2584315,66.5532221 96.3221588,67.673587 95.4152505,68.6460005 C95.0278663,69.0616197 94.6766228,69.4128632 94.3615202,69.7008602 C94.0994994,69.9380342 93.821667,70.1684318 93.5765871,70.3491359 C93.1338623,70.6664973 92.2902004,71.1171279 91.1641885,71.5779232 C89.5717343,72.2318459 87.8776342,72.8699569 86.0660764,73.4945152 C84.1054378,74.1698965 82.1368934,74.8204309 80.1536668,75.4483774 C77.8700197,76.1689347 75.6530073,76.9504795 73.5139235,77.7907532 C71.2506057,78.6841087 69.1838035,79.6260284 67.2920583,80.6334533 C64.8762714,81.9153224 62.78914,83.4592124 61.0792282,85.2922288 C59.3772223,87.1173394 57.9835425,89.3004698 56.8507542,91.8145144 C55.9461047,93.814682 55.1351954,95.9797421 54.422544,98.2938829 C53.7641037,100.423932 53.1474512,102.659014 52.5725866,104.994614 C52.0733917,107.017369 51.5493501,109.046901 50.9970734,111.10128 C50.499008,112.952367 49.9806133,114.689384 49.4418895,116.31685 C49.0590228,117.474485 48.6659916,118.352029 48.3045835,118.939317 C48.2210079,119.066939 48.0052925,119.36736 47.7500481,119.693756 C47.5241681,119.977236 47.1977714,120.353326 46.812646,120.765557 C45.9012201,121.744747 44.833937,122.771372 43.6164437,123.836396 C42.5118904,124.804292 41.4050782,125.776705 39.1643484,127.74525 C37.8700559,128.887073 36.642398,129.967909 34.6659478,131.706056 C32.9481302,133.218323 31.3985932,134.712519 30.0116899,136.199939 C27.2130364,139.200755 25.1902808,142.137195 23.9976343,145.160599 L23.8971177,145.429397 C22.7394825,148.667387 22.3306397,152.345843 22.5553903,156.461377 C22.7349649,159.753578 23.0918554,163.167755 23.6238028,166.709554 C24.0970215,169.84138 24.5228053,172.926901 24.905672,175.97854 C25.1891514,178.237341 25.1959278,179.983393 24.9971534,181.154581 C24.7904732,182.365298 24.1975381,184.089892 23.1855956,186.241399 C21.8619387,189.047958 20.4998821,191.852259 19.0960378,194.653171 C17.5487596,197.747728 16.1539505,200.801625 14.910481,203.813736 C13.310121,207.705648 12.5082469,211.384105 12.6290927,214.912351 C12.7171859,217.371055 13.2604274,219.856864 14.2068647,222.402532 C14.9714686,224.451264 15.9088707,226.544042 17.0202004,228.702326 C18.0920011,230.772516 19.2417304,232.826895 20.4818117,234.879015 C21.5931414,236.722196 22.6694597,238.546177 23.7085078,240.344182 C24.6662391,241.997624 25.5245832,243.582172 26.2914459,245.105733 C26.8211346,246.16511 27.1543076,247.040396 27.3045178,247.681895 C27.4626338,248.352759 27.562021,249.318396 27.5665386,250.556218 C27.5721856,252.22773 27.5100686,254.017829 27.3790582,255.916351 C27.2390126,258.033976 27.0808966,260.149343 26.9047102,262.286168 C26.7070652,264.678237 26.5952545,267.027389 26.5681489,269.337013 C26.5331375,271.708753 26.6234895,273.999176 26.8414638,276.174401 C27.1023552,278.759598 27.6568906,281.095197 28.5479873,283.218469 L28.5400815,283.221858 C28.5604107,283.272681 28.5875163,283.322374 28.6078455,283.373197 C28.6304335,283.42402 28.6462451,283.478231 28.6677037,283.529054 L28.6767389,283.524537 C29.4402134,285.348518 30.5142729,287.053912 31.8752001,288.644108 C32.9289304,289.870636 34.1012477,291.079094 35.4045754,292.294329 C36.9428184,293.729796 38.6188482,295.137029 40.4304059,296.516026 C40.9984942,296.950845 40.9984942,296.950845 41.5812647,297.396958 C42.1470941,297.829519 42.1470941,297.829519 42.714053,298.263208 C43.7316425,299.042494 44.4567173,299.59703 45.1795334,300.148177 C47.038526,301.566704 48.492064,302.671257 49.8767085,303.718211 C51.1811656,304.707565 52.3049187,305.643838 53.2434502,306.517994 C53.6206699,306.870367 53.9617487,307.214834 54.2678161,307.551395 C54.5264488,307.836004 54.7636228,308.121742 54.9895028,308.419904 C55.6434255,309.306483 56.4340056,310.897807 57.2076446,313.085455 C58.1992579,315.876203 59.2360472,318.852172 60.3823884,322.191809 C61.5321177,325.543868 62.7394464,328.710706 64.0066333,331.691193 C65.6532987,335.552612 67.6873483,338.694603 70.246569,341.081026 C72.0750677,342.78529 74.2570688,344.177841 76.7564312,345.294817 C78.7927396,346.19382 80.9284352,346.985529 83.1894943,347.682369 C85.3839187,348.35775 87.6201309,348.968756 89.9116838,349.518774 C91.9265336,350.003286 93.9379952,350.509258 95.964139,351.038946 C97.7519794,351.506518 99.4189739,352.003454 100.962864,352.527496 C102.035794,352.892292 102.873809,353.268382 103.49385,353.632049 C103.778458,353.821788 104.054032,354.016045 104.319441,354.226113 C104.677461,354.508463 105.045645,354.824696 105.422865,355.177068 C106.361396,356.052353 107.373339,357.107213 108.453045,358.343906 C109.606163,359.664175 110.831562,361.062372 112.34157,362.777931 C113.015822,363.544794 113.64038,364.252928 114.71444,365.469292 C115.394339,366.240672 115.718476,366.607727 116.073108,367.009793 C116.190566,367.143063 116.190566,367.143063 116.308023,367.275202 C117.796573,368.971561 119.314486,370.542557 120.853859,371.976895 C122.160575,373.196647 123.45035,374.28313 124.732219,375.236344 C126.394696,376.470778 128.140748,377.40931 129.979412,378.046291 L129.976023,378.054197 C130.069764,378.089208 130.165763,378.116314 130.259503,378.150196 C130.297902,378.162619 130.335173,378.17956 130.372443,378.191984 L130.373572,378.188596 C133.619468,379.321384 137.257266,379.700862 141.292613,379.425289 C144.523826,379.212962 147.90525,378.83913 151.421073,378.308312 C154.655675,377.820411 157.744584,377.383333 160.704742,376.995949 C162.943213,376.698917 164.655383,376.684235 165.806242,376.879621 C166.483882,377.007243 167.507119,377.317828 168.714447,377.802341 C170.218808,378.40544 171.83498,379.131645 173.56748,379.982083 C175.420825,380.898027 177.295629,381.850111 179.176081,382.829301 C181.310647,383.945148 183.438437,384.960479 185.563968,385.877552 C187.795662,386.838671 189.952816,387.628122 192.051242,388.247033 C194.669191,389.017284 197.188883,389.386598 199.630646,389.300763 C202.063374,389.218317 204.553701,388.676205 207.108404,387.728638 C209.219253,386.940317 211.339137,385.972421 213.49855,384.818174 C215.475,383.758797 217.454839,382.639562 219.449359,381.451433 C221.517291,380.215869 223.273508,379.182468 224.919044,378.23603 C226.701237,377.209406 228.289174,376.343156 229.742712,375.607916 C230.833712,375.051122 231.712386,374.712302 232.367438,374.555316 C232.995384,374.408493 233.962151,374.310236 235.188679,374.309106 C236.882779,374.303459 238.697725,374.356541 240.631258,374.468352 C242.580603,374.583551 244.642888,374.739408 246.836183,374.937053 C249.246323,375.153898 251.607898,375.286037 253.926557,375.33686 C256.36719,375.392201 258.686978,375.310884 260.888179,375.089522 C263.455305,374.82863 265.782999,374.243601 267.892718,373.312975 L267.896107,373.322011 C268.006788,373.277964 268.114081,373.220365 268.223633,373.174059 C268.295914,373.140177 268.372713,373.11533 268.444995,373.081448 L268.441607,373.074672 C270.154907,372.319103 271.766561,371.299255 273.277698,370.012868 C274.525685,368.937679 275.733014,367.766491 276.943731,366.467681 C278.321599,364.990426 279.698338,363.348278 281.093147,361.529944 C282.289182,359.957819 283.494252,358.383435 284.724168,356.780816 C285.15447,356.211599 287.628985,352.962315 288.345025,352.01136 C289.340027,350.706903 290.288723,349.568467 291.165137,348.628806 C291.525416,348.241422 291.866495,347.903732 292.178209,347.621382 C292.44023,347.384208 292.662722,347.200115 292.864884,347.045388 C293.891509,346.348548 295.491869,345.579426 297.6558,344.811434 C300.448806,343.824338 303.405576,342.82256 306.510297,341.809489 C309.921085,340.693641 313.11164,339.504383 316.118103,338.224773 C319.972746,336.588272 323.14636,334.529375 325.567794,331.932885 C327.958734,329.368017 329.763515,326.089368 331.13009,322.120656 C332.199632,319.027229 333.166398,315.753099 334.034907,312.294875 C334.854851,309.016227 335.633008,306.027834 336.394224,303.243863 C337.000711,301.02685 337.667057,299.364373 338.325498,298.273373 C338.379709,298.189797 338.571707,297.921 338.813399,297.614933 C339.091231,297.26143 339.404075,296.898893 339.767742,296.50925 C340.639639,295.572977 341.694498,294.562164 342.943615,293.466646 C343.861817,292.672678 347.129172,289.808519 347.33924,289.624427 C348.830048,288.304158 350.307304,287.00083 351.855711,285.642162 C353.594987,284.105049 355.158077,282.593911 356.570957,281.078256 C357.778285,279.782834 358.862509,278.496448 359.820241,277.216837 C361.068228,275.521608 362.001112,273.781202 362.635835,271.954962 L362.643741,271.95835 C362.666329,271.897363 362.682141,271.832987 362.703599,271.77087 C362.727317,271.701976 362.75781,271.636471 362.779269,271.566448 L362.770234,271.56419 C363.547261,269.340401 363.965139,266.93252 364.043068,264.338288 C364.11422,262.181134 364.034033,259.878287 363.809282,257.441041 C363.598084,255.182241 363.316863,252.896335 362.963361,250.565253 C362.640353,248.453275 362.334285,246.352591 362.0429,244.240613 C361.776362,242.321762 361.59114,240.547474 361.483847,238.903068 C361.396883,237.640398 361.426248,236.675891 361.535799,235.992604 C361.725539,234.90725 362.313956,233.242514 363.330416,231.181359 C364.851718,228.094709 366.216034,225.355913 367.566796,222.684882 C369.188615,219.433339 370.586812,216.352336 371.791882,213.357167 C373.350454,209.500265 374.13087,205.824068 374.013412,202.310504" id="Fill-1" fill="#D2D2D2"></path>
            <ellipse id="Oval" fill="#CC3E1F" cx="374.025706" cy="129.840515" rx="69.5016381" ry="69.5016381"></ellipse>
            <path d="M374.08903,170.799699 C358.290419,170.734304 345.524144,158.93323 343.577543,143.579005 C343.499679,142.963354 343.388489,142.322167 343.291315,141.674441 C343.291627,141.655445 343.294118,141.637072 343.294118,141.618077 L343.294118,127.104338 L405.504985,127.104338 L405.61742,141.022667 C404.908546,157.672344 391.07024,170.870077 374.08903,170.799699 M411.61918,136.552733 L411.710436,124.179294 C411.710436,124.011134 411.693306,123.847646 411.667767,123.686337 C411.513596,122.114978 410.179007,120.876202 408.568778,120.876202 L343.030938,120.876202 L343.030938,120.837276 C343.097901,103.617724 357.196273,89.7703966 374.589851,89.8426429 C388.390783,89.8996304 400.056994,98.9861702 404.084433,111.517804 C404.253243,113.078575 405.574128,114.293684 407.179684,114.293684 C408.899856,114.293684 410.294245,112.899516 410.294245,111.179616 C410.294245,110.618461 410.143812,110.093118 409.884058,109.638464 C405.314996,94.1372545 391.17302,83.48029 374.235726,83.5061368 C353.690523,83.5375889 336.952872,100.457256 336.958167,121.189166 C336.958478,122.014082 336.986821,122.832148 337.039768,123.643986 L337.064996,123.643674 L337.064996,139.377816 C337.064685,139.437606 337.061881,139.496773 337.062193,139.556563 C337.062193,139.62227 337.064685,139.687354 337.064996,139.753061 L337.064996,141.618077 C337.064996,141.901145 337.106108,142.173938 337.176809,142.434274 C337.201102,142.749106 337.229445,143.063004 337.261836,143.375968 C339.209683,162.311683 355.185513,177.165789 374.443155,177.136205 C394.988046,177.104753 411.726009,160.185086 411.720714,139.453176 C411.720403,138.436744 411.686454,137.478857 411.61918,136.552733" id="Fill-1" fill="#FFFFFF"></path>
            <path d="M374.478764,151.990937 C372.634943,151.983152 371.144626,150.475631 371.148986,148.621515 C371.152724,146.776118 372.657991,145.283545 374.512089,145.286036 C376.380826,145.288528 377.876127,146.792623 377.868963,148.662932 C377.861488,150.511754 376.347189,151.998411 374.478764,151.990937 M374.347329,139.107414 C369.029528,139.116133 364.74794,143.411679 364.758841,148.727393 C364.767251,152.942596 367.515228,156.534051 371.301911,157.811131 L371.301911,161.566074 C371.301911,163.2785 372.703464,164.679831 374.416472,164.679831 C376.129481,164.679831 377.531034,163.2785 377.531034,161.566074 L377.531034,157.758503 C381.247328,156.434712 383.920556,152.870973 383.919621,148.700612 C383.918375,143.406073 379.620593,139.098694 374.347329,139.107414" id="Fill-4" fill="#FFFFFF"></path>
        </g>
    </g>
</svg>