<svg xmlns="http://www.w3.org/2000/svg" width="400" height="400" viewBox="0 0 400 400"><path d="M168.698 48.799C85.678 74.791 39.45 163.16 65.443 246.18a157.816 157.816 0 0 0 3.212 9.197c-.04-.126-.064-.255-.099-.381.035.127.06.256.099.383.063.198.14.386.213.577l.161.419c1.982 4.553 7.115 6.974 11.962 5.457 5.192-1.624 8.079-7.147 6.454-12.337a9.634 9.634 0 0 0-.358-.964 140.818 140.818 0 0 1-2.864-8.231c-22.745-72.647 17.708-149.977 90.353-172.723 72.647-22.745 149.977 17.706 172.724 90.354 22.746 72.648-17.708 149.978-90.354 172.723-50.286 15.745-102.813 1.203-137.929-33.334-.256-.252-.511-.506-.764-.76-2.5-2.229-6.067-3.135-9.496-2.062-5.189 1.625-8.078 7.148-6.454 12.336a9.797 9.797 0 0 0 2.808 4.364l-.004-.004a.1.1 0 0 0-.017.019c40.129 39.556 100.211 56.231 157.736 38.219 83.02-25.992 129.247-114.363 103.254-197.383-25.994-83.017-114.364-129.244-197.382-103.25z"/><path d="M230.223 246.827c-4.156-1.47-7.884-2.774-11.6-4.112-1.223-.44-2.398-1.017-3.625-1.446-2.612-.915-4.54.065-5.661 2.658-1.822 4.215-3.511 8.513-5.712 12.526-.712 1.299-2.805 2.45-4.349 2.567-4.554.344-9.17.389-13.717.009-1.61-.135-3.697-1.477-4.514-2.881-2.269-3.901-3.99-8.12-5.917-12.219-1.181-2.511-2.887-3.639-5.723-2.507-4.282 1.709-8.669 3.167-12.894 5.001-2.43 1.055-4.241.269-5.877-1.244-3.244-2.999-6.36-6.138-9.529-9.218-1.911-1.857-1.817-4.17-1.026-6.338 1.438-3.944 3.159-7.786 4.782-11.661 1.231-2.938.216-4.931-2.708-6.095-4.409-1.755-8.821-3.563-13.012-5.768-1.218-.641-2.273-2.67-2.381-4.137-.318-4.339-.048-8.717-.158-13.076-.073-2.891 1.683-4.396 3.904-5.457 3.969-1.896 8.035-3.587 12.043-5.405 2.998-1.36 3.489-2.696 2.152-5.646-1.553-3.428-3.405-6.755-4.593-10.304-.976-2.916-1.41-6.011 1.582-8.532 2.45-2.064 4.492-4.605 6.794-6.854 4.573-4.47 5.286-3.488 12.605-1.103 2.821.919 5.487 2.306 8.274 3.344 2.635.981 4.592-.275 5.776-3.125 1.696-4.081 3.603-8.075 5.407-12.111.954-2.134 2.615-2.945 4.902-2.91 4.143.064 8.295.158 12.429-.041 2.773-.133 4.606.988 5.729 3.325 1.858 3.865 3.557 7.806 5.366 11.696 1.625 3.495 3.05 3.9 6.604 2.525 4.482-1.734 8.999-3.442 13.628-4.69 1.314-.354 3.34.587 4.568 1.541 2.44 1.895 4.383 4.437 6.839 6.306 4.356 3.314 4.971 7.174 2.642 11.901-1.148 2.33-1.973 4.817-3.049 7.185-2.274 5.009-1.386 6.926 3.897 8.605 2.948.937 5.899 1.928 8.723 3.178 3.134 1.386 5.341 3.403 4.927 7.461-.375 3.67-.192 7.411-.056 11.113.093 2.514-.987 4.221-3.095 5.241-4.078 1.973-8.19 3.886-12.359 5.657-3.022 1.285-4.01 3.141-2.767 6.005a1252.88 1252.88 0 0 0 4.716 10.677c1.378 3.095 1.139 5.7-1.656 8.083-2.755 2.349-5.093 5.183-7.797 7.601-1.257 1.125-2.947 1.77-4.514 2.675zm-3.04-11.991c3.998.08 6.863-4.08 5.542-6.948-.582-1.263-1.223-2.499-1.774-3.774-1.882-4.355-4.837-8.597-1.588-13.552 1.536-2.343 2.614-5.38 4.759-6.834 3.062-2.077 6.87-3.114 10.443-4.355 2.378-.826 3.034-2.34 3.008-4.662-.025-2.221-.672-3.716-2.948-4.421-2.449-.758-4.903-1.583-7.22-2.667-2.332-1.092-5.38-1.134-6.526-4.172-.825-2.187-2.045-4.26-2.591-6.505-.415-1.707-.465-3.736.06-5.388 1.026-3.23 2.269-6.472 3.978-9.382 1.803-3.07-.202-4.678-2.006-5.945-1.248-.877-3.503-1.203-4.96-.722-3.454 1.141-6.686 2.946-10.043 4.4-.856.371-2.031.873-2.744.571-5.62-2.379-12.463-3.372-13.495-11.303-.132-1.014-.718-2.009-1.25-2.922-1.305-2.237-1.298-5.354-5.322-5.496-4.101-.145-5.159 2.051-6.091 5.209-.762 2.582-1.914 5.053-2.958 7.546-.372.887-.728 2.114-1.445 2.467-3.392 1.667-6.808 3.444-10.421 4.425-1.58.429-3.68-.873-5.493-1.531-2.229-.809-4.577-1.488-6.562-2.724-2.953-1.84-4.863-.809-7.089 1.296-2.277 2.154-1.416 3.998-.242 6.087.475.846.852 1.751 1.224 2.65 1.708 4.124 4.977 8.022 1.77 12.852-.589.887-.909 1.955-1.337 2.947-.959 2.224-1.961 4.091-4.765 4.823-3.278.856-6.34 2.538-9.498 3.857-1.743.728-2.493 1.834-2.755 3.904-.499 3.95 1.93 4.866 4.768 6.007 5.202 2.092 11.734 2.475 13.241 9.693.215 1.031.933 1.969 1.079 2.998.229 1.616.61 3.412.142 4.882-1.008 3.167-2.244 6.332-3.896 9.204-1.539 2.675-.668 4.187 1.2 6.135 2.017 2.102 3.991 1.791 6.183.83a247.16 247.16 0 0 0 7.684-3.553c2.388-1.145 4.548-1.276 7.247-.305 5.654 2.034 9.768 5.075 11.091 11.278.395 1.85 1.479 3.587 2.438 5.266.425.744 1.239 1.564 2.021 1.755 4.329 1.055 6.49-.284 7.937-4.525.729-2.137 1.88-4.157 2.394-6.335.773-3.274 3.034-4.694 5.844-5.898 4.417-1.893 8.621-3.261 13.276-.351 2.518 1.573 5.547 2.328 7.69 3.188z"/><path d="M262.026 211.865c0-1.414.017-2.491-.003-3.567-.1-5.429 3.956-10.295 9.463-10.418 1.938-.043 4.24 1.515 5.8 2.963 1.982 1.841 3.364 1.776 4.729-.292 2.9-4.39 6.545-4.722 11.152-2.779 3.58 1.51 5.334 3.983 5.36 7.623.021 2.956.981 3.96 4.06 3.704 5.538-.46 6.802 1.002 9.238 6.48 1.702 3.828.256 6.294-2.084 8.813-1.759 1.893-2.201 3.2.402 5.101 3.798 2.773 3.563 5.731 2.419 10.266-1.535 6.086-5.847 6.334-10.88 6.282 0 1.884-.02 3.483.004 5.081.044 2.937-.765 5.343-3.752 6.576-1.094.452-2.138 1.057-3.143 1.689-2.652 1.669-4.968 1.378-7.322-.737-3.805-3.42-3.891-3.364-7.11.343-1.828 2.104-3.997 3.55-6.79 2.46-3.759-1.467-8.482-1.87-8.746-7.616-.22-4.774-.402-4.771-5.235-4.594-2.923.107-4.797-.798-6.442-3.688-2.66-4.676-3.09-8.479 1.107-12.352 1.37-1.264 1.144-2.79-.497-4.105-4.63-3.709-5.064-10.938-.612-14.839 1.462-1.281 3.925-1.45 5.957-2.035.817-.232 1.703-.217 2.925-.359zm27.999-8.861c-5.742 8.839-12.036 10.062-19.9 1.731 1.327 11.097-3.122 16.153-13.633 15.924 2.813 3.731 6.68 5.347 6.99 10.238.297 4.675-4.213 6.506-4.871 11.029 11.028-2.767 14.02 3.745 14.763 13.022 3.121-3.316 4.875-6.367 9.519-6.771 4.689-.408 6.754 2.969 10.16 4.776 1.234-3.972-.699-7.914 2.638-11.577 3.122-3.428 7.322-2.287 11.095-4.774-.781-.449-1.333-.634-1.706-1.001-6.163-6.053-6.407-9.429-1.319-16.313.433-.585.451-1.476.662-2.225-.808-.134-1.741-.597-2.402-.346-3.53 1.339-6.263-.101-8.35-2.627-1.344-1.626-2.138-3.782-2.872-5.811-.495-1.37-.456-2.932-.774-5.275zM216.499 195.266c.397 13.31-11.775 24.271-24.843 23.908-13.57-.377-23.947-10.908-23.919-24.606.027-13.208 11.118-23.868 24.808-23.701 13.226.162 24.446 10.989 23.954 24.399zm-38.413-.506c-.103 7.588 6.295 14.195 13.991 13.999 7.991-.204 13.748-5.63 14.214-13.103.438-7.019-5.191-14.158-14.357-14.2-7.529-.036-13.746 5.794-13.848 13.304z"/><path d="M294.854 228.796c.739 7.751-6.121 13.837-13.51 13.939-6.907.095-12.974-6.407-12.903-13.552.076-7.641 5.686-13.088 13.264-13.41 6.961-.295 13.831 5.984 13.149 13.023zm-17.456.602c.035 2.973 1.509 4.427 4.399 4.339 2.789-.085 4.526-1.971 4.464-4.846-.059-2.732-1.812-4.439-4.527-4.408-2.769.032-4.372 1.848-4.336 4.915z"/></svg>