<svg id="Layer_1" data-name="Layer 1" xmlns="http://www.w3.org/2000/svg" viewBox="0 0 400 400"><defs><style>.cls-1{fill:#323232}</style></defs><title>icon-list-view-simple</title><g id="Layer_20129" data-name="Layer%20129"><path class="cls-1" d="M89.8 294.79a13.13 13.13 0 0 1-13.12-13.12 13.13 13.13 0 0 1 13.12-13.13h26.57a13.13 13.13 0 0 1 13.12 13.12 13.13 13.13 0 0 1-13.12 13.12zM89.8 217.17A13.13 13.13 0 0 1 76.67 204a13.13 13.13 0 0 1 13.13-13.08h26.57A13.13 13.13 0 0 1 129.49 204a13.13 13.13 0 0 1-13.12 13.12zM89.8 139.56a13.13 13.13 0 0 1-13.12-13.12 13.13 13.13 0 0 1 13.12-13.13h26.57a13.13 13.13 0 0 1 13.12 13.12 13.13 13.13 0 0 1-13.12 13.12zM163 294.79a13.13 13.13 0 0 1-13.12-13.12A13.13 13.13 0 0 1 163 268.54h145a13.13 13.13 0 0 1 13.12 13.12A13.13 13.13 0 0 1 308 294.79zM163 217.18a13.13 13.13 0 0 1-13.12-13.12A13.13 13.13 0 0 1 163 190.93h145a13.13 13.13 0 0 1 13.12 13.12A13.13 13.13 0 0 1 308 217.18zM163 139.56a13.13 13.13 0 0 1-13.12-13.12A13.13 13.13 0 0 1 163 113.31h145a13.13 13.13 0 0 1 13.12 13.12A13.13 13.13 0 0 1 308 139.56z"/></g></svg>