<svg xmlns="http://www.w3.org/2000/svg" viewBox="0 0 400 400"><g fill="#231F20"><path d="M89.065 214.527c-9.196-9.294-17.897-18.113-26.627-26.903-4.853-4.886-4.924-6.801-.062-11.662 23.181-23.176 46.268-46.448 69.728-69.338 2.877-2.807 7.668-4.471 11.788-5.009 7.969-1.04 12.793-4.791 15.018-12.456.862-2.967 2.498-5.716 3.845-8.535 6.544-13.693 20.214-18.715 33.899-12.184 22.845 10.903 45.611 21.973 68.378 33.038 1.623.789 3.163 1.932 4.446 3.207 23.351 23.206 46.607 46.508 70.034 69.637 3.026 2.988 2.752 4.845-.07 7.635-14.185 14.021-28.227 28.187-42.313 42.308-.699.701-1.348 1.453-2.867 3.099 4.382 3.946 8.894 7.656 12.985 11.784 5.052 5.098 7.875 11.213 6.099 18.596-2.521 10.479-10.5 15.712-22.475 14.945-1.106 17.127-7.983 24.059-22.919 23.105-2.595 17.954-9.326 24.666-23.664 22.984 0 2.38.34 4.779-.062 7.045-1.353 7.62-5.599 13.066-13.113 15.389-7.421 2.294-14.115.612-19.647-4.865-5.44-5.388-10.704-10.954-16.355-16.761-5.76 5.84-11.033 11.213-16.337 16.557-7.606 7.664-18.419 8.043-25.479.919-6.835-6.896-6.447-17.72.937-25.211 5.202-5.278 10.444-10.516 15.663-15.776.09-.09.112-.247.287-.653l-2.127-2.463c-.541.443-1.001.761-1.391 1.149-5.152 5.127-10.239 10.321-15.453 15.384-7.492 7.274-18.076 7.507-24.895.658-7.034-7.064-6.817-17.609.604-25.151 5.393-5.481 10.883-10.867 16.721-16.685l-2.369-2.386c-.813.47-1.216.605-1.488.874-5.07 5.008-10.111 10.044-15.184 15.048-7.73 7.625-18.651 8.1-25.518 1.133-7.177-7.282-6.777-17.629 1-25.472 2.709-2.732 5.416-5.466 8.174-8.147 2.64-2.566 5.345-5.065 8.401-7.952l-3.545-3.041c-5.522 5.748-10.958 11.512-16.514 17.159-5.073 5.156-11.268 6.571-18.045 4.358-6.884-2.248-10.696-7.387-11.6-14.473-.711-5.567 1.328-10.341 5.284-14.273 5.55-5.514 11.133-10.994 16.828-16.615zm82.031 75.443c2.642.465 4.596 1.42 6.154.979 6.844-1.939 13.047-1.244 18.207 3.862 5.231 5.176 6.521 11.386 4.27 18.468-.387 1.217.102 3.293.978 4.234 4.464 4.796 9.161 9.378 13.83 13.98 6.354 6.263 14.582 6.768 20.127 1.3 5.81-5.729 5.479-13.978-.912-20.414-7.231-7.283-14.528-14.5-21.795-21.746-4.945-4.931-9.983-9.777-14.746-14.878-.878-.94-.643-2.918-.922-4.417 1.603.198 3.27.196 4.785.673.845.266 1.441 1.326 2.148 2.031 11.299 11.279 22.473 22.688 33.992 33.738 2.625 2.518 6.251 4.669 9.756 5.44 5.688 1.251 11.12-2.223 13.653-7.364 2.508-5.091 1.445-11.342-2.895-15.7-12.373-12.425-24.852-24.746-37.138-37.255-.938-.955-1.465-3.551-.843-4.549 1.398-2.243 3.127-.733 4.512.635 3.042 3.003 6.103 5.985 9.133 8.999 9.498 9.452 18.916 18.984 28.504 28.343 4.707 4.594 10.717 5.312 16.088 2.393 5.312-2.887 8.059-8.18 6.684-14.353-.582-2.611-2.095-5.364-3.974-7.279-12.064-12.297-24.399-24.327-36.474-36.613-1.191-1.212-2.273-4.403-1.611-5.22 2.112-2.604 3.882-.066 5.542 1.38.106.092.172.228.273.328 11.922 11.814 23.826 23.646 35.776 35.432 6.292 6.206 14.478 6.511 20.105.848 5.576-5.611 5.027-14.437-1.245-20.523-3.265-3.169-6.498-6.37-9.722-9.581-27.873-27.756-55.755-55.503-83.599-83.288-7.645-7.628-15.171-15.375-23.056-23.377-.91 1.848-1.548 3.094-2.144 4.361-5.753 12.224-11.202 24.604-17.349 36.626-4.36 8.526-11.738 13.081-21.609 12.425-7.47-.497-13.74-6.027-16.084-13.937-1.724-5.821-1.132-11.556 1.4-17.052 3.452-7.492 6.991-14.945 10.476-22.422 3.186-6.836 6.351-13.682 9.878-21.282-6.614 2.493-12.929 2.334-17.787 7.421-12.695 13.293-25.908 26.091-38.92 39.081-9.959 9.942-19.927 19.874-30.081 30.001 9.427 9.426 18.537 18.626 27.823 27.645.729.708 2.784.504 4.049.134 6.929-2.03 13.166-.6 18.124 4.379 4.74 4.759 6.086 10.947 3.818 17.306-1.102 3.091-.48 4.607 2.065 5.937 12.976-11.895 20.822-13.338 29.306-4.7 2.568 2.615 4.367 6.676 5.019 10.341 1.48 8.332-4.182 13.679-9.93 18.994l2.718 2.53c12.853-11.423 21.936-12.801 29.793-4.737 7.75 7.95 6.216 16.91-6.15 30.443zM381.083 139.655c-1.01 1.295-1.676 2.36-2.541 3.227-8.553 8.578-17.176 17.087-25.69 25.703-2.274 2.301-4.031 2.433-6.419.037a19225.531 19225.531 0 0 0-69.285-69.164c-2.541-2.524-2.349-4.32.108-6.721a1625.463 1625.463 0 0 0 25.418-25.367c2.439-2.49 4.244-2.569 6.736-.066 22.929 23.021 45.94 45.962 68.907 68.945.957.957 1.72 2.107 2.766 3.406zm-18.599-5.101c-3.311.509-5.242 2.233-5.269 5.627-.023 2.909 2.681 5.694 5.429 5.337 3.115-.404 5.296-2.082 5.183-5.588-.111-3.428-2.177-4.993-5.343-5.376zM127.071 97.963c-.908 1.139-1.512 2.066-2.278 2.831-23.175 23.176-46.393 46.309-69.517 69.536-2.451 2.462-4.184 2.107-6.398-.129a2594.456 2594.456 0 0 0-25.738-25.66c-2.338-2.295-2.395-4.069-.021-6.428a24956.412 24956.412 0 0 0 69.275-69.161c2.24-2.244 4.001-2.617 6.406-.166 8.584 8.746 17.32 17.345 25.961 26.035.847.85 1.445 1.949 2.31 3.142zm-82.495 43.583c-.285-3.032-1.881-5.164-5.298-5.171-3.348-.007-5.294 1.902-5.37 5.264-.078 3.434 2.048 5.194 5.239 5.488 2.88.267 5.406-2.403 5.429-5.581z"/></g></svg>