<svg xmlns="http://www.w3.org/2000/svg" width="400" height="400" viewBox="0 0 400 400"><path fill-rule="evenodd" clip-rule="evenodd" fill="#333" d="M352.691 152.193C326.288 67.863 236.522 20.906 152.194 47.311 67.864 73.713 20.906 163.478 47.309 247.808a160.133 160.133 0 0 0 3.261 9.337l.002.007c.063.201.143.392.216.586l.164.426c2.014 4.625 7.228 7.084 12.15 5.543 5.273-1.65 8.206-7.26 6.556-12.532a9.933 9.933 0 0 0-.363-.979 141.55 141.55 0 0 1-2.909-8.361C43.281 168.042 84.372 89.491 158.164 66.386c73.794-23.105 152.345 17.985 175.45 91.78 23.105 73.795-17.987 152.345-91.78 175.449-51.08 15.993-104.436 1.222-140.107-33.86-.26-.256-.519-.514-.776-.771-2.539-2.264-6.163-3.185-9.646-2.094-5.271 1.65-8.205 7.261-6.556 12.531a9.946 9.946 0 0 0 2.849 4.429c-.007.006-.012.013-.018.02 40.763 40.181 101.793 57.119 160.226 38.823 84.331-26.405 131.288-116.17 104.885-200.5z"/><path fill="#333" d="M280.459 136.195c0-.568-.04-1.126-.102-1.677v-.063l-.01-.004c-.865-7.348-7.104-13.052-14.685-13.052-.354 0-.702.028-1.051.053-.307-.02-.61-.042-.934-.042-1.817 0-3.553.318-4.948.573-3.412.624-6.856 1.304-10.187 1.96-5.231 1.031-10.64 2.098-15.947 2.955-4.468.722-9.207 1.087-14.085 1.087-5.36 0-10.944-.422-17.068-1.289-4.497-.638-8.993-1.285-13.489-1.939-2.861-.415-5.721-.843-8.582-1.271-4.684-.701-9.528-1.426-14.314-2.084-7.055-.969-14.268-.784-21.371-1.246-6.528-.425-13.558-.783-19.496 2.45-4.644 2.528-4.638 7.664-4.635 10.132v136.178l-.006.518c-.011.565-.023 1.268.047 2.037.441 4.774 4.249 8.406 9.052 8.635.186.009.369.013.55.013 5.712 0 9.551-4.194 9.552-10.436l.002-130.046c2.439-.01 4.826-.014 7.209.027 1.427.025 2.855.03 4.286.03l2.452-.001c4.122 0 8.145.039 12.034.509 5.6.677 11.315 1.584 16.844 2.463 6.993 1.111 14.225 2.259 21.452 2.984 9.973 1 19.556 1.087 28.336.257 7.493-.708 14.897-2.227 22.057-3.696 2.167-.444 4.393-.901 6.6-1.33.077 20.555.148 41.108.218 61.662v11.027c-1.301-.287-2.594-.554-3.862-.816-2.127-.439-4.136-.854-6.141-1.346-10.243-2.508-20.996-3.78-31.96-3.78-6.914 0-14.116.505-21.407 1.5-4.203.574-8.42 1.283-12.499 1.969-9.478 1.595-18.431 3.101-27.64 3.143-2.386.012-4.608.94-6.255 2.615-1.775 1.804-2.735 4.287-2.703 6.99.06 5.263 3.953 9.285 9.081 9.356.909.013 1.821.026 2.734.026 1.868 0 4.334-.047 6.852-.413 4.778-.693 9.607-1.466 14.277-2.214 6.3-1.009 12.815-2.052 19.212-2.898 7.197-.953 13.18-1.397 18.829-1.397 5.723 0 10.94.465 15.951 1.421 7.073 1.349 14.262 2.857 21.214 4.314l3.737.783c.418.087.835.153 1.251.208.456.092.918.186 1.349.266 4.33.808 7.396 1.229 7.396 1.229l-.023-.036c.237.017.473.036.714.036 5.583 0 10.109-4.526 10.109-10.109l-.098-86.601c.061-.534.101-1.072.101-1.62z"/></svg>