<svg xmlns="http://www.w3.org/2000/svg" viewBox="0 0 400 400"><path d="M261.108 220.135c1.534-1.014 3.012-1.557 3.762-2.616.653-.923.592-2.422.65-3.676.065-1.417-.13-2.844-.141-4.267-.019-2.478 1.9-4.941 4.273-5.889 2.083-.832 4.193-1.702 6.08-2.891 1.402-.883 2.618-2.038 2.665-4.141.066-2.944-1.059-5.349-2.421-7.786-1.008-1.802-1.825-3.71-2.757-5.556-.539-1.069-1.168-2.093-1.699-3.165-.424-.854-.85-1.725-1.117-2.634-.453-1.543-.5-3.268-1.22-4.657-1.512-2.917-.815-5.951-.748-8.908.036-1.586 1.019-3.155 1.594-4.724.394-1.077.768-2.166 1.245-3.206.555-1.212 1.259-2.355 1.811-3.568.461-1.013.769-2.093 1.19-3.126.53-1.301 1.106-2.583 1.663-3.873.043-.099.116-.191.137-.293.368-1.812.947-3.613 1.045-5.44.176-3.279.26-6.59.01-9.858-.212-2.762-.663-5.529-1.756-8.163-.608-1.466-.675-3.148-1.166-4.675-.459-1.428-1.187-2.768-1.738-4.17-.44-1.12-.704-2.315-1.203-3.405-.825-1.801-1.782-3.541-2.673-5.313-.424-.844-.773-1.73-1.247-2.543-.871-1.496-1.855-2.928-2.707-4.435-.834-1.475-1.437-3.093-2.369-4.497-1.192-1.796-2.581-3.466-3.944-5.143-1.25-1.538-2.528-3.059-3.884-4.502-2.003-2.132-4.027-4.251-6.156-6.255a44.236 44.236 0 0 0-4.813-3.906c-1.709-1.208-3.571-2.198-5.344-3.319-2.881-1.82-5.713-3.719-8.63-5.479-1.007-.607-2.222-.859-3.312-1.341-1.137-.503-2.234-1.095-3.356-1.632-.284-.136-.604-.194-.896-.315-1.383-.575-2.746-1.2-4.146-1.729-1.206-.456-2.455-.794-3.677-1.209-.81-.275-1.587-.665-2.412-.878-1.644-.425-3.314-.751-4.967-1.142-2.362-.559-4.706-1.206-7.083-1.683-1.22-.245-2.498-.197-3.748-.296-3.513-.277-7.026-.768-10.54-.777-2.722-.007-5.469.45-8.16.948a45.998 45.998 0 0 0-7.105 1.905c-1.996.714-3.847 1.827-5.775 2.735-1.627.765-3.413 1.282-4.88 2.277a57.432 57.432 0 0 0-6.588 5.225c-2.596 2.384-5.106 4.883-7.437 7.523-1.362 1.543-2.318 3.449-3.43 5.208-.756 1.195-1.454 2.427-2.203 3.626-.492.787-1.14 1.495-1.518 2.329-.508 1.123-.76 2.361-1.238 3.5-.462 1.102-1.136 2.114-1.596 3.217-.496 1.189-.847 2.438-1.269 3.658-.284.821-.644 1.622-.857 2.46-.425 1.677-.738 3.382-1.158 5.06-.559 2.23-1.175 4.446-1.767 6.668-.028.105-.059.21-.076.317-.365 2.324-.776 4.641-1.079 6.973-.415 3.191-.713 6.397-1.129 9.587-.239 1.836-.498 3.684-.96 5.472-.396 1.531-1.105 2.979-1.652 4.472-.404 1.103-.695 2.253-1.167 3.324-1.163 2.635-2.633 4.859-5.41 6.32-1.744.917-3.388.931-4.9.566-1.764-.425-3.448-1.586-4.497-3.206-1.361-2.102-2.671-4.223-3.112-6.811-.296-1.74-1.105-3.393-1.68-5.086-.035-.102-.044-.215-.056-.324-.639-5.542-1.615-11.07-1.005-16.68.23-2.119.576-4.236 1.039-6.316.532-2.391 1.124-4.785 1.931-7.093.707-2.021 1.762-3.918 2.634-5.883.423-.952.749-1.948 1.176-2.898a147.075 147.075 0 0 1 2.256-4.81 43.944 43.944 0 0 1 1.729-3.187c.758-1.263 1.586-2.483 2.381-3.723.879-1.37 1.731-2.758 2.642-4.105a36.572 36.572 0 0 1 1.95-2.589c1.262-1.547 2.484-3.137 3.856-4.582 2.073-2.183 4.2-4.324 6.419-6.357a64.368 64.368 0 0 1 5.672-4.614c1.28-.929 2.766-1.574 4.155-2.354 2.238-1.257 4.44-2.585 6.724-3.751 1.084-.554 2.345-.75 3.487-1.206 1.117-.447 2.186-1.016 3.273-1.537.139-.067.249-.213.392-.249 1.567-.398 3.154-.73 4.705-1.184 1.692-.496 3.351-1.102 5.024-1.661.155-.052.305-.129.464-.153 2.522-.379 5.11-.511 7.553-1.177 4.104-1.12 8.368-.36 12.392-1.196 3.51-.729 7.032-.951 10.355-.394 3.755.628 7.549.089 11.165.887 2.185.482 4.355.53 6.507.902 2.985.517 5.943 1.215 8.887 1.94 2.31.569 4.621 1.182 6.856 1.985 2.071.744 4.028 1.8 6.062 2.654 1.129.474 2.36.721 3.463 1.243 1.682.797 3.291 1.75 4.935 2.627.79.421 1.614.783 2.383 1.238 1.531.904 3.04 1.846 4.55 2.786 1.67 1.04 3.37 2.037 4.986 3.155 2.799 1.936 5.533 3.948 7.88 6.462 1.065 1.141 2.517 1.912 3.638 3.009 1.449 1.419 2.747 2.992 4.101 4.507 1.469 1.644 3.006 3.237 4.366 4.968 1.001 1.274 1.739 2.75 2.64 4.106 1.04 1.564 2.136 3.091 3.194 4.643a58.57 58.57 0 0 1 1.597 2.445 190.405 190.405 0 0 1 2.752 4.618c.421.733.802 1.497 1.117 2.281.76 1.897 1.412 3.84 2.217 5.717.842 1.963 1.851 3.854 2.709 5.811.43.982.75 2.025 1.005 3.069.422 1.722.752 3.467 1.121 5.202.56 2.635 1.212 5.255 1.647 7.91.263 1.607.348 3.281.235 4.905-.224 3.212-.519 6.43-1.035 9.604-.227 1.399-1.094 2.687-1.619 4.046-.44 1.14-.749 2.333-1.217 3.46-.717 1.729-1.518 3.424-2.29 5.13-.548 1.21-1.126 2.405-1.657 3.622a138.891 138.891 0 0 0-1.75 4.204 3.062 3.062 0 0 0-.204 1.101c-.014 3.177-.2 6.371.074 9.524.151 1.742 1.073 3.421 1.672 5.12.334.947.727 1.874 1.079 2.815.724 1.94 1.348 3.924 2.182 5.815.874 1.981 1.905 3.896 2.944 5.799.85 1.558 1.852 3.033 2.716 4.585 1.558 2.8-.288 7.54-3.231 8.646-2.427.912-5.015 1.666-7.108 3.105-1.489 1.024-2.875 2.4-3.565 4.593-.826 2.624.656 4.777.31 7.211-.323 2.268-1.304 4.061-3.488 4.835-1.61.571-1.639 2.133-.069 3.748 2.242 2.308 1.85 4.703-.989 6.143-1.28.649-2.593 1.258-3.783 2.048-.596.396-1.082 1.098-1.381 1.768-.505 1.131-.798 2.354-1.222 3.523-1.053 2.906-.574 6.019-1.175 8.93-.41 1.983-1.017 4.08-2.395 5.91-1.151 1.528-1.844 3.43-3.374 4.725-.594.503-1.181 1.07-1.871 1.396-2.901 1.369-5.889 1.801-8.968.552a4.569 4.569 0 0 0-.925-.245c-2.133-.377-4.331-.539-6.385-1.17-2.236-.687-4.34-1.807-6.501-2.736-1.684-.724-3.389-1.406-5.047-2.185-.99-.465-1.908-1.081-2.859-1.63-.089-.051-.17-.132-.265-.154-2.816-.625-5.658-1.739-8.534-.952-2.604.712-5.051 2.009-6.905 4.09-1.833 2.058-3.179 4.409-4.094 7.037-.806 2.314-1.944 4.514-2.714 6.838-.571 1.724-.525 3.675-1.222 5.328-.92 2.185-.346 4.582-1.097 6.599-.779 2.095-.446 4.157-.877 6.177-.418 1.961-1.13 3.858-1.69 5.789-.105.363-.136.756-.144 1.136-.036 1.702-.853 3.097-1.688 4.502-.461.775-.922 1.579-1.193 2.431-.381 1.196-1.088 2.022-2.298 2.196-1.725.248-3.509.336-4.707-1.298-1.232-1.68-2.076-3.512-2.001-5.691.075-2.19-.098-4.395.079-6.574.202-2.489.635-4.962 1.039-7.431.245-1.5.343-3.123 1.013-4.432.997-1.947.37-4.092 1.035-5.905.68-1.855.558-3.691.909-5.51.526-2.722 1.118-5.451 1.962-8.087.783-2.446 1.729-4.888 2.97-7.129 1.821-3.289 4.074-6.332 6.881-8.869.737-.666 1.97-.747 2.855-1.291 2.57-1.581 5.372-.915 8.054-.78 1.499.075 2.984.937 4.425 1.561 1.614.699 3.189 1.495 4.747 2.314 1.214.639 2.389 1.357 3.556 2.081.863.535 1.631 1.256 2.542 1.675 1.149.528 2.545.61 3.578 1.28 2.159 1.4 4.475.785 6.728.856 2.064.065 3.615-1.108 4.814-2.65 1.339-1.722 2.506-3.509 3.276-5.646.92-2.554 1.59-5.061 1.755-7.777.124-2.041.315-4.232 1.171-6.025.681-1.424 2.23-2.849 3.716-3.39 3.571-1.3 3.223-2.261 2.93-5.477-.051-.557-.685-1.07-1.072-1.586-.368-.483-.764-.949-1.176-1.461zM186.381 343.323c-.728-7.667 6.936-14.497 14.143-14.245 2.834.099 5.292.942 7.703 2.338 4.628 2.681 6.492 7.259 6.51 11.946.028 7.586-6.117 13.986-13.986 14.272-7.43.272-14.8-5.975-14.37-14.311z"/></svg>