<svg width="400" height="400" viewBox="0 0 400 400" xmlns="http://www.w3.org/2000/svg"><title>icon-university-squared</title><g fill="#333" fill-rule="evenodd"><path d="M48 320h301.662v25H48z"/><path d="M94 140h25v180.607H94zM275 140h25v180.607h-25zM155 140h25v180.607h-25zM215 140h25v180.607h-25z"/><path d="M45.84 139.853s-1.89-2.874 0-4.486C47.73 133.755 198.903 54 198.903 54s153.87 78.294 153.87 82.489c0 4.194-2.495 4.211-2.495 4.211l-304.438-.847zm77.776-22.455l152.39-.03-76.195-39.869h-1.65l-74.545 39.9z"/></g></svg>