<svg xmlns="http://www.w3.org/2000/svg" viewBox="0 0 400 400"><g fill="#231F20"><path d="M377.368 232.178c-2.793-1.574-4.802-1.264-6.494 1.555-4.633 7.716-9.127 15.519-13.539 23.364-1.424 2.531-.661 4.811 1.824 6.359 2.415 1.505 4.901 2.902 7.401 4.264 2.192 1.195 3.937.913 5.587-.924.812-.904 1.482-1.958 2.101-3.012 3.388-5.767 6.74-11.555 10.104-17.335v-10.204c-2.327-1.358-4.637-2.744-6.984-4.067zM359.203 224.568c-1.758-.96-3.516-1.922-5.296-2.84-8.908-4.594-17.835-9.151-26.733-13.765-13.148-6.818-26.267-13.69-39.416-20.506-13.215-6.85-26.454-13.652-39.676-20.487a29780.975 29780.975 0 0 1-35.949-18.623c-3.197-1.659-6.376-3.352-9.823-5.167 4.209-7.307 8.169-14.187 12.136-21.063 2.815-4.878 5.648-9.745 8.455-14.627 1.196-2.08 1.71-4.263-.059-6.232-.852-.949-2.062-1.615-3.191-2.27-8.805-5.101-17.636-10.16-26.448-15.248-9.216-5.321-18.412-10.675-27.634-15.985-4.746-2.733-9.492-5.473-14.31-8.076-2.748-1.485-5.406-.556-6.908 2.064-7.636 13.308-15.27 26.616-22.937 39.905-8.596 14.899-17.226 29.778-25.841 44.665-2.236 3.864-1.593 6.174 2.3 8.399 8.234 4.706 16.472 9.406 24.688 14.144 14.561 8.398 29.101 16.833 43.663 25.23 3.593 2.072 5.814 1.502 7.905-2.071 3.698-6.32 7.318-12.686 10.98-19.027 3.158-5.467 6.329-10.927 9.591-16.555 3.135 1.947 6.084 3.73 8.985 5.589 9.217 5.903 18.405 11.851 27.626 17.749 14.031 8.975 28.08 17.922 42.121 26.884 11.307 7.217 22.624 14.417 33.913 21.661 12.008 7.705 23.99 15.452 35.981 23.183 3.052 1.968 5.391 1.639 7.258-1.438a573.105 573.105 0 0 0 10.833-18.59c1.676-3.017.807-5.254-2.214-6.903zm-186.529-46.7c-3.329 5.588-10.558 7.42-16.146 4.091l-44.68-26.617c-5.588-3.329-7.42-10.558-4.091-16.146l38.21-64.139c3.329-5.588 10.558-7.42 16.146-4.091l44.68 26.617c5.588 3.329 7.42 10.558 4.091 16.146l-38.21 64.139zM222.444 320.885c-.075-4.087-2.537-6.522-6.583-7.143-1.893-.291-3.85-.171-5.78-.211-1.255-.026-2.511-.005-4.244-.005 2.446-4.393 1.475-8.537 1.604-12.565.079-2.472-.894-4.823-3.122-5.817a17.894 17.894 0 0 0-7.067-1.513c-48.391-.083-96.782-.064-145.173-.048-1.229 0-2.497.037-3.679.331-2.615.651-4.678 2.117-5.196 4.925-.874 4.74-.99 9.482.934 14.693-2.965 0-5.562-.056-8.156.012-5.382.14-8.441 3.267-8.451 8.617-.017 9.199-.013 18.398.009 27.597.002.916.047 1.873.308 2.74 1.265 4.208 4.056 6.016 9.257 6.017 58.672.008 117.344.008 176.016 0 .845 0 1.699-.074 2.535-.202 3.983-.61 6.729-3.237 6.797-7.286.17-10.045.176-20.097-.009-30.142zm-10.146 19.264c-.299 4.524-3.062 7.404-7.561 7.928-1.299.151-2.622.129-3.933.129-25.111.007-50.223.005-75.334.005-25.42.001-50.841.006-76.262-.01-1.384-.001-2.792-.036-4.148-.285-3.173-.582-5.568-2.514-6.036-5.62-.544-3.611-.704-7.403-.234-11.013.581-4.468 3.683-6.728 8.203-6.927 1.465-.064 2.936-.021 4.404-.021 50.3-.001 100.601-.001 150.901-.003 6.949 0 10.035 3.068 10.049 10.024.003 1.932.078 3.869-.049 5.793zM151.37 51.634c6.446 3.792 12.927 7.524 19.411 11.25 9.887 5.682 19.796 11.324 29.68 17.01 9.484 5.456 18.916 11.004 28.461 16.35 1.176.659 3.204.895 4.331.326 2.912-1.472 4.267-4.423 4.845-7.485.554-2.934-1.896-4.107-3.986-5.311-6.809-3.923-13.63-7.825-20.436-11.753a18581.306 18581.306 0 0 1-31.212-18.05c-6.733-3.903-13.434-7.863-20.181-11.742-2.318-1.332-4.733-2.493-7.466-3.922-1.299.961-2.611 1.714-3.629 2.755-.783.8-1.198 1.961-1.772 2.965-1.873 3.271-1.307 5.688 1.954 7.607zM83.833 170.221c10.879 6.298 21.758 12.596 32.643 18.881 14.558 8.406 29.121 16.8 43.683 25.198 1.679.968 3.567 1.672 5.227.434 2.547-1.9 3.988-4.618 4.403-6.845.179-3.105-1.122-4.38-2.796-5.351-5.534-3.211-11.092-6.383-16.636-9.578-14.956-8.62-29.908-17.247-44.865-25.867-5.343-3.079-10.658-6.211-16.057-9.188-2.892-1.595-4.879-.968-6.739 1.758a26.72 26.72 0 0 0-1.227 1.963c-2.256 4.003-1.632 6.281 2.364 8.595z"/></g></svg>