<svg xmlns="http://www.w3.org/2000/svg" viewBox="0 0 400 400"><path d="M176.406 322.565c46.724 4.008 96.947 28.671 141.253-27.124-22.478-2.65-37.503-5.234-52.623-6.046-38.909-2.09-48.771-13.393-41.854-52.033 2.38-13.296 7.88-26.033 14.476-47.064 0 11.321.478 14.166-.07 16.797-12.994 62.316-6.936 69.167 57.121 72.108 11.411.524 22.426 9.681 33.624 14.852-8.212 12.129-13.707 29.818-25.12 35.395-42.489 20.763-85.344 12.654-126.807-6.885zM162.377 358.521c-22.945-9.639-47.398-16.797-68.43-29.583-23.195-14.101-19.839-33.028 5.526-42.242 12.863-4.673 26.446-7.794 39.958-10.161 27.388-4.798 33.468-20.162 24.455-44.696-3.289-8.952-5.193-18.414-2.915-29.737 5.557 10.746 12.327 21.049 16.432 32.323 10.431 28.652 1.103 43.844-27.931 53.793-16.372 5.611-31.349 15.29-46.955 23.137 16.531 12.208 32.903 24.645 49.729 36.433 3.397 2.38 8.515 2.303 12.839 3.358l-2.708 7.375z"/><path d="M273.156 156.347c-2.306 14.969-5.988 29.887-6.541 44.92-.58 15.744-3.429 41.18 4.1 45.323 13.785 7.586 34.475 2.663 52.286 2.849 2.555.027 5.117-.543 12.276-1.364-24.015 19.445-47.752 20.809-68.767 9.407-8.428-4.573-12.967-24.008-12.167-36.213 1.445-22.04 8.237-43.729 12.795-65.564l6.018.642zM72.557 251.5c5.904 2.455 11.625 5.576 17.741 7.256 36.969 10.153 54.154-7.272 45.226-44.397-4.878-20.283-7.655-41.071-6.449-62.307 5.181 21.941 9.754 44.048 15.674 65.788 11.08 40.691-3.666 57.42-46.059 50.131-9.804-1.686-19.002-6.904-28.478-10.496l2.345-5.975zM243.682 71.222c-26.416-5.761-51.842-20.001-65.829-12.606-32.502 17.184-21.302 49.536-10.269 77.915l-11.441.948c-1.182-24.605-9.072-51.729-1.119-72.903 5.054-13.456 33.506-24.094 51.731-24.516 11.978-.278 24.43 19.908 36.927 31.162zM175.785 140.165s33.031 35.478 55.646-29.626c0 0-21.68 98.035-55.646 29.626z"/></svg>