<svg xmlns="http://www.w3.org/2000/svg" width="400" height="400" viewBox="0 0 400 400"><path fill-rule="evenodd" clip-rule="evenodd" fill="#333" d="M269.9 190.7H133.4l40.2-40.2c3.9-3.9 3.9-10.2 0-14.1-3.9-3.9-10.2-3.9-14.1 0L102.8 193c-2 2-3 4.7-2.9 7.4v1.3c0 .1 0 .3.1.4 0 .2 0 .4.1.5 0 .2.1.3.1.5 0 .1.1.3.1.4 0 .2.1.3.2.5.1.1.1.3.2.4.1.1.1.3.2.4.1.2.1.3.2.5.1.1.2.3.2.4.1.1.2.3.3.4.1.1.2.3.3.4.1.1.2.3.3.4.2.2.4.4.5.6l.1.1 56.6 56.6c3.9 3.9 10.2 3.9 14.1 0 3.9-3.9 3.9-10.2 0-14.1L134 210.7h135.9c5.5 0 10-4.5 10-10s-4.5-10-10-10z"/></svg>