<svg xmlns="http://www.w3.org/2000/svg" viewBox="0 0 400 400"><path fill="#231F20" d="M48.246 252.476v-10.893c1.233-4.998 1.898-10.193 4.952-14.567 1.097-1.571 2.26-3.096 3.391-4.64l-8.343-3.075v-1.485c1.958-1.18 3.8-2.654 5.897-3.48 4.669-1.838 9.447-3.407 14.222-4.961 1.339-.436 2.007-.978 2.17-2.476.648-5.945.694-11.852-.574-17.724-.907-4.199-2.453-8.159-5.957-10.811-1.921-1.453-4.391-2.165-6.565-3.303-2.056-1.075-4.302-2.18-4.209-4.963.1-2.98 2.751-3.123 4.803-3.782 3.304-1.061 6.637-2.029 10.17-3.101-.894-1.112-1.523-1.869-2.124-2.649-.601-.78-1.265-1.531-1.743-2.383-7.321-13.072-8.432-27.01-4.55-41.157 2.461-8.968 8.65-14.77 18.366-16.105 24.748-3.401 49.487-6.87 74.228-10.316 28.253-3.936 56.497-7.94 84.768-11.744 3.924-.528 7.836-1.829 11.972-.547 14.007 4.345 28.067 8.519 42.111 12.745 19.723 5.935 39.45 11.859 59.175 17.787 3.042.914 3.941 3.974 1.561 6.028a16.932 16.932 0 0 1-5.275 3.067c-4.475 1.592-7.294 4.69-8.907 8.982-2.371 6.31-2.681 12.859-2.008 19.499.441 4.354.459 4.261 4.752 5.602 6.188 1.932 12.485 3.665 17.676 7.857v1.485c-1.372.529-2.71 1.189-4.124 1.561-4.01 1.055-8.05 1.992-12.354 3.043 7.063 9.099 7.563 19.243 6.569 29.73-1 10.553-3.608 20.363-12.415 27.362.344.286.453.44.598.488 1.564.522 3.134 1.025 4.701 1.537 2.923.955 3.736 3.874 1.412 5.911-1.508 1.322-3.387 2.394-5.281 3.067-4.462 1.585-7.224 4.65-8.905 8.942-2.57 6.564-2.51 13.348-2.137 20.242.152 2.816 1.256 3.849 3.784 4.692 5.453 1.818 10.798 3.984 16.093 6.229 1.022.433 1.617 1.876 2.409 2.853-.924.587-1.804 1.27-2.787 1.732-.808.379-1.735.513-2.616.726-16.668 4.021-33.341 8.025-50.006 12.059-18.187 4.402-36.368 8.829-54.552 13.245-18.186 4.417-36.394 8.745-54.541 13.315-4.168 1.05-7.974 1.006-12.013-.47-6.345-2.318-12.82-4.281-19.245-6.378-13.868-4.525-27.734-9.055-41.61-13.555-12.545-4.068-25.111-8.07-37.646-12.166-3.907-1.277-8.019-2.279-11.555-4.265-6.321-3.551-9.473-9.705-11.262-16.493-1.061-4.033-1.665-8.192-2.476-12.297zm139.137-65.346c.186-.641.345-.948.355-1.26.4-11.46.771-22.921 1.195-34.38.051-1.389-.629-1.755-1.805-2.133-11.533-3.709-23.042-7.488-34.557-11.252-23.816-7.786-47.627-15.587-71.449-23.355-6.158-2.008-10.095-.345-11.977 5.788-3.082 10.043-2.367 20.07 1.833 29.698 1.33 3.048 3.67 5.429 7.15 6.376 11.454 3.117 22.903 6.251 34.333 9.455 21.507 6.028 42.999 12.11 64.499 18.165 3.4.957 6.805 1.892 10.423 2.898zm31.586 57.919c.546-.076.794-.081 1.025-.146 24.04-6.715 48.081-13.422 72.115-20.159 11.421-3.201 22.757-6.741 34.269-9.569 5.417-1.331 8.319-4.466 10.154-9.286 2.776-7.291 2.901-14.831 2.055-22.426-.233-2.092-.907-4.201-1.741-6.147-2.066-4.825-5.926-6.382-10.919-4.717a2961.1 2961.1 0 0 1-19.947 6.568c-28.739 9.358-57.478 18.718-86.235 28.022-1.71.553-2.288 1.351-2.215 3.158.442 10.954.764 21.913 1.14 32.87.019.552.175 1.099.299 1.832zm-40.776 58.231c.112-.848.183-1.169.193-1.491.351-11.215.668-22.43 1.076-33.643.059-1.615-.491-2.335-2.008-2.821-9.023-2.891-18.011-5.891-27.021-8.821-26.409-8.587-52.824-17.154-79.234-25.738-5.529-1.797-9.751.085-11.438 5.674-2.958 9.8-2.364 19.566 1.407 29.056 1.336 3.362 3.59 6.116 7.346 7.164 13.807 3.854 27.613 7.709 41.418 11.567 18.889 5.279 37.777 10.562 56.667 15.84 3.78 1.058 7.568 2.098 11.594 3.213zm15.799-116.068l136.478-33.979c-1.329-10.789-1.741-21.15 2.858-31.351-1.63.283-2.764.449-3.885.68-21.074 4.34-42.144 8.7-63.22 13.029-23.014 4.728-46.028 9.454-69.059 14.097-1.847.372-2.346 1.109-2.387 2.909-.173 7.504-.556 15.002-.766 22.505-.109 3.936-.019 7.877-.019 12.11zm-120.769-7.361c.87 2.62 1.737 4.757 2.288 6.972 1.84 7.394 1.65 14.884.691 22.368-.214 1.67.211 2.38 1.896 2.687 2.345.427 4.638 1.137 6.957 1.71 23.921 5.916 47.849 11.807 71.763 17.75 17.035 4.233 34.051 8.539 51.079 12.8 1.486.372 2.995.651 4.66 1.009.062-.935.159-1.58.139-2.221-.346-10.964-.742-21.926-1.028-32.892-.044-1.689-.889-1.972-2.249-2.249-21.646-4.406-43.284-8.855-64.922-13.299-17.682-3.632-35.363-7.271-53.044-10.904-5.954-1.221-11.911-2.437-18.23-3.731zm111.27 123.276c.764-.098 1.412-.116 2.026-.268 26.236-6.53 52.468-13.073 78.702-19.612 17.834-4.445 35.662-8.913 53.513-13.289 1.863-.457 2.251-1.161 2.006-3.043-.966-7.397-1.175-14.807.82-22.105.593-2.17 1.341-4.297 2.097-6.696-.878.099-1.442.119-1.987.23a8522.095 8522.095 0 0 0-20.106 4.125c-12.756 2.633-25.531 5.174-38.259 7.937-11.829 2.568-23.613 5.342-35.401 8.093-4.392 1.025-8.489 3.919-13.324 1.977-.196-.079-.482.056-.723.105-8.803 1.802-17.6 3.632-26.412 5.387-1.569.313-2.097 1.018-2.134 2.638-.203 8.825-.551 17.646-.806 26.469-.076 2.621-.012 5.246-.012 8.052z"/></svg>