<svg xmlns="http://www.w3.org/2000/svg" viewBox="0 0 400 400"><path d="M37.52 201.539c2.021-88.627 68.826-160.38 161.069-160.773 90.052-.383 161.47 69.837 161.215 161.357-.253 90.78-72.925 160.923-161.557 160.53-91.097-.404-158.897-71.619-160.727-161.114zm141.698 26.513c-1.273 9.312-6.344 2.364-8.045 1.138-9.032-6.507-17.502-13.789-26.324-20.597-2.1-1.621-4.69-3.068-7.251-3.548-10.462-1.961-19.369-11.402-21.618-21.617-1.511-6.862-4.836-13.324-7.35-19.964l-1.571.583 2.743 14.642c-3.125-2.479-4.757-5.475-5.227-8.644-1.18-7.958.2-17.003-3.155-23.774-5.736-11.578-.282-19.276 4.684-28.45 6.461-11.935 11.633-24.568 17.832-37.917l-16.678 2.839c-54.192 36.611-75.514 110.982-51.271 173.649 23.973 61.968 86.09 99.813 139.019 97.186.653-4.094.913-8.001 1.935-11.697 3.042-11.002 6.762-21.833 9.361-32.931.722-3.084-.696-9.286-2.559-9.93-11.575-4.002-15.037-14.64-21.35-23.165-7.333-9.903-6.861-18.463.841-27.611 6.933-8.235 5.272-14.867-4.407-19.813 8.165-.443 14.757-6.095 21.979-7.672 9.099-1.987 20.224-1.718 28.66 1.858 14.044 5.952 26.605 15.376 39.874 23.197 4.983 2.937 10.024 5.907 15.358 8.08 5.033 2.051 10.486 3.074 17.722 5.101-8.406 14.547-15.654 27.857-23.774 40.61-2.069 3.25-6.9 4.749-10.476 7.031-2.259 1.441-5.482 2.3-6.667 4.349-9.049 15.653-24.749 21.973-39.75 29.527-4.539 2.286-8.209 6.297-14.282 11.105 67.916 4.328 147.561-64 143.136-150.67l-8.378 11.523c-17.975-10.177-16.188-29.536-19.742-44.448-3.915-16.428-.68-34.339-15.188-47.581-5.519-5.038-2.188-16.052-11.789-19.101-.67-.213-.539-2.95-.769-4.441-11.258 1.339-11.258 1.339-19.362-13.144l5.391-1.288-43.882-27.63c-4.456.88-9.807 3.261-10.974 1.941-5.595-6.324-11.945-6.366-19.439-5.484-8.693 1.023-17.606.209-26.285 1.296-12.14 1.52-24.151 4.062-36.681 6.247 7.665 15.667 25.714 21.09 33.337 13.594l5.624 6.244 2.794-2.072v-9.184l26.908 11.619-10.204 7.209c-1.238-2.767-2.051-5.855-3.833-8.21-1.764-2.33-4.505-3.921-9.035-7.671l-1.76 15.489-22.892 5.729 24.063 18.104 5.14-23.631 37.514 20.622-26.514 9.416 10.652 4.733c-5.093 5.216-9.362 8.755-12.578 13.077-4.789 6.436-7.43 15.416-13.524 19.713-9.25 6.522-12.129 12.955-7.914 23.145.527 1.275-.517 3.2-.939 5.372-4.736-6.187-7.858-12.813-13.08-16.192-3.501-2.266-10.066-.399-15.105.494-4.442.788-11.945 2.127-12.401 4.376-1.613 7.963-10.865 16.416-1.8 24.249 2.657 2.296 9.209.85 13.744-.05 3.251-.645 6.117-3.236 11.344-6.2l-6.158 18.166 14.138 1.392c-.953 9.246-4.565 18.421 8.188 19.682z"/><path d="M237.877 69.773l-2.195 20.138c-4.672-3.612-9.402-6.882-13.678-10.666-6.386-5.652-12.453-11.665-19.192-18.032 5.787-9.424 20.861-6.656 35.065 8.56z"/></svg>