<svg xmlns="http://www.w3.org/2000/svg" viewBox="0 0 400 400"><g fill="#323232"><path d="M238.682 229.31c19.159-11.425 32-32.346 32-56.275 0-36.165-29.319-65.483-65.483-65.483-36.166 0-65.482 29.317-65.482 65.483 0 23.811 12.711 44.649 31.715 56.111-29.098 12.852-49.407 41.958-49.407 75.813 0 8.81 1.39 17.292 3.938 25.256.141.754.386 1.469.717 2.136a8.193 8.193 0 0 0 7.341 4.561 8.201 8.201 0 0 0 8.152-9.095 8.142 8.142 0 0 0-1.103-3.285 66.654 66.654 0 0 1-2.923-19.573c0-35.519 27.754-64.543 62.756-66.596a66.36 66.36 0 0 0 4.295.155c1.333 0 2.652-.052 3.965-.13 34.846 2.216 62.428 31.164 62.428 66.571 0 7.221-1.15 14.172-3.273 20.683-.093.284-.191.565-.287.847a8.17 8.17 0 0 0-.312 2.22 8.202 8.202 0 0 0 15.001 4.59 8.175 8.175 0 0 0 1.381-4.128 82.779 82.779 0 0 0 3.611-24.213c.001-33.709-20.133-62.712-49.03-75.648zm-82.599-56.274c0-27.126 21.99-49.116 49.116-49.116s49.117 21.99 49.117 49.116c0 26.832-21.517 48.622-48.234 49.095-.404-.006-.807-.016-1.213-.016-.258 0-.514.008-.772.01-26.614-.589-48.014-22.332-48.014-49.089z"/><path d="M296.96 205.553c15.86-9.458 25.621-24.393 28.515-42.829a65.74 65.74 0 0 0 1.08-11.835c0-25.312-14.371-47.254-35.39-58.154-.26-.136-.517-.278-.78-.411-.258-.13-.517-.257-.776-.386-.065-.031-.128-.065-.193-.096-.099-.048-.195-.099-.295-.147-.039-.016-.082-.026-.121-.042a65.22 65.22 0 0 0-27.927-6.248 65.37 65.37 0 0 0-16.736 2.194c-.095.019-.185.048-.278.07-.054.014-.109.027-.163.042-3.517.925-6.115 4.117-6.115 7.924a8.202 8.202 0 0 0 8.202 8.202c.368 0 .728-.033 1.084-.08.026.017.055.032.083.05.183-.054.37-.102.554-.155.305-.065.602-.151.895-.249a48.637 48.637 0 0 1 12.475-1.633 48.89 48.89 0 0 1 23.267 5.854c.221.12.438.245.656.368.313.175.622.354.932.535 14.423 8.553 24.095 24.27 24.095 42.256 0 12.398-4.63 23.772-12.24 32.468a162.773 162.773 0 0 1-4.925 4.878c-.316.273-.623.555-.945.82l-.007.084a403.03 403.03 0 0 1-10.823 9.81c-2.222 1.936-3.914 4.903-3.417 7.909.496 3 2.772 5.077 5.151 6.729 1.358.943 2.799 1.767 4.148 2.721a137.81 137.81 0 0 1 8.081 6.2c4.007 3.302 7.93 6.761 11.519 10.516 1.702 1.781 3.362 3.627 4.764 5.658l-.022.007c9.994 11.926 15.993 27.41 15.993 44.122 0 7.221-1.15 14.172-3.273 20.683-.093.284-.191.566-.287.847a8.176 8.176 0 0 0-.312 2.22 8.202 8.202 0 0 0 15.001 4.59 82.78 82.78 0 0 0 4.992-28.342c-.001-33.703-17.566-64.215-46.462-77.15zM111.526 205.553c-15.86-9.458-25.621-24.393-28.515-42.829a65.74 65.74 0 0 1-1.08-11.835c0-25.312 14.371-47.254 35.39-58.154.26-.136.517-.278.78-.411.258-.13.517-.257.776-.386.065-.031.128-.065.193-.096.099-.048.195-.099.295-.147.039-.016.082-.026.121-.042a65.22 65.22 0 0 1 27.927-6.248 65.37 65.37 0 0 1 16.736 2.194c.094.019.185.048.278.07.054.014.109.027.163.042 3.517.925 6.115 4.117 6.115 7.924a8.202 8.202 0 0 1-8.202 8.202c-.368 0-.728-.033-1.084-.08-.026.017-.055.032-.083.05-.183-.054-.37-.102-.554-.155a8.224 8.224 0 0 1-.895-.249 48.637 48.637 0 0 0-12.475-1.633 48.884 48.884 0 0 0-23.267 5.854c-.221.12-.438.245-.656.368-.313.175-.622.354-.932.535-14.423 8.553-24.095 24.27-24.095 42.256 0 12.398 4.63 23.772 12.24 32.468a162.773 162.773 0 0 0 4.925 4.878c.316.273.623.555.945.82l.007.084a403.03 403.03 0 0 0 10.823 9.81c2.222 1.936 3.914 4.903 3.417 7.909-.496 3-2.771 5.077-5.151 6.729-1.358.943-2.8 1.767-4.148 2.721a137.81 137.81 0 0 0-8.081 6.2c-4.007 3.302-7.93 6.761-11.519 10.516-1.702 1.781-3.362 3.627-4.764 5.658l.022.007c-9.994 11.926-15.993 27.41-15.993 44.122 0 7.221 1.15 14.172 3.273 20.683.093.284.191.566.287.847.199.707.312 1.45.312 2.22a8.202 8.202 0 0 1-15.001 4.59 82.78 82.78 0 0 1-4.992-28.342c.001-33.703 17.566-64.215 46.462-77.15zM50.897 149.593c-8.473-5.053-13.688-13.032-15.234-22.881a35.122 35.122 0 0 1-.577-6.323c0-13.523 7.678-25.245 18.907-31.068.139-.073.276-.149.417-.22a32 32 0 0 1 .415-.206c.035-.017.068-.035.103-.051.053-.026.104-.053.157-.078l.065-.022a34.835 34.835 0 0 1 14.919-3.338c3.093 0 6.086.417 8.941 1.172.05.01.099.026.148.038l.087.022a4.38 4.38 0 0 1-1.115 8.615 4.42 4.42 0 0 1-.579-.043c-.014.009-.03.017-.044.027-.098-.029-.198-.054-.296-.083a4.273 4.273 0 0 1-.478-.133 25.97 25.97 0 0 0-6.665-.872 26.11 26.11 0 0 0-12.43 3.128c-.118.064-.234.131-.35.197-.167.094-.332.189-.498.286-7.705 4.569-12.873 12.966-12.873 22.575 0 6.624 2.473 12.7 6.539 17.346.787.82 1.698 1.715 2.631 2.606.169.146.333.297.505.438l.004.045a216.654 216.654 0 0 0 5.782 5.241c1.187 1.034 2.091 2.619 1.826 4.225-.265 1.603-1.481 2.712-2.752 3.595-.725.504-1.496.944-2.216 1.454a74.102 74.102 0 0 0-4.317 3.312c-2.141 1.764-4.237 3.612-6.154 5.618-.909.952-1.796 1.937-2.545 3.023l.012.004a36.664 36.664 0 0 0-8.544 23.572c0 3.858.615 7.571 1.749 11.05.05.152.102.302.153.453.106.378.167.775.167 1.186a4.382 4.382 0 0 1-8.014 2.452 44.211 44.211 0 0 1-2.667-15.141c0-18.01 9.384-34.31 24.821-41.221zM348.214 144.104c8.473-5.053 13.688-13.032 15.234-22.881.375-2.051.577-4.163.577-6.323 0-13.523-7.678-25.245-18.907-31.068-.139-.073-.276-.149-.417-.22a32 32 0 0 0-.415-.206c-.035-.017-.068-.035-.103-.051-.053-.026-.104-.053-.157-.078l-.065-.022a34.835 34.835 0 0 0-14.919-3.338c-3.093 0-6.086.417-8.941 1.172-.05.01-.099.026-.148.038l-.087.022a4.38 4.38 0 0 0 1.115 8.615c.197 0 .389-.018.579-.043.014.009.03.017.044.027.098-.029.198-.054.296-.083.163-.035.322-.08.478-.133a25.97 25.97 0 0 1 6.665-.872 26.11 26.11 0 0 1 12.43 3.128c.118.064.234.131.35.197.167.094.332.189.498.286 7.705 4.569 12.873 12.966 12.873 22.575 0 6.624-2.473 12.7-6.539 17.346a87.327 87.327 0 0 1-2.631 2.606c-.169.146-.333.297-.505.438l-.004.045a216.654 216.654 0 0 1-5.782 5.241c-1.187 1.034-2.091 2.619-1.826 4.225.265 1.603 1.481 2.712 2.752 3.595.725.504 1.496.944 2.216 1.454a74.102 74.102 0 0 1 4.317 3.312c2.141 1.764 4.237 3.612 6.154 5.618.909.952 1.796 1.937 2.545 3.023l-.012.004a36.664 36.664 0 0 1 8.544 23.572c0 3.858-.615 7.571-1.749 11.05-.05.152-.102.302-.153.453a4.384 4.384 0 0 0-.167 1.186 4.382 4.382 0 0 0 8.014 2.452 44.211 44.211 0 0 0 2.667-15.141c0-18.01-9.384-34.311-24.821-41.221z"/></g></svg>