<svg xmlns="http://www.w3.org/2000/svg" viewBox="0 0 400 400"><g fill="#231F20"><path d="M152.139 359.179c.597-1.075 1.084-2.231 1.807-3.213 60.759-82.576 121.536-165.138 182.312-247.701.664-.901 1.338-1.795 2.416-3.24v39.18c-1.836 0-3.819-.262-5.676.108-.965.192-1.708 1.498-2.552 2.301.814.846 1.514 2.215 2.468 2.425 1.78.393 3.708.113 5.777.113v9.885c-1.972 0-3.924.014-5.876-.004-1.751-.016-2.682.997-2.265 2.538.243.899 1.379 2.027 2.266 2.183 1.898.333 3.895.102 5.96.102v9.902c-1.9 0-3.737.044-5.571-.012-1.799-.055-2.777.677-2.755 2.545.022 1.908 1.104 2.502 2.858 2.432 1.746-.07 3.498-.015 5.416-.015v9.953c-1.915 0-3.812-.258-5.584.101-.994.201-2.303 1.283-2.551 2.213-.47 1.76.765 2.627 2.557 2.61 1.769-.017 3.538-.004 5.526-.004v9.805c-1.889 0-3.733.017-5.576-.005-1.811-.022-3.011.882-2.533 2.624.253.924 1.579 1.964 2.586 2.178 1.685.359 3.501.098 5.5.098v9.917c-1.828 0-3.815-.266-5.672.11-.962.195-1.694 1.526-2.531 2.344.82.837 1.527 2.189 2.484 2.398 1.779.389 3.704.112 5.764.112v9.921c-1.939 0-3.922-.226-5.809.098-.904.155-2.367 1.48-2.27 2.053.168.993 1.229 2.392 2.138 2.587 1.867.402 3.88.121 5.986.121v9.836c-1.463 0-2.874-.011-4.285.003-1.857.018-4.023-.395-4.001 2.545.02 2.758 2.068 2.36 3.816 2.383 1.355.018 2.71.004 4.347.004v9.95c-1.825 0-3.724-.26-5.497.102-.99.202-2.292 1.302-2.531 2.234-.444 1.733.739 2.647 2.561 2.615 1.767-.032 3.534-.007 5.524-.007v9.888c-1.916 0-3.922-.272-5.792.115-.932.193-2.044 1.508-2.242 2.484-.116.57 1.321 1.954 2.219 2.125 1.8.342 3.71.101 5.801.101v9.878c-1.087 0-2.202-.104-3.291.023-1.937.226-4.952-1.121-4.867 2.546.084 3.668 3.124 2.06 5.015 2.363.991.159 2.029.028 3.207.028v9.944c-2.013 0-4.001-.231-5.891.101-.893.157-2.324 1.521-2.221 2.114.173.996 1.248 2.372 2.174 2.585 1.781.41 3.724.12 5.855.12v9.805c-1.581 0-3.205.024-4.829-.006-1.819-.034-3.407.142-3.375 2.566.03 2.273 1.539 2.378 3.228 2.342 1.639-.035 3.28-.008 5.073-.008v9.929c-1.898 0-3.647.054-5.39-.015-1.728-.069-2.867.454-2.898 2.386-.034 2.077 1.142 2.691 3.022 2.607 1.658-.074 3.322-.016 5.425-.016v17.57c-62.252-.003-124.504-.003-186.757-.003zm150.911-35.073v-115.61l-84.472 115.61h84.472zM143.365 38.307c5.974 1.959 7.006 3.386 7.006 9.702v31.372c8.066 3.072 13.786 8.403 16.662 16.472 3.724 10.45.576 21.804-8.107 29.166-1.301 1.103-1.693 1.951-1.232 3.646 3.258 11.969 6.389 23.973 9.57 35.963.104.39.308.754.755 1.821l15.851-9.417 6.331 8.498-19.618 11.445 1.538 5.933 21.757-12.392 12.866 17.298c-8.796 7.087-18.489 12.262-28.987 16.309l9.149 37.546c3.06 12.56 6.163 25.11 9.108 37.697.28 1.197-.048 2.894-.749 3.903-3.374 4.859-6.972 9.562-10.879 14.845l-22.17-89.654c-13.801 2.373-27.384 2.469-41.289-.426l-14.347 54.029c5.167 2.496 5.449 3.094 4.014 8.51a29908.622 29908.622 0 0 1-9.871 37.178c-.967 3.629-1.393 3.846-4.959 2.877-6.639-1.805-13.262-3.677-19.937-5.337-2.3-.572-3.217-1.606-2.604-3.917 3.582-13.503 7.117-27.018 10.758-40.505.973-3.604 3.828-3.586 6.973-2.808 2.857-10.724 5.676-21.282 8.482-31.843 1.793-6.75 3.5-13.525 5.394-20.247.537-1.905.136-2.744-1.719-3.484-9.462-3.775-18.112-8.956-26.355-15.634l12.848-17.371 21.348 12.751 1.729-5.88-19.357-11.839 5.562-7.495 16.287 9.726c.993-3.747 1.807-6.832 2.628-9.915 2.576-9.67 5.119-19.35 7.768-29 .472-1.719.181-2.816-1.119-4.105-13.597-13.488-9.764-35.432 7.584-43.27 1.86-.84 2.398-1.785 2.379-3.707-.092-9.502-.056-19.005-.048-28.508.006-6.622 1-7.992 7.119-9.934l1.881.001zm15.872 66.246c-.051-9.471-7.467-16.916-16.865-16.932-9.319-.016-16.855 7.543-16.893 16.947-.039 9.495 7.615 17.17 17.065 17.114 9.275-.055 16.744-7.719 16.693-17.129zm-6.923 66.532l-10.431-39.26-.762.047-10.397 39.213h21.59zm4.092 15.565l-1.422-5.41h-26.922l-1.303 5.058c10.02 2.068 19.685 2.177 29.647.352zM84.677 328.73c-2.872 8.47-5.743 16.941-8.62 25.41-.268.788-.392 1.72-.903 2.305-.699.802-1.705 1.336-2.58 1.985-.384-1.046-1.235-2.17-1.076-3.127.937-5.648 2.105-11.257 3.201-16.878.658-3.372 1.448-6.726 1.91-10.124.123-.903-.758-1.937-1.164-2.917-.481-1.162-1.525-2.448-1.317-3.476.8-3.952 2.003-7.822 3.146-12.054l15.515 4.154c-1.155 4.288-2.019 8.457-3.493 12.398-.455 1.216-2.568 1.812-3.922 2.692l-.697-.368z"/></g></svg>