<svg xmlns="http://www.w3.org/2000/svg" viewBox="0 0 20 20"><style>.st0{fill:none;stroke:#323e56;stroke-width:2}.st1{enable-background:new}.st2{fill:#323e56}</style><title>Bb-icon</title><path class="st0" d="M5 1h10c2.2 0 4 1.8 4 4v10c0 2.2-1.8 4-4 4H5c-2.2 0-4-1.8-4-4V5c0-2.2 1.8-4 4-4z"/><g class="st1"><path class="st2" d="M8.7 14.5c-.4.4-1.1.5-1.9.5H3.7V7.4h2.6c.7 0 1.4.1 1.9.3.5.3 1 .8 1 1.6S8.6 10.8 8 11c1 .2 1.6.9 1.6 1.8s-.4 1.3-.9 1.7zM7 8.9c-.2-.1-.4-.2-.8-.2h-.7v1.8h.7c.4 0 .6 0 .8-.2.2-.1.4-.3.4-.7 0-.4-.2-.6-.4-.7zm.4 3c-.3-.2-.6-.2-.9-.2h-1v1.9h1c.4 0 .7 0 1-.2.3-.2.4-.4.4-.8-.1-.3-.3-.5-.5-.7zM14 15.1c-.7 0-1.4-.3-1.8-.8l-.1.7h-1.7V7.4h1.8v2.8c.2-.3.8-.8 1.7-.8 1.6 0 2.6 1.2 2.6 2.8 0 1.7-1 2.9-2.5 2.9zm-.5-4.2c-.8 0-1.3.6-1.3 1.4s.5 1.4 1.3 1.4 1.3-.6 1.3-1.4-.6-1.4-1.3-1.4z"/></g></svg>