<svg width="146" height="37" viewBox="0 0 146 37" xmlns="http://www.w3.org/2000/svg"><g fill="#FFF" fill-rule="evenodd"><path d="M90.563 10.872l-.202-1.087C89.09 10.542 87.838 11 86.28 11 83.573 11 82 9.928 82 7.353V0h2.893v7.052c0 1.316.644 1.96 2.082 1.96 1.152 0 2.149-.414 3.115-1.116V0H93v10.872h-2.437zM99.05 1.777h-1.237V5.1H99c1.508 0 2.34-.53 2.34-1.662 0-1.075-.781-1.661-2.29-1.661zM102.052 11l-3.355-4.254h-.865v4.141H95V0h4.338c3.002 0 4.764 1.146 4.764 3.28 0 1.547-.949 2.522-2.576 2.995L105 10.586l-2.949.414zM106 11V0h7.812v1.897h-4.923v2.416h3.71l.376 1.94h-4.086v2.85H114V11zM120.458 2.54l-1.712 3.923h3.423l-1.711-3.924zm3.677 8.46l-1.186-2.724h-4.984l-1.135 2.611H114L119.068 0h2.984L127 10.588l-2.865.412zM131.813 1.969V11h-2.841V1.969H125V0h10.633L136 1.969zM137 11V0h7.811v1.897h-4.921v2.416h3.708l.376 1.94h-4.084v2.85H145V11zM61 17h1v8h-1zM69.646 25l-5.095-7.028V25H64v-8h.507l4.942 6.821V17H70v8zM75.303 17.498V25h-.583v-7.502H72V17h5.921l.079.498zM79 25v-8h3.885v.498h-3.342v3.06h2.673l.073.496h-2.746v3.448H83V25zM86.88 17.492h-1.324v3.24h1.206c1.251 0 2.042-.566 2.042-1.635 0-1.027-.717-1.605-1.924-1.605zM89.423 25l-2.746-3.786h-1.121v3.702H85V17h1.923c1.421 0 2.436.834 2.436 2.075 0 1.144-.865 1.893-2.052 2.086L90 24.872l-.577.128zM97.648 25l-5.097-7.028V25H92v-8h.507l4.941 6.821V17H98v8zM102.49 17.735l-1.62 3.999h3.239l-1.619-4zM105.425 25l-1.12-2.776h-3.631l-1.087 2.692H99L102.25 17h.511L106 24.873l-.575.127zM109.303 17.498V25h-.584v-7.502H106V17h5.921l.079.498zM114 17h1v8h-1zM120.001 17.479c-2.03 0-3.368 1.427-3.368 3.521s1.36 3.52 3.368 3.52c2.03 0 3.367-1.426 3.367-3.52 0-2.094-1.36-3.521-3.367-3.521M119.988 25C117.68 25 116 23.354 116 21.01c0-2.344 1.68-4.01 4.013-4.01 2.31 0 3.987 1.646 3.987 3.99 0 2.342-1.678 4.01-4.012 4.01M130.646 25l-5.094-7.028V25H125v-8h.507l4.942 6.821V17H131v8zM136.49 17.735l-1.62 3.999h3.24l-1.62-4zM139.425 25l-1.12-2.776h-3.63l-1.087 2.692H133L136.25 17h.512L140 24.873l-.575.127zM142 25v-8h.578v7.502h3.344L146 25zM66.608 36.904l-.169-.983c-.818.673-1.738 1.079-2.68 1.079-1.66 0-2.759-.801-2.759-2.627V29h.583v5.34c0 1.464.807 2.168 2.21 2.168.986 0 1.806-.469 2.625-1.164V29H67v7.904h-.392zM75.647 37l-5.095-7.027V37H70v-8h.508l4.94 6.821V29H76v8zM78 29h1v8h-1zM83.71 37h-.443L80 29.128l.587-.128 2.924 7.181 2.89-7.096H87zM88 37v-8h3.886v.498h-3.343v3.059h2.674l.073.497h-2.747v3.449H92V37zM95.88 29.492h-1.326v3.24h1.209c1.25 0 2.04-.566 2.04-1.636 0-1.026-.715-1.604-1.924-1.604zM98.422 37l-2.747-3.786h-1.122v3.701H94V29h1.922c1.422 0 2.437.834 2.437 2.076 0 1.143-.865 1.892-2.052 2.086L99 36.872l-.577.128zM102.265 37c-.92 0-1.769-.22-2.265-.463l.096-.56c.521.285 1.307.537 2.228.537 1.199 0 2.047-.653 2.047-1.551 0-.781-.473-1.192-1.964-1.815-1.68-.707-2.334-1.172-2.334-2.259 0-1.077 1.113-1.889 2.48-1.889.873 0 1.455.18 1.926.392l-.097.557c-.448-.263-1.053-.463-1.864-.463-1.09 0-1.816.643-1.816 1.372 0 .78.581 1.213 1.974 1.773 1.598.654 2.324 1.18 2.324 2.259 0 1.257-1.15 2.11-2.735 2.11M107 29h1v8h-1zM112.303 29.498V37h-.583v-7.502H109V29h5.921l.079.498zM116 29h1v8h-1zM119 37v-8h3.884v.498h-3.341v3.059h2.674l.073.497h-2.747v3.449H123V37zM126.265 37c-.921 0-1.77-.22-2.265-.463l.097-.56c.52.285 1.307.537 2.227.537 1.2 0 2.046-.653 2.046-1.551 0-.781-.471-1.192-1.96-1.815-1.683-.707-2.337-1.172-2.337-2.259 0-1.077 1.113-1.889 2.482-1.889.87 0 1.453.18 1.925.392l-.097.557c-.448-.263-1.054-.463-1.865-.463-1.09 0-1.815.643-1.815 1.372 0 .78.58 1.213 1.973 1.773 1.599.654 2.324 1.18 2.324 2.259 0 1.257-1.15 2.11-2.735 2.11M.004 37s-.54-12.761 10.73-24.346A42.399 42.399 0 0 1 18.132 6.6v16.393h8.395c-.403.453-.823.905-1.26 1.354C13.996 35.932.003 37 .003 37zm21.22-32.222C29.177.52 35.997 0 35.997 0s.418 9.884-7.163 20.151h-7.608V4.778zM130.993 29.585h-.15v.327h.141c.128 0 .208-.052.208-.163 0-.108-.071-.164-.199-.164zm.3.95l-.34-.473h-.11v.457h-.189v-1.106h.34c.237 0 .396.116.396.323 0 .159-.088.261-.229.305l.33.452-.197.043zm-.29-1.419c-.482 0-.861.319-.861.886 0 .564.383.882.856.882.481 0 .861-.318.861-.882 0-.567-.384-.886-.857-.886zM130.997 31c-.592 0-.998-.4-.998-.998 0-.593.415-1.002 1.002-1.002.586 0 .998.405.998 1.002 0 .593-.42.998-1.002.998zM48 37h.5V0H48zM61 0v11h7l-.365-2.026h-3.922V0zM74.067 0L69 10.887h2.83l1.136-2.611h4.982L79.135 11 82 10.588 77.05 0h-2.983zm1.39 2.54l1.712 3.923h-3.423l1.71-3.924z"/></g></svg>