<svg xmlns="http://www.w3.org/2000/svg" xmlns:xlink="http://www.w3.org/1999/xlink" viewBox="0 0 636.33 460.4"><defs><style>.a,.b{fill:none;}.b{clip-rule:evenodd;}.c{clip-path:url(#a);}.d{clip-path:url(#b);}.e{fill:#fff;}.f{clip-path:url(#c);}.g{clip-path:url(#e);}.h{clip-path:url(#g);}.i{clip-path:url(#i);}.j{clip-path:url(#k);}.k{clip-path:url(#m);}.l{clip-path:url(#o);}.m{clip-path:url(#q);}.n{clip-path:url(#s);}.o{clip-path:url(#u);}.p{clip-path:url(#w);}.q{clip-path:url(#y);}.r{clip-path:url(#aa);}.s{clip-path:url(#ac);}.t{clip-path:url(#ae);}.u{clip-path:url(#ag);}.v{clip-path:url(#ai);}.w{fill:#354262;}.x{clip-path:url(#ak);}.y{fill:#6dada1;}.z{clip-path:url(#am);}.aa{clip-path:url(#ao);}.ab{clip-path:url(#aq);}.ac{clip-path:url(#as);}.ad{clip-path:url(#au);}.ae{clip-path:url(#aw);}.af{clip-path:url(#ay);}.ag{clip-path:url(#ba);}.ah{clip-path:url(#bc);}.ai{clip-path:url(#be);}.aj{clip-path:url(#bg);}.ak{clip-path:url(#bi);}.al{clip-path:url(#bk);}.am{clip-path:url(#bm);}.an{clip-path:url(#bo);}.ao{clip-path:url(#bq);}.ap{clip-path:url(#bs);}.aq{clip-path:url(#bu);}.ar{clip-path:url(#bw);}.as{clip-path:url(#by);}.at{clip-path:url(#ca);}.au{clip-path:url(#cc);}.av{clip-path:url(#ce);}.aw{clip-path:url(#cg);}.ax{clip-path:url(#ci);}.ay{clip-path:url(#ck);}.az{clip-path:url(#cm);}.ba{clip-path:url(#co);}.bb{clip-path:url(#cq);}.bc{clip-path:url(#cs);}.bd{clip-path:url(#cu);}.be{clip-path:url(#cw);}.bf{clip-path:url(#cy);}.bg{clip-path:url(#da);}.bh{clip-path:url(#dc);}.bi{clip-path:url(#de);}.bj{clip-path:url(#dg);}.bk{clip-path:url(#di);}.bl{clip-path:url(#dk);}.bm{clip-path:url(#dm);}.bn{clip-path:url(#do);}.bo{clip-path:url(#dq);}.bp{clip-path:url(#ds);}.bq{clip-path:url(#du);}.br{clip-path:url(#dw);}.bs{clip-path:url(#dy);}.bt{clip-path:url(#ea);}.bu{fill:#9eb9d9;}.bv{clip-path:url(#ec);}.bw{clip-path:url(#ee);}.bx{clip-path:url(#eg);}.by{clip-path:url(#ei);}.bz{clip-path:url(#ek);}.ca{clip-path:url(#em);}.cb{clip-path:url(#eo);}.cc{clip-path:url(#eq);}.cd{clip-path:url(#es);}.ce{clip-path:url(#eu);}.cf{clip-path:url(#ew);}.cg{clip-path:url(#ey);}.ch{clip-path:url(#fa);}.ci{clip-path:url(#fc);}.cj{clip-path:url(#fe);}.ck{clip-path:url(#fg);}.cl{clip-path:url(#fi);}.cm{clip-path:url(#fk);}.cn{clip-path:url(#fm);}.co{clip-path:url(#fo);}.cp{clip-path:url(#fq);}.cq{clip-path:url(#fs);}.cr{clip-path:url(#fu);}.cs{clip-path:url(#fw);}.ct{clip-path:url(#fy);}.cu{clip-path:url(#ga);}.cv{clip-path:url(#gc);}.cw{clip-path:url(#ge);}.cx{clip-path:url(#gg);}.cy{clip-path:url(#gi);}.cz{clip-path:url(#gk);}.da{clip-path:url(#gm);}.db{clip-path:url(#go);}.dc{clip-path:url(#gq);}.dd{clip-path:url(#gs);}.de{clip-path:url(#gu);}.df{clip-path:url(#gw);}.dg{clip-path:url(#gy);}.dh{clip-path:url(#ha);}.di{clip-path:url(#hc);}.dj{clip-path:url(#he);}.dk{clip-path:url(#hg);}.dl{clip-path:url(#hi);}.dm{clip-path:url(#hk);}.dn{clip-path:url(#hm);}.do{clip-path:url(#ho);}.dp{clip-path:url(#hq);}.dq{clip-path:url(#hs);}.dr{clip-path:url(#hu);}.ds{clip-path:url(#hw);}.dt{clip-path:url(#hy);}.du{clip-path:url(#ia);}.dv{clip-path:url(#ic);}.dw{clip-path:url(#ie);}.dx{clip-path:url(#ig);}.dy{clip-path:url(#ii);}.dz{clip-path:url(#ik);}.ea{clip-path:url(#im);}.eb{clip-path:url(#io);}.ec{clip-path:url(#iq);}.ed{clip-path:url(#is);}.ee{clip-path:url(#iu);}.ef{clip-path:url(#iw);}.eg{clip-path:url(#iy);}.eh{clip-path:url(#ja);}.ei{clip-path:url(#jc);}.ej{clip-path:url(#je);}.ek{clip-path:url(#jg);}.el{clip-path:url(#ji);}.em{clip-path:url(#jk);}.en{clip-path:url(#jm);}.eo{clip-path:url(#jo);}.ep{clip-path:url(#jq);}.eq{clip-path:url(#js);}.er{clip-path:url(#ju);}.es{clip-path:url(#jw);}.et{clip-path:url(#jy);}.eu{clip-path:url(#ka);}.ev{clip-path:url(#kc);}.ew{clip-path:url(#ke);}.ex{clip-path:url(#kg);}.ey{clip-path:url(#ki);}.ez{clip-path:url(#kk);}.fa{clip-path:url(#km);}.fb{clip-path:url(#ko);}.fc{clip-path:url(#kq);}.fd{clip-path:url(#ks);}.fe{clip-path:url(#ku);}.ff{clip-path:url(#kw);}.fg{clip-path:url(#ky);}.fh{clip-path:url(#la);}.fi{clip-path:url(#lc);}.fj{clip-path:url(#le);}.fk{clip-path:url(#lg);}.fl{clip-path:url(#li);}.fm{clip-path:url(#lk);}.fn{clip-path:url(#lm);}.fo{clip-path:url(#lo);}.fp{clip-path:url(#lq);}.fq{clip-path:url(#ls);}.fr{clip-path:url(#lu);}.fs{clip-path:url(#lw);}.ft{clip-path:url(#ly);}.fu{clip-path:url(#ma);}.fv{clip-path:url(#mc);}.fw{clip-path:url(#me);}.fx{clip-path:url(#mg);}</style><clipPath id="a"><polygon class="a" points="147.97 285.77 233.13 285.77 237.13 285.77 237.13 277.77 233.13 277.77 147.97 277.77 143.97 277.77 143.97 285.77 147.97 285.77"/></clipPath><clipPath id="b"><rect class="a" x="-2.23" y="-2.59" width="641" height="464"/></clipPath><clipPath id="c"><polygon class="a" points="87.78 143.2 233.13 143.2 237.13 143.2 237.13 135.2 233.13 135.2 87.78 135.2 83.78 135.2 83.78 143.2 87.78 143.2"/></clipPath><clipPath id="e"><polygon class="a" points="492.27 180.23 541.33 180.23 545.33 180.23 545.33 172.23 541.33 172.23 492.27 172.23 488.27 172.23 488.27 180.23 492.27 180.23"/></clipPath><clipPath id="g"><polygon class="a" points="492.27 258 541.33 258 545.33 258 545.33 250 541.33 250 492.27 250 488.27 250 488.27 258 492.27 258"/></clipPath><clipPath id="i"><polygon class="a" points="417.28 410.75 438.59 410.75 442.59 410.75 442.59 402.75 438.59 402.75 417.28 402.75 413.28 402.75 413.28 410.75 417.28 410.75"/></clipPath><clipPath id="k"><polygon class="a" points="52.71 97.78 159.87 47.47 163.49 45.77 160.09 38.53 156.47 40.23 49.31 90.54 45.69 92.24 49.09 99.48 52.71 97.78"/></clipPath><clipPath id="m"><polygon class="a" points="174.36 399.64 353.38 399.64 357.38 399.64 357.38 391.64 353.38 391.64 174.36 391.64 170.36 391.64 170.36 399.64 174.36 399.64"/></clipPath><clipPath id="o"><polygon class="a" points="440.43 285.77 487.58 285.77 491.58 285.77 491.58 277.77 487.58 277.77 440.43 277.77 436.43 277.77 436.43 285.77 440.43 285.77"/></clipPath><clipPath id="q"><polygon class="a" points="147.25 437.35 145.81 241.61 145.79 237.93 137.79 237.96 137.81 241.65 139.25 437.39 139.28 441.07 147.28 441.04 147.25 437.35"/></clipPath><clipPath id="s"><polygon class="a" points="193.63 137.54 193.63 66.07 193.63 62.07 185.63 62.07 185.63 66.07 185.63 137.54 185.63 141.54 193.63 141.54 193.63 137.54"/></clipPath><clipPath id="u"><polygon class="a" points="353.74 221.13 353.74 176.2 353.74 172.2 345.74 172.2 345.74 176.2 345.74 221.13 345.74 225.13 353.74 225.13 353.74 221.13"/></clipPath><clipPath id="w"><polygon class="a" points="357.44 395.67 357.44 370.5 357.44 366.5 349.44 366.5 349.44 370.5 349.44 395.67 349.44 399.67 357.44 399.67 357.44 395.67"/></clipPath><clipPath id="y"><polygon class="a" points="421.3 405.93 421.3 369.57 421.3 365.57 413.3 365.57 413.3 369.57 413.3 405.93 413.3 409.93 421.3 409.93 421.3 405.93"/></clipPath><clipPath id="aa"><polygon class="a" points="45.82 343.89 45.82 316.42 44.55 319.35 128.84 240.77 131.76 238.05 126.31 232.19 123.38 234.92 39.09 313.5 37.82 314.68 37.82 316.42 37.82 343.89 37.82 347.89 45.82 347.89 45.82 343.89"/></clipPath><clipPath id="ac"><polygon class="a" points="491.64 280.1 491.64 177.93 491.64 173.93 483.64 173.93 483.64 177.93 483.64 280.1 483.64 284.1 491.64 284.1 491.64 280.1"/></clipPath><clipPath id="ae"><polygon class="a" points="565.68 373.6 565.68 329.76 565.68 325.76 557.68 325.76 557.68 329.76 557.68 373.6 557.68 377.6 565.68 377.6 565.68 373.6"/></clipPath><clipPath id="ag"><polygon class="a" points="301.91 414.33 301.91 395.28 301.91 391.28 293.91 391.28 293.91 395.28 293.91 414.33 293.91 418.33 301.91 418.33 301.91 414.33"/></clipPath><clipPath id="ai"><path class="b" d="M561.79,439.08a33,33,0,1,1,33-33A33,33,0,0,1,561.79,439.08Zm0-59.58a26.58,26.58,0,1,0,26.59,26.58A26.61,26.61,0,0,0,561.79,379.51Z"/></clipPath><clipPath id="ak"><path class="b" d="M545.27,417.57a19.86,19.86,0,0,1-3.61-11.49,20.14,20.14,0,0,1,40.27,0,19.86,19.86,0,0,1-3.61,11.48,10.78,10.78,0,0,0-10-6.8h-13a10.78,10.78,0,0,0-10,6.8"/></clipPath><clipPath id="am"><path class="b" d="M570.48,403.19a8.69,8.69,0,1,1-8.69-8.69,8.69,8.69,0,0,1,8.69,8.69"/></clipPath><clipPath id="ao"><path class="b" d="M561.79,415.09a11.9,11.9,0,1,1,11.9-11.9A11.91,11.91,0,0,1,561.79,415.09Zm0-17.37a5.48,5.48,0,1,0,5.48,5.48A5.49,5.49,0,0,0,561.79,397.71Z"/></clipPath><clipPath id="aq"><path class="b" d="M580.21,431.55h-6.42v-10a5.49,5.49,0,0,0-5.48-5.48h-13a5.49,5.49,0,0,0-5.48,5.48v10h-6.42v-10a11.91,11.91,0,0,1,11.9-11.9h13a11.91,11.91,0,0,1,11.9,11.9v10"/></clipPath><clipPath id="as"><path class="b" d="M187.84,66a33,33,0,1,1,33-33A33,33,0,0,1,187.84,66Zm0-59.58A26.58,26.58,0,1,0,214.43,33,26.61,26.61,0,0,0,187.84,6.42Z"/></clipPath><clipPath id="au"><path class="b" d="M171.31,44.48A19.86,19.86,0,0,1,167.7,33,20.14,20.14,0,0,1,208,33a19.86,19.86,0,0,1-3.61,11.48,10.78,10.78,0,0,0-10-6.8h-13a10.78,10.78,0,0,0-10,6.8"/></clipPath><clipPath id="aw"><path class="b" d="M196.53,30.1a8.69,8.69,0,1,1-8.69-8.69,8.69,8.69,0,0,1,8.69,8.69"/></clipPath><clipPath id="ay"><path class="b" d="M187.84,42a11.9,11.9,0,1,1,11.9-11.9A11.91,11.91,0,0,1,187.84,42Zm0-17.37a5.48,5.48,0,1,0,5.48,5.48A5.49,5.49,0,0,0,187.84,24.62Z"/></clipPath><clipPath id="ba"><path class="b" d="M206.26,58.46h-6.42v-10A5.49,5.49,0,0,0,194.36,43h-13a5.49,5.49,0,0,0-5.48,5.48v10h-6.42v-10a11.91,11.91,0,0,1,11.9-11.9h13a11.91,11.91,0,0,1,11.9,11.9v10"/></clipPath><clipPath id="bc"><path class="b" d="M297.53,460.4A22.46,22.46,0,1,1,320,437.95,22.49,22.49,0,0,1,297.53,460.4Zm0-40.55a18.09,18.09,0,1,0,18.09,18.09A18.11,18.11,0,0,0,297.53,419.85Z"/></clipPath><clipPath id="be"><path class="b" d="M286.28,445.76a13.51,13.51,0,0,1-2.46-7.82,13.7,13.7,0,0,1,27.41,0,13.52,13.52,0,0,1-2.46,7.82,7.34,7.34,0,0,0-6.81-4.63h-8.87a7.34,7.34,0,0,0-6.81,4.63"/></clipPath><clipPath id="bg"><path class="b" d="M303.44,436a5.91,5.91,0,1,1-5.91-5.91,5.91,5.91,0,0,1,5.91,5.91"/></clipPath><clipPath id="bi"><path class="b" d="M297.53,444.07a8.1,8.1,0,1,1,8.1-8.1A8.11,8.11,0,0,1,297.53,444.07Zm0-11.82a3.73,3.73,0,1,0,3.73,3.73A3.73,3.73,0,0,0,297.53,432.25Z"/></clipPath><clipPath id="bk"><path class="b" d="M310.06,455.28h-4.37v-6.82a3.73,3.73,0,0,0-3.73-3.73h-8.87a3.73,3.73,0,0,0-3.73,3.73v6.82H285v-6.82a8.11,8.11,0,0,1,8.1-8.1H302a8.11,8.11,0,0,1,8.1,8.1v6.82"/></clipPath><clipPath id="bm"><path class="b" d="M541.84,192.86a18.79,18.79,0,1,1,18.8-18.79A18.81,18.81,0,0,1,541.84,192.86Zm0-33.93A15.14,15.14,0,1,0,557,174.07,15.16,15.16,0,0,0,541.84,158.93Z"/></clipPath><clipPath id="bo"><path class="b" d="M532.43,180.61a11.31,11.31,0,0,1-2.06-6.54,11.47,11.47,0,0,1,22.93,0,11.31,11.31,0,0,1-2.06,6.54,6.14,6.14,0,0,0-5.7-3.87h-7.42a6.14,6.14,0,0,0-5.7,3.87"/></clipPath><clipPath id="bq"><path class="b" d="M546.79,172.42a4.95,4.95,0,1,1-4.95-4.95,4.95,4.95,0,0,1,4.95,4.95"/></clipPath><clipPath id="bs"><path class="b" d="M541.84,179.19a6.77,6.77,0,1,1,6.78-6.77A6.78,6.78,0,0,1,541.84,179.19Zm0-9.89a3.12,3.12,0,1,0,3.12,3.12A3.12,3.12,0,0,0,541.84,169.3Z"/></clipPath><clipPath id="bu"><path class="b" d="M552.33,188.57h-3.66v-5.71a3.12,3.12,0,0,0-3.12-3.12h-7.42a3.12,3.12,0,0,0-3.12,3.12v5.71h-3.66v-5.71a6.78,6.78,0,0,1,6.78-6.78h7.42a6.78,6.78,0,0,1,6.78,6.78v5.71"/></clipPath><clipPath id="bw"><path class="b" d="M459.48,427.08a18.79,18.79,0,1,1,18.8-18.79A18.81,18.81,0,0,1,459.48,427.08Zm0-33.93a15.14,15.14,0,1,0,15.14,15.14A15.16,15.16,0,0,0,459.48,393.15Z"/></clipPath><clipPath id="by"><path class="b" d="M450.07,414.83a11.31,11.31,0,0,1-2.06-6.54,11.47,11.47,0,0,1,22.93,0,11.31,11.31,0,0,1-2.06,6.54,6.14,6.14,0,0,0-5.7-3.87h-7.42a6.14,6.14,0,0,0-5.7,3.87"/></clipPath><clipPath id="ca"><path class="b" d="M464.42,406.64a4.95,4.95,0,1,1-4.95-4.95,4.95,4.95,0,0,1,4.95,4.95"/></clipPath><clipPath id="cc"><path class="b" d="M459.48,413.42a6.77,6.77,0,1,1,6.78-6.77A6.78,6.78,0,0,1,459.48,413.42Zm0-9.89a3.12,3.12,0,1,0,3.12,3.12A3.12,3.12,0,0,0,459.48,403.52Z"/></clipPath><clipPath id="ce"><path class="b" d="M470,422.79h-3.66v-5.71a3.12,3.12,0,0,0-3.12-3.12h-7.42a3.12,3.12,0,0,0-3.12,3.12v5.71H449v-5.71a6.78,6.78,0,0,1,6.78-6.77h7.42a6.78,6.78,0,0,1,6.78,6.77v5.71"/></clipPath><clipPath id="cg"><path class="b" d="M140.18,241.92A18.79,18.79,0,1,1,159,223.13,18.81,18.81,0,0,1,140.18,241.92Zm0-33.93a15.14,15.14,0,1,0,15.14,15.14A15.16,15.16,0,0,0,140.18,208Z"/></clipPath><clipPath id="ci"><path class="b" d="M130.77,229.67a11.31,11.31,0,0,1-2.06-6.54,11.47,11.47,0,0,1,22.93,0,11.31,11.31,0,0,1-2.06,6.54,6.14,6.14,0,0,0-5.7-3.87h-7.42a6.14,6.14,0,0,0-5.7,3.87"/></clipPath><clipPath id="ck"><path class="b" d="M145.13,221.48a4.95,4.95,0,1,1-4.95-4.95,4.95,4.95,0,0,1,4.95,4.95"/></clipPath><clipPath id="cm"><path class="b" d="M140.18,228.26a6.77,6.77,0,1,1,6.78-6.77A6.78,6.78,0,0,1,140.18,228.26Zm0-9.89a3.12,3.12,0,1,0,3.12,3.12A3.12,3.12,0,0,0,140.18,218.37Z"/></clipPath><clipPath id="co"><path class="b" d="M150.67,237.64H147v-5.71a3.12,3.12,0,0,0-3.12-3.12h-7.42a3.12,3.12,0,0,0-3.12,3.12v5.71H129.7v-5.71a6.78,6.78,0,0,1,6.78-6.77h7.42a6.78,6.78,0,0,1,6.78,6.77v5.71"/></clipPath><clipPath id="cq"><path class="b" d="M40.62,382.64a18.79,18.79,0,1,1,18.8-18.79A18.81,18.81,0,0,1,40.62,382.64Zm0-33.93a15.14,15.14,0,1,0,15.14,15.14A15.16,15.16,0,0,0,40.62,348.72Z"/></clipPath><clipPath id="cs"><path class="b" d="M31.2,370.39a11.31,11.31,0,0,1-2.06-6.54,11.47,11.47,0,0,1,22.93,0A11.31,11.31,0,0,1,50,370.39a6.14,6.14,0,0,0-5.7-3.87H36.9a6.14,6.14,0,0,0-5.7,3.87"/></clipPath><clipPath id="cu"><path class="b" d="M45.56,362.2a4.95,4.95,0,1,1-4.95-4.95,4.95,4.95,0,0,1,4.95,4.95"/></clipPath><clipPath id="cw"><path class="b" d="M40.62,369a6.77,6.77,0,1,1,6.78-6.77A6.78,6.78,0,0,1,40.62,369Zm0-9.89a3.12,3.12,0,1,0,3.12,3.12A3.12,3.12,0,0,0,40.62,359.08Z"/></clipPath><clipPath id="cy"><path class="b" d="M51.1,378.35H47.45v-5.71a3.12,3.12,0,0,0-3.12-3.12H36.9a3.12,3.12,0,0,0-3.12,3.12v5.71H30.13v-5.71a6.78,6.78,0,0,1,6.78-6.77h7.42a6.78,6.78,0,0,1,6.78,6.77v5.71"/></clipPath><clipPath id="da"><path class="b" d="M40.2,314.1a33,33,0,1,1,33-33A33,33,0,0,1,40.2,314.1Zm0-59.58a26.58,26.58,0,1,0,26.59,26.58A26.61,26.61,0,0,0,40.2,254.53Z"/></clipPath><clipPath id="dc"><path class="b" d="M23.68,292.59a19.86,19.86,0,0,1-3.61-11.49,20.14,20.14,0,0,1,40.27,0,19.86,19.86,0,0,1-3.61,11.48,10.78,10.78,0,0,0-10-6.8h-13a10.78,10.78,0,0,0-10,6.8"/></clipPath><clipPath id="de"><path class="b" d="M48.89,278.21a8.69,8.69,0,1,1-8.69-8.69,8.69,8.69,0,0,1,8.69,8.69"/></clipPath><clipPath id="dg"><path class="b" d="M40.2,290.11a11.9,11.9,0,1,1,11.9-11.9A11.91,11.91,0,0,1,40.2,290.11Zm0-17.37a5.48,5.48,0,1,0,5.48,5.48A5.49,5.49,0,0,0,40.2,272.73Z"/></clipPath><clipPath id="di"><path class="b" d="M58.62,306.57H52.2v-10a5.49,5.49,0,0,0-5.48-5.48h-13a5.49,5.49,0,0,0-5.48,5.48v10H21.78v-10a11.91,11.91,0,0,1,11.9-11.9h13a11.91,11.91,0,0,1,11.9,11.9v10"/></clipPath><clipPath id="dk"><path class="b" d="M176.08,355.11V346a8.37,8.37,0,0,1,16.75,0v9.1H176.08"/></clipPath><clipPath id="dm"><path class="b" d="M195.17,357.46H173.75V346a10.71,10.71,0,0,1,21.42,0v11.44Zm-16.75-4.67H190.5V346a6,6,0,0,0-12.07,0v6.77Z"/></clipPath><clipPath id="do"><path class="b" d="M176.24,345.94v93.58h0l0,1.4a8.39,8.39,0,0,1-7.42,8.31c-2.28,0-74.21,0-77.94,0a8.37,8.37,0,0,0,7.4-8.31V439h0V345.94a8.36,8.36,0,0,1,7.4-8.31c2.28,0,74.21,0,77.93,0a8.37,8.37,0,0,0-7.4,8.31"/></clipPath><clipPath id="dq"><path class="b" d="M169.23,451.58H91.16l-0.28-4.66a6,6,0,0,0,5.33-6l0-95a10.69,10.69,0,0,1,9.46-10.63l0.27,0H183.9l0.28,4.66a6,6,0,0,0-5.33,6v95.92h0a10.72,10.72,0,0,1-9.45,9.69Zm-56.72-4.68h56.44a6,6,0,0,0,5.23-6l-0.07-3.74h0.07V346a10.67,10.67,0,0,1,1.82-6H106.13a6,6,0,0,0-5.2,6v95.41h0a10.65,10.65,0,0,1-1.81,5.54h13.43Z"/></clipPath><clipPath id="ds"><path class="b" d="M161.07,436.73v4.21a8.37,8.37,0,0,0,7.4,8.31c-3.72,0-75.65,0-77.93,0a8.37,8.37,0,0,1-7.4-8.31v-4.21h77.93"/></clipPath><clipPath id="du"><path class="b" d="M90.55,451.6l-0.27,0A10.7,10.7,0,0,1,80.82,441v-6.54h82.6V441a6,6,0,0,0,5.33,6l-0.28,4.66H90.55Zm-5.06-12.51V441a6,6,0,0,0,5.21,6h69.87a10.66,10.66,0,0,1-1.82-6v-1.87H85.49Z"/></clipPath><clipPath id="dw"><path class="b" d="M195.17,357.72H190.5V346a6,6,0,0,0-12.07,0h-4.67a10.71,10.71,0,0,1,21.42,0v11.71"/></clipPath><clipPath id="dy"><path class="b" d="M169.26,451.83c-5.45,0-10.22-5-10.22-10.64v-6.78h4.67v6.78c0,3,2.75,6,5.55,6v4.67"/></clipPath><clipPath id="ea"><polyline class="b" points="159.99 428.17 154.09 424.1 148.19 428.17 148.19 411.96 159.99 411.96 159.99 428.17"/></clipPath><clipPath id="ec"><path class="b" d="M166.7,410.19c0,0.6-1.1,1.12-1.19,1.69s0.79,1.42.61,2-1.39.71-1.65,1.24,0.31,1.59,0,2.07-1.54.25-2,.67-0.19,1.61-.67,2-1.54-.24-2.07,0-0.67,1.47-1.24,1.65-1.38-.7-2-0.61-1.09,1.19-1.69,1.19-1.11-1.1-1.69-1.19-1.42.79-2,.61-0.72-1.39-1.24-1.66-1.59.32-2.07,0-0.25-1.54-.67-2-1.61-.19-2-0.67,0.24-1.54,0-2.07-1.47-.67-1.66-1.24,0.7-1.38.61-2-1.19-1.09-1.19-1.69,1.1-1.11,1.19-1.69-0.79-1.42-.61-2,1.39-.71,1.65-1.24-0.31-1.59,0-2.07,1.54-.25,2-0.67,0.19-1.61.67-2,1.54,0.24,2.07,0,0.67-1.47,1.24-1.66,1.38,0.7,2,.61,1.09-1.19,1.69-1.19,1.11,1.1,1.69,1.19,1.42-.79,2-0.61,0.72,1.39,1.24,1.66,1.59-.31,2.07,0,0.25,1.54.67,2,1.61,0.19,2,.67-0.24,1.54,0,2.07,1.47,0.67,1.66,1.24-0.7,1.38-.61,2,1.19,1.09,1.19,1.69"/></clipPath><clipPath id="ee"><path class="b" d="M160.23,410.36a5.24,5.24,0,1,1-5.23-5.23,5.23,5.23,0,0,1,5.23,5.23"/></clipPath><clipPath id="eg"><rect class="a" x="121.86" y="351.57" width="30.11" height="4.67"/></clipPath><clipPath id="ei"><rect class="a" x="111.02" y="363.96" width="50.72" height="4.67"/></clipPath><clipPath id="ek"><rect class="a" x="111.02" y="374.79" width="50.72" height="4.67"/></clipPath><clipPath id="em"><rect class="a" x="111.02" y="386.41" width="50.72" height="4.67"/></clipPath><clipPath id="eo"><rect class="a" x="111.02" y="398.02" width="30.15" height="4.67"/></clipPath><clipPath id="eq"><rect class="a" x="111.02" y="409.63" width="20.02" height="4.67"/></clipPath><clipPath id="es"><path class="b" d="M53.61,175.3v-5.39a27.63,27.63,0,1,0,0-55.25v-5.39a33,33,0,1,1,0,66"/></clipPath><clipPath id="eu"><rect class="a" x="56.29" y="164.65" width="10.11" height="12.8"/></clipPath><clipPath id="ew"><polyline class="b" points="69.11 177.46 63.72 177.46 63.72 167.36 59 167.36 59 177.46 53.61 177.46 53.61 161.97 69.11 161.97 69.11 177.46"/></clipPath><clipPath id="ey"><path class="b" d="M31.27,149.08H52.39V61H31.27v88Zm5.39-5.39H47V66.43H36.66v77.26Z"/></clipPath><clipPath id="fa"><rect class="a" x="28.59" y="82.47" width="26.51" height="55.7"/></clipPath><clipPath id="fc"><rect class="a" x="28.59" y="79.8" width="26.51" height="5.39"/></clipPath><clipPath id="fe"><rect class="a" x="28.59" y="71.76" width="26.51" height="5.39"/></clipPath><clipPath id="fg"><rect class="a" x="17.87" y="161.97" width="48.98" height="5.39"/></clipPath><clipPath id="fi"><path class="b" d="M84.48,193.33H0V182.1a6.75,6.75,0,0,1,6.74-6.74h71a6.75,6.75,0,0,1,6.74,6.74v11.23ZM5.39,187.94H79.09V182.1a1.35,1.35,0,0,0-1.35-1.35h-71a1.35,1.35,0,0,0-1.35,1.35v5.84Z"/></clipPath><clipPath id="fk"><path class="b" d="M66.71,112.69a12.36,12.36,0,1,1-12.36-12.35,12.36,12.36,0,0,1,12.36,12.35"/></clipPath><clipPath id="fm"><path class="b" d="M54.36,127.76a15,15,0,1,1,15.05-15A15.07,15.07,0,0,1,54.36,127.76Zm0-24.71A9.66,9.66,0,1,0,64,112.71,9.67,9.67,0,0,0,54.36,103Z"/></clipPath><clipPath id="fo"><path class="b" d="M59.92,111.53A4.94,4.94,0,1,1,55,106.59a4.94,4.94,0,0,1,4.94,4.94"/></clipPath><clipPath id="fq"><path class="b" d="M248.08,238.33h-2.91a5.78,5.78,0,0,0-5.9,5.64V364.36H454.92V244a5.79,5.79,0,0,0-5.91-5.64h-2.85"/></clipPath><clipPath id="fs"><path class="b" d="M459.49,368.72H234.69V244a10.26,10.26,0,0,1,10.48-10h2.91v8.73h-2.91a1.31,1.31,0,0,0-1.33,1.27V360H450.35V244a1.31,1.31,0,0,0-1.34-1.27h-2.85V234H449a10.26,10.26,0,0,1,10.48,10V368.72"/></clipPath><clipPath id="fu"><rect class="a" x="255.26" y="225.24" width="181.93" height="122.57"/></clipPath><clipPath id="fw"><path class="b" d="M335.28,218.7H269v117.6h66.3c7.16,0,13,5.54,13,12.38V231.08c0-6.83-5.81-12.38-13-12.38"/></clipPath><clipPath id="fy"><path class="b" d="M352.83,348.67h-9.14a8.22,8.22,0,0,0-8.4-8H264.41V214.33h70.87c9.67,0,17.55,7.51,17.55,16.74V348.67Zm-79.27-16.74h61.73a18.11,18.11,0,0,1,8.4,2V231.08a8.23,8.23,0,0,0-8.4-8H273.55V331.93Z"/></clipPath><clipPath id="ga"><path class="b" d="M362,218.7h66.3v117.6H362c-7.16,0-13,5.54-13,12.38V231.08c0-6.83,5.81-12.38,13-12.38"/></clipPath><clipPath id="gc"><path class="b" d="M353.56,348.67h-9.14V231.08c0-9.23,7.87-16.74,17.54-16.74h70.87V340.66H362A8.22,8.22,0,0,0,353.56,348.67ZM362,223.06a8.22,8.22,0,0,0-8.4,8V334a18.12,18.12,0,0,1,8.4-2h61.73V223.06H362Z"/></clipPath><clipPath id="ge"><line class="a" x1="280.41" y1="236.15" x2="311.27" y2="236.15"/></clipPath><clipPath id="gg"><rect class="a" x="280.41" y="231.79" width="30.86" height="8.73"/></clipPath><clipPath id="gi"><line class="a" x1="280.41" y1="251.42" x2="332.38" y2="251.42"/></clipPath><clipPath id="gk"><rect class="a" x="280.41" y="247.06" width="51.98" height="8.73"/></clipPath><clipPath id="gm"><line class="a" x1="280.41" y1="268.87" x2="332.38" y2="268.87"/></clipPath><clipPath id="go"><rect class="a" x="280.41" y="264.51" width="51.98" height="8.73"/></clipPath><clipPath id="gq"><line class="a" x1="280.41" y1="284.14" x2="332.38" y2="284.14"/></clipPath><clipPath id="gs"><rect class="a" x="280.41" y="279.78" width="51.98" height="8.73"/></clipPath><clipPath id="gu"><line class="a" x1="280.41" y1="299.41" x2="332.38" y2="299.41"/></clipPath><clipPath id="gw"><rect class="a" x="280.41" y="295.05" width="51.98" height="8.73"/></clipPath><clipPath id="gy"><line class="a" x1="280.41" y1="314.68" x2="332.38" y2="314.68"/></clipPath><clipPath id="ha"><rect class="a" x="280.41" y="310.32" width="51.98" height="8.73"/></clipPath><clipPath id="hc"><line class="a" x1="360.41" y1="251.42" x2="412.39" y2="251.42"/></clipPath><clipPath id="he"><rect class="a" x="360.41" y="247.06" width="51.98" height="8.73"/></clipPath><clipPath id="hg"><line class="a" x1="360.41" y1="268.87" x2="412.39" y2="268.87"/></clipPath><clipPath id="hi"><rect class="a" x="360.41" y="264.51" width="51.98" height="8.73"/></clipPath><clipPath id="hk"><line class="a" x1="360.41" y1="284.14" x2="412.39" y2="284.14"/></clipPath><clipPath id="hm"><rect class="a" x="360.41" y="279.78" width="51.98" height="8.73"/></clipPath><clipPath id="ho"><line class="a" x1="360.41" y1="299.41" x2="412.39" y2="299.41"/></clipPath><clipPath id="hq"><rect class="a" x="360.41" y="295.05" width="51.98" height="8.73"/></clipPath><clipPath id="hs"><line class="a" x1="360.41" y1="314.68" x2="412.39" y2="314.68"/></clipPath><clipPath id="hu"><rect class="a" x="360.41" y="310.32" width="51.98" height="8.73"/></clipPath><clipPath id="hw"><rect class="a" x="500.84" y="39.6" width="132.78" height="91.52"/></clipPath><clipPath id="hy"><path class="b" d="M498.16,133.83H636.33V36.92H498.16v96.91Zm5.39-5.39H630.94V42.31H503.55v86.13Z"/></clipPath><clipPath id="ia"><line class="a" x1="513.35" y1="111.95" x2="567.67" y2="111.95"/></clipPath><clipPath id="ic"><rect class="a" x="513.35" y="109.27" width="54.33" height="5.39"/></clipPath><clipPath id="ie"><line class="a" x1="513.35" y1="89.62" x2="585.57" y2="89.62"/></clipPath><clipPath id="ig"><rect class="a" x="513.35" y="86.94" width="72.23" height="5.39"/></clipPath><clipPath id="ii"><line class="a" x1="585.57" y1="100.34" x2="513.35" y2="100.34"/></clipPath><clipPath id="ik"><rect class="a" x="513.35" y="97.66" width="72.23" height="5.39"/></clipPath><clipPath id="im"><line class="a" x1="513.35" y1="75.33" x2="585.57" y2="75.33"/></clipPath><clipPath id="io"><rect class="a" x="513.35" y="73.54" width="72.23" height="5.39"/></clipPath><clipPath id="iq"><rect class="a" x="500.84" y="23.53" width="132.78" height="15.5"/></clipPath><clipPath id="is"><path class="b" d="M498.16,41.73H636.33V20.85H498.16V41.73Zm5.39-5.39H630.94V26.24H503.55V36.34Z"/></clipPath><clipPath id="iu"><line class="a" x1="506.2" y1="31.56" x2="511.24" y2="31.56"/></clipPath><clipPath id="iw"><rect class="a" x="506.2" y="28.88" width="5.04" height="5.39"/></clipPath><clipPath id="iy"><line class="a" x1="516.03" y1="31.56" x2="521.07" y2="31.56"/></clipPath><clipPath id="ja"><rect class="a" x="516.03" y="28.88" width="5.04" height="5.39"/></clipPath><clipPath id="jc"><line class="a" x1="524.07" y1="31.56" x2="529.11" y2="31.56"/></clipPath><clipPath id="je"><rect class="a" x="524.07" y="28.88" width="5.04" height="5.39"/></clipPath><clipPath id="jg"><rect class="a" x="513.35" y="53" width="44.49" height="10"/></clipPath><clipPath id="ji"><polyline class="b" points="598.22 74.15 598.22 70.91 607.48 53.89 616.74 70.91 616.75 74.15"/></clipPath><clipPath id="jk"><polyline class="b" points="614.07 74.43 614.06 71.88 607.5 59.81 600.93 71.88 600.93 74.43 595.54 74.43 595.54 70.5 607.5 48.53 619.46 70.5 619.46 74.43 614.07 74.43"/></clipPath><clipPath id="jm"><polyline class="b" points="598.23 74.44 616.98 74.44 616.98 129.62 598.22 129.62 598.23 74.44"/></clipPath><clipPath id="jo"><path class="b" d="M614.3,77.15v49.79H600.94V77.15H614.3Zm5.39-5.39H595.55v60.57h24.15V71.76Z"/></clipPath><clipPath id="jq"><path class="b" d="M598.22,148.57V156a1.87,1.87,0,0,0,2,1.66h14.47a1.88,1.88,0,0,0,2-1.66v-7.47"/></clipPath><clipPath id="js"><path class="b" d="M600.27,160.4a4.52,4.52,0,0,1-4.73-4.35v-7.47h5.39V155h13.15v-6.43h5.39V156a4.16,4.16,0,0,1-1.25,3,5,5,0,0,1-3.49,1.4H600.27"/></clipPath><clipPath id="ju"><polyline class="b" points="619.69 133.38 619.69 144.87 595.54 144.87 595.54 133.38 619.69 133.38"/></clipPath><clipPath id="jw"><path class="b" d="M572.46,329.17h-39.4a3.89,3.89,0,0,1-3.89-3.88V232.47a3.89,3.89,0,0,1,3.89-3.89H598.5a3.89,3.89,0,0,1,3.89,3.89v55"/></clipPath><clipPath id="jy"><path class="b" d="M572.46,331.53h-39.4a6.26,6.26,0,0,1-6.26-6.24V232.47a6.26,6.26,0,0,1,6.26-6.25H598.5a6.26,6.26,0,0,1,6.26,6.25v55H600v-55a1.53,1.53,0,0,0-1.53-1.53H533.06a1.53,1.53,0,0,0-1.53,1.53v92.81a1.53,1.53,0,0,0,1.53,1.53h39.4v4.72"/></clipPath><clipPath id="ka"><rect class="a" x="535.08" y="240.37" width="62.1" height="80.68"/></clipPath><clipPath id="kc"><line class="a" x1="569.33" y1="235.66" x2="563.44" y2="235.66"/></clipPath><clipPath id="ke"><rect class="a" x="563.44" y="233.3" width="5.89" height="4.72"/></clipPath><clipPath id="kg"><path class="b" d="M614.91,344.06v-6a12.32,12.32,0,0,0,5-9.9V306.7L619.67,302a4.61,4.61,0,0,0-4.61-4.6c-2.55,0-4.61.91-4.61,3.45v-1.15a4.61,4.61,0,0,0-9.22,0v-2.3a4.61,4.61,0,0,0-9.22,0v2.59c0-6.23,0-26.51,0-26.51a4.77,4.77,0,0,0-9.54,0l0,46.52-0.1-2.26v-9.51a7,7,0,0,0-7-7h-2.35v20.5l13.36,15.84a26,26,0,0,0,5.59,2.71v3.87"/></clipPath><clipPath id="ki"><path class="b" d="M617.42,344.06h-4.73V336.9l0.95-.71a9.93,9.93,0,0,0,4-8V306.7l-0.23-4.63a2.28,2.28,0,0,0-2.25-2.36c-2.24,0-2.25.71-2.25,1.09h-4.73v-1.15a2.25,2.25,0,0,0-4.5,0H599v-2.3a2.25,2.25,0,0,0-4.5,0v2.59h-4.73c0-6.23,0-26.51,0-26.51a2.41,2.41,0,0,0-4.82,0l0,46.52-4.72.1-0.1-2.26v-9.61a4.68,4.68,0,0,0-4.67-4.67v6.25l0.29,1.83-0.29.09v9.11L588,335.68a21.66,21.66,0,0,0,4.58,2.22l1.8,0.44v5.72h-4.73v-2.2a34.74,34.74,0,0,1-4.5-2.39l-0.31-.2L570.67,322.5V310.13l-0.15-1.84,0.15,0v-5h-0.13l0.13-2.69V299h0.09v-0.17h4.61a9.37,9.37,0,0,1,4.79,1.31V273.43a7.14,7.14,0,0,1,14.27,0s0,9.38,0,17.34a7,7,0,0,1,8.11,2.8,7,7,0,0,1,9.05,2.05,9.23,9.23,0,0,1,3.54-.62,7,7,0,0,1,7,7l0.23,4.63v21.59a14.57,14.57,0,0,1-5,11v4.85"/></clipPath><clipPath id="kk"><path class="b" d="M525.48,282.93l0.05-.12,15.68,0.24c0,0.11,0,.22,0,0.33l0,2.6a7.83,7.83,0,0,1-8,7.69l-1.72-.05-2.43,7.26c4.93,3.62,8.26,10.54,8.26,18.49a24.6,24.6,0,0,1-5.11,15.46h-13.7V298.61l6.94-15.68"/></clipPath><clipPath id="km"><path class="b" d="M533.36,337.21H516.17V298.14L524,280.46l19.43,0.29,0.11,2.2a4.94,4.94,0,0,1,0,.52l0,2.57a10.23,10.23,0,0,1-10.19,10H533.2l-1.35,4.05c4.89,4.37,7.86,11.58,7.86,19.28a26.83,26.83,0,0,1-5.64,16.95ZM520.9,332.5h10.17A22.86,22.86,0,0,0,535,319.4c0-6.92-2.8-13.28-7.3-16.59l-1.38-1,3.53-10.56,3.48,0.11a5.5,5.5,0,0,0,5.52-5.37V285.4l-11.78-.18-6.16,13.91V332.5Z"/></clipPath><clipPath id="ko"><rect class="a" x="512.63" y="331.16" width="36.51" height="12.39"/></clipPath><clipPath id="kq"><path class="b" d="M539.8,266.31h23.63V245.09H539.8v21.22Zm4.73-4.72h14.18V249.81H544.53V261.6Z"/></clipPath><clipPath id="ks"><rect class="a" x="538.62" y="271.03" width="35.94" height="4.72"/></clipPath><clipPath id="ku"><rect class="a" x="546.89" y="280.46" width="27.67" height="4.72"/></clipPath><clipPath id="kw"><rect class="a" x="546.89" y="289.89" width="27.67" height="4.72"/></clipPath><clipPath id="ky"><rect class="a" x="538.62" y="299.32" width="26.78" height="4.72"/></clipPath><clipPath id="la"><path class="b" d="M257.73,125.81a7.26,7.26,0,1,1-7.26-7.51,7.39,7.39,0,0,1,7.26,7.51"/></clipPath><clipPath id="lc"><rect class="a" x="243.22" y="81.22" width="14.52" height="46.34"/></clipPath><clipPath id="le"><ellipse class="a" cx="250.48" cy="80.87" rx="7.26" ry="7.51"/></clipPath><clipPath id="lg"><ellipse class="a" cx="453.04" cy="80.73" rx="7.26" ry="7.51"/></clipPath><clipPath id="li"><path class="b" d="M359.33,35.93a7.26,7.26,0,1,1-7.26-7.51,7.39,7.39,0,0,1,7.26,7.51"/></clipPath><clipPath id="lk"><polygon class="b" points="247.64 74.33 350.89 28.42 352.33 43.44 255.77 88.39 247.64 74.33"/></clipPath><clipPath id="lm"><path class="b" d="M344.82,35.93a7.26,7.26,0,1,0,7.26-7.51,7.39,7.39,0,0,0-7.26,7.51"/></clipPath><clipPath id="lo"><polygon class="b" points="457.24 74.33 353.99 28.42 352.55 43.44 449.11 88.39 457.24 74.33"/></clipPath><clipPath id="lq"><path class="b" d="M352,170.84L299,146.2a7.47,7.47,0,0,0-4.34-2,7.32,7.32,0,0,0-.79,0,7.76,7.76,0,0,0-7.62,7.88c0,3.86,2.79,6.1,6.23,7.75h0c0,0.09,56.19,25.28,56.19,25.28a7,7,0,0,0,.78.35l1,0.31a7,7,0,0,0,1.43.15,7.51,7.51,0,0,0,0-15"/></clipPath><clipPath id="ls"><path class="b" d="M344.82,125.81a7.26,7.26,0,1,1,7.26,7.51,7.39,7.39,0,0,1-7.26-7.51"/></clipPath><clipPath id="lu"><polygon class="b" points="456.24 87.87 353.99 133.32 352.55 118.31 449.11 73.36 456.24 87.87"/></clipPath><clipPath id="lw"><path class="b" d="M295.12,92.46l2.93,2.73a7.09,7.09,0,0,0-2.93-2.73"/></clipPath><clipPath id="ly"><path class="b" d="M292.23,108.47l-2.63-2.53a7.19,7.19,0,0,0,2.63,2.53"/></clipPath><clipPath id="ma"><path class="b" d="M352.33,119.09L298.41,94l-2.93-1.36a7.39,7.39,0,0,0-1.57-.17,7.76,7.76,0,0,0-7.62,7.88,8,8,0,0,0,3.37,6.54l2.57,1.14,56.85,25.27,0.78,0.35a6.87,6.87,0,0,0,1,.31,7,7,0,0,0,1.43.15,7.51,7.51,0,0,0,0-15"/></clipPath><clipPath id="mc"><path class="b" d="M417.25,151.77V127s0-.08,0-0.12a7.26,7.26,0,1,0-14.52,0v20.76l-50.67,23.58a7.51,7.51,0,0,0,0,15,6.78,6.78,0,0,0,2.47-.46l0.78-.35,55.86-24.84c3.62-1.61,6.06-4,6.07-7.4,0-.84,0-1.49,0-1.49"/></clipPath><clipPath id="me"><polygon class="b" points="301.28 153.62 286.29 152.14 286.29 99.2 301.28 99.2 301.28 153.62"/></clipPath><clipPath id="mg"><path class="b" d="M250,119.42c-5,0-21.19,14.7-21.19,44.7,0,37.66,21.25,44.75,21.25,44.75s21.26-6.84,21.26-44.75c0-30-16.3-44.7-21.33-44.7m0,14.72s7.19,4.16,9.47,16.86l-9.47,6.52L240.59,151c2.28-12.71,9.47-16.86,9.47-16.86M250.24,194h-0.07s-3.13-1.49-6.07-6.6a32.47,32.47,0,0,1-2.89-6.86q-0.42-1.4-.78-3a62.35,62.35,0,0,1-1.36-13.62,14.48,14.48,0,0,1,.1-1.54c0-.26.05-0.51,0.08-0.77l10.91,7.34h0.12l10.9-7.34a17,17,0,0,1,.18,2.3c0,24.81-11.11,30.07-11.11,30.07"/></clipPath></defs><title>img-cover-onefaculty-homepage</title><g class="c"><g class="d"><rect class="e" x="138.97" y="272.77" width="103.17" height="18"/></g></g><g class="f"><g class="d"><rect class="e" x="78.78" y="130.2" width="163.35" height="18"/></g></g><g class="g"><g class="d"><rect class="e" x="483.27" y="167.23" width="67.06" height="18"/></g></g><g class="h"><g class="d"><rect class="e" x="483.27" y="245" width="67.06" height="18"/></g></g><g class="i"><g class="d"><rect class="e" x="408.28" y="397.75" width="39.31" height="18"/></g></g><g class="j"><g class="d"><rect class="e" x="40.69" y="33.53" width="127.79" height="70.95"/></g></g><g class="k"><g class="d"><rect class="e" x="165.36" y="386.64" width="197.02" height="18"/></g></g><g class="l"><g class="d"><rect class="e" x="431.43" y="272.77" width="65.15" height="18"/></g></g><g class="m"><g class="d"><rect class="e" x="131.51" y="232.9" width="21.84" height="230.61"/></g></g><g class="n"><g class="d"><rect class="e" x="180.63" y="57.07" width="18" height="89.47"/></g></g><g class="o"><g class="d"><rect class="e" x="340.74" y="167.2" width="18" height="62.94"/></g></g><g class="p"><g class="d"><rect class="e" x="344.44" y="361.49" width="18" height="43.18"/></g></g><g class="q"><g class="d"><rect class="e" x="408.3" y="360.57" width="18" height="54.37"/></g></g><g class="r"><g class="d"><rect class="e" x="32.82" y="227.19" width="103.94" height="125.7"/></g></g><g class="s"><g class="d"><rect class="e" x="478.64" y="168.93" width="18" height="120.16"/></g></g><g class="t"><g class="d"><rect class="e" x="552.68" y="320.76" width="18" height="61.84"/></g></g><g class="u"><g class="d"><rect class="e" x="288.91" y="386.28" width="18" height="37.05"/></g></g><g class="v"><g class="d"><rect class="w" x="523.78" y="368.09" width="76.01" height="75.99"/></g></g><g class="x"><g class="d"><rect class="y" x="536.65" y="380.96" width="50.27" height="41.62"/></g></g><g class="z"><g class="d"><rect class="e" x="548.1" y="389.51" width="27.38" height="27.37"/></g></g><g class="aa"><g class="d"><rect class="w" x="544.89" y="386.3" width="33.8" height="33.79"/></g></g><g class="ab"><g class="d"><rect class="w" x="538.37" y="404.63" width="46.84" height="31.92"/></g></g><g class="ac"><g class="d"><rect class="w" x="149.83" y="-5" width="76.01" height="75.99"/></g></g><g class="ad"><g class="d"><rect class="y" x="162.7" y="7.87" width="50.27" height="41.62"/></g></g><g class="ae"><g class="d"><rect class="e" x="174.15" y="16.42" width="27.38" height="27.37"/></g></g><g class="af"><g class="d"><rect class="w" x="170.94" y="13.21" width="33.8" height="33.79"/></g></g><g class="ag"><g class="d"><rect class="w" x="164.42" y="31.54" width="46.84" height="31.92"/></g></g><g class="ah"><g class="d"><rect class="w" x="270.07" y="410.49" width="54.93" height="54.91"/></g></g><g class="ai"><g class="d"><rect class="y" x="278.82" y="419.25" width="37.41" height="31.52"/></g></g><g class="aj"><g class="d"><rect class="e" x="286.61" y="425.06" width="21.83" height="21.82"/></g></g><g class="ak"><g class="d"><rect class="w" x="284.43" y="422.88" width="26.2" height="26.19"/></g></g><g class="al"><g class="d"><rect class="w" x="279.99" y="435.36" width="35.07" height="24.92"/></g></g><g class="am"><g class="d"><rect class="w" x="518.05" y="150.28" width="47.59" height="47.58"/></g></g><g class="an"><g class="d"><rect class="y" x="525.38" y="157.6" width="32.93" height="28"/></g></g><g class="ao"><g class="d"><rect class="e" x="531.9" y="162.47" width="19.9" height="19.89"/></g></g><g class="ap"><g class="d"><rect class="w" x="530.07" y="160.65" width="23.55" height="23.55"/></g></g><g class="aq"><g class="d"><rect class="w" x="526.36" y="171.09" width="30.98" height="22.48"/></g></g><g class="ar"><g class="d"><rect class="w" x="435.68" y="384.5" width="47.59" height="47.58"/></g></g><g class="as"><g class="d"><rect class="y" x="443.01" y="391.83" width="32.93" height="28"/></g></g><g class="at"><g class="d"><rect class="e" x="449.53" y="396.7" width="19.9" height="19.89"/></g></g><g class="au"><g class="d"><rect class="w" x="447.7" y="394.87" width="23.55" height="23.55"/></g></g><g class="av"><g class="d"><rect class="w" x="443.99" y="405.31" width="30.98" height="22.48"/></g></g><g class="aw"><g class="d"><rect class="w" x="116.39" y="199.34" width="47.59" height="47.58"/></g></g><g class="ax"><g class="d"><rect class="y" x="123.72" y="206.67" width="32.93" height="28"/></g></g><g class="ay"><g class="d"><rect class="e" x="130.24" y="211.54" width="19.9" height="19.89"/></g></g><g class="az"><g class="d"><rect class="w" x="128.41" y="209.71" width="23.55" height="23.55"/></g></g><g class="ba"><g class="d"><rect class="w" x="124.7" y="220.15" width="30.98" height="22.48"/></g></g><g class="bb"><g class="d"><rect class="w" x="16.82" y="340.06" width="47.59" height="47.58"/></g></g><g class="bc"><g class="d"><rect class="y" x="24.15" y="347.39" width="32.93" height="28"/></g></g><g class="bd"><g class="d"><rect class="e" x="30.67" y="352.26" width="19.9" height="19.89"/></g></g><g class="be"><g class="d"><rect class="w" x="28.84" y="350.43" width="23.55" height="23.55"/></g></g><g class="bf"><g class="d"><rect class="w" x="25.13" y="360.87" width="30.98" height="22.48"/></g></g><g class="bg"><g class="d"><rect class="w" x="2.19" y="243.11" width="76.01" height="75.99"/></g></g><g class="bh"><g class="d"><rect class="y" x="15.06" y="255.98" width="50.27" height="41.62"/></g></g><g class="bi"><g class="d"><rect class="e" x="26.51" y="264.53" width="27.38" height="27.37"/></g></g><g class="bj"><g class="d"><rect class="w" x="23.3" y="261.32" width="33.8" height="33.79"/></g></g><g class="bk"><g class="d"><rect class="w" x="16.78" y="279.65" width="46.84" height="31.92"/></g></g><g class="bl"><g class="d"><rect class="y" x="171.08" y="332.63" width="26.75" height="27.47"/></g></g><g class="bm"><g class="d"><rect class="y" x="168.75" y="330.31" width="31.42" height="32.15"/></g></g><g class="bn"><g class="d"><rect class="e" x="85.89" y="332.63" width="102.76" height="121.6"/></g></g><g class="bo"><g class="d"><rect class="w" x="85.89" y="330.31" width="103.3" height="126.27"/></g></g><g class="bp"><g class="d"><rect class="y" x="78.14" y="431.73" width="95.33" height="22.51"/></g></g><g class="bq"><g class="d"><rect class="y" x="75.82" y="429.41" width="97.94" height="27.19"/></g></g><g class="br"><g class="d"><rect class="w" x="168.75" y="330.31" width="31.42" height="32.41"/></g></g><g class="bs"><g class="d"><rect class="w" x="154.04" y="429.41" width="20.22" height="27.42"/></g></g><g class="bt"><g class="d"><rect class="bu" x="143.2" y="406.96" width="21.8" height="26.21"/></g></g><g class="bv"><g class="d"><rect class="y" x="137.95" y="393.31" width="33.75" height="33.74"/></g></g><g class="bw"><g class="d"><rect class="e" x="144.76" y="400.13" width="20.47" height="20.47"/></g></g><g class="bx"><g class="d"><rect class="bu" x="116.86" y="346.57" width="40.11" height="14.67"/></g></g><g class="by"><g class="d"><rect class="w" x="106.02" y="358.96" width="60.72" height="14.67"/></g></g><g class="bz"><g class="d"><rect class="w" x="106.02" y="369.79" width="60.72" height="14.67"/></g></g><g class="ca"><g class="d"><rect class="w" x="106.02" y="381.41" width="60.72" height="14.67"/></g></g><g class="cb"><g class="d"><rect class="w" x="106.02" y="393.02" width="40.15" height="14.67"/></g></g><g class="cc"><g class="d"><rect class="bu" x="106.02" y="404.63" width="30.02" height="14.67"/></g></g><g class="cd"><g class="d"><rect class="w" x="48.61" y="104.27" width="43.03" height="76.03"/></g></g><g class="ce"><g class="d"><rect class="e" x="51.29" y="159.65" width="20.11" height="22.8"/></g></g><g class="cf"><g class="d"><rect class="w" x="48.61" y="156.97" width="25.5" height="25.5"/></g></g><g class="cg"><g class="d"><rect class="w" x="26.27" y="56.04" width="31.12" height="98.04"/></g></g><g class="ch"><g class="d"><rect class="y" x="23.59" y="77.47" width="36.51" height="65.7"/></g></g><g class="ci"><g class="d"><rect class="w" x="23.59" y="74.8" width="36.51" height="15.39"/></g></g><g class="cj"><g class="d"><rect class="w" x="23.59" y="66.76" width="36.51" height="15.39"/></g></g><g class="ck"><g class="d"><rect class="w" x="12.87" y="156.97" width="58.98" height="15.39"/></g></g><g class="cl"><g class="d"><rect class="w" x="-5" y="170.36" width="94.48" height="27.97"/></g></g><g class="cm"><g class="d"><rect class="e" x="36.99" y="95.34" width="34.71" height="34.71"/></g></g><g class="cn"><g class="d"><rect class="w" x="34.31" y="92.66" width="40.11" height="40.1"/></g></g><g class="co"><g class="d"><rect class="bu" x="45.03" y="101.59" width="19.89" height="19.88"/></g></g><g class="cp"><g class="d"><rect class="e" x="234.26" y="233.33" width="225.66" height="136.03"/></g></g><g class="cq"><g class="d"><rect class="w" x="229.69" y="228.97" width="234.8" height="144.75"/></g></g><g class="cr"><g class="d"><rect class="y" x="250.26" y="220.24" width="191.93" height="132.57"/></g></g><g class="cs"><g class="d"><rect class="e" x="263.98" y="213.7" width="89.27" height="139.97"/></g></g><g class="ct"><g class="d"><rect class="w" x="259.41" y="209.33" width="98.42" height="144.34"/></g></g><g class="cu"><g class="d"><rect class="e" x="343.98" y="213.7" width="89.27" height="139.97"/></g></g><g class="cv"><g class="d"><rect class="w" x="339.41" y="209.33" width="98.41" height="144.34"/></g></g><g class="cw"><g class="d"><rect class="e" x="275.41" y="231.15" width="40.86" height="10"/></g></g><g class="cx"><g class="d"><rect class="w" x="275.41" y="226.79" width="40.86" height="18.73"/></g></g><g class="cy"><g class="d"><rect class="e" x="275.41" y="246.42" width="61.98" height="10"/></g></g><g class="cz"><g class="d"><rect class="w" x="275.41" y="242.06" width="61.98" height="18.73"/></g></g><g class="da"><g class="d"><rect class="e" x="275.41" y="263.87" width="61.98" height="10"/></g></g><g class="db"><g class="d"><rect class="w" x="275.41" y="259.51" width="61.98" height="18.73"/></g></g><g class="dc"><g class="d"><rect class="e" x="275.41" y="279.14" width="61.98" height="10"/></g></g><g class="dd"><g class="d"><rect class="w" x="275.41" y="274.78" width="61.98" height="18.73"/></g></g><g class="de"><g class="d"><rect class="e" x="275.41" y="294.41" width="61.98" height="10"/></g></g><g class="df"><g class="d"><rect class="w" x="275.41" y="290.05" width="61.98" height="18.73"/></g></g><g class="dg"><g class="d"><rect class="e" x="275.41" y="309.68" width="61.98" height="10"/></g></g><g class="dh"><g class="d"><rect class="w" x="275.41" y="305.32" width="61.98" height="18.73"/></g></g><g class="di"><g class="d"><rect class="e" x="355.41" y="246.42" width="61.98" height="10"/></g></g><g class="dj"><g class="d"><rect class="w" x="355.41" y="242.06" width="61.98" height="18.73"/></g></g><g class="dk"><g class="d"><rect class="e" x="355.41" y="263.87" width="61.98" height="10"/></g></g><g class="dl"><g class="d"><rect class="w" x="355.41" y="259.51" width="61.98" height="18.73"/></g></g><g class="dm"><g class="d"><rect class="e" x="355.41" y="279.14" width="61.98" height="10"/></g></g><g class="dn"><g class="d"><rect class="w" x="355.41" y="274.78" width="61.98" height="18.73"/></g></g><g class="do"><g class="d"><rect class="e" x="355.41" y="294.41" width="61.98" height="10"/></g></g><g class="dp"><g class="d"><rect class="w" x="355.41" y="290.05" width="61.98" height="18.73"/></g></g><g class="dq"><g class="d"><rect class="e" x="355.41" y="309.68" width="61.98" height="10"/></g></g><g class="dr"><g class="d"><rect class="w" x="355.41" y="305.32" width="61.98" height="18.73"/></g></g><g class="ds"><g class="d"><rect class="e" x="495.84" y="34.6" width="142.78" height="101.52"/></g></g><g class="dt"><g class="d"><rect class="w" x="493.16" y="31.92" width="148.17" height="106.91"/></g></g><g class="du"><g class="d"><rect class="e" x="508.35" y="106.95" width="64.33" height="10"/></g></g><g class="dv"><g class="d"><rect class="w" x="508.35" y="104.27" width="64.33" height="15.39"/></g></g><g class="dw"><g class="d"><rect class="e" x="508.35" y="84.62" width="82.23" height="10"/></g></g><g class="dx"><g class="d"><rect class="w" x="508.35" y="81.94" width="82.23" height="15.39"/></g></g><g class="dy"><g class="d"><rect class="e" x="508.35" y="95.34" width="82.23" height="10"/></g></g><g class="dz"><g class="d"><rect class="w" x="508.35" y="92.66" width="82.23" height="15.39"/></g></g><g class="ea"><g class="d"><rect class="e" x="508.35" y="70.33" width="82.23" height="10"/></g></g><g class="eb"><g class="d"><rect class="w" x="508.35" y="68.54" width="82.23" height="15.39"/></g></g><g class="ec"><g class="d"><rect class="e" x="495.84" y="18.53" width="142.78" height="25.5"/></g></g><g class="ed"><g class="d"><rect class="w" x="493.16" y="15.85" width="148.17" height="30.89"/></g></g><g class="ee"><g class="d"><rect class="e" x="501.2" y="26.56" width="15.04" height="10"/></g></g><g class="ef"><g class="d"><rect class="w" x="501.2" y="23.88" width="15.04" height="15.39"/></g></g><g class="eg"><g class="d"><rect class="e" x="511.03" y="26.56" width="15.04" height="10"/></g></g><g class="eh"><g class="d"><rect class="w" x="511.03" y="23.88" width="15.04" height="15.39"/></g></g><g class="ei"><g class="d"><rect class="e" x="519.07" y="26.56" width="15.04" height="10"/></g></g><g class="ej"><g class="d"><rect class="w" x="519.07" y="23.88" width="15.04" height="15.39"/></g></g><g class="ek"><g class="d"><rect class="bu" x="508.35" y="48" width="54.49" height="20"/></g></g><g class="el"><g class="d"><rect class="e" x="593.22" y="48.89" width="28.52" height="30.26"/></g></g><g class="em"><g class="d"><rect class="w" x="590.54" y="43.53" width="33.91" height="35.9"/></g></g><g class="en"><g class="d"><rect class="y" x="593.22" y="69.44" width="28.76" height="65.18"/></g></g><g class="eo"><g class="d"><rect class="w" x="590.54" y="66.76" width="34.15" height="70.57"/></g></g><g class="ep"><g class="d"><rect class="e" x="593.22" y="143.57" width="28.55" height="19.13"/></g></g><g class="eq"><g class="d"><rect class="w" x="590.54" y="143.57" width="33.94" height="21.83"/></g></g><g class="er"><g class="d"><rect class="bu" x="590.54" y="128.39" width="34.15" height="21.49"/></g></g><g class="es"><g class="d"><rect class="e" x="524.17" y="223.58" width="83.23" height="110.59"/></g></g><g class="et"><g class="d"><rect class="w" x="521.81" y="221.23" width="87.95" height="115.3"/></g></g><g class="eu"><g class="d"><rect class="bu" x="530.08" y="235.37" width="72.1" height="90.68"/></g></g><g class="ev"><g class="d"><rect class="e" x="558.44" y="230.66" width="15.89" height="10"/></g></g><g class="ew"><g class="d"><rect class="w" x="558.44" y="228.3" width="15.89" height="14.72"/></g></g><g class="ex"><g class="d"><rect class="e" x="567.89" y="263.67" width="57.01" height="85.39"/></g></g><g class="ey"><g class="d"><rect class="w" x="565.53" y="261.31" width="61.88" height="87.74"/></g></g><g class="ez"><g class="d"><rect class="e" x="513.53" y="277.82" width="32.7" height="62.02"/></g></g><g class="fa"><g class="d"><rect class="w" x="511.17" y="275.46" width="37.42" height="66.76"/></g></g><g class="fb"><g class="d"><rect class="y" x="507.63" y="326.16" width="46.51" height="22.39"/></g></g><g class="fc"><g class="d"><rect class="w" x="534.8" y="240.09" width="33.63" height="31.22"/></g></g><g class="fd"><g class="d"><rect class="w" x="533.62" y="266.03" width="45.94" height="14.72"/></g></g><g class="fe"><g class="d"><rect class="w" x="541.89" y="275.46" width="37.67" height="14.72"/></g></g><g class="ff"><g class="d"><rect class="w" x="541.89" y="284.89" width="37.67" height="14.72"/></g></g><g class="fg"><g class="d"><rect class="w" x="533.62" y="294.32" width="36.78" height="14.72"/></g></g><g class="fh"><g class="d"><rect class="w" x="238.22" y="113.3" width="24.52" height="25.02"/></g></g><g class="fi"><g class="d"><rect class="w" x="238.22" y="76.22" width="24.52" height="56.34"/></g></g><g class="fj"><g class="d"><rect class="w" x="238.22" y="68.36" width="24.52" height="25.02"/></g></g><g class="fk"><g class="d"><rect class="w" x="440.78" y="68.22" width="24.52" height="25.02"/></g></g><g class="fl"><g class="d"><rect class="w" x="339.82" y="23.42" width="24.52" height="25.02"/></g></g><g class="fm"><g class="d"><rect class="w" x="242.64" y="23.42" width="114.7" height="69.96"/></g></g><g class="fn"><g class="d"><rect class="w" x="339.82" y="23.42" width="24.52" height="25.02"/></g></g><g class="fo"><g class="d"><rect class="w" x="347.55" y="23.42" width="114.7" height="69.96"/></g></g><g class="fp"><g class="d"><rect class="w" x="281.29" y="139.14" width="82.94" height="51.72"/></g></g><g class="fq"><g class="d"><rect class="w" x="339.82" y="113.3" width="24.52" height="25.02"/></g></g><g class="fr"><g class="d"><rect class="w" x="347.55" y="68.36" width="113.69" height="69.97"/></g></g><g class="fs"><g class="d"><rect class="w" x="290.12" y="87.46" width="12.93" height="12.73"/></g></g><g class="ft"><g class="d"><rect class="w" x="284.6" y="100.94" width="12.63" height="12.53"/></g></g><g class="fu"><g class="d"><rect class="w" x="281.29" y="87.46" width="83.3" height="51.65"/></g></g><g class="fv"><g class="d"><rect class="w" x="339.82" y="114.42" width="82.44" height="76.87"/></g></g><g class="fw"><g class="d"><rect class="w" x="281.29" y="94.2" width="24.99" height="64.42"/></g></g><g class="fx"><g class="d"><rect class="w" x="223.86" y="114.42" width="52.51" height="99.45"/></g></g></svg>