<svg xmlns="http://www.w3.org/2000/svg" xmlns:xlink="http://www.w3.org/1999/xlink" viewBox="0 0 358.95 341.12"><defs><style>.a,.b{fill:none;}.a{clip-rule:evenodd;}.c{fill:#fff;}.d{isolation:isolate;}.e{clip-path:url(#a);}.f{clip-path:url(#b);}.g{fill:#151e32;}.h{clip-path:url(#c);}.i{clip-path:url(#e);}.j{clip-path:url(#g);}.k{clip-path:url(#i);}.l{fill:#cd4027;}.m{clip-path:url(#k);}.n{clip-path:url(#m);}.o{clip-path:url(#o);}.p{clip-path:url(#q);}.q{clip-path:url(#s);}.r{clip-path:url(#u);}.s{clip-path:url(#w);}.t{clip-path:url(#y);}.u{clip-path:url(#aa);}.v{clip-path:url(#ac);}.w{clip-path:url(#ae);}.x{clip-path:url(#ag);}.y{clip-path:url(#ai);}.z{clip-path:url(#ak);}.aa{clip-path:url(#am);}.ab{fill:#282d33;}.ac{clip-path:url(#ao);}.ad{clip-path:url(#aq);}.ae{clip-path:url(#as);}.af{clip-path:url(#au);}.ag{clip-path:url(#aw);}.ah{clip-path:url(#ay);}.ai{clip-path:url(#ba);}.aj{clip-path:url(#bc);}.ak{clip-path:url(#be);}.al{clip-path:url(#bg);}.am{clip-path:url(#bi);}.an{clip-path:url(#bk);}.ao{clip-path:url(#bm);}.ap{clip-path:url(#bo);}.aq{clip-path:url(#bq);}.ar{clip-path:url(#bs);}.as{clip-path:url(#bu);}.at{clip-path:url(#bw);}.au{clip-path:url(#by);}.av{clip-path:url(#ca);}.aw{clip-path:url(#cc);}.ax{clip-path:url(#ce);}.ay{clip-path:url(#cg);}</style><clipPath id="a" transform="translate(0.35 3.44)"><path class="a" d="M175.43,211.24c-58.72,0-106.51-46.81-106.54-104.34A102.71,102.71,0,0,1,100,33.25a108.1,108.1,0,0,1,150.82-.16,102.72,102.72,0,0,1,.19,147.4,107.06,107.06,0,0,1-75.49,30.75l-0.07-5.62,0.06-5.62a95.52,95.52,0,0,0,67.38-27.45A91.65,91.65,0,0,0,242.7,41a96.46,96.46,0,0,0-134.58.13A91.65,91.65,0,0,0,80.36,106.9C80.38,158.24,123,200,175.43,200v11.23Z"/></clipPath><clipPath id="b" transform="translate(0.35 3.44)"><rect class="b" x="5.61" y="2.52" width="348.03" height="330.15"/></clipPath><clipPath id="c" transform="translate(0.35 3.44)"><path class="a" d="M298.18,189.29l-34.25,33.53,46.29,45.33,34.25-33.54Zm20.46,49.6L292.22,213l4.06-4,4.06-4L326.76,231l-4.06,4Z"/></clipPath><clipPath id="e" transform="translate(0.35 3.44)"><polygon class="a" points="257.32 204.14 246.24 193.3 254.35 185.36 265.43 196.2 257.32 204.14"/></clipPath><clipPath id="g" transform="translate(0.35 3.44)"><polygon class="a" points="267.09 186.92 252.76 172.88 260.87 164.94 275.2 178.98 267.09 186.92"/></clipPath><clipPath id="i" transform="translate(0.35 3.44)"><path class="a" d="M119.16,107.2a150.22,150.22,0,0,1,2-24.66H99.6a76.58,76.58,0,0,0,.22,49.31h21.35a150.11,150.11,0,0,1-2-24.65"/></clipPath><clipPath id="k" transform="translate(0.35 3.44)"><path class="a" d="M169.89,184.86V143.08H135.56c5.64,19.51,15.64,34.66,27.53,41.05C165.33,184.47,167.6,184.7,169.89,184.86Z"/></clipPath><clipPath id="m" transform="translate(0.35 3.44)"><path class="a" d="M138.73,37.45a80.21,80.21,0,0,0-19.79,14.26A78.72,78.72,0,0,0,104.38,71.3h19.14c3.39-13.22,8.63-24.76,15.21-33.86"/></clipPath><clipPath id="o" transform="translate(0.35 3.44)"><path class="a" d="M104.72,143.08A79.49,79.49,0,0,0,138,175.91c-6.23-8.94-11.2-20.11-14.46-32.83h-18.8Z"/></clipPath><clipPath id="q" transform="translate(0.35 3.44)"><path class="a" d="M135.57,71.31h34.32V28.88q-2.51.17-5,.49c-12.68,5.78-23.41,21.46-29.33,41.94"/></clipPath><clipPath id="s" transform="translate(0.35 3.44)"><path class="a" d="M220.6,107.2a133.82,133.82,0,0,0-2.28-24.66h-37v49.31h37a134,134,0,0,0,2.27-24.65"/></clipPath><clipPath id="u" transform="translate(0.35 3.44)"><path class="a" d="M246.61,71.31a78.51,78.51,0,0,0-14.69-19.71,80,80,0,0,0-19.3-14c6.52,9.07,11.71,20.55,15.07,33.68h18.91Z"/></clipPath><clipPath id="w" transform="translate(0.35 3.44)"><path class="a" d="M186.45,29.41c-1.68-.23-3.38-0.39-5.09-0.51V71.31h34.3c-5.9-20.42-16.58-36.08-29.2-41.9"/></clipPath><clipPath id="y" transform="translate(0.35 3.44)"><path class="a" d="M251.4,82.54H230.05a152.18,152.18,0,0,1,0,49.31h21.14a76.65,76.65,0,0,0,.21-49.31"/></clipPath><clipPath id="aa" transform="translate(0.35 3.44)"><path class="a" d="M213.4,175.7A80.4,80.4,0,0,0,232.07,162a78.67,78.67,0,0,0,14.22-18.92H227.71c-3.23,12.62-8.15,23.72-14.31,32.62"/></clipPath><clipPath id="ac" transform="translate(0.35 3.44)"><path class="a" d="M130.63,107.2a133.85,133.85,0,0,0,2.27,24.65h37V82.54h-37a133.81,133.81,0,0,0-2.28,24.66"/></clipPath><clipPath id="ae" transform="translate(0.35 3.44)"><path class="a" d="M181.36,143.08v41.76q3.51-.25,6.95-0.79c11.82-6.44,21.75-21.55,27.36-41h-34.3Z"/></clipPath><clipPath id="ag" transform="translate(0.35 3.44)"><path class="a" d="M267.34,226.46l-21.05-20.63L280.84,172l21,20.62Zm-4.84-20.63,4.84,4.74,18.32-17.94-4.83-4.73Z"/></clipPath><clipPath id="ai" transform="translate(0.35 3.44)"><path class="a" d="M318.1,276.16L306,264.32l34.53-33.82,12.09,11.83v2.32c0,17.36-14.43,31.49-32.17,31.5H318.1Zm4.14-11.83,0.49,0.48a20.54,20.54,0,0,0,18.33-17.94l-0.49-.48Z"/></clipPath><clipPath id="ak" transform="translate(0.35 3.44)"><path class="a" d="M89.51,245.76l-8-.09,0.09-7.76,8,0.09Zm-16-.17-8-.09,0.09-7.76,8,0.09Zm-16-.18-8-.09,0.09-7.76,8,0.09Zm-16.11-.19a33.89,33.89,0,0,1-8.91-1.55l2.43-7.38a25.85,25.85,0,0,0,6.79,1.18Zm-17.06-5.41A33.12,33.12,0,0,1,17.56,234l6-5.07a25.32,25.32,0,0,0,5.18,4.48Zm-11.73-13.3A32,32,0,0,1,9.91,218l7.79-1.29a24.28,24.28,0,0,0,2.06,6.45ZM17.49,210l-7.86-.8a32,32,0,0,1,2.15-8.63l7.35,2.86A24.36,24.36,0,0,0,17.49,210Zm5-12.46-6.29-4.7a33.22,33.22,0,0,1,6.4-6.27l4.78,6.18A25.28,25.28,0,0,0,22.52,197.51Zm10.9-8.11-2.9-7.21a33.64,33.64,0,0,1,8.8-2.1l0.8,7.72A25.61,25.61,0,0,0,33.42,189.4ZM71.66,188l-8-.09,0.09-7.76,8,0.09Zm-16-.18-8-.09L47.75,180l8,0.09Z"/></clipPath><clipPath id="am" transform="translate(0.35 3.44)"><rect class="b" x="95.15" y="240.05" width="7.76" height="3.95" transform="matrix(0.01, -1, 1, 0.01, -144.07, 338.39)"/></clipPath><clipPath id="ao" transform="translate(0.35 3.44)"><rect class="b" x="82.09" y="240.05" width="7.76" height="3.95" transform="matrix(0.01, -1, 1, 0.01, -156.98, 325.34)"/></clipPath><clipPath id="aq" transform="translate(0.35 3.44)"><path class="a" d="M177.6,285.56l-5-.05,0.09-7.76,5,0.05a16.25,16.25,0,0,0,2.31-.14l1.06,7.69A24.5,24.5,0,0,1,177.6,285.56Zm12.3-3.22-4-6.68a15.71,15.71,0,0,0,4.65-4.09l6.33,4.65A23.52,23.52,0,0,1,189.9,282.34Zm11-14.42-7.67-1.87a15.41,15.41,0,0,0,.28-6.12l7.81-1.17A23.06,23.06,0,0,1,200.87,267.92Zm-49.94-21.44-7.85-.09,0.09-7.76,7.84,0.09Zm-15.69-.17-7.84-.09,0.09-7.76,7.85,0.09Zm-15.69-.17-7.84-.09,0.09-7.76,7.85,0.09ZM103.85,246L96,245.88l0.09-7.76,7.85,0.09Z"/></clipPath><clipPath id="as" transform="translate(0.35 3.44)"><rect class="b" x="158.42" y="279.48" width="7.76" height="3.95" transform="translate(-120.92 440.66) rotate(-89.37)"/></clipPath><clipPath id="au" transform="translate(0.35 3.44)"><path class="a" d="M178.39,219.4A21.48,21.48,0,1,0,200,241.11,21.69,21.69,0,0,0,178.39,219.4Zm-0.12,10.17a7.06,7.06,0,1,1-7.27,7A7.12,7.12,0,0,1,178.27,229.57Zm12.3,24.56a18.56,18.56,0,0,1-25.16-.28v-0.57a7.13,7.13,0,0,1,7.27-7l10.78,0.12a7.12,7.12,0,0,1,7.11,7.13v0.57Z"/></clipPath><clipPath id="aw" transform="translate(0.35 3.44)"><path class="a" d="M159,259.81H12a6.35,6.35,0,0,0-6.4,6.28v59.35a6.35,6.35,0,0,0,6.4,6.28H159a6.35,6.35,0,0,0,6.4-6.28V266.09A6.35,6.35,0,0,0,159,259.81ZM13.52,324H157.46v-56.4H13.52V324Z"/></clipPath><clipPath id="ay" transform="translate(0.35 3.44)"><rect class="b" x="21.68" y="276.57" width="11.52" height="7.76"/></clipPath><clipPath id="ba" transform="translate(0.35 3.44)"><rect class="b" x="40.77" y="276.57" width="11.52" height="7.76"/></clipPath><clipPath id="bc" transform="translate(0.35 3.44)"><rect class="b" x="59.85" y="276.57" width="11.51" height="7.76"/></clipPath><clipPath id="be" transform="translate(0.35 3.44)"><rect class="b" x="78.93" y="276.57" width="11.52" height="7.76"/></clipPath><clipPath id="bg" transform="translate(0.35 3.44)"><rect class="b" x="99.02" y="276.57" width="11.51" height="7.76"/></clipPath><clipPath id="bi" transform="translate(0.35 3.44)"><rect class="b" x="118.1" y="276.57" width="11.51" height="7.76"/></clipPath><clipPath id="bk" transform="translate(0.35 3.44)"><rect class="b" x="137.18" y="276.57" width="11.51" height="7.76"/></clipPath><clipPath id="bm" transform="translate(0.35 3.44)"><rect class="b" x="21.68" y="292.35" width="11.52" height="7.76"/></clipPath><clipPath id="bo" transform="translate(0.35 3.44)"><rect class="b" x="40.77" y="292.35" width="11.52" height="7.76"/></clipPath><clipPath id="bq" transform="translate(0.35 3.44)"><rect class="b" x="59.85" y="292.35" width="11.51" height="7.76"/></clipPath><clipPath id="bs" transform="translate(0.35 3.44)"><rect class="b" x="78.93" y="292.35" width="11.52" height="7.76"/></clipPath><clipPath id="bu" transform="translate(0.35 3.44)"><rect class="b" x="99.02" y="292.35" width="11.51" height="7.76"/></clipPath><clipPath id="bw" transform="translate(0.35 3.44)"><rect class="b" x="118.1" y="292.35" width="11.51" height="7.76"/></clipPath><clipPath id="by" transform="translate(0.35 3.44)"><rect class="b" x="137.18" y="292.35" width="11.51" height="7.76"/></clipPath><clipPath id="ca" transform="translate(0.35 3.44)"><rect class="b" x="21.68" y="308.12" width="11.52" height="7.76"/></clipPath><clipPath id="cc" transform="translate(0.35 3.44)"><rect class="b" x="40.77" y="308.12" width="11.52" height="7.76"/></clipPath><clipPath id="ce" transform="translate(0.35 3.44)"><rect class="b" x="59.85" y="308.12" width="69.5" height="7.76"/></clipPath><clipPath id="cg" transform="translate(0.35 3.44)"><rect class="b" x="137.18" y="308.12" width="11.51" height="7.76"/></clipPath></defs><title>img-cover-xl-onefaculty-research</title><rect class="c" x="8.1" y="264.85" width="151.47" height="67"/><g class="d"><g class="e"><g class="f"><rect class="g" x="63.27" width="225.1" height="220.64"/></g></g><g class="h"><g class="f"><rect class="c" x="258.32" y="186.77" width="92.46" height="90.78"/></g></g><g class="i"><g class="f"><rect class="g" x="240.63" y="182.83" width="31.1" height="30.71"/></g></g><g class="j"><g class="f"><rect class="g" x="247.14" y="162.42" width="34.36" height="33.9"/></g></g><g class="k"><g class="f"><rect class="l" x="90.01" y="80.01" width="37.46" height="61.23"/></g></g><g class="m"><g class="f"><rect class="l" x="129.95" y="140.56" width="46.24" height="53.7"/></g></g><g class="n"><g class="f"><rect class="l" x="98.76" y="34.92" width="46.27" height="45.78"/></g></g><g class="o"><g class="f"><rect class="l" x="99.1" y="140.55" width="45.18" height="44.75"/></g></g><g class="p"><g class="f"><rect class="l" x="129.96" y="26.35" width="46.24" height="54.35"/></g></g><g class="q"><g class="f"><rect class="l" x="175.75" y="80.01" width="51.16" height="61.23"/></g></g><g class="r"><g class="f"><rect class="l" x="207.02" y="35.1" width="45.9" height="45.6"/></g></g><g class="s"><g class="f"><rect class="l" x="175.75" y="26.37" width="46.22" height="54.33"/></g></g><g class="t"><g class="f"><rect class="l" x="224.44" y="80.01" width="37.24" height="61.23"/></g></g><g class="u"><g class="f"><rect class="l" x="207.79" y="140.55" width="44.81" height="44.54"/></g></g><g class="v"><g class="f"><rect class="l" x="125.01" y="80.01" width="51.18" height="61.23"/></g></g><g class="w"><g class="f"><rect class="l" x="175.75" y="140.55" width="46.22" height="53.68"/></g></g><g class="x"><g class="f"><rect class="g" x="240.68" y="169.49" width="67.51" height="66.36"/></g></g><g class="y"><g class="f"><rect class="g" x="300.42" y="227.98" width="58.54" height="57.57"/></g></g><g class="z"><g class="f"><rect class="g" x="4.02" y="177.44" width="91.88" height="77.72"/></g></g><g class="aa"><g class="f"><rect class="ab" x="91.39" y="235.6" width="15.96" height="19.72"/></g></g><g class="ac"><g class="f"><rect class="ab" x="78.34" y="235.6" width="15.96" height="19.72"/></g></g><g class="ad"><g class="f"><rect class="g" x="90.39" y="235.6" width="117.48" height="59.35"/></g></g><g class="ae"><g class="f"><rect class="ab" x="154.67" y="275.04" width="15.96" height="19.72"/></g></g><g class="af"><g class="f"><rect class="c" x="150.65" y="216.87" width="55.68" height="54.87"/></g></g><g class="ag"><g class="f"><rect class="g" y="257.29" width="171.67" height="83.83"/></g></g><g class="ah"><g class="f"><rect class="l" x="16.07" y="274.05" width="23.44" height="19.68"/></g></g><g class="ai"><g class="f"><rect class="l" x="35.15" y="274.05" width="23.44" height="19.68"/></g></g><g class="aj"><g class="f"><rect class="l" x="54.23" y="274.05" width="23.43" height="19.68"/></g></g><g class="ak"><g class="f"><rect class="l" x="73.32" y="274.05" width="23.43" height="19.68"/></g></g><g class="al"><g class="f"><rect class="l" x="93.4" y="274.05" width="23.43" height="19.68"/></g></g><g class="am"><g class="f"><rect class="l" x="112.49" y="274.05" width="23.43" height="19.68"/></g></g><g class="an"><g class="f"><rect class="l" x="131.57" y="274.05" width="23.43" height="19.68"/></g></g><g class="ao"><g class="f"><rect class="l" x="16.07" y="289.82" width="23.44" height="19.68"/></g></g><g class="ap"><g class="f"><rect class="l" x="35.15" y="289.82" width="23.44" height="19.68"/></g></g><g class="aq"><g class="f"><rect class="l" x="54.23" y="289.82" width="23.43" height="19.68"/></g></g><g class="ar"><g class="f"><rect class="l" x="73.32" y="289.82" width="23.43" height="19.68"/></g></g><g class="as"><g class="f"><rect class="l" x="93.4" y="289.82" width="23.43" height="19.68"/></g></g><g class="at"><g class="f"><rect class="l" x="112.49" y="289.82" width="23.43" height="19.68"/></g></g><g class="au"><g class="f"><rect class="l" x="131.57" y="289.82" width="23.43" height="19.68"/></g></g><g class="av"><g class="f"><rect class="l" x="16.07" y="305.6" width="23.44" height="19.68"/></g></g><g class="aw"><g class="f"><rect class="l" x="35.15" y="305.6" width="23.44" height="19.68"/></g></g><g class="ax"><g class="f"><rect class="l" x="54.23" y="305.6" width="81.42" height="19.68"/></g></g><g class="ay"><g class="f"><rect class="l" x="131.57" y="305.6" width="23.43" height="19.68"/></g></g></g></svg>