<svg width="300" height="64" viewBox="0 0 300 64" xmlns="http://www.w3.org/2000/svg" xmlns:xlink="http://www.w3.org/1999/xlink"><title>OF-Group-Logo</title><defs><path id="a" d="M.595 6.65h47.443V.764H.595V6.65z"/><path id="c" d="M0 63.47h267.075V0H0z"/></defs><g fill="none" fill-rule="evenodd"><g><g transform="translate(215.287 56.822)"><mask id="b" fill="#fff"><use xlink:href="#a"/></mask><path d="M33.529 4.23l.815-1.93.908 1.93H33.53zM26.167.765h4.26v1.13H27.67v1.228h2.084l.204.938H27.67v1.505h2.82v1.077H26.135l.03-5.878zm-3.291.973h-1.41v1.777h1.206c1.348-.125 1.127-1.78.204-1.777zM19.96.765H22.876c1.12 0 2.185.596 2.224 1.541.04.928-.162 1.45-1.397 1.898l1.834 2.244-1.657.195-1.922-2.35h-.493v2.35h-1.504V.765zm-7.424 0h1.472v4.29c.65.675 1.646.657 2.948.028V.765h1.504v5.878h-1.504V6.03c-1.12 1.032-4.42.823-4.42-.975V.765zM7.867 4.23l.815-1.93.91 1.93H7.865zM6.705 6.643H5.17L7.93.765h1.599l2.851 5.878h-1.567l-.752-1.418H7.398l-.692 1.418zm25.666 0h-1.537L33.592.765h1.598l2.85 5.878h-1.565l-.753-1.418H33.06l-.688 1.418zM43.056.765v1.13H40.61v4.748h-1.503V1.895h-2.224V.765h6.173zM.596 6.643V.765h1.692v4.741h2.136l.247 1.137H.595zM43.712.765H47.975v1.13h-2.758v1.228h2.085l.203.938h-2.288v1.505h2.82v1.077h-4.354l.03-5.878z" fill="#AAADAF" mask="url(#b)"/></g><path d="M207.672 60.085a1.158 1.158 0 0 0-.145-.347.761.761 0 0 0-.247-.24.701.701 0 0 0-.357-.088.714.714 0 0 0-.355.088.735.735 0 0 0-.25.24 1.04 1.04 0 0 0-.144.347 1.766 1.766 0 0 0 0 .817.98.98 0 0 0 .143.347.742.742 0 0 0 .251.242.705.705 0 0 0 .355.088c.141 0 .26-.03.357-.088a.769.769 0 0 0 .247-.242c.065-.098.114-.214.145-.347a1.822 1.822 0 0 0 0-.817zm-1.512-2.573v1.702h.014a.997.997 0 0 1 .462-.382c.194-.08.398-.122.607-.122.172 0 .342.035.507.107.166.067.317.175.451.318.135.145.242.33.326.554.083.224.123.492.123.802 0 .312-.04.578-.123.804a1.643 1.643 0 0 1-.326.551 1.295 1.295 0 0 1-.958.427c-.248 0-.473-.04-.668-.12a.838.838 0 0 1-.448-.397h-.013v.432h-.888v-4.676h.934zM210.335 63.197c-.18.118-.43.175-.75.175-.097 0-.192-.003-.284-.01-.096-.007-.193-.013-.288-.023v-.766c.087.008.178.017.269.028.092.008.184.01.277.007a.363.363 0 0 0 .272-.146.455.455 0 0 0 .089-.274.565.565 0 0 0-.04-.21l-1.19-3.176h.994l.77 2.318h.012l.742-2.318h.967l-1.42 3.806c-.102.273-.242.47-.42.589" fill="#AAADAF"/><path d="M87.415 32.958a8.44 8.44 0 0 0 1.204 2.74 6.165 6.165 0 0 0 2.158 1.952c.886.49 1.965.734 3.236.734 1.271 0 2.35-.244 3.236-.734a6.173 6.173 0 0 0 2.158-1.951 8.457 8.457 0 0 0 1.204-2.74c.252-1.016.378-2.06.378-3.135 0-1.122-.126-2.208-.378-3.259a8.623 8.623 0 0 0-1.204-2.812 6.12 6.12 0 0 0-2.158-1.97c-.887-.488-1.965-.734-3.236-.734-1.27 0-2.35.246-3.236.734a6.113 6.113 0 0 0-2.158 1.97 8.606 8.606 0 0 0-1.204 2.812 13.924 13.924 0 0 0-.378 3.259c0 1.075.126 2.12.378 3.134m-5.16-8.453c.575-1.635 1.403-3.062 2.482-4.28 1.078-1.217 2.402-2.172 3.972-2.865 1.57-.693 3.338-1.038 5.304-1.038 1.99 0 3.764.345 5.322 1.038 1.558.693 2.877 1.648 3.956 2.866 1.078 1.217 1.905 2.644 2.48 4.28.575 1.635.863 3.408.863 5.318 0 1.863-.288 3.6-.863 5.212-.575 1.611-1.402 3.014-2.48 4.208-1.08 1.195-2.398 2.13-3.956 2.811-1.558.681-3.332 1.021-5.322 1.021-1.966 0-3.734-.34-5.304-1.02-1.57-.681-2.894-1.617-3.972-2.812-1.08-1.194-1.907-2.597-2.482-4.208-.575-1.612-.863-3.35-.863-5.212 0-1.91.288-3.683.863-5.319M113.538 23.986v2.579h.108c.647-1.075 1.486-1.856 2.517-2.346a7.311 7.311 0 0 1 3.165-.734c1.366 0 2.486.185 3.362.555.875.37 1.563.883 2.067 1.54.503.657.857 1.456 1.06 2.4.204.943.307 1.987.307 3.134v11.39h-5.107v-10.46c0-1.527-.24-2.667-.718-3.42-.48-.752-1.331-1.128-2.554-1.128-1.39 0-2.397.412-3.02 1.236-.624.824-.935 2.18-.935 4.065v9.706h-5.106V23.986h4.854zM139.984 28.32c-.61-.668-1.54-1.003-2.786-1.003-.815 0-1.492.138-2.032.412-.539.275-.97.615-1.294 1.02a3.728 3.728 0 0 0-.683 1.29c-.132.454-.21.86-.234 1.217h8.306c-.24-1.289-.665-2.267-1.277-2.936m-5.77 9.742c.766.74 1.87 1.11 3.307 1.11 1.03 0 1.919-.256 2.661-.77.743-.513 1.199-1.056 1.367-1.63h4.495c-.72 2.221-1.822 3.81-3.308 4.764-1.487.955-3.286 1.433-5.394 1.433-1.462 0-2.781-.233-3.955-.698-1.175-.466-2.17-1.129-2.985-1.988-.816-.86-1.445-1.886-1.888-3.08-.444-1.195-.665-2.508-.665-3.94 0-1.385.227-2.675.683-3.868a9.078 9.078 0 0 1 1.942-3.099 9.123 9.123 0 0 1 3.003-2.059c1.162-.502 2.45-.752 3.865-.752 1.582 0 2.96.304 4.135.913a8.265 8.265 0 0 1 2.895 2.453c.755 1.028 1.3 2.197 1.636 3.51.335 1.314.455 2.687.36 4.12h-13.413c.072 1.647.492 2.841 1.258 3.581M166.72 16.93v4.728h-12.406v5.91h10.752v4.37h-10.752v10.566h-5.646V16.93zM179.771 33.442c-.217.19-.485.34-.809.448-.324.107-.67.197-1.043.268-.371.072-.761.131-1.168.18a21.23 21.23 0 0 0-1.223.178 9.154 9.154 0 0 0-1.133.287c-.372.12-.695.281-.97.483-.277.204-.499.46-.665.77-.168.311-.252.705-.252 1.182 0 .454.084.837.252 1.147.166.31.394.555.682.734.288.178.624.304 1.007.376.383.072.779.107 1.187.107 1.007 0 1.786-.167 2.337-.5.55-.335.959-.736 1.223-1.201.263-.466.424-.937.485-1.415.06-.478.09-.86.09-1.146v-1.898zm-11.794-3.76c.071-1.194.372-2.186.898-2.974a6.121 6.121 0 0 1 2.014-1.898 8.808 8.808 0 0 1 2.75-1.02 15.712 15.712 0 0 1 3.076-.305c.934 0 1.882.066 2.84.196.96.132 1.834.39 2.625.77a5.165 5.165 0 0 1 1.941 1.595c.504.68.756 1.582.756 2.704v9.635c0 .836.048 1.635.144 2.4.095.763.263 1.337.503 1.718h-5.178a7.45 7.45 0 0 1-.359-1.79 6.662 6.662 0 0 1-2.877 1.754c-1.104.334-2.23.502-3.38.502a9.186 9.186 0 0 1-2.482-.322 5.693 5.693 0 0 1-2.013-1.003 4.673 4.673 0 0 1-1.348-1.72c-.323-.692-.485-1.515-.485-2.47 0-1.05.185-1.917.557-2.598.371-.68.85-1.223 1.438-1.629a6.441 6.441 0 0 1 2.013-.913 21.712 21.712 0 0 1 2.284-.484c.767-.12 1.522-.215 2.266-.287.742-.071 1.402-.18 1.977-.321.575-.144 1.03-.353 1.366-.628.336-.273.491-.674.468-1.2 0-.549-.09-.984-.27-1.307a1.982 1.982 0 0 0-.72-.752 2.842 2.842 0 0 0-1.042-.358 8.647 8.647 0 0 0-1.276-.09c-1.007 0-1.798.215-2.374.645-.574.43-.91 1.146-1.006 2.15h-5.106zM196.455 27.317c-.816 0-1.498.185-2.049.555a4.418 4.418 0 0 0-1.348 1.433 6.163 6.163 0 0 0-.738 1.934 10.471 10.471 0 0 0-.216 2.095c0 .669.072 1.35.216 2.042.143.692.378 1.32.702 1.88a4.01 4.01 0 0 0 1.311 1.38c.552.357 1.223.537 2.014.537 1.223 0 2.163-.341 2.823-1.02.66-.682 1.072-1.595 1.24-2.741h4.927c-.336 2.46-1.295 4.333-2.877 5.623-1.582 1.29-3.608 1.935-6.077 1.935-1.39 0-2.666-.234-3.83-.7-1.162-.465-2.151-1.116-2.965-1.952-.816-.835-1.452-1.832-1.907-2.99-.455-1.158-.683-2.43-.683-3.815 0-1.433.21-2.763.63-3.993.419-1.23 1.036-2.293 1.851-3.188a8.473 8.473 0 0 1 2.984-2.095c1.175-.501 2.517-.752 4.028-.752 1.102 0 2.163.143 3.182.43a8.519 8.519 0 0 1 2.734 1.307 7.001 7.001 0 0 1 1.958 2.185c.504.872.792 1.904.865 3.098h-5c-.336-2.125-1.594-3.188-3.775-3.188M219.54 42.503v-2.579h-.109c-.647 1.075-1.486 1.851-2.517 2.33a7.474 7.474 0 0 1-3.164.716c-1.366 0-2.487-.18-3.362-.538-.875-.358-1.564-.865-2.067-1.522-.504-.657-.857-1.457-1.061-2.4-.205-.943-.305-1.988-.305-3.134v-11.39h5.105v10.458c0 1.529.24 2.67.719 3.42.48.753 1.33 1.13 2.553 1.13 1.39 0 2.397-.413 3.021-1.236.623-.824.935-2.18.935-4.066v-9.706h5.106v18.517h-4.854z" fill="#231F20"/><mask id="d" fill="#fff"><use xlink:href="#c"/></mask><path fill="#231F20" mask="url(#d)" d="M227.162 42.503h5.106V16.93h-5.106zM245.249 23.986v3.403h-3.74v9.168c0 .86.144 1.433.432 1.72.288.287.863.43 1.725.43.288 0 .563-.012.828-.036a6.92 6.92 0 0 0 .755-.107v3.94c-.432.071-.912.118-1.439.142-.527.024-1.042.036-1.545.036a14.89 14.89 0 0 1-2.248-.161c-.707-.107-1.33-.316-1.87-.627a3.321 3.321 0 0 1-1.276-1.325c-.312-.573-.468-1.325-.468-2.256V27.389h-3.093v-3.403h3.093v-5.552h5.106v5.552h3.74z"/><path d="M253.303 48.02c-.984.643-2.35.966-4.099.966-.528 0-1.05-.018-1.564-.053a76.445 76.445 0 0 1-1.564-.126v-4.19l1.473.143c.504.048 1.008.06 1.51.036.672-.072 1.169-.335 1.493-.788.324-.454.485-.956.485-1.504 0-.407-.071-.788-.216-1.147l-6.508-17.371h5.43l4.207 12.68h.071l4.063-12.68h5.286l-7.766 20.81c-.551 1.504-1.318 2.578-2.301 3.223" fill="#231F20" mask="url(#d)"/><path d="M9.454 30.885a2.392 2.392 0 0 1-2.396 2.387 2.392 2.392 0 0 1-2.397-2.387 2.392 2.392 0 0 1 2.397-2.387 2.392 2.392 0 0 1 2.396 2.387" fill="#E35529" mask="url(#d)"/><path fill="#F05C22" mask="url(#d)" d="M4.662 31.6h4.792V16.87H4.662z"/><path d="M9.493 16.709a2.392 2.392 0 0 1-2.396 2.387A2.392 2.392 0 0 1 4.7 16.709a2.392 2.392 0 0 1 2.397-2.387 2.392 2.392 0 0 1 2.396 2.387" fill="#F05C22" mask="url(#d)"/><path d="M42.955 2.387a2.392 2.392 0 0 1-2.396 2.387 2.392 2.392 0 0 1-2.397-2.387A2.392 2.392 0 0 1 40.56 0a2.392 2.392 0 0 1 2.396 2.387" fill="#E35529" mask="url(#d)"/><path fill="#F05C22" mask="url(#d)" d="M5.99 14.593L40.081 0l.477 4.774L8.675 19.062z"/><path d="M71.655 16.709a2.392 2.392 0 0 0 2.397 2.387 2.392 2.392 0 0 0 2.396-2.387 2.392 2.392 0 0 0-2.396-2.387 2.392 2.392 0 0 0-2.397 2.387" fill="#E35529" mask="url(#d)"/><path d="M38.193 2.387a2.392 2.392 0 0 0 2.396 2.387 2.392 2.392 0 0 0 2.397-2.387A2.392 2.392 0 0 0 40.589 0a2.392 2.392 0 0 0-2.396 2.387" fill="#F05C22" mask="url(#d)"/><path fill="#F05C22" mask="url(#d)" d="M75.158 14.593L41.068 0l-.479 4.774 31.884 14.288zM40.441 45.366l-17.479-7.833a2.512 2.512 0 0 0-1.692-.655 2.511 2.511 0 0 0-2.516 2.507c0 1.229.923 1.938 2.06 2.463h-.001c-.008.028 18.554 8.036 18.554 8.036.083.042.169.079.257.111l.345.098a2.392 2.392 0 0 0 2.869-2.34 2.392 2.392 0 0 0-2.397-2.387"/><path d="M71.655 16.678a2.392 2.392 0 0 1 2.397-2.387 2.392 2.392 0 0 1 2.396 2.387 2.392 2.392 0 0 1-2.396 2.387 2.392 2.392 0 0 1-2.397-2.387" fill="#F05C22" mask="url(#d)"/><path d="M38.193 31a2.392 2.392 0 0 1 2.396-2.387A2.392 2.392 0 0 1 42.986 31a2.392 2.392 0 0 1-2.397 2.387A2.392 2.392 0 0 1 38.193 31" fill="#E35529" mask="url(#d)"/><path fill="#F05C22" mask="url(#d)" d="M74.826 18.936l-33.76 14.45-.477-4.773 31.884-14.289z"/><path d="M6.306 18.929l-.317-.135c.102.052.207.097.317.135M39.742 33.241l-.258-.11c.083.041.17.078.258.11M40.082 33.386l.004-.047a2.292 2.292 0 0 1-.344-.098l.34.145zM21.79 20.201l.967.434a2.506 2.506 0 0 0-.968-.434M20.715 25.097l-.85-.363c.254.17.541.294.85.363" fill="#E35529" mask="url(#d)"/><path d="M40.56 28.612l-17.803-7.977-.968-.434a2.512 2.512 0 0 0-3.035 2.453c0 .866.44 1.629 1.11 2.08l.851.363 18.77 8.034.257.11a2.364 2.364 0 0 0 .817.146A2.392 2.392 0 0 0 42.956 31a2.392 2.392 0 0 0-2.397-2.388" fill="#F05C22" mask="url(#d)"/><path d="M41.406 49.756a2.53 2.53 0 0 0 .258-.11l-.258.11zM41.067 49.901l.34-.145c-.112.04-.227.075-.345.098l.005.047z" fill="#E35529" mask="url(#d)"/><path d="M62.11 39.165v-7.859-.037a2.392 2.392 0 0 0-2.395-2.387 2.392 2.392 0 0 0-2.396 2.387v6.6l-16.73 7.497a2.393 2.393 0 0 0-2.397 2.387 2.393 2.393 0 0 0 3.214 2.242l.258-.11 18.443-7.895c1.198-.513 2.002-1.273 2.004-2.352 0-.268-.002-.473-.002-.473M23.704 39.771l-4.95-.472V22.471h4.95zM7.058 52.414h-.024s-1.036-.472-2.006-2.097a10.131 10.131 0 0 1-.955-2.18c-.093-.298-.18-.614-.257-.95-.275-1.18-.45-2.606-.45-4.332 0-.163.014-.325.031-.487.01-.081.017-.163.028-.243l3.601 2.332h.04l3.6-2.332c.034.242.06.486.06.73 0 7.886-3.668 9.559-3.668 9.559M7 33.398s2.373 1.32 3.128 5.36L7 40.83l-3.127-2.073C4.626 34.718 7 33.398 7 33.398m-.005-4.68C5.335 28.719 0 33.393 0 42.93 0 54.9 7.018 57.154 7.018 57.154s7.018-2.176 7.018-14.225c0-9.537-5.38-14.21-7.04-14.21" fill="#F05C22" mask="url(#d)"/><path d="M266.088 22.275a.53.53 0 0 0-.183-.025h-.077v.349h.123a.298.298 0 0 0 .173-.044c.04-.03.06-.078.06-.143 0-.066-.031-.111-.096-.137zm-.574.964v-1.2a56.111 56.111 0 0 1 .583.003.592.592 0 0 1 .237.061c.107.06.16.155.16.287 0 .1-.027.174-.084.218a.395.395 0 0 1-.209.081.395.395 0 0 1 .171.07c.071.056.106.145.106.268v.107l.003.036c.001.011.005.023.008.034l.012.035h-.301a.856.856 0 0 1-.02-.167.576.576 0 0 0-.02-.146.146.146 0 0 0-.089-.088.332.332 0 0 0-.107-.02l-.07-.004h-.066v.425h-.314zm-.164-1.229a.867.867 0 0 0-.258.627c0 .25.088.463.263.638a.863.863 0 0 0 .634.263.859.859 0 0 0 .633-.265.872.872 0 0 0 .26-.636.864.864 0 0 0-.259-.627.855.855 0 0 0-.634-.27c-.25 0-.463.09-.639.27zm1.4 1.403a1.056 1.056 0 0 1-.76.305c-.306 0-.564-.104-.773-.312a1.042 1.042 0 0 1-.314-.77c0-.316.113-.579.339-.788.212-.196.461-.293.747-.293.299 0 .556.105.768.317.212.211.319.466.319.765 0 .307-.11.566-.327.776z" fill="#231F20" mask="url(#d)"/></g><g transform="translate(273.81 16.593)"><rect fill="#C33D1C" width="26.19" height="26.074" rx="3.492"/><path d="M8.548 16.684c-.58 1.65-1.118 2.421-2.352 2.421-.12 0-.535-.025-.562-.027a.868.868 0 0 0-.281 1.702c.327.058.663.08.965.08 2.275 0 3.027-1.318 3.779-3.242l4.44-11.138a.952.952 0 1 0-1.802-.622l-3.12 8.292h-.05l-3.28-8.355a1.008 1.008 0 0 0-1.87.75l4.133 10.14zm11.699-7.877a.944.944 0 0 0 .203-1.24.934.934 0 0 0-1.049-.395 6.404 6.404 0 0 0-.106.056c-.618.343-4.793 3.285-4.322 3.617.468.33 3.323-.963 5.274-2.038zm0 8.848c-1.95-1.075-4.806-2.368-5.274-2.038-.471.331 3.704 3.274 4.322 3.616l.106.058a.934.934 0 0 0 1.049-.395.945.945 0 0 0-.203-1.241zm1.719-5.392a2.447 2.447 0 0 0-.121-.002c-.705.002-5.773.56-5.519 1.08.253.514 3.374.764 5.599.765a.94.94 0 0 0 .04-1.843z" fill="#FFF"/></g></g></svg>