<?xml version="1.0" encoding="UTF-8" standalone="no"?>
<svg width="234px" height="234px" viewBox="0 0 234 234" version="1.1" xmlns="http://www.w3.org/2000/svg" xmlns:xlink="http://www.w3.org/1999/xlink">
    <!-- Generator: Sketch 3.7.1 (28215) - http://www.bohemiancoding.com/sketch -->
    <title>symbol-learn3</title>
    <desc>Created with Sketch.</desc>
    <defs>
        <polygon id="path-1" points="0 126.433154 133.90693 126.433154 133.90693 0.013308753 0 0.013308753"></polygon>
    </defs>
    <g id="Page-1" stroke="none" stroke-width="1" fill="none" fill-rule="evenodd">
        <g id="symbol-learn3">
            <path d="M116.999608,233.09341 C52.6325379,233.09341 0.453687055,180.913775 0.453687055,116.546705 C0.453687055,52.1804199 52.6325379,0 116.999608,0 C156.784832,0 191.91389,19.9353426 212.942923,50.3616128 C225.935999,69.1609009 233.546313,91.9651589 233.546313,116.546705 C233.546313,180.913775 181.366678,233.09341 116.999608,233.09341 Z" id="Fill-1-Copy-2" fill="#EEEEEE"></path>
            <path d="M118.046012,219.09341 C61.1347977,219.09341 15,172.957919 15,116.046705 C15,59.136185 61.1347977,13 118.046012,13 C174.957225,13 221.092717,59.136185 221.092717,116.046705 C221.092717,172.957919 174.957225,219.09341 118.046012,219.09341 Z" id="Fill-1" fill="#FFFFFF"></path>
            <g id="Group-12" transform="translate(54.000000, 43.000000)">
                <g id="Page-1">
                    <polygon id="Fill-1" fill="#CD4026" points="0 53.5237456 0 127.065253 54.3921685 127.065253 54.3921685 119.756751 6.52932088 119.756751 6.52932088 53.5237456"></polygon>
                    <polygon id="Fill-2" fill="#272D32" points="14.4449589 62.7121752 34.7177688 62.7121752 34.7177688 57.4765118 14.4449589 57.4765118"></polygon>
                    <polygon id="Fill-3" fill="#272D32" points="14.4449589 72.3330728 34.7177688 72.3330728 34.7177688 67.0974093 14.4449589 67.0974093"></polygon>
                    <polygon id="Fill-4" fill="#272D32" points="14.4449589 81.7995888 44.1826245 81.7995888 44.1826245 76.5639254 14.4449589 76.5639254"></polygon>
                    <polygon id="Fill-5" fill="#272D32" points="14.4449589 91.2674357 44.1826245 91.2674357 44.1826245 86.0317723 14.4449589 86.0317723"></polygon>
                    <polygon id="Fill-6" fill="#272D32" points="14.4449589 100.734617 44.1826245 100.734617 44.1826245 95.4989538 14.4449589 95.4989538"></polygon>
                    <polygon id="Fill-7" fill="#272D32" points="14.4449589 110.200468 44.1826245 110.200468 44.1826245 104.964804 14.4449589 104.964804"></polygon>
                    <g id="Group-14" transform="translate(0.000000, 0.652129)">
                        <path d="M80.3842512,68.7144894 C73.4027982,68.7144894 67.742502,63.0496186 67.742502,56.0618579 C67.742502,49.0747625 73.4027982,43.4098918 80.3842512,43.4098918 C87.3663692,43.4098918 93.0260005,49.0747625 93.0260005,56.0618579 C93.0260005,63.0496186 87.3663692,68.7144894 80.3842512,68.7144894 L80.3842512,68.7144894 Z M80.3842512,32.9385649 C67.6241497,32.9385649 57.2789661,43.2914439 57.2789661,56.0611924 C57.2789661,68.8329373 67.6241497,79.1851508 80.3842512,79.1851508 C93.1443528,79.1851508 103.488207,68.8329373 103.488207,56.0611924 C103.488207,43.2914439 93.1443528,32.9385649 80.3842512,32.9385649 L80.3842512,32.9385649 Z" id="Fill-8" fill="#ECA69B"></path>
                        <mask id="mask-2" fill="white">
                            <use xlink:href="#path-1"></use>
                        </mask>
                        <g id="Clip-11"></g>
                        <polygon id="Fill-10" fill="#272D32" mask="url(#mask-2)" points="24.8386802 51.0676817 34.7177688 51.0676817 34.7177688 45.8320183 24.8386802 45.8320183"></polygon>
                        <path d="M49.6387963,117.617436 C48.2105904,116.834216 46.5716112,116.389038 44.8315671,116.389038 L9.51472319,116.389038 L9.51472319,51.0676817 L14.3758092,51.0676817 L14.3758092,45.8320183 L4.28395259,45.8320183 L4.28395259,121.624701 L44.8315671,121.624701 C47.4825246,121.624701 49.6387963,123.781385 49.6387963,126.433154 L54.8702318,126.433154 L54.8702318,78.9654899 L49.6387963,78.9654899 L49.6387963,117.617436 Z" id="Fill-12" fill="#272D32" mask="url(#mask-2)"></path>
                        <path d="M90.4100168,56.062124 C90.4100168,61.5952381 85.9126312,66.0969238 80.3839853,66.0969238 C74.8560042,66.0969238 70.3586187,61.5952381 70.3586187,56.062124 C70.3586187,50.52901 74.8560042,46.0273242 80.3839853,46.0273242 C85.9126312,46.0273242 90.4100168,50.52901 90.4100168,56.062124 M76.4823504,14.6053583 C68.6398514,14.6053583 61.0865841,16.6522445 54.3976871,20.5443894 L54.3976871,16.925074 C54.3976871,10.5375379 59.5493346,5.33847356 65.9111006,5.25662473 C71.4949333,5.328492 76.1452459,9.33243035 77.2077566,14.6239906 C76.965068,14.6199979 76.7257039,14.6053583 76.4823504,14.6053583 M133.556062,82.5112744 L120.531995,59.9329749 C120.545293,59.5270579 120.553936,59.1204755 120.553936,58.7112313 C120.553936,36.4556691 103.99393,18.0084065 82.5608688,15.0345656 C81.6286786,6.6946355 74.6099911,0.172015633 66.062033,0.020961286 L66.062033,0.0129760342 C66.0115005,0.0129760342 65.961633,0.0169686601 65.9111006,0.0169686601 C65.8605682,0.0169686601 65.8107007,0.0129760342 65.7601682,0.0129760342 L65.7601682,0.020961286 C56.5832144,0.183328073 49.1662516,7.70144267 49.1662516,16.925074 L49.1662516,54.3266626 L49.1662516,63.8929943 L49.1662516,67.5562286 C49.1662516,68.870468 48.0990867,69.9398263 46.7865735,69.9398263 C45.4773848,69.9398263 44.4115496,68.870468 44.4115496,67.5562286 L44.4115496,44.9107199 L44.4281721,44.9107199 L44.4281721,41.5243076 C44.4281721,34.0274871 38.3961967,27.9234275 30.9373452,27.7956634 L30.9373452,27.7836856 C30.8974512,27.7836856 30.858887,27.7890091 30.8189929,27.7896745 C30.7790989,27.7890091 30.7405347,27.7836856 30.7006407,27.7836856 L30.7006407,27.7956634 C23.2411243,27.9234275 17.2098137,34.0274871 17.2098137,41.5243076 L17.2098137,50.8244643 L22.4412493,50.8244643 L22.4412493,41.5243076 C22.4412493,36.8742293 26.1892922,33.08922 30.8189929,33.025338 C35.4486937,33.08922 39.1967366,36.8742293 39.1967366,41.5243076 L39.1967366,44.2965209 L39.1801141,44.2965209 L39.1801141,67.5562286 C39.1801141,71.7571365 42.5923824,75.1748243 46.7865735,75.1748243 C50.9834241,75.1748243 54.3976871,71.7571365 54.3976871,67.5562286 L54.3976871,63.8929943 L54.3976871,26.7429411 C60.9037365,22.2299429 68.5241588,19.8410218 76.4823504,19.8410218 C76.8028323,19.8410218 77.1193248,19.8576577 77.4378121,19.8649775 L77.4378121,41.0804607 C70.4304279,42.4585821 65.1271832,48.6511449 65.1271832,56.062124 C65.1271832,64.4825721 71.9716668,71.3325873 80.3839853,71.3325873 C88.7969687,71.3325873 95.6414523,64.4825721 95.6414523,56.062124 C95.6414523,48.4189072 90.001768,42.070632 82.6692476,40.9640091 L82.6692476,20.3394346 C101.154806,23.3146063 115.322501,39.385591 115.322501,58.7112313 C115.322501,59.30214 115.301889,59.8883905 115.276623,60.4753065 C115.254681,60.9723885 115.375693,61.4648123 115.623701,61.8960159 L126.760116,81.2023585 L121.660331,81.2023585 C120.215502,81.2023585 119.043948,82.3748597 119.043948,83.8201903 L119.043948,100.199273 C119.043948,104.925211 115.204814,108.770775 110.484686,108.770775 L92.7817161,108.770775 C91.3375527,108.770775 90.1659984,109.943276 90.1659984,111.388607 L90.1659984,126.285094 L95.3974339,126.285094 L95.3974339,114.006438 L110.484686,114.006438 C118.089151,114.006438 124.275383,107.812545 124.275383,100.199273 L124.275383,86.438022 L131.291411,86.438022 C132.225596,86.438022 133.089302,85.9389437 133.556062,85.1291061 C134.023487,84.3186031 134.023487,83.321112 133.556062,82.5112744" id="Fill-13" fill="#272D32" mask="url(#mask-2)"></path>
                    </g>
                </g>
            </g>
        </g>
    </g>
</svg>