<?xml version="1.0" encoding="UTF-8" standalone="no"?>
<svg width="234px" height="234px" viewBox="0 0 234 234" version="1.1" xmlns="http://www.w3.org/2000/svg" xmlns:xlink="http://www.w3.org/1999/xlink">
    <!-- Generator: Sketch 3.7.1 (28215) - http://www.bohemiancoding.com/sketch -->
    <title>symbol-learn2</title>
    <desc>Created with Sketch.</desc>
    <defs>
        <polygon id="path-1" points="0 124.338624 129.58148 124.338624 129.58148 0.49537037 0 0.49537037"></polygon>
    </defs>
    <g id="Page-1" stroke="none" stroke-width="1" fill="none" fill-rule="evenodd">
        <g id="symbol-learn2">
            <path d="M116.999608,233.09341 C52.6325379,233.09341 0.453687055,180.913775 0.453687055,116.546705 C0.453687055,52.1804199 52.6325379,0 116.999608,0 C156.784832,0 191.91389,19.9353426 212.942923,50.3616128 C225.935999,69.1609009 233.546313,91.9651589 233.546313,116.546705 C233.546313,180.913775 181.366678,233.09341 116.999608,233.09341 Z" id="Fill-1-Copy" fill="#EEEEEE"></path>
            <path d="M117.046012,219.09341 C60.1347977,219.09341 14,172.957919 14,116.046705 C14,59.136185 60.1347977,13 117.046012,13 C173.957225,13 220.092717,59.136185 220.092717,116.046705 C220.092717,172.957919 173.957225,219.09341 117.046012,219.09341 Z" id="Fill-1" fill="#FFFFFF"></path>
            <g id="Group-8" transform="translate(57.000000, 48.000000)">
                <g id="Page-1">
                    <polygon id="Fill-1" fill="#272D32" points="51.7514745 27.785119 49.1421888 27.7560185 49.2005561 22.5529762 51.8098418 22.5820767"></polygon>
                    <g id="Group-46" transform="translate(0.000000, 0.166005)">
                        <path d="M33.2956531,27.413955 L28.0134082,27.3550926 L28.0711122,22.1520503 L33.3540204,22.2109127 L33.2956531,27.413955 L33.2956531,27.413955 Z M43.8601429,27.5316799 L38.5772347,27.4728175 L38.635602,22.2691138 L43.9178469,22.3279762 L43.8601429,27.5316799 L43.8601429,27.5316799 Z M18.6049898,28.480754 L16.6894796,23.6401455 C18.5499388,22.9080026 20.5045816,22.4337963 22.4990204,22.230754 L23.0296327,27.4073413 C21.5094286,27.5621032 20.0210612,27.9232143 18.6049898,28.480754 L18.6049898,28.480754 Z M11.4092245,33.9205688 L7.25652041,30.7697751 C8.46764286,29.1837963 9.88968367,27.7684524 11.4821837,26.5627646 L14.6366735,30.7095899 C13.4195816,31.6295635 12.3331531,32.7102513 11.4092245,33.9205688 L11.4092245,33.9205688 Z M8.08692857,42.2810185 L2.89555102,41.7446429 C3.1024898,39.7558862 3.58136735,37.8087963 4.31759184,35.9562831 L9.16871429,37.8736111 C8.6082551,39.283664 8.24412245,40.7664683 8.08692857,42.2810185 L8.08692857,42.2810185 Z M4.87141837,53.382209 C4.01514286,51.5759921 3.41289796,49.6613095 3.08060204,47.6917328 L8.22754082,46.8292989 C8.47958163,48.3279762 8.93789796,49.7849868 9.58988776,51.1593254 L4.87141837,53.382209 L4.87141837,53.382209 Z M12.6150408,62.3068122 C10.9502449,61.2062831 9.44197959,59.882209 8.13203061,58.371627 L12.0777959,54.9675265 C13.078,56.1203042 14.2294286,57.1308862 15.4995816,57.9708333 L12.6150408,62.3068122 L12.6150408,62.3068122 Z M23.8786122,65.935119 C21.872898,65.855754 19.8937143,65.5058862 17.9974388,64.8960979 L19.5998878,59.9437169 C21.0451429,60.408664 22.5547347,60.6751984 24.0862143,60.736045 L23.8786122,65.935119 L23.8786122,65.935119 Z M34.5173878,66.0621032 L29.2351429,66.0039021 L29.2935102,60.8001984 L34.5757551,60.8590608 L34.5173878,66.0621032 L34.5173878,66.0621032 Z M45.0818776,66.179828 L39.7989694,66.1209656 L39.8573367,60.9179233 L45.1395816,60.9767857 L45.0818776,66.179828 L45.0818776,66.179828 Z M55.6463673,66.2968915 L50.3634592,66.2386905 L50.4218265,61.0349868 L55.7040714,61.0938492 L55.6463673,66.2968915 L55.6463673,66.2968915 Z" id="Fill-2" fill="#141E32"></path>
                        <polygon id="Fill-4" fill="#272D32" points="63.5757704 66.3853175 60.9664847 66.3562169 61.024852 61.1531746 63.6341378 61.1822751"></polygon>
                        <polygon id="Fill-6" fill="#272D32" points="54.6860255 66.2865079 52.0767398 66.2574074 52.1351071 61.0543651 54.7443929 61.0834656"></polygon>
                        <path d="M65.0484184,66.4017196 L59.8669898,66.3441799 L59.9253571,61.1411376 L65.1067857,61.1986772 L65.0484184,66.4017196 Z M75.4112755,66.5167989 L70.2305102,66.4592593 L70.2882143,61.2562169 L75.4696429,61.3137566 L75.4112755,66.5167989 Z M85.7734694,66.6318783 L80.5927041,66.5743386 L80.6504082,61.3712963 L85.8318367,61.428836 L85.7734694,66.6318783 Z M96.1369898,66.7469577 L90.9555612,66.689418 L91.0139286,61.4863757 L96.1946939,61.5439153 L96.1369898,66.7469577 Z M129.119847,81.1298942 L124.055153,79.8752646 C124.24949,79.0935185 124.352959,78.2846561 124.362245,77.4685185 C124.368214,76.8997354 124.328418,76.3276455 124.242857,75.7687831 L129.401735,74.9837302 C129.529745,75.8210317 129.589439,76.6768519 129.580153,77.5267196 C129.566888,78.7456349 129.411684,79.9579365 129.119847,81.1298942 L129.119847,81.1298942 Z M121.874337,90.803836 L119.221939,86.3230159 C120.421122,85.617328 121.453827,84.6940476 122.290204,83.5789683 L126.468776,86.6960317 C125.216531,88.3653439 123.670459,89.7469577 121.874337,90.803836 L121.874337,90.803836 Z M113.751327,92.9625661 L110.480765,92.9261905 L110.538469,87.7231481 L113.809694,87.7595238 C114.321071,87.7648148 114.834439,87.7337302 115.335867,87.6656085 L116.034949,92.8230159 C115.283469,92.923545 114.515408,92.971164 113.751327,92.9625661 L113.751327,92.9625661 Z" id="Fill-8" fill="#141E32"></path>
                        <polygon id="Fill-10" fill="#272D32" points="105.271944 92.868254 102.662658 92.8391534 102.721026 87.6361111 105.330311 87.6652116"></polygon>
                        <path d="M33.5752857,53.1831349 C31.3825306,55.1983466 28.4515612,56.4225529 25.2307449,56.3868386 C22.0132449,56.3511243 19.1094694,55.0621032 16.9604898,52.9986111 L16.9644694,52.6130291 C16.9936531,49.9992725 19.1439592,47.9027116 21.7671735,47.9318122 L28.8866633,48.0111772 C31.5078878,48.0402778 33.6091122,50.1837963 33.5792653,52.7975529 L33.5752857,53.1831349 Z M25.450949,36.7082672 C28.0721735,36.7373677 30.1753878,38.8802249 30.1462041,41.4939815 C30.1170204,44.1077381 27.966051,46.2029762 25.3448265,46.1738757 C22.7249286,46.1447751 20.6217143,44.001918 20.650898,41.3888228 C20.6800816,38.7750661 22.831051,36.6791667 25.450949,36.7082672 L25.450949,36.7082672 Z M25.5278878,29.8848545 C17.5488061,29.7962302 11.0083469,36.174537 10.9194694,44.1308862 C10.8305918,52.0859127 17.2271224,58.6083995 25.2055408,58.6970238 C33.1846224,58.7856481 39.7257449,52.4073413 39.8146224,44.4516534 C39.9035,36.4959656 33.5063061,29.9734788 25.5278878,29.8848545 L25.5278878,29.8848545 Z" id="Fill-12" fill="#ECA69B"></path>
                        <path d="M122.735719,72.0625 C120.542964,74.0777116 117.611995,75.301918 114.391179,75.2662037 C111.173679,75.2304894 108.269903,73.9414683 106.120923,71.8779762 L106.124903,71.4923942 C106.154087,68.8786376 108.304393,66.7820767 110.927607,66.8111772 L118.047097,66.8905423 C120.668985,66.9196429 122.769546,69.0631614 122.739699,71.676918 L122.735719,72.0625 Z M114.611383,55.5876323 C117.232607,55.6167328 119.335821,57.7595899 119.306638,60.3733466 C119.277454,62.9871032 117.126485,65.0823413 114.50526,65.0532407 C111.885362,65.0241402 109.782148,62.8812831 109.811332,60.2681878 C109.840515,57.6544312 111.991485,55.5585317 114.611383,55.5876323 L114.611383,55.5876323 Z M114.688321,48.7642196 C106.70924,48.6755952 100.168781,55.0539021 100.079903,63.0102513 C99.9910255,70.9652778 106.387556,77.4877646 114.365974,77.5763889 C122.345056,77.6650132 128.886179,71.2867063 128.975056,63.3310185 C129.063934,55.3753307 122.66674,48.8528439 114.688321,48.7642196 L114.688321,48.7642196 Z" id="Fill-14" fill="#ECA69B"></path>
                        <path d="M75.6522398,5.70019841 C63.7346888,5.56792328 53.930301,15.1281085 53.797648,27.0123677 C53.6643316,38.8953042 63.2524949,48.6710979 75.1707092,48.803373 C87.0875969,48.9363095 96.8906582,39.3761243 97.0233112,27.4925265 C97.1559643,15.6089286 87.5697908,5.83247354 75.6522398,5.70019841 M75.1123418,54.0070767 C60.3168827,53.8423942 48.4145867,41.7068122 48.5790765,26.9541667 C48.7442296,12.2015212 60.915148,0.332473545 75.7106071,0.497156085 C90.5047398,0.661177249 102.406372,12.7974206 102.241219,27.5507275 C102.07673,42.303373 89.9064745,54.1710979 75.1123418,54.0070767" id="Fill-16" fill="#141E32"></path>
                        <path d="M75.5938061,10.9301587 C66.5674286,10.8296296 59.1421735,18.0710317 59.0420204,27.0703704 C59.003551,30.4599206 59.9931429,33.6847884 61.8728367,36.4169312 C62.9539592,33.7873016 65.286,31.8031746 68.1188061,31.1907407 C66.6330918,29.4731481 65.7363571,27.2376984 65.763551,24.7972222 C65.8232449,19.4791005 70.2114082,15.2006614 75.5453878,15.2601852 C80.8793673,15.3190476 85.1700306,19.6940476 85.111,25.0121693 C85.0838061,27.4526455 84.1373265,29.668254 82.6138061,31.3521164 C85.4320204,32.027381 87.7189592,34.0624339 88.7403878,36.7138889 C90.6804388,34.0240741 91.741,30.8223545 91.7794694,27.434127 C91.8796224,18.4347884 84.6195204,11.0306878 75.5938061,10.9301587" id="Fill-18" fill="#ECA69B"></path>
                        <path d="M70.0705969,30.9919974 C69.400699,30.9847222 68.7473827,31.054828 68.1186071,31.1910714 C69.8702908,33.2155423 72.4437602,34.517791 75.3296276,34.5501984 C78.2161582,34.5819444 80.8174847,33.3372354 82.6136071,31.3517857 C81.988148,31.2023148 81.3368214,31.1169974 80.6669235,31.1097222 L70.0705969,30.9919974 Z" id="Fill-20" fill="#141E32"></path>
                        <path d="M75.3879286,29.346627 C72.9311939,29.3195106 70.9546633,27.3049603 70.9818571,24.8545635 C71.009051,22.4061508 73.0306837,20.4359127 75.4874184,20.4630291 C77.9441531,20.4908069 79.9200204,22.5053571 79.8928265,24.9537698 C79.8649694,27.4035053 77.8446633,29.3737434 75.3879286,29.346627 M75.5457857,15.2599868 C70.2118061,15.200463 65.8236429,19.4795635 65.763949,24.7970238 C65.7367551,27.2381614 66.6328265,29.4736111 68.1185408,31.1905423 C68.7473163,31.0549603 69.4006327,30.9848545 70.0705306,30.9921296 L80.6668571,31.1098545 C81.3367551,31.1171296 81.9880816,31.2017857 82.6142041,31.351918 C84.1377245,29.6680556 85.0835408,27.4531085 85.1107347,25.0119709 C85.1704286,19.6945106 80.8797653,15.3195106 75.5457857,15.2599868" id="Fill-22" fill="#141E32"></path>
                        <path d="M90.1514847,48.0674603 L84.9335765,48.0092593 L85.0244439,39.8829365 C85.0516378,37.4332011 83.0751071,35.4179894 80.6190357,35.390873 L70.0227092,35.2731481 C67.5659745,35.2453704 65.5450051,37.2162698 65.517148,39.6666667 L65.4262806,47.7929894 L60.2083724,47.7347884 L60.2992398,39.6084656 C60.3589337,34.2896825 64.7464337,30.010582 70.0810765,30.0694444 L80.6767398,30.1871693 C86.0107194,30.2466931 90.3020459,34.6223545 90.242352,39.9411376 L90.1514847,48.0674603 Z" id="Fill-24" fill="#141E32"></path>
                        <mask id="mask-2" fill="white">
                            <use xlink:href="#path-1"></use>
                        </mask>
                        <g id="Clip-27"></g>
                        <path d="M5.21857143,119.134921 L100.281735,119.134921 L100.281735,81.2949735 L5.21857143,81.2949735 L5.21857143,119.134921 Z M101.27398,76.0919312 L4.22566327,76.0919312 C1.89561224,76.0919312 0,77.9814815 0,80.3035714 L0,120.125 C0,122.448413 1.89561224,124.338624 4.22566327,124.338624 L101.27398,124.338624 C103.604694,124.338624 105.500306,122.448413 105.500306,120.125 L105.500306,80.3035714 C105.500306,77.9814815 103.604694,76.0919312 101.27398,76.0919312 L101.27398,76.0919312 Z" id="Fill-26" fill="#141E32" mask="url(#mask-2)"></path>
                        <polygon id="Fill-28" fill="#CD4026" mask="url(#mask-2)" points="10.7747449 92.2724868 18.3817347 92.2724868 18.3817347 87.0687831 10.7747449 87.0687831"></polygon>
                        <polygon id="Fill-29" fill="#CD4026" mask="url(#mask-2)" points="23.4994898 92.2724868 31.1058163 92.2724868 31.1058163 87.0687831 23.4994898 87.0687831"></polygon>
                        <polygon id="Fill-30" fill="#CD4026" mask="url(#mask-2)" points="36.2242347 92.2724868 43.8279082 92.2724868 43.8279082 87.0687831 36.2242347 87.0687831"></polygon>
                        <polygon id="Fill-31" fill="#CD4026" mask="url(#mask-2)" points="48.9483163 92.2724868 56.5533163 92.2724868 56.5533163 87.0687831 48.9483163 87.0687831"></polygon>
                        <polygon id="Fill-32" fill="#CD4026" mask="url(#mask-2)" points="61.6743878 92.2724868 69.2780612 92.2724868 69.2780612 87.0687831 61.6743878 87.0687831"></polygon>
                        <polygon id="Fill-33" fill="#CD4026" mask="url(#mask-2)" points="74.4004592 92.2724868 82.0021429 92.2724868 82.0021429 87.0687831 74.4004592 87.0687831"></polygon>
                        <polygon id="Fill-34" fill="#CD4026" mask="url(#mask-2)" points="87.122551 92.2724868 94.7262245 92.2724868 94.7262245 87.0687831 87.122551 87.0687831"></polygon>
                        <polygon id="Fill-35" fill="#CD4026" mask="url(#mask-2)" points="10.7747449 102.818122 18.3817347 102.818122 18.3817347 97.614418 10.7747449 97.614418"></polygon>
                        <polygon id="Fill-36" fill="#CD4026" mask="url(#mask-2)" points="23.4994898 102.818122 31.1058163 102.818122 31.1058163 97.614418 23.4994898 97.614418"></polygon>
                        <polygon id="Fill-37" fill="#CD4026" mask="url(#mask-2)" points="36.2242347 102.818122 43.8279082 102.818122 43.8279082 97.614418 36.2242347 97.614418"></polygon>
                        <polygon id="Fill-38" fill="#CD4026" mask="url(#mask-2)" points="48.9483163 102.818122 56.5533163 102.818122 56.5533163 97.614418 48.9483163 97.614418"></polygon>
                        <polygon id="Fill-39" fill="#CD4026" mask="url(#mask-2)" points="61.6743878 102.818122 69.2780612 102.818122 69.2780612 97.614418 61.6743878 97.614418"></polygon>
                        <polygon id="Fill-40" fill="#CD4026" mask="url(#mask-2)" points="74.4004592 102.818122 82.0021429 102.818122 82.0021429 97.614418 74.4004592 97.614418"></polygon>
                        <polygon id="Fill-41" fill="#CD4026" mask="url(#mask-2)" points="87.122551 102.818122 94.7262245 102.818122 94.7262245 97.614418 87.122551 97.614418"></polygon>
                        <polygon id="Fill-42" fill="#CD4026" mask="url(#mask-2)" points="10.7747449 113.361111 18.3817347 113.361111 18.3817347 108.157407 10.7747449 108.157407"></polygon>
                        <polygon id="Fill-43" fill="#CD4026" mask="url(#mask-2)" points="23.4994898 113.361111 31.1058163 113.361111 31.1058163 108.157407 23.4994898 108.157407"></polygon>
                        <polygon id="Fill-44" fill="#CD4026" mask="url(#mask-2)" points="36.224898 113.361111 82.1208673 113.361111 82.1208673 108.157407 36.224898 108.157407"></polygon>
                        <polygon id="Fill-45" fill="#CD4026" mask="url(#mask-2)" points="87.122551 113.361111 94.7262245 113.361111 94.7262245 108.157407 87.122551 108.157407"></polygon>
                    </g>
                </g>
            </g>
        </g>
    </g>
</svg>