<?xml version="1.0" encoding="UTF-8" standalone="no"?>
<svg width="240px" height="240px" viewBox="0 0 240 240" version="1.1" xmlns="http://www.w3.org/2000/svg" xmlns:xlink="http://www.w3.org/1999/xlink">
    <!-- Generator: Sketch 3.7.1 (28215) - http://www.bohemiancoding.com/sketch -->
    <title>symbol-share</title>
    <desc>Created with Sketch.</desc>
    <defs>
        <circle id="path-1" cx="110" cy="110" r="110"></circle>
        <mask id="mask-2" maskContentUnits="userSpaceOnUse" maskUnits="objectBoundingBox" x="-10" y="-10" width="240" height="240">
            <rect x="-10" y="-10" width="240" height="240" fill="white"></rect>
            <use xlink:href="#path-1" fill="black"></use>
        </mask>
    </defs>
    <g id="Page-1" stroke="none" stroke-width="1" fill="none" fill-rule="evenodd">
        <g id="symbol-share" transform="translate(10.000000, 10.000000)">
            <g id="Oval-29" opacity="0.349999994">
                <use fill="#334162" fill-rule="evenodd" xlink:href="#path-1"></use>
                <use stroke="#7289AF" mask="url(#mask-2)" stroke-width="20" xlink:href="#path-1"></use>
            </g>
            <path d="M110,205 C162.467051,205 205,162.467051 205,110 C205,57.5329488 162.467051,15 110,15 C57.5329488,15 15,57.5329488 15,110 C15,162.467051 57.5329488,205 110,205 Z" id="Oval-29" fill="#FFFFFF"></path>
            <path d="M101.349297,164.228266 L112.902285,164.228266 L114.065313,150.510244 L115.925159,150.162114 C120.845276,149.240306 125.494893,147.475142 129.746862,144.914428 L131.283853,143.988943 L142.233513,153.102829 L150.405869,145.067654 L141.367164,134.563701 L142.432961,133.02286 C145.238936,128.962983 147.255847,124.480201 148.423861,119.699548 L148.845193,117.976061 L163.145569,116.804188 L163.146816,105.443396 L149.197966,104.300942 L148.843947,102.47081 C147.906544,97.6349956 146.110271,93.0602785 143.50499,88.8753684 L142.565094,87.3639465 L151.831918,76.5976708 L143.662055,68.5637221 L132.980402,77.4532851 L131.41474,76.4052189 C127.288673,73.645924 122.728807,71.6637917 117.863538,70.5127576 L116.112141,70.0984343 L114.919197,56.0347338 L103.367455,56.0347338 L102.203181,69.7527563 L100.342087,70.100886 C95.4219701,71.0226939 90.7711069,72.7878581 86.5191384,75.3473462 L84.9821472,76.2728316 L74.0324868,67.1601715 L65.8613776,75.1941201 L74.902576,85.6992986 L73.8367791,87.2401399 C71.0283109,91.3024691 69.0113994,95.7852507 67.8446324,100.563452 L67.4232998,102.285713 L53.1241703,103.460037 L53.1204307,114.818379 L67.0717738,115.963284 L67.4257929,117.79219 C68.3631955,122.632908 70.1582218,127.206399 72.7610099,131.383954 L73.7033987,132.895376 L64.4365755,143.665329 L72.6051916,151.699278 L83.2893376,142.810941 L84.856246,143.857781 C88.9835599,146.619528 93.5421787,148.60166 98.4037082,149.751468 L100.156352,150.165791 L101.349297,164.228266 L101.349297,164.228266 Z M117.490821,169.1315 L96.7607606,169.1315 L95.4830509,154.068766 C91.300889,152.909151 87.333133,151.188116 83.6483429,148.933854 L72.3234722,158.356644 L57.6678306,143.941136 L67.5928301,132.406278 C65.4737018,128.687176 63.90804,124.710653 62.9220221,120.542904 L48.133,119.33058 L48.1392327,98.9478365 L63.4542972,97.6913828 C64.6310367,93.5800212 66.3824339,89.6794987 68.674832,86.0535573 L59.0913861,74.9170874 L73.752014,60.5015799 L85.4807656,70.2639185 C89.2640328,68.1812699 93.3090746,66.6416545 97.5460846,65.67204 L98.7789186,51.1315 L119.505239,51.1315 L120.784196,66.1954602 C124.970097,67.3563008 128.936607,69.0773359 132.62015,71.329146 L143.942528,61.9063564 L158.600663,76.3206381 L148.674416,87.8554957 C150.794791,91.578276 152.360453,95.5560245 153.346471,99.7200958 L168.133,100.931195 L168.131753,121.316389 L152.814196,122.570391 C151.634963,126.684205 149.886059,130.584727 147.594908,134.209443 L157.17586,145.344687 L142.515233,159.758968 L130.785234,149.997856 C127.001967,152.08173 122.958172,153.62012 118.722409,154.59096 L117.490821,169.1315 L117.490821,169.1315 Z" id="Fill-661" fill="#282D33"></path>
            <path d="M108.674001,141.311777 C91.1014416,141.311777 76.8035587,127.25298 76.8035587,109.970306 L81.7897428,109.970306 C81.7897428,124.54762 93.8500756,136.408543 108.674001,136.408543 C123.497926,136.408543 135.559506,124.54762 135.559506,109.970306 L140.54569,109.970306 C140.54569,127.25298 126.247807,141.311777 108.674001,141.311777" id="Fill-662" fill="#282D33"></path>
            <path d="M81.7897428,110.175016 L76.8035587,110.175016 C76.8035587,109.289982 76.8422016,108.396368 76.9169943,107.518689 L81.8857268,107.931787 C81.822153,108.672175 81.7897428,109.427273 81.7897428,110.175016" id="Fill-663" fill="#282D33"></path>
            <path d="M114.553959,85.0067169 C113.049378,84.6107807 111.496181,84.3423287 109.936752,84.2111672 L110.365564,79.3250946 C112.214192,79.4819981 114.056587,79.7994825 115.842887,80.270193 L114.553959,85.0067169 L114.553959,85.0067169 Z M100.6263,85.0152975 L99.3311385,80.2812252 C101.118685,79.8080632 102.962327,79.4881272 104.808462,79.3299979 L105.24226,84.2136188 C103.685324,84.3472319 102.133374,84.6181356 100.6263,85.0152975 L100.6263,85.0152975 Z M123.01676,88.8962071 C121.736557,88.0123992 120.371589,87.2340108 118.958006,86.5843323 L121.070901,82.1432283 C122.746259,82.913036 124.365522,83.8360698 125.882569,84.884136 L123.01676,88.8962071 L123.01676,88.8962071 Z M92.1697316,88.9182717 L89.2989361,84.9086522 C90.814736,83.8593601 92.4327528,82.9363264 94.1056175,82.1628412 L96.2259923,86.6014937 C94.8136557,87.2536238 93.4486878,88.0320121 92.1697316,88.9182717 L92.1697316,88.9182717 Z M129.630933,95.4015726 C128.73342,94.1451189 127.716238,92.9548589 126.610552,91.8675668 L130.13703,88.4009805 C131.445904,89.6880794 132.648821,91.0965333 133.710878,92.5858906 L129.630933,95.4015726 L129.630933,95.4015726 Z M85.5655307,95.430992 L81.4805994,92.6202132 C82.5401635,91.1320817 83.7393408,89.722402 85.0494606,88.4303999 L88.5809255,91.8908572 C87.4739927,92.9830525 86.4605507,94.1733125 85.5655307,95.430992 L85.5655307,95.430992 Z M133.584977,103.724812 C133.182342,102.244035 132.641341,100.786549 131.979426,99.392805 L136.496908,97.3175112 C137.282232,98.9711269 137.922957,100.699517 138.401631,102.457326 L133.584977,103.724812 L133.584977,103.724812 Z M81.6227056,103.760361 L76.8035587,102.500229 C77.2797392,100.738743 77.9192174,99.0079011 78.7020483,97.3555113 L83.2207776,99.4271276 C82.5613548,100.81842 82.0240934,102.277132 81.6227056,103.760361 L81.6227056,103.760361 Z" id="Fill-664" fill="#282D33"></path>
            <path d="M140.47339,110.175016 L135.487206,110.175016 C135.487206,109.427273 135.454796,108.672175 135.391222,107.931787 L140.358708,107.518689 C140.434747,108.396368 140.47339,109.289982 140.47339,110.175016" id="Fill-665" fill="#282D33"></path>
            <path d="M91.5813618,121.019744 C89.2652793,117.776254 88.0224729,113.933345 88.0224729,109.879596 C88.0224729,99.1157723 96.9290443,90.3573708 107.874965,90.3573708 C118.824625,90.3573708 127.728704,99.1157723 127.728704,109.879596 C127.728704,113.932119 126.484651,117.773803 124.169815,121.018518 C122.611632,117.158447 118.77601,114.422443 114.303403,114.422443 L101.450267,114.422443 C96.976413,114.422443 93.1407909,117.159673 91.5813618,121.019744" id="Fill-666" fill="#619252"></path>
            <path d="M116.376409,107.364237 C116.376409,112.016181 112.540787,115.787993 107.807651,115.787993 C103.075763,115.787993 99.2413872,112.016181 99.2413872,107.364237 C99.2413872,102.709843 103.075763,98.93803 107.807651,98.93803 C112.540787,98.93803 116.376409,102.709843 116.376409,107.364237" id="Fill-667" fill="#FFFFFF"></path>
            <path d="M107.807651,101.389647 C104.459429,101.389647 101.734479,104.069264 101.734479,107.364237 C101.734479,110.656759 104.459429,113.336376 107.807651,113.336376 C111.158367,113.336376 113.883317,110.656759 113.883317,107.364237 C113.883317,104.069264 111.158367,101.389647 107.807651,101.389647 L107.807651,101.389647 Z M107.807651,118.23961 C101.709548,118.23961 96.7482951,113.360892 96.7482951,107.364237 C96.7482951,101.366357 101.709548,96.4864131 107.807651,96.4864131 C113.907001,96.4864131 118.869501,101.366357 118.869501,107.364237 C118.869501,113.360892 113.907001,118.23961 107.807651,118.23961 L107.807651,118.23961 Z" id="Fill-668" fill="#282D33"></path>
            <path d="M125.48866,135.4708 L120.502476,135.4708 L120.502476,125.750139 C120.502476,122.456391 117.777527,119.776774 114.429304,119.776774 L101.576168,119.776774 C98.2266987,119.776774 95.5017491,122.456391 95.5017491,125.750139 L95.5017491,135.4708 L90.515565,135.4708 L90.515565,125.750139 C90.515565,119.752258 95.4780647,114.87354 101.576168,114.87354 L114.429304,114.87354 C120.527407,114.87354 125.48866,119.752258 125.48866,125.750139 L125.48866,135.4708" id="Fill-669" fill="#282D33"></path>
        </g>
    </g>
</svg>