<?xml version="1.0" encoding="UTF-8" standalone="no"?>
<svg width="240px" height="240px" viewBox="0 0 240 240" version="1.1" xmlns="http://www.w3.org/2000/svg" xmlns:xlink="http://www.w3.org/1999/xlink">
    <!-- Generator: Sketch 3.7.1 (28215) - http://www.bohemiancoding.com/sketch -->
    <title>share-create</title>
    <desc>Created with Sketch.</desc>
    <defs>
        <circle id="path-1" cx="110" cy="110" r="110"></circle>
        <mask id="mask-2" maskContentUnits="userSpaceOnUse" maskUnits="objectBoundingBox" x="-10" y="-10" width="240" height="240">
            <rect x="-10" y="-10" width="240" height="240" fill="white"></rect>
            <use xlink:href="#path-1" fill="black"></use>
        </mask>
    </defs>
    <g id="Page-1" stroke="none" stroke-width="1" fill="none" fill-rule="evenodd">
        <g id="share-create" transform="translate(10.000000, 10.000000)">
            <g id="Oval-29-Copy-4" opacity="0.349999994">
                <use fill="#334162" fill-rule="evenodd" xlink:href="#path-1"></use>
                <use stroke="#7289AF" mask="url(#mask-2)" stroke-width="20" xlink:href="#path-1"></use>
            </g>
            <circle id="Oval-29-Copy" fill="#FFFFFF" cx="110" cy="110" r="95"></circle>
            <path d="M101.448,123.718 L97.448,123.718 L97.448,122.34 C95.674,121.685 94.041,120.672 92.661,119.364 L92.52,119.216 L79.115,103.62 L79.111,91.629 L79.055,90.15 L79.115,90.129 L79.115,84.775 L79,84.76 L79.115,82.469 L79.115,81.146 L79.196,81.141 L79.205,81.001 L83.386,81 C88.248,81 92.205,84.955 92.205,89.817 L92.205,101.237 L88.205,101.237 L88.205,89.817 C88.205,87.161 86.043,85 83.386,85 L83.115,85 L83.115,91.362 L83.372,92.88 L83.115,92.97 L83.115,102.137 L95.484,116.527 C96.735,117.69 98.268,118.517 99.923,118.921 L101.448,119.295 L101.448,123.718" id="Fill-709" fill="#282D33"></path>
            <path d="M63.195,91 L59.763,91 C59.339,91 59,91.347 59,91.779 L59,97.315 C59,97.747 59.339,98.097 59.763,98.097 L63.195,98.097" id="Fill-710" fill="#FFFFFF"></path>
            <path d="M63.195,100.097 L59.763,100.097 C58.24,100.097 57,98.849 57,97.315 L57,91.779 C57,90.247 58.24,89 59.763,89 L63.195,89 L63.195,93 L61,93 L61,96.097 L63.195,96.097 L63.195,100.097" id="Fill-711" fill="#282D33"></path>
            <polyline id="Fill-712" fill="#282D33" points="147.92 100.087 146 100.087 146 96.087 147.056 96.087 150.461 94.544 147.056 93 146 93 146 89 147.92 89 160.15 94.543 147.92 100.087"></polyline>
            <polygon id="Fill-713" fill="#7FC569" points="127 100.065 144.035 100.065 144.035 89 127 89"></polygon>
            <polygon id="Fill-714" fill="#7FC569" points="66 100.065 88.243 100.065 88.243 89 66 89"></polygon>
            <path d="M82,101 L82,103.118 L94.922,118.151 C96.416,119.567 98.272,120.599 100.333,121.103 L100.333,123.957" id="Fill-715" fill="#FFFFFF"></path>
            <path d="M102.371,123.957 L98.371,123.957 L98.371,122.579 C96.597,121.924 94.964,120.911 93.584,119.603 L93.443,119.455 L80.038,103.859 L80,99.545 L81.442,99.093 L82.036,100.993 L82.038,100.985 L82.038,99 L82.47,99.371 L82.55,99.074 L84.038,99.468 L84.038,102.376 L96.407,116.766 C97.658,117.929 99.191,118.756 100.846,119.16 L102.371,119.534 L102.371,123.957" id="Fill-716" fill="#282D33"></path>
            <path d="M124.448,123.852 L120.448,123.852 L120.448,117.956 L121.249,117.356 C123.808,115.441 125.276,112.525 125.276,109.356 L125.276,88.527 L125.053,84.023 C125.051,82.567 123.946,81.462 122.588,81.462 C120.134,81.462 120.125,82.366 120.125,82.805 L120.125,82.809 L116.125,82.809 L116.125,81.695 C116.125,80.336 115.02,79.231 113.662,79.231 C112.305,79.231 111.2,80.336 111.2,81.695 L107.2,81.695 L107.2,79.462 C107.2,78.105 106.096,77 104.739,77 C103.381,77 102.276,78.105 102.276,79.462 L102.276,81.975 L98.276,81.975 C98.276,81.05 97.159,79.679 95.617,79.679 C94.174,79.679 93,80.852 93,82.295 L93,101.371 L89,101.371 L89,82.295 C89,78.647 91.969,75.679 95.617,75.679 C96.813,75.679 97.959,76.013 98.953,76.584 C100.013,74.462 102.208,73 104.739,73 C107.103,73 109.175,74.277 110.301,76.176 C111.281,75.577 112.432,75.231 113.662,75.231 C115.915,75.231 117.903,76.39 119.06,78.143 C119.979,77.717 121.142,77.462 122.588,77.462 C126.152,77.462 129.051,80.362 129.051,83.925 L129.273,88.429 L129.276,109.356 C129.276,113.455 127.529,117.248 124.448,119.913 L124.448,123.852" id="Fill-717" fill="#282D33"></path>
            <polygon id="Fill-718" fill="#5EB4E7" points="97 163.605 133.784 163.605 133.784 127 97 127"></polygon>
            <polygon id="Fill-719" fill="#619252" points="97 163.605 133.784 163.605 133.784 127 97 127"></polygon>
            <polygon id="Fill-720" fill="#282D33" points="126 137 130 137 130 133 126 133"></polygon>
        </g>
    </g>
</svg>