<?xml version="1.0" encoding="utf-8"?>
<!-- Generator: Adobe Illustrator 19.1.0, SVG Export Plug-In . SVG Version: 6.00 Build 0)  -->
<svg version="1.1" id="Layer_1" xmlns="http://www.w3.org/2000/svg" xmlns:xlink="http://www.w3.org/1999/xlink" x="0px" y="0px"
	 width="150px" height="38.3px" viewBox="375 -275 150 38.3" enable-background="new 375 -275 150 38.3" xml:space="preserve">
<g>
	<polygon fill="#A9A195" points="440.8,-265.3 440.8,-275 438.1,-275 438.1,-263.3 445.7,-263.3 445.7,-265.3 	"/>
	<polygon fill="#A9A195" points="512.9,-275 501.9,-275 501.9,-272.9 506.5,-272.9 506.5,-263.2 509.1,-263.2 509.1,-272.9 
		512.9,-272.9 	"/>
	<polygon fill="#A9A195" points="490.7,-272.9 490.7,-274.9 483.3,-274.9 483.3,-263.2 490.7,-263.2 490.7,-265.4 485.7,-265.4 
		485.7,-268.1 489.2,-268.1 489.2,-270.1 485.7,-270.1 485.7,-272.9 	"/>
	<polygon fill="#A9A195" points="522.3,-272.9 522.3,-274.9 514.9,-274.9 514.9,-263.2 522.3,-263.2 522.3,-265.4 517.4,-265.4 
		517.4,-268.1 520.9,-268.1 520.9,-270.1 517.4,-270.1 517.4,-272.9 	"/>
	<path fill="#A9A195" d="M456.4-263.3h2.4l-5.2-11.5v-0.1h-1.4l0,0l0,0h-0.1v0.1l-5.2,11.5h2.4l1.2-2.7h4.7L456.4-263.3z M451.4-268
		l1.5-3.2l1.5,3.2H451.4z"/>
	<path fill="#A9A195" d="M501.5-263.3h2.4l-5.3-11.6v-0.1h-1.4l0,0l0,0H497v0.1l-5.2,11.5h2.4l1.2-2.7h4.7L501.5-263.3z M496.3-268
		l1.5-3.2l1.5,3.2H496.3z"/>
	<path fill="#A9A195" d="M467.5-274.9v8.6c-0.9,0.7-2,1.1-3.3,1.1c-0.4,0-1,0-1.3-0.1c-1.5,0-1.2-2.7-1.2-2.7v-6.9l-2.5-0.1v8.6
		c0.3,1.9,1.4,2.8,2.6,3c0.5,0.1,1.3,0.1,2.1,0.1c1.4,0,2.7-0.4,3.7-1.2v1.3h2.5v-11.7H467.5z"/>
	<path fill="#A9A195" d="M478.3-268.2c1.5-0.6,2-1.6,2-1.6c1-2.6-0.3-4.3-1.6-4.9c-0.2-0.1-0.7-0.2-0.7-0.2h-1.3h-4.2v11.7h2.4v-4.3
		h1.4l2.9,4h2.5L478.3-268.2z M478.1-270.5c-0.1,0.3-0.3,0.6-0.6,0.8c-0.4,0.4-0.9,0.3-0.9,0.3h-1.8v-3.5h2
		C478-272.6,478.5-271.6,478.1-270.5z"/>
	<rect x="424.8" y="-274.8" fill="#A9A195" width="0.7" height="37.7"/>
	<path fill="#A9A195" d="M397.1-254.3h7.7c7.2-9.9,7-20.2,7-20.2c-5.8,1.2-10.8,3-14.9,5.1h0.1L397.1-254.3L397.1-254.3z"/>
	<path fill="#A9A195" d="M393.5-267.4c-18.2,11.5-17.7,29.9-17.7,29.9c12.9-2.6,21.2-7.9,26.5-13.8h-8.8
		C393.5-251.3,393.5-267.4,393.5-267.4z"/>
	<path fill="#A9A195" d="M480.2-257.7l-3.6,7.8h0.5l1.2-2.6l0.1-0.1h4l0.1,0.1l1.2,2.6h0.5l-3.6-7.8H480.2z M478.4-252.9l0.1-0.3
		l1.5-3.3l0.2-0.5l0.2,0.5l1.5,3.3l0.1,0.3 M475.6-250.2h0.4v-7.7h-0.4v7.1l-0.4-0.5c-0.5-0.6-0.9-1.1-1.3-1.6
		c-0.4-0.5-0.9-1.1-1.3-1.6c-0.5-0.6-1-1.2-1.5-1.7c-0.5-0.6-1-1.2-1.4-1.7h-0.4v7.7h0.4v-7l0.4,0.5L475.6-250.2z M482.4-241.4
		c-0.2-0.1-0.6-0.2-0.9-0.3c-0.2-0.1-0.5-0.1-0.6-0.2c-0.6-0.2-1.1-0.5-1.3-0.7c-0.3-0.2-0.4-0.6-0.4-1s0.2-0.8,0.5-1.1
		c0.2-0.1,0.4-0.3,0.6-0.3c0.2-0.1,0.4-0.1,0.7-0.1c0.4,0,0.8,0.1,1.1,0.2c0.2,0.1,0.3,0.2,0.5,0.2c0.1,0,0.1,0.1,0.2,0.1v-0.5
		c-0.1-0.1-0.3-0.2-0.6-0.3l0,0c-0.3-0.1-0.7-0.2-1.2-0.2c-0.6,0-1.1,0.2-1.6,0.6c-0.4,0.4-0.6,0.9-0.6,1.4c0,0.6,0.1,1,0.4,1.3
		c0.1,0.1,0.3,0.3,0.6,0.4c0.2,0.1,0.5,0.3,0.8,0.4c0.1,0,0.3,0.1,0.4,0.1c0.8,0.3,1.3,0.5,1.6,0.7c0.3,0.3,0.5,0.7,0.5,1.2
		c0,0.5-0.2,0.9-0.5,1.2c-0.4,0.4-1.7,0.4-1.8,0.4c-0.3,0-0.6-0.1-1-0.2c-0.2-0.1-0.3-0.2-0.5-0.3c-0.1-0.1-0.3-0.2-0.4-0.3v0.5
		c0.1,0.1,0.2,0.1,0.3,0.2c0.1,0.1,0.3,0.1,0.5,0.2c0.4,0.2,0.8,0.3,1.2,0.3c0.6,0,1.6-0.1,2.1-0.6c0.4-0.4,0.6-0.9,0.6-1.4
		c0-0.6-0.1-1-0.4-1.4C482.9-241.1,482.7-241.2,482.4-241.4z M466.6-241.4h3.2v-0.4h-3.2v-3.4h3.7v-0.4h-4.2v7.7h4.3v-0.4h-3.8
		V-241.4z M475.1-241.5c0,0,0.2,0,0.3-0.1c0.1,0,0.3-0.1,0.3-0.1c0.3-0.1,0.6-0.3,0.8-0.6c0.3-0.3,0.4-0.7,0.4-1.2
		c0-0.7-0.2-1.1-0.7-1.5c-0.2-0.2-0.5-0.3-0.8-0.4l0,0c-0.3-0.1-0.7-0.1-1.1-0.1h-1.9v7.7h0.5v-3.8h1.3h0.4l3.1,3.8h0.5L475.1-241.5
		z M474.2-241.8h-1.4v-3.3h1.5c0.6,0,1.1,0.1,1.5,0.4c0.4,0.3,0.6,0.7,0.6,1.2c0,0.5-0.2,1-0.6,1.2
		C475.4-241.9,474.9-241.8,474.2-241.8z M468-250.2c-0.8-1.3-1.9-3-2.1-3.2l-0.3-0.2l0.4-0.2c0.3-0.1,0.7-0.4,1-0.7
		c0.3-0.3,0.4-0.7,0.4-1.2c0-0.7-0.2-1.1-0.7-1.5c-0.2-0.2-0.5-0.3-0.8-0.4l0,0c-0.3-0.1-0.7-0.1-1.1-0.1H463v7.4h0.5v-3.5h1.9
		l0.1,0.1l2.2,3.4H468z M464.7-253.9h-1.4v-3.3h1.5c0.6,0,1.1,0.1,1.5,0.4s0.6,0.7,0.6,1.2s-0.2,1-0.6,1.2
		C465.9-254.1,465.4-253.9,464.7-253.9z M485.3-237.7h0.4v-7.7h-0.4V-237.7z M497.3-250.2c1.2,0,2.1-0.4,2.9-1.2
		c0.8-0.8,1.2-1.7,1.2-2.8s-0.4-2.1-1.2-2.8l0,0l0,0c-0.8-0.8-1.8-1.1-2.9-1.1c-1.2,0-2.1,0.4-2.9,1.2c-0.8,0.7-1.2,1.7-1.2,2.8
		c0,0.6,0.1,1.1,0.3,1.6c0.2,0.5,0.5,0.9,0.9,1.3C495.2-250.5,496.2-250.2,497.3-250.2z M494.8-256.6c0.7-0.7,1.6-1,2.5-1
		c1,0,1.9,0.4,2.5,1c0.7,0.7,1.1,1.6,1.1,2.5c0,1-0.4,1.8-1.1,2.5l0,0c-0.7,0.7-1.5,1.1-2.5,1.1c-1,0-1.9-0.4-2.6-1.1
		c-0.7-0.7-1-1.5-1-2.5C493.7-255,494.1-255.9,494.8-256.6z M514.4-257.7l-3.6,7.4h0.5l1.2-2.2l0.1-0.1h4l0.1,0.1l1.2,2.2h0.5
		l-3.6-7.4H514.4z M516.2-253.2l0.1,0.3h-3.7l0.1-0.3l1.5-3.3l0.2-0.5l0.2,0.5L516.2-253.2z M507-241.5c-0.2-0.1-0.6-0.2-0.9-0.3
		c-0.2-0.1-0.5-0.1-0.6-0.2c-0.6-0.2-1.1-0.5-1.3-0.7c-0.3-0.2-0.4-0.6-0.4-1s0.2-0.8,0.5-1.1c0.2-0.1,0.4-0.3,0.6-0.3
		c0.2-0.1,0.4-0.1,0.7-0.1c0.4,0,0.8,0.1,1.1,0.2c0.2,0.1,0.3,0.2,0.4,0.2c0.1,0,0.1,0.1,0.2,0.1v-0.5c-0.1-0.1-0.3-0.2-0.6-0.3l0,0
		c-0.3-0.1-0.7-0.2-1.2-0.2c-0.6,0-1.1,0.2-1.6,0.6c-0.4,0.4-0.6,0.9-0.6,1.4c0,0.6,0.1,1,0.4,1.3c0.1,0.1,0.3,0.3,0.6,0.4
		c0.2,0.1,0.5,0.3,0.8,0.4c0.1,0,0.3,0.1,0.4,0.1c0.8,0.3,1.3,0.5,1.6,0.7c0.3,0.3,0.5,0.7,0.5,1.2c0,0.5-0.2,0.9-0.5,1.2
		c-0.4,0.4-1.7,0.4-1.8,0.4c-0.3,0-0.6-0.1-1-0.2c-0.2-0.1-0.3-0.2-0.5-0.3c-0.1-0.1-0.3-0.2-0.4-0.3v0.5c0.1,0.1,0.2,0.1,0.3,0.2
		c0.1,0.1,0.3,0.2,0.5,0.2c0.4,0.2,0.8,0.3,1.2,0.3c0.6,0,1.6-0.1,2.1-0.6c0.4-0.4,0.6-0.9,0.6-1.4c0-0.6-0.1-1-0.4-1.4
		C507.4-241.2,507.2-241.3,507-241.5z M508.8-250.9l-0.4-0.5c-0.5-0.6-0.9-1.1-1.3-1.6c-0.5-0.6-0.9-1.1-1.3-1.6
		c-0.5-0.5-1-1.1-1.5-1.7c-0.4-0.5-0.9-1.1-1.4-1.7h-0.4v7.7h0.4v-7l0.4,0.5l5.4,6.6h0.4v-7.7h-0.4V-250.9z M487-245h3v7.4h0.5v-7.4
		h3v-0.4H487V-245z M489.7-257.6h-6.4v0.4h3v7.1h0.5v-7.1h3V-257.6z M491.7-250.2v-7.5h-0.5v7.5H491.7z M498.1-241.4h2.9v-0.4h-2.9
		v-3.4h3.7v-0.4h-4.2v7.7h4.3v-0.4h-3.8V-241.4z M494.9-237.7h0.4v-7.7h-0.4V-237.7z M520.3-257.2h-0.4v7.3h4.4v-0.4h-3.9
		L520.3-257.2L520.3-257.2z M460.9-250.5h-3.8v-3.1h3v-0.4h-3v-3.4h3.7v-0.3h-4.2v7.5h4.3V-250.5z M455.4-237.7h0.4v-7.7h-0.4
		V-237.7z M461.1-239.1l-0.2,0.5l-0.2-0.5l-2.7-6.3h-0.4l3.3,7.8h0.1l3.3-7.8h-0.5L461.1-239.1z M446.9-251.2
		c-0.4-0.5-0.9-1.1-1.3-1.6s-0.9-1.1-1.3-1.6c-0.5-0.6-1-1.2-1.5-1.7c-0.4-0.5-0.9-1.1-1.4-1.7h-0.4v7.4h0.4v-6.7l0.4,0.5l5.4,6.3
		h0.4v-7.4h-0.4v6.9L446.9-251.2z M438.7-250.3v-7.3h-0.4v7.3H438.7z M444.1-241.1c0,0.5-0.1,0.9-0.2,1.3c-0.1,0.4-0.3,0.7-0.6,1
		c-0.5,0.6-1.2,0.9-2,0.9c-0.9,0-1.6-0.3-2.1-0.8s-0.7-1.3-0.7-2.2v-4.5H438v4.5c0,1,0.3,1.9,0.9,2.5c0.6,0.6,1.4,0.9,2.4,0.9
		c1,0,1.7-0.3,2.3-1l0,0c0,0,0,0,0-0.1l0.4-0.4v1.3h0.4v-2.9l0,0v-0.1c0-0.1,0-0.2,0-0.3v-4.4h-0.5v4.3H444.1z M452.1-250.3v-6.9h3
		v-0.4h-6.4v0.4h3v6.9H452.1z M452.6-238.3l-0.4-0.5c-0.4-0.5-0.9-1-1.3-1.6c-0.5-0.6-0.9-1.1-1.3-1.6c-0.5-0.6-1-1.2-1.5-1.7
		c-0.4-0.5-0.9-1.1-1.4-1.7h-0.4v7.7h0.4v-7.1l0.4,0.5l5.4,6.6h0.4v-7.7h-0.4V-238.3z"/>
</g>
</svg>
