<svg xmlns="http://www.w3.org/2000/svg" xmlns:xlink="http://www.w3.org/1999/xlink" viewBox="0 0 250 256.82"><defs><style>.a,.b{fill:none;}.a{clip-rule:evenodd;}.c{isolation:isolate;}.d{clip-path:url(#a);}.e{clip-path:url(#b);}.f{fill:#344262;}.g{clip-path:url(#c);}.h{fill:#fff;}.i{clip-path:url(#e);}.j{fill:#151e32;}.k{clip-path:url(#g);}.l{fill:#eca69b;}.m{clip-path:url(#i);}.n{clip-path:url(#k);}.o{clip-path:url(#m);}.p{clip-path:url(#o);}.q{clip-path:url(#q);}.r{clip-path:url(#s);}.s{clip-path:url(#u);}.t{clip-path:url(#w);}.u{clip-path:url(#y);}.v{clip-path:url(#aa);}.w{clip-path:url(#ac);}.x{clip-path:url(#ae);}.y{clip-path:url(#ag);}.z{clip-path:url(#ai);}.aa{clip-path:url(#ak);}.ab{clip-path:url(#am);}.ac{clip-path:url(#ao);}.ad{clip-path:url(#aq);}.ae{fill:#292e33;}.af{clip-path:url(#as);}.ag{clip-path:url(#au);}.ah{clip-path:url(#aw);}.ai{clip-path:url(#ay);}.aj{clip-path:url(#ba);}.ak{clip-path:url(#bc);}.al{clip-path:url(#be);}</style><clipPath id="a"><polygon class="a" points="126.69 127.05 181.82 100.48 184.09 68.67 235.87 48.42 120.59 4.73 17.12 48.5 67.09 70.93 66.62 94.78 80.08 107.91 126.69 127.05"/></clipPath><clipPath id="b"><rect class="b" width="250" height="256.82"/></clipPath><clipPath id="c"><rect class="b" x="14.56" y="177.12" width="176.58" height="76.54"/></clipPath><clipPath id="e"><path class="a" d="M189.77,170.89H17.6a7.5,7.5,0,0,0-7.5,7.49v70.77a7.5,7.5,0,0,0,7.5,7.49H189.77a7.5,7.5,0,0,0,7.5-7.49V178.37A7.5,7.5,0,0,0,189.77,170.89Zm-170.4,76.5H188V180.14H19.36v67.25Z"/></clipPath><clipPath id="g"><rect class="b" x="29.22" y="190.4" width="13.5" height="9.25"/></clipPath><clipPath id="i"><rect class="b" x="51.79" y="190.4" width="13.49" height="9.25"/></clipPath><clipPath id="k"><rect class="b" x="74.37" y="190.4" width="13.49" height="9.25"/></clipPath><clipPath id="m"><rect class="b" x="96.94" y="190.4" width="13.49" height="9.25"/></clipPath><clipPath id="o"><rect class="b" x="119.51" y="190.4" width="13.49" height="9.25"/></clipPath><clipPath id="q"><rect class="b" x="142.09" y="190.4" width="13.49" height="9.25"/></clipPath><clipPath id="s"><rect class="b" x="164.66" y="190.4" width="13.49" height="9.25"/></clipPath><clipPath id="u"><rect class="b" x="29.22" y="209.14" width="13.5" height="9.25"/></clipPath><clipPath id="w"><rect class="b" x="51.79" y="209.14" width="13.49" height="9.25"/></clipPath><clipPath id="y"><rect class="b" x="74.37" y="209.14" width="13.49" height="9.25"/></clipPath><clipPath id="aa"><rect class="b" x="96.94" y="209.14" width="13.49" height="9.25"/></clipPath><clipPath id="ac"><rect class="b" x="119.51" y="209.14" width="13.49" height="9.25"/></clipPath><clipPath id="ae"><rect class="b" x="142.09" y="209.14" width="13.49" height="9.25"/></clipPath><clipPath id="ag"><rect class="b" x="164.66" y="209.14" width="13.49" height="9.25"/></clipPath><clipPath id="ai"><rect class="b" x="29.22" y="227.88" width="13.5" height="9.25"/></clipPath><clipPath id="ak"><rect class="b" x="51.79" y="227.88" width="13.49" height="9.25"/></clipPath><clipPath id="am"><rect class="b" x="74.37" y="227.88" width="81.42" height="9.25"/></clipPath><clipPath id="ao"><rect class="b" x="164.66" y="227.88" width="13.49" height="9.25"/></clipPath><clipPath id="aq"><path class="a" d="M79.7,152.06h9v-9.25h-9v9.25Zm-18,0h9v-9.25h-9v9.25Zm-9,0H49.47a31.07,31.07,0,0,1-6.83-.76l2-9a21.75,21.75,0,0,0,4.79.53h3.16v9.25Zm-19.75-4.82a31,31,0,0,1-7.8-7.1l7.3-5.68a21.7,21.7,0,0,0,5.48,5ZM20.11,130.83a30.76,30.76,0,0,1-1.54-9.63v-0.8l9.26,0.23v0.57A21.59,21.59,0,0,0,28.9,128Zm9.17-17.44-8.63-3.34a30.73,30.73,0,0,1,5.44-9l7,6.05A21.56,21.56,0,0,0,29.28,113.39Zm9.54-11-4.56-8a30.63,30.63,0,0,1,10-3.55l1.56,9.11A21.42,21.42,0,0,0,38.82,102.38Z"/></clipPath><clipPath id="as"><rect class="b" x="97.81" y="142.82" width="4.63" height="9.25"/></clipPath><clipPath id="au"><rect class="b" x="101.84" y="142.82" width="4.63" height="9.25"/></clipPath><clipPath id="aw"><path class="a" d="M211.78,198.3H206v-9.25h5.8a18.69,18.69,0,0,0,2.71-.2l1.34,9.15A28.19,28.19,0,0,1,211.78,198.3Zm14.37-4-4.79-7.91a18.5,18.5,0,0,0,5.39-4.94l7.48,5.46A27.75,27.75,0,0,1,226.14,194.31ZM238.8,177l-9-2.13a18.67,18.67,0,0,0,.25-7.3l9.14-1.5A27.94,27.94,0,0,1,238.8,177Zm-11.34-16.25a18.53,18.53,0,0,0-5-5.3l5.33-7.56a27.75,27.75,0,0,1,7.54,7.93Zm-11.71-8.24a18.79,18.79,0,0,0-4-.43h-4.19v-9.25h4.19a28,28,0,0,1,5.95.64Zm-26.55-.43h9.19v-9.25H189.2v9.25Zm-18.38,0H180v-9.25h-9.19v9.25Zm-18.39,0h9.19v-9.25h-9.19v9.25Zm-18.38,0h9.19v-9.25H134v9.25Zm-18.39,0h9.19v-9.25h-9.19v9.25Z"/></clipPath><clipPath id="ay"><rect class="b" x="192.1" y="189.05" width="4.63" height="9.25"/></clipPath><clipPath id="ba"><path class="a" d="M249.65,47.51L124.36,0.58,0,49.91,60.83,72.69,61,87.49c0.2,12.86,7.77,21.11,28,30.42,13.07,6,24.77,10.06,35.75,12.31l0.93-.77,0.94,0.75c11-2.47,22.58-6.72,35.51-13,20-9.69,27.42-18.08,27.36-31l-0.14-14.78ZM180.17,86.29c0,6.23-1.65,12.65-22.15,22.59a166.9,166.9,0,0,1-27.83,10.86L129.94,95l50.12-19.88ZM92.81,109.51C72.12,100,70.32,93.59,70.23,87.38L70.12,76.17l50.49,18.91,0.24,24.76A167.17,167.17,0,0,1,92.81,109.51Zm91.76-46.15L180,65.19,129.84,85.07l-0.07,0-4.54,1.8,0,0h0l-4.57-1.71-0.07,0L70,66.25l-4.65-1.74-4.65-1.74-35-13.11,98.74-39.17,99.49,37.26L189.18,61.54Z"/></clipPath><clipPath id="bc"><path class="a" d="M125,26.46h-0.29c-8.14.08-14.38,3.3-16.22,8a7.56,7.56,0,0,0-.36,4.63,8.9,8.9,0,0,0,2.73,4.6,17.74,17.74,0,0,0,9.32,4.09h0.07a28.25,28.25,0,0,0,4.4.35h0.16l0-4.63h0.07l0,4.62h0a28.56,28.56,0,0,0,4.52-.4h0.07a17.74,17.74,0,0,0,9.41-4.3,8.89,8.89,0,0,0,2.62-4.65,8,8,0,0,0,.17-1.63,7.89,7.89,0,0,0-.63-3c-1.91-4.58-8.1-7.67-16.08-7.67"/></clipPath><clipPath id="be"><path class="a" d="M197.84,102.33L197.6,61.64,123,33.71l-3.25,8.66,68.61,25.7,0.21,34.68c-5,1.74-8.43,5.81-8.43,10.56v20h27.57v-20c0-5.2-4.17-9.58-9.88-11"/></clipPath></defs><title>img-cover-xl-onefaculty-learn</title><g class="c"><g class="d"><g class="e"><rect class="f" x="11.44" y="-0.95" width="230.11" height="133.69"/></g></g><g class="g"><g class="e"><rect class="h" x="8.88" y="171.43" width="187.95" height="87.9"/></g></g><g class="i"><g class="e"><rect class="j" x="4.42" y="165.21" width="198.52" height="97.11"/></g></g><g class="k"><g class="e"><rect class="l" x="23.53" y="184.72" width="24.86" height="20.61"/></g></g><g class="m"><g class="e"><rect class="l" x="46.11" y="184.72" width="24.86" height="20.61"/></g></g><g class="n"><g class="e"><rect class="l" x="68.68" y="184.72" width="24.85" height="20.61"/></g></g><g class="o"><g class="e"><rect class="l" x="91.26" y="184.72" width="24.86" height="20.61"/></g></g><g class="p"><g class="e"><rect class="l" x="113.83" y="184.72" width="24.85" height="20.61"/></g></g><g class="q"><g class="e"><rect class="l" x="136.41" y="184.72" width="24.85" height="20.61"/></g></g><g class="r"><g class="e"><rect class="l" x="158.98" y="184.72" width="24.85" height="20.61"/></g></g><g class="s"><g class="e"><rect class="l" x="23.53" y="203.46" width="24.86" height="20.61"/></g></g><g class="t"><g class="e"><rect class="l" x="46.11" y="203.46" width="24.86" height="20.61"/></g></g><g class="u"><g class="e"><rect class="l" x="68.68" y="203.46" width="24.85" height="20.61"/></g></g><g class="v"><g class="e"><rect class="l" x="91.26" y="203.46" width="24.86" height="20.61"/></g></g><g class="w"><g class="e"><rect class="l" x="113.83" y="203.46" width="24.85" height="20.61"/></g></g><g class="x"><g class="e"><rect class="l" x="136.41" y="203.46" width="24.85" height="20.61"/></g></g><g class="y"><g class="e"><rect class="l" x="158.98" y="203.46" width="24.85" height="20.61"/></g></g><g class="z"><g class="e"><rect class="l" x="23.53" y="222.2" width="24.86" height="20.61"/></g></g><g class="aa"><g class="e"><rect class="l" x="46.11" y="222.2" width="24.86" height="20.61"/></g></g><g class="ab"><g class="e"><rect class="l" x="68.68" y="222.2" width="92.78" height="20.61"/></g></g><g class="ac"><g class="e"><rect class="l" x="158.98" y="222.2" width="24.85" height="20.61"/></g></g><g class="ad"><g class="e"><rect class="ae" x="12.89" y="85.1" width="81.52" height="72.64"/></g></g><g class="af"><g class="e"><rect class="ae" x="92.12" y="137.13" width="15.99" height="20.61"/></g></g><g class="ag"><g class="e"><rect class="j" x="96.16" y="137.13" width="15.99" height="20.61"/></g></g><g class="ah"><g class="e"><rect class="j" x="109.98" y="137.13" width="135.25" height="66.85"/></g></g><g class="ai"><g class="e"><rect class="j" x="186.42" y="183.37" width="15.99" height="20.61"/></g></g><g class="aj"><g class="e"><rect class="j" x="-5.68" y="-5.1" width="261.02" height="141"/></g></g><g class="ak"><g class="e"><rect class="j" x="102.22" y="20.78" width="45.15" height="33.02"/></g></g><g class="al"><g class="e"><rect class="l" x="114.08" y="28.03" width="99.32" height="111.01"/></g></g></g></svg>