<svg xmlns="http://www.w3.org/2000/svg" xmlns:xlink="http://www.w3.org/1999/xlink" viewBox="0 0 362.45 347.91"><defs><style>.a,.b,.f{fill:none;}.b{clip-rule:evenodd;}.c{clip-path:url(#a);}.d{clip-path:url(#b);}.e{fill:#fff;}.f{stroke:#979797;stroke-miterlimit:10;stroke-width:2px;}.g{clip-path:url(#e);}.h{fill:#282d33;}.i{clip-path:url(#g);}.j{fill:#151e32;}.k{clip-path:url(#i);}.l{clip-path:url(#k);}.m{clip-path:url(#m);}.n{clip-path:url(#o);}.o{clip-path:url(#q);}.p{clip-path:url(#s);}.q{clip-path:url(#u);}.r{clip-path:url(#w);}.s{clip-path:url(#y);}.t{clip-path:url(#aa);}.u{clip-path:url(#ac);}.v{clip-path:url(#ae);}.w{clip-path:url(#ag);}.x{fill:#cf4128;}.y{clip-path:url(#ai);}.z{clip-path:url(#ak);}.aa{clip-path:url(#am);}.ab{clip-path:url(#ao);}.ac{clip-path:url(#aq);}.ad{clip-path:url(#as);}.ae{clip-path:url(#au);}.af{clip-path:url(#aw);}.ag{clip-path:url(#ay);}.ah{clip-path:url(#ba);}.ai{clip-path:url(#bc);}.aj{clip-path:url(#be);}.ak{clip-path:url(#bg);}.al{clip-path:url(#bi);}.am{clip-path:url(#bk);}.an{clip-path:url(#bm);}.ao{clip-path:url(#bo);}</style><clipPath id="a" transform="translate(5 5)"><rect class="a" x="6" y="213" width="272" height="118"/></clipPath><clipPath id="b" transform="translate(5 5)"><rect class="a" width="353" height="338"/></clipPath><clipPath id="e" transform="translate(5 5)"><rect class="a" x="130.2" y="63.24" width="14.22" height="7.11" transform="translate(68.98 203.35) rotate(-89.36)"/></clipPath><clipPath id="g" transform="translate(5 5)"><path class="b" d="M152.7,180.29l-14.39-.16,0.16-14.22,14.39,0.16ZM123.93,180l-14.39-.16,0.16-14.22,14.39,0.16Zm-28.77-.32-14.39-.16,0.16-14.22,14.39,0.16Zm-29-.35a59.9,59.9,0,0,1-16-2.84l4.36-13.53a45.7,45.7,0,0,0,12.22,2.17ZM35.5,169.39a59.91,59.91,0,0,1-12.21-10.75L34,149.33a45.8,45.8,0,0,0,9.32,8.21ZM14.41,145a59.5,59.5,0,0,1-4.88-15.55l14-2.36a45.14,45.14,0,0,0,3.71,11.83Zm8.76-30.34L9,113.19a59.67,59.67,0,0,1,3.87-15.82l13.21,5.24A45.38,45.38,0,0,0,23.17,114.66Zm9-22.85L20.91,83.2A60.31,60.31,0,0,1,32.42,71.7L41,83A45.89,45.89,0,0,0,32.22,91.81Zm19.6-14.87L46.6,63.71a59.56,59.56,0,0,1,15.82-3.85L63.87,74A45.35,45.35,0,0,0,51.82,76.94Zm68.78-2.59-14.39-.16L106.37,60l14.39,0.16ZM91.83,74l-14.39-.16L77.6,59.65,92,59.81Z"/></clipPath><clipPath id="i" transform="translate(5 5)"><rect class="a" x="162.72" y="169.88" width="14.22" height="7.11" transform="translate(-5.5 341.31) rotate(-89.36)"/></clipPath><clipPath id="k" transform="translate(5 5)"><rect class="a" x="139.23" y="169.88" width="14.22" height="7.11" transform="translate(-28.72 317.83) rotate(-89.36)"/></clipPath><clipPath id="m" transform="translate(5 5)"><path class="b" d="M309.34,253.25l-8.91-.1,0.16-14.22,8.91,0.1a28.67,28.67,0,0,0,4.16-.26l1.9,14.09A43.23,43.23,0,0,1,309.34,253.25Zm22.12-5.9-7.22-12.25a28.43,28.43,0,0,0,8.36-7.5L344,236.13A42.57,42.57,0,0,1,331.46,247.35Zm19.73-26.44-13.79-3.43a28.79,28.79,0,0,0,.51-11.22L352,204.12A43.08,43.08,0,0,1,351.19,220.92Zm-89.83-39.31-14.11-.16,0.16-14.22,14.11,0.16Zm-28.23-.31L219,181.14l0.16-14.22,14.11,0.16ZM204.92,181l-14.11-.16L191,166.6l14.11,0.16Zm-28.22-.31-14.11-.16,0.16-14.22,14.11,0.16Z"/></clipPath><clipPath id="o" transform="translate(5 5)"><rect class="a" x="276.52" y="242.18" width="14.22" height="7.11" transform="translate(34.74 526.6) rotate(-89.36)"/></clipPath><clipPath id="q" transform="translate(5 5)"><path class="b" d="M70.5,81.34a39.37,39.37,0,1,0,38.91,39.81A39.36,39.36,0,0,0,70.5,81.34ZM70.29,100a12.94,12.94,0,1,1-13.07,12.79A12.94,12.94,0,0,1,70.29,100Zm22.13,45a32.92,32.92,0,0,1-45.25-.5v-1.05a12.94,12.94,0,0,1,13.08-12.79l19.39,0.22A12.93,12.93,0,0,1,92.43,144V145Z"/></clipPath><clipPath id="s" transform="translate(5 5)"><path class="b" d="M312.56,131.95a39.37,39.37,0,1,0,38.91,39.81A39.36,39.36,0,0,0,312.56,131.95Zm-0.21,18.65a12.94,12.94,0,1,1-13.07,12.79A12.94,12.94,0,0,1,312.35,150.6Zm22.13,45a32.92,32.92,0,0,1-45.25-.5v-1.05a12.94,12.94,0,0,1,13.08-12.79l19.39,0.22a12.93,12.93,0,0,1,12.78,13.08v1.05Z"/></clipPath><clipPath id="u" transform="translate(5 5)"><path class="b" d="M204.14,146.24A73.12,73.12,0,1,1,278,73.94a73.19,73.19,0,0,1-73.89,72.3m1.47-132a58.9,58.9,0,1,0,58.21,59.56,59,59,0,0,0-58.21-59.56"/></clipPath><clipPath id="w" transform="translate(5 5)"><path class="b" d="M205.86,28.92A44.65,44.65,0,0,0,160.78,73a44,44,0,0,0,7.71,25.54,23.93,23.93,0,0,1,17-14.28,26.35,26.35,0,1,1,39.48.44,23.92,23.92,0,0,1,16.69,14.65A44,44,0,0,0,249.94,74a44.65,44.65,0,0,0-44.08-45.1"/></clipPath><clipPath id="y" transform="translate(5 5)"><path class="b" d="M191.38,83.15a23.78,23.78,0,0,0-5.32.54,26.22,26.22,0,0,0,39.48.44,23.83,23.83,0,0,0-5.3-.66Z"/></clipPath><clipPath id="aa" transform="translate(5 5)"><path class="b" d="M205.48,39.77A26.32,26.32,0,0,0,185.25,83.3a23.89,23.89,0,0,1,5.32-.54l28.86,0.32a23.75,23.75,0,0,1,5.3.66,26.32,26.32,0,0,0-19.25-44m-0.43,38.5a12.14,12.14,0,1,1,12.27-12,12.15,12.15,0,0,1-12.27,12"/></clipPath><clipPath id="ac" transform="translate(5 5)"><path class="b" d="M245.94,130.53l-14.21-.16L232,108.16a12.15,12.15,0,0,0-12-12.28l-28.86-.32a12.15,12.15,0,0,0-12.27,12l-0.25,22.21-14.21-.16,0.25-22.21a26.39,26.39,0,0,1,26.64-26.07l28.86,0.32a26.39,26.39,0,0,1,26.05,26.66Z"/></clipPath><clipPath id="ae" transform="translate(5 5)"><path class="b" d="M275.83,206.05H11.51A11.52,11.52,0,0,0,0,217.57V326.39a11.53,11.53,0,0,0,11.51,11.52H275.83a11.53,11.53,0,0,0,11.51-11.52V217.57A11.52,11.52,0,0,0,275.83,206.05ZM14.21,323.69H273.12V220.27H14.21V323.69Z"/></clipPath><clipPath id="ag" transform="translate(5 5)"><rect class="a" x="28.9" y="236.78" width="20.72" height="14.22"/></clipPath><clipPath id="ai" transform="translate(5 5)"><rect class="a" x="65.03" y="236.78" width="20.72" height="14.22"/></clipPath><clipPath id="ak" transform="translate(5 5)"><rect class="a" x="99.35" y="236.78" width="20.71" height="14.22"/></clipPath><clipPath id="am" transform="translate(5 5)"><rect class="a" x="133.68" y="236.78" width="20.71" height="14.22"/></clipPath><clipPath id="ao" transform="translate(5 5)"><rect class="a" x="168" y="236.78" width="20.71" height="14.22"/></clipPath><clipPath id="aq" transform="translate(5 5)"><rect class="a" x="202.32" y="236.78" width="20.7" height="14.22"/></clipPath><clipPath id="as" transform="translate(5 5)"><rect class="a" x="238.45" y="236.78" width="20.71" height="14.22"/></clipPath><clipPath id="au" transform="translate(5 5)"><rect class="a" x="28.9" y="265.7" width="20.72" height="14.22"/></clipPath><clipPath id="aw" transform="translate(5 5)"><rect class="a" x="65.03" y="265.7" width="20.72" height="14.22"/></clipPath><clipPath id="ay" transform="translate(5 5)"><rect class="a" x="99.35" y="265.7" width="20.71" height="14.22"/></clipPath><clipPath id="ba" transform="translate(5 5)"><rect class="a" x="133.68" y="265.7" width="20.71" height="14.22"/></clipPath><clipPath id="bc" transform="translate(5 5)"><rect class="a" x="168" y="265.7" width="20.71" height="14.22"/></clipPath><clipPath id="be" transform="translate(5 5)"><rect class="a" x="202.32" y="265.7" width="20.7" height="14.22"/></clipPath><clipPath id="bg" transform="translate(5 5)"><rect class="a" x="238.45" y="265.7" width="20.71" height="14.22"/></clipPath><clipPath id="bi" transform="translate(5 5)"><rect class="a" x="28.9" y="294.62" width="20.72" height="14.22"/></clipPath><clipPath id="bk" transform="translate(5 5)"><rect class="a" x="65.03" y="294.62" width="20.72" height="14.22"/></clipPath><clipPath id="bm" transform="translate(5 5)"><rect class="a" x="99.35" y="294.62" width="125" height="14.22"/></clipPath><clipPath id="bo" transform="translate(5 5)"><rect class="a" x="238.45" y="294.62" width="20.71" height="14.22"/></clipPath></defs><title>img-cover-xl-onefaculty-connect</title><g class="c"><g class="d"><rect class="e" x="11" y="218" width="272" height="118"/></g></g><g class="c"><g class="d"><rect class="f" x="11" y="218" width="272" height="118"/></g></g><g class="g"><g class="d"><rect class="h" x="133.68" y="59.65" width="17.27" height="24.3"/></g></g><g class="i"><g class="d"><rect class="j" x="9.03" y="59.65" width="153.83" height="130.64"/></g></g><g class="k"><g class="d"><rect class="h" x="166.19" y="166.29" width="17.27" height="24.3"/></g></g><g class="l"><g class="d"><rect class="h" x="142.71" y="166.29" width="17.27" height="24.3"/></g></g><g class="m"><g class="d"><rect class="j" x="162.58" y="166.29" width="199.87" height="96.97"/></g></g><g class="n"><g class="d"><rect class="h" x="280" y="238.59" width="17.27" height="24.3"/></g></g><g class="o"><g class="d"><rect class="e" x="30.71" y="81.34" width="88.7" height="88.75"/></g></g><g class="p"><g class="d"><rect class="e" x="272.77" y="131.95" width="88.7" height="88.75"/></g></g><g class="q"><g class="d"><rect class="j" x="131.87" width="156.16" height="156.25"/></g></g><g class="r"><g class="d"><rect class="e" x="160.77" y="28.92" width="99.17" height="80.47"/></g></g><g class="s"><g class="d"><rect class="j" x="186.06" y="83.14" width="49.48" height="19.73"/></g></g><g class="t"><g class="d"><rect class="j" x="178.84" y="39.76" width="62.7" height="53.98"/></g></g><g class="u"><g class="d"><rect class="j" x="164.39" y="81.34" width="91.8" height="59.19"/></g></g><g class="v"><g class="d"><rect class="j" y="206.05" width="297.34" height="141.85"/></g></g><g class="w"><g class="d"><rect class="x" x="28.9" y="236.78" width="30.72" height="24.22"/></g></g><g class="y"><g class="d"><rect class="x" x="65.03" y="236.78" width="30.72" height="24.22"/></g></g><g class="z"><g class="d"><rect class="x" x="99.35" y="236.78" width="30.71" height="24.22"/></g></g><g class="aa"><g class="d"><rect class="x" x="133.68" y="236.78" width="30.71" height="24.22"/></g></g><g class="ab"><g class="d"><rect class="x" x="168" y="236.78" width="30.71" height="24.22"/></g></g><g class="ac"><g class="d"><rect class="x" x="202.32" y="236.78" width="30.7" height="24.22"/></g></g><g class="ad"><g class="d"><rect class="x" x="238.45" y="236.78" width="30.71" height="24.22"/></g></g><g class="ae"><g class="d"><rect class="x" x="28.9" y="265.7" width="30.72" height="24.22"/></g></g><g class="af"><g class="d"><rect class="x" x="65.03" y="265.7" width="30.72" height="24.22"/></g></g><g class="ag"><g class="d"><rect class="x" x="99.35" y="265.7" width="30.71" height="24.22"/></g></g><g class="ah"><g class="d"><rect class="x" x="133.68" y="265.7" width="30.71" height="24.22"/></g></g><g class="ai"><g class="d"><rect class="x" x="168" y="265.7" width="30.71" height="24.22"/></g></g><g class="aj"><g class="d"><rect class="x" x="202.32" y="265.7" width="30.7" height="24.22"/></g></g><g class="ak"><g class="d"><rect class="x" x="238.45" y="265.7" width="30.71" height="24.22"/></g></g><g class="al"><g class="d"><rect class="x" x="28.9" y="294.62" width="30.72" height="24.22"/></g></g><g class="am"><g class="d"><rect class="x" x="65.03" y="294.62" width="30.72" height="24.22"/></g></g><g class="an"><g class="d"><rect class="x" x="99.35" y="294.62" width="135" height="24.22"/></g></g><g class="ao"><g class="d"><rect class="x" x="238.45" y="294.62" width="30.71" height="24.22"/></g></g></svg>