<svg xmlns="http://www.w3.org/2000/svg" xmlns:xlink="http://www.w3.org/1999/xlink" viewBox="0 0 256 75"><defs><style>.a,.b{fill:none;}.a{clip-rule:evenodd;}.c{clip-path:url(#a);}.d{clip-path:url(#b);}.e{fill:#6dada1;}.f{clip-path:url(#c);}.g{clip-path:url(#e);}.h{fill:#fff;}.i{clip-path:url(#g);}.j{fill:#354262;}.k{clip-path:url(#i);}.l{clip-path:url(#k);}.m{clip-path:url(#m);}.n{clip-path:url(#o);}.o{clip-path:url(#q);}.p{fill:#9eb9d9;}.q{clip-path:url(#s);}.r{clip-path:url(#u);}.s{clip-path:url(#w);}.t{clip-path:url(#y);}.u{clip-path:url(#aa);}.v{clip-path:url(#ac);}.w{clip-path:url(#ae);}.x{clip-path:url(#ag);}.y{clip-path:url(#ai);}.z{clip-path:url(#ak);}.aa{clip-path:url(#am);}.ab{clip-path:url(#ao);}.ac{clip-path:url(#aq);}.ad{clip-path:url(#as);}.ae{clip-path:url(#au);}.af{clip-path:url(#aw);}.ag{clip-path:url(#ay);}.ah{clip-path:url(#ba);}.ai{clip-path:url(#bc);}.aj{clip-path:url(#be);}.ak{clip-path:url(#bg);}.al{clip-path:url(#bi);}.am{clip-path:url(#bk);}.an{clip-path:url(#bm);}.ao{clip-path:url(#bo);}.ap{clip-path:url(#bq);}.aq{clip-path:url(#bs);}.ar{clip-path:url(#bu);}.as{clip-path:url(#bw);}.at{clip-path:url(#by);}.au{clip-path:url(#ca);}.av{clip-path:url(#cc);}.aw{clip-path:url(#ce);}.ax{clip-path:url(#cg);}.ay{clip-path:url(#ci);}</style><clipPath id="a"><path class="a" d="M151.7,22.54V17.69a4.46,4.46,0,0,1,8.91,0v4.85H151.7"/></clipPath><clipPath id="b"><rect class="b" width="256" height="75"/></clipPath><clipPath id="c"><path class="a" d="M161.87,23.79h-11.4V17.7a5.7,5.7,0,0,1,11.4,0v6.09ZM153,21.3h6.43V17.7a3.21,3.21,0,0,0-6.43,0v3.6Z"/></clipPath><clipPath id="e"><path class="a" d="M151.79,17.66V67.49h0v0.75a4.47,4.47,0,0,1-4,4.42H106.36a4.45,4.45,0,0,0,3.94-4.42v-1h0V17.66a4.45,4.45,0,0,1,3.94-4.42h41.48a4.45,4.45,0,0,0-3.94,4.42"/></clipPath><clipPath id="g"><path class="a" d="M148.06,73.91H106.51l-0.15-2.48a3.21,3.21,0,0,0,2.84-3.19l0-50.57a5.69,5.69,0,0,1,5-5.66h41.62L156,14.48a3.21,3.21,0,0,0-2.84,3.19V68.74h0a5.7,5.7,0,0,1-5,5.16h-0.07Zm-30.19-2.49h30a3.21,3.21,0,0,0,2.78-3.18l0-2h0V17.67a5.68,5.68,0,0,1,1-3.18H114.47a3.21,3.21,0,0,0-2.77,3.18v50.8h0a5.67,5.67,0,0,1-1,2.95h7.15Z"/></clipPath><clipPath id="i"><path class="a" d="M143.71,66v2.24a4.45,4.45,0,0,0,3.94,4.42H106.17a4.45,4.45,0,0,1-3.94-4.42V66h41.48"/></clipPath><clipPath id="k"><path class="a" d="M106.18,73.91H106a5.69,5.69,0,0,1-5-5.66V64.76h44v3.48a3.21,3.21,0,0,0,2.84,3.19l-0.15,2.48H106.18Zm-2.69-6.66v1a3.21,3.21,0,0,0,2.77,3.18h37.19a5.68,5.68,0,0,1-1-3.18v-1h-39Z"/></clipPath><clipPath id="m"><path class="a" d="M161.87,23.93h-2.49V17.7a3.21,3.21,0,0,0-6.43,0h-2.49a5.7,5.7,0,0,1,11.4,0v6.23"/></clipPath><clipPath id="o"><path class="a" d="M148.07,74a5.7,5.7,0,0,1-5.44-5.67V64.76h2.49v3.61a3.28,3.28,0,0,0,3,3.18V74"/></clipPath><clipPath id="q"><polyline class="a" points="143.14 61.44 140 59.27 136.86 61.44 136.86 52.81 143.14 52.81 143.14 61.44"/></clipPath><clipPath id="s"><path class="a" d="M146.71,51.87a8.45,8.45,0,0,1-.63.9,10.2,10.2,0,0,1,.32,1.05,8.93,8.93,0,0,1-.88.66,9.74,9.74,0,0,1,0,1.1,9.52,9.52,0,0,1-1,.36,9.49,9.49,0,0,1-.36,1,9.9,9.9,0,0,1-1.1,0,8.83,8.83,0,0,1-.66.88,10.14,10.14,0,0,1-1.05-.32,8.52,8.52,0,0,1-.9.63,8.51,8.51,0,0,1-.9-0.63,10.14,10.14,0,0,1-1.05.32,8.77,8.77,0,0,1-.66-0.88,9.77,9.77,0,0,1-1.1,0,9.66,9.66,0,0,1-.36-1,9.4,9.4,0,0,1-1-.36,9.77,9.77,0,0,1,0-1.1,8.75,8.75,0,0,1-.88-0.66,10.24,10.24,0,0,1,.33-1.05,8.42,8.42,0,0,1-.63-0.9,8.49,8.49,0,0,1,.63-0.9,10,10,0,0,1-.33-1.05,9,9,0,0,1,.88-0.66,9.9,9.9,0,0,1,0-1.1,9.54,9.54,0,0,1,1-.36,9.41,9.41,0,0,1,.36-1,9.76,9.76,0,0,1,1.1,0,9,9,0,0,1,.66-0.88,10,10,0,0,1,1.05.33,8.42,8.42,0,0,1,.9-0.63,8.42,8.42,0,0,1,.9.63,10,10,0,0,1,1.05-.33,8.84,8.84,0,0,1,.66.88,9.76,9.76,0,0,1,1.1,0,9.5,9.5,0,0,1,.36,1,9.44,9.44,0,0,1,1,.36,9.76,9.76,0,0,1,0,1.1,9,9,0,0,1,.88.66,10.15,10.15,0,0,1-.33,1.05,8.58,8.58,0,0,1,.63.9"/></clipPath><clipPath id="u"><path class="a" d="M143.27,52a2.79,2.79,0,1,1-2.79-2.79A2.79,2.79,0,0,1,143.27,52"/></clipPath><clipPath id="w"><rect class="b" x="122.85" y="20.66" width="16.03" height="2.49"/></clipPath><clipPath id="y"><rect class="b" x="117.08" y="27.25" width="27" height="2.49"/></clipPath><clipPath id="aa"><rect class="b" x="117.08" y="33.02" width="27" height="2.49"/></clipPath><clipPath id="ac"><rect class="b" x="117.08" y="39.21" width="27" height="2.49"/></clipPath><clipPath id="ae"><rect class="b" x="117.08" y="45.39" width="16.05" height="2.49"/></clipPath><clipPath id="ag"><rect class="b" x="117.08" y="51.57" width="10.66" height="2.49"/></clipPath><clipPath id="ai"><path class="a" d="M237.53,60.84V58a14.71,14.71,0,0,0,0-29.42V25.68a17.58,17.58,0,0,1,0,35.16"/></clipPath><clipPath id="ak"><rect class="b" x="238.96" y="55.16" width="5.38" height="6.82"/></clipPath><clipPath id="am"><polyline class="a" points="245.78 61.99 242.91 61.99 242.91 56.61 240.4 56.61 240.4 61.99 237.53 61.99 237.53 53.74 245.78 53.74 245.78 61.99"/></clipPath><clipPath id="ao"><path class="a" d="M225.64,46.88h11.24V0H225.64V46.88ZM228.51,44H234V2.87h-5.5V44Z"/></clipPath><clipPath id="aq"><rect class="b" x="224.22" y="11.41" width="14.11" height="29.66"/></clipPath><clipPath id="as"><rect class="b" x="224.22" y="9.99" width="14.11" height="2.87"/></clipPath><clipPath id="au"><rect class="b" x="224.22" y="5.71" width="14.11" height="2.87"/></clipPath><clipPath id="aw"><rect class="b" x="218.51" y="53.74" width="26.07" height="2.87"/></clipPath><clipPath id="ay"><path class="a" d="M254,70.44H209v-6a3.59,3.59,0,0,1,3.59-3.59h37.79A3.59,3.59,0,0,1,254,64.46v6Zm-42.09-2.87h39.22V64.46a0.72,0.72,0,0,0-.72-0.72H212.59a0.72,0.72,0,0,0-.72.72v3.11Z"/></clipPath><clipPath id="ba"><path class="a" d="M244.5,27.5a6.58,6.58,0,1,1-6.58-6.58,6.58,6.58,0,0,1,6.58,6.58"/></clipPath><clipPath id="bc"><path class="a" d="M237.94,35.52a8,8,0,1,1,8-8A8,8,0,0,1,237.94,35.52Zm0-13.15a5.14,5.14,0,1,0,5.14,5.14A5.15,5.15,0,0,0,237.94,22.37Z"/></clipPath><clipPath id="be"><path class="a" d="M240.89,26.88a2.63,2.63,0,1,1-2.63-2.63,2.63,2.63,0,0,1,2.63,2.63"/></clipPath><clipPath id="bg"><path class="a" d="M31.85,66.81h-21a2.07,2.07,0,0,1-2.07-2.07V15.33a2.07,2.07,0,0,1,2.07-2.07H45.71a2.07,2.07,0,0,1,2.07,2.07V44.61"/></clipPath><clipPath id="bi"><path class="a" d="M31.85,68.06h-21a3.33,3.33,0,0,1-3.33-3.32V15.33A3.33,3.33,0,0,1,10.88,12H45.71A3.33,3.33,0,0,1,49,15.33V44.61H46.52V15.33a0.81,0.81,0,0,0-.81-0.81H10.88a0.81,0.81,0,0,0-.81.81V64.74a0.81,0.81,0,0,0,.81.81h21v2.51"/></clipPath><clipPath id="bk"><rect class="b" x="11.95" y="19.53" width="33.05" height="42.96"/></clipPath><clipPath id="bm"><line class="b" x1="30.18" y1="17.02" x2="27.04" y2="17.02"/></clipPath><clipPath id="bo"><rect class="b" x="27.04" y="15.77" width="3.13" height="2.51"/></clipPath><clipPath id="bq"><path class="a" d="M54.44,74.74V71.55a6.56,6.56,0,0,0,2.65-5.27V54.85L57,52.32a2.45,2.45,0,0,0-2.46-2.45c-1.36,0-2.46.48-2.46,1.84V51.1a2.45,2.45,0,0,0-4.91,0V49.87a2.45,2.45,0,0,0-4.91,0v1.38c0-3.32,0-14.12,0-14.12a2.54,2.54,0,0,0-5.08,0V61.9l-0.05-1.21V55.63a3.74,3.74,0,0,0-3.75-3.74H32.08V62.8l7.11,8.43a13.85,13.85,0,0,0,3,1.44v2.06"/></clipPath><clipPath id="bs"><path class="a" d="M55.77,74.74H53.26V70.93l0.51-.38a5.29,5.29,0,0,0,2.15-4.27V54.85l-0.12-2.47a1.21,1.21,0,0,0-1.2-1.26c-1.19,0-1.2.38-1.2,0.58H50.88V51.1a1.2,1.2,0,0,0-2.39,0H46V49.87a1.2,1.2,0,0,0-2.39,0v1.38H41.06c0-3.32,0-14.11,0-14.11a1.28,1.28,0,0,0-2.56,0V61.9L35.95,62,35.9,60.75V55.63a2.49,2.49,0,0,0-2.48-2.49v3.33l0.15,1-0.15,0v4.85l6.69,7.93a11.53,11.53,0,0,0,2.44,1.18l1,0.23v3H41V73.56a18.49,18.49,0,0,1-2.39-1.27l-0.16-.1L30.9,63.26V56.67l-0.08-1,0.08,0V53H30.83l0.07-1.43V50.73h0V50.63H33.4a5,5,0,0,1,2.55.7V37.13a3.8,3.8,0,0,1,7.6,0s0,5,0,9.23a3.72,3.72,0,0,1,4.32,1.49,3.71,3.71,0,0,1,4.82,1.09,4.91,4.91,0,0,1,1.89-.33,3.71,3.71,0,0,1,3.71,3.71l0.12,2.46v11.5a7.76,7.76,0,0,1-2.65,5.87v2.58"/></clipPath><clipPath id="bu"><path class="a" d="M6.84,42.19l0-.06,8.35,0.13c0,0.06,0,.12,0,0.18l0,1.39A4.17,4.17,0,0,1,11,47.91l-0.91,0L8.76,51.75c2.62,1.93,4.4,5.61,4.4,9.84a13.1,13.1,0,0,1-2.72,8.23H3.14V50.54l3.7-8.35"/></clipPath><clipPath id="bw"><path class="a" d="M11,71.09H1.89V50.29l4.18-9.41L16.41,41l0.06,1.17a2.63,2.63,0,0,1,0,.28l0,1.37A5.44,5.44,0,0,1,11,49.18H11l-0.72,2.16a13.86,13.86,0,0,1,4.18,10.27,14.29,14.29,0,0,1-3,9ZM4.4,68.58H9.81a12.17,12.17,0,0,0,2.08-7c0-3.69-1.49-7.07-3.88-8.83l-0.74-.54,1.88-5.62L11,46.67a2.93,2.93,0,0,0,2.94-2.86v-0.3l-6.27-.09L4.4,50.82V68.58Z"/></clipPath><clipPath id="by"><rect class="b" y="67.87" width="19.43" height="6.59"/></clipPath><clipPath id="ca"><path class="a" d="M14.47,33.34H27V22H14.47v11.3ZM17,30.83h7.55V24.55H17v6.28Z"/></clipPath><clipPath id="cc"><rect class="b" x="13.84" y="35.85" width="19.13" height="2.51"/></clipPath><clipPath id="ce"><rect class="b" x="18.24" y="40.88" width="14.73" height="2.51"/></clipPath><clipPath id="cg"><rect class="b" x="18.24" y="45.9" width="14.73" height="2.51"/></clipPath><clipPath id="ci"><rect class="b" x="13.84" y="50.92" width="14.26" height="2.51"/></clipPath></defs><title>img-cover-xs-onefaculty-homepage</title><g class="c"><g class="d"><rect class="e" x="146.7" y="8.24" width="18.91" height="19.3"/></g></g><g class="f"><g class="d"><rect class="e" x="145.46" y="7" width="21.4" height="21.79"/></g></g><g class="g"><g class="d"><rect class="h" x="101.36" y="8.24" width="59.37" height="69.42"/></g></g><g class="i"><g class="d"><rect class="j" x="101.36" y="7" width="59.66" height="71.91"/></g></g><g class="k"><g class="d"><rect class="e" x="97.24" y="61" width="55.42" height="16.66"/></g></g><g class="l"><g class="d"><rect class="e" x="96" y="59.76" width="56.8" height="19.15"/></g></g><g class="m"><g class="d"><rect class="j" x="145.46" y="7" width="21.4" height="21.93"/></g></g><g class="n"><g class="d"><rect class="j" x="137.63" y="59.76" width="15.44" height="19.28"/></g></g><g class="o"><g class="d"><rect class="p" x="131.86" y="47.81" width="16.28" height="18.63"/></g></g><g class="q"><g class="d"><rect class="e" x="129.07" y="40.55" width="22.64" height="22.64"/></g></g><g class="r"><g class="d"><rect class="h" x="132.7" y="44.17" width="15.57" height="15.57"/></g></g><g class="s"><g class="d"><rect class="p" x="117.85" y="15.66" width="26.03" height="12.49"/></g></g><g class="t"><g class="d"><rect class="j" x="112.08" y="22.25" width="37" height="12.49"/></g></g><g class="u"><g class="d"><rect class="j" x="112.08" y="28.02" width="37" height="12.49"/></g></g><g class="v"><g class="d"><rect class="j" x="112.08" y="34.21" width="37" height="12.49"/></g></g><g class="w"><g class="d"><rect class="j" x="112.08" y="40.39" width="26.05" height="12.49"/></g></g><g class="x"><g class="d"><rect class="p" x="112.08" y="46.57" width="20.66" height="12.49"/></g></g><g class="y"><g class="d"><rect class="j" x="232.53" y="20.68" width="27.58" height="45.16"/></g></g><g class="z"><g class="d"><rect class="h" x="233.96" y="50.16" width="15.38" height="16.82"/></g></g><g class="aa"><g class="d"><rect class="j" x="232.53" y="48.74" width="18.25" height="18.25"/></g></g><g class="ab"><g class="d"><rect class="j" x="220.64" y="-5" width="21.24" height="56.88"/></g></g><g class="ac"><g class="d"><rect class="e" x="219.22" y="6.41" width="24.11" height="39.66"/></g></g><g class="ad"><g class="d"><rect class="j" x="219.22" y="4.99" width="24.11" height="12.87"/></g></g><g class="ae"><g class="d"><rect class="j" x="219.22" y="0.71" width="24.11" height="12.87"/></g></g><g class="af"><g class="d"><rect class="j" x="213.51" y="48.74" width="36.07" height="12.87"/></g></g><g class="ag"><g class="d"><rect class="j" x="204" y="55.87" width="54.96" height="19.57"/></g></g><g class="ah"><g class="d"><rect class="h" x="226.35" y="15.92" width="23.15" height="23.15"/></g></g><g class="ai"><g class="d"><rect class="j" x="224.92" y="14.5" width="26.02" height="26.02"/></g></g><g class="aj"><g class="d"><rect class="p" x="230.63" y="19.25" width="15.26" height="15.26"/></g></g><g class="ak"><g class="d"><rect class="h" x="3.81" y="8.26" width="48.97" height="63.55"/></g></g><g class="al"><g class="d"><rect class="j" x="2.55" y="7" width="51.49" height="66.06"/></g></g><g class="am"><g class="d"><rect class="p" x="6.95" y="14.53" width="43.05" height="52.96"/></g></g><g class="an"><g class="d"><rect class="h" x="22.04" y="12.02" width="13.13" height="10"/></g></g><g class="ao"><g class="d"><rect class="j" x="22.04" y="10.77" width="13.13" height="12.51"/></g></g><g class="ap"><g class="d"><rect class="h" x="27.08" y="29.6" width="35.02" height="50.14"/></g></g><g class="aq"><g class="d"><rect class="j" x="25.82" y="28.34" width="37.61" height="51.39"/></g></g><g class="ar"><g class="d"><rect class="h" x="-1.86" y="37.13" width="22.08" height="37.69"/></g></g><g class="as"><g class="d"><rect class="j" x="-3.11" y="35.88" width="24.6" height="40.22"/></g></g><g class="at"><g class="d"><rect class="e" x="-5" y="62.87" width="29.43" height="16.59"/></g></g><g class="au"><g class="d"><rect class="j" x="9.47" y="17.04" width="22.58" height="21.3"/></g></g><g class="av"><g class="d"><rect class="j" x="8.84" y="30.85" width="29.13" height="12.51"/></g></g><g class="aw"><g class="d"><rect class="j" x="13.24" y="35.88" width="24.73" height="12.51"/></g></g><g class="ax"><g class="d"><rect class="j" x="13.24" y="40.9" width="24.73" height="12.51"/></g></g><g class="ay"><g class="d"><rect class="j" x="8.84" y="45.92" width="24.26" height="12.51"/></g></g></svg>