<svg xmlns="http://www.w3.org/2000/svg" viewBox="0 0 204.21 153.27"><defs><style>.a{fill:#f2f2f2;}</style></defs><title>logo-onefaculty-icon-white</title><circle class="a" cx="18.85" cy="82.82" r="6.4"/><rect class="a" x="12.45" y="45.24" width="12.8" height="39.51"/><circle class="a" cx="18.96" cy="44.81" r="6.4"/><circle class="a" cx="108.34" cy="6.4" r="6.4"/><polygon class="a" points="16 39.13 107.07 0 108.34 12.8 23.17 51.12 16 39.13"/><circle class="a" cx="197.81" cy="44.81" r="6.4"/><circle class="a" cx="108.42" cy="6.4" r="6.4"/><polygon class="a" points="200.76 39.13 109.7 0 108.42 12.8 193.59 51.12 200.76 39.13"/><path class="a" d="M108,121.66l-46.69-21a6.69,6.69,0,0,0-3.82-1.72,6.8,6.8,0,0,0-.7,0,6.72,6.72,0,0,0-6.72,6.72c0,3.29,2.47,5.2,5.5,6.6h0c0,0.08,49.56,21.55,49.56,21.55a6.36,6.36,0,0,0,.69.3l0.92,0.26h0A6.4,6.4,0,1,0,108,121.66Z"/><circle class="a" cx="197.81" cy="44.73" r="6.4"/><circle class="a" cx="108.42" cy="83.13" r="6.4"/><polygon class="a" points="199.88 50.78 109.7 89.53 108.42 76.73 193.59 38.41 199.88 50.78"/><path class="a" d="M16.84,50.76L16,50.4A6.35,6.35,0,0,0,16.84,50.76Z"/><path class="a" d="M106.16,89.14l-0.69-.3A6.35,6.35,0,0,0,106.16,89.14Z"/><path class="a" d="M107.07,89.53V89.41a6.33,6.33,0,0,1-.92-0.26Z"/><path class="a" d="M58.2,54.17l2.59,1.16A6.68,6.68,0,0,0,58.2,54.17Z"/><path class="a" d="M55.33,67.3l-2.27-1A6.69,6.69,0,0,0,55.33,67.3Z"/><path class="a" d="M108.34,76.73L60.79,55.34,58.2,54.17a6.72,6.72,0,0,0-5.14,12.15l2.27,1,50.14,21.55,0.69,0.3a6.33,6.33,0,0,0,.92.26A6.4,6.4,0,1,0,108.34,76.73Z"/><path class="a" d="M110.6,133.43a6.35,6.35,0,0,0,.69-0.3Z"/><path class="a" d="M109.7,133.82l0.91-.39a6.33,6.33,0,0,1-.92.26v0.13Z"/><path class="a" d="M165.91,105V84s0-.07,0-0.1a6.4,6.4,0,0,0-12.8,0v17.7l-44.69,20.1a6.4,6.4,0,1,0,1.26,12.68,6.33,6.33,0,0,0,.92-0.26l0.69-.3,49.27-21.17c3.2-1.38,5.35-3.42,5.35-6.31C165.91,105.58,165.91,105,165.91,105Z"/><polygon class="a" points="63.32 106.66 50.1 105.39 50.1 60.26 63.32 60.26 63.32 106.66"/><path class="a" d="M18.69,77C14.25,77,0,89.55,0,115.13c0,32.1,18.75,38.15,18.75,38.15s18.75-5.83,18.75-38.15C37.49,89.55,23.12,77,18.69,77Zm0,12.55s6.34,3.54,8.35,14.37L18.7,109.5l-8.35-5.56C12.36,93.11,18.7,89.56,18.7,89.56Zm0.15,51H18.79s-2.76-1.27-5.36-5.62a27.18,27.18,0,0,1-2.55-5.85q-0.37-1.19-.69-2.55A51.43,51.43,0,0,1,9,114.93a12.15,12.15,0,0,1,.08-1.31c0-.22,0-0.44.08-0.65l9.62,6.26h0.11L28.49,113a14.15,14.15,0,0,1,.16,2C28.65,136.07,18.85,140.56,18.85,140.56Z"/></svg>