<?xml version="1.0" encoding="UTF-8" standalone="no"?>
<svg width="150px" height="50px" viewBox="0 0 150 50" version="1.1" xmlns="http://www.w3.org/2000/svg" xmlns:xlink="http://www.w3.org/1999/xlink">
    <!-- Generator: Sketch 3.7.1 (28215) - http://www.bohemiancoding.com/sketch -->
    <title>OneCampus Login Copy 3@1x</title>
    <desc>Created with Sketch.</desc>
    <defs></defs>
    <g id="Page-1" stroke="none" stroke-width="1" fill="none" fill-rule="evenodd">
        <g id="OneCampus-Login-Copy-3" fill="#FFFFFF">
            <g id="Group-13" transform="translate(6.000000, 4.000000)">
                <text id="Laureate" opacity="0.5" font-family="Gibson-SemiBold, Gibson" font-size="10.0100002" font-weight="500">
                    <tspan x="46.7150259" y="12.2">Laureate</tspan>
                </text>
                <path d="M34.6233423,9.21424626 C34.34901,9.07047549 34.071354,8.92166855 33.7805177,8.76291344 C33.588891,8.65868604 33.4560001,8.56297727 33.3807916,8.48548975 C33.3590001,8.46314125 33.3379112,8.43914774 33.3153885,8.41094745 C33.2925676,8.38221533 33.265347,8.34467373 33.2358685,8.30061731 C33.1636787,8.19272759 33.090019,8.06811867 33.0159135,7.9274699 C32.9368896,7.77900552 32.8760023,7.66507979 32.730292,7.39278032 C32.6500929,7.24256451 32.5855744,7.12215364 32.4404829,6.85169364 L32.4408181,6.85231911 C32.328608,6.64267622 32.2122349,6.44746661 32.0911805,6.26654753 C31.9874074,6.11145567 31.8813304,5.96937485 31.7721907,5.84021423 C31.618157,5.65860274 31.4472019,5.5079439 31.2554341,5.39209056 L30.7269037,6.2811278 L31.2834379,5.4096298 C30.9716418,5.20729115 30.5983952,5.07721841 30.1652127,5.00406975 C29.8312809,4.94768974 29.4840923,4.90447736 29.125566,4.87454052 C28.8275193,4.84965372 28.5201252,4.82169394 28.1680655,4.78784828 C27.9486914,4.76625404 27.7876634,4.73024976 27.6933509,4.69035299 C27.6327387,4.66532296 27.5585504,4.62231256 27.4663603,4.55569039 C27.3309262,4.4577925 27.1873542,4.34702013 27.0346432,4.22251554 C26.8597636,4.07908967 26.6974278,3.94387171 26.5397844,3.8099159 C26.3469634,3.64683886 26.1626562,3.49844199 25.9824603,3.3615065 C25.7823306,3.20902001 25.5803429,3.07422253 25.3782382,2.95855955 C25.1235837,2.81422365 24.8712609,2.71494326 24.6147018,2.6641074 C24.2426648,2.59201567 23.8463201,2.61293628 23.4174104,2.71163943 C23.0865029,2.78842108 22.7497774,2.88200544 22.4050514,2.99281189 C22.0969026,3.09225643 21.7923069,3.18746645 21.4897091,3.27906203 C21.2719579,3.34516779 21.1036704,3.37570194 20.9911818,3.37718419 C20.8858745,3.3783084 20.7218045,3.35137784 20.510037,3.28956229 C20.2147429,3.20370215 19.9133348,3.11155368 19.6035004,3.01241115 C19.2493251,2.89967259 18.9127174,2.8076467 18.5877126,2.73547279 C18.1604021,2.63989949 17.7616906,2.62228396 17.3907568,2.69708301 C17.1895574,2.73927851 16.997923,2.80886338 16.8077313,2.90413903 C16.6501534,2.98283658 16.4911918,3.07682062 16.3324341,3.18476836 C16.1531143,3.30669737 15.9726735,3.44375072 15.7905457,3.59590728 C15.7202374,3.65464799 15.7202374,3.65464799 15.6500408,3.7132934 C15.6165363,3.74128204 15.6165363,3.74128204 15.5830465,3.76925392 C15.4829699,3.85283713 15.4010625,3.92118602 15.3222407,3.98686811 C15.1015011,4.17171385 14.9877349,4.26709828 14.8606894,4.37396611 C14.7389337,4.47656577 14.6238856,4.56430797 14.5152687,4.63816232 C14.4698604,4.66903783 14.4297264,4.69428297 14.3948394,4.71419575 C14.3674048,4.72959357 14.3381146,4.74437736 14.3135351,4.7551885 C14.2735139,4.77188573 14.1886101,4.7949673 14.0753239,4.81363487 C13.9048541,4.84189077 13.7247139,4.86616161 13.5332075,4.88657707 C13.3245639,4.90870643 13.115702,4.9282419 12.9058963,4.94508481 C12.6605604,4.96457331 12.420317,4.99189912 12.1864011,5.02684035 C11.9370945,5.0645299 11.7064082,5.1118751 11.4912226,5.170136 C11.2103505,5.2457395 10.9558871,5.35723084 10.7327839,5.50893055 C10.5107726,5.6598878 10.3132483,5.85508456 10.1359849,6.09024258 C9.99751791,6.27309824 9.86487543,6.4750117 9.73886287,6.69395122 C9.62373955,6.8935569 9.51035023,7.10462811 9.39892139,7.32676077 C9.30358954,7.51641532 9.20564193,7.7062322 9.10433164,7.8980366 C9.01375565,8.06929978 8.92378903,8.22886557 8.8344401,8.37694321 C8.77465379,8.47602682 8.72124561,8.54721923 8.67913121,8.59023525 C8.67230636,8.59670898 8.64698614,8.61920017 8.61704033,8.6435442 C8.59145283,8.66402766 8.55310491,8.69215311 8.50798982,8.72282925 C8.39879029,8.79707979 8.27314318,8.87293465 8.13170546,8.94931296 C7.99988395,9.02070199 7.86789888,9.09232898 7.60099019,9.23722637 C7.44647216,9.32144053 7.30010769,9.40108661 7.0646018,9.52915131 C6.85647432,9.64235629 6.66539719,9.7578985 6.49049428,9.87682424 C6.13294843,10.1199386 5.85456903,10.3764196 5.65754044,10.6652403 L5.63925562,10.6929885 C5.44093684,11.0047027 5.31107456,11.3778189 5.23667826,11.8089529 C5.17840491,12.1456861 5.13521484,12.4987646 5.10668386,12.8685768 C5.08194584,13.1913271 5.05369375,13.5081957 5.02192193,13.8207516 C4.99944828,14.0418366 4.96277969,14.2050654 4.92133776,14.3052319 C4.87785402,14.4099279 4.78536686,14.5594353 4.64205908,14.7429838 C4.44746179,14.9918921 4.24891475,15.2398214 4.04644839,15.4864808 C3.82048067,15.7621192 3.61061226,16.037336 3.41685943,16.3118692 C3.1598607,16.6769635 2.98908257,17.0412627 2.91669776,17.4152505 C2.86656731,17.6766827 2.86335082,17.9504629 2.90053042,18.2388461 C2.93007264,18.4661417 2.97595251,18.7015256 3.03787543,18.9472103 C3.09733963,19.1815321 3.1650901,19.4158027 3.2418647,19.6518763 C3.30949489,19.8607509 3.37420987,20.0669925 3.43578615,20.2697748 C3.49217572,20.4548429 3.54033854,20.6305833 3.5808606,20.7981025 C3.60696355,20.9070953 3.61872093,20.9930276 3.61895698,21.0502276 C3.61918255,21.1109195 3.60800728,21.2005989 3.58207675,21.3158654 C3.54504065,21.4799116 3.49874212,21.6544512 3.44322297,21.8383014 C3.38096041,22.0460907 3.31712265,22.2531899 3.25098063,22.4619018 C3.17584254,22.6990009 3.11028288,22.9337425 3.05407151,23.1665549 C2.99535282,23.4067288 2.95106454,23.6421864 2.92227396,23.8691829 C2.88588655,24.1580752 2.88797571,24.4281116 2.93621445,24.6840982 L3.94631641,24.4906668 L2.92976677,24.6460266 C2.96369563,24.8716281 3.03868335,25.090443 3.14858651,25.3026854 C3.22720322,25.4538307 3.31795385,25.605479 3.42166069,25.7604717 C3.54361195,25.9427313 3.6798568,26.1251263 3.83031836,26.307752 C3.88162135,26.3702923 3.88162135,26.3702923 3.93432493,26.4345665 C4.00932842,26.5260456 4.04554104,26.5702077 4.08456987,26.6177792 C4.13359289,26.6775324 4.17654781,26.729845 4.21768403,26.779882 C4.36951159,26.964522 4.48830841,27.1085246 4.60170094,27.2452052 C4.7056856,27.3708565 4.79318911,27.4869572 4.86370872,27.5923507 C4.8912031,27.6334418 4.91535998,27.6729179 4.9363476,27.7106021 C4.95370072,27.7417234 4.96896363,27.7723912 4.98296606,27.8040068 C5.02170385,27.8941334 5.06098146,28.0598928 5.08632078,28.2850586 C5.12066987,28.5862617 5.15525077,28.9070415 5.19234827,29.2665878 C5.22990406,29.6307073 5.27750275,29.9776565 5.33536455,30.3074708 C5.41299776,30.7469018 5.54829677,31.1232078 5.75776969,31.4362709 C5.90779764,31.6604918 6.10150373,31.8594775 6.33371142,32.0363534 C6.51915654,32.1763366 6.71658274,32.3072978 6.92873484,32.4313816 C7.13296271,32.5506994 7.3427145,32.6645705 7.55944465,32.773398 C7.74719966,32.8678726 7.93422904,32.9644009 8.12214141,33.0636487 C8.28604778,33.1502175 8.43736077,33.2368984 8.57573435,33.3232619 C8.67252877,33.3836604 8.74372242,33.4385189 8.79045792,33.4847467 L9.51055596,32.7449404 L8.76938799,33.4632896 C8.79399471,33.4890895 8.81684922,33.5152617 8.83866203,33.5427192 C8.86552302,33.5765491 8.89282551,33.6139775 8.92033417,33.6550899 C8.99085934,33.7604918 9.06482535,33.8857135 9.1417131,34.0305668 C9.22572233,34.1891271 9.3153143,34.3571626 9.42572538,34.5634442 C9.47615973,34.6576946 9.52142078,34.7420666 9.60446521,34.8967219 C9.66025628,35.0006183 9.68600588,35.0485804 9.7158401,35.1041933 C9.82635144,35.3112409 9.94285195,35.5065729 10.0647817,35.6888003 C10.1687955,35.8442519 10.2744545,35.9861283 10.3826755,36.114537 C10.5373338,36.2975677 10.7100354,36.4492542 10.9043777,36.5656667 L11.4295975,35.6746379 L10.8633993,36.5397869 C11.1819671,36.7516534 11.5623763,36.8854901 12.0007712,36.9562995 C12.3288799,37.0101316 12.675875,37.0511593 13.0396263,37.0794509 C13.37048,37.1051839 13.6857472,37.1326975 13.9870729,37.1622081 C14.204632,37.1830692 14.3630259,37.2185464 14.4601606,37.2593223 C14.5146673,37.2835233 14.6021622,37.3342131 14.7044795,37.4060708 C14.8371773,37.499217 14.9782772,37.6070698 15.1281845,37.7300903 C15.289977,37.8636189 15.4533064,38.0013465 15.6164571,38.1419289 C15.8045602,38.3044319 15.994501,38.4567638 16.1866199,38.5991864 C16.3895722,38.7495544 16.5891953,38.8807586 16.7873053,38.9934488 C17.0399418,39.1368054 17.2931085,39.2365285 17.5506315,39.2869891 C17.8070529,39.3375172 18.0791241,39.340936 18.3661075,39.303641 C18.5990934,39.2727454 18.8365007,39.2239211 19.0819335,39.157065 C19.3038124,39.09632 19.5273428,39.0295906 19.7538786,38.9563718 C19.9866061,38.8808158 20.183527,38.8183293 20.3675919,38.7619191 C20.5656692,38.7010698 20.740699,38.6517781 20.899269,38.612428 C21.0116893,38.5841085 21.0972272,38.5718381 21.1554601,38.5713251 C21.210352,38.571258 21.2994058,38.5826039 21.4124397,38.6087199 C21.5781215,38.646749 21.7543001,38.6932736 21.941,38.7483267 C22.1301351,38.8043368 22.3296749,38.8671087 22.5412691,38.9370467 C22.7778133,39.015078 23.0112811,39.0835482 23.2425371,39.1428016 C23.4876684,39.2058079 23.7242355,39.2521151 23.9524973,39.2813552 C24.2484883,39.3190074 24.526749,39.312407 24.7889623,39.2529724 L24.5634103,38.2417548 L24.7211217,39.2659536 C24.9427882,39.231267 25.1577998,39.1566833 25.3671991,39.0472314 C25.520201,38.966122 25.6703147,38.8747574 25.8235281,38.7705795 C25.9971404,38.6525313 26.1742669,38.5179297 26.3568563,38.3660407 C26.5116001,38.2364638 26.6668008,38.1070605 26.8251888,37.9755322 C26.8813101,37.928287 27.2009265,37.6606069 27.2939009,37.5819556 C27.4188191,37.4774355 27.5356504,37.3880869 27.640453,37.3168261 C27.6823241,37.2883557 27.7209134,37.2643181 27.7551874,37.2450504 C27.7887492,37.2260712 27.8159137,37.2123772 27.8382519,37.2026805 L27.4316114,36.2507232 L27.8129285,37.2132719 C27.9192942,37.1704517 28.0892429,37.1316928 28.3168684,37.1053824 C28.6149689,37.0713041 28.9297897,37.0394832 29.2595527,37.0100283 C29.6265539,36.9769004 29.9732984,36.9312849 30.3039916,36.8721323 C30.7387612,36.7949079 31.1159896,36.6565985 31.4307322,36.4425883 C31.7418651,36.2310326 32.0066877,35.9327066 32.2412649,35.5544102 C32.4198626,35.2671615 32.592242,34.9593705 32.7588808,34.6308377 C32.9147782,34.3230102 33.0598541,34.043205 33.1984635,33.7835665 C33.3043338,33.5853917 33.4022073,33.4437166 33.4837605,33.3588807 C33.4862227,33.3566785 33.508238,33.3370787 33.5358751,33.3147791 C33.5690983,33.2878202 33.6055669,33.2608294 33.6477319,33.2321592 C33.7519892,33.1612691 33.8761164,33.0867133 34.0215655,33.0079866 C34.1304038,32.949902 34.5199118,32.739065 34.544731,32.7257045 C34.7232144,32.6278758 34.8992873,32.5318762 35.0836109,32.4318712 C35.2946813,32.3164918 35.4874534,32.1995651 35.6654679,32.0785236 C35.8182433,31.9746435 35.9585558,31.8685415 36.0861829,31.759725 C36.270424,31.600425 36.4197986,31.4271323 36.5345122,31.2329488 L35.6511247,30.7026308 L36.5091098,31.2737604 C36.6561653,31.0492643 36.7639955,30.793268 36.8381456,30.5086315 C36.8958328,30.2900259 36.9414559,30.0531809 36.9756436,29.7998257 C37.0066263,29.5668081 37.0312935,29.3297196 37.0498321,29.0865418 C37.0660703,28.8684817 37.0838102,28.6522404 37.1031838,28.4351693 C37.1203685,28.240205 37.1422022,28.0616734 37.1686926,27.8980132 C37.1877265,27.7781322 37.2103631,27.6913714 37.2331445,27.6349391 C37.2711913,27.5440913 37.3615343,27.4010913 37.5025299,27.2270958 C37.7236177,26.9541883 37.9211919,26.7124187 38.1157742,26.4771748 C38.3533,26.1868224 38.5641758,25.9087349 38.7540338,25.6346416 C39.0056451,25.2725202 39.1741187,24.9080964 39.246378,24.5361382 C39.2964804,24.274857 39.2995885,24.0016282 39.2628891,23.7134416 C39.231643,23.4758589 39.183339,23.2363718 39.1173905,22.9906653 C39.0585948,22.7693197 38.9896687,22.5401957 38.9106026,22.3025799 C38.8415804,22.095541 38.7764311,21.8921948 38.7147526,21.6913037 C38.6579126,21.5062302 38.6115888,21.3341835 38.5755932,21.1751168 C38.5476192,21.0516345 38.5337315,20.9509917 38.5315583,20.8734102 L37.5038022,20.9026657 L38.5319676,20.9017967 C38.5319188,20.8430382 38.5430572,20.7585684 38.5688588,20.6512332 C38.6103522,20.473792 38.6572358,20.2965847 38.7113432,20.1132627 C38.7667616,19.9223217 38.8283303,19.7228777 38.8997266,19.5018263 C38.9776604,19.2606682 39.0450091,19.0286221 39.1019214,18.8039169 C39.1638904,18.5594187 39.2095656,18.3225474 39.2384814,18.0931692 C39.275297,17.8008749 39.2708146,17.5233591 39.2179778,17.259793 L39.2135617,17.2388778 C39.137851,16.8976293 38.9748958,16.5544509 38.7343015,16.1948761 C38.6132674,16.0139872 38.4775468,15.8324272 38.3266277,15.648892 C38.2693937,15.5791368 38.2693937,15.5791368 38.2113534,15.5084138 C38.1016536,15.3747586 38.0187513,15.2738961 37.9375216,15.175323 C37.7546605,14.9528943 37.661782,14.8400439 37.5560362,14.7119507 C37.4516552,14.586705 37.3646866,14.4712505 37.292494,14.3633566 C37.2629976,14.3192734 37.2386212,14.2796986 37.2192493,14.2449363 C37.2034341,14.2163175 37.1890048,14.1870893 37.1771086,14.1595846 C37.1593739,14.1165641 37.1353184,14.0278437 37.115436,13.9096478 C37.0859304,13.7354129 37.0613354,13.5546079 37.0418453,13.3671069 C37.020556,13.1649583 37.0013685,12.9549574 36.9838856,12.7336345 C36.9644101,12.484472 36.9374187,12.2425898 36.9027862,12.0076225 C36.8654727,11.7576141 36.8181249,11.5245695 36.7600029,11.306745 C36.6856605,11.0247638 36.5754356,10.7680779 36.4246209,10.5426811 L36.4091857,10.5196128 L36.3925449,10.4974126 C36.1785951,10.2119846 35.8897741,9.96179663 35.5299518,9.73491778 C35.24286,9.55412578 34.9408427,9.38064039 34.6233423,9.21424626 L34.6233423,9.21424626 Z M33.6748219,11.0534753 C33.9448721,11.195002 34.1998724,11.3414798 34.4399891,11.4926897 C34.6015231,11.594542 34.7042665,11.6835423 34.7519207,11.7471172 L35.5722328,11.1222649 L34.7198447,11.7018487 C34.734779,11.7241683 34.7543674,11.7697847 34.7734615,11.8422041 C34.8114082,11.9844353 34.8432192,12.141008 34.8690635,12.3141624 C34.8963692,12.499432 34.9180864,12.6940503 34.9339755,12.8973253 C34.952918,13.1371298 34.973754,13.3651729 34.9968586,13.5845488 C35.020789,13.8147756 35.0514079,14.0398644 35.0882381,14.2573474 C35.1326282,14.521239 35.1973772,14.7600443 35.2861547,14.9739167 C35.3312691,15.0785099 35.3753836,15.1678688 35.4247378,15.2571406 C35.4742964,15.346084 35.5280216,15.4333064 35.5877179,15.5225241 C35.7016805,15.6928444 35.8322037,15.8661196 35.9785663,16.0417132 C36.0800125,16.1646164 36.1722494,16.2766873 36.3550024,16.4989834 C36.4359795,16.597251 36.5181017,16.6971644 36.6270168,16.8298634 C36.684872,16.900361 36.684872,16.900361 36.742793,16.9709525 C36.852441,17.1042982 36.9475563,17.2315385 37.0295254,17.3540436 C37.1379598,17.5161018 37.1942205,17.6345851 37.206808,17.6913202 L38.2101848,17.465099 L37.2023919,17.6704049 C37.2078134,17.6974491 37.2086851,17.7514204 37.1985416,17.8319545 C37.1806758,17.9736765 37.1511477,18.1268089 37.1095486,18.2909382 C37.0640014,18.4707704 37.0091024,18.6599221 36.9444779,18.8598959 C36.866986,19.0998202 36.7993808,19.3188182 36.7390598,19.5266941 C36.6750615,19.743489 36.6179666,19.9592918 36.5688488,20.1694454 C36.5079464,20.4227129 36.4754419,20.669214 36.4756368,20.9035347 L36.4760461,20.9319212 C36.482275,21.154291 36.514488,21.3877358 36.5708189,21.6363902 C36.6187935,21.8483932 36.6786893,22.0708462 36.7503836,22.3042855 C36.8169552,22.521114 36.8871715,22.7402756 36.961214,22.9623729 C37.0269464,23.1599177 37.0835791,23.3481762 37.1317402,23.5294748 C37.1751096,23.6910713 37.2053322,23.8409121 37.22385,23.9816729 C37.2336545,24.0587352 37.2330319,24.1134701 37.2278979,24.1402455 C37.2165314,24.1987386 37.1675805,24.3046239 37.0689061,24.4466379 C36.9108987,24.6747473 36.733139,24.9091637 36.5328499,25.1540184 C36.3369544,25.3908257 36.1350524,25.6378911 35.9099157,25.9157966 C35.6533816,26.2323722 35.4602508,26.5380705 35.3332911,26.8418877 C35.2423066,27.067063 35.1805084,27.3039213 35.138696,27.5673366 C35.1043413,27.7795522 35.0764012,28.0080156 35.055023,28.2505635 C35.0348527,28.4765544 35.0162768,28.7029869 34.9994074,28.9295447 C34.9839528,29.1322481 34.9633277,29.3304858 34.9378066,29.5224395 C34.9149397,29.6918849 34.8854997,29.844718 34.8500826,29.9789433 C34.8292517,30.0588857 34.8086178,30.1078719 34.7931395,30.1315012 L34.7799677,30.1516094 L34.7677372,30.1723129 C34.7732995,30.1628971 34.7697622,30.1670008 34.7527599,30.1817046 C34.6898129,30.2353406 34.6087755,30.2966198 34.5155819,30.359987 C34.3945394,30.4422902 34.2581945,30.5249908 34.1062028,30.6080798 C33.9221582,30.7079275 33.7434354,30.8053718 33.5691495,30.9009339 C33.5466836,30.9129929 33.1618056,31.1213237 33.0540013,31.1788755 C32.8455813,31.2916669 32.662911,31.4013861 32.4978459,31.5136226 C32.4089378,31.5740759 32.32593,31.6355111 32.2486014,31.6982717 C32.1683736,31.7629998 32.0917775,31.831192 32.0207776,31.902296 C31.7808062,32.1516579 31.5774483,32.4460252 31.3878399,32.8009466 C31.2415998,33.0748785 31.089735,33.3677774 30.9277124,33.6876998 C30.7879046,33.9633342 30.6448508,34.2187629 30.498229,34.4545843 C30.4046307,34.6055264 30.3276918,34.692199 30.2808462,34.7240518 C30.2283465,34.7597491 30.1174728,34.8004006 29.9459422,34.8308683 C29.6742149,34.8794727 29.3859395,34.9173964 29.0771061,34.945274 C28.7319951,34.9760994 28.4004888,35.0096068 28.0838884,35.0458009 C27.6868148,35.0916963 27.3443246,35.1698055 27.0502944,35.2881746 L27.0249709,35.298766 C26.9334603,35.3384894 26.8425765,35.3843053 26.7513081,35.4359286 C26.6671255,35.4832493 26.5792796,35.5379692 26.490567,35.5982895 C26.3255456,35.7104963 26.1551275,35.8408262 25.976242,35.9905285 C25.8838308,36.0686843 25.5664485,36.3344933 25.5121483,36.380238 C25.357209,36.508869 25.1998361,36.6400833 25.0454663,36.7693543 C24.9144481,36.878336 24.7897665,36.9730838 24.6736421,37.0520429 C24.5802191,37.1155662 24.493822,37.1681506 24.4152785,37.2097985 C24.4006171,37.2174417 24.3958405,37.2190986 24.405699,37.2175559 L24.3715623,37.2228977 L24.3378583,37.2305372 C24.3265876,37.2330919 24.2836402,37.2341106 24.2108285,37.2248485 C24.0700086,37.2068092 23.9161728,37.1766964 23.7498412,37.1339442 C23.5629458,37.0860569 23.3738128,37.0305889 23.181376,36.9671079 C22.9508059,36.8908977 22.7310308,36.82176 22.5194484,36.7591033 C22.2928883,36.6922957 22.0766182,36.6351839 21.8703928,36.5878501 C21.6150331,36.5288493 21.3732875,36.4980496 21.1447475,36.4984365 C20.9060645,36.5005136 20.6619303,36.5355346 20.4041836,36.6004784 C20.2100704,36.648642 19.9998252,36.7078511 19.768813,36.7788182 C19.5733997,36.838706 19.3661607,36.9044667 19.1247784,36.9828335 C18.9288254,37.0461667 18.7349243,37.104051 18.5442471,37.1562545 C18.3857731,37.1994221 18.2375896,37.2298969 18.1005396,37.2480728 C18.0232567,37.2581126 17.9698818,37.2574419 17.9440553,37.2523528 C17.9169929,37.2470495 17.8671117,37.2274011 17.7969194,37.1875712 C17.6739924,37.1176465 17.5430917,37.0316107 17.4046484,36.9290377 C17.2542803,36.8175659 17.1042765,36.6972634 16.9535584,36.5670583 C16.7783275,36.4160657 16.6038323,36.2689224 16.4285986,36.1243063 C16.2380755,35.9679495 16.0562511,35.8289682 15.8797419,35.7050688 C15.672686,35.559653 15.4697076,35.4420583 15.2673264,35.3528524 C14.9443545,35.2170988 14.5900216,35.137735 14.1838417,35.0987917 C13.8706389,35.0681158 13.5418635,35.0394233 13.197812,35.0126638 C12.8901518,34.9887348 12.6004113,34.9544767 12.3285913,34.9098825 C12.1563386,34.8820571 12.0471482,34.8436414 11.9957958,34.809489 L11.9756085,34.7960633 L11.9548174,34.7836092 C11.9652504,34.7898587 11.9625724,34.7875065 11.9489342,34.7713665 C11.8931124,34.7051303 11.832762,34.6240932 11.7695578,34.5296328 C11.6867574,34.4058853 11.6054575,34.2695728 11.5256474,34.1200488 C11.4945992,34.0621681 11.4686793,34.0138887 11.4128595,33.9099388 C11.330265,33.7561215 11.2853619,33.6724168 11.2354829,33.5792042 C11.1262881,33.3751949 11.0379903,33.2095868 10.955174,33.0532787 C10.846412,32.848375 10.7370012,32.6631464 10.6251103,32.4959224 C10.5663831,32.408153 10.5059355,32.3252867 10.4439,32.2471568 C10.3825596,32.1699425 10.318724,32.0968401 10.2517239,32.0265912 L10.230654,32.0051341 C10.0686182,31.8448585 9.87775195,31.6977859 9.65811366,31.5607344 C9.47695134,31.447665 9.28295321,31.3365316 9.07646746,31.2274741 C8.87686075,31.1220497 8.67786648,31.0193462 8.47704773,30.9182986 C8.29847177,30.8286293 8.1268203,30.7354423 7.96027251,30.6381387 C7.8166465,30.5541344 7.6861727,30.4675856 7.56979,30.379742 C7.5137086,30.3370114 7.47827725,30.3006144 7.46254582,30.2771033 C7.43026414,30.2288575 7.3907451,30.1189435 7.36005692,29.9452394 C7.31117813,29.6666242 7.27027198,29.3684573 7.23765014,29.0521746 C7.19982822,28.6856072 7.16446386,28.3575599 7.12937157,28.0498501 C7.08289072,27.63681 6.99760995,27.2769081 6.86498798,26.9688408 C6.82115827,26.8697398 6.77755727,26.7821324 6.72915846,26.695334 C6.68088126,26.6086499 6.62725853,26.5210221 6.56848485,26.4331832 C6.45664983,26.2660426 6.3273429,26.0944766 6.17990431,25.9163189 C6.06794225,25.7813613 5.95090871,25.6394962 5.80089559,25.4570628 C5.76031473,25.4077012 5.71778775,25.3559099 5.66917597,25.2966579 C5.63034455,25.249327 5.5943223,25.2053971 5.51930652,25.113903 C5.4664744,25.049472 5.4664744,25.049472 5.41353,24.9849345 C5.30450109,24.8525952 5.20930748,24.7251567 5.12643681,24.6013042 C5.06346763,24.507195 5.01159447,24.4205127 4.97062436,24.3417472 C4.96190227,24.3248995 4.96083049,24.321772 4.96286605,24.3353069 L4.95641836,24.2972354 C4.95177629,24.2726015 4.95134378,24.2166967 4.96211445,24.1311836 C4.98056556,23.9857108 5.01026229,23.8278288 5.05137047,23.6596737 C5.09678689,23.4715892 5.14925388,23.283727 5.20978514,23.0927199 C5.27923965,22.8735553 5.34630758,22.655977 5.41107052,22.4398344 C5.47994902,22.2117534 5.53892716,21.9894133 5.58731238,21.7750959 C5.64585374,21.5148691 5.67612722,21.2719304 5.67527243,21.042031 C5.67431692,20.8104758 5.64110608,20.5677445 5.57920264,20.3092935 C5.5284185,20.0993395 5.46952537,19.8844455 5.40176884,19.6620735 C5.33676413,19.447999 5.26823573,19.2296043 5.19628382,19.0073853 C5.13325258,18.8135682 5.0782343,18.6233235 5.03046648,18.4350964 C4.98827933,18.2677095 4.9579927,18.1123258 4.93957373,17.9706143 C4.92940429,17.8917308 4.93003593,17.8379676 4.9353151,17.8104356 C4.94581196,17.7562102 4.99407317,17.6532607 5.09314013,17.5125249 C5.25708982,17.2802219 5.43677143,17.0445914 5.6311402,16.8074975 C5.84368849,16.5485558 6.05248557,16.2878271 6.25751835,16.0255705 C6.50751771,15.7053718 6.69494595,15.4023902 6.81867609,15.1044775 C6.94605977,14.7965896 7.02599798,14.4407477 7.06754148,14.0320627 C7.10105864,13.702337 7.130845,13.3682604 7.15686458,13.028788 C7.18042469,12.7234089 7.21565286,12.4354189 7.26250137,12.1647037 C7.29330588,11.9861892 7.33424324,11.8685692 7.37017898,11.812086 L6.5047173,11.2525373 L7.35189416,11.8398342 C7.38406435,11.7926765 7.47948488,11.7047621 7.6403803,11.5953608 C7.75691819,11.5161205 7.89032756,11.4354493 8.04096316,11.3535154 C8.27690833,11.2252119 8.42374307,11.1453099 8.57735395,11.0615882 C8.84290328,10.9174306 8.97397319,10.8463003 9.10379721,10.7759922 C9.30386248,10.667955 9.48911069,10.5561182 9.65787584,10.4413658 C9.74571268,10.3816409 9.82718683,10.3218854 9.90244147,10.2615526 C9.98663099,10.1931425 10.0604882,10.1275373 10.1292868,10.0598054 C10.3050112,9.88056885 10.4532725,9.68293836 10.5912932,9.45419733 C10.7013125,9.27186262 10.8104373,9.07831779 10.9191445,8.87277122 C11.0270832,8.668418 11.1314263,8.466207 11.2335889,8.26296248 C11.3276397,8.07547364 11.4219699,7.89988051 11.5170317,7.73505753 C11.6013323,7.58859097 11.6863171,7.45922385 11.7718838,7.34622437 C11.8210696,7.28097851 11.8587844,7.24370813 11.8826699,7.2274671 C11.9055917,7.21188139 11.951324,7.19184406 12.0231653,7.17250596 C12.1612091,7.13513212 12.3161066,7.10334153 12.4896005,7.07711205 C12.6749452,7.04942776 12.8685447,7.02740733 13.0682873,7.01154029 C13.2965321,6.99321747 13.522689,6.97206435 13.7489182,6.94806965 C13.9793966,6.92349973 14.198609,6.89396458 14.4080092,6.85925526 C14.669546,6.8161591 14.9069422,6.75162161 15.1207733,6.66164259 C15.2244064,6.61620467 15.3129391,6.57151909 15.402197,6.52134115 C15.4918621,6.47018733 15.5771199,6.41655839 15.6651547,6.35669887 C15.8339333,6.24193741 16.0050823,6.11140945 16.1788429,5.96498623 C16.3036859,5.85997164 16.4166023,5.76529971 16.6343029,5.58299483 C16.7118803,5.51835361 16.794343,5.44954141 16.8949604,5.36550651 C16.9285624,5.33744094 16.9285624,5.33744094 16.9621427,5.30938892 C17.0324394,5.25065993 17.0324394,5.25065993 17.1026886,5.19196864 C17.2342418,5.08206402 17.3608526,4.98589709 17.4823201,4.90330491 C17.5672303,4.84556999 17.6474316,4.79815202 17.7217172,4.76105186 C17.762622,4.74056166 17.7898846,4.73066227 17.8020027,4.72811891 C17.8585447,4.71674964 17.975695,4.72192547 18.1438169,4.75952755 C18.4082191,4.8182446 18.6862587,4.89425843 18.9828445,4.98866447 C19.3083081,5.09280939 19.6271213,5.19027906 19.9391239,5.28099675 C20.3292438,5.39487448 20.6863541,5.4534908 21.0155382,5.44996684 C21.3425599,5.44566082 21.6943076,5.38183961 22.0818817,5.26417774 C22.3955179,5.1692412 22.7119738,5.07032395 23.0308772,4.96740797 C23.3216141,4.87395616 23.6039194,4.79549651 23.8768696,4.73216146 C24.0452475,4.69341512 24.1619823,4.68725341 24.2223408,4.69894791 C24.245956,4.70363646 24.2963372,4.72345975 24.3667595,4.7633716 C24.485222,4.83117716 24.6124519,4.91608468 24.7435876,5.01600128 C24.8951657,5.13119046 25.0517262,5.2572467 25.2162999,5.39643072 C25.381885,5.53713857 25.5532846,5.67990618 25.7392341,5.83240507 C25.9240759,5.9831113 26.0990357,6.11810074 26.268178,6.24036454 C26.4830062,6.3956123 26.6938463,6.51784618 26.9063817,6.60544773 C27.2035076,6.73118745 27.5591088,6.81069638 27.9705454,6.8511915 C28.332794,6.88601931 28.648391,6.9147252 28.9558191,6.94039535 C29.2583875,6.96565972 29.548943,7.00182334 29.8255133,7.04851861 C30.0028894,7.07847093 30.117817,7.11852209 30.1703695,7.1526258 L30.1983733,7.17016503 C30.1886267,7.16427677 30.1929508,7.16808751 30.208026,7.18586142 C30.2640267,7.25213786 30.3241085,7.33261214 30.3864044,7.42571506 C30.4684427,7.5483235 30.5500967,7.68529372 30.6312407,7.83689555 L30.6313698,7.83713676 C30.7761436,8.10700491 30.8402264,8.2266026 30.9200207,8.37605921 C31.0654753,8.64788181 31.125921,8.76098133 31.2019246,8.90375208 C31.3067488,9.10272374 31.4171862,9.28954879 31.5310924,9.45978484 C31.5908366,9.54907418 31.6509805,9.63202228 31.7119905,9.70882051 C31.7778203,9.79125076 31.8438683,9.86639541 31.912703,9.93697619 C32.1449517,10.176267 32.4425444,10.3905949 32.8027315,10.5865012 C33.1019444,10.7498301 33.3897138,10.9040572 33.6748219,11.0534753 L33.6748219,11.0534753 Z M32.7818492,4.65977194 C32.4416254,4.57127199 32.0965022,4.47806775 31.7343277,4.37726341 C31.4840068,4.30799775 31.3004781,4.23119948 31.1849984,4.15667979 C31.1516234,4.13525294 31.1185615,4.11151674 31.0830537,4.08338775 C31.0472262,4.05484867 31.004833,4.01791386 30.9584729,3.97433346 C30.8477766,3.87027421 30.7315502,3.74805627 30.6110325,3.60817119 C30.4866461,3.46502514 30.3905996,3.35486981 30.1608033,3.09159253 C30.0341945,2.94625846 29.9324952,2.82987165 29.7038417,2.5684602 C29.530185,2.36954313 29.3553678,2.18707909 29.1792758,2.02154523 C29.0290246,1.88030275 28.8798088,1.7539328 28.730861,1.64252219 C28.5263522,1.49014095 28.3124289,1.37470112 28.086218,1.30089739 L27.7696224,2.28700179 L28.1174179,1.31163676 C27.7411841,1.17530485 27.3141199,1.12952254 26.8343805,1.15902185 C26.4550974,1.18235388 26.0644121,1.22348029 25.664481,1.28204292 C25.3283009,1.33127036 24.9810944,1.37949083 24.5830757,1.43268719 C24.3223098,1.46693544 24.1219769,1.46867758 23.9925693,1.44622695 C23.9090638,1.43249066 23.8061347,1.40095926 23.6781253,1.34714952 C23.5011705,1.27273973 23.3121293,1.18617721 23.1096176,1.08676361 C22.879101,0.972768366 22.6648499,0.864772134 22.4560441,0.756925153 C22.204111,0.62754708 21.9650985,0.512030524 21.7336554,0.408102499 C21.4791889,0.293444842 21.2275604,0.19858016 20.9809177,0.124534819 C20.6769179,0.0346494155 20.3873999,-0.00803926511 20.1066934,0.00124805698 C19.6989594,0.0164574963 19.2844037,0.136267912 18.8515222,0.347777587 C18.509074,0.515868199 18.1640826,0.704015977 17.8144801,0.913148637 C17.4986388,1.10258285 17.1855143,1.28649868 16.8736823,1.46589932 C16.6396005,1.6008218 16.449953,1.68277387 16.3122818,1.71673088 C16.1815103,1.74864051 15.9803889,1.76193585 15.71833,1.74740116 C15.3692978,1.72841151 15.011796,1.70402332 14.6432329,1.6740605 C14.2275731,1.64090504 13.8364867,1.62594028 13.4634388,1.62972502 C12.9848521,1.63385406 12.5584652,1.71344423 12.1866633,1.88276813 C11.9872909,1.97543371 11.803015,2.09519262 11.6256884,2.24215332 C11.4762622,2.36568527 11.3288696,2.50615206 11.1848606,2.66182932 C11.0207932,2.83919023 10.8590286,3.03350764 10.6989889,3.24490412 C10.6397138,3.32320386 10.6397138,3.32320386 10.5805211,3.4013929 C10.5571101,3.43231471 10.5571101,3.43231471 10.5337063,3.46322369 C10.4342552,3.59456222 10.3561916,3.6975641 10.2804489,3.79735181 C10.0836196,4.05796433 9.9821164,4.1925287 9.86888332,4.34314671 C9.75763533,4.4913924 9.64971975,4.62154283 9.54510251,4.73463663 C9.50040464,4.78295612 9.45993715,4.82369832 9.42366059,4.8572302 C9.39340805,4.88480206 9.36137572,4.9115124 9.33320968,4.93257821 C9.28209874,4.96937991 9.18482245,5.0217232 9.05503692,5.0753381 C8.87148179,5.15136826 8.67614847,5.22543171 8.46730758,5.29807249 C8.24125919,5.37656308 8.01436312,5.45221171 7.7857209,5.52511952 C7.52248546,5.60881579 7.26695643,5.69971784 7.02032845,5.79729416 C6.75933083,5.90108733 6.52117144,6.01053804 6.30299453,6.12764699 C6.02453166,6.27659105 5.78386643,6.45605532 5.58679454,6.66909486 C5.39062799,6.88115572 5.22986187,7.13486188 5.09940357,7.42706719 C4.99504185,7.65945601 4.90161634,7.91116707 4.81945457,8.18001813 C4.74354588,8.42761501 4.67239615,8.68734269 4.60612724,8.95881063 C4.548539,9.19388244 4.48812621,9.42966611 4.42449799,9.66848823 C4.36708704,9.88351997 4.30732776,10.0854329 4.24524989,10.2745369 C4.20110708,10.4090063 4.15582251,10.511066 4.11417919,10.5792401 C4.10447897,10.5941596 4.07967737,10.6290625 4.05016591,10.6669814 C4.02414957,10.6999084 3.98656265,10.7435546 3.94213301,10.7915841 C3.83700513,10.9052299 3.71404326,11.0245828 3.57370661,11.1483318 C3.44631733,11.2609339 3.31868393,11.37395 3.06046702,11.6026592 C2.91121767,11.7352922 2.76964874,11.8609343 2.54184931,12.0629877 C2.3438523,12.238644 2.16523496,12.412266 2.00531536,12.585143 C1.68265499,12.9339467 1.44942114,13.2750989 1.31196901,13.6265722 L1.30034483,13.6577556 C1.16689565,14.0340048 1.11981537,14.461583 1.14577503,14.9398362 C1.1663548,15.3223743 1.20751926,15.7191711 1.26893174,16.1308079 C1.32342111,16.4947942 1.37253625,16.8532564 1.41665757,17.2078599 C1.44932315,17.4703935 1.45016687,17.6733553 1.4272423,17.8094162 C1.40333115,17.950161 1.33508683,18.1505484 1.21831404,18.4006492 C1.06581201,18.726726 0.908721735,19.0526576 0.74696452,19.3781962 C0.568572762,19.737769 0.40773296,20.0927288 0.264426913,20.4427022 C0.0798606292,20.8950099 -0.012549149,21.3224764 0.0013707122,21.7325823 C0.0115613377,22.0182355 0.0741598109,22.3071355 0.18333261,22.6029838 C0.271447939,22.8410108 0.379475328,23.0842722 0.507639278,23.3350634 C0.631113229,23.5757086 0.763743476,23.8144184 0.906713444,24.0528535 C1.0347996,24.2670962 1.15890203,24.4790328 1.27865696,24.6879621 C1.38903978,24.8801153 1.4879935,25.0642669 1.57637492,25.2413814 C1.63742149,25.3644164 1.67589031,25.4662198 1.693266,25.5406752 C1.71144381,25.6187122 1.72283038,25.7309357 1.72338525,25.8748303 C1.72398572,26.069081 1.71688481,26.2771113 1.7018456,26.4977257 C1.68560579,26.7437166 1.66742532,26.9896498 1.64710154,27.2379567 C1.62434554,27.5159793 1.61146418,27.7889064 1.60830703,28.0572748 C1.60427405,28.3329363 1.61471244,28.599162 1.63980078,28.8519233 C1.67132137,29.1667212 1.73864534,29.4505691 1.85040669,29.7065441 L2.7914556,29.2890128 L1.8356286,29.6709105 C1.92427514,29.8963743 2.0544399,30.1058885 2.22012236,30.3009983 C2.34159594,30.4435162 2.47671462,30.5840692 2.62693221,30.72528 C2.80434853,30.8920588 2.9975127,31.0555671 3.20637614,31.215901 C3.27185212,31.2663847 3.27185212,31.2663847 3.33905645,31.318222 C3.40427333,31.3685314 3.40427333,31.3685314 3.46959383,31.4189187 C3.58695855,31.5094459 3.67053201,31.5738521 3.75387593,31.637971 C3.96816188,31.8027916 4.13568646,31.9312194 4.29534965,32.0529191 C4.44569729,32.1678085 4.57529148,32.2765516 4.68347607,32.3782496 C4.72698266,32.4191477 4.76629639,32.4592386 4.80155006,32.4982794 C4.83142534,32.5313303 4.85874275,32.564567 4.88473105,32.5992581 C4.96013167,32.7022264 5.051357,32.887203 5.14053487,33.1414578 C5.25479808,33.4656888 5.37431878,33.811634 5.50641939,34.1997411 C5.6389973,34.5892976 5.77819614,34.957266 5.92424481,35.3036205 C6.1141275,35.7524278 6.34858378,36.1174471 6.64369855,36.3948674 C6.85441811,36.5929526 7.10601169,36.7547784 7.39408226,36.8845282 C7.62880926,36.9890183 7.87501837,37.0810563 8.13574908,37.1620266 C8.38873728,37.2404593 8.6464737,37.3115573 8.91060703,37.3753763 C9.14293277,37.4317158 9.37484343,37.4904881 9.6084,37.5520419 C9.81448518,37.6063556 10.0067227,37.6641573 10.1846325,37.7250828 C10.3159893,37.7700508 10.417695,37.8165453 10.4902384,37.861283 L11.0267927,36.9771436 L10.4649203,37.8451538 C10.5020582,37.8695832 10.5372995,37.8950576 10.5716489,37.922415 C10.6128498,37.9552466 10.6553198,37.9920339 10.6988423,38.0329468 C10.8070395,38.1346568 10.9236394,38.2573492 11.0481675,38.4009952 C11.1810143,38.554473 11.3223822,38.7169333 11.4964286,38.9162961 C11.5741664,39.0053602 11.6461684,39.0876831 11.7699589,39.2290984 C11.8483841,39.3186854 11.8857509,39.3613749 11.9265945,39.4080581 C11.940127,39.423526 11.940127,39.423526 11.9536518,39.4389877 C12.1253568,39.6361321 12.3003026,39.8186551 12.4776828,39.9853998 C12.6283493,40.1270327 12.7771078,40.2533239 12.9248784,40.3641523 C13.1302872,40.517796 13.3461417,40.6338115 13.5751119,40.7075605 L13.8880374,39.7202664 L13.5294086,40.6916366 C13.9148729,40.8362562 14.3498807,40.8841989 14.833946,40.8509573 C15.2063982,40.826309 15.5962807,40.7828465 16.0015636,40.7211453 C16.374453,40.6643757 16.7305966,40.6135858 17.0718752,40.568592 C17.3299229,40.534038 17.527307,40.532395 17.6598757,40.5550177 C17.7380152,40.5699476 17.8560238,40.6060596 17.9951769,40.6623483 C18.1686376,40.732466 18.3549208,40.8167476 18.5546271,40.915582 C18.7683587,41.0221003 18.9845073,41.1327034 19.2011775,41.2465162 C19.447253,41.3761783 19.6925453,41.494147 19.9376519,41.600714 C20.1949674,41.7125054 20.4435384,41.8042246 20.6854373,41.876155 C20.9872959,41.9655702 21.2777613,42.0085111 21.5592533,41.998601 C21.8396772,41.9890273 22.1268114,41.9259915 22.4213206,41.8159003 C22.6646591,41.7242145 22.9090352,41.6117877 23.1580197,41.4776493 C23.3857833,41.354568 23.6140415,41.2244054 23.8440083,41.0863371 C24.0824381,40.9427646 24.2847964,40.8227346 24.4745934,40.712671 C24.6799758,40.5933863 24.8630123,40.4927506 25.0306368,40.4072849 C25.1563728,40.3426159 25.2577619,40.3031797 25.3332292,40.2849143 C25.4056388,40.2679596 25.5171323,40.2565493 25.6584776,40.256323 C25.8538153,40.2557289 26.0629867,40.2619113 26.2858625,40.2748854 C26.5106174,40.288231 26.74835,40.3063821 27.0011689,40.3293672 C27.2790962,40.3544709 27.551254,40.3699112 27.8186077,40.3758438 C28.0999651,40.3823005 28.3673892,40.3728341 28.6211474,40.3470394 C28.942633,40.3140752 29.2331113,40.2391746 29.4922413,40.1136131 L29.0468171,39.1794606 L29.4290362,40.1416456 C29.6505917,40.0522082 29.8566367,39.9224753 30.0494088,39.7570472 C30.1933415,39.632073 30.3324865,39.4960391 30.4720979,39.3451157 C30.630862,39.1734879 30.7896604,38.9826428 30.9503589,38.7713011 C31.088369,38.588574 31.2271985,38.4055647 31.3690099,38.2193911 C31.4186646,38.1532838 31.7039118,37.775551 31.7864742,37.6650928 C31.9010944,37.5134524 32.0104367,37.3812246 32.1114995,37.2719732 C32.1531301,37.2269694 32.1924317,37.1877459 32.2283874,37.1549413 C32.2638033,37.122464 32.2940217,37.0972914 32.3203064,37.0778295 L31.711659,36.2424834 L32.2979955,37.093892 C32.415771,37.0114692 32.6043706,36.9197744 32.8598499,36.8283666 C33.1818024,36.713629 33.5226052,36.5971705 33.8804921,36.4795049 C34.2737733,36.3497942 34.6415944,36.2116401 34.9881925,36.0628842 C35.432573,35.8727988 35.7984119,35.6334228 36.0775403,35.3316781 C36.3531895,35.0336946 36.5611819,34.6526836 36.7187932,34.1914942 C36.8421303,33.8320024 36.9535605,33.4515153 37.0535819,33.0495453 C37.1481327,32.6685582 37.2378572,32.3211934 37.325572,31.9976984 C37.3955141,31.7400432 37.4723894,31.5468146 37.5482038,31.4201208 C37.5544908,31.410403 37.576685,31.3790952 37.6044908,31.3436357 C37.6365913,31.3024648 37.6725696,31.26032 37.714469,31.2150257 C37.8150556,31.106289 37.9366103,30.9888315 38.0806728,30.8615494 C38.1864512,30.7691886 38.5631445,30.4363601 38.5874457,30.4149881 C38.7592335,30.2615881 38.929609,30.1101311 39.108082,29.9521319 C39.308534,29.7735474 39.4887448,29.5978993 39.6516432,29.4218021 C39.7908576,29.271308 39.915826,29.1218397 40.0261835,28.9730008 C40.1803867,28.7620002 40.2945813,28.5453938 40.367379,28.3164753 L39.3882923,28.0000723 L40.3517348,28.3620013 C40.4518149,28.0912736 40.5035765,27.7955591 40.5130513,27.4764185 C40.5212867,27.2257057 40.5119643,26.9580478 40.4861345,26.6748746 C40.461677,26.4123828 40.4292596,26.1467161 40.3885993,25.8758673 C40.3513008,25.6303539 40.3160909,25.3862282 40.2824818,25.1407729 C40.251713,24.9178833 40.2303166,24.7116938 40.2179483,24.5205862 C40.2080014,24.3737685 40.2113697,24.2617241 40.2240473,24.1823264 C40.2458485,24.0561176 40.3137443,23.8627502 40.4308909,23.6232276 C40.6062711,23.2645174 40.7635711,22.9462197 40.919245,22.6358503 C41.1062692,22.2578901 41.2673657,21.8998107 41.4063333,21.5517724 C41.5860317,21.1036092 41.6760173,20.676369 41.6624415,20.2680633 C41.6522611,19.9826739 41.5896661,19.6943103 41.4810152,19.3984599 C41.3887624,19.150418 41.277325,18.9038379 41.1451162,18.654653 C41.0253685,18.4275334 40.8926658,18.1946121 40.7466482,17.9548154 C40.6174843,17.7429682 40.4934982,17.5341222 40.3739741,17.3270802 C40.2626698,17.1343165 40.166329,16.9530823 40.084741,16.7833279 C40.0188862,16.6463924 39.9749042,16.5304021 39.9504494,16.4358788 L38.955563,16.6974455 L39.9571826,16.463445 C39.9396323,16.3871047 39.92954,16.2800397 39.9310003,16.1443453 C39.9319511,15.9358454 39.939,15.7253551 39.9525567,15.506272 C39.9655177,15.2802267 39.9831758,15.0426997 40.0062368,14.7788304 C40.0310667,14.4952541 40.0465889,14.2245753 40.0525389,13.9648136 C40.0590109,13.6843128 40.0497376,13.4165941 40.0242356,13.1616328 C39.9923783,12.843476 39.9207861,12.5525646 39.8023535,12.2896774 L39.7933833,12.2702996 C39.6317676,11.9303653 39.3752292,11.6061701 39.0300264,11.281665 C38.8539687,11.1161634 38.6615563,10.9534079 38.4518934,10.7921432 C38.3866223,10.7418277 38.3866223,10.7418277 38.3203955,10.6907822 C38.1471063,10.5572264 38.0246855,10.4630082 37.9023374,10.3691083 C37.6439959,10.1703579 37.5128924,10.0696096 37.3637614,9.95536398 C37.2135334,9.84139202 37.0845443,9.7330982 36.9738391,9.62903065 C36.9274583,9.5854307 36.8878923,9.5453182 36.8550769,9.50899641 C36.8271166,9.47782808 36.8009489,9.44577977 36.7781344,9.41476399 C36.7398749,9.36090798 36.6859609,9.25991579 36.6302906,9.12525791 C36.5525191,8.93772497 36.4785502,8.74151316 36.4086225,8.53657944 C36.3336144,8.31772824 36.2589095,8.08951665 36.1832461,7.84838242 C36.0995934,7.58101461 36.0096273,7.32374083 35.9130932,7.07607973 C35.8105598,6.81443579 35.7014462,6.5739069 35.5846662,6.35301732 C35.4378287,6.07325695 35.2601758,5.83041068 35.0484281,5.63135899 L35.0282409,5.61238209 L35.0070726,5.59452441 C34.7126523,5.34614934 34.3448196,5.1517005 33.9046662,4.99870173 C33.5453069,4.87401694 33.1712352,4.76106011 32.7818492,4.65977194 L32.7818492,4.65977194 Z M32.268063,6.66695462 C32.6056658,6.7547728 32.9278988,6.85207612 33.2348858,6.95858944 C33.4539333,7.03473125 33.6044886,7.1143199 33.6873689,7.18423832 L34.3472208,6.38938136 L33.6460134,7.14740374 C33.6800465,7.17939632 33.7222858,7.23713617 33.7685274,7.32523422 C33.8487805,7.47704307 33.9256908,7.64658324 33.999899,7.83594375 C34.0782041,8.03684244 34.1524842,8.24925963 34.2224027,8.47272937 C34.3036124,8.73154058 34.3839496,8.97695804 34.4645708,9.21218335 C34.5483592,9.45774092 34.6380796,9.69573558 34.7326387,9.92374712 C34.8447006,10.194809 34.9717566,10.4328114 35.1173636,10.6370304 C35.1897473,10.7356261 35.2582575,10.8195323 35.3324319,10.9021936 C35.4067507,10.9844625 35.485546,11.0643461 35.5714244,11.1450754 C35.7367594,11.3004973 35.9210895,11.4552531 36.1234583,11.6087626 C36.2672416,11.7189261 36.3975461,11.8190604 36.6557527,12.0177061 C36.7777174,12.1113126 36.8991696,12.2047855 37.0714489,12.3375628 C37.1375329,12.3884983 37.1375329,12.3884983 37.2036699,12.4394805 C37.3619197,12.561201 37.502646,12.6802369 37.6276116,12.7977098 C37.7999659,12.9597301 37.9024038,13.0891838 37.939025,13.1662111 L38.8662042,12.7182554 L37.9300549,13.1468333 C37.9495076,13.1900128 37.9676978,13.2639279 37.9782892,13.3697036 C37.9949977,13.5367496 38.0013179,13.719214 37.9967593,13.9167866 C37.9918698,14.1302481 37.9789063,14.3563086 37.9578543,14.5967382 C37.9330654,14.8803788 37.9138891,15.1383276 37.89993,15.3819856 C37.8842054,15.6359265 37.8758196,15.8863387 37.8747396,16.1284415 C37.8716428,16.4142876 37.897074,16.6840762 37.9539433,16.931446 L37.9606765,16.9590121 C38.0213926,17.1936932 38.112865,17.434926 38.234282,17.6873951 C38.3393548,17.9060126 38.4601679,18.1332835 38.5967385,18.369805 C38.7245868,18.5912663 38.8570392,18.8143733 38.994455,19.0397545 C39.1185389,19.2435309 39.2301442,19.4394218 39.3305932,19.6299325 C39.4220325,19.8022831 39.4958473,19.9656148 39.5540923,20.1222028 C39.5894253,20.2184388 39.6056852,20.293345 39.6073515,20.3400416 C39.6103097,20.4291077 39.5790906,20.5773321 39.4992924,20.7763482 C39.3810978,21.0723585 39.2425235,21.3803765 39.0816288,21.705561 C38.9250243,22.0177515 38.7646891,22.3421907 38.586479,22.7066889 C38.3885719,23.1113376 38.2568289,23.4865422 38.1959177,23.8404246 C38.15444,24.0997066 38.146408,24.3668819 38.1661899,24.6587207 C38.1817306,24.8989225 38.2083193,25.1551488 38.2456205,25.4253534 C38.2804437,25.6796804 38.3171132,25.9339258 38.3556931,26.1878623 C38.3903264,26.4185746 38.4180127,26.6454698 38.4386285,26.8667116 C38.4567644,27.0655584 38.4631079,27.2476878 38.4577424,27.4111328 C38.4545427,27.5187346 38.4415484,27.5929715 38.4248497,27.6381432 L38.4165027,27.6607229 L38.4092056,27.6836693 C38.408168,27.6869321 38.3983184,27.7056149 38.374801,27.737801 C38.3151524,27.8182064 38.2379376,27.910559 38.1477375,28.0080675 C38.0317065,28.1334999 37.8988391,28.2630033 37.7487459,28.3967278 C37.5705097,28.5545105 37.3978747,28.7079761 37.2296709,28.8582157 C37.2073723,28.877786 36.8346311,29.2071225 36.7297413,29.2987298 C36.5319234,29.4734832 36.3611728,29.6384785 36.2105633,29.8012911 C36.1302112,29.8881536 36.0565727,29.9744135 35.9894865,30.0604702 C35.9199057,30.1491966 35.855373,30.2402285 35.7976803,30.3326242 C35.604222,30.6555512 35.4586391,31.0214789 35.342083,31.4508523 C35.2501227,31.7900048 35.1567052,32.1516671 35.0588852,32.5458281 C34.9732028,32.890171 34.878662,33.2129879 34.7750051,33.5151195 C34.7040254,33.7228123 34.6318708,33.8549887 34.5736346,33.9179435 C34.5102373,33.9864775 34.3821341,34.0702981 34.1838121,34.1551314 C33.8923148,34.2802379 33.5797478,34.3976385 33.241972,34.509043 C32.8694363,34.6315244 32.5127519,34.7534099 32.1732458,34.8744042 C31.7570318,35.0233202 31.409094,35.1924835 31.1253225,35.3910749 L31.1030115,35.4071373 C31.0160278,35.4715424 30.9308912,35.5424629 30.8465322,35.6198336 C30.768207,35.6912899 30.6877581,35.771579 30.6075938,35.8582386 C30.4569926,36.0210421 30.304582,36.2053525 30.1474601,36.4132552 C30.0653359,36.5231028 29.781848,36.8985058 29.7336328,36.9627382 C29.5945353,37.1453067 29.4539934,37.3305731 29.3162794,37.5129173 C29.1962556,37.6707568 29.0796646,37.8108767 28.9681922,37.9313811 C28.8777667,38.0291334 28.7920514,38.1129322 28.711863,38.1825716 C28.6861191,38.2046402 28.6686472,38.2156411 28.6645981,38.2172756 L28.6325284,38.2302215 L28.601393,38.2453082 C28.5740811,38.2585421 28.5116395,38.2746429 28.4139483,38.28466 C28.2478905,38.3015394 28.064691,38.3080244 27.8646334,38.3034336 C27.6430398,38.2985161 27.4169818,38.2856912 27.1852783,38.2647628 C26.9125703,38.2399694 26.6537004,38.2202044 26.4055904,38.2054728 C26.1412529,38.1900844 25.890655,38.1826775 25.6537365,38.1833994 C25.366375,38.1838585 25.1017622,38.210939 24.8602263,38.2675829 C24.609283,38.3282924 24.358439,38.4258606 24.0992741,38.5591704 C23.8989841,38.6612837 23.6838479,38.7795682 23.4486325,38.91618 C23.248554,39.0322056 23.0368727,39.1577656 22.7906372,39.3060394 C22.5882633,39.4275404 22.3869011,39.5423657 22.1876336,39.6500488 C22.018093,39.7413865 21.8565593,39.8157011 21.7038594,39.8732382 C21.6075941,39.9092196 21.5341642,39.92534 21.4885648,39.9268968 C21.4417036,39.928546 21.3671822,39.9175292 21.2661937,39.887615 C21.107094,39.840305 20.9355634,39.7770126 20.7517689,39.6971626 C20.5542498,39.6112856 20.3550182,39.5154689 20.1525768,39.4087992 C19.9218131,39.2875825 19.6926837,39.1703371 19.4633812,39.0560634 C19.2166611,38.9339575 18.9837508,38.82858 18.7607391,38.7384325 C18.5031173,38.6342221 18.2576552,38.5591078 18.0209254,38.5143722 C17.6471135,38.4504184 17.2490189,38.4537321 16.8031498,38.5134402 C16.4500384,38.5599919 16.0804699,38.6126963 15.6944918,38.6714585 C15.3448358,38.7246909 15.0122512,38.7617661 14.6967064,38.782651 C14.481554,38.7974228 14.3321069,38.7809521 14.2466662,38.7488962 L14.2240004,38.7403923 L14.200963,38.7329722 C14.1988918,38.7323051 14.1820271,38.7232408 14.1512656,38.7002317 C14.0684251,38.6381 13.9773902,38.5608143 13.8800975,38.4693551 C13.7538936,38.3507181 13.6264164,38.2177197 13.4974622,38.0696625 C13.4824139,38.0524556 13.4824139,38.0524556 13.4688012,38.0368961 C13.4277752,37.9900044 13.3902338,37.9471153 13.3118119,37.8575321 C13.188636,37.716819 13.1171493,37.6350852 13.0401691,37.5468891 C12.8678148,37.3494647 12.7282497,37.1890761 12.5970678,37.0375222 C12.4280822,36.8425929 12.2635554,36.6694693 12.101257,36.5169021 C12.0169047,36.4376073 11.9319996,36.3640629 11.8466402,36.296043 C11.7626731,36.2291678 11.6770285,36.1672591 11.5886651,36.1091334 L11.563347,36.0930042 C11.3530087,35.963288 11.1141201,35.8540805 10.8459627,35.7622811 C10.6204014,35.6850373 10.3811162,35.6130893 10.1285246,35.5465188 C9.88219516,35.4815988 9.63724826,35.4195228 9.39072684,35.3597411 C9.16804495,35.3059371 8.95204798,35.2463531 8.74068661,35.1808259 C8.55566941,35.1233684 8.38460732,35.0594219 8.22880762,34.990074 C8.14228375,34.9510919 8.08118998,34.9117962 8.0461133,34.8788226 C7.9827423,34.8192512 7.90105648,34.6920765 7.81621255,34.49154 C7.69034175,34.1930355 7.56854967,33.8710813 7.45145402,33.5270167 C7.31708081,33.1322328 7.19517499,32.779384 7.07873567,32.4489817 C6.927034,32.0164619 6.74766167,31.6527506 6.53214969,31.3587173 C6.46203924,31.2650343 6.39440396,31.1827434 6.32185436,31.1024826 C6.24907622,31.0218862 6.1703068,30.9415594 6.08589083,30.8622049 C5.9236709,30.7097113 5.74096764,30.5564041 5.53656298,30.4002079 C5.3786781,30.2798627 5.21334857,30.1531177 5.00132296,29.9900357 C4.91888604,29.9266146 4.83591534,29.8626729 4.719176,29.7726281 C4.65397388,29.7223321 4.65397388,29.7223321 4.58868641,29.6719683 C4.52131029,29.6199985 4.52131029,29.6199985 4.45382362,29.5679674 C4.29655234,29.4472355 4.1556508,29.3279662 4.02934697,29.2092353 C3.93240906,29.1181096 3.84966858,29.0320414 3.78102826,28.9515112 C3.75753592,28.9238436 3.74752326,28.9077272 3.74728261,28.9071151 L3.73250452,28.8714815 C3.71484878,28.8310433 3.69692243,28.7554631 3.68582571,28.6446408 C3.66885489,28.4736584 3.66150993,28.286329 3.66445474,28.0848338 C3.66707463,27.862495 3.67766,27.6382147 3.69646897,27.4084151 C3.71768785,27.1491724 3.73667728,26.8922961 3.75348935,26.6375989 C3.77167541,26.370858 3.78046427,26.113377 3.77970405,25.86757 C3.77857631,25.5750352 3.75159868,25.3091497 3.69504914,25.0663846 C3.63806511,24.822206 3.54370299,24.5724872 3.41442193,24.311943 C3.30657213,24.0958083 3.18842597,23.8759399 3.05864316,23.6500165 C2.93302785,23.430862 2.80249778,23.2079485 2.66722284,22.9816833 C2.54707353,22.7813052 2.43667353,22.5826057 2.33488222,22.3842216 C2.24342032,22.2052459 2.16843857,22.0363983 2.11025947,21.8792394 C2.0741544,21.7813963 2.05813408,21.7074605 2.05643651,21.6598835 C2.05356981,21.5753785 2.08492292,21.4303462 2.1656708,21.2324603 C2.28936121,20.9303931 2.42962157,20.6208504 2.58582547,20.3059998 C2.75466544,19.9662075 2.91888686,19.6254802 3.07857824,19.2840308 C3.26881464,18.876588 3.39531895,18.5051304 3.45430351,18.1579239 C3.51461415,17.7999767 3.51294947,17.3995264 3.45700206,16.9498765 C3.41074991,16.5781475 3.35928975,16.2025704 3.30231758,15.822 C3.25043986,15.4742721 3.21604204,15.1427011 3.19906216,14.8270797 C3.18699997,14.6048565 3.20444843,14.4463915 3.23663119,14.3556547 L2.26848801,14.0067051 L3.22500701,14.3868381 C3.25575313,14.3082185 3.34833294,14.1728016 3.50922106,13.9988776 C3.62112734,13.8779041 3.75133642,13.7513366 3.90029319,13.6191872 C4.12846733,13.4168014 4.27043738,13.2908033 4.41891273,13.1588559 C4.6759702,12.9311758 4.80282272,12.8188511 4.92850692,12.7077552 C5.11890383,12.539864 5.29190984,12.3719358 5.44603871,12.2053187 C5.52561291,12.1192971 5.59816251,12.0350519 5.66368065,11.952034 C5.73621222,11.8588779 5.79868597,11.7709593 5.85510176,11.6822981 C5.99653303,11.4510966 6.10602507,11.2043298 6.19746402,10.9257851 C6.27203811,10.6986147 6.34288206,10.4592492 6.41030924,10.2067012 C6.4775957,9.95414876 6.54147434,9.70483834 6.60268562,9.45497589 C6.65975264,9.22120462 6.72024865,9.00036769 6.78437182,8.7912113 C6.84206303,8.60243462 6.90524102,8.43221772 6.97364663,8.27989071 C7.01722582,8.18228647 7.05751962,8.11869854 7.09070025,8.08282947 C7.12309508,8.04780986 7.18078708,8.00478888 7.26813219,7.95806939 C7.41580535,7.87880537 7.58358942,7.80169699 7.77327466,7.72626198 C7.97419569,7.64677095 8.18546023,7.57161558 8.40507901,7.50178701 C8.6513575,7.42325584 8.89474438,7.34210907 9.1375114,7.25781312 C9.38339836,7.17228682 9.61562778,7.08423368 9.83567545,6.99308739 C10.1044606,6.88205171 10.3410701,6.7547348 10.5451834,6.60711519 C10.6426499,6.53438336 10.7257338,6.46510336 10.808464,6.38962332 C10.8911432,6.31322925 10.9692441,6.23459815 11.0490082,6.14837123 C11.2031168,5.98177611 11.3561478,5.79721468 11.5082885,5.59447566 C11.6197891,5.44616285 11.7206233,5.31248543 11.9150586,5.05503777 C11.9898537,4.95650345 12.0683652,4.85291058 12.1682588,4.72098757 C12.1917217,4.69000058 12.1917217,4.69000058 12.2151742,4.65902387 C12.274433,4.58074754 12.274433,4.58074754 12.3336625,4.50250811 C12.4538524,4.34374929 12.5722904,4.20147723 12.6887663,4.07556393 C12.7720255,3.9855587 12.8530676,3.90832474 12.9306188,3.84421195 C12.979173,3.80397327 13.0166088,3.77964417 13.0405943,3.76849181 C13.1202167,3.73226558 13.2694829,3.70440327 13.4825876,3.70256418 C13.7935833,3.69941016 14.1240295,3.71205455 14.4794849,3.74040674 C14.864393,3.77169954 15.2400412,3.79732565 15.6064377,3.81725943 C16.0538955,3.84207753 16.4501802,3.81588074 16.798555,3.73086503 C17.1446309,3.64550762 17.5056085,3.48951895 17.8936558,3.26585156 C18.2154978,3.08069245 18.5393512,2.89047492 18.8648969,2.69521944 C19.1657666,2.51523956 19.4611078,2.35416954 19.7500847,2.21232367 C19.9424911,2.1183141 20.0878967,2.07629054 20.178463,2.07291017 C20.2218981,2.07148224 20.2969194,2.08254395 20.3981067,2.11245944 C20.5525716,2.1588412 20.7202253,2.22204718 20.8957352,2.30112787 C21.0944414,2.39035649 21.3014328,2.49039707 21.520511,2.60290002 C21.7385616,2.71552508 21.9633289,2.82882211 22.2066564,2.94914754 C22.4463223,3.06680502 22.6713508,3.16984625 22.8865873,3.26035351 C23.1538682,3.37270716 23.4076255,3.45044344 23.6531233,3.49069639 C23.9993019,3.55079851 24.3989291,3.54732326 24.8510527,3.48793806 C25.2592184,3.43338817 25.614584,3.38403455 25.9600799,3.33344298 C26.3044446,3.28301705 26.6383754,3.24786503 26.959606,3.22810417 C27.1804561,3.21452403 27.3357337,3.23117017 27.4218268,3.26236681 L27.4530267,3.27310619 C27.4557213,3.27398534 27.4745153,3.28412715 27.5070667,3.30838114 C27.590205,3.37056943 27.6808569,3.447342 27.7768611,3.53758998 C27.9019249,3.65515525 28.0299167,3.7887457 28.160818,3.93868748 C28.3892094,4.19980006 28.4903027,4.31549334 28.6163476,4.46017946 C28.8457884,4.72305007 28.9412203,4.8325005 29.0613932,4.97078374 C29.2248571,5.16053093 29.390802,5.33503046 29.5560582,5.49037821 C29.6420019,5.57116896 29.7266071,5.6448806 29.8103708,5.71159383 C29.9001772,5.78274225 29.9884603,5.84612336 30.0784358,5.90387847 C30.3830372,6.10044297 30.7535162,6.25547126 31.1885355,6.37584222 C31.5598925,6.47920356 31.9160794,6.57539567 32.268063,6.66695462 L32.268063,6.66695462 Z" id="Combined-Shape" fill-opacity="0.5"></path>
                <text id="Passport" opacity="0.5" font-family="Lato-Black, Lato" font-size="23.876048" font-weight="700">
                    <tspan x="45.2451109" y="35.6516905">Passport</tspan>
                </text>
            </g>
        </g>
    </g>
</svg>