<?xml version="1.0" encoding="UTF-8" standalone="no"?>
<svg width="167px" height="177px" viewBox="0 0 167 177" version="1.1" xmlns="http://www.w3.org/2000/svg" xmlns:xlink="http://www.w3.org/1999/xlink">
    <!-- Generator: Sketch 3.7.1 (28215) - http://www.bohemiancoding.com/sketch -->
    <title>symbol-learn-finder-icon</title>
    <desc>Created with Sketch.</desc>
    <defs></defs>
    <g id="Page-1" stroke="none" stroke-width="1" fill="none" fill-rule="evenodd">
        <g id="symbol-learn-finder-icon" fill="#FFFFFF">
            <path d="M20.9039891,138.845186 C17.4767771,138.845186 14.6854486,141.620096 14.6854486,145.031187 C14.6854486,148.442279 17.4767771,151.215376 20.9039891,151.215376 C24.3348451,151.215376 27.1243516,148.442279 27.1243516,145.031187 C27.1243516,141.620096 24.3348451,138.845186 20.9039891,138.845186 L20.9039891,138.845186 Z M20.9039891,158.465304 C13.4574099,158.465304 7.39738479,152.438802 7.39738479,145.031187 C7.39738479,137.621761 13.4574099,131.595258 20.9039891,131.595258 C28.3523903,131.595258 34.4124154,137.621761 34.4124154,145.031187 C34.4124154,152.438802 28.3523903,158.465304 20.9039891,158.465304 L20.9039891,158.465304 Z" id="Fill-672"></path>
            <path d="M7.33908028,164.94674 C11.1798899,168.055147 15.9389956,169.749817 20.9039891,169.749817 C25.8726266,169.749817 30.6317323,168.055147 34.4707199,164.948553 C34.0771645,161.910833 31.4607496,159.556419 28.3050179,159.556419 L13.5102483,159.556419 C10.3508727,159.556419 7.73263573,161.910833 7.33908028,164.94674 L7.33908028,164.94674 Z M20.9039891,176.999746 C13.5448666,176.999746 6.52828318,174.224836 1.14604804,169.182511 L0,168.109521 L0,165.744232 C0,158.334806 6.06002508,152.30649 13.5102483,152.30649 L28.3050179,152.30649 C35.7515971,152.30649 41.8098002,158.334806 41.8098002,165.744232 L41.8098002,168.109521 L40.6655742,169.180698 C35.283339,174.224836 28.2667556,176.999746 20.9039891,176.999746 L20.9039891,176.999746 Z" id="Fill-674"></path>
            <path d="M55.828391,117.978081 L57.2659616,119.116319 C68.5387743,128.040981 82.1091492,132.758872 96.5140073,132.758872 C131.298114,132.758872 159.599488,104.607401 159.599488,70.0053061 C159.599488,35.4013991 131.298114,7.24992814 96.5140073,7.24992814 C61.7280787,7.24992814 33.4285268,35.4013991 33.4285268,70.0053061 C33.4285268,84.3329766 38.1730563,97.8359678 47.148307,109.051607 L48.292533,110.481655 L45.5321788,120.720366 L55.828391,117.978081 L55.828391,117.978081 Z M96.5140073,140.0088 C81.063312,140.0088 66.4707862,135.144098 54.1940427,125.918564 L35.2250345,130.971764 L40.308459,112.107451 C31.0325758,99.8913224 26.140463,85.3733413 26.140463,70.0053061 C26.140463,31.4030637 57.7105335,0 96.5140073,0 C135.317481,0 166.887552,31.4030637 166.887552,70.0053061 C166.887552,108.605736 135.317481,140.0088 96.5140073,140.0088 L96.5140073,140.0088 Z" id="Fill-676"></path>
            <path d="M100.077871,72.0751606 L95.4572381,66.4691537 L101.052649,61.9397611 C102.876487,60.788835 103.525125,59.8173446 103.525125,59.2917248 L103.525125,54.3110242 C103.525125,52.2719819 101.859802,50.6117483 99.8136782,50.6117483 L93.9048805,50.6117483 C91.8587566,50.6117483 90.193434,52.2719819 90.193434,54.3110242 L90.193434,56.6382511 L82.9053701,56.6382511 L82.9053701,54.3110242 C82.9053701,48.2736465 87.8393894,43.3618202 93.9048805,43.3618202 L99.8136782,43.3618202 C105.879169,43.3618202 110.813189,48.2736465 110.813189,54.3110242 L110.813189,59.2917248 C110.813189,61.5736397 109.825656,64.9104191 105.155829,67.9354516 L100.077871,72.0751606" id="Fill-678"></path>
            <path d="M96.7308272,80.3455161 L89.4427634,80.3455161 L89.4427634,75.363003 C89.4427634,73.0829006 90.430296,69.7461212 95.1001229,66.7229012 L100.176259,62.5813797 L104.798714,68.1855742 L99.2033029,72.7167792 C97.3812869,73.8695178 96.7308272,74.8391957 96.7308272,75.363003 L96.7308272,80.3455161" id="Fill-679"></path>
            <path d="M93.0867953,85.906211 L93.0867953,92.9930158" id="Fill-680"></path>
            <polygon id="Fill-681" points="89.4427634 92.9930158 96.7308272 92.9930158 96.7308272 85.906211 89.4427634 85.906211"></polygon>
        </g>
    </g>
</svg>