<?xml version="1.0" encoding="UTF-8" standalone="no"?>
<svg width="240px" height="240px" viewBox="0 0 240 240" version="1.1" xmlns="http://www.w3.org/2000/svg" xmlns:xlink="http://www.w3.org/1999/xlink">
    <!-- Generator: Sketch 3.7.1 (28215) - http://www.bohemiancoding.com/sketch -->
    <title>share-learn</title>
    <desc>Created with Sketch.</desc>
    <defs>
        <circle id="path-1" cx="110" cy="110" r="110"></circle>
        <mask id="mask-2" maskContentUnits="userSpaceOnUse" maskUnits="objectBoundingBox" x="-10" y="-10" width="240" height="240">
            <rect x="-10" y="-10" width="240" height="240" fill="white"></rect>
            <use xlink:href="#path-1" fill="black"></use>
        </mask>
    </defs>
    <g id="Page-1" stroke="none" stroke-width="1" fill="none" fill-rule="evenodd">
        <g id="share-learn" transform="translate(10.000000, 10.000000)">
            <g id="Oval-29-Copy-6" opacity="0.349999994">
                <use fill="#334162" fill-rule="evenodd" xlink:href="#path-1"></use>
                <use stroke="#7289AF" mask="url(#mask-2)" stroke-width="20" xlink:href="#path-1"></use>
            </g>
            <circle id="Oval-29-Copy-3" fill="#FFFFFF" cx="109" cy="110" r="95"></circle>
            <path d="M63.007,144.663 L63.007,152.621 C63.007,154.146 64.568,155.846 66.093,155.846 L154.935,155.846 C156.46,155.846 157.372,154.278 157.372,152.752 L157.372,144.663 L63.007,144.663" id="Fill-9" fill="#FFFFFF"></path>
            <path d="M65.007,146.663 L65.007,152.621 C65.007,153.102 65.729,153.846 66.093,153.846 L154.935,153.846 C155.062,153.846 155.372,153.373 155.372,152.752 L155.372,146.663 L65.007,146.663 L65.007,146.663 Z M154.935,157.846 L66.093,157.846 C63.479,157.846 61.007,155.307 61.007,152.621 L61.007,142.663 L159.372,142.663 L159.372,152.752 C159.372,155.256 157.712,157.846 154.935,157.846 L154.935,157.846 Z" id="Fill-10" fill="#282D33"></path>
            <path d="M99.693,155.909 C99.53,157.887 99.883,162.288 99.456,164.438 C99.066,166.406 98.794,166.472 97.749,167.052 C97.16,167.376 96.165,167.827 95.331,168.187" id="Fill-11" fill="#FFFFFF"></path>
            <path d="M96.125,170.023 L94.538,166.351 C95.53,165.922 96.35,165.539 96.787,165.299 L96.922,165.224 C97.047,165.155 97.155,165.103 97.247,165.044 C97.29,164.93 97.373,164.662 97.494,164.049 C97.713,162.947 97.685,160.813 97.662,159.098 C97.645,157.821 97.628,156.616 97.7,155.745 L101.687,156.073 C101.63,156.753 101.646,157.866 101.661,159.045 C101.689,161.144 101.718,163.314 101.418,164.827 C100.945,167.214 100.363,167.895 98.853,168.727 L98.72,168.801 C97.969,169.213 96.772,169.743 96.125,170.023" id="Fill-12" fill="#282D33"></path>
            <path d="M124.947,168.201 C124.108,167.835 123.097,167.377 122.501,167.052 C121.459,166.472 121.253,166.406 120.864,164.438 C120.439,162.288 120.788,157.996 120.627,156.017" id="Fill-13" fill="#FFFFFF"></path>
            <path d="M124.149,170.034 C123.34,169.682 122.231,169.183 121.543,168.808 L121.448,168.755 C119.814,167.847 119.361,167.149 118.902,164.826 C118.603,163.312 118.631,161.174 118.659,159.107 C118.674,157.951 118.689,156.859 118.634,156.179 L122.62,155.855 C122.691,156.723 122.675,157.907 122.658,159.161 C122.636,160.847 122.607,162.946 122.826,164.049 C122.949,164.669 123.028,164.953 123.073,165.082 C123.162,165.137 123.268,165.19 123.391,165.258 C123.895,165.535 124.707,165.915 125.746,166.367 L124.149,170.034" id="Fill-14" fill="#282D33"></path>
            <path d="M92.741,168.028 L127.648,168.028" id="Fill-15" fill="#FFFFFF"></path>
            <polygon id="Fill-16" fill="#282D33" points="92.741 170.028 127.648 170.028 127.648 166.028 92.741 166.028"></polygon>
            <path d="M74.858,86.948 L65.583,86.948 C64.158,86.948 63,88.108 63,89.532 L63,144.718 L157.343,144.718 L157.343,89.532 C157.343,88.108 156.183,86.948 154.758,86.948 L145.514,86.948" id="Fill-17" fill="#FFFFFF"></path>
            <path d="M159.343,146.718 L61,146.718 L61,89.532 C61,87.004 63.056,84.948 65.583,84.948 L74.858,84.948 L74.858,88.948 L65.583,88.948 C65.262,88.948 65,89.21 65,89.532 L65,142.718 L155.343,142.718 L155.343,89.532 C155.343,89.21 155.081,88.948 154.758,88.948 L145.514,88.948 L145.514,84.948 L154.758,84.948 C157.286,84.948 159.343,87.004 159.343,89.532 L159.343,146.718" id="Fill-18" fill="#282D33"></path>
            <polygon id="Fill-19" fill="#619252" points="70.378 137.164 82.108 137.164 82.108 94.444 70.378 94.444"></polygon>
            <polygon id="Fill-20" fill="#619252" points="138.264 137.164 149.867 137.164 149.867 94.444 138.264 94.444"></polygon>
            <polygon id="Fill-21" fill="#282D33" points="137.451 137.164 141.451 137.164 141.451 85.282 137.451 85.282"></polygon>
            <polyline id="Fill-22" fill="#282D33" points="83.039 137.164 79.039 137.164 79.039 66 123.174 66 123.174 70 83.039 70 83.039 137.164"></polyline>
            <polyline id="Fill-23" fill="#7FC469" points="125.918 81.537 141.334 81.537 125.918 66.118 125.918 81.537"></polyline>
            <polygon id="Fill-24" fill="#282D33" points="90.844 88.955 112.751 88.955 112.751 84.955 90.844 84.955"></polygon>
            <polygon id="Fill-25" fill="#282D33" points="90.844 97.668 128.391 97.668 128.391 93.668 90.844 93.668"></polygon>
            <polygon id="Fill-26" fill="#282D33" points="90.844 106.381 128.391 106.381 128.391 102.381 90.844 102.381"></polygon>
            <polygon id="Fill-27" fill="#282D33" points="90.844 115.094 128.391 115.094 128.391 111.094 90.844 111.094"></polygon>
            <polygon id="Fill-28" fill="#282D33" points="90.844 123.808 128.391 123.808 128.391 119.808 90.844 119.808"></polygon>
            <polygon id="Fill-29" fill="#282D33" points="90.844 132.521 128.391 132.521 128.391 128.521 90.844 128.521"></polygon>
        </g>
    </g>
</svg>