<?xml version="1.0" encoding="UTF-8" standalone="no"?>
<svg width="240px" height="240px" viewBox="0 0 240 240" version="1.1" xmlns="http://www.w3.org/2000/svg" xmlns:xlink="http://www.w3.org/1999/xlink">
    <!-- Generator: Sketch 3.7.1 (28215) - http://www.bohemiancoding.com/sketch -->
    <title>share-gain</title>
    <desc>Created with Sketch.</desc>
    <defs>
        <path d="M110,220 C170.751322,220 220,170.751322 220,110 C220,49.2486775 170.751322,0 110,0 C49.2486775,0 0,49.2486775 0,110 C0,170.751322 49.2486775,220 110,220 Z" id="path-1"></path>
        <mask id="mask-2" maskContentUnits="userSpaceOnUse" maskUnits="objectBoundingBox" x="-10" y="-10" width="240" height="240">
            <rect x="-10" y="-10" width="240" height="240" fill="white"></rect>
            <use xlink:href="#path-1" fill="black"></use>
        </mask>
    </defs>
    <g id="Page-1" stroke="none" stroke-width="1" fill="none" fill-rule="evenodd">
        <g id="share-gain" transform="translate(10.000000, 10.000000)">
            <g id="Oval-29-Copy-5" opacity="0.349999994">
                <use fill="#334162" fill-rule="evenodd" xlink:href="#path-1"></use>
                <use stroke="#7289AF" mask="url(#mask-2)" stroke-width="20" xlink:href="#path-1"></use>
            </g>
            <path d="M111,205 C163.467051,205 206,162.467051 206,110 C206,57.5329488 163.467051,15 111,15 C58.5329488,15 16,57.5329488 16,110 C16,162.467051 58.5329488,205 111,205 Z" id="Oval-29-Copy-2" fill="#FFFFFF"></path>
            <path d="M127.895,127.574 L123.895,127.574 C123.895,127.173 123.703,126.946 123.637,126.913 L96.964,126.924 C96.958,126.946 96.768,127.174 96.768,127.574 L92.768,127.574 C92.768,125.01 94.65,122.924 96.964,122.924 L123.696,122.924 C126.012,122.924 127.895,125.01 127.895,127.574" id="Fill-699" fill="#282D33"></path>
            <path d="M109.031,124.843 L105.031,124.843 L105.031,110.015 C92.793,102.367 85.238,88.682 85.238,74.017 C85.238,69.748 85.869,65.523 87.114,61.457 L87.547,60.043 L133.113,60.043 L133.546,61.458 C134.79,65.522 135.42,69.747 135.42,74.017 C135.42,88.685 127.867,102.37 115.63,110.015 L115.63,120.843 L111.63,120.843 L111.63,107.742 L112.618,107.163 C124.215,100.363 131.42,87.662 131.42,74.017 C131.42,70.638 130.985,67.289 130.125,64.043 L90.535,64.043 C89.674,67.29 89.238,70.639 89.238,74.017 C89.238,87.659 96.444,100.36 108.043,107.163 L109.031,107.742 L109.031,124.843" id="Fill-700" fill="#282D33"></path>
            <path d="M124.046,102.017 C123.215,102.017 122.439,101.496 122.154,100.666 C121.795,99.622 122.352,98.484 123.396,98.125 C135.41,93.999 143.733,82.181 144.572,68.348 L132.724,68.348 C131.619,68.348 130.724,67.452 130.724,66.348 C130.724,65.243 131.619,64.348 132.724,64.348 L148.656,64.348 L148.641,66.363 C148.514,82.748 138.892,97.033 124.695,101.908 C124.48,101.982 124.261,102.017 124.046,102.017" id="Fill-701" fill="#282D33"></path>
            <path d="M96.618,102.019 C96.403,102.019 96.184,101.984 95.969,101.91 C81.772,97.037 72.146,82.752 72.017,66.364 L72,64.349 L87.934,64.349 C89.039,64.349 89.934,65.244 89.934,66.349 C89.934,67.453 89.039,68.349 87.934,68.349 L76.086,68.349 C76.928,82.185 85.253,94.002 97.268,98.127 C98.312,98.485 98.869,99.623 98.51,100.668 C98.225,101.497 97.449,102.019 96.618,102.019" id="Fill-702" fill="#282D33"></path>
            <path d="M88.108,156.374 L132.552,156.374 L132.552,153.829 L88.108,153.829 L88.108,156.374 Z M84.108,160.374 L136.552,160.374 L136.552,149.829 L84.108,149.829 L84.108,160.374 Z" id="Fill-703" fill="#282D33"></path>
            <path d="M89.882,149.829 L130.779,149.829 L130.779,134.697 L89.882,134.697 L89.882,149.829 Z M85.882,153.829 L134.779,153.829 L134.779,130.697 L85.882,130.697 L85.882,153.829 Z" id="Fill-704" fill="#282D33"></path>
            <polygon id="Fill-705" fill="#7FC469" points="94.33 145.422 126.33 145.422 126.33 139.146 94.33 139.146"></polygon>
            <path d="M88.108,156.374 L132.552,156.374 L132.552,153.829 L88.108,153.829 L88.108,156.374 Z M84.108,160.374 L136.552,160.374 L136.552,149.829 L84.108,149.829 L84.108,160.374 Z" id="Fill-706" fill="#282D33"></path>
            <path d="M89.882,149.829 L130.779,149.829 L130.779,134.697 L89.882,134.697 L89.882,149.829 Z M85.882,153.829 L134.779,153.829 L134.779,130.697 L85.882,130.697 L85.882,153.829 Z" id="Fill-707" fill="#282D33"></path>
            <polyline id="Fill-708" fill="#619252" points="108.673 82.072 102.303 78.032 95.935 82.072 95.935 60 108.673 60 108.673 82.072"></polyline>
        </g>
    </g>
</svg>