<?xml version="1.0" encoding="UTF-8" standalone="no"?>
<svg width="234px" height="234px" viewBox="0 0 234 234" version="1.1" xmlns="http://www.w3.org/2000/svg" xmlns:xlink="http://www.w3.org/1999/xlink">
    <!-- Generator: Sketch 3.7.1 (28215) - http://www.bohemiancoding.com/sketch -->
    <title>symbol-learn1</title>
    <desc>Created with Sketch.</desc>
    <defs>
        <polygon id="path-1" points="0 117.534832 112.96461 117.534832 112.96461 0 0 0"></polygon>
    </defs>
    <g id="Page-1" stroke="none" stroke-width="1" fill="none" fill-rule="evenodd">
        <g id="symbol-learn1">
            <path d="M117.045966,233.59341 C52.6788963,233.59341 0.500045436,181.413775 0.500045436,117.046705 C0.500045436,52.6804199 52.6788963,0.5 117.045966,0.5 C156.83119,0.5 191.960248,20.4353426 212.989281,50.8616128 C225.982358,69.6609009 233.592671,92.4651589 233.592671,117.046705 C233.592671,181.413775 181.413036,233.59341 117.045966,233.59341 Z" id="Fill-1" fill="#EEEEEE"></path>
            <path d="M98.6968742,94.4210053 C98.4354841,95.4637526 98.6571379,95.9817105 98.8353302,96.3984368 C98.9334291,96.6288474 99.0035885,96.8170263 99.0433247,96.9580053 L96.6939181,97.6262579 L94.3842478,98.4168579 C94.0303467,97.5858895 93.2977093,95.8711632 93.9583247,93.2341737 C94.7406324,90.1115211 98.2846104,87.7198474 102.988391,87.1416474 L103.585055,91.9908263 C100.215545,92.4056895 98.8229126,93.9167105 98.6968742,94.4210053 M125.817495,82.2663842 C125.536858,82.2489947 125.25622,82.2123526 124.975583,82.2129737 C120.926209,82.2154579 117.403341,84.0283105 114.210781,87.1298474 C111.019462,84.0283105 107.495352,82.2154579 103.446599,82.2129737 C103.166583,82.2129737 102.885946,82.2496158 102.604687,82.2663842 C95.4993467,83.0613316 88.6156599,88.0005632 89.0117808,94.2309632 C89.3396049,100.181268 90.6974676,106.235911 92.693594,112.186216 C95.3223962,119.004753 102.304803,124.286805 107.247001,124.281216 L112.401539,124.281216 C113.018072,123.786237 113.621566,123.236605 114.210781,122.640395 C114.799995,123.236605 115.404731,123.785616 116.020023,124.281216 L121.174561,124.281216 C126.118001,124.286805 133.101649,119.004753 135.728588,112.186216 C137.723473,106.235911 139.081957,100.180647 139.410402,94.2309632 C139.806523,87.9999421 132.922215,83.0613316 125.817495,82.2663842" id="Fill-12" fill="#CD4026"></path>
            <path d="M98.6968742,94.4210053 C98.4354841,95.4637526 98.6571379,95.9817105 98.8353302,96.3984368 C98.9334291,96.6288474 99.0035885,96.8170263 99.0433247,96.9580053 L96.6939181,97.6262579 L94.3842478,98.4168579 C94.0303467,97.5858895 93.2977093,95.8711632 93.9583247,93.2341737 C94.7406324,90.1115211 98.2846104,87.7198474 102.988391,87.1416474 L103.585055,91.9908263 C100.215545,92.4056895 98.8229126,93.9167105 98.6968742,94.4210053 M125.817495,82.2663842 C125.536858,82.2489947 125.25622,82.2123526 124.975583,82.2129737 C120.926209,82.2154579 117.403341,84.0283105 114.210781,87.1298474 C111.019462,84.0283105 107.495352,82.2154579 103.446599,82.2129737 C103.166583,82.2129737 102.885946,82.2496158 102.604687,82.2663842 C95.4993467,83.0613316 88.6156599,88.0005632 89.0117808,94.2309632 C89.3396049,100.181268 90.6974676,106.235911 92.693594,112.186216 C95.3223962,119.004753 102.304803,124.286805 107.247001,124.281216 L112.401539,124.281216 C113.018072,123.786237 113.621566,123.236605 114.210781,122.640395 C114.799995,123.236605 115.404731,123.785616 116.020023,124.281216 L121.174561,124.281216 C126.118001,124.286805 133.101649,119.004753 135.728588,112.186216 C137.723473,106.235911 139.081957,100.180647 139.410402,94.2309632 C139.806523,87.9999421 132.922215,83.0613316 125.817495,82.2663842" id="Fill-12" fill="#CD4026"></path>
            <path d="M117.046012,220.09341 C60.1347977,220.09341 14,173.957919 14,117.046705 C14,60.136185 60.1347977,14 117.046012,14 C152.222778,14 183.282718,31.6261643 201.875887,58.5280564 C213.363932,75.1497593 220.092717,95.3125227 220.092717,117.046705 C220.092717,173.957919 173.957225,220.09341 117.046012,220.09341 Z" id="Fill-1" fill="#FFFFFF"></path>
            <g id="Page-1" transform="translate(62.000000, 55.000000)">
                <path d="M54.142522,34.2627284 L49.2574451,34.2627284 L49.2574451,21.6392126 C49.2574451,17.4856126 52.6356484,14.1064653 56.7880879,14.1064653 L56.7880879,18.9929074 C55.329022,18.9929074 54.142522,20.1797389 54.142522,21.6392126 L54.142522,34.2627284 L54.142522,34.2627284 Z" id="Fill-1" fill="#141E32"></path>
                <mask id="mask-2" fill="white">
                    <use xlink:href="#path-1"></use>
                </mask>
                <g id="Clip-4"></g>
                <path d="M4.88445604,112.648389 L108.079533,112.648389 L108.079533,96.1569579 L4.88445604,96.1569579 L4.88445604,112.648389 Z M0,117.534832 L112.96461,117.534832 L112.96461,91.2705158 L0,91.2705158 L0,117.534832 Z" id="Fill-3" fill="#141E32" mask="url(#mask-2)"></path>
                <polygon id="Fill-5" fill="#141E32" mask="url(#mask-2)" points="84.8766593 107.761947 87.929522 107.761947 87.929522 101.0434 84.8766593 101.0434"></polygon>
                <polygon id="Fill-6" fill="#141E32" mask="url(#mask-2)" points="92.8145989 107.761947 103.195077 107.761947 103.195077 101.0434 92.8145989 101.0434"></polygon>
                <polygon id="Fill-7" fill="#141E32" mask="url(#mask-2)" points="9.77015385 107.761947 79.9915824 107.761947 79.9915824 101.0434 9.77015385 101.0434"></polygon>
                <polygon id="Fill-8" fill="#ECA69B" mask="url(#mask-2)" points="87.9293357 98.6003032 87.9293357 101.043524 87.9293357 107.762072 87.9293357 110.205293 92.8144126 110.205293 92.8144126 107.762072 92.8144126 101.043524 92.8144126 98.6003032"></polygon>
                <polygon id="Fill-9" fill="#ECA69B" mask="url(#mask-2)" points="79.9913341 101.043524 79.9913341 107.762072 79.9913341 110.205293 84.876411 110.205293 84.876411 107.762072 84.876411 101.043524 84.876411 98.6003032 79.9913341 98.6003032"></polygon>
                <path d="M18.9017956,74.5868063 L93.5420209,74.5868063 C92.7032132,75.6227221 92.0332846,76.7884379 91.5409275,78.0355116 L18.7267077,78.0355116 L18.7267077,82.9219537 L90.6139549,82.9219537 C90.6257516,85.9967853 91.6986308,88.8772274 93.5414,91.1533853 L18.9017956,91.1533853 C14.3352297,91.1533853 10.6205099,87.4376274 10.6205099,82.8710274 C10.6205099,78.3031853 14.3352297,74.5868063 18.9017956,74.5868063 M101.155241,75.0190589 L102.824164,74.4613537 L102.824164,69.7003642 L18.9017956,69.7003642 C11.641856,69.7003642 5.73543297,75.6084379 5.73543297,82.8710274 C5.73543297,90.1323747 11.641856,96.0398274 18.9017956,96.0398274 L102.824164,96.0398274 L102.824164,91.2788379 L101.155241,90.7211326 C97.7708286,89.5901958 95.4965484,86.4352484 95.4965484,82.8710274 C95.4965484,79.3061853 97.7708286,76.1506168 101.155241,75.0190589" id="Fill-10" fill="#141E32" mask="url(#mask-2)"></path>
                <polygon id="Fill-11" fill="#ECA69B" mask="url(#mask-2)" points="35.9228242 101.596509 28.1432088 96.6610042 20.3660769 101.596509 20.3660769 83.1841621 28.1432088 83.1841621 35.9228242 83.1841621"></polygon>
                <path d="M36.6968742,39.4210053 C36.4354841,40.4637526 36.6571379,40.9817105 36.8353302,41.3984368 C36.9334291,41.6288474 37.0035885,41.8170263 37.0433247,41.9580053 L34.6939181,42.6262579 L32.3842478,43.4168579 C32.0303467,42.5858895 31.2977093,40.8711632 31.9583247,38.2341737 C32.7406324,35.1115211 36.2846104,32.7198474 40.9883907,32.1416474 L41.5850555,36.9908263 C38.2155445,37.4056895 36.8229126,38.9167105 36.6968742,39.4210053 M63.8174951,27.2663842 C63.5368577,27.2489947 63.2562203,27.2123526 62.975583,27.2129737 C58.9262093,27.2154579 55.4033412,29.0283105 52.2107808,32.1298474 C49.0194621,29.0283105 45.4953522,27.2154579 41.4465995,27.2129737 C41.166583,27.2129737 40.8859456,27.2496158 40.6046874,27.2663842 C33.4993467,28.0613316 26.6156599,33.0005632 27.0117808,39.2309632 C27.3396049,45.1812684 28.6974676,51.2359105 30.693594,57.1862158 C33.3223962,64.0047526 40.3048027,69.2868053 45.2470005,69.2812158 L50.401539,69.2812158 C51.018072,68.7862368 51.6215665,68.2366053 52.2107808,67.6403947 C52.7999951,68.2366053 53.4047313,68.7856158 54.0200225,69.2812158 L59.174561,69.2812158 C64.1180005,69.2868053 71.1016489,64.0047526 73.7285885,57.1862158 C75.7234731,51.2359105 77.0819566,45.1806474 77.4104016,39.2309632 C77.8065225,32.9999421 70.9222148,28.0613316 63.8174951,27.2663842" id="Fill-12" fill="#CD4026" mask="url(#mask-2)"></path>
                <path d="M98.696311,66.8529621 L94.160789,65.0370042 C94.4470143,64.3234147 94.7139923,63.5998884 94.9629648,62.8676674 L99.5878934,64.4414147 C99.3103604,65.2556147 99.0135802,66.0598779 98.696311,66.8529621" id="Fill-13" fill="#141E32" mask="url(#mask-2)"></path>
                <path d="M55.8586319,4.95128 C54.2822198,4.86619579 52.6747637,4.86495368 51.1002143,4.94569053 L50.8462747,0.0667010526 C52.5946703,-0.0239726316 54.3759725,-0.0221094737 56.1225055,0.0722905263 L55.8586319,4.95128 Z M41.733011,6.46230105 L40.4322692,1.75223789 C42.1204396,1.28520632 43.8576593,0.906364211 45.5948791,0.625648421 L46.3734615,5.44998526 C44.8113297,5.70213263 43.2504396,6.04309053 41.733011,6.46230105 L41.733011,6.46230105 Z M65.2221099,6.48838526 C63.7021978,6.06482737 62.1406868,5.72076421 60.5822802,5.46489053 L61.3726593,0.643037895 C63.105533,0.92748 64.8421319,1.31066947 66.5327857,1.78080632 L65.2221099,6.48838526 Z M32.9134231,9.97062737 L30.6248626,5.65306947 C32.1776813,4.83017474 33.791967,4.08429053 35.4217747,3.43529053 L37.2279121,7.97518526 C35.7607747,8.55897474 34.3091593,9.22971158 32.9134231,9.97062737 L32.9134231,9.97062737 Z M74.030522,10.0159642 C72.6347857,9.27194316 71.185033,8.59685895 69.7228626,8.01182737 L71.5370714,3.47503789 C73.1643956,4.12652211 74.7761978,4.87613263 76.3290165,5.70337474 L74.030522,10.0159642 Z M25.0555769,15.3011221 L21.8940604,11.5760484 C23.2339176,10.43828 24.6482802,9.36199579 26.0986538,8.37824842 L28.8416978,12.4219221 C27.535989,13.3081642 26.2619451,14.2763853 25.0555769,15.3011221 L25.0555769,15.3011221 Z M81.8747088,15.3607432 C80.6720659,14.3360063 79.4017473,13.36468 78.0960385,12.4753326 L80.8477747,8.43724842 C82.2969066,9.42534316 83.7087857,10.5041116 85.0442967,11.6425011 L81.8747088,15.3607432 Z M18.5208242,22.1904589 L14.6366044,19.2286589 C15.7001703,17.8325326 16.8519011,16.4786379 18.059511,15.2067221 L21.6022473,18.5697221 C20.5163297,19.7155642 19.4788407,20.9334484 18.5208242,22.1904589 L18.5208242,22.1904589 Z M88.3945604,22.2649853 C87.4408901,21.0079747 86.4065055,19.7869853 85.319967,18.6367958 L88.8713956,15.2812484 C90.0777637,16.5587537 91.2263901,17.9151326 92.2862308,19.3112589 L88.3945604,22.2649853 Z M13.6183626,30.3175537 L9.18652747,28.2624905 C9.92351099,26.6732168 10.7573516,25.1031958 11.6663187,23.5971432 L15.8485604,26.1223432 C15.0314835,27.47748 14.2808407,28.8885116 13.6183626,30.3175537 L13.6183626,30.3175537 Z M93.2827418,30.4063642 C92.6215055,28.9742168 91.873967,27.5594589 91.0593736,26.2024589 L95.2478242,23.6878168 C96.1524451,25.1957326 96.9838022,26.7676168 97.7176813,28.3593747 L93.2827418,30.4063642 Z M10.5866099,39.3097747 L5.81515385,38.2633011 C6.19078571,36.5504379 6.66637912,34.8363326 7.22765385,33.1700484 L11.8563077,34.7313747 C11.351533,36.2299747 10.9243681,37.7701853 10.5866099,39.3097747 L10.5866099,39.3097747 Z M96.2946264,39.4085221 C95.9599725,37.8664484 95.5359121,36.3243747 95.0342418,34.8245326 L99.6678626,33.2750063 C100.224791,34.9419116 100.696038,36.6566379 101.068566,38.3719853 L96.2946264,39.4085221 Z M9.56774725,48.7497747 L4.68267033,48.7497747 C4.68267033,46.9934379 4.77766484,45.2190905 4.96579121,43.4776589 L9.82168681,43.9999642 C9.65342857,45.5687432 9.56774725,47.1667116 9.56774725,48.7497747 L9.56774725,48.7497747 Z M97.2917582,48.8565958 L97.293,48.7143747 C97.2923791,47.2033537 97.2104231,45.6358168 97.0489945,44.1018168 L101.906132,43.5888274 C102.086187,45.2923747 102.177456,47.0325642 102.177456,48.7603326 L97.2917582,48.8565958 Z M5.8195,59.24308 C5.44200549,57.5308379 5.15453846,55.7757432 4.96579121,54.0262379 L9.82168681,53.5002063 C9.99242857,55.0739537 10.2507143,56.6520484 10.5897143,58.1910168 L5.8195,59.24308 Z M101.015791,59.3523853 L96.2480604,58.2891432 C96.5914066,56.7476905 96.8534176,55.1695958 97.0266429,53.6001958 L101.881918,54.1374063 C101.689445,55.8825642 101.397632,57.6370379 101.015791,59.3523853 L101.015791,59.3523853 Z" id="Fill-14" fill="#141E32" mask="url(#mask-2)"></path>
                <path d="M8.16344286,66.8529621 C7.84617363,66.0598779 7.54939341,65.2556147 7.27186044,64.4414147 L11.896789,62.8676674 C12.1457615,63.5998884 12.4127396,64.3234147 12.6989648,65.0370042 L8.16344286,66.8529621 Z" id="Fill-15" fill="#141E32" mask="url(#mask-2)"></path>
            </g>
        </g>
    </g>
</svg>