<?xml version="1.0" encoding="utf-8"?>
<!-- Generator: Adobe Illustrator 19.1.0, SVG Export Plug-In . SVG Version: 6.00 Build 0)  -->
<svg version="1.1" id="Layer_1" xmlns="http://www.w3.org/2000/svg" xmlns:xlink="http://www.w3.org/1999/xlink" x="0px" y="0px"
	 width="40.6px" height="40.6px" viewBox="0 0 40.6 40.6" enable-background="new 0 0 40.6 40.6" xml:space="preserve">
<path fill="#EE3A00" d="M4.3,32c0-7.8,0-15.6,0-23.4C5.6,8.2,6.8,7.7,8,7.3C13.7,5.2,19.3,3.1,24.9,1C25,1,25.2,1,25.3,1
	c3.6,1.2,7.2,2.3,10.8,3.5c0.1,0,0.1,0,0.2,0.1c0,10.5,0,21,0,31.5c-0.1,0-0.1,0-0.2,0.1c-3.6,1.1-7.3,2.2-10.9,3.3
	c-0.1,0-0.1,0-0.2,0c-3.3-1.2-6.5-2.3-9.8-3.5c-3.5-1.3-7-2.5-10.5-3.8c0,0-0.1,0-0.1,0c0,0,0,0,0,0c6.8,0.8,13.6,1.6,20.5,2.5
	c0,0,0,0,0,0c0-9,0-18.1,0-27.1c0,0,0-0.1,0-0.1c0,0,0,0,0,0c0,0,0,0,0,0c-4.5,1-9,2.1-13.5,3.2c0,6.2,0,12.3,0,18.5
	c-0.1,0-0.1,0.1-0.2,0.1c-2.3,1-4.6,2-6.9,3C4.4,32,4.4,32,4.3,32z"/>
</svg>
