<?xml version="1.0" encoding="utf-8"?>
<!-- Generator: Adobe Illustrator 19.1.0, SVG Export Plug-In . SVG Version: 6.00 Build 0)  -->
<svg version="1.1" id="Layer_1" xmlns="http://www.w3.org/2000/svg" xmlns:xlink="http://www.w3.org/1999/xlink" x="0px" y="0px"
	 viewBox="0 0 400 400" enable-background="new 0 0 400 400" xml:space="preserve">
<path fill="#231F20" d="M302.422,278.022c-18.043,0-33.302,11.42-39.283,27.374l-106.219-61.012
	c0.308-0.869,0.646-1.724,0.909-2.614c1.459-4.924,2.271-10.127,2.271-15.524c0-9.503-2.436-18.434-6.704-26.217
	c-0.674-1.229-1.409-2.419-2.175-3.585l71.448-77.972c6.032,3.34,12.963,5.254,20.347,5.254c23.242,0,42.083-18.841,42.083-42.083
	S266.258,39.56,243.016,39.56c-23.242,0-42.084,18.841-42.084,42.083c0,7.663,2.08,14.825,5.659,21.013l-67.75,80.453
	c-9.228-7.161-20.769-11.476-33.355-11.476c-30.162,0-54.613,24.451-54.613,54.613s24.451,54.613,54.613,54.613
	c16.756,0,31.644-7.636,41.657-19.519l113.528,63.803c0.136,1.129,0.286,2.254,0.508,3.354c3.89,19.221,20.874,33.692,41.242,33.692
	c23.242,0,42.083-18.841,42.083-42.083C344.505,296.863,325.664,278.022,302.422,278.022z M243.016,58.752
	c5.905,0,11.27,2.255,15.33,5.926c1.894,1.713,3.514,3.72,4.751,5.976c1.789,3.262,2.81,7.006,2.81,10.989
	c0,2.262-0.341,4.443-0.952,6.507c-0.796,2.688-2.08,5.158-3.737,7.334c-4.182,5.491-10.768,9.051-18.203,9.051
	c-12.643,0-22.891-10.249-22.891-22.891S230.374,58.752,243.016,58.752z M136.609,249.91c-7.149,9.388-18.411,15.474-31.122,15.474
	c-21.615,0-39.139-17.523-39.139-39.138c0-21.616,17.523-39.139,39.139-39.139c10.096,0,19.268,3.856,26.21,10.132
	c3.238,2.928,6.009,6.361,8.124,10.218c3.059,5.578,4.804,11.978,4.804,18.788c0,3.868-0.583,7.597-1.628,11.125
	C141.637,241.966,139.442,246.19,136.609,249.91z M302.422,346.283c-12.67,0-23.235-9.002-25.655-20.959
	c-0.342-1.687-0.524-3.432-0.524-5.22c0-2.629,0.398-5.163,1.119-7.557c3.244-10.771,13.231-18.621,25.059-18.621
	c14.458,0,26.178,11.72,26.178,26.178C328.6,334.563,316.879,346.283,302.422,346.283z"/>
</svg>
