<?xml version="1.0" encoding="utf-8"?>
<!-- Generator: Adobe Illustrator 19.1.0, SVG Export Plug-In . SVG Version: 6.00 Build 0)  -->
<svg version="1.1" id="Layer_1" xmlns="http://www.w3.org/2000/svg" xmlns:xlink="http://www.w3.org/1999/xlink" x="0px" y="0px"
	 width="400px" height="400px" viewBox="0 0 400 400" enable-background="new 0 0 400 400" xml:space="preserve">
<g id="Layer_x25_20121">
	<path fill="#333333" d="M352.691,152.193C326.288,67.863,236.522,20.906,152.194,47.311
		C67.864,73.713,20.906,163.478,47.309,247.808c0.993,3.169,2.091,6.276,3.261,9.337c0,0.003,0.001,0.004,0.002,0.007
		c0.063,0.201,0.143,0.392,0.216,0.586c0.055,0.142,0.109,0.284,0.164,0.426c2.014,4.625,7.228,7.084,12.151,5.543
		c5.273-1.65,8.206-7.26,6.556-12.532c-0.104-0.336-0.227-0.662-0.363-0.979c-1.05-2.738-2.02-5.524-2.909-8.361
		C43.281,168.042,84.373,89.491,158.165,66.386c73.794-23.105,152.345,17.985,175.45,91.78
		c23.106,73.795-17.987,152.345-91.78,175.449c-51.08,15.993-104.436,1.222-140.107-33.86c-0.26-0.256-0.518-0.514-0.777-0.772
		c-2.539-2.264-6.163-3.185-9.645-2.094c-5.271,1.65-8.205,7.261-6.556,12.531c0.555,1.773,1.565,3.273,2.852,4.433
		c-0.001-0.002-0.002-0.003-0.004-0.004c-0.007,0.006-0.012,0.013-0.018,0.02c40.763,40.181,101.793,57.119,160.226,38.823
		C332.137,326.288,379.094,236.523,352.691,152.193z"/>
	<path fill="#333333" d="M199.831,109.951c-5.49,0-9.94,4.477-9.94,10l0.001,136.526l-39.923-40.165
		c-3.882-3.904-10.176-3.905-14.058,0c-3.882,3.905-3.881,10.237,0.001,14.143l56.228,56.568c2.026,2.038,4.709,3.002,7.364,2.913
		c0.095,0.003,0.19,0.013,0.285,0.014c0.014,0,0.028,0.002,0.043,0.002c0.016,0,0.031-0.002,0.048-0.002
		c0.311-0.001,0.622-0.017,0.932-0.047c0.154-0.015,0.304-0.044,0.456-0.066c0.168-0.025,0.338-0.044,0.505-0.078
		c0.171-0.034,0.337-0.082,0.505-0.124c0.146-0.038,0.294-0.069,0.438-0.113c0.164-0.05,0.321-0.112,0.481-0.169
		c0.147-0.053,0.294-0.102,0.438-0.162c0.146-0.061,0.287-0.132,0.43-0.2c0.152-0.072,0.305-0.14,0.454-0.22
		c0.133-0.071,0.259-0.153,0.387-0.23c0.15-0.089,0.301-0.175,0.447-0.273c0.135-0.091,0.262-0.193,0.392-0.29
		c0.13-0.098,0.264-0.189,0.391-0.294c0.199-0.164,0.386-0.341,0.572-0.52c0.05-0.048,0.104-0.09,0.153-0.14l56.228-56.569
		c3.883-3.905,3.883-10.236,0-14.142c-3.882-3.905-10.175-3.905-14.057,0l-39.26,39.497l-0.001-135.858
		C209.771,114.428,205.321,109.95,199.831,109.951z"/>
</g>
</svg>
