<?xml version="1.0" encoding="utf-8"?>
<!-- Generator: Adobe Illustrator 20.1.0, SVG Export Plug-In . SVG Version: 6.00 Build 0)  -->
<svg version="1.1" id="Layer_1" xmlns="http://www.w3.org/2000/svg" xmlns:xlink="http://www.w3.org/1999/xlink" x="0px" y="0px"
	 width="400px" height="400px" viewBox="0 0 400 400" enable-background="new 0 0 400 400" xml:space="preserve">
<path fill-rule="evenodd" clip-rule="evenodd" fill="#333333" d="M304.4,200.9c-4-11.4-14.8-19.6-27.5-20c-0.3,0-0.5,0-0.8,0h-16.3
	l-8.8-80c12.6-0.5,23.1-8.7,27.1-20c1.1-3.1,1.7-6.5,1.7-10s-0.6-6.9-1.7-10c-4-11.4-14.8-19.6-27.5-20c-0.3,0-0.5,0-0.8,0h-99.6
	c0,0,0,0-0.1,0c-13,0-24.1,8.4-28.2,20c-1.1,3.1-1.7,6.5-1.7,10s0.6,6.9,1.7,10c4,11.3,14.5,19.4,27.1,20l-8.8,80h-17.7
	c0,0,0,0-0.1,0c-13,0-24.1,8.4-28.2,20c-1.1,3.1-1.7,6.5-1.7,10c0,3.5,0.6,6.9,1.7,10c4.1,11.6,15.2,20,28.2,20c0,0,0,0,0.1,0h39.2
	l28.6,112c0.9,4.8,5.2,8.2,10,8.1c4.8,0.1,9-3.3,10-8.1l27.4-112h38.6c0.3,0,0.5,0,0.8,0c12.7-0.3,23.4-8.6,27.5-20
	c1.1-3.1,1.7-6.5,1.7-10C306.1,207.3,305.5,204,304.4,200.9z M199.9,310.3l-17.7-69.5h34.7L199.9,310.3z M277,220.8c0,0-0.1,0-0.1,0
	c-0.3,0-0.5,0-0.8,0c-0.4,0-0.7,0-1.1-0.1H123.5c-0.3,0-0.7,0.1-1.1,0.1c-0.2,0-0.4,0-0.6,0c-0.1,0-0.2,0-0.3,0
	c-5.1-0.4-9.2-4.7-9.2-10c0-5.3,4-9.5,9.2-10c0.1,0,0.2,0,0.3,0c0.2,0,0.4,0,0.6,0c0.4,0,0.7,0,1.1,0.1h24.5
	c0.4,0.1,0.8,0.1,1.3,0.1c0.4,0,0.9,0,1.3-0.1c4.8-0.6,8.6-4.7,8.7-9.7c0,0,0,0,0.1,0l1.1-10.4h0l8.8-79.9h20.1c5.5,0,10-4.5,10-10
	s-4.5-10-10-10h-28c-0.3,0-0.6,0-0.9,0c-0.1,0-0.1,0-0.2,0c-0.1,0-0.2,0-0.3,0c0,0,0,0,0,0l-8.5,0c0,0,0,0-0.1,0
	c-0.3,0-0.7,0.1-1,0.1c0.4,0,0.7,0,1.1-0.1h-1.9c-5.1-0.4-9.2-4.7-9.2-10s4-9.5,9.2-10h1.9h27.2h43h27.2h2c5.1,0.5,9.1,4.7,9.1,10
	s-4,9.5-9.1,10h-2c0.3,0,0.7,0.1,1.1,0.1c-0.4,0-0.7,0-1.1-0.1c0,0,0,0,0,0h-9c0,0,0,0,0,0c0,0,0,0,0,0c-5.5,0-10,4.5-10,10
	c0,0.1,0,0.2,0,0.3l0.1,1.2l0,0.4l0.8,8.1l8.8,79.9h-0.1l1.1,10.3c0,0.5,0.1,1.1,0.2,1.6c0.9,4.6,4.9,8.1,9.8,8.1c0.2,0,0.4,0,0.5,0
	c0,0,0,0,0,0.1H275c0.3,0,0.7-0.1,1.1-0.1c0.3,0,0.5,0,0.8,0c0.1,0,0.1,0,0.1,0c5.1,0.5,9.1,4.7,9.1,10S282.1,220.3,277,220.8z"/>
</svg>
