<?xml version="1.0" encoding="utf-8"?>
<!-- Generator: Adobe Illustrator 20.1.0, SVG Export Plug-In . SVG Version: 6.00 Build 0)  -->
<svg version="1.1" id="Layer_1" xmlns="http://www.w3.org/2000/svg" xmlns:xlink="http://www.w3.org/1999/xlink" x="0px" y="0px"
	 width="400px" height="400px" viewBox="0 0 400 400" enable-background="new 0 0 400 400" xml:space="preserve">
<g>
	<circle fill-rule="evenodd" clip-rule="evenodd" fill="#333333" cx="209.7" cy="239.7" r="10"/>
	<circle fill-rule="evenodd" clip-rule="evenodd" fill="#333333" cx="310.1" cy="239.7" r="10"/>
	<circle fill-rule="evenodd" clip-rule="evenodd" fill="#333333" cx="259.9" cy="239.7" r="10"/>
	<path fill-rule="evenodd" clip-rule="evenodd" fill="#333333" d="M359.9,310.1c0-0.5,0-1-0.1-1.4V170.2c0-2.6-1-5-2.6-6.8
		c-1.8-2.4-4.7-3.9-7.9-3.9H260V49.9c0-5.5-4.5-10-10-10c0,0-0.1,0-0.1,0c0,0,0,0,0,0h-180c0,0,0,0,0,0c0,0,0,0,0,0
		c-5.5,0-10,4.5-10,10v119.5c-0.1,0.5-0.1,0.9-0.1,1.4c0,0.5,0.1,1.1,0.1,1.6c0.3,5.2,4.6,8.5,10,8.5c0.5,0,1.1,0,1.6-0.1h34.3
		l36.5,36.5c3.9,3.9,10.2,3.9,14.1,0c3.9-3.9,3.9-10.2,0-14.1l-39.3-39.3c-0.7-0.7-1.4-1.2-2.2-1.7c-1.5-0.9-3.2-1.4-5.1-1.4H79.9
		V59.9H240v99.7h-70.8c-5.5,0-10,4.5-10,10c0,0.9,0.1,1.8,0.4,2.6v139c0,5.5,4.5,9,10,9c0.9,0,1.7-0.1,2.6-0.3h78.2
		c5.5,0,10-4.5,10-10s-4.5-10-10-10h-70.8V179.6h160.2v120.5h-29.9c-1.9,0-3.6,0.5-5.1,1.4c-0.8,0.4-1.5,1-2.2,1.7l-39.3,39.3
		c-3.9,3.9-3.9,10.2,0,14.1c3.9,3.9,10.2,3.9,14.1,0l36.5-36.5h34.3c0.5,0.1,1,0.1,1.6,0.1c5.4,0,9.7-3.3,10-8.5
		C359.8,311.2,359.9,310.6,359.9,310.1z"/>
	<circle fill-rule="evenodd" clip-rule="evenodd" fill="#333333" cx="209.9" cy="110.4" r="10"/>
	<circle fill-rule="evenodd" clip-rule="evenodd" fill="#333333" cx="109.5" cy="110.4" r="10"/>
	<circle fill-rule="evenodd" clip-rule="evenodd" fill="#333333" cx="159.7" cy="110.4" r="10"/>
</g>
</svg>
