<?xml version="1.0" encoding="utf-8"?>
<!-- Generator: Adobe Illustrator 19.1.0, SVG Export Plug-In . SVG Version: 6.00 Build 0)  -->
<svg version="1.1" id="Layer_1" xmlns="http://www.w3.org/2000/svg" xmlns:xlink="http://www.w3.org/1999/xlink" x="0px" y="0px"
	 width="400px" height="400px" viewBox="0 0 400 400" enable-background="new 0 0 400 400" xml:space="preserve">
<g id="Layer_x25_20117">
	<path fill="#333333" d="M352.691,152.193C326.288,67.863,236.522,20.906,152.194,47.311
		C67.864,73.713,20.906,163.478,47.309,247.808c0.993,3.169,2.091,6.276,3.261,9.337c0,0.003,0.001,0.004,0.002,0.007
		c0.063,0.201,0.143,0.392,0.216,0.586c0.055,0.142,0.109,0.284,0.164,0.426c2.014,4.625,7.228,7.084,12.151,5.543
		c5.273-1.65,8.206-7.26,6.556-12.532c-0.104-0.336-0.227-0.662-0.363-0.979c-1.05-2.738-2.02-5.524-2.909-8.361
		C43.281,168.042,84.373,89.49,158.165,66.386c73.794-23.104,152.345,17.985,175.45,91.78
		c23.106,73.795-17.987,152.345-91.78,175.449c-51.08,15.993-104.436,1.222-140.107-33.86c-0.26-0.256-0.518-0.514-0.777-0.772
		c-2.539-2.264-6.163-3.185-9.645-2.094c-5.271,1.65-8.205,7.261-6.556,12.531c0.555,1.773,1.565,3.273,2.852,4.433
		c-0.001-0.002-0.002-0.003-0.004-0.004c-0.007,0.006-0.012,0.013-0.018,0.02c40.763,40.181,101.793,57.119,160.226,38.823
		C332.137,326.288,379.094,236.523,352.691,152.193z"/>
	<g>
		<path fill="#333333" d="M257.15,195.633c3.794,3.678,3.801,9.611,0.02,13.234l0,0c-3.767,3.61-9.86,3.548-13.615-0.12
			L162.728,129.8c-3.578-3.495-3.646-9.295-0.146-12.972l0,0c3.512-3.69,9.294-3.856,12.908-0.352L257.15,195.633z"/>
	</g>
	<g>
		<path fill="#333333" d="M242.37,198.024c3.676-3.785,9.606-3.792,13.227-0.02l0,0c3.608,3.758,3.546,9.837-0.12,13.583
			l-78.905,80.642c-3.493,3.57-9.29,3.638-12.965,0.146l0,0c-3.688-3.504-3.854-9.272-0.352-12.879L242.37,198.024z"/>
	</g>
</g>
</svg>
