<svg id="Layer_1" data-name="Layer 1" xmlns="http://www.w3.org/2000/svg" viewBox="0 0 400 400"><defs><style>.cls-1{fill:#231f20;}</style></defs><title>icons-interests</title><path class="cls-1" d="M354.87,219.14c-5.78-4-11.62-8.19-17.27-12.22-14.35-10.24-29.19-20.84-44.55-30.09-21-12.64-44.74-19-67.71-25.12-5-1.34-10.23-2.73-15.3-4.16-4.89-1.38-11.59-1.07-15.71,8.25-1.7,3.85-3.48,7.75-5.2,11.52-2.93,6.43-6,13.08-8.73,19.72-9.66,23.12-20.91,54.49-22.12,92.24-.44,26.33,6.31,48.75,20,66.62,9.38,12.21,20.94,18.34,35.33,18.76,1,0,1.93,0,2.89,0,26.2,0,50-10.42,74.69-32.63,30-27,48.94-61.4,67.27-97.24C361.66,228.66,360.33,222.95,354.87,219.14Zm-.81,13.4c-18.11,35.41-36.8,69.38-66.17,95.8-24.57,22.11-48.11,32.06-74.08,31.31-12.79-.37-23.1-5.87-31.51-16.81-13-16.95-19.43-38.31-19-63.45,1.18-36.9,12.24-67.71,21.74-90.44,2.75-6.57,5.76-13.18,8.67-19.58,1.72-3.78,3.5-7.7,5.22-11.57s3.95-5.88,7-5.88a10.21,10.21,0,0,1,2.76.42c5.11,1.44,10.32,2.83,15.37,4.18,22.63,6,46,12.3,66.42,24.58,15.19,9.15,29.95,19.69,44.22,29.87,5.66,4,11.51,8.22,17.32,12.26C355.43,225.63,356.09,228.58,354.06,232.54Z"/><path class="cls-1" d="M196.08,270.84l-2.33,1.58c1.24,9,1.78,18.11,3.85,26.89,5.87,24.93,23.92,35.4,48.43,28.39,10.89-3.11,20.32-9,28.81-17.35C238.29,317.85,212,305,196.08,270.84Z"/><path class="cls-1" d="M129.12,119.51l-2.31-.43c-11.71-2.18-22.21-.16-30.37,5.83S83,140.63,81.54,152.79l-.27,2.28,2.25.47a45.42,45.42,0,0,0,9.26,1,34.79,34.79,0,0,0,20.58-6.38c8.46-6.06,14-16.1,15.47-28.29Z"/><path class="cls-1" d="M167.21,192.84c-16.31,3.71-27,14-37.84,25.45,1-10.61,5-19.74,11.89-26.68,8.63-8.73,20.84-13.3,35.44-13.13l1.62,0L179,177l3.1-6.8c2.27-5,4.62-10.16,7-15.22,6.41-13.64,15.47-19.12,28.5-17.25a38.51,38.51,0,0,1,7.36,2.13c1.22.44,2.49.89,3.78,1.3l2.86.9.37-3c0-.29.08-.54.12-.77a7.43,7.43,0,0,0,.15-2c-2.62-30.86-11.35-59.59-21.64-91.27-1.93-6-6.74-8.88-12.84-7.83-7,1.2-14.13,2.35-21,3.47-18.18,2.93-37,6-55.19,10.28C97,56.82,75.6,70.1,54.93,82.94c-4.52,2.81-9.2,5.72-13.83,8.49-3.79,2.28-7.53,6.83-3.79,15.62,2.83,6.66,5.63,13.48,8.33,20.08,6.44,15.72,13.1,32,20.85,47.4,14.87,29.6,33.54,51,57.06,65.38A160.5,160.5,0,0,0,142,249.15c2.73,1.22,5.55,2.48,8.23,3.77l2.64,1.27,18.5-62.29Zm-17.46,54.32c-1.9-.88-3.83-1.74-5.71-2.58a156.59,156.59,0,0,1-17.88-8.92C103.46,221.77,85.4,201,71,172.3,63.29,157,56.67,140.87,50.27,125.24c-2.71-6.62-5.51-13.46-8.36-20.15-2.48-5.84-.5-8,1.76-9.37C48.33,92.93,53,90,57.56,87.19c20.33-12.63,41.35-25.69,65.1-31.32,18-4.27,36.75-7.29,54.84-10.21,6.91-1.12,14.06-2.27,21.08-3.48a9,9,0,0,1,1.53-.14c2.79,0,4.71,1.54,5.7,4.59,10,30.88,18.57,58.91,21.29,88.69l-.47-.17a42.74,42.74,0,0,0-8.34-2.37c-15.1-2.17-26.45,4.58-33.73,20.08-2.39,5.09-4.75,10.27-7,15.28l-2.43,5.33c-15,.21-28.28,5.37-37.41,14.61s-13.87,22-13.55,36.78l.13,6.1,6-6.33c10.23-10.88,20-21.21,33.84-25.76Z"/><path class="cls-1" d="M202.83,109c-16.06-15.91-37.56-15.36-51.82,1.33C166.75,126.35,188.82,125.78,202.83,109Z"/><path class="cls-1" d="M255.24,219c-13.46-18.57-34.38-21.2-52.42-6.29C215.74,231.39,237.22,233.83,255.24,219Z"/><path class="cls-1" d="M280.84,227.9c.37,22.46,16.75,37.26,38.48,34.74C318.64,240,302.67,225.63,280.84,227.9Z"/></svg>