<?xml version="1.0" encoding="utf-8"?>
<!-- Generator: Adobe Illustrator 19.1.0, SVG Export Plug-In . SVG Version: 6.00 Build 0)  -->
<svg version="1.1" id="Layer_1" xmlns="http://www.w3.org/2000/svg" xmlns:xlink="http://www.w3.org/1999/xlink" x="0px" y="0px"
	 width="400px" height="400px" viewBox="0 0 400 400" enable-background="new 0 0 400 400" xml:space="preserve">
<g id="Layer_x25_20190">
	<path fill="#333333" d="M206.045,41.556c-1.664-1.084-3.622-1.647-5.608-1.621c1.569,0.021,3.156,0.406,4.631,1.207L206.045,41.556
		z"/>
	<path fill="#333333" d="M200.437,39.936c-1.987-0.026-3.944,0.537-5.608,1.621l0.978-0.414
		C197.28,40.342,198.867,39.956,200.437,39.936z"/>
	<path fill="#333333" d="M329.309,96.357c-0.138-0.284-0.29-0.561-0.455-0.831c-0.001-0.003-0.003-0.006-0.005-0.009
		c-0.165-0.271-0.344-0.533-0.536-0.788c-0.001-0.002-0.002-0.003-0.002-0.003c-0.386-0.514-0.824-0.991-1.311-1.428l-0.001-0.001
		c-0.569-0.509-1.198-0.968-1.898-1.349L206.045,41.557l0,0l-0.001,0c-1.663-1.083-3.621-1.646-5.607-1.62
		c-1.987-0.026-3.944,0.537-5.607,1.62l-0.001,0l0,0L75.773,91.949c-0.83,0.45-1.562,1.007-2.206,1.635
		c-0.36,0.351-0.69,0.725-0.989,1.121c-0.008,0.01-0.015,0.021-0.023,0.031c-0.295,0.393-0.561,0.804-0.793,1.232
		c-19.706,26.594-31.368,59.505-31.368,95.147c0,54.017,26.771,101.777,67.764,130.749c0.021-0.039,0.045-0.077,0.071-0.113
		c1.793,1.7,4.208,2.75,6.874,2.75c5.523,0,10-4.477,10-10c0-3.26-1.567-6.147-3.982-7.973c-0.234-0.161-0.466-0.323-0.699-0.485
		c-36.289-25.299-60.039-67.336-60.039-114.928c0-30.797,9.95-59.266,26.802-82.381l113.252-47.936l113.119,47.88
		c16.879,23.126,26.85,51.613,26.85,82.437c0,77.114-62.342,139.658-139.372,140.003c-0.226-0.015-0.451-0.034-0.681-0.034
		c-0.225,0-0.444,0.019-0.664,0.034c-5.211,0.343-9.336,4.668-9.336,9.966c0,5.523,4.477,10,10,10c0.144,0,0.285-0.016,0.427-0.021
		c-0.003,0.016-0.006,0.032-0.011,0.047c88.192-0.203,159.625-71.753,159.625-159.995
		C360.394,155.646,348.842,122.882,329.309,96.357z"/>
	<path fill="#333333" d="M170.561,249.5c0,5.523-4.477,10-10,10l0,0c-5.523,0-10-4.477-10-10v-99c0-5.523,4.477-10,10-10l0,0
		c5.523,0,10,4.477,10,10V249.5z"/>
	<path fill="#333333" d="M251.061,249.5c0,5.523-4.477,10-10,10l0,0c-5.523,0-10-4.477-10-10v-99c0-5.523,4.477-10,10-10l0,0
		c5.523,0,10,4.477,10,10V249.5z"/>
	<path fill="#333333" d="M160.728,209.834c-5.523,0-10-4.477-10-10l0,0c0-5.523,4.477-10,10-10h51c5.523,0,10,4.477,10,10l0,0
		c0,5.523-4.477,10-10,10H160.728z"/>
</g>
</svg>
