<svg id="Layer_1" data-name="Layer 1" xmlns="http://www.w3.org/2000/svg" viewBox="0 0 400 400"><defs><style>.cls-1{fill:#333;}</style></defs><title>icon</title><g id="Layer_20183" data-name="Layer%20183"><path class="cls-1" d="M119.65,160A80.33,80.33,0,0,1,239.59,90.45,80.57,80.57,0,0,1,268.26,118L301.7,95.8c-0.62-1-1.24-1.93-1.89-2.88s-1.33-1.95-2-2.9a120.63,120.63,0,0,0-207,19.15,118.61,118.61,0,0,0-9.62,30.62A121.35,121.35,0,0,0,79.5,160c0,17.25,8.17,39.05,20.23,61.88,1,2,2.17,4,3.26,6l31.79-21.13A79.49,79.49,0,0,1,119.65,160Zm81.09-12.83-8.44,1.18c4.06-8.41,4.57-8.5,15.34-2.46l-2.55-5,16,9.48C217.47,155.07,205.28,153.54,200.75,147.18Zm-33.06-29.69c19.39-15.5,49.7-15.71,66.3-.61-11.66,5.2-26.29-5-37.4,7l9.27,4.28,2.57-6.5c1,0.92,2.34,2.11,5.52,5-5,1.16-8.29,2.49-11.59,2.53-4.52.05-12.11,7-11.28,11.63-4.78-.12-6.86,1.51-4.93,6.79,0.62,1.67-1.3,4.76-2.78,6.63-5.54,7-5.79,15.45.25,20.4a13.37,13.37,0,0,0,7.69,2.6c8.88,0.17,12.25,3.36,11.88,12.24-0.06,1.2-.84,2.63-0.41,3.53,1.74,3.52,3.16,7.79,6.08,9.87,1.31,0.93,6.67-2,8.75-4.38,3.64-4.19,10-7.19,8.19-14.78-0.24-1,2.5-2.67,3.57-4.22a42.73,42.73,0,0,0,4.76-9c-5.6,2.89-7.69,1.11-8.18-5,1.69,1.91,2.68,3,3.86,4.39L241.69,162l-10.13-5.59c11.63,0.45,17.8,5,18.84,16l6.87-10.76c2.09,20-11.25,41.32-30.4,50.87-21.64,10.78-45.64,7.34-63.39-8.85l4-8.85C160.23,188,153.56,182,147.3,175.69c-4.5-4.57-3-20.54,2.52-24.35,4.67-3.23,5.78-6.37,4.3-12-1-3.69.91-8.13,1.52-12.24l2.7,0.06,2,6.76C163.09,128.34,173.11,126.12,167.68,117.49Zm99.48,44.94a65.39,65.39,0,0,0-64.85-65.66c-35.66-.34-65.84,28.74-66.07,63.69-0.25,37.37,28,66.62,64.8,67.18C237.07,228.19,266.94,198.73,267.17,162.43ZM268.37,118a79.29,79.29,0,0,1,12,42c0,0.47,0,.94,0,1.4a79.37,79.37,0,0,1-13.06,42.37,80.35,80.35,0,0,1-132.36,3l-31.8,21.13c5.62,10.18,11.91,20.48,18.56,30.63,15.42,23.56,32.61,46.22,46.95,64.12C186.55,345,200.06,360,200.06,360s16.39-18.2,37.06-44.49c6.05-7.69,12.47-16.07,19-24.89,18.78-25.56,38.08-54.79,50.61-81.59a172.93,172.93,0,0,0,11.05-29.64A78.88,78.88,0,0,0,320.5,160a119.19,119.19,0,0,0-18.69-64.22Z"/></g></svg>