<?xml version="1.0" encoding="utf-8"?>
<!-- Generator: Adobe Illustrator 19.1.0, SVG Export Plug-In . SVG Version: 6.00 Build 0)  -->
<svg version="1.1" id="Layer_1" xmlns="http://www.w3.org/2000/svg" xmlns:xlink="http://www.w3.org/1999/xlink" x="0px" y="0px"
	 viewBox="0 0 400 400" enable-background="new 0 0 400 400" xml:space="preserve">
<g>
	<path fill="#231F20" d="M46.06,149.564c0.167-0.484,0.402-0.956,0.491-1.454c1.365-7.697,8.035-13.313,15.861-13.334
		c7.904-0.021,14.755,5.71,16.043,13.458c0.171,1.028,0.233,2.084,0.233,3.128c0.013,20.33,0.01,40.661,0.01,60.991
		c0,0.39,0,0.78,0,1.226c-0.455,0.241-0.876,0.459-1.293,0.684c-5.754,3.099-9.878,7.625-11.64,13.978
		c-2.137,7.705-0.338,14.6,4.945,20.546c4.144,4.663,8.404,9.222,12.607,13.833c6.936,7.608,13.873,15.217,20.8,22.834
		c1.953,2.148,3.483,4.576,4.616,7.25c0.72,1.7,1.153,3.47,1.244,5.321c0.036,0.736,0.111,1.469,0.172,2.256
		c3.483,0,6.875,0,10.454,0c0.004-0.589,0.031-1.177,0.008-1.762c-0.189-4.798-1.505-9.272-3.883-13.438
		c-1.628-2.852-3.541-5.495-5.786-7.898c-10.485-11.22-20.98-22.431-31.438-33.676c-6.66-7.161-3.399-18.696,6.014-21.238
		c4.551-1.229,8.627-0.152,12.157,2.969c0.326,0.288,0.624,0.61,0.932,0.919c22.228,22.318,44.458,44.634,66.682,66.956
		c4.736,4.757,8.176,10.29,9.945,16.807c0.884,3.255,1.4,6.573,1.458,9.94c0.078,4.536,0.069,9.073,0.064,13.61
		c-0.006,6.326-0.043,12.651-0.067,18.977c-19.459,0-38.918,0-58.377,0c0.036-0.213,0.104-0.426,0.103-0.639
		c-0.015-3.969-0.002-7.939-0.068-11.907c-0.085-5.136-2.041-9.481-5.692-13.082c-0.962-0.949-1.892-1.932-2.819-2.916
		c-16.869-17.909-33.775-35.783-50.584-53.747c-7.492-8.007-11.549-17.636-12.706-28.516c-0.091-0.855-0.321-1.696-0.486-2.543
		C46.06,209.25,46.06,179.407,46.06,149.564z"/>
	<path fill="#231F20" d="M226.166,352.445c0.02-0.522,0.059-1.043,0.059-1.565c-0.013-8.986-0.03-17.971-0.05-26.957
		c-0.01-4.505,0.288-8.979,1.399-13.363c1.646-6.495,4.871-12.137,9.57-16.867c22.593-22.746,45.211-45.468,67.869-68.15
		c7.017-7.024,18.96-3.788,21.508,5.777c1.225,4.598,0.152,8.745-3.097,12.237c-10.578,11.368-21.214,22.682-31.764,34.076
		c-4.053,4.377-7.072,9.394-8.519,15.255c-0.589,2.384-0.86,5.334-0.662,7.443c3.4,0.018,6.819,0.01,10.328,0.005
		c0.102-1.126,0.193-2.154,0.287-3.182c0.195-2.117,0.894-4.078,1.853-5.956c1.117-2.186,2.489-4.194,4.147-6.011
		c10.609-11.635,21.212-23.277,31.818-34.916c0.646-0.709,1.323-1.393,1.941-2.126c8.389-9.949,6.44-24.407-4.341-32.06
		c-1.309-0.929-2.736-1.692-4.196-2.586c0-0.318,0-0.708,0-1.098c0-20.457-0.031-40.915,0.019-61.372
		c0.016-6.507,3.038-11.393,8.758-14.424c8.8-4.662,19.681-0.174,22.781,9.281c0.281,0.856,0.442,1.752,0.659,2.629
		c0,30.89,0,61.78,0,92.671c-0.075,0.241-0.181,0.477-0.221,0.723c-0.369,2.275-0.567,4.591-1.116,6.821
		c-2.026,8.243-5.879,15.532-11.72,21.734c-10.315,10.953-20.623,21.912-30.944,32.859c-7.539,7.996-15.087,15.982-22.644,23.961
		c-2.619,2.765-4.409,5.949-4.962,9.743c-0.219,1.505-0.333,3.036-0.355,4.557c-0.054,3.619-0.024,7.239-0.028,10.859
		C265.084,352.445,245.625,352.445,226.166,352.445z"/>
	<path fill="#231F20" d="M134.281,38.307c0.533,0.158,1.062,0.338,1.601,0.472c6.514,1.611,10.863,7.298,10.707,14.009
		c-0.148,6.35-4.864,11.868-11.265,13.182c-7.372,1.514-14.825-3.245-16.458-10.508c-1.684-7.489,2.832-14.812,10.274-16.667
		c0.584-0.146,1.159-0.325,1.739-0.488C132.012,38.307,133.146,38.307,134.281,38.307z"/>
	<path fill="#231F20" d="M294.934,139.964c-0.373-0.047-0.583-0.095-0.793-0.097c-1.13-0.008-2.259-0.004-3.549-0.004
		c-0.018,0.576-0.047,1.08-0.048,1.585c-0.003,12.565-0.002,25.129-0.002,37.694c0,7.897,0.001,15.793-0.003,23.69
		c0,0.522,0.006,1.053-0.083,1.564c-0.51,2.907-3.112,4.991-5.961,4.807c-2.915-0.188-5.184-2.472-5.392-5.44
		c-0.03-0.434-0.013-0.872-0.013-1.308c-0.001-10.427,0-20.854,0-31.281c0-0.515,0-1.029,0-1.628c-1.494,0-2.87,0-4.42,0
		c-0.015,0.491-0.044,0.995-0.044,1.498c-0.003,10.514-0.002,21.028-0.003,31.543c0,0.48,0.013,0.961-0.023,1.439
		c-0.216,2.859-2.71,5.156-5.614,5.182c-2.858,0.026-5.365-2.145-5.681-4.952c-0.078-0.691-0.07-1.393-0.07-2.091
		c-0.003-21.639-0.003-43.279-0.003-64.918c0-0.565,0-1.131,0-1.782c-0.342-0.127-0.65-0.268-0.972-0.358
		c-4.364-1.224-8.73-2.441-13.094-3.662c-0.462-0.129-0.923-0.263-1.376-0.416c-1.87-0.632-3.075-1.861-3.604-3.804
		c-2.406-8.83-4.845-17.651-7.273-26.475c-0.867-3.151-1.732-6.303-2.602-9.454c-0.103-0.372-0.23-0.737-0.356-1.138
		c-1.701,0-3.348,0-5.092,0c-0.037,0.347-0.088,0.677-0.104,1.009c-0.018,0.392-0.004,0.785-0.004,1.178
		c0,35.513,0.001,71.026-0.008,106.538c0,0.868-0.028,1.751-0.188,2.6c-0.774,4.1-4.473,6.868-8.661,6.532
		c-4.116-0.33-7.25-3.616-7.407-7.775c-0.021-0.566-0.011-1.134-0.011-1.701c0-19.72,0-39.439,0-59.159c0-0.561,0-1.122,0-1.78
		c-1.006-0.258-1.959-0.102-2.895-0.13c-0.958-0.028-1.917-0.006-3.062-0.006c-0.016,0.549-0.044,1.05-0.044,1.551
		c-0.003,9.467-0.002,18.934-0.002,28.402c0,10.601,0.009,21.203-0.015,31.804c-0.002,0.993-0.086,2.02-0.349,2.972
		c-1.07,3.879-4.717,6.234-8.819,5.786c-3.775-0.412-6.778-3.567-7.055-7.431c-0.05-0.695-0.041-1.395-0.041-2.093
		c-0.002-35.469-0.002-70.938-0.002-106.408c0-0.602,0-1.203,0-1.872c-1.66,0-3.172,0-4.808,0c-0.174,0.532-0.377,1.094-0.541,1.666
		c-3.336,11.647-6.675,23.293-9.993,34.946c-0.604,2.121-1.77,3.759-3.957,4.309c-3.696,0.929-6.725-0.548-7.767-4.221
		c-2.177-7.673-4.386-15.336-6.581-23.003c-1.175-4.106-2.348-8.213-3.526-12.318c-0.131-0.457-0.29-0.906-0.447-1.394
		c-1.695,0-3.343,0-5.182,0c5.173,21.621,10.326,43.163,15.529,64.909c-4.595,0.047-9.053-0.004-13.665,0.031
		c0,0.643,0,1.154,0,1.665c0,14.572,0.005,29.143-0.011,43.715c-0.001,0.907-0.036,1.849-0.275,2.714
		c-0.896,3.25-4.101,5.36-7.388,4.96c-3.35-0.408-5.888-3.132-6.058-6.517c-0.029-0.566-0.018-1.134-0.018-1.701
		c-0.001-14.353-0.001-28.707-0.001-43.06c0-0.553,0-1.106,0-1.722c-1.998,0-3.816,0-5.814,0c-0.019,0.505-0.053,1.007-0.053,1.51
		c-0.003,12.085-0.002,24.17-0.003,36.254c0,2.879,0.052,5.76-0.023,8.638c-0.098,3.773-3.257,6.704-7.029,6.63
		c-3.544-0.07-6.482-2.904-6.675-6.449c-0.031-0.566-0.021-1.134-0.021-1.701c-0.001-14.397-0.001-28.794-0.001-43.191
		c0-0.517,0-1.034,0-1.73c-4.656-0.07-9.208,0.016-13.904-0.051c5.244-21.693,10.453-43.24,15.686-64.889c-1.807,0-3.451,0-5.219,0
		c-0.132,0.429-0.278,0.874-0.407,1.323c-3.402,11.855-6.82,23.705-10.189,35.569c-0.648,2.28-1.983,3.75-4.306,4.231
		c-2.423,0.502-4.512-0.215-6.147-2.037c-1.41-1.572-1.507-3.453-0.942-5.415c1.254-4.356,2.5-8.713,3.751-13.07
		c2.442-8.503,4.882-17.007,7.328-25.509c0.827-2.876,2.041-5.573,3.92-7.922c3.565-4.457,8.188-6.821,13.932-6.833
		c8.725-0.018,17.451-0.011,26.177-0.003c6.119,0.006,10.923,2.6,14.521,7.486c1.674,2.273,2.75,4.841,3.525,7.545
		c1.644,5.74,3.295,11.478,4.945,17.216c0.096,0.333,0.208,0.66,0.398,1.259c0.198-0.549,0.335-0.87,0.431-1.203
		c1.656-5.736,3.308-11.474,4.957-17.212c0.938-3.262,2.301-6.315,4.547-8.898c3.512-4.038,7.94-6.181,13.32-6.19
		c11.43-0.02,22.861-0.015,34.291-0.003c6.223,0.006,11.079,2.673,14.679,7.688c1.567,2.183,2.595,4.631,3.333,7.206
		c3.484,12.149,6.97,24.297,10.458,36.445c0.167,0.581,0.354,1.156,0.547,1.784c1.739,0.17,3.424,0.392,5.116,0.488
		c2.654,0.151,5.312,0.29,7.969,0.305c7.286,0.041,14.572-0.021,21.857,0.03c4.225,0.029,7.678,1.783,10.314,5.079
		c1.69,2.113,2.579,4.553,2.586,7.265c0.02,8.115,0.016,16.229,0.003,24.344c-0.004,2.473-1.44,4.187-3.691,4.499
		c-2.24,0.31-4.4-1.329-4.684-3.578c-0.065-0.517-0.056-1.045-0.057-1.568c-0.003-6.326-0.002-12.652-0.002-18.978
		C294.934,141.01,294.934,140.5,294.934,139.964z"/>
	<path fill="#231F20" d="M207.554,66.135c-7.633-0.042-13.804-6.259-13.765-13.867c0.039-7.606,6.291-13.838,13.86-13.815
		c7.664,0.023,13.848,6.28,13.809,13.975C221.42,60.049,215.205,66.177,207.554,66.135z"/>
	<path fill="#231F20" d="M266.708,109.922c0.01-5.397,4.347-9.69,9.752-9.653c5.338,0.036,9.63,4.334,9.641,9.653
		c0.011,5.361-4.358,9.751-9.706,9.755C271.035,119.679,266.697,115.312,266.708,109.922z"/>
</g>
</svg>
