<?xml version="1.0" encoding="utf-8"?>
<!-- Generator: Adobe Illustrator 19.1.0, SVG Export Plug-In . SVG Version: 6.00 Build 0)  -->
<svg version="1.1" id="Layer_1" xmlns="http://www.w3.org/2000/svg" xmlns:xlink="http://www.w3.org/1999/xlink" x="0px" y="0px"
	 viewBox="0 0 400 400" enable-background="new 0 0 400 400" xml:space="preserve">
<g>
	<g>
		<path d="M122.354,235.104c9.009-6.179,18.017-12.358,27.717-19.011c2.074,1.98,4.448,4.245,7.465,7.124
			c-13.956,11.822-23.068,28.558-43.281,31.255c-16.582,2.213-24.341-3.836-21.253-20.253c1.555-8.269,6.003-16.494,10.915-23.496
			c5.368-7.652,12.784-13.868,20.606-22.072c4.217,5.67,7.625,10.254,11.646,15.66c22.469-22.643,43.519-43.652,64.298-64.926
			c5.863-6.003,11.158-12.609,16.235-19.302c1.619-2.134,2.551-5.52,2.309-8.198c-0.697-7.727,2.962-13.917,9.034-16.269
			c3.489-1.352,9.336,2.556,13.769,4.795c2.415,1.22,4.734,3.573,5.961,5.991c2.008,3.958,5.555,10.265,4.056,12.231
			c-3.259,4.277-9.188,8.681-14.214,8.911c-6.538,0.298-10.27,2.822-14.503,6.887c-34.173,32.824-68.519,65.468-102.813,98.167
			C120.986,233.433,121.67,234.269,122.354,235.104z M231.884,100.785c-8.166,8.33-7.175,17.056,1.792,19.615
			c3.103,0.886,7.173-1.619,10.802-2.576c-0.846-2.67-1.047-5.861-2.686-7.893C239.108,106.6,235.49,104.022,231.884,100.785z"/>
		<path d="M249.386,186.136c2.471,2.696,4.137,4.514,7.172,7.826c12.708-13.9,25.179-27.541,37.65-41.181
			c1.366,0.969,2.731,1.938,4.097,2.907c-1.623,3.345-2.553,7.347-4.991,9.922c-10.229,10.803-20.909,21.179-31.904,32.192
			c1.874,2.172,3.635,4.214,7.229,8.38c12.919-14.207,25.334-27.86,37.75-41.513c1.189,0.858,2.379,1.717,3.568,2.575
			c-1.568,3.158-2.496,6.921-4.814,9.367c-9.593,10.122-19.834,19.632-29.386,29.791c-6.36,6.764-12.086,6.386-17.4-0.468
			c-5.379-6.938-9.14-5.761-14.836,0.219c-16.61,17.438-34.106,34.03-50.904,51.294c-7.812,8.028-14.995,16.699-22.032,25.426
			c-1.452,1.801-0.437,5.403-1.52,7.727c-2.545,5.461-4.717,11.768-9.005,15.43c-1.849,1.579-8.755-2.153-12.998-4.222
			c-2.425-1.183-4.722-3.551-6-5.957c-2.204-4.15-6.136-9.945-4.752-12.904c2.89-6.184,8.876-10.499,17.048-9.543
			c2.386,0.279,5.729-0.27,7.339-1.801c26.768-25.439,53.335-51.089,79.917-76.723c0.875-0.844,1.438-2.012,2.246-3.172
			c-0.77-1.201-1.316-2.358-2.131-3.277c-12.031-13.549-12.062-13.565,0.519-26.144c10.083-10.082,20.224-20.108,30.379-30.117
			c0.347-0.342,1.133-0.241,4.641-0.877c-2.527,4.892-3.594,8.872-6.097,11.467c-10.319,10.703-21.074,20.987-32.111,31.86
			c2.414,2.589,4.258,4.567,7.157,7.676c12.894-13.801,25.359-27.143,37.824-40.485c1.223,0.735,2.445,1.47,3.668,2.205
			c-1.518,3.311-2.296,7.334-4.681,9.81C271.703,164.547,260.91,174.817,249.386,186.136z M155.117,301.622
			c9.478-6.84,9.085-12.537,3.408-18.168c-5.348-5.304-10.334-4.172-16.68,4.28C146.136,292.224,150.573,296.868,155.117,301.622z"
			/>
	</g>
	<g>
		<path d="M152.961,46.971C67.96,73.583,20.629,164.061,47.242,249.063c1.001,3.197,2.108,6.329,3.289,9.417
			c-0.041-0.129-0.066-0.261-0.101-0.39c0.035,0.13,0.061,0.262,0.101,0.392c0.064,0.202,0.144,0.395,0.218,0.591
			c0.055,0.143,0.11,0.286,0.165,0.429c2.03,4.661,7.285,7.14,12.247,5.587c5.315-1.663,8.271-7.318,6.608-12.631
			c-0.105-0.339-0.228-0.667-0.366-0.987c-1.058-2.76-2.036-5.568-2.932-8.428C43.182,168.662,84.6,89.486,158.979,66.198
			c74.381-23.288,153.556,18.128,176.845,92.51c23.289,74.382-18.13,153.557-92.51,176.844
			c-51.486,16.12-105.266,1.231-141.221-34.129c-0.262-0.258-0.523-0.518-0.783-0.778c-2.559-2.282-6.212-3.21-9.722-2.111
			c-5.312,1.663-8.27,7.318-6.608,12.63c0.559,1.787,1.578,3.299,2.875,4.468l-0.004-0.004c-0.007,0.006-0.012,0.013-0.018,0.02
			c41.087,40.5,102.602,57.573,161.5,39.131c85.001-26.613,132.331-117.092,105.718-202.093
			C328.439,67.686,237.959,20.356,152.961,46.971z"/>
	</g>
</g>
</svg>
