<?xml version="1.0" encoding="utf-8"?>
<!-- Generator: Adobe Illustrator 19.1.0, SVG Export Plug-In . SVG Version: 6.00 Build 0)  -->
<svg version="1.1" id="Layer_1" xmlns="http://www.w3.org/2000/svg" xmlns:xlink="http://www.w3.org/1999/xlink" x="0px" y="0px"
	 width="400px" height="400px" viewBox="0 0 400 400" enable-background="new 0 0 400 400" xml:space="preserve">
<path fill-rule="evenodd" clip-rule="evenodd" fill="#333333" d="M352.691,152.193C326.288,67.863,236.522,20.906,152.194,47.311
	C67.864,73.713,20.906,163.478,47.309,247.808c0.992,3.169,2.091,6.276,3.261,9.337c0.001,0.002,0.001,0.004,0.002,0.007
	c0.063,0.201,0.143,0.392,0.216,0.586c0.055,0.142,0.109,0.284,0.164,0.426c2.014,4.625,7.228,7.084,12.15,5.543
	c5.273-1.65,8.206-7.26,6.556-12.532c-0.104-0.336-0.227-0.662-0.363-0.979c-1.05-2.738-2.02-5.524-2.909-8.361
	C43.281,168.042,84.372,89.491,158.164,66.386c73.794-23.105,152.345,17.985,175.45,91.78
	c23.105,73.795-17.987,152.345-91.78,175.449c-51.08,15.993-104.436,1.222-140.107-33.86c-0.26-0.256-0.519-0.514-0.776-0.771
	c-2.539-2.264-6.163-3.185-9.646-2.094c-5.271,1.65-8.205,7.261-6.556,12.531c0.555,1.773,1.565,3.273,2.853,4.433
	c-0.001-0.002-0.002-0.003-0.004-0.004c-0.007,0.006-0.012,0.013-0.018,0.02c40.763,40.181,101.793,57.119,160.226,38.823
	C332.137,326.288,379.094,236.523,352.691,152.193z"/>
<path fill="#333333" d="M280.459,136.195c0-0.568-0.04-1.126-0.102-1.677v-0.063c-0.003-0.001-0.007-0.003-0.01-0.004
	c-0.865-7.348-7.104-13.052-14.685-13.052c-0.354,0-0.702,0.028-1.051,0.053c-0.307-0.02-0.61-0.042-0.934-0.042
	c-1.817,0-3.553,0.318-4.948,0.573c-3.412,0.624-6.856,1.304-10.187,1.96c-5.231,1.031-10.64,2.098-15.947,2.955
	c-4.468,0.722-9.207,1.087-14.085,1.087c-5.36,0-10.944-0.422-17.068-1.289c-4.497-0.638-8.993-1.285-13.489-1.939
	c-2.861-0.415-5.721-0.843-8.582-1.271c-4.684-0.701-9.528-1.426-14.314-2.084c-7.055-0.969-14.268-0.784-21.371-1.246
	c-6.528-0.425-13.558-0.783-19.496,2.45c-4.644,2.528-4.638,7.664-4.635,10.132v136.178l-0.006,0.518
	c-0.011,0.565-0.023,1.268,0.047,2.037c0.441,4.774,4.249,8.406,9.052,8.635c0.186,0.009,0.369,0.013,0.55,0.013
	c5.712,0,9.551-4.194,9.552-10.436l0.002-130.046c2.439-0.01,4.826-0.014,7.209,0.027c1.427,0.025,2.855,0.03,4.286,0.03
	l2.452-0.001c4.122,0,8.145,0.039,12.034,0.509c5.6,0.677,11.315,1.584,16.844,2.463c6.993,1.111,14.225,2.259,21.452,2.984
	c9.973,1,19.556,1.087,28.336,0.257c7.493-0.708,14.897-2.227,22.057-3.696c2.167-0.444,4.393-0.901,6.6-1.33
	c0.077,20.555,0.148,41.108,0.218,61.662v11.027c-1.301-0.287-2.594-0.554-3.862-0.816c-2.127-0.439-4.136-0.854-6.141-1.346
	c-10.243-2.508-20.996-3.78-31.96-3.78c-6.914,0-14.116,0.505-21.407,1.5c-4.203,0.574-8.42,1.283-12.499,1.969
	c-9.478,1.595-18.431,3.101-27.64,3.143c-2.386,0.012-4.608,0.94-6.255,2.615c-1.775,1.804-2.735,4.287-2.703,6.99
	c0.06,5.263,3.953,9.285,9.081,9.356c0.909,0.013,1.821,0.026,2.734,0.026c1.868,0,4.334-0.047,6.852-0.413
	c4.778-0.693,9.607-1.466,14.277-2.214c6.3-1.009,12.815-2.052,19.212-2.898c7.197-0.953,13.18-1.397,18.829-1.397
	c5.723,0,10.94,0.465,15.951,1.421c7.073,1.349,14.262,2.857,21.214,4.314l3.737,0.783c0.418,0.087,0.835,0.153,1.251,0.208
	c0.456,0.092,0.918,0.186,1.349,0.266c4.33,0.808,7.396,1.229,7.396,1.229l-0.023-0.036c0.237,0.017,0.473,0.036,0.714,0.036
	c5.583,0,10.109-4.526,10.109-10.109l-0.098-86.601C280.419,137.281,280.459,136.743,280.459,136.195z"/>
</svg>
