<?xml version="1.0" encoding="utf-8"?>
<!-- Generator: Adobe Illustrator 19.1.0, SVG Export Plug-In . SVG Version: 6.00 Build 0)  -->
<svg version="1.1" id="Layer_1" xmlns="http://www.w3.org/2000/svg" xmlns:xlink="http://www.w3.org/1999/xlink" x="0px" y="0px"
	 viewBox="0 0 400 400" enable-background="new 0 0 400 400" xml:space="preserve">
<g>
	<path fill="#333333" d="M37.041,262.18c0-62.068,0-124.137,0-186.205c0.221-0.708,0.517-1.402,0.652-2.126
		c2.79-14.9,11.403-24.871,25.572-30.043c2.591-0.946,5.357-1.411,8.042-2.098c87.499,0,174.998,0,262.497,0
		c0.495,0.195,0.975,0.481,1.489,0.573c19.905,3.533,32.671,18.588,32.684,38.798c0.038,58.593,0.029,117.186-0.028,175.779
		c-0.003,3.204-0.266,6.488-0.991,9.598c-4.221,18.108-19.192,29.767-38.306,29.817c-28.004,0.074-56.008,0.02-84.012,0.02
		c-1.247,0-2.494,0-4.003,0c0,4.098,0.017,7.74-0.003,11.382c-0.048,8.479-5.459,13.948-13.91,13.964
		c-16.156,0.031-32.312,0.033-48.468-0.001c-8.71-0.018-13.732-5.129-13.777-13.909c-0.019-3.73-0.003-7.46-0.003-11.436
		c-1.723,0-2.997,0-4.272,0c-27.896,0-55.793,0.05-83.689-0.019c-19.151-0.047-34.004-11.637-38.401-29.754
		C37.762,265.073,37.399,263.627,37.041,262.18z M202.575,245.476c41.586,0,83.173,0.006,124.759-0.018
		c1.924-0.001,3.919,0.011,5.76-0.457c6.385-1.623,9.69-6.676,9.691-14.545c0.008-49.236,0.007-98.472,0.003-147.707
		c-0.001-10.874-4.903-15.758-15.815-15.758c-82.957-0.003-165.915-0.003-248.872,0c-10.888,0-15.777,4.895-15.778,15.796
		c-0.003,49.02,0.098,98.041-0.087,147.06c-0.036,9.568,5.39,15.816,15.581,15.746C119.401,245.311,160.989,245.476,202.575,245.476
		z M343.069,270.98c0.045-7.302-5.704-13.245-12.941-13.376c-7.358-0.133-13.428,5.803-13.488,13.191
		c-0.06,7.368,5.962,13.428,13.302,13.387C337.18,284.141,343.024,278.263,343.069,270.98z"/>
	<path fill="#333333" d="M304.236,359.647c-67.946,0-135.448,0-202.959,0c-1.415-8.293-0.628-15.762,5.874-21.743
		c2.249-2.069,4.688-3.266,7.801-3.265c58.619,0.026,117.238,0.007,175.857,0.033c8.059,0.004,13.123,4.938,13.404,12.982
		C304.348,351.522,304.236,355.398,304.236,359.647z"/>
</g>
</svg>
