<?xml version="1.0" encoding="utf-8"?>
<!-- Generator: Adobe Illustrator 19.1.0, SVG Export Plug-In . SVG Version: 6.00 Build 0)  -->
<svg version="1.1" id="Layer_1" xmlns="http://www.w3.org/2000/svg" xmlns:xlink="http://www.w3.org/1999/xlink" x="0px" y="0px"
	 width="400px" height="400px" viewBox="0 0 400 400" enable-background="new 0 0 400 400" xml:space="preserve">
<g id="Layer_x25_20120">
	<path fill="#333333" d="M352.691,152.193C326.288,67.863,236.522,20.906,152.194,47.311
		C67.864,73.714,20.906,163.478,47.309,247.809c0.992,3.17,2.091,6.276,3.261,9.338c0.001,0.002,0.001,0.004,0.002,0.006
		c0.063,0.201,0.143,0.392,0.216,0.587c0.055,0.142,0.109,0.283,0.164,0.426c2.014,4.624,7.228,7.083,12.15,5.542
		c5.274-1.649,8.206-7.26,6.556-12.531c-0.104-0.336-0.227-0.662-0.363-0.98c-1.05-2.738-2.02-5.523-2.909-8.361
		C43.281,168.042,84.373,89.49,158.165,66.386c73.794-23.104,152.345,17.985,175.45,91.78
		c23.105,73.795-17.987,152.345-91.78,175.449c-51.08,15.993-104.436,1.222-140.106-33.859c-0.26-0.257-0.519-0.515-0.776-0.773
		c-2.539-2.264-6.163-3.185-9.646-2.094c-5.271,1.65-8.205,7.261-6.556,12.53c0.555,1.773,1.565,3.273,2.853,4.433
		c-0.001-0.002-0.002-0.003-0.004-0.004c-0.007,0.006-0.012,0.013-0.018,0.02c40.763,40.181,101.793,57.119,160.226,38.823
		C332.137,326.288,379.094,236.524,352.691,152.193z"/>
	<path fill="#333333" d="M199.667,289.958c5.523,0,10-4.477,10-10V143.433l40.164,40.165c3.906,3.904,10.237,3.905,14.143,0
		c3.906-3.905,3.905-10.237-0.001-14.143l-56.567-56.568c-2.039-2.038-4.738-3.002-7.408-2.912
		c-0.096-0.004-0.191-0.014-0.287-0.014c-0.014,0-0.028-0.003-0.043-0.003c-0.016,0-0.031,0.003-0.047,0.003
		c-0.314,0.001-0.626,0.017-0.938,0.047c-0.155,0.016-0.307,0.044-0.459,0.066c-0.17,0.024-0.34,0.044-0.509,0.078
		c-0.172,0.034-0.339,0.081-0.509,0.124c-0.146,0.037-0.294,0.069-0.439,0.113c-0.165,0.05-0.324,0.111-0.485,0.169
		c-0.146,0.053-0.295,0.102-0.439,0.161c-0.148,0.061-0.289,0.133-0.434,0.201c-0.152,0.072-0.306,0.14-0.455,0.22
		c-0.134,0.071-0.261,0.153-0.391,0.23c-0.15,0.09-0.303,0.175-0.45,0.273c-0.135,0.09-0.262,0.191-0.392,0.288
		c-0.132,0.098-0.268,0.19-0.396,0.296c-0.196,0.161-0.383,0.336-0.566,0.512c-0.053,0.051-0.11,0.095-0.163,0.146l-56.567,56.569
		c-3.906,3.905-3.907,10.236-0.001,14.142c3.905,3.905,10.236,3.905,14.143,0l39.497-39.497l0.001,135.857
		C189.667,285.482,194.143,289.959,199.667,289.958z"/>
</g>
</svg>
