<?xml version="1.0" encoding="utf-8"?>
<!-- Generator: Adobe Illustrator 20.1.0, SVG Export Plug-In . SVG Version: 6.00 Build 0)  -->
<svg version="1.1" id="Layer_1" xmlns="http://www.w3.org/2000/svg" xmlns:xlink="http://www.w3.org/1999/xlink" x="0px" y="0px"
	 width="400px" height="400px" viewBox="0 0 400 400" enable-background="new 0 0 400 400" xml:space="preserve">
<path fill="#333333" d="M359.8,130.4c0-4.7-3.3-8.7-7.7-9.7L214.6,61.6c-0.3-0.2-0.7-0.3-1.1-0.5l-1.4-0.6l0,0.2
	c-0.6-0.1-1.3-0.2-2-0.2c0,0,0,0-0.1,0c0,0,0,0-0.1,0c-0.7,0-1.3,0.1-2,0.2l0-0.2l-1.4,0.6c-0.4,0.1-0.7,0.3-1.1,0.5L67.1,121.1
	c-0.5,0.2-0.9,0.3-1.3,0.6l0,0l0,0c-3.2,1.7-5.4,5-5.4,8.9c0,0.2,0,0.5,0,0.7h-0.2v55.3c-8.8,8.4-19.5,26.3-19.5,53.9
	c0,50.1,29.3,59.6,29.3,59.6s29.3-9.1,29.3-59.6c0-27.1-10.3-44.8-19.1-53.4V139L210,80.6c0,0,0,0,0.1,0c0,0,0,0,0.1,0l111,49.9
	l-111,49.9c0,0,0,0-0.1,0c0,0,0,0-0.1,0L135.7,147c-1.2-0.9-2.5-1.5-4-1.8c-0.7-0.1-1.4-0.2-2.2-0.2c-5.5,0-10.1,4.3-10.5,9.7h0
	v70.5l0,0c0,0.1,0,0.2,0,0.4c0,5.1,3.9,8.1,8.6,10.3c0,0,0,0,0,0c0,0.1,77.4,33.7,77.4,33.7c0.3,0.2,0.7,0.3,1.1,0.5l1.4,0.4
	c0.6,0.1,1.3,0.2,2,0.2c0.1,0,0.2,0,0.3,0c0.1,0,0.2,0,0.3,0c0.7,0,1.3-0.1,2-0.2c0.5-0.1,1-0.2,1.4-0.4l1.1-0.5l77-33.1
	c5-2.1,8.4-5.3,8.4-9.9c0-1.1,0-2,0-2v-14.4v-18.5c0-0.1,0-0.1,0-0.2c0-5.5-4.5-10-10-10c-5.5,0-10,4.5-10,10v27.7l-69.8,31.4
	c-0.1,0-0.2,0-0.3,0c-0.1,0-0.2,0-0.3,0l-69.8-31.4v-48.1l65.8,28.3l1.1,0.5l1.4,0.6l0-0.2c0.6,0.1,1.3,0.2,2,0.2c0,0,0,0,0.1,0
	c0,0,0,0,0.1,0c0.7,0,1.3-0.1,2-0.2l0,0.2l1.4-0.6c0.4-0.1,0.7-0.3,1.1-0.5l137.5-59.1c4.4-1.1,7.7-5,7.7-9.7
	C359.8,130.5,359.8,130.5,359.8,130.4C359.8,130.5,359.8,130.5,359.8,130.4z M85.5,240.1c0,33-15.3,40-15.3,40h-0.1
	c0,0-4.3-2-8.4-8.8c-1.4-2.4-2.8-5.4-4-9.1c-0.4-1.2-0.7-2.6-1.1-4c-1.1-4.9-1.9-10.9-1.9-18.1c0-0.7,0.1-1.4,0.1-2
	c0-0.3,0.1-0.7,0.1-1l15,9.8c0,0,0.1,0,0.1,0c0,0,0,0,0.1,0l15-9.8C85.4,238.1,85.5,239.1,85.5,240.1z M83,222.9L70,231.6l-13.1-8.7
	C60.1,206,70,200.5,70,200.5S79.9,206,83,222.9z"/>
</svg>
