<svg id="Layer_1" data-name="Layer 1" xmlns="http://www.w3.org/2000/svg" viewBox="0 0 500 500"><defs><style>.cls-1{fill:#333;}</style></defs><title>files</title><path class="cls-1" d="M196.77,394.78a5.54,5.54,0,0,0-2.21-.45,5.63,5.63,0,0,0-2.25.45,5.9,5.9,0,0,0-1.82,1.2,5.29,5.29,0,0,0-1.2,1.8,5.94,5.94,0,0,0,0,4.44,5.33,5.33,0,0,0,1.2,1.78,5.63,5.63,0,0,0,1.82,1.18,5.86,5.86,0,0,0,2.25.43,5.77,5.77,0,0,0,2.21-.43,5.42,5.42,0,0,0,1.8-1.18,5.72,5.72,0,0,0,1.2-1.78,5.7,5.7,0,0,0,0-4.44A5.51,5.51,0,0,0,196.77,394.78Z"/><path class="cls-1" d="M212.89,405.09a2.14,2.14,0,0,0,1.5-.54,6,6,0,0,0,1-1.18l12-19.19c0.13-.22.25-0.47,0.38-0.73a7.46,7.46,0,0,0,.34-0.84l12.56,20.77a4.94,4.94,0,0,0,1,1.2,2.43,2.43,0,0,0,1.63.52h10.08l-18-28.3L253,350.89h-9.67a2.44,2.44,0,0,0-2.14,1.39l-11.28,17.8a10.57,10.57,0,0,0-.53,1q-0.22.47-.41,1l-12.33-19.9a2.54,2.54,0,0,0-.84-0.92,3.08,3.08,0,0,0-1.52-.28h-10l17.28,26.31-18,27.89h9.45Z"/><polygon class="cls-1" points="259.37 350.89 259.37 405.09 291.16 405.09 291.16 396.77 269.45 396.77 269.45 350.89 259.37 350.89"/><path class="cls-1" d="M318.78,395.4a9.89,9.89,0,0,1-6.67,2,13.46,13.46,0,0,1-4.82-.77,19.66,19.66,0,0,1-3.49-1.71q-1.48-.94-2.57-1.71a3.59,3.59,0,0,0-2-.77,2.43,2.43,0,0,0-1.29.36,3.72,3.72,0,0,0-1,.88L294,398.57a21.16,21.16,0,0,0,3.58,2.92,25.07,25.07,0,0,0,4.31,2.25,26.75,26.75,0,0,0,4.82,1.44,25.77,25.77,0,0,0,5.1.51,21.74,21.74,0,0,0,8-1.37,17.29,17.29,0,0,0,5.9-3.75,15.88,15.88,0,0,0,3.67-5.58,18.69,18.69,0,0,0,1.26-6.88,13.86,13.86,0,0,0-1.07-5.73,12.24,12.24,0,0,0-2.83-4,15.92,15.92,0,0,0-4-2.7,44.33,44.33,0,0,0-4.59-1.87q-2.34-.81-4.59-1.52a26.11,26.11,0,0,1-4-1.61,8.91,8.91,0,0,1-2.83-2.17,4.79,4.79,0,0,1-1.07-3.19,7.06,7.06,0,0,1,.52-2.75,5.62,5.62,0,0,1,1.59-2.16,7.76,7.76,0,0,1,2.62-1.41,11.86,11.86,0,0,1,3.66-.51,12.55,12.55,0,0,1,4,.58,18.19,18.19,0,0,1,3,1.29q1.27,0.71,2.21,1.29a3.28,3.28,0,0,0,1.69.58,2.41,2.41,0,0,0,1.29-.34,2.79,2.79,0,0,0,1-1.16l2.47-4.76a20,20,0,0,0-6.9-4.2,25.28,25.28,0,0,0-8.85-1.5,20.26,20.26,0,0,0-7.53,1.31,17,17,0,0,0-5.57,3.49,14.92,14.92,0,0,0-4.63,10.76,16.07,16.07,0,0,0,1.07,6.24,12.43,12.43,0,0,0,2.83,4.22,14.79,14.79,0,0,0,4,2.74,39.33,39.33,0,0,0,4.57,1.8q2.32,0.75,4.57,1.39a21.14,21.14,0,0,1,4,1.56,8.64,8.64,0,0,1,2.83,2.27,5.45,5.45,0,0,1,1.07,3.49A7.34,7.34,0,0,1,318.78,395.4Z"/><path class="cls-1" d="M341.44,147.41h0l0.34,0.2Z"/><path class="cls-1" d="M399.37,434.12V216.75a9.84,9.84,0,0,0-3.38-7.42l-78.43-78.44a9.9,9.9,0,0,0-17.11,6.76V215.4a10.15,10.15,0,0,0-.1,1.35,9.9,9.9,0,0,0,6.1,9.14,9.65,9.65,0,0,0,3.89.8,8.1,8.1,0,0,0,.86,0h68.38v198H142.11V147.54h95.15v3.16h0.21v98.19c-0.69,11.21-8.61,20.77-21.34,20.77-0.22,0-3.73,0-4,0-11.13,0-24.3-9-24.3-22.37h0V170.95h-0.18c0-.1,0-0.2,0-0.3a9.67,9.67,0,0,0-19.32,0c0,0.1,0,.2,0,0.3h0v76.35h-0.2c0,24,20,43.48,44.7,43.48s44.74-19.49,44.74-43.48h-0.19V150.7h0.05v-3.16h13.22a9.89,9.89,0,0,0,0-19.78H257.44V102.66h0a30.27,30.27,0,0,0-60.54.3h0v24.8H133.26a9.5,9.5,0,0,0-1-.06,9.89,9.89,0,0,0-9.89,9.89V434.4a10,10,0,0,0,9.93,10H389.5a9.89,9.89,0,0,0,9.89-9.9C399.38,434.4,399.37,434.25,399.37,434.12ZM320.23,206.87V162.34l45.09,44.53H320.23Zm-93.06-114A10.1,10.1,0,0,1,237.26,103v24.8H217.1V102.66h0A10.08,10.08,0,0,1,227.18,92.88Z"/></svg>