<?xml version="1.0" encoding="utf-8"?>
<!-- Generator: Adobe Illustrator 19.1.0, SVG Export Plug-In . SVG Version: 6.00 Build 0)  -->
<svg version="1.1" id="Layer_1" xmlns="http://www.w3.org/2000/svg" xmlns:xlink="http://www.w3.org/1999/xlink" x="0px" y="0px"
	 width="400px" height="400px" viewBox="0 0 400 400" enable-background="new 0 0 400 400" xml:space="preserve">
<path fill="#323232" d="M240.157,280.129v69.09l0.001,0.968c0,5.483,4.476,9.973,9.953,10h0.047h58.953c5.5,0,10-4.5,10-10
	s-4.5-10-10-10l-48.954,0.002l0.001-70.002c0-5.484-4.473-9.972-9.951-9.998c-0.352-0.038-0.709-0.059-1.07-0.059h-99
	c-1.91,0-3.702,0.545-5.225,1.484c-2.912,1.753-4.869,4.944-4.869,8.573l-0.001,70.002H60.237v-145.16l140.105-131.66
	l139.185,130.795l0,135.591c0,5.5,4.5,10,10,10s10-4.5,10-10l0-137.496c0.713-3.23-0.181-6.752-2.68-9.251L207.568,42.729
	c-1.984-1.984-4.611-2.955-7.226-2.915c-2.615-0.04-5.243,0.931-7.227,2.915L43.835,183.008c-0.153,0.154-0.302,0.31-0.443,0.471
	c-1.94,1.827-3.156,4.417-3.156,7.276v159c0,3.579,1.905,6.736,4.751,8.504c1.655,1.213,3.692,1.928,5.889,1.928h99h0.167
	c5.5,0,10-4.5,10-10l-0.001-70.058H240.157z M240.111,350.187c0,5.5,4.5,10,10,10c-5.477-0.027-9.953-4.517-9.953-10l-0.001-0.968
	C240.126,349.538,240.111,349.861,240.111,350.187z"/>
</svg>
