<?xml version="1.0" encoding="utf-8"?>
<!-- Generator: Adobe Illustrator 20.1.0, SVG Export Plug-In . SVG Version: 6.00 Build 0)  -->
<svg version="1.1" id="Layer_1" xmlns="http://www.w3.org/2000/svg" xmlns:xlink="http://www.w3.org/1999/xlink" x="0px" y="0px"
	 width="400px" height="400px" viewBox="0 0 400 400" enable-background="new 0 0 400 400" xml:space="preserve">
<path fill="#333333" d="M152.2,47.3C67.9,73.7,20.9,163.5,47.3,247.8c1,3.2,2.1,6.3,3.3,9.3c0-0.1-0.1-0.3-0.1-0.4
	c0,0.1,0.1,0.3,0.1,0.4c0.1,0.2,0.1,0.4,0.2,0.6c0.1,0.1,0.1,0.3,0.2,0.4c2,4.6,7.2,7.1,12.2,5.5c5.3-1.6,8.2-7.3,6.6-12.5
	c-0.1-0.3-0.2-0.7-0.4-1c-1-2.7-2-5.5-2.9-8.4C43.3,168,84.4,89.5,158.2,66.4c73.8-23.1,152.3,18,175.5,91.8
	c23.1,73.8-18,152.3-91.8,175.4c-51.1,16-104.4,1.2-140.1-33.9c-0.3-0.3-0.5-0.5-0.8-0.8c-2.5-2.3-6.2-3.2-9.6-2.1
	c-5.3,1.7-8.2,7.3-6.6,12.5c0.6,1.8,1.6,3.3,2.9,4.4c0,0,0,0,0,0c0,0,0,0,0,0c40.8,40.2,101.8,57.1,160.2,38.8
	c84.3-26.4,131.3-116.2,104.9-200.5C326.3,67.9,236.5,20.9,152.2,47.3z"/>
<path fill-rule="evenodd" clip-rule="evenodd" fill="#333333" d="M279.9,200.4c0-0.1,0-0.2,0-0.3c0,0,0,0,0,0c0,0,0,0,0,0
	c0-0.3,0-0.6,0-0.9c0-0.2,0-0.3-0.1-0.5c0-0.2,0-0.3-0.1-0.5c0-0.2-0.1-0.3-0.1-0.5c0-0.1-0.1-0.3-0.1-0.4c0-0.2-0.1-0.3-0.2-0.5
	c-0.1-0.1-0.1-0.3-0.2-0.4c-0.1-0.1-0.1-0.3-0.2-0.4c-0.1-0.2-0.1-0.3-0.2-0.5c-0.1-0.1-0.2-0.3-0.2-0.4c-0.1-0.2-0.2-0.3-0.3-0.4
	c-0.1-0.1-0.2-0.3-0.3-0.4c-0.1-0.1-0.2-0.3-0.3-0.4c-0.2-0.2-0.3-0.4-0.5-0.6c0-0.1-0.1-0.1-0.1-0.2l-56.6-56.6
	c-3.9-3.9-10.2-3.9-14.1,0c-3.9,3.9-3.9,10.2,0,14.1l39.5,39.5l-135.9,0c-5.5,0-10,4.5-10,10c0,5.5,4.5,10,10,10l136.5,0l-40.2,40.2
	c-3.9,3.9-3.9,10.2,0,14.1c3.9,3.9,10.2,3.9,14.1,0l56.6-56.6C279,205.7,280,203,279.9,200.4z"/>
</svg>
