<svg id="Layer_1" data-name="Layer 1" xmlns="http://www.w3.org/2000/svg" viewBox="0 0 500 500"><defs><style>.cls-1{fill:#333;}</style></defs><title>files</title><path class="cls-1" d="M185.77,377.95a5.54,5.54,0,0,0-2.21-.45,5.63,5.63,0,0,0-2.25.45,5.9,5.9,0,0,0-1.82,1.2,5.29,5.29,0,0,0-1.2,1.8,5.94,5.94,0,0,0,0,4.44,5.33,5.33,0,0,0,1.2,1.78,5.63,5.63,0,0,0,1.82,1.18,5.86,5.86,0,0,0,2.25.43,5.77,5.77,0,0,0,2.21-.43,5.42,5.42,0,0,0,1.8-1.18,5.72,5.72,0,0,0,1.2-1.78,5.7,5.7,0,0,0,0-4.44A5.51,5.51,0,0,0,185.77,377.95Z"/><path class="cls-1" d="M208.64,374.44a9.09,9.09,0,0,1-1.67,3.5,6.41,6.41,0,0,1-2.75,2,12.34,12.34,0,0,1-6.39.36,7.16,7.16,0,0,0-1.67-.26,2.26,2.26,0,0,0-1.59.51,2,2,0,0,0-.62,1.33l-0.53,6a36,36,0,0,0,4.09.77,32.06,32.06,0,0,0,4,.24,20.11,20.11,0,0,0,7.76-1.39,14.64,14.64,0,0,0,5.57-4,17.11,17.11,0,0,0,3.35-6.26,28.11,28.11,0,0,0,1.13-8.25V334.05H209.2v35.16A21,21,0,0,1,208.64,374.44Z"/><path class="cls-1" d="M264.19,338.89a18.13,18.13,0,0,0-6.56-3.56,31,31,0,0,0-9.41-1.27H230.57v54.2h10.08V369.18h7.57a29.19,29.19,0,0,0,9.22-1.31,18.33,18.33,0,0,0,6.56-3.67,15,15,0,0,0,3.94-5.64,20.4,20.4,0,0,0,.07-14.19A14,14,0,0,0,264.19,338.89Zm-5.7,16.59a8.13,8.13,0,0,1-2,3.15,9,9,0,0,1-3.41,2,15.18,15.18,0,0,1-4.84.69h-7.57V341.85h7.57a16,16,0,0,1,4.84.66,9,9,0,0,1,3.41,1.89,7.77,7.77,0,0,1,2,3,10.9,10.9,0,0,1,.68,3.94A12,12,0,0,1,258.49,355.48Z"/><path class="cls-1" d="M276,372.29a25.6,25.6,0,0,0,14.3,14.51,28.26,28.26,0,0,0,10.91,2.06,50.94,50.94,0,0,0,6.22-.36,36.49,36.49,0,0,0,5.42-1.07,27.37,27.37,0,0,0,4.76-1.82,29.71,29.71,0,0,0,4.29-2.61V361.08h-18v5.7a1.78,1.78,0,0,0,.56,1.33,2.12,2.12,0,0,0,1.54.54h6.79v9.86A23.46,23.46,0,0,1,302,380.83a18.66,18.66,0,0,1-7.12-1.33,15.82,15.82,0,0,1-5.62-3.84,17.48,17.48,0,0,1-3.67-6.17,24.59,24.59,0,0,1-1.31-8.34,23.64,23.64,0,0,1,1.24-7.87,17.4,17.4,0,0,1,3.52-6,15.34,15.34,0,0,1,5.53-3.86,18.71,18.71,0,0,1,7.25-1.35,25.14,25.14,0,0,1,4.37.34,22.72,22.72,0,0,1,3.41.86,16.7,16.7,0,0,1,2.77,1.24q1.26,0.71,2.46,1.42a3.4,3.4,0,0,0,1.84.6,2.6,2.6,0,0,0,2.29-1.39l2.92-4.57a26.51,26.51,0,0,0-8.23-5.12,30.5,30.5,0,0,0-11.49-2,32.06,32.06,0,0,0-11.69,2,24.68,24.68,0,0,0-14.51,14.47,30.6,30.6,0,0,0-2,11.21A29.65,29.65,0,0,0,276,372.29Z"/><path class="cls-1" d="M335.44,130.57h0l0.34,0.2Z"/><path class="cls-1" d="M393.37,417.29V199.92A9.84,9.84,0,0,0,390,192.5l-78.43-78.44a9.9,9.9,0,0,0-17.11,6.76v77.76a10.17,10.17,0,0,0-.1,1.35,9.9,9.9,0,0,0,6.1,9.14,9.65,9.65,0,0,0,3.89.8,8.12,8.12,0,0,0,.86,0h68.38v198H136.11V130.71h95.15v3.16h0.21v98.19c-0.69,11.21-8.61,20.78-21.34,20.78-0.22,0-3.73,0-4,0-11.13,0-24.3-9-24.3-22.37h0V154.12h-0.18c0-.1,0-0.2,0-0.3a9.66,9.66,0,0,0-19.32,0c0,0.1,0,.2,0,0.3h0v76.35h-0.2c0,24,20,43.48,44.7,43.48s44.74-19.49,44.74-43.48h-0.19V133.87h0.05v-3.16h13.22a9.89,9.89,0,0,0,0-19.78H251.44V85.83h0a30.27,30.27,0,0,0-60.54.3h0v24.8H127.26a9.47,9.47,0,0,0-1-.06,9.89,9.89,0,0,0-9.89,9.89V417.57a10,10,0,0,0,9.93,10H383.5a9.89,9.89,0,0,0,9.89-9.9C393.38,417.57,393.37,417.42,393.37,417.29ZM314.23,190V145.51L359.33,190H314.23ZM221.18,76a10.1,10.1,0,0,1,10.08,10.08v24.8H211.1V85.83h0A10.08,10.08,0,0,1,221.18,76Z"/></svg>