<?xml version="1.0" encoding="utf-8"?>
<!-- Generator: Adobe Illustrator 19.1.0, SVG Export Plug-In . SVG Version: 6.00 Build 0)  -->
<svg version="1.1" id="Layer_1" xmlns="http://www.w3.org/2000/svg" xmlns:xlink="http://www.w3.org/1999/xlink" x="0px" y="0px"
	 width="400px" height="400px" viewBox="0 0 400 400" enable-background="new 0 0 400 400" xml:space="preserve">
<g id="Layer_x25_20122">
	<path fill="#333333" d="M44.269,236.838c-0.154-0.656-0.302-1.315-0.448-1.974C43.838,235.567,43.995,236.233,44.269,236.838z"/>
	<path fill="#333333" d="M358.162,175.819C344.807,88.467,263.169,28.483,175.819,41.838
		C88.469,55.193,28.483,136.829,41.838,224.181c1.811,11.838,4.884,23.169,9.045,33.887c0.245,0.629,0.489,1.258,0.742,1.884
		c1.063,1.637,3.011,2.596,5.066,2.282c2.799-0.428,4.72-3.042,4.292-5.841c-0.024-0.159-0.08-0.305-0.118-0.458
		c-0.176-0.439-0.347-0.882-0.519-1.324c-2.611-6.695-4.756-13.65-6.411-20.828c-0.026-0.15-0.061-0.298-0.1-0.444
		c-0.798-3.509-1.489-7.067-2.042-10.681C39.28,140.805,95.49,64.308,177.341,51.795c81.853-12.515,158.351,43.693,170.865,125.547
		c12.514,81.854-43.696,158.351-125.547,170.864c-51.127,7.817-100.165-11.179-132.825-46.489c-0.354-0.384-0.701-0.775-1.052-1.163
		c-1.085-0.892-2.518-1.351-4.016-1.121c-2.799,0.427-4.721,3.043-4.293,5.84c0.104,0.676,0.34,1.298,0.671,1.851
		c0.454,0.503,0.905,1.011,1.366,1.508c34.856,37.629,87.149,57.866,141.669,49.53C311.531,344.807,371.518,263.171,358.162,175.819
		z"/>
	<path fill="#333333" d="M199.954,99.86c-2.762,0-5,2.238-5,5v177.93l-69.247-69.247c-1.952-1.952-5.118-1.952-7.07,0
		c-1.954,1.953-1.954,5.118,0,7.071l77.781,77.782c0.022,0.022,0.049,0.037,0.071,0.058c0.214,0.206,0.442,0.397,0.689,0.563
		c0.132,0.088,0.275,0.15,0.413,0.224c0.148,0.08,0.29,0.17,0.447,0.236c0.174,0.072,0.354,0.114,0.533,0.165
		c0.134,0.039,0.262,0.091,0.401,0.118c0.324,0.064,0.652,0.1,0.981,0.1c0.329,0,0.657-0.035,0.98-0.099
		c0.14-0.028,0.268-0.081,0.402-0.119c0.179-0.051,0.359-0.094,0.532-0.165c0.158-0.066,0.301-0.156,0.451-0.237
		c0.137-0.074,0.279-0.135,0.41-0.222c0.253-0.169,0.485-0.363,0.702-0.573c0.018-0.018,0.04-0.03,0.059-0.048l77.782-77.782
		c1.953-1.953,1.953-5.118,0-7.071c-1.953-1.952-5.118-1.952-7.071,0l-69.247,69.247V104.86
		C204.954,102.099,202.715,99.86,199.954,99.86z"/>
</g>
</svg>
