<?xml version="1.0" encoding="utf-8"?>
<!-- Generator: Adobe Illustrator 19.1.0, SVG Export Plug-In . SVG Version: 6.00 Build 0)  -->
<svg version="1.1" id="Layer_1" xmlns="http://www.w3.org/2000/svg" xmlns:xlink="http://www.w3.org/1999/xlink" x="0px" y="0px"
	 width="400px" height="400px" viewBox="0 0 400 400" enable-background="new 0 0 400 400" xml:space="preserve">
<g id="Layer_x25_201112">
	<path fill="#323232" d="M43.2,118.684l13.437,6.808c4.906,2.485,10.954,0.505,13.44-4.401c2.485-4.906,0.505-10.954-4.401-13.44
		l-13.436-6.807c-4.906-2.486-10.954-0.505-13.44,4.401C36.313,110.15,38.294,116.198,43.2,118.684z"/>
	<path fill="#323232" d="M126.126,66.035c0.476,5.479,5.348,9.573,10.827,9.098c5.48-0.476,9.573-5.348,9.098-10.827l-1.302-15.006
		c-0.476-5.48-5.348-9.574-10.827-9.098c-5.48,0.476-9.574,5.348-9.098,10.827L126.126,66.035z"/>
	<path fill="#323232" d="M214.45,91.557c4.671,2.903,10.869,1.456,13.772-3.215l7.95-12.793c2.903-4.672,1.456-10.869-3.215-13.772
		c-4.672-2.903-10.869-1.456-13.772,3.215l-7.95,12.794C208.331,82.456,209.778,88.654,214.45,91.557z"/>
	<path fill="#323232" d="M345.138,252.511c5.449-9.782,8.564-21.042,8.564-33.034c0-37.556-30.445-68-68-68
		c-17.751,0-33.907,6.807-46.017,17.946c-1.383,1.272-2.804,2.517-4.025,3.951c-1.192,1.399-1.624,3.219-1.624,5.043
		c0,5.523,4.477,10,10,10c1.494,0,3.019-0.353,4.368-1.046c2.444-1.255,4.272-3.668,6.375-5.404
		c2.101-1.735,4.347-3.294,6.707-4.654c4.807-2.77,10.086-4.704,15.546-5.689c2.859-0.516,5.765-0.772,8.67-0.772
		c26.855,0,48.625,21.77,48.625,48.625c0,8.366-2.115,16.238-5.836,23.113c-0.02-0.007-0.04-0.013-0.06-0.02
		c-3.038,6.081-7.298,11.444-12.477,15.748c14.374,2.511,25.346,14.898,25.664,29.914c0.027,0.522,0.042,1.049,0.042,1.578
		c0,15.205-11.314,27.759-25.981,29.725c-1.661,0.274-3.363,0.424-5.102,0.424c-0.576,0-1.148-0.018-1.716-0.049
		c-1.213,0-2.427,0-3.64,0c-3.365,0-6.729,0-10.093,0c-5.107,0-10.214,0-15.32,0c-6.44,0-12.88,0-19.32,0c-7.365,0-14.73,0-22.096,0
		c-7.881,0-15.762,0-23.644,0c-7.988,0-15.977,0-23.966,0c-7.688,0-15.375,0-23.062,0c-6.978,0-13.955,0-20.932,0
		c-5.859,0-11.717,0-17.576,0c-5.725,0-11.449-0.03-17.172,0.018c-5.485,0.046-11.023-0.032-16.366-1.416
		c-4.635-1.201-9.083-3.104-13.157-5.621c-8.057-4.978-14.566-12.334-18.51-20.946c-0.759-1.657-1.423-3.357-1.988-5.089
		c-0.518-1.591-1.407-3.666-1.407-5.352c-0.629-3.1-0.96-6.308-0.96-9.593c0-21.838,14.256-40.258,34.216-46.076
		c-3.265-5.836-5.811-12.366-7.384-19.228c0.032-0.015-0.028-0.085,0.004-0.1c-2.307-10.066-2.276-20.748,0.382-31.456
		c9.05-36.449,45.933-58.661,82.382-49.612c5.112,1.269,10.077,3.124,14.762,5.533c4.558,2.344,8.845,5.21,12.756,8.522
		c3.849,3.261,7.332,6.952,10.367,10.981c1.672,2.219,3.206,4.541,4.595,6.947c1.439,2.493,2.369,5.371,4.016,7.729
		c1.419,2.033,3.542,3.506,5.951,4.104c5.516,1.37,11.099-1.992,12.468-7.508c0.748-3.011-0.164-5.797-1.479-8.514
		c-1.095-2.263-2.284-4.48-3.564-6.645c-2.566-4.341-5.495-8.467-8.747-12.321c-3.272-3.879-6.872-7.482-10.753-10.753
		c-3.925-3.309-8.136-6.277-12.576-8.854c-4.528-2.629-9.292-4.85-14.217-6.625c-2.823-1.018-5.698-1.89-8.61-2.613
		c-47.504-11.794-95.575,17.155-107.369,64.659c-3.97,15.991-3.317,32.044,1.1,46.758c-17.06,12.355-28.167,32.424-28.167,55.098
		c0,37.556,30.444,68,68,68c1.104,0,2.202-0.031,3.294-0.083h197.764c0.933,0.051,1.871,0.083,2.817,0.083
		c27.683,0,50.125-22.441,50.125-50.125C361.786,274.996,355.356,261.687,345.138,252.511z"/>
</g>
</svg>
