<?xml version="1.0" encoding="utf-8"?>
<!-- Generator: Adobe Illustrator 19.1.0, SVG Export Plug-In . SVG Version: 6.00 Build 0)  -->
<svg version="1.1" id="Layer_1" xmlns="http://www.w3.org/2000/svg" xmlns:xlink="http://www.w3.org/1999/xlink" x="0px" y="0px"
	 width="400px" height="400px" viewBox="0 0 400 400" enable-background="new 0 0 400 400" xml:space="preserve">
<g id="Layer_x25_201107">
	<path fill="#333333" d="M113.64,248.904l-39.499-39.556H190c5.523,0,10.001-4.482,10-10.015c0-5.531-4.477-10.015-10-10.015H73.475
		l40.165-40.223c3.904-3.911,3.905-10.252,0-14.163c-3.905-3.911-10.237-3.91-14.143,0.001l-56.568,56.651
		c-2.039,2.041-3.003,4.744-2.913,7.419c-0.003,0.091-0.013,0.18-0.013,0.27c0,0.021-0.003,0.04-0.003,0.06
		c0,0.011,0.001,0.02,0.001,0.031c0.001,0.32,0.017,0.638,0.048,0.956c0.015,0.15,0.043,0.295,0.064,0.443
		c0.025,0.176,0.046,0.352,0.08,0.527c0.033,0.166,0.079,0.327,0.12,0.491c0.039,0.152,0.072,0.307,0.118,0.46
		c0.048,0.159,0.108,0.311,0.163,0.466c0.055,0.154,0.106,0.309,0.168,0.461c0.059,0.141,0.127,0.276,0.192,0.414
		c0.075,0.159,0.146,0.32,0.229,0.475c0.068,0.128,0.146,0.248,0.22,0.374c0.093,0.156,0.182,0.315,0.284,0.467
		c0.088,0.131,0.186,0.254,0.28,0.38c0.101,0.136,0.195,0.275,0.303,0.406c0.168,0.205,0.349,0.4,0.533,0.591
		c0.043,0.046,0.081,0.095,0.125,0.14l56.569,56.651c3.905,3.912,10.236,3.912,14.142,0
		C117.545,259.155,117.545,252.815,113.64,248.904z"/>
	<path fill="#333333" d="M120.05,350c0.502,5.053,4.765,9,9.95,9h220c5.523,0,10-4.477,10-10V49c0-5.523-4.477-10-10-10H130
		c-5.523,0-10,4.477-10,10v40.333c0,5.523,4.477,10,10,10s10-4.477,10-10V59h200v280H140v-29.667h-0.05
		c0.033-0.329,0.05-0.663,0.05-1c0-5.523-4.477-10-10-10s-10,4.477-10,10c0,0.337,0.017,0.671,0.05,1H120V349
		C120,349.337,120.017,349.671,120.05,350z M120,350h0.05c-0.033-0.329-0.05-0.663-0.05-1V350z"/>
</g>
</svg>
