<?xml version="1.0" encoding="utf-8"?>
<!-- Generator: Adobe Illustrator 19.1.0, SVG Export Plug-In . SVG Version: 6.00 Build 0)  -->
<svg version="1.1" id="Layer_1" xmlns="http://www.w3.org/2000/svg" xmlns:xlink="http://www.w3.org/1999/xlink" x="0px" y="0px"
	 viewBox="0 0 400 400" enable-background="new 0 0 400 400" xml:space="preserve">
<g>
	<path d="M374.167,72.548c0,73.967,0,147.934,0,221.9c-0.152,0.399-0.396,0.788-0.444,1.199
		c-2.084,17.579-16.325,31.834-36.087,31.79c-82.695-0.182-165.391-0.065-248.087-0.1c-6.27-0.003-12.557-0.097-18.804-0.578
		c-6.173-0.475-12.126-2.065-17.582-5.191c-9.91-5.679-14.383-14.936-16.567-25.55c-1.041-5.06-1.473-10.245-2.181-15.373
		c0-54.679,0-109.358,0-164.036c14.9,0,29.8,0,45.02,0c0-14.846,0-29.372,0-44.062C177.895,72.548,276.031,72.548,374.167,72.548z
		 M93.708,306.108c1.155,0,1.855,0,2.556,0c80.581,0,161.162,0.001,241.743-0.012c1.052,0,2.131-0.06,3.152-0.292
		c6.638-1.511,11.75-8.605,11.752-16.372c0.011-64.394,0.007-128.788-0.001-193.182c0-0.761-0.103-1.522-0.16-2.324
		c-84.123,0-168.027,0-252.241,0c0,1.155,0,2.187,0,3.22c0,57.406-0.024,114.812,0.019,172.218
		C100.535,281.884,99.643,294.201,93.708,306.108z M55.669,138.108c0,1.373,0,2.43,0,3.486c0,41.932-0.046,83.863,0.047,125.794
		c0.015,6.61,0.434,13.24,1.077,19.821c0.463,4.733,1.661,9.407,4.676,13.297c3.381,4.362,8.81,4.389,12.069-0.074
		c1.426-1.952,2.517-4.26,3.28-6.565c2.332-7.046,2.478-14.414,2.49-21.728c0.067-43.701,0.033-87.401,0.034-131.102
		c0-0.939,0-1.878,0-2.93C71.31,138.108,63.657,138.108,55.669,138.108z"/>
	<path d="M317.788,250.813c-31.868,0-63.574,0-95.425,0c0-25.44,0-50.757,0-76.21c31.819,0,63.524,0,95.425,0
		C317.788,199.941,317.788,225.259,317.788,250.813z"/>
	<path d="M151.113,147.241c0-4.967,0-9.718,0-14.587c49.878,0,99.641,0,149.602,0c0,4.8,0,9.606,0,14.587
		C250.912,147.241,201.087,147.241,151.113,147.241z"/>
	<path d="M137.089,182.254c0-2.519,0-4.958,0-7.592c20.685,0,41.338,0,62.208,0c0,2.382,0,4.89,0,7.592
		C178.661,182.254,157.943,182.254,137.089,182.254z"/>
	<path d="M199.392,201.16c0,2.676,0,5.12,0,7.698c-20.778,0-41.435,0-62.266,0c0-2.546,0-5.05,0-7.698
		C157.877,201.16,178.531,201.16,199.392,201.16z"/>
	<path d="M137.037,259.242c0-2.637,0-5.01,0-7.587c20.736,0,41.388,0,62.259,0c0,2.372,0,4.88,0,7.587
		C178.66,259.242,157.941,259.242,137.037,259.242z"/>
	<path d="M199.393,227.016c0,2.553,0,4.994,0,7.556c-20.769,0-41.417,0-62.254,0c0-2.467,0-4.893,0-7.556
		C157.751,227.016,178.467,227.016,199.393,227.016z"/>
</g>
</svg>
