<?xml version="1.0" encoding="utf-8"?>
<!-- Generator: Adobe Illustrator 20.1.0, SVG Export Plug-In . SVG Version: 6.00 Build 0)  -->
<svg version="1.1" id="Layer_1" xmlns="http://www.w3.org/2000/svg" xmlns:xlink="http://www.w3.org/1999/xlink" x="0px" y="0px"
	 width="400px" height="400px" viewBox="0 0 400 400" enable-background="new 0 0 400 400" xml:space="preserve">
<path fill="#323232" d="M357.8,85.2c-12.5-34.9-51.2-53-86.1-40.3c-1.6,0.6-3.2,1.2-4.7,1.9c0,0,0,0,0,0c0.2-0.1,0.3-0.1,0.5-0.2
	c0.2-0.1,0.4-0.1,0.6-0.2c-5.1,1.9-7.7,7.6-5.9,12.7c1.8,5.1,7.4,7.8,12.5,6.1c0,0,0,0.1,0,0.1c1.2-0.5,2.4-1,3.6-1.5
	c4-1.5,8.1-2.3,12.2-2.6c0,0,0,0,0,0.1c1.3-0.1,2.6-0.2,3.9-0.1c26.2,0.2,47.1,21.4,46.8,47.8c-0.1,12.6-5.2,23.9-13.3,32.3
	c-0.3,0.2-0.6,0.5-0.8,0.7L129.2,340H60.2v-73L242,92.7l46.9,47.8c3.9,3.9,10.3,3.9,14.1,0c3.9-3.9,3.9-10.3,0-14.1l-53.7-54.7
	c-0.7-0.7-1.6-1.3-2.5-1.8c-3.8-2-8.6-1.4-11.8,1.8l-192,184c-2.4,2.4-3.3,5.8-2.7,8.9c-0.2,0.7-0.2,1.4-0.2,2.1V347
	c0,0.7,0.1,1.4,0.2,2c0,0.3,0,0.6,0,1c0,5.5,4.5,10,10,10h80.4c1.4,0,2.7-0.3,4-0.8c2.3-0.1,4.6-1,6.5-2.8l196.8-197.1
	c12.1-10.3,20.5-24.7,23-41.1c0-0.1,0-0.3,0.1-0.4c0.1-0.3,0.1-0.7,0.1-1C362.6,106.4,361.6,95.6,357.8,85.2z"/>
</svg>
