<svg id="Layer_1" data-name="Layer 1" xmlns="http://www.w3.org/2000/svg" viewBox="0 0 400 400"><title>icons-interests</title><path d="M302.39,135.89c-.43-3.79-4.11-11.57-9.36-12.31-17.79-2.51-35.56-4.5-54.38-6.61l-16.76-1.89-4.92-.56,14.57,148.37H178.46l14.12-148.4-5.05.75q-9.19,1.36-18,2.64c-18.4,2.68-35.77,5.2-53.13,8.27-4.72.83-11.24,7.35-11.19,12.63.63,74.38,1.54,134.48,2.88,189.15.37,15,10.31,25,27.29,27.32a440.08,440.08,0,0,0,60.87,4.25,430.17,430.17,0,0,0,81.8-7.83c14.28-2.76,22.51-11.46,24.45-25.83C310.28,267.89,310.25,205.76,302.39,135.89Zm-7.86,188.88c-1.49,11-7.05,16.92-18,19a425.77,425.77,0,0,1-140,3.51c-9.12-1.27-20.06-5.71-20.4-19.59-1.33-54.6-2.25-114.64-2.87-188.93.29-1.39,3.25-4.48,4.58-4.77,17.24-3,34.55-5.56,52.89-8.23l13-1.9-14,147h70.7L225.9,123.58l11.86,1.33C256.4,127,274,129,291.56,131.45a10.9,10.9,0,0,1,2.88,5.33C302.23,206,302.26,267.48,294.53,324.76Z"/><path d="M215.2,320.52c10.85-.05,23.12-1.16,28-16.74H163C177.91,326,197.74,320.6,215.2,320.52Z"/><path d="M244.66,144.77v33.69H278.4C276.63,157.16,267,147.47,244.66,144.77Z"/><path d="M127.51,177.77h33.2V145.22C140.87,143.48,127.14,157.09,127.51,177.77Z"/><path d="M290.92,99.09l6.33,1L295.36,94c-12-39-48.72-59.57-100.65-56.35-47,2.9-81.29,27.78-83.49,60.51l-.35,5.27,5.17-1.09C172.14,90.5,229.34,89.45,290.92,99.09ZM141.19,63c13.8-9.92,33-16.1,54-17.4q5-.31,9.8-.31c40,0,68.73,16,80.53,44.9-58-8.41-112.33-7.37-165.6,3.16C122.28,81.9,129.68,71.27,141.19,63Z"/></svg>