<svg id="Layer_1" data-name="Layer 1" xmlns="http://www.w3.org/2000/svg" viewBox="0 0 400 400"><defs><style>.cls-1{fill:#333;}</style></defs><title>icon</title><g id="Layer_20115" data-name="Layer%20115"><path class="cls-1" d="M289,181.85L169,122.56l-0.34-.15c-0.43-.2-0.86-0.4-1.31-0.57l-0.61-.22c-0.4-.14-0.81-0.28-1.23-0.39l-0.78-.2c-0.36-.09-0.72-0.17-1.09-0.23l-1-.15-1-.11c-0.36,0-.72,0-1.08-0.05l-0.58,0-0.33,0c-0.34,0-.68,0-1,0.05s-0.68,0-1,.09l-0.77.12c-0.41.07-.82,0.13-1.22,0.22l-0.5.13c-0.47.12-.94,0.24-1.4,0.4l-0.33.12c-0.5.17-1,.36-1.47,0.57l-0.31.15c-0.47.22-.94,0.45-1.39,0.7l-0.42.26c-0.4.24-.8,0.48-1.18,0.74-0.19.13-.37,0.28-0.55,0.41s-0.65.48-1,.74-0.39.36-.59,0.54-0.56.51-.83,0.78-0.35.38-.52,0.57-0.54.6-.79,0.91-0.26.34-.38,0.52c-0.28.37-.55,0.74-0.8,1.13l-0.25.42c-0.27.44-.53,0.9-0.77,1.36l-0.08.13c0,0.08-.07.16-0.11,0.24-0.23.47-.44,1-0.63,1.44-0.06.16-.12,0.32-0.18,0.49-0.16.44-.3,0.89-0.43,1.34-0.06.23-.12,0.45-0.17,0.68-0.09.39-.18,0.78-0.25,1.18s-0.1.59-.14,0.89-0.09.67-.11,1,0,0.71-.05,1.06c0,0.2,0,.39,0,0.58V260.06c0,0.2,0,.39,0,0.58,0,0.36,0,.71.05,1.07s0.07,0.66.11,1,0.08,0.62.14,0.93,0.15,0.75.24,1.13,0.12,0.49.19,0.74c0.12,0.43.26,0.85,0.41,1.27,0.07,0.19.13,0.38,0.21,0.57,0.18,0.46.38,0.91,0.59,1.35,0,0.1.08,0.21,0.13,0.31l0.1,0.17c0.22,0.43.46,0.85,0.71,1.26,0.1,0.17.21,0.35,0.31,0.52,0.23,0.35.48,0.69,0.73,1s0.3,0.41.46,0.61,0.47,0.55.71,0.82,0.39,0.45.6,0.66,0.49,0.47.74,0.7,0.44,0.42.68,0.61,0.58,0.46.88,0.68,0.41,0.32.63,0.47,0.74,0.48,1.12.71l0.48,0.29c0.44,0.25.9,0.47,1.36,0.68l0.34,0.16c0.48,0.21,1,.39,1.46.57l0.33,0.12c0.46,0.15.93,0.28,1.4,0.4l0.5,0.13c0.41,0.09.82,0.16,1.23,0.22l0.76,0.12c0.34,0,.69.06,1,0.09s0.67,0,1,.05l0.34,0c0.2,0,.39,0,0.59,0,0.36,0,.71,0,1.07-0.05l1-.11,1-.15c0.37-.07.72-0.15,1.08-0.23l0.79-.2c0.41-.12.81-0.25,1.2-0.39l0.64-.24c0.43-.17.84-0.35,1.26-0.55L169,278,289,218.66A20.85,20.85,0,0,0,289,181.85Zm-108.86-9.2L236,200.26l-55.84,27.6V172.66Z"/><path class="cls-1" d="M200,40A160.05,160.05,0,0,0,55,267.69c0.22,0.47.43,0.94,0.65,1.4a20,20,0,0,0,35.73-17.92h0a119.94,119.94,0,1,1,57.37,57.4l-0.83-.39a20,20,0,0,0-15.41,36.91h0A160,160,0,1,0,200,40Z"/></g></svg>