<?xml version="1.0" encoding="utf-8"?>
<!-- Generator: Adobe Illustrator 19.1.0, SVG Export Plug-In . SVG Version: 6.00 Build 0)  -->
<svg version="1.1" id="Layer_1" xmlns="http://www.w3.org/2000/svg" xmlns:xlink="http://www.w3.org/1999/xlink" x="0px" y="0px"
	 width="400px" height="400px" viewBox="0 0 400 400" enable-background="new 0 0 400 400" xml:space="preserve">
<path fill-rule="evenodd" clip-rule="evenodd" fill="#333333" d="M315.255,55.251c3.904,3.905,3.904,10.237,0,14.142l-27.578,27.577
	c-3.904,3.905-10.236,3.905-14.142,0l0,0c-3.905-3.905-3.905-10.237,0-14.142l27.577-27.577
	C305.018,51.346,311.35,51.346,315.255,55.251L315.255,55.251z"/>
<path fill-rule="evenodd" clip-rule="evenodd" fill="#333333" d="M343.747,234.456c-2.757,4.786-8.871,6.431-13.656,3.675
	l-33.796-19.464c-4.786-2.756-6.432-8.871-3.675-13.656l0,0c2.756-4.785,8.87-6.431,13.656-3.675l33.796,19.464
	C344.857,223.555,346.503,229.67,343.747,234.456L343.747,234.456z"/>
<path fill-rule="evenodd" clip-rule="evenodd" fill="#333333" d="M188.914,350.966c0.003,5.522-4.471,10.003-9.993,10.007l-39,0.026
	c-5.522,0.004-10.004-4.471-10.007-9.993l0,0c-0.004-5.522,4.471-10.003,9.993-10.007l39-0.026
	C184.43,340.969,188.91,345.444,188.914,350.966L188.914,350.966z"/>
<path fill-rule="evenodd" clip-rule="evenodd" fill="#333333" d="M352.164,134.316c1.23,5.383-2.136,10.747-7.52,11.977
	l-38.019,8.695c-5.383,1.231-10.746-2.135-11.978-7.519l0,0c-1.231-5.383,2.136-10.747,7.52-11.977l38.019-8.695
	C345.569,125.566,350.933,128.933,352.164,134.316L352.164,134.316z"/>
<path fill-rule="evenodd" clip-rule="evenodd" fill="#333333" d="M93.882,235.929c4.789-2.751,10.901-1.099,13.652,3.69
	l39.277,102.186c2.751,4.788,1.099,10.901-3.689,13.652l0,0c-4.789,2.75-10.902,1.099-13.652-3.69L90.192,249.581
	C87.441,244.793,89.094,238.68,93.882,235.929L93.882,235.929z"/>
<path fill-rule="evenodd" clip-rule="evenodd" fill="#333333" d="M146.654,273.115c4.788-2.751,10.901-1.099,13.652,3.69
	l27.276,69.185c2.751,4.789,1.099,10.901-3.689,13.652l0,0c-4.788,2.751-10.901,1.099-13.652-3.689l-27.277-69.186
	C140.213,281.979,141.865,275.866,146.654,273.115L146.654,273.115z"/>
<path fill="#333333" d="M140.573,99.589c0.797,0.099,1.598,0.188,2.389,0.31C142.188,99.701,141.389,99.591,140.573,99.589z"/>
<path fill="#333333" d="M169.563,248.729c1.223-0.429,2.319-1.084,3.255-1.918C171.75,247.476,170.665,248.114,169.563,248.729z"/>
<path fill="#333333" d="M289.901,267.904c-0.003-0.052-0.01-0.103-0.014-0.155c-0.015-0.132-0.029-0.263-0.05-0.393
	c-0.032-0.3-0.056-0.599-0.114-0.9l-3.257-16.441L256.371,65.615l-2.623-13.244c0.302-2.129-0.067-4.369-1.222-6.378
	c-1.93-3.358-5.513-5.166-9.133-5.002c-0.047-0.006-0.094-0.013-0.142-0.019c-0.622-0.001-1.252,0.051-1.885,0.174
	c-1.882,0.366-3.526,1.264-4.836,2.503l-97.149,55.809c-2.863-0.316-5.766-0.502-8.713-0.502c-44.148,0-79.938,35.79-79.938,79.938
	c0,44.148,35.79,79.937,79.938,79.937c13.792,0,26.755-3.514,38.079-9.664l108.6,29.352c5.331,1.44,10.822-1.714,12.263-7.045
	C289.935,270.276,290.015,269.071,289.901,267.904z M130.669,238.194c-32.75,0-59.3-26.549-59.3-59.3s26.55-59.3,59.3-59.3
	c0.578,0,1.15,0.027,1.725,0.044l22.463,113.396C147.468,236.341,139.287,238.194,130.669,238.194z M172.787,220.629l-19.095-96.398
	l-1.767-8.914l84.138-48.334l31.255,188.107l-92.665-25.044L172.787,220.629z"/>
<path fill="#333333" d="M94.964,148.86c-0.792,2.179-1.303,4.491-1.666,6.301c-1.15,5.761-1.457,11.748-1.296,17.611
	c0.312,11.396,3.112,22.987,8.184,33.21c0.748,1.507,10.536,16.903,10.979,16.509c0.046-0.04,0.091-0.082,0.137-0.124
	c3.718,3.694,9.708,3.914,13.679,0.386c3.802-3.378,4.41-9.002,1.617-13.096c0.061-0.046,0.121-0.091,0.182-0.137
	c-10.753-12.485-15.767-28.737-14.183-45.077c0.628-6.491,4.779-14.479-0.272-20.165c-3.669-4.129-9.989-4.501-14.118-0.832
	C96.614,144.861,95.68,146.891,94.964,148.86z"/>
</svg>
