<svg id="Layer_1" data-name="Layer 1" xmlns="http://www.w3.org/2000/svg" viewBox="0 0 400 400"><defs><style>.cls-1{fill:#333;}</style></defs><title>icon</title><path class="cls-1" d="M235.1,263.74a10,10,0,0,0-14.14,0l-21,21-35.54,35.54-0.16.18h0l0-.06a59.87,59.87,0,1,1-84.62-84.6l0,0,0.22-.2,35.48-35.48h0L136.37,179a10,10,0,0,0-14.14-14.14L65.66,221.44a10.18,10.18,0,0,0-.72.8,79.81,79.81,0,1,0,112.72,113,10.06,10.06,0,0,0,.87-0.77l56.57-56.57A10,10,0,0,0,235.1,263.74Z"/><path class="cls-1" d="M164.9,136.26a10,10,0,0,0,14.15,0l21-21,35.54-35.54,0.16-.18h0l0,0.06a59.87,59.87,0,1,1,84.62,84.6l0,0-0.22.2L284.72,199.9h0L263.63,221a10,10,0,0,0,14.14,14.14l56.57-56.57a10.28,10.28,0,0,0,.72-0.8,79.81,79.81,0,1,0-112.72-113,10.09,10.09,0,0,0-.87.77L164.9,122.11A10,10,0,0,0,164.9,136.26Z"/><path class="cls-1" d="M256.43,128.87a10,10,0,0,1,14.14,0h0a10,10,0,0,1,0,14.14L143.29,270.29a10,10,0,0,1-14.14,0h0a10,10,0,0,1,0-14.14Z"/></svg>