<?xml version="1.0" encoding="utf-8"?>
<!-- Generator: Adobe Illustrator 19.1.0, SVG Export Plug-In . SVG Version: 6.00 Build 0)  -->
<svg version="1.1" id="Layer_1" xmlns="http://www.w3.org/2000/svg" xmlns:xlink="http://www.w3.org/1999/xlink" x="0px" y="0px"
	 width="400px" height="400px" viewBox="0 0 400 400" enable-background="new 0 0 400 400" xml:space="preserve">
<g id="Layer_x25_201103">
	<path fill="#323232" d="M319.539,230.27l0.293-39.734c0-0.54-0.055-1.065-0.137-1.583c-0.495-5.046-4.779-9.024-9.95-9.024H99.321
		c0-0.042,0-0.082,0-0.125c0.215-55.296,45.481-99.763,101.327-99.531c44.312,0.183,81.768,29.362,94.699,69.604
		c0.542,5.012,4.783,8.913,9.938,8.913c5.523,0,10-4.477,10-10c0-1.802-0.483-3.489-1.317-4.949
		c-14.67-49.778-60.076-84-114.457-83.917c-65.965,0.101-119.705,54.435-119.688,121.009c0.001,2.649,0.093,5.276,0.262,7.883
		l0.081-0.001v50.526c-0.001,0.192-0.01,0.382-0.009,0.574c0.001,0.211,0.008,0.42,0.009,0.631v5.989
		c0,0.909,0.132,1.785,0.359,2.621c0.079,1.011,0.169,2.019,0.273,3.024c6.254,60.808,57.548,108.507,119.379,108.413
		c65.964-0.101,119.705-54.435,119.688-121.009C319.864,236.32,319.755,233.244,319.539,230.27z M199.04,340.245
		c-50.725-0.21-91.714-38.106-97.964-87.412c-0.251-1.977-0.607-4.037-0.92-6.116c0.002-0.061,0.009-0.12,0.009-0.181v-46.607
		h199.742l0.361,44.695C297.993,298.09,253.562,340.471,199.04,340.245z"/>
	<path fill="#323232" d="M198.793,227.708c-17.074,0.028-30.821,13.822-30.787,30.892c0.028,13.536,8.851,25.07,21.008,29.171
		v12.058c0,5.5,4.5,10,10,10s10-4.5,10-10v-12.227c11.933-4.252,20.516-15.695,20.513-29.087
		C229.522,241.512,215.724,227.68,198.793,227.708z M199.215,269.08c-5.92-0.025-10.705-4.866-10.691-10.82
		c0.013-5.925,4.846-10.718,10.799-10.71c6,0.008,10.801,4.838,10.777,10.844C210.076,264.331,205.214,269.104,199.215,269.08z"/>
</g>
</svg>
