<?xml version="1.0" encoding="utf-8"?>
<!-- Generator: Adobe Illustrator 19.1.0, SVG Export Plug-In . SVG Version: 6.00 Build 0)  -->
<svg version="1.1" id="Layer_1" xmlns="http://www.w3.org/2000/svg" xmlns:xlink="http://www.w3.org/1999/xlink" x="0px" y="0px"
	 viewBox="0 0 400 400" enable-background="new 0 0 400 400" xml:space="preserve">
<g>
	<g>
		<path d="M110.756,142.209c0.453-2.008,0.773-4.058,1.382-6.018c3.873-12.469,15.042-18.846,27.641-17.869
			c22.025,1.707,41.831,20.013,45.667,41.741c1.152,6.525,0.574,12.861-1.717,18.079c1.823,2.192,3.219,4.163,4.902,5.85
			c28.471,28.535,56.971,57.041,85.49,85.528c2.325,2.323,3.804,4.871,3.304,8.271c-0.916,6.226-8.105,9.326-13.242,5.68
			c-0.837-0.594-1.582-1.333-2.312-2.063c-29.33-29.323-58.655-58.651-87.975-87.985c-0.774-0.774-1.485-1.611-2.187-2.377
			c-2.656,0.686-5.283,1.626-7.988,2.018c-10.433,1.509-19.883-1.442-28.53-7.057c-11.419-7.415-19.382-17.543-23.068-30.796
			c-0.583-2.098-0.917-4.265-1.366-6.4C110.756,146.61,110.756,144.41,110.756,142.209z"/>
		<path d="M309.556,149.975c-0.81,1.148-1.476,2.44-2.453,3.422c-12.181,12.251-24.306,24.56-36.667,36.627
			c-5.603,5.47-12.061,9.766-20.102,10.957c-5.876,0.871-11.458,0.007-16.714-2.807c-0.964-0.516-1.93-1.03-2.912-1.554
			c-3.226,3.157-6.405,6.267-9.425,9.223c-3.912-3.884-7.886-7.83-11.734-11.652c3.005-3.069,6.113-6.242,8.83-9.016
			c-1.418-4.034-3.106-7.579-3.886-11.314c-1.698-8.126,0.664-15.514,5.339-22.162c2.036-2.894,4.304-5.678,6.79-8.193
			c11.734-11.874,23.58-23.636,35.384-35.44c1.458-1.458,2.984-2.692,5.273-2.078c3.032,0.814,4.384,4.108,2.689,6.738
			c-0.484,0.751-1.125,1.415-1.761,2.052c-11.519,11.54-23.047,23.071-34.581,34.596c-0.501,0.501-1.076,0.928-1.463,1.259
			c2.257,2.259,4.342,4.346,6.926,6.932c0.184-0.327,0.418-1.075,0.908-1.567c11.64-11.693,23.311-23.356,34.966-35.034
			c1.37-1.373,2.802-2.466,4.924-2.109c3.029,0.51,4.725,3.869,3.183,6.52c-0.479,0.824-1.158,1.554-1.837,2.235
			c-11.565,11.585-23.145,23.156-34.72,34.732c-0.495,0.495-0.968,1.011-1.338,1.398c2.143,2.172,4.208,4.266,6.358,6.445
			c0.428-0.407,0.944-0.876,1.437-1.369c11.533-11.526,23.062-23.056,34.602-34.575c0.682-0.681,1.404-1.354,2.207-1.877
			c1.747-1.138,4.065-0.815,5.521,0.664c1.35,1.371,1.685,3.701,0.653,5.356c-0.507,0.812-1.172,1.545-1.852,2.226
			c-11.565,11.586-23.139,23.162-34.731,34.721c-0.498,0.497-1.182,0.808-1.625,1.104c2.473,2.482,4.565,4.581,6.801,6.825
			c2.275-2.326,4.605-4.75,6.98-7.129c9.782-9.799,19.583-19.581,29.365-29.381c1.599-1.602,3.419-2.886,5.656-1.762
			c1.209,0.607,2.021,2.006,3.012,3.047C309.556,148.681,309.556,149.328,309.556,149.975z"/>
		<path d="M186.513,216.848c4.026,3.99,8.004,7.932,12.047,11.939c-0.273,0.29-0.657,0.719-1.064,1.126
			c-17.003,17.01-34.014,34.011-51.005,51.033c-2.539,2.544-5.386,3.983-9.062,3.01c-5.953-1.575-8.31-8.641-4.483-13.463
			c0.401-0.505,0.845-0.979,1.301-1.436c17.138-17.149,34.28-34.294,51.423-51.437C185.987,217.304,186.33,217.015,186.513,216.848z
			"/>
	</g>
	<path d="M162.485,48.799C79.465,74.791,33.237,163.16,59.23,246.18c0.978,3.122,2.059,6.182,3.212,9.197
		c-0.04-0.126-0.064-0.255-0.099-0.381c0.035,0.127,0.06,0.256,0.099,0.383c0.063,0.198,0.14,0.386,0.213,0.577
		c0.054,0.139,0.108,0.28,0.161,0.419c1.982,4.553,7.115,6.974,11.962,5.457c5.192-1.624,8.079-7.147,6.454-12.337
		c-0.103-0.331-0.223-0.652-0.358-0.964c-1.033-2.696-1.988-5.439-2.864-8.231C55.264,167.653,95.718,90.323,168.363,67.577
		c72.647-22.745,149.977,17.706,172.724,90.354c22.746,72.648-17.708,149.978-90.354,172.723
		c-50.286,15.745-102.813,1.203-137.929-33.334c-0.256-0.252-0.511-0.506-0.764-0.76c-2.5-2.229-6.067-3.135-9.496-2.062
		c-5.189,1.625-8.078,7.148-6.454,12.336c0.546,1.745,1.541,3.222,2.808,4.364l-0.004-0.004c-0.007,0.006-0.012,0.012-0.017,0.019
		c40.129,39.556,100.211,56.231,157.736,38.219c83.02-25.992,129.247-114.363,103.254-197.383
		C333.873,69.032,245.503,22.805,162.485,48.799z"/>
</g>
</svg>
