<?xml version="1.0" encoding="utf-8"?>
<!-- Generator: Adobe Illustrator 20.1.0, SVG Export Plug-In . SVG Version: 6.00 Build 0)  -->
<svg version="1.1" id="Layer_1" xmlns="http://www.w3.org/2000/svg" xmlns:xlink="http://www.w3.org/1999/xlink" x="0px" y="0px"
	 width="400px" height="400px" viewBox="0 0 400 400" enable-background="new 0 0 400 400" xml:space="preserve">
<path fill-rule="evenodd" clip-rule="evenodd" fill="#333333" d="M359.6,100.8c0-5.5-4.4-9.9-9.9-9.9s-9.9,4.4-9.9,9.9v211
	l-79.4,15.8V89.8l89.4-17.8c5.5,0,9.9-4.4,9.9-9.9s-4.4-9.9-9.9-9.9l-98.3,19.6c-0.3,0-0.7,0-1,0c0,0-0.1,0-0.1,0c0,0-0.1,0-0.1,0
	c-0.3,0-0.7,0-1,0L155.2,53c-1.2-0.5-2.6-0.8-4-0.8l-0.1,0l-0.1,0c-1.4,0-2.7,0.3-4,0.8L52.9,71.7c-0.3,0-0.7,0-1,0
	c-4.1,0-7.7,2.5-9.1,6.1c-0.6,1.2-0.9,2.6-0.9,4c0,0.5,0,1,0.1,1.5v215.6c0,5.5,4.4,9.9,9.9,9.9c5.5,0,9.9-4.4,9.9-9.9V89.8
	l79.4-15.8v237.8l-89.4,17.8c-5.5,0-9.9,4.4-9.9,9.9s4.4,9.9,9.9,9.9l99.4-19.8l95.4,19c1.2,0.5,2.5,0.8,3.9,0.8l0,0l0,0
	c1.4,0,2.7-0.3,3.9-0.8l95.5-19.1c5.5,0,9.9-4.4,9.9-9.9c0-0.6-0.1-1.1-0.2-1.7V100.8z M240.4,327.6l-79.4-15.8V73.9l79.4,15.8
	V327.6z"/>
</svg>
