<?xml version="1.0" encoding="utf-8"?>
<!-- Generator: Adobe Illustrator 19.1.0, SVG Export Plug-In . SVG Version: 6.00 Build 0)  -->
<svg version="1.1" id="Layer_1" xmlns="http://www.w3.org/2000/svg" xmlns:xlink="http://www.w3.org/1999/xlink" x="0px" y="0px"
	 width="400px" height="400px" viewBox="0 0 400 400" enable-background="new 0 0 400 400" xml:space="preserve">
<g id="Layer_x25_20196">
	<path fill="#323232" d="M110.5,201C72.116,201,41,232.116,41,270.5S72.116,340,110.5,340s69.5-31.116,69.5-69.5
		S148.884,201,110.5,201z M110.5,320C83.162,320,61,297.838,61,270.5S83.162,221,110.5,221s49.5,22.162,49.5,49.5
		S137.838,320,110.5,320z"/>
	<path fill="#323232" d="M152.98,266.495c0.013-0.43,0.018-0.862,0.02-1.295l-0.065,0.145
		C152.955,265.726,152.969,266.111,152.98,266.495z M153,268c0-0.503-0.005-1.005-0.02-1.505c-0.011-0.384-0.025-0.769-0.045-1.15
		c-0.158-3.005-0.588-5.938-1.26-8.78c-2.1-2.772-5.429-4.565-9.175-4.565c-5.688,0-10.326,2.7-11.25,8.125
		c0.43,1.754,0.619,4.998,0.715,6.86c-0.602,11.949-8.436,22.03-19.285,26.095c-1.767,0.211-3.408,0.838-4.815,1.785
		C104.929,296.84,103,300.196,103,304c0,5.151,3.54,9.474,8.32,10.67c3.252-0.37,6.411-1.044,9.445-1.995
		c0.669-0.522,1.278-1.119,1.81-1.78c16.891-7.253,28.992-23.38,30.305-42.44L153,268.2V268z"/>
	<path fill="#323232" d="M332.98,266.495c0.013-0.43,0.018-0.862,0.02-1.295l-0.065,0.145
		C332.955,265.726,332.969,266.111,332.98,266.495z M333,268c0-0.503-0.005-1.005-0.02-1.505c-0.011-0.384-0.025-0.769-0.045-1.15
		c-0.159-3.005-0.588-5.938-1.26-8.78c-2.1-2.772-5.429-4.565-9.175-4.565c-5.688,0-10.326,2.7-11.25,8.125
		c0.43,1.754,0.619,4.998,0.715,6.86c-0.602,11.949-8.436,22.03-19.285,26.095c-1.767,0.211-3.408,0.838-4.815,1.785
		C284.929,296.84,283,300.196,283,304c0,5.151,3.54,9.474,8.32,10.67c3.252-0.37,6.411-1.044,9.445-1.995
		c0.669-0.522,1.278-1.119,1.81-1.78c16.891-7.253,28.992-23.38,30.305-42.44L333,268.2V268z"/>
	<path fill="#323232" d="M94.285,90.739c0.738-1.469,1.451-2.909,1.382-3.771c0.229-11.989,7.576-22.4,18.049-26.909
		c1.719-0.282,3.303-0.977,4.648-1.982c2.808-2.096,4.591-5.534,4.477-9.344c-0.155-5.158-3.742-9.344-8.446-10.349
		c-3.165,0.501-6.23,1.304-9.164,2.379c-0.638,0.55-2.728,1.438-3.227,2.121C88.039,49.7,78.831,62.718,76.046,78.363
		c-0.354,0.746-0.622,1.545-0.783,2.389L41.328,258.342c-1.041,5.449,2.646,10.672,8.235,11.667
		c5.589,0.995,10.965-2.616,12.006-8.065L94.285,90.739z"/>
	<path fill="#323232" d="M306.714,90.739c-0.738-1.469-1.451-2.909-1.382-3.771c-0.229-11.989-7.576-22.4-18.049-26.909
		c-1.72-0.282-3.303-0.977-4.649-1.982c-2.808-2.096-4.591-5.534-4.477-9.344c0.155-5.158,3.742-9.344,8.446-10.349
		c3.165,0.501,6.23,1.304,9.164,2.379c0.638,0.55,2.727,1.438,3.227,2.121c13.964,6.815,23.173,19.833,25.957,35.479
		c0.354,0.746,0.622,1.545,0.783,2.389l33.935,177.589c1.041,5.449-2.646,10.672-8.235,11.667
		c-5.59,0.995-10.965-2.616-12.006-8.065L306.714,90.739z"/>
	<path fill="#323232" d="M173.038,246.921c-0.364,0.23-0.725,0.466-1.086,0.707l0.157-0.028
		C172.414,247.371,172.726,247.145,173.038,246.921z M174.276,246.064c-0.418,0.281-0.831,0.566-1.238,0.857
		c-0.312,0.224-0.624,0.45-0.929,0.679c-2.405,1.809-4.597,3.798-6.579,5.937c-1.124,3.27-0.747,7.002,1.35,10.073
		c3.185,4.664,8.023,6.959,13.042,4.687c1.214-1.332,3.8-3.299,5.292-4.417c10.252-6.179,23.003-5.386,32.452,1.24
		c0.967,1.106,2.124,1.978,3.39,2.6c-0.036,0.922-0.055,1.85-0.055,2.78c0,4.25,0.38,8.411,1.11,12.45
		c5.867,32.443,34.256,57.05,68.39,57.05c38.384,0,69.5-31.116,69.5-69.5S328.884,201,290.5,201c-14.011,0-26.086,2.93-37,10.062
		c-2.489,1.627-5.121,3.077-7.375,5c-0.896,1.592-2.125,4.98-2.125,6.938c0,6.075,4.175,10.812,10.25,10.812
		c0.802,0,2.997-0.275,3.75-0.438c2.26-2.041,4.046-3.505,6.655-5.105c7.522-4.613,16.374-7.27,25.845-7.27
		c27.338,0,49.5,22.162,49.5,49.5c0,27.339-22.162,49.5-49.5,49.5c-27.222,0-48.687-22.697-48.875-49.875L241,270.5
		c0-2.916-0.171-6.285,0.312-9.062c-1.101-6.277-5.123-10.935-11.062-13.203l-1.5-0.798c-0.808-0.257-1.779-1.058-2.625-1.125
		c-15.477-9.8-34.854-9.972-51.404-0.404l-0.279,0.044L174.276,246.064z"/>
	<path fill="#323232" d="M252.53,212.28c-3.057,0.701-5.629,2.676-7.125,5.335C247.659,215.691,250.041,213.907,252.53,212.28z"/>
	<path fill="#323232" d="M242,265c0-1.04-0.091-2.059-0.265-3.05c-0.484,2.777-0.735,5.634-0.735,8.55v0.35
		C241.647,269.016,242,267.048,242,265z"/>
</g>
</svg>
