<?xml version="1.0" encoding="utf-8"?>
<!-- Generator: Adobe Illustrator 19.1.0, SVG Export Plug-In . SVG Version: 6.00 Build 0)  -->
<svg version="1.1" id="Layer_1" xmlns="http://www.w3.org/2000/svg" xmlns:xlink="http://www.w3.org/1999/xlink" x="0px" y="0px"
	 viewBox="0 0 400 400" enable-background="new 0 0 400 400" xml:space="preserve">
<g>
	<path fill="#231F20" d="M185.201,363.251c-27.104,0-54.208,0.001-81.312,0c-27.01-0.001-29.54-4.427-16.236-28.403
		c21.945-39.549,44.04-79.016,65.658-118.742c2.843-5.225,4.468-11.748,4.584-17.711c0.495-25.442,0.362-50.9,0.062-76.348
		c-0.05-4.228-1.943-8.472-3.211-12.639c-1.423-4.675-0.94-7.896,4.955-7.89c17.518,0.016,35.037-0.037,52.554,0.041
		c5.975,0.027,6.091,3.469,4.532,8.051c-1.301,3.823-3.008,7.793-3.051,11.713c-0.275,25.118-0.51,50.249,0.101,75.355
		c0.168,6.901,1.956,14.439,5.226,20.479c22.321,41.223,45.269,82.107,67.944,123.138c9.186,16.621,5.463,22.9-13.554,22.94
		C244.036,363.296,214.618,363.251,185.201,363.251z M185.275,345.392c0-0.015,0-0.029,0-0.044c24.793,0,49.589,0.193,74.379-0.091
		c10.479-0.12,12.291-4.029,6.754-12.834c-7.912-12.582-15.811-25.174-23.807-37.703c-5.656-8.863-14.066-11.482-23.73-7.759
		c-4.606,1.774-9.272,3.423-13.991,4.866c-12.903,3.945-24.67-0.954-36.663-4.69c-15.452-4.813-35.553-0.873-41.202,8.689
		c-7.379,12.492-14.135,25.39-20.446,38.458c-4.271,8.845-2.49,11.063,7.302,11.088
		C137.672,345.433,161.474,345.392,185.275,345.392z M208.005,258.394c-0.535-7.42-4.41-11.888-11.685-11.998
		c-7.32-0.111-11.827,4.469-11.908,11.592c-0.081,7.098,4.216,11.781,11.604,11.871
		C203.383,269.948,207.213,265.521,208.005,258.394z M183.377,234.115c-3.454-2.556-5.649-5.442-7.752-5.376
		c-2.016,0.064-3.936,3.19-5.898,4.97c1.978,2.112,3.675,5.36,6.031,5.944C177.383,240.056,179.922,236.771,183.377,234.115z"/>
	<path fill="#231F20" d="M189.071,57.997c7.409-0.021,13.791,6.509,13.674,13.99c-0.119,7.616-6.499,13.948-14.071,13.381
		c-7.996-0.599-12.636-5.11-12.994-13.285C175.345,64.432,181.599,58.018,189.071,57.997z"/>
	<path fill="#231F20" d="M213.923,45.716c-5.236,3.991-8.049,7.796-10.598,7.627c-2.733-0.181-7.12-3.981-7.276-6.424
		c-0.156-2.448,3.7-6.766,6.394-7.309C204.95,39.104,208.242,42.49,213.923,45.716z"/>
</g>
</svg>
