<svg id="Layer_1" data-name="Layer 1" xmlns="http://www.w3.org/2000/svg" viewBox="0 0 400 400"><defs><style>.cls-1{fill:#323232;}</style></defs><title>icon</title><g id="Layer_20158" data-name="Layer%20158"><path class="cls-1" d="M199.92,287.94c-39.07.06-71-31.66-71.12-70.57-0.08-39.14,31.66-70.77,71.09-70.84a70.85,70.85,0,0,1,71,70.64C270.86,256.11,239,287.88,199.92,287.94Zm-51.35-71a49.9,49.9,0,0,0,49.81,49.88c27.95,0.11,50.6-21.9,50.71-49.27a49.86,49.86,0,0,0-50.21-50C171.15,167.52,148.63,189.62,148.57,216.94Z"/><path class="cls-1" d="M290,339.29H50.61a10,10,0,0,1-10-10h0a10,10,0,0,1,10-10H290a10,10,0,0,1,10,10h0A10,10,0,0,1,290,339.29Z"/><path class="cls-1" d="M60.15,131.24V329a10,10,0,0,1-10,10h0a10,10,0,0,1-10-10V131.24a10,10,0,0,1,10-10h0A10,10,0,0,1,60.15,131.24Z"/><path class="cls-1" d="M359.85,130.29V328.14a10,10,0,0,1-10,10h0a10,10,0,0,1-10-10V130.29a10,10,0,0,1,10-10h0A10,10,0,0,1,359.85,130.29Z"/><path class="cls-1" d="M290,80.71H110.1a10,10,0,0,1-10-10h0a10,10,0,0,1,10-10H290a10,10,0,0,1,10,10h0A10,10,0,0,1,290,80.71Z"/><path class="cls-1" d="M120.12,70.54v59.2a9.94,9.94,0,0,1-10,9.81h0a9.94,9.94,0,0,1-10-9.81V70.54a9.94,9.94,0,0,1,10-9.81h0A9.94,9.94,0,0,1,120.12,70.54Z"/><path class="cls-1" d="M300.09,70.71v59a10,10,0,0,1-10,9.91h0a10,10,0,0,1-10-9.91v-59a10,10,0,0,1,10-9.91h0A10,10,0,0,1,300.09,70.71Z"/><path class="cls-1" d="M110,139.56H50.83a10,10,0,0,1-10-10h0a10,10,0,0,1,10-10H110a10,10,0,0,1,10,10h0A10,10,0,0,1,110,139.56Z"/><path class="cls-1" d="M349.69,139.63H290a10,10,0,0,1-10-10h0a10,10,0,0,1,10-10h59.71a10,10,0,0,1,10,10h0A10,10,0,0,1,349.69,139.63Z"/><path class="cls-1" d="M187.8,245.47a29.2,29.2,0,0,1-3.15-1.42A9.88,9.88,0,0,0,187.8,245.47Z"/><path class="cls-1" d="M228.06,216.23a10,10,0,0,0-.21-2q0.15,1.34.17,2.7C228,216.69,228.06,216.46,228.06,216.23Z"/><path class="cls-1" d="M208.24,215.2a10.09,10.09,0,0,0-.05,1,9.93,9.93,0,0,0,.3,2.4c0-.33.05-0.67,0.05-1A10.19,10.19,0,0,0,208.24,215.2Z"/><path class="cls-1" d="M228,216.91q0-1.37-.17-2.7a9.94,9.94,0,0,0-19.62,1,10.19,10.19,0,0,1,.3,2.42c0,0.34,0,.68-0.05,1a10.11,10.11,0,0,1-10,9.14,9.84,9.84,0,0,1-3.52-.65,9.94,9.94,0,0,0-10.35,16.93,29,29,0,0,0,13.39,3.3,29.81,29.81,0,0,0,30-29.68C228,217.42,228,217.17,228,216.91Z"/></g></svg>