<?xml version="1.0" encoding="utf-8"?>
<!-- Generator: Adobe Illustrator 19.1.0, SVG Export Plug-In . SVG Version: 6.00 Build 0)  -->
<svg version="1.1" id="Layer_1" xmlns="http://www.w3.org/2000/svg" xmlns:xlink="http://www.w3.org/1999/xlink" x="0px" y="0px"
	 width="400px" height="400px" viewBox="0 0 400 400" enable-background="new 0 0 400 400" xml:space="preserve">
<g id="Layer_x25_20129">
	<path fill="#323232" d="M352.691,152.193c-26.404-84.33-116.17-131.286-200.497-104.882
		C67.864,73.713,20.906,163.478,47.309,247.808c0.991,3.169,2.091,6.276,3.261,9.337c0,0.003,0,0.004,0.002,0.007
		c0.063,0.201,0.143,0.392,0.215,0.586c0.056,0.142,0.11,0.284,0.164,0.426c2.015,4.625,7.229,7.084,12.152,5.543
		c5.272-1.65,8.205-7.26,6.555-12.532c-0.105-0.336-0.227-0.662-0.363-0.979c-1.05-2.738-2.02-5.524-2.91-8.361
		C43.281,168.042,84.372,89.49,158.164,66.386c73.794-23.104,152.345,17.985,175.45,91.78
		c23.105,73.795-17.987,152.345-91.78,175.449c-51.08,15.993-104.436,1.222-140.107-33.86c-0.26-0.256-0.519-0.514-0.777-0.771
		c-2.538-2.264-6.162-3.185-9.645-2.094c-5.271,1.65-8.205,7.261-6.556,12.531c0.554,1.773,1.565,3.273,2.853,4.433
		c0-0.002-0.002-0.003-0.004-0.004c-0.007,0.006-0.012,0.013-0.018,0.02c40.763,40.181,101.793,57.119,160.225,38.823
		C332.136,326.288,379.094,236.523,352.691,152.193z"/>
	<path fill="#323232" d="M121.89,269.259c-5.51,0-9.977-4.467-9.977-9.977l0,0c0-5.51,4.467-9.977,9.977-9.977h20.197
		c5.51,0,9.977,4.467,9.977,9.977l0,0c0,5.51-4.467,9.977-9.977,9.977H121.89z"/>
	<path fill="#323232" d="M121.89,210.259c-5.51,0-9.977-4.467-9.977-9.977l0,0c0-5.51,4.467-9.977,9.977-9.977h20.197
		c5.51,0,9.977,4.467,9.977,9.977l0,0c0,5.51-4.467,9.977-9.977,9.977H121.89z"/>
	<path fill="#323232" d="M121.89,151.259c-5.51,0-9.977-4.467-9.977-9.977l0,0c0-5.51,4.467-9.977,9.977-9.977h20.197
		c5.51,0,9.977,4.467,9.977,9.977l0,0c0,5.51-4.467,9.977-9.977,9.977H121.89z"/>
	<path fill="#323232" d="M177.525,269.26c-5.51,0-9.977-4.467-9.977-9.977l0,0c0-5.51,4.467-9.977,9.977-9.977h110.197
		c5.51,0,9.977,4.467,9.977,9.977l0,0c0,5.51-4.467,9.977-9.977,9.977H177.525z"/>
	<path fill="#323232" d="M177.525,210.26c-5.51,0-9.977-4.467-9.977-9.977l0,0c0-5.51,4.467-9.977,9.977-9.977h110.197
		c5.51,0,9.977,4.467,9.977,9.977l0,0c0,5.51-4.467,9.977-9.977,9.977H177.525z"/>
	<path fill="#323232" d="M177.525,151.26c-5.51,0-9.977-4.467-9.977-9.977l0,0c0-5.51,4.467-9.977,9.977-9.977h110.197
		c5.51,0,9.977,4.467,9.977,9.977l0,0c0,5.51-4.467,9.977-9.977,9.977H177.525z"/>
</g>
</svg>
