<?xml version="1.0" encoding="utf-8"?>
<!-- Generator: Adobe Illustrator 19.1.0, SVG Export Plug-In . SVG Version: 6.00 Build 0)  -->
<svg version="1.1" id="Layer_1" xmlns="http://www.w3.org/2000/svg" xmlns:xlink="http://www.w3.org/1999/xlink" x="0px" y="0px"
	 viewBox="0 0 400 400" enable-background="new 0 0 400 400" xml:space="preserve">
<g>
	<path fill="#231F20" d="M142.539,354.922c-1.628-0.999-3.544-1.719-4.833-3.047c-5.109-5.263-2.695-13.705,4.487-15.375
		c14.499-3.371,29.056-6.491,43.59-9.714c5.76-1.277,11.521-2.551,17.393-3.851c0-2.664,0-5.176,0-7.387
		c-62.181-8.214-104.489-40.536-124.316-100.673c-15.494-65.263,4.852-117.093,58.432-156.676c-1.12-2.138-2.581-4.494-3.623-7.023
		c-1.529-3.708-0.562-6.365,2.564-8.084c2.979-1.637,5.666-1.085,8.032,2.012c1.657,2.168,2.97,4.599,4.662,7.27
		c9.515-3.79,19.037-7.582,28.56-11.375c1.431,0,2.861,0,4.292,0c2.616,1.586,5.091,3.235,6.119,6.415
		c1.654,5.119-0.349,9.731-5.312,11.768c-7.169,2.942-14.285,6.026-21.53,8.766c-15.009,5.676-27.021,15.506-37.625,27.163
		c-17.364,19.088-27.194,41.687-30.472,67.211c-6.43,50.068,22.431,101.923,68.451,122.752
		c34.776,15.74,69.556,15.587,104.142-0.601c4.304-2.015,8.346-4.732,12.192-7.556c7.159-5.255,14.088-10.824,21.107-16.27
		c4.258-3.304,9.578-2.713,13.059,1.466c3.483,4.182,2.983,9.41-1.331,12.986c-3.695,3.063-7.463,6.038-11.202,9.046
		c-3.734,3.004-7.474,6.001-11.292,9.066c1.442,2.916,2.967,5.659,4.172,8.537c1.159,2.766,0.45,5.208-2.088,6.981
		c-2.986,2.085-5.752,1.89-8.109-1.031c-1.902-2.358-3.371-5.066-5.206-7.888c-16.82,8.599-34.72,13.784-53.849,15.186
		c0,2.632,0,5.133,0,7.921c8.206,1.853,16.429,3.733,24.663,5.563c11.446,2.544,22.9,5.058,34.353,7.57
		c5.288,1.16,8.007,3.766,8.548,8.255c0.538,4.463-1.669,7.854-6.607,10.18c-0.165,0.078-0.269,0.288-0.401,0.436
		C236.553,354.922,189.546,354.922,142.539,354.922z"/>
	<path fill="#231F20" d="M212.563,282.744c-59.814-0.696-107.084-48.627-106.31-107.796
		c0.772-59.019,49.114-106.647,107.725-105.487c60.922,1.206,105.571,48.582,105.306,108.009
		C319.002,240.284,266.614,283.255,212.563,282.744z M257.809,142.91c10.907-6.308,21.98-12.713,33.189-19.196
		c-12.081-17.612-27.896-29.6-47.574-36.584c-1.597-0.567-2.269-0.012-3.143,1.308c-4.28,6.459-8.714,12.816-13.085,19.215
		c-0.332,0.486-0.596,1.019-0.731,1.252c5.694,5.431,11.508,10.448,16.679,16.057C248.309,130.565,252.831,136.76,257.809,142.91z
		 M263.657,154.066c7.205,13.996,11.584,28.642,13.712,43.505c8.941-0.486,17.475-0.902,25.994-1.506
		c0.65-0.046,1.568-1.339,1.749-2.184c2.119-9.866,2.377-19.836,1.063-29.812c-1.337-10.151-4.138-19.895-8.959-29.372
		C285.99,141.177,274.908,147.573,263.657,154.066z M127.919,217.885c11.861-6.847,22.87-13.202,34.155-19.716
		c-7.125-13.921-11.598-28.45-13.72-43.791c-1.095,0.058-1.896,0.084-2.694,0.145c-7.318,0.565-14.63,1.266-21.958,1.628
		c-2.19,0.108-2.961,0.751-3.338,2.843c-2.296,12.732-2.249,25.448,0.845,37.989C122.924,203.938,125.566,210.664,127.919,217.885z
		 M168.357,209.113c-5.907,3.394-11.388,6.529-16.854,9.688c-5.519,3.189-11.023,6.402-16.516,9.594
		c8.134,15.124,33.356,34.011,48.803,36.878c5.159-7.513,10.272-14.959,15.499-22.571
		C187.224,233.44,176.937,222.23,168.357,209.113z M246.411,149.477c-7.998-12.178-17.512-22.393-28.777-30.713
		c-7.087,5.65-13.926,11.103-20.96,16.711c6.053,10.485,12.213,21.155,18.495,32.036C225.671,161.45,235.97,155.505,246.411,149.477
		z M264.914,200.618c-1.657-14.091-5.682-27.415-12.24-40.2c-10.529,6.075-20.759,11.977-31.207,18.005
		c6.301,10.904,12.457,21.558,18.517,32.045C248.358,207.16,256.478,203.952,264.914,200.618z M185.853,141.929
		c-8.098,3.045-15.691,5.994-23.363,8.721c-2.059,0.732-1.636,2.039-1.435,3.396c1.761,11.882,5.08,23.304,10.204,34.183
		c0.542,1.152,1.163,2.267,1.845,3.587c10.567-6.115,20.769-12.018,31.143-18.021C197.941,162.869,191.83,152.283,185.853,141.929z
		 M229.054,216.725c-6.144-10.622-12.295-21.255-18.513-32.005c-10.563,6.109-20.76,12.007-30.932,17.889
		c4.105,8.575,20.462,26.022,28.527,30.693C215.063,227.813,221.916,222.382,229.054,216.725z M196.469,268.71
		c16.382,2.734,31.364,1.534,45.774-3.27c-10.801-4.836-21.622-9.682-32.933-14.747C205.32,256.291,201.092,262.224,196.469,268.71z
		 M150.161,106.276c-8.857,6.12-22.885,26.639-25.213,37.671c7.529-0.709,14.842-1.397,21.593-2.033
		C147.802,129.501,148.99,117.805,150.161,106.276z M228.896,83.705c-13.041-3.209-38.512-1.052-45.056,3.248
		c10.404,4.649,21.144,9.447,32.505,14.523C220.245,95.954,224.491,89.942,228.896,83.705z M275.506,246.249
		c11.414-10.194,19.9-22.471,25.636-37.834c-7.975,0.756-15.268,1.447-21.852,2.071
		C277.971,222.953,276.745,234.542,275.506,246.249z M164.377,104.751c-3.131,11.424-4.554,22.106-4.412,33.869
		c6.788-2.777,12.983-5.311,19.404-7.938C174.279,121.876,169.558,113.711,164.377,104.751z M218.866,240.719
		c10.209,5.913,20.09,10.195,31.509,12.934c-5.204-8.991-9.959-17.204-14.96-25.844
		C229.839,232.159,224.649,236.207,218.866,240.719z M261.363,247.497c2.994-11.353,4.63-22.057,4.405-33.793
		c-6.757,2.731-12.916,5.221-19.396,7.84C251.446,230.33,256.206,238.57,261.363,247.497z M176.47,98.014
		c-0.266,0.359-0.531,0.719-0.797,1.078c4.774,8.259,9.548,16.519,14.631,25.311c5.596-4.402,10.86-8.543,16.124-12.683
		c-0.063-0.46-0.125-0.92-0.188-1.38C196.316,106.232,186.393,102.123,176.47,98.014z"/>
</g>
</svg>
