<svg id="Layer_1" data-name="Layer 1" xmlns="http://www.w3.org/2000/svg" viewBox="0 0 500 500"><defs><style>.cls-1{fill:#333;}</style></defs><title>files</title><path class="cls-1" d="M176.61,386.22a5.54,5.54,0,0,0-2.21-.45,5.63,5.63,0,0,0-2.25.45,5.91,5.91,0,0,0-1.82,1.2,5.29,5.29,0,0,0-1.2,1.8,5.94,5.94,0,0,0,0,4.44,5.33,5.33,0,0,0,1.2,1.78,5.64,5.64,0,0,0,1.82,1.18,5.87,5.87,0,0,0,2.25.43,5.77,5.77,0,0,0,2.21-.43,5.42,5.42,0,0,0,1.8-1.18,5.7,5.7,0,0,0,1.2-1.78,5.7,5.7,0,0,0,0-4.44A5.51,5.51,0,0,0,176.61,386.22Z"/><path class="cls-1" d="M222.27,347.16a18.12,18.12,0,0,0-6.56-3.56,31,31,0,0,0-9.41-1.27H188.64v54.2h10.08V377.45h7.57a29.21,29.21,0,0,0,9.22-1.31,18.31,18.31,0,0,0,6.56-3.67,15,15,0,0,0,3.94-5.64,20.38,20.38,0,0,0,.08-14.19A14,14,0,0,0,222.27,347.16Zm-5.7,16.59a8.16,8.16,0,0,1-2,3.15,9,9,0,0,1-3.41,2,15.17,15.17,0,0,1-4.83.69h-7.57V350.12h7.57a16,16,0,0,1,4.83.66,9,9,0,0,1,3.41,1.89,7.79,7.79,0,0,1,2,3,10.92,10.92,0,0,1,.67,3.94A12,12,0,0,1,216.57,363.74Z"/><path class="cls-1" d="M273.69,396.15a4.62,4.62,0,0,0,2,.38h5.21v-54.2H272v32.95q0,1.09.06,2.34t0.21,2.57l-28.45-36.25a8,8,0,0,0-.75-0.84,2.73,2.73,0,0,0-.69-0.49,2.63,2.63,0,0,0-.81-0.22,9.37,9.37,0,0,0-1.12-.06h-5.29v54.2H244V363.24q0-1-.06-2.16t-0.17-2.38l28.34,36.1A4.4,4.4,0,0,0,273.69,396.15Z"/><path class="cls-1" d="M296.41,389.33a25.9,25.9,0,0,0,8.62,5.74,28.25,28.25,0,0,0,10.91,2.06,50.94,50.94,0,0,0,6.22-.36,36.53,36.53,0,0,0,5.42-1.07,27.4,27.4,0,0,0,4.76-1.82,29.7,29.7,0,0,0,4.29-2.61V369.35h-18V375a1.78,1.78,0,0,0,.56,1.33,2.12,2.12,0,0,0,1.54.54h6.79v9.86a23.46,23.46,0,0,1-10.76,2.32,18.67,18.67,0,0,1-7.12-1.33,15.82,15.82,0,0,1-5.62-3.84,17.46,17.46,0,0,1-3.67-6.17,24.59,24.59,0,0,1-1.31-8.34,23.67,23.67,0,0,1,1.24-7.87,17.42,17.42,0,0,1,3.52-6,15.35,15.35,0,0,1,5.53-3.86,18.71,18.71,0,0,1,7.25-1.35,25.13,25.13,0,0,1,4.37.34,22.74,22.74,0,0,1,3.41.86,16.72,16.72,0,0,1,2.77,1.24q1.26,0.71,2.46,1.42a3.41,3.41,0,0,0,1.84.6,2.6,2.6,0,0,0,2.29-1.39l2.92-4.57a26.5,26.5,0,0,0-8.23-5.12,30.51,30.51,0,0,0-11.49-2,32.06,32.06,0,0,0-11.69,2,24.69,24.69,0,0,0-14.51,14.47,30.62,30.62,0,0,0-2,11.21,29.67,29.67,0,0,0,2,11.13A26.07,26.07,0,0,0,296.41,389.33Z"/><path class="cls-1" d="M333.28,138.84h0l0.34,0.2Z"/><path class="cls-1" d="M391.2,425.55V208.19a9.84,9.84,0,0,0-3.38-7.42l-78.43-78.44a9.9,9.9,0,0,0-17.11,6.76v77.76a10.17,10.17,0,0,0-.1,1.35,9.9,9.9,0,0,0,6.1,9.14,9.65,9.65,0,0,0,3.89.8,8.12,8.12,0,0,0,.86,0h68.38v198H133.95V139H229.1v3.16h0.21v98.19c-0.69,11.21-8.61,20.78-21.34,20.78-0.22,0-3.73,0-4,0-11.13,0-24.3-9-24.3-22.37h0V162.38H179.5c0-.1,0-0.2,0-0.3a9.66,9.66,0,0,0-19.32,0c0,0.1,0,.2,0,0.3h0v76.35H160c0,24,20,43.48,44.7,43.48s44.74-19.49,44.74-43.48h-0.19V142.14h0.05V139H262.5a9.89,9.89,0,0,0,0-19.78H249.28V94.09h0a30.27,30.27,0,0,0-60.54.3h0v24.8H125.1a9.47,9.47,0,0,0-1-.06,9.89,9.89,0,0,0-9.89,9.89V425.84a10,10,0,0,0,9.93,10H381.33a9.89,9.89,0,0,0,9.89-9.9C391.22,425.84,391.2,425.69,391.2,425.55ZM312.07,198.31V153.78l45.09,44.53H312.07ZM219,84.31A10.1,10.1,0,0,1,229.1,94.4v24.8H208.94V94.09h0A10.08,10.08,0,0,1,219,84.31Z"/></svg>