<svg id="Layer_1" data-name="Layer 1" xmlns="http://www.w3.org/2000/svg" viewBox="0 0 400 400"><defs><style>.cls-1{fill:#333;}</style></defs><title>icon</title><g id="Layer_20177" data-name="Layer%20177"><path class="cls-1" d="M350.73,59.32h-10V240.2a20.11,20.11,0,0,1-20.1,20.1H240.19v80.39h50.24a10,10,0,1,1,0,20.08H109.57a10,10,0,1,1,0-20.08h50.24V260.29H79.42a20.1,20.1,0,0,1-20.1-20.1V59.32h-10a10,10,0,0,1,0-20.09H350.72a10,10,0,0,1,0,20.09h0ZM179.9,340.69H220.1V260.29H179.9v80.39h0ZM320.59,59.32H79.42V240.2H320.59V59.32h0Zm-170.83,80.4a10,10,0,0,1,10,10V190a10,10,0,1,1-20.1,0V149.76a10.05,10.05,0,0,1,10-10h0ZM190,99.52a10.05,10.05,0,0,1,10,10V190a10,10,0,1,1-20.1,0V109.57a10.05,10.05,0,0,1,10-10h0Zm40.19,20.1a10.05,10.05,0,0,1,10,10V190a10,10,0,1,1-20.1,0V129.67a10,10,0,0,1,10-10h0Zm40.19,40.19a10.06,10.06,0,0,1,10,10V190a10,10,0,1,1-20.1,0v-20.1a10,10,0,0,1,10-10h0Z"/></g></svg>