<?xml version="1.0" encoding="utf-8"?>
<!-- Generator: Adobe Illustrator 19.1.0, SVG Export Plug-In . SVG Version: 6.00 Build 0)  -->
<svg version="1.1" id="Layer_1" xmlns="http://www.w3.org/2000/svg" xmlns:xlink="http://www.w3.org/1999/xlink" x="0px" y="0px"
	 width="400px" height="400px" viewBox="0 0 400 400" enable-background="new 0 0 400 400" xml:space="preserve">
<g id="Layer_x25_20124">
	<path fill="#333333" d="M150.179,113.632l39.49-39.494v115.847c0,5.523,4.475,10,9.998,9.999c5.521,0,9.998-4.476,9.998-9.999
		V73.472l40.156,40.16c3.904,3.904,10.235,3.905,14.14,0c3.904-3.905,3.903-10.236-0.001-14.141l-56.557-56.562
		c-2.038-2.038-4.736-3.003-7.407-2.912c-0.091-0.003-0.18-0.013-0.27-0.013c-0.021,0-0.04-0.003-0.06-0.003
		c-0.011,0-0.021,0.001-0.031,0.001c-0.319,0.001-0.637,0.017-0.955,0.048c-0.149,0.015-0.295,0.043-0.442,0.064
		c-0.176,0.025-0.352,0.046-0.526,0.08c-0.166,0.033-0.326,0.079-0.49,0.12c-0.152,0.039-0.307,0.072-0.459,0.118
		c-0.158,0.048-0.311,0.107-0.465,0.163c-0.154,0.055-0.309,0.106-0.46,0.168c-0.141,0.059-0.275,0.127-0.413,0.192
		c-0.159,0.075-0.319,0.146-0.475,0.229c-0.128,0.068-0.248,0.146-0.373,0.22c-0.156,0.093-0.314,0.182-0.467,0.284
		c-0.131,0.088-0.254,0.186-0.38,0.28c-0.136,0.101-0.274,0.195-0.405,0.303c-0.205,0.168-0.399,0.349-0.59,0.533
		c-0.046,0.044-0.095,0.081-0.14,0.125l-56.557,56.563c-3.905,3.905-3.905,10.235,0,14.14
		C139.945,117.537,146.275,117.537,150.179,113.632z"/>
	<path fill="#333333" d="M125.852,341.743c78.285,40.956,174.942,10.688,215.892-67.603c29.382-56.17,22.103-121.798-13.265-169.525
		c-0.257-0.346-0.517-0.688-0.776-1.03c-1.834-2.137-4.549-3.497-7.586-3.497c-5.522,0-9.998,4.476-9.998,9.999
		c0,2.436,0.873,4.667,2.321,6.402c-0.008,0.009-0.013,0.019-0.021,0.027c30.958,41.766,37.331,99.201,11.62,148.359
		c-35.835,68.51-120.417,94.996-188.922,59.158c-68.506-35.839-94.987-120.432-59.151-188.94c3.326-6.357,7.083-12.34,11.195-17.956
		c-0.036-0.038-0.065-0.077-0.093-0.12c1.784-1.805,2.886-4.285,2.886-7.024c0-5.523-4.476-9.999-9.998-9.999
		c-2.943,0-5.58,1.279-7.41,3.302c-0.428,0.473-0.809,0.986-1.141,1.535c-4.839,6.556-9.253,13.55-13.148,20.997
		C17.304,204.118,47.568,300.786,125.852,341.743z"/>
</g>
</svg>
