<?xml version="1.0" encoding="utf-8"?>
<!-- Generator: Adobe Illustrator 19.1.0, SVG Export Plug-In . SVG Version: 6.00 Build 0)  -->
<svg version="1.1" id="Layer_1" xmlns="http://www.w3.org/2000/svg" xmlns:xlink="http://www.w3.org/1999/xlink" x="0px" y="0px"
	 width="400px" height="400px" viewBox="0 0 400 400" enable-background="new 0 0 400 400" xml:space="preserve">
<g id="Layer_x25_20168">
	<path fill="#333333" d="M352.691,152.193C326.288,67.863,236.522,20.906,152.194,47.311
		C67.864,73.713,20.906,163.478,47.309,247.808c0.993,3.169,2.091,6.276,3.261,9.337c0,0,0.001,0.004,0.002,0.007
		c0.063,0.201,0.143,0.392,0.216,0.586c0.055,0.142,0.109,0.284,0.164,0.426c2.014,4.625,7.228,7.084,12.151,5.543
		c5.273-1.65,8.206-7.26,6.556-12.532c-0.104-0.336-0.227-0.662-0.363-0.979c-1.05-2.738-2.02-5.524-2.909-8.361
		C43.281,168.042,84.373,89.49,158.165,66.386c73.794-23.104,152.345,17.985,175.45,91.78
		c23.106,73.795-17.987,152.345-91.78,175.449c-51.08,15.993-104.436,1.222-140.107-33.86c-0.26-0.256-0.518-0.514-0.777-0.772
		c-2.539-2.264-6.163-3.185-9.645-2.094c-5.271,1.65-8.205,7.261-6.556,12.531c0.555,1.773,1.565,3.273,2.852,4.433
		c-0.001-0.002-0.002-0.003-0.004-0.004c-0.007,0.006-0.012,0.013-0.018,0.02c40.763,40.181,101.793,57.119,160.226,38.823
		C332.137,326.288,379.094,236.523,352.691,152.193z"/>
	<path fill="#333333" d="M251.269,197.847H149.612c-16.159,0-29.257,13.112-29.257,29.267v23.516
		c0,16.155,13.099,29.264,29.257,29.264h101.657c16.155,0,29.257-13.108,29.257-29.264v-23.516
		C280.526,210.959,267.424,197.847,251.269,197.847z M170.969,216.154h-9.451v46.961h-9.131v-46.961h-9.444v-7.988h28.026V216.154z
		 M197.666,263.115h-8.099v-4.441c-1.505,1.643-3.057,2.896-4.676,3.742c-1.62,0.882-3.184,1.293-4.706,1.293
		c-1.881,0-3.279-0.598-4.236-1.812c-0.94-1.211-1.42-3.008-1.42-5.434v-33.888h8.099v31.099c0,0.96,0.18,1.649,0.503,2.077
		c0.349,0.441,0.904,0.644,1.665,0.644c0.587,0,1.345-0.281,2.256-0.85c0.917-0.575,1.754-1.293,2.515-2.181v-30.792h8.099V263.115z
		 M227.07,254.745c0,2.864-0.637,5.065-1.907,6.6c-1.264,1.535-3.112,2.29-5.506,2.29c-1.594,0-3.011-0.288-4.242-0.882
		c-1.237-0.588-2.403-1.492-3.465-2.747v3.106h-8.197v-54.945h8.197v17.697c1.098-1.225,2.257-2.175,3.468-2.811
		c1.238-0.65,2.482-0.963,3.743-0.963c2.563,0,4.516,0.855,5.868,2.583c1.358,1.728,2.035,4.258,2.035,7.576v22.497H227.07z
		 M255.165,243.822h-15.499v7.639c0,2.129,0.261,3.612,0.79,4.438c0.542,0.83,1.453,1.234,2.75,1.234
		c1.345,0,2.276-0.35,2.818-1.048c0.523-0.706,0.803-2.24,0.803-4.624v-1.845h8.337v2.08c0,4.154-1.009,7.286-3.057,9.399
		c-2.015,2.093-5.052,3.132-9.088,3.132c-3.635,0-6.499-1.107-8.579-3.335c-2.074-2.214-3.132-5.287-3.132-9.193v-18.21
		c0-3.504,1.156-6.388,3.452-8.599c2.289-2.211,5.238-3.314,8.866-3.314c3.713,0,6.564,1.022,8.553,3.073
		c1.989,2.054,2.985,4.993,2.985,8.837V243.822z"/>
	<path fill="#333333" d="M243.284,228.662c-1.293,0-2.214,0.362-2.775,1.12c-0.575,0.712-0.843,1.93-0.843,3.631v4.099h7.162v-4.099
		c0-1.702-0.287-2.923-0.855-3.631C245.427,229.028,244.516,228.662,243.284,228.662z"/>
	<path fill="#333333" d="M215.34,228.525c-0.575,0-1.156,0.128-1.715,0.392c-0.568,0.258-1.123,0.686-1.672,1.241v25.254
		c0.65,0.653,1.294,1.156,1.921,1.443c0.624,0.278,1.27,0.435,1.959,0.435c0.996,0,1.721-0.288,2.188-0.869
		c0.461-0.575,0.696-1.493,0.696-2.789v-20.936c0-1.378-0.274-2.41-0.849-3.119C217.273,228.878,216.431,228.525,215.34,228.525z"/>
	<path fill="#333333" d="M162.922,183.766h10.268v-25.113l11.956-35.426h-10.437l-6.355,24.199h-0.646l-6.672-24.199h-10.343
		l12.23,36.556V183.766z"/>
	<path fill="#333333" d="M199.058,184.892c4.147,0,7.4-1.087,9.77-3.262c2.355-2.185,3.534-5.166,3.534-8.987v-23.069
		c0-3.4-1.205-6.198-3.605-8.357c-2.417-2.152-5.512-3.236-9.288-3.236c-4.147,0-7.449,1.025-9.905,3.073
		c-2.449,2.047-3.681,4.794-3.681,8.265v23.147c0,3.798,1.199,6.802,3.593,9.056C191.869,183.766,195.07,184.892,199.058,184.892z
		 M195.276,148.98c0-0.97,0.349-1.754,1.032-2.368c0.708-0.601,1.607-0.892,2.724-0.892c1.205,0,2.182,0.291,2.926,0.892
		c0.741,0.614,1.11,1.398,1.11,2.368v24.332c0,1.192-0.363,2.139-1.098,2.821c-0.728,0.686-1.708,1.023-2.939,1.023
		c-1.205,0-2.136-0.327-2.789-1.012c-0.643-0.67-0.97-1.61-0.97-2.835V148.98H195.276z"/>
	<path fill="#333333" d="M226.133,184.419c1.714,0,3.475-0.49,5.287-1.43c1.832-0.954,3.586-2.348,5.254-4.167v4.947h9.121v-44.658
		h-9.121v33.898c-0.849,0.97-1.793,1.767-2.806,2.4c-1.031,0.627-1.881,0.94-2.55,0.94c-0.856,0-1.486-0.235-1.855-0.722
		c-0.376-0.467-0.588-1.232-0.588-2.28v-34.237h-9.108v37.324c0,2.662,0.535,4.65,1.593,5.97
		C222.44,183.743,224.014,184.419,226.133,184.419z"/>
</g>
</svg>
