<?xml version="1.0" encoding="utf-8"?>
<!-- Generator: Adobe Illustrator 19.1.0, SVG Export Plug-In . SVG Version: 6.00 Build 0)  -->
<svg version="1.1" id="Layer_1" xmlns="http://www.w3.org/2000/svg" xmlns:xlink="http://www.w3.org/1999/xlink" x="0px" y="0px"
	 width="400px" height="400px" viewBox="0 0 400 400" enable-background="new 0 0 400 400" xml:space="preserve">
<g id="Layer_x25_20192">
	<path id="Ellipse2" fill="#333333" d="M130,74c0-2.761,2.238-5,5-5s5,2.239,5,5s-2.238,5-5,5S130,76.762,130,74z"/>
	<path id="Ellipse3" fill="#333333" d="M60,79c0-5.523,4.477-10,10-10s10,4.477,10,10s-4.477,10-10,10S60,84.523,60,79z"/>
	<path id="Ellipse4" fill="#333333" d="M81,79c0-5.523,4.477-10,10-10s10,4.477,10,10s-4.477,10-10,10S81,84.523,81,79z"/>
	<path id="Ellipse5" fill="#333333" d="M150,79c0-5.523,4.477-10,10-10s10,4.477,10,10s-4.477,10-10,10S150,84.523,150,79z"/>
	<path id="Ellipse6" fill="#333333" d="M60,299c0-5.523,4.477-10,10-10s10,4.477,10,10s-4.477,10-10,10S60,304.523,60,299z"/>
	<path id="Ellipse7" fill="#333333" d="M280,79c0-5.523,4.477-10,10-10s10,4.477,10,10s-4.477,10-10,10S280,84.523,280,79z"/>
	<path id="Ellipse8" fill="#333333" d="M280,299c0-5.523,4.477-10,10-10s10,4.477,10,10s-4.477,10-10,10S280,304.523,280,299z"/>
	<path fill="#333333" d="M70,69h20v20H70V69z"/>
	<path fill="#333333" d="M70,289h221v20H70V289z"/>
	<path fill="#333333" d="M300,78v221h-20V78H300z"/>
	<path fill="#333333" d="M160,69h131v20H160V69z"/>
	<path fill="#333333" d="M80,79v220H60V79H80z"/>
	<path fill="#333333" d="M140,76v43h-10V76H140z"/>
	<path fill="#333333" d="M120,58v61h-10V58H120z"/>
	<path fill="#333333" d="M160,58v21h-10V58H160z"/>
	<path fill="#333333" d="M140,49h-13V39h13V49z"/>
	<path fill="#333333" d="M130,39c-11.046,0-20,8.954-20,20h10c0-5.523,4.477-10,10-10V39z"/>
	<path fill="#333333" d="M160,59c0-11.046-8.954-20-20-20v10c5.523,0,10,4.477,10,10H160z"/>
	<path fill="#333333" d="M110,119c0,8.284,6.716,15,15,15s15-6.716,15-15h-10c0,2.761-2.239,5-5,5s-5-2.239-5-5H110z"/>
	<path fill="#333333" d="M300,78h-0.05c0.033,0.329,0.05,0.662,0.05,1V78z"/>
	<path fill="#333333" d="M291,69.05V69h-1C290.338,69,290.671,69.017,291,69.05z"/>
	<path fill="#333333" d="M290,309h1v-0.05C290.671,308.983,290.338,309,290,309z"/>
	<path fill="#333333" d="M317.505,102.525l-0.011-0.09c-0.041-0.334-0.096-0.664-0.169-0.986c-1.039-4.623-5.218-7.885-9.955-7.775
		c-0.33,0.008-0.665,0.03-0.999,0.071l-0.036,0.004L305,93.915v70.545l18.225,148.44L125.1,337.225L122.25,314h-20.11l4.36,35.515
		l0.006,0.049c0.672,5.471,5.651,9.362,11.123,8.69l217.936-26.761c0.334-0.041,0.664-0.096,0.985-0.169
		c4.945-1.112,8.335-5.817,7.704-10.954L317.505,102.525z"/>
	<path fill="#333333" d="M312.494,97.436l-0.122-0.991l-0.047,0.005C312.397,96.772,312.453,97.101,312.494,97.436z"/>
	<path fill="#333333" d="M302.37,88.675l-0.008-0.051l-0.991,0.122C301.705,88.705,302.04,88.683,302.37,88.675z"/>
	<path fill="#333333" d="M330.565,326.494l0.991-0.122l-0.005-0.047C331.228,326.397,330.899,326.453,330.565,326.494z"/>
</g>
</svg>
