<?xml version="1.0" encoding="utf-8"?>
<!-- Generator: Adobe Illustrator 19.1.0, SVG Export Plug-In . SVG Version: 6.00 Build 0)  -->
<svg version="1.1" id="Layer_1" xmlns="http://www.w3.org/2000/svg" xmlns:xlink="http://www.w3.org/1999/xlink" x="0px" y="0px"
	 width="400px" height="400px" viewBox="0 0 400 400" enable-background="new 0 0 400 400" xml:space="preserve">
<g id="Layer_x25_20157">
	<path fill="#333333" d="M310.399,98.925h-260c-3.121,0-5.906,1.43-7.74,3.67c-1.586,1.77-2.558,4.1-2.558,6.663v221l0,0.009
		c0,0,0,0.006,0,0.009c0,5.523,4.477,10,10,10h259c0.167,0,0.329-0.017,0.494-0.025c0.046,0,0.091,0.007,0.137,0.007
		c5.523,0,10-4.477,10-10V112.493c0.425-1.11,0.667-2.309,0.667-3.568C320.399,103.402,315.922,98.925,310.399,98.925z
		 M60.101,118.925h239.631v86.774l-51.557-51.557c-1.963-1.963-4.538-2.937-7.11-2.927c-2.572-0.01-5.147,0.964-7.11,2.927
		l-78.39,78.39l-18.39-18.39c-1.963-1.963-4.538-2.937-7.11-2.927c-2.572-0.01-5.147,0.964-7.11,2.927l-62.854,62.853V118.925z
		 M60.101,305.28l69.964-69.963l11.358,11.358l6.504,6.503l1.193,1.193c1.741,1.47,3.988,2.36,6.446,2.36
		c2.45,0,4.691-0.884,6.43-2.346l1.224-1.224l6.487-6.487l71.358-71.357l58.667,58.666v86.293H60.101V305.28z"/>
	<path fill="#333333" d="M349.899,59.724h-261c-5.523,0-10,4.477-10,10c0,5.523,4.477,10,10,10h251v230c0,5.523,4.477,10,10,10
		c5.523,0,10-4.477,10-10v-240C359.899,64.201,355.422,59.724,349.899,59.724z"/>
</g>
</svg>
