<?xml version="1.0" encoding="utf-8"?>
<!-- Generator: Adobe Illustrator 20.1.0, SVG Export Plug-In . SVG Version: 6.00 Build 0)  -->
<svg version="1.1" id="Layer_1" xmlns="http://www.w3.org/2000/svg" xmlns:xlink="http://www.w3.org/1999/xlink" x="0px" y="0px"
	 width="400px" height="400px" viewBox="0 0 400 400" enable-background="new 0 0 400 400" xml:space="preserve">
<path fill-rule="evenodd" clip-rule="evenodd" fill="#333333" d="M269.9,190.7l-136.5,0l40.2-40.2c3.9-3.9,3.9-10.2,0-14.1
	c-3.9-3.9-10.2-3.9-14.1,0L102.8,193c-2,2-3,4.7-2.9,7.4c0,0.4,0,0.9,0,1.3c0,0.1,0,0.3,0.1,0.4c0,0.2,0,0.4,0.1,0.5
	c0,0.2,0.1,0.3,0.1,0.5c0,0.1,0.1,0.3,0.1,0.4c0,0.2,0.1,0.3,0.2,0.5c0.1,0.1,0.1,0.3,0.2,0.4c0.1,0.1,0.1,0.3,0.2,0.4
	c0.1,0.2,0.1,0.3,0.2,0.5c0.1,0.1,0.2,0.3,0.2,0.4c0.1,0.1,0.2,0.3,0.3,0.4c0.1,0.1,0.2,0.3,0.3,0.4c0.1,0.1,0.2,0.3,0.3,0.4
	c0.2,0.2,0.4,0.4,0.5,0.6c0,0,0.1,0.1,0.1,0.1l56.6,56.6c3.9,3.9,10.2,3.9,14.1,0c3.9-3.9,3.9-10.2,0-14.1L134,210.7l135.9,0
	c5.5,0,10-4.5,10-10C279.9,195.2,275.4,190.7,269.9,190.7z"/>
</svg>
