<?xml version="1.0" encoding="utf-8"?>
<!-- Generator: Adobe Illustrator 20.1.0, SVG Export Plug-In . SVG Version: 6.00 Build 0)  -->
<svg version="1.1" id="Layer_1" xmlns="http://www.w3.org/2000/svg" xmlns:xlink="http://www.w3.org/1999/xlink" x="0px" y="0px"
	 width="400px" height="400px" viewBox="0 0 400 400" enable-background="new 0 0 400 400" xml:space="preserve">
<path fill="#333333" d="M189.7,221.1c-5.2-1.8-10.9,0.9-12.7,6.1l-19.9,38c-1.8,5.2,0.9,10.9,6.1,12.7c5.2,1.8,10.9-0.9,12.7-6.1
	l19.9-38C197.6,228.6,194.9,222.9,189.7,221.1z"/>
<path fill="#333333" d="M350.2,320l-146.9,19.6c-1-0.3-2-0.5-3.1-0.5l-150.3-20c-5.5,0-10,4.5-10,10c0,5.5,4.5,10,10,10l144.4,19.2
	c1.6,1.1,3.5,1.7,5.6,1.7l150.3-20c5.5,0,10-4.5,10-10C360.1,324.5,355.7,320,350.2,320z"/>
<path fill="#333333" d="M97.3,280.7c0,10.7,1.7,21.1,4.8,30.8c0.2,0.9,0.5,1.8,0.9,2.6c1.6,3.3,5,5.6,8.9,5.6c5.5,0,10-4.5,10-10
	c0-0.4,0-0.7-0.1-1.1c-0.2-1.5-0.6-2.8-1.3-4c-2.3-7.5-3.6-15.6-3.6-23.9c0-43.3,33.8-78.7,76.5-81.2c1.7,0.1,3.5,0.2,5.2,0.2
	c1.6,0,3.2-0.1,4.8-0.2c42.5,2.7,76.1,38,76.1,81.2c0,8.8-1.4,17.3-4,25.2c-0.1,0.3-0.2,0.7-0.3,1c-0.2,0.9-0.4,1.8-0.4,2.7
	c0,5.5,4.5,10,10,10c3.4,0,6.5-1.7,8.3-4.4c1-1.5,1.6-3.2,1.7-5c2.9-9.3,4.4-19.2,4.4-29.5c0-41.1-24.5-76.5-59.8-92.2
	c23.4-13.9,39-39.4,39-68.6c0-44.1-35.7-79.8-79.8-79.8c-44.1,0-79.8,35.7-79.8,79.8c0,29,15.5,54.4,38.7,68.4
	C122.1,203.9,97.3,239.4,97.3,280.7z M138.9,119.8c0-33.1,26.8-59.9,59.9-59.9s59.9,26.8,59.9,59.9c0,32.7-26.2,59.3-58.8,59.9
	c-0.5,0-1,0-1.5,0c-0.3,0-0.6,0-0.9,0C164.9,179,138.9,152.5,138.9,119.8z"/>
<path fill="#333333" d="M205.2,246.5c-1.9,0-3.9,0-5.4,0c-1.3,0-2.5-0.2-3.6,0.2c-3.8,1.5-6.6,5.2-6.6,9.6c0,4.9,3.4,8.9,7.9,10
	c0.8,0.2,1.6,0.3,2.4,0.3c0.9,0,1.9,0.2,2.7,0c3.9,0.8,6.4,3.4,7.3,7.2c-0.3,0.9,0.2,1.8,0.2,2.8l-0.1,40c0,5.5,4.5,10,10,10
	s10-4.5,10-10v-40c0-1.7-0.1-2.3,0-4.8C230,257.3,218.8,246.5,205.2,246.5z"/>
</svg>
