<?xml version="1.0" encoding="utf-8"?>
<!-- Generator: Adobe Illustrator 20.1.0, SVG Export Plug-In . SVG Version: 6.00 Build 0)  -->
<svg version="1.1" id="Layer_1" xmlns="http://www.w3.org/2000/svg" xmlns:xlink="http://www.w3.org/1999/xlink" x="0px" y="0px"
	 width="400px" height="400px" viewBox="0 0 400 400" enable-background="new 0 0 400 400" xml:space="preserve">
<path fill-rule="evenodd" clip-rule="evenodd" fill="#333333" d="M358,229.9c0-5.5-4.5-10-10-10l-150.3,20c-0.3,0-0.5,0-0.8,0
	c-0.3,0-0.5,0-0.8,0l-150.3-20c-5.5,0-10,4.5-10,10s4.5,10,10,10l140.2,18.7v40.1L56,281.3v-11.5c0-5.5-4.5-10-10-10s-10,4.5-10,10
	v18.6c-0.1,0.5-0.1,1-0.1,1.5c0,5.5,4.5,10,10,10l147.6,19.6c0.8,0.2,1.7,0.4,2.6,0.4c0,0,0,0,0,0l0,0c0.3,0,0.5,0,0.8,0
	c0.3,0,0.5,0,0.8,0L348,300c5.5,0,10-4.5,10-10c0-0.1,0-0.1,0-0.2c0-0.1,0-0.1,0-0.2v-58.8c0-0.1,0-0.3,0-0.4
	C358,230.2,358,230,358,229.9z M206.1,258.8L338,241.2v40.1l-131.9,17.6V258.8z"/>
<path fill-rule="evenodd" clip-rule="evenodd" fill="#333333" d="M347.1,320.5l-150.2,20l-150.2-20c-5.5,0-10,4.5-10,10
	s4.5,10,10,10L194.1,360c0.9,0.3,1.8,0.4,2.8,0.4l0.1,0l0.1,0c1,0,1.9-0.1,2.8-0.4l147.3-19.6c5.5,0,10-4.5,10-10
	S352.6,320.5,347.1,320.5z"/>
<path fill="#333333" d="M217,81c-7,0-13.7,1-20.1,2.9c-6.4-1.9-13.1-2.9-20.1-2.9c-38.6,0-70,31.3-70,70c0,6.5,0.9,12.7,2.5,18.7
	c0.4-0.1,2.7,11.5,11.2,11.5c5.4,0,9.8-4.3,10-9.6c0-0.2,0-0.3,0-0.5c0-2.6-3-7.6-2.8-7.6c-1-4-1.6-8.2-1.6-12.5
	c0-24.9,18-45.6,41.6-49.8c2.9-0.5,5.9-0.8,9-0.8c3.6,0,7.1,0.4,10.5,1.1c-0.3,1-0.5,2-0.5,3c0,5.6,4.5,10.1,10.1,10.1
	S207,110,207,104.4c0-1.1-0.2-2.1-0.5-3c3.4-0.7,6.9-1.1,10.5-1.1c3.1,0,6.1,0.3,9,0.8c23.7,4.3,41.6,24.9,41.6,49.8
	s-18,45.6-41.6,49.8c-2.9,0.5-5.9,0.8-9,0.8c-3.4,0-6.8-0.3-10-1c-0.2-5.4-4.6-9.7-10.1-9.7s-9.9,4.3-10.1,9.7c-3.2,0.6-6.6,1-10,1
	c-3.1,0-6.1-0.3-9-0.8c-4.1-0.7-13.6-4.2-14.3-4.9c-1-0.9-5.5-2.5-6.6-2.5c-5.6,0-10.1,4.5-10.1,10.1c0,2.5,0.9,4.7,2.4,6.5
	c1.5,1.8,7.1,3.8,7.1,4c9.2,4.5,19.6,7.1,30.6,7.1c7,0,13.7-1,20.1-2.9c6.4,1.9,13.1,2.9,20.1,2.9c38.6,0,70-31.3,70-70
	S255.7,81,217,81z"/>
<path fill="#333333" d="M179.9,71C179.9,71,179.9,71,179.9,71C179.9,71,179.9,71,179.9,71C179.9,71,179.9,71,179.9,71z"/>
<path fill="#333333" d="M199.2,67.4c-0.1,1.2-0.2,2.3-0.2,3.5c0,1.2,0.1,2.4,0.2,3.6c0.4-1.1,0.7-2.3,0.7-3.5
	C199.9,69.7,199.6,68.5,199.2,67.4z"/>
<polygon fill="#333333" points="229.8,21 229.8,21 229.9,21 "/>
<path fill="#333333" d="M246.6,25.8c0-2.4-0.8-4.7-2.3-6.4c0,0,0,0,0,0c-0.2-0.2-0.4-0.5-0.6-0.7c0,0-0.1-0.1-0.1-0.1
	c-0.2-0.2-0.4-0.4-0.6-0.5c-0.1,0-0.1-0.1-0.2-0.1c-0.2-0.1-0.4-0.3-0.6-0.4c-0.1-0.1-0.2-0.1-0.3-0.2c-0.2-0.1-0.3-0.2-0.5-0.3
	c-0.1-0.1-0.3-0.1-0.4-0.2c-0.1-0.1-0.3-0.2-0.4-0.2c-0.2-0.1-0.4-0.1-0.5-0.2c-0.1,0-0.2-0.1-0.4-0.1c-0.2-0.1-0.5-0.1-0.7-0.2
	c-0.1,0-0.2,0-0.3-0.1c-0.3-0.1-0.6-0.1-0.9-0.1c0,0-0.1,0-0.1,0c-0.3,0-0.7-0.1-1-0.1c0,0,0,0,0,0c0,0,0,0,0,0c0,0,0,0,0,0
	c0,0,0,0,0,0c0,0,0,0,0,0c-27.6-0.1-50,22.2-50.1,49.8c0,0,0,0,0,0c0,0,0,0,0,0.1c0,5.5,4.5,10,10,10c4.3,0,7.9-2.7,9.4-6.4
	c-0.1-1.2-0.2-2.4-0.2-3.6c0-1.2,0.1-2.4,0.2-3.5c1.4-11.5,9-21.1,19.5-25.1c-1.8,4.6-4.8,8.7-8.5,12c-1.2,0.6-2.3,1.4-3.2,2.4
	c-1.5,1.8-2.5,4-2.5,6.6c0,5.5,4.4,10,10,10c0.9,0,2.5,0,8.6-4.8C240,53.9,246.5,40.6,246.6,25.8C246.6,25.8,246.6,25.8,246.6,25.8
	C246.6,25.8,246.6,25.8,246.6,25.8z"/>
</svg>
