<svg id="Layer_1" data-name="Layer 1" xmlns="http://www.w3.org/2000/svg" viewBox="0 0 400 400"><defs><style>.cls-1{fill:#333;}</style></defs><title>icon</title><g id="Layer_20172" data-name="Layer%20172"><path class="cls-1" d="M302.53,225.76v97.68H245.9V232.29c0-22.9-8.19-38.53-28.69-38.53-15.66,0-25,10.53-29.07,20.73-1.49,3.64-1.88,8.7-1.88,13.81v95.15H129.61s0.75-154.39,0-170.37h56.65v24.16c-0.11.18-.26,0.38-0.38,0.55h0.38v-0.55c7.52-11.61,21-28.15,51.05-28.15,37.29,0,65.22,24.35,65.22,76.68h0ZM70.38,70.95c-19.39,0-32.06,12.73-32.06,29.44,0,16.33,12.31,29.44,31.31,29.44H70c19.74,0,32-13.1,32-29.44-0.38-16.72-12.29-29.44-31.67-29.44h0ZM41.68,323.46H98.31V153.09H41.68V323.46Z"/></g><polygon class="cls-1" points="275.17 108.25 286.68 96 311.36 118.83 351.66 75.97 364 87.38 312.19 142.48 275.17 108.25"/></svg>