<?xml version="1.0" encoding="utf-8"?>
<!-- Generator: Adobe Illustrator 19.1.0, SVG Export Plug-In . SVG Version: 6.00 Build 0)  -->
<svg version="1.1" id="Layer_1" xmlns="http://www.w3.org/2000/svg" xmlns:xlink="http://www.w3.org/1999/xlink" x="0px" y="0px"
	 viewBox="0 0 400 400" enable-background="new 0 0 400 400" xml:space="preserve">
<g>
	<path fill="#333333" d="M8.061,239.655c5.703-5.263,12.674-5.639,19.936-5.499c10.889,0.21,21.786,0.063,32.679,0.055
		c8.676-0.006,14.793,3.869,18.053,11.976c4.995,12.422,9.932,24.868,14.903,37.3c0.375,0.937,0.822,1.845,1.973,2.782
		c0.993-3.319,2.045-6.623,2.971-9.961c7.664-27.626,15.274-55.267,22.959-82.887c7.628-27.414,15.342-54.805,22.982-82.215
		c4.889-17.539,9.699-35.101,14.573-52.645c2.01-7.235,8.619-12.562,16.212-12.606c22.31-0.127,44.621-0.084,66.931-0.088
		c43.993-0.008,87.987,0.155,131.978-0.13c9.293-0.06,16.895,1.846,21.764,10.334c0,4.82,0,9.64,0,14.46
		c-2.679,2.683-5.161,5.61-8.09,7.984c-3.099,2.512-7.07,2.225-10.851,2.225c-61.389-0.004-122.779,0.021-184.168-0.072
		c-3.161-0.005-4.496,0.859-5.368,4.01c-6.924,25.005-14.059,49.952-21.14,74.913c-6.938,24.458-13.885,48.914-20.836,73.369
		c-7.725,27.177-15.463,54.351-23.186,81.529c-2.689,9.463-5.432,18.912-8.003,28.408c-2.012,7.431-7.849,13.004-14.696,13.696
		c-8.209,0.829-15.299-2.937-18.556-10.5c-4.178-9.702-7.973-19.569-11.888-29.383c-6.008-15.062-11.995-30.133-17.94-45.22
		c-0.68-1.727-1.71-2.352-3.553-2.33c-7.123,0.082-14.253-0.157-21.369,0.082c-6.826,0.23-13.128-0.746-18.27-5.695
		C8.061,255.582,8.061,247.618,8.061,239.655z"/>
	<path fill="#333333" d="M320.254,238.9c6.896,7.767,13.623,15.352,20.36,22.929c14.395,16.188,28.794,32.372,43.193,48.557
		c1.53,1.719,3.075,3.426,4.6,5.149c1.38,1.56,2.717,3.523,1.283,5.311c-1.078,1.344-3.172,2.403-4.915,2.577
		c-3.839,0.383-7.742,0.129-11.619,0.128c-9.744-0.002-19.489-0.069-29.233,0.027c-2.972,0.029-5.079-0.987-7.022-3.285
		c-14.592-17.259-29.297-34.422-43.954-51.625c-0.339-0.398-0.536-0.917-1.041-1.805c-3.934,4.655-7.427,8.744-10.874,12.873
		c-11.399,13.656-22.723,27.375-34.254,40.918c-1.251,1.469-3.65,2.729-5.54,2.762c-13.512,0.238-27.032,0.219-40.545,0.026
		c-1.702-0.024-3.991-1.115-4.935-2.463c-1.511-2.158,0.008-4.342,1.606-6.145c10.754-12.139,21.518-24.268,32.249-36.427
		c11.286-12.789,22.538-25.606,33.799-38.417c0.335-0.381,0.604-0.82,1.047-1.429c-3.5-3.957-6.947-7.879-10.42-11.776
		c-17.749-19.915-35.508-39.819-53.25-59.74c-1.496-1.679-2.81-3.535-1.831-5.942c1.014-2.494,3.265-2.616,5.542-2.615
		c13.412,0.011,26.824,0.052,40.235-0.033c2.663-0.017,4.537,0.958,6.223,2.94c13.15,15.46,26.354,30.874,39.551,46.295
		c0.874,1.021,1.82,1.981,3.008,3.268c3.101-3.524,6.072-6.842,8.978-10.215c11.335-13.158,22.667-26.317,33.95-39.519
		c1.627-1.903,3.478-2.772,5.995-2.76c12.887,0.065,25.777-0.068,38.661,0.134c1.813,0.028,4.222,1.057,5.257,2.443
		c1.481,1.982-0.033,4.071-1.607,5.809c-11.518,12.719-22.999,25.473-34.488,38.218c-9.458,10.492-18.915,20.984-28.356,31.49
		C321.356,237.172,320.944,237.913,320.254,238.9z"/>
</g>
</svg>
