<?xml version="1.0" encoding="utf-8"?>
<!-- Generator: Adobe Illustrator 19.1.0, SVG Export Plug-In . SVG Version: 6.00 Build 0)  -->
<svg version="1.1" id="Layer_1" xmlns="http://www.w3.org/2000/svg" xmlns:xlink="http://www.w3.org/1999/xlink" x="0px" y="0px"
	 width="400px" height="400px" viewBox="0 0 400 400" enable-background="new 0 0 400 400" xml:space="preserve">
<g id="Layer_x25_20178">
	<path fill="#333333" d="M314.234,223.556c-0.872,0.51-1.769,1.004-2.68,1.474c13.701,1.502,30.186,1.295,39.797-5.982
		c5.321-4.023,7.902-9.802,7.902-17.672c0-8.897-2.772-15.314-8.472-19.616c-7.356-5.56-18.381-6.687-28.354-6.233
		c0.681,0.602,1.346,1.215,1.972,1.908c5.189,5.696,7.356,13.414,6.093,21.758C329.014,208.987,322.936,218.419,314.234,223.556z"/>
	<path fill="#333333" d="M81.078,180.761c2.605-2.234,5.608-4.091,8.922-5.561c-13.988-1.677-31.377-1.744-41.351,5.808
		c-5.317,4.022-7.902,9.806-7.902,17.668c0,9.053,2.828,15.641,8.643,20.149c7.83,6.054,19.655,7.269,29.927,6.874
		c-3.314-2.051-5.895-4.867-7.583-8.455C65.322,203.606,68.381,191.678,81.078,180.761z"/>
	<path fill="#333333" d="M149.202,218.439c-7.862,5.102-16.409,9.432-26.371,12.466c-4.099,1.255-27.761,6.23-42.984,6.23
		c-12.116,0-25.534-2.103-35.133-9.539c-0.681-0.522-1.287-1.1-1.912-1.669c1.657,3.365,3.621,6.727,5.903,10.069
		c13.271,19.468,37.738,31.09,65.438,31.09c6.783,0,13.638-0.705,20.377-2.103c16.027-3.318,29.135-10.176,40.841-17.612
		C163.461,241.272,154.105,230.993,149.202,218.439z"/>
	<path fill="#333333" d="M253.379,184.13c6.361-4.561,13.104-8.723,20.671-12.18c5.505-2.505,12.427-4.529,20.015-5.771
		c3.313-0.538,46.994-4.015,61.34,6.811c0.589,0.45,1.111,0.944,1.665,1.422c-2.27-4.808-5.19-9.432-8.794-13.761
		c-11.152-13.387-33.118-27.701-61.309-27.701c-13.175,0-26.184,3.138-38.662,9.336c-6.249,3.106-11.993,6.699-17.501,10.435
		C241.736,160.006,249.862,171.118,253.379,184.13z"/>
	<path fill="#333333" d="M320.256,237.123c-11.3,0-22.356-0.315-30.409-1.88c-2.888,0.498-5.839,2.111-8.847,2.111c0,0,0,0-0.003,0
		c-9.838,0-19.365-4.286-27.55-8.778c-5.962-3.286-11.24-8.567-16.135-12.801c-0.278-0.243-0.565-0.47-0.844-0.717
		c-3.764,1.601-7.408,3.333-10.296,5.64c-0.55,0.741-1.119,1.458-1.729,2.115c-0.789,0.84-1.605,1.645-2.449,2.414
		c-0.885,0.792-1.797,1.537-2.736,2.202l1.067,0.482l1.543,0.762l-1.575-0.702l-1.032-0.458c-2.708,1.932-5.636,3.441-8.683,4.513
		c-9.789,3.413-20.822,2.337-29.871-3.338c-0.049-0.011-0.1-0.027-0.148-0.038c-1.796-1.132-3.531-2.404-5.141-3.925
		c-6.89-6.436-10.662-19.674-10.961-23.674h0.024c-0.147-6.496,1.429-12.816,4.733-18.423c0.018-0.007,0.036-0.013,0.055-0.02
		c0.314-0.555,0.643-1.102,0.988-1.642c0.004-0.007,0.009-0.014,0.013-0.021c0.129-0.201,0.271-0.395,0.403-0.594
		c0.938-1.337,1.977-2.628,3.128-3.86c1.601-1.72,3.357-3.262,5.198-4.577c2.712-1.936,5.636-3.469,8.69-4.533
		c9.786-3.433,20.818-2.358,29.868,3.31c0.008,0.002,0.016,0.004,0.024,0.006c1.831,1.153,3.592,1.761,5.253,3.308
		c6.887,6.437,10.547,15.045,10.938,23.045h-0.016c0.084,4-2.346,15.987-7.583,23.085c2.888-2.302,6.532-3.76,10.296-5.361
		c0.279,0.239,0.565,0.756,0.844,0.999c2.462-5.751,3.657-11.857,3.521-17.525c-0.23-5.317-1.45-10.602-3.704-15.521l-0.001,0.001
		c-2.194-4.827-5.357-9.312-9.471-13.151c-10.658-9.953-25.132-13.24-38.324-10.057c-2.259,0.543-4.477,1.287-6.633,2.212
		c-9.506-8.148-20.268-15.753-33.662-21.478c-11.802-5.047-24.857-7.711-37.766-7.711c-23.746,0-44.712,8.686-57.533,23.834
		c-4.708,5.564-8.409,11.236-11.216,16.979c0.474-0.41,0.916-0.832,1.418-1.215c19.656-14.86,57.791-8.077,72.548-4.688
		c0.386-0.007,0.761-0.043,1.151-0.043c10.886,0,21.771,2.775,31.493,8.021c4.277,2.303,8.161,4.916,11.848,7.746
		c-2.516,5.692-3.701,11.817-3.556,17.908c0.219,4.955,1.462,10.618,3.7,15.542c0.096-0.255,0.251-0.474,0.494-0.626
		c-0.243,0.152-0.398,0.387-0.49,0.646c2.203,4.831,5.759,8.93,9.476,13.155c1.147,1.307,15.39,15.581,38.323,10.053
		c2.533-0.609,4.995-1.529,7.396-2.621c3.564-1.612,10.032-6.346,10.032-6.346l0.019,0.009c-3.083,2.657-6.481,4.731-10.051,6.353
		c-0.032,0.083-0.064,0.16-0.096,0.243c10.288,8.993,22.603,17.76,38.602,23.686c11.228,4.162,22.77,6.277,34.317,6.277
		c19.616,0,37.575-6.25,50.571-17.581c7.631-6.652,13.406-14.435,17.298-22.782c-0.331,0.271-0.618,0.565-0.96,0.82
		C346.778,234.931,333.371,237.123,320.256,237.123z"/>
	<path fill="#333333" d="M217.147,182.621c-0.018-0.01-0.025-0.017-0.039-0.025c-0.012,0.026-0.034,0.057-0.087,0.096l-0.457,0.33
		C216.946,182.853,217.324,182.711,217.147,182.621z"/>
	<path fill="#333333" d="M199.218,204.573c0.161,0.035,0.329,0.055,0.431,0.06C199.749,204.628,199.477,204.608,199.218,204.573z"/>
	<path fill="#333333" d="M215.917,183.489L215.917,183.489l0.647-0.467C216.242,183.164,215.917,183.323,215.917,183.489z"/>
	<path fill="#333333" d="M217.108,182.596C217.156,182.485,216.931,182.485,217.108,182.596L217.108,182.596z"/>
	<path fill="#333333" d="M199.465,195.362l-17.781-12.67c-0.307-0.215-0.804-0.239-1.131-0.071
		c-0.318,0.167-0.637,0.505-0.637,0.868v29.863c0,0.51,0.618,0.932,1.124,0.976l10.523,0.817c0.283,0.02-0.303-0.068-0.108-0.255
		c0.203-0.183-0.539-0.446-0.539-0.717v-1.155c0-0.51,0.515-0.936,0.005-0.976c-1.708-0.123-2.427-0.402-3.462-0.928
		c-1.064-0.542-2.092-1.175-2.442-1.836c-0.303-0.586-1.1-1.888-1.1-4.07v-12.072l14.93,11.293l13.07-11.293v12.072
		c0,2.182,0.964,3.484,0.649,4.07c-0.351,0.661-0.36,1.294-1.424,1.836c-1.036,0.526-3.408,0.805-5.113,0.928
		c-0.51,0.04-2.113,0.466-2.113,0.976v1.155c0,0.27,1.686,0.534,1.885,0.717c0.198,0.187,1.253,0.275,1.528,0.255l9.057-0.817
		c0.505-0.044-0.47-0.466-0.47-0.976v-29.863L199.465,195.362z"/>
	<path fill="#333333" d="M199.218,204.573c-0.146-0.032-0.285-0.075-0.357-0.134l-0.014-0.01l-0.012,0.01
		C198.761,204.497,198.985,204.541,199.218,204.573z"/>
</g>
</svg>
