<?xml version="1.0" encoding="utf-8"?>
<!-- Generator: Adobe Illustrator 19.1.0, SVG Export Plug-In . SVG Version: 6.00 Build 0)  -->
<svg version="1.1" id="Layer_1" xmlns="http://www.w3.org/2000/svg" xmlns:xlink="http://www.w3.org/1999/xlink" x="0px" y="0px"
	 width="400px" height="400px" viewBox="0 0 400 400" enable-background="new 0 0 400 400" xml:space="preserve">
<g id="Layer_x25_20130">
	<path fill="#323232" d="M276.763,268.341l-35.156-35.158c-1.883-1.882-4.386-2.919-7.048-2.919c-2.501,0-4.869,0.919-6.709,2.594
		c-9.548,7.224-20.93,11.04-32.93,11.04c-30.138,0-54.657-24.519-54.657-54.657s24.519-54.657,54.657-54.657
		c30.138,0,54.656,24.519,54.656,54.657c0,7.522-1.503,14.811-4.466,21.665c-0.035,0.081-0.068,0.162-0.098,0.245
		c-0.606,1.309-0.923,2.741-0.923,4.184c0,5.499,4.473,9.972,9.972,9.972c4.074,0,7.765-2.543,9.261-6.279
		c0.045-0.09,0.088-0.181,0.128-0.274c4.03-9.344,6.074-19.273,6.074-29.513c0-41.137-33.467-74.605-74.604-74.605
		c-41.137,0-74.605,33.467-74.605,74.605s33.468,74.605,74.605,74.605c13.659,0,26.873-3.679,38.469-10.677l29.272,29.273
		c1.884,1.883,4.388,2.92,7.051,2.92h0.001c2.663,0,5.166-1.037,7.052-2.921c1.883-1.883,2.919-4.388,2.919-7.051
		C279.684,272.726,278.646,270.222,276.763,268.341z"/>
	<path fill="#323232" d="M352.691,152.193C326.288,67.863,236.522,20.906,152.194,47.311
		C67.864,73.713,20.906,163.478,47.309,247.808c0.992,3.169,2.091,6.276,3.261,9.337c0.001,0.002,0.001,0.004,0.002,0.007
		c0.063,0.201,0.143,0.392,0.216,0.586c0.055,0.142,0.109,0.284,0.164,0.426c2.014,4.624,7.227,7.084,12.15,5.543
		c5.273-1.65,8.206-7.26,6.556-12.532c-0.104-0.336-0.227-0.662-0.363-0.979c-1.05-2.738-2.02-5.524-2.91-8.361
		C43.281,168.042,84.373,89.49,158.165,66.386c73.794-23.104,152.345,17.985,175.45,91.78
		c23.105,73.795-17.987,152.345-91.78,175.449c-51.08,15.993-104.436,1.222-140.107-33.86c-0.26-0.256-0.519-0.514-0.776-0.772
		c-2.539-2.264-6.163-3.185-9.646-2.094c-5.271,1.65-8.205,7.261-6.556,12.531c0.555,1.773,1.565,3.273,2.853,4.433
		c-0.001-0.002-0.002-0.003-0.004-0.004c-0.007,0.006-0.012,0.013-0.017,0.02c40.762,40.181,101.793,57.119,160.226,38.823
		C332.137,326.288,379.094,236.523,352.691,152.193z"/>
</g>
</svg>
