<?xml version="1.0" encoding="utf-8"?>
<!-- Generator: Adobe Illustrator 19.1.0, SVG Export Plug-In . SVG Version: 6.00 Build 0)  -->
<svg version="1.1" id="Layer_1" xmlns="http://www.w3.org/2000/svg" xmlns:xlink="http://www.w3.org/1999/xlink" x="0px" y="0px"
	 width="400px" height="400px" viewBox="0 0 400 400" enable-background="new 0 0 400 400" xml:space="preserve">
<g id="Layer_x25_201117">
	<path fill="#323232" d="M101.768,298.285c-2.799,4.747-8.914,6.326-13.662,3.527l0,0c-4.745-2.798-6.324-8.915-3.525-13.661
		l54.572-84.856c2.799-4.746,8.914-6.325,13.66-3.527l0,0c4.747,2.798,6.326,8.915,3.527,13.661L101.768,298.285z"/>
	<path fill="#323232" d="M266.513,227.742c4.746,2.799,6.325,8.914,3.526,13.661l0,0c-2.798,4.746-8.914,6.325-13.66,3.526
		l-73.857-46.572c-4.745-2.799-6.324-8.914-3.525-13.66l0,0c2.798-4.747,8.914-6.326,13.66-3.527L266.513,227.742z"/>
	<path fill="#323232" d="M301.036,107.173c0.881-5.438,6.003-9.134,11.442-8.254l0,0c5.439,0.88,9.134,6.004,8.254,11.442
		l-26.067,121.161c-0.88,5.439-6.002,9.135-11.442,8.254l0,0c-5.438-0.88-9.135-6.002-8.254-11.441L301.036,107.173z"/>
	<path fill="#323232" d="M159.018,160.376c-10.868,0-19.68,8.81-19.68,19.678c0,10.868,8.811,19.679,19.68,19.679
		c10.867,0,19.678-8.811,19.678-19.679C178.695,169.186,169.885,160.376,159.018,160.376z M159.017,219.935
		c-22.024,0-39.88-17.855-39.88-39.88c0-22.025,17.855-39.881,39.88-39.881c22.026,0,39.881,17.855,39.881,39.881
		C198.897,202.08,181.043,219.935,159.017,219.935z"/>
	<path fill="#323232" d="M279.639,240.005c-10.867,0-19.678,8.811-19.678,19.678c0,10.868,8.811,19.679,19.678,19.679
		s19.679-8.81,19.679-19.679C299.317,248.815,290.506,240.005,279.639,240.005z M279.639,299.564
		c-22.024,0-39.88-17.855-39.88-39.88c0-22.025,17.855-39.881,39.88-39.881c22.026,0,39.881,17.855,39.881,39.881
		C319.519,281.708,301.665,299.564,279.639,299.564z"/>
	<path fill="#323232" d="M96.906,283.915c0.539,0.259,1.069,0.533,1.595,0.815C97.997,284.415,97.466,284.14,96.906,283.915z"/>
	<path fill="#323232" d="M280.699,87.773c1.544,4.613,6.258,7.535,11.194,6.67c5.439-0.952,9.077-6.136,8.125-11.576
		c-0.066-0.372-0.154-0.733-0.258-1.086c0.024-0.003,0.038,0.003,0.066-0.003c-0.374-9.686,6.79-19.327,16.603-21.046
		c10.705-1.875,20.903,5.283,22.778,15.988c1.876,10.705-5.282,20.904-15.989,22.779c-2.808,0.492-5.948,0.383-8.547-0.27
		c-0.046,0.103,0.278,0.17,0.232,0.272c-1.697-0.704-3.604-0.959-5.55-0.618c-5.439,0.953-9.077,6.135-8.125,11.575
		c0.617,3.518,3.006,6.272,6.086,7.528c0.565,0.187,1.135,0.366,1.711,0.529c5.579,1.573,11.589,1.948,17.681,0.882
		c21.693-3.8,36.201-24.469,32.4-46.165c-3.8-21.694-24.469-36.201-46.163-32.401c-20.786,3.642-34.96,22.766-32.772,43.439
		c-0.022,0.673,0.025,1.356,0.146,2.045C280.404,86.821,280.542,87.303,280.699,87.773z M299.547,81.145
		c-0.017-0.046-0.029-0.094-0.048-0.141C299.56,80.992,299.561,81.054,299.547,81.145z"/>
	<path fill="#323232" d="M119.48,318.376c-0.809-4.795-5.014-8.412-10.025-8.322c-5.521,0.096-9.918,4.654-9.82,10.175
		c0.008,0.376,0.04,0.746,0.087,1.113c-0.025-0.001-0.038-0.01-0.066-0.008c-1.132,9.625-9.704,18.042-19.664,18.218
		c-10.865,0.193-19.832-8.46-20.025-19.326c-0.192-10.866,8.46-19.832,19.326-20.025c2.853-0.05,5.938,0.544,8.404,1.592
		c0.062-0.094-0.25-0.212-0.188-0.306c1.567,0.96,3.413,1.508,5.387,1.472c5.521-0.098,9.918-4.655,9.82-10.177
		c-0.063-3.57-1.997-6.661-4.845-8.379c-0.529-0.273-1.066-0.537-1.608-0.788c-5.268-2.418-11.148-3.723-17.331-3.612
		c-22.021,0.391-39.556,18.562-39.164,40.583c0.392,22.022,18.562,39.557,40.583,39.164c21.099-0.374,38.065-17.07,39.108-37.835
		c0.126-0.661,0.187-1.343,0.174-2.041C119.623,319.362,119.563,318.867,119.48,318.376z M99.834,322.004
		c0.01,0.049,0.015,0.098,0.026,0.146C99.798,322.153,99.805,322.092,99.834,322.004z"/>
</g>
</svg>
