<?xml version="1.0" encoding="utf-8"?>
<!-- Generator: Adobe Illustrator 19.1.0, SVG Export Plug-In . SVG Version: 6.00 Build 0)  -->
<svg version="1.1" id="Layer_1" xmlns="http://www.w3.org/2000/svg" xmlns:xlink="http://www.w3.org/1999/xlink" x="0px" y="0px"
	 width="400px" height="400px" viewBox="0 0 400 400" enable-background="new 0 0 400 400" xml:space="preserve">
<g id="Layer_x25_2017">
	<path fill="#323232" d="M352.691,152.193C326.288,67.863,236.522,20.906,152.194,47.311
		C67.864,73.714,20.906,163.478,47.309,247.808c0.993,3.17,2.091,6.276,3.263,9.344c0.063,0.201,0.143,0.392,0.216,0.586
		c0.055,0.142,0.109,0.284,0.164,0.426c2.014,4.625,7.228,7.084,12.15,5.543c5.273-1.65,8.206-7.26,6.556-12.532
		c-0.104-0.336-0.227-0.662-0.363-0.979c-1.05-2.738-2.02-5.524-2.909-8.361C43.281,168.042,84.372,89.49,158.164,66.386
		c73.794-23.104,152.345,17.986,175.45,91.78c23.105,73.795-17.987,152.345-91.78,175.449c-8.616,2.698-17.489,4.575-26.463,5.574
		c-8.756,0.975-17.604,1.114-26.386,0.415c-8.633-0.688-17.2-2.184-25.557-4.458c-8.29-2.256-16.372-5.275-24.112-9.004
		c-3.97-1.913-7.845-4.019-11.621-6.292c-3.614-2.176-7.516-4.39-10.764-7.097c-2.762-1.961-4.722-4.985-4.722-8.447
		c0-2.832,1.182-5.383,3.073-7.203l14.876-16.151c5.757,4.403,12.306,6.725,19.02,6.725c7.774,0,14.66-3.73,20.324-8.814
		c12.044-10.811,22.894-25.663,16.594-42.475c-2.699-7.203-8.246-12.731-14.114-17.478c-2.885-2.334-5.991-4.409-8.841-6.781
		c-2.833-2.356-3.013-5.223-3.013-8.686l0.089-0.509c0.226-1.306,0.438-2.539,0.827-3.664c7.602-22.018,21.676-39.02,41.83-50.534
		c1.583-0.904,3.439-1.459,5.404-2.046l0.762-0.229c2.455-0.745,4.34-0.331,6.285,1.401c4.756,4.229,9.638,8.197,14.637,12.229
		c5.441,4.386,12.248,6.801,19.169,6.801c15.902,0,28.196-13.438,35.319-26.369c6.844-12.423,3.45-28.464-7.311-37.543
		c-1.743-1.471-3.514-2.91-5.285-4.349c-2.922-2.374-5.943-4.828-8.758-7.376c-8.073-7.306-18.174-10.479-30.153-9.457
		c-13.253,1.129-26.336,5.881-39.997,14.527c-37.413,23.675-65.535,56.747-83.585,98.297c-6.372,14.667-9.274,28.377-8.871,41.915
		c0.401,13.491,4.772,23.621,13.306,30.886c-0.308,0.288-0.605,0.59-0.88,0.923l-25.008,30.282c-1.461,1.228-2.554,2.87-3.126,4.74
		c-0.057,0.176-0.106,0.354-0.153,0.533c-0.019,0.076-0.039,0.15-0.056,0.226c-0.403,1.694-0.38,3.511,0.177,5.293
		c0.555,1.773,1.565,3.273,2.831,4.448c40.763,40.181,101.793,57.119,160.226,38.823
		C332.137,326.288,379.094,236.523,352.691,152.193z M121.017,212.126c5.558-18.274,15.54-36.401,30.515-55.416
		c15.748-19.996,32.575-35.194,51.445-46.464c9.712-5.8,18.21-9.259,26.744-10.883c2.53-0.482,4.826-0.716,7.02-0.716
		c4.417,0,8.767,1.083,12.515,3.458c5.261,3.334,9.63,7.685,14.517,11.488c1.585,1.234,2.725,2.713,4.039,4.199
		c1.79,2.025,2.855,4.373,3.168,6.81c0.408,1.605,0.648,3.278,0.648,5.011c0,14.732-17.73,25.933-30.613,17.577
		c-1.369-0.888-2.646-1.911-3.878-2.977c-3.706-3.212-7.454-6.379-11.127-9.634c-5.395-4.781-11.958-6.462-19.675-5.003
		c-7.677,1.449-14.97,5.01-22.949,11.207c-18.259,14.179-30.605,30.561-37.745,50.085c-2.576,7.043-3.416,13.456-2.568,19.603
		c0.847,6.143,4.855,11.036,9.345,15.035c4.169,3.714,9.112,6.444,13.232,10.219c4.04,3.703,6.313,9.071,6.313,14.556
		c0,11.218-9.095,20.312-20.312,20.312c-0.766,0-1.518-0.051-2.261-0.133c-0.098,0.003-0.194,0.018-0.292,0.018
		c-3.134,0-6.284-1.236-9.109-3.576c-0.026-0.021-0.052-0.043-0.077-0.064c-0.95-0.675-1.847-1.417-2.666-2.241
		c-0.615-0.52-1.235-1.034-1.85-1.555c-3.027-2.565-6.158-5.217-9.369-7.693c-4.597-3.544-7.271-8.401-8.176-14.852
		C116.456,230.579,118.555,220.978,121.017,212.126z"/>
</g>
</svg>
