<?xml version="1.0" encoding="utf-8"?>
<!-- Generator: Adobe Illustrator 19.1.0, SVG Export Plug-In . SVG Version: 6.00 Build 0)  -->
<svg version="1.1" id="Layer_1" xmlns="http://www.w3.org/2000/svg" xmlns:xlink="http://www.w3.org/1999/xlink" x="0px" y="0px"
	 width="400px" height="400px" viewBox="0 0 400 400" enable-background="new 0 0 400 400" xml:space="preserve">
<g id="Layer_x25_20128">
	<path fill="#323232" d="M352.691,152.193C326.288,67.863,236.522,20.906,152.194,47.311
		C67.864,73.713,20.905,163.478,47.309,247.808c0.992,3.169,2.091,6.276,3.261,9.337c0.001,0.003,0.001,0.004,0.001,0.007
		c0.064,0.201,0.144,0.392,0.217,0.586c0.055,0.142,0.109,0.284,0.164,0.426c2.014,4.625,7.228,7.084,12.15,5.543
		c5.273-1.65,8.206-7.26,6.556-12.532c-0.104-0.336-0.227-0.662-0.363-0.979c-1.05-2.738-2.02-5.524-2.909-8.361
		C43.281,168.042,84.372,89.49,158.165,66.386c73.794-23.104,152.345,17.985,175.45,91.78
		c23.105,73.795-17.987,152.345-91.78,175.449c-51.08,15.993-104.436,1.222-140.105-33.86c-0.261-0.256-0.52-0.514-0.777-0.771
		c-2.539-2.264-6.164-3.185-9.646-2.094c-5.27,1.65-8.204,7.261-6.555,12.531c0.555,1.773,1.565,3.273,2.854,4.433
		c-0.002-0.002-0.003-0.003-0.005-0.004c-0.007,0.006-0.012,0.013-0.018,0.02c40.763,40.181,101.793,57.119,160.226,38.823
		C332.137,326.288,379.094,236.523,352.691,152.193z"/>
	<path fill="#323232" d="M130.89,270.259c-5.51,0-9.976-4.467-9.976-9.977l0,0c0-5.51,4.467-9.977,9.976-9.977h20.197
		c5.51,0,9.977,4.467,9.977,9.977l0,0c0,5.51-4.467,9.977-9.977,9.977H130.89z"/>
	<path fill="#323232" d="M130.89,210.259c-5.51,0-9.976-4.467-9.976-9.977l0,0c0-5.51,4.467-9.977,9.976-9.977h20.197
		c5.51,0,9.977,4.467,9.977,9.977l0,0c0,5.51-4.467,9.977-9.977,9.977H130.89z"/>
	<path fill="#323232" d="M130.89,149.259c-5.51,0-9.976-4.467-9.976-9.977l0,0c0-5.51,4.467-9.977,9.976-9.977h20.197
		c5.51,0,9.977,4.467,9.977,9.977l0,0c0,5.51-4.467,9.977-9.977,9.977H130.89z"/>
	<path fill="#323232" d="M190.89,270.259c-5.51,0-9.976-4.467-9.976-9.977l0,0c0-5.51,4.467-9.977,9.976-9.977h20.197
		c5.51,0,9.977,4.467,9.977,9.977l0,0c0,5.51-4.467,9.977-9.977,9.977H190.89z"/>
	<path fill="#323232" d="M190.89,210.259c-5.51,0-9.976-4.467-9.976-9.977l0,0c0-5.51,4.467-9.977,9.976-9.977h20.197
		c5.51,0,9.977,4.467,9.977,9.977l0,0c0,5.51-4.467,9.977-9.977,9.977H190.89z"/>
	<path fill="#323232" d="M190.89,149.259c-5.51,0-9.976-4.467-9.976-9.977l0,0c0-5.51,4.467-9.977,9.976-9.977h20.197
		c5.51,0,9.977,4.467,9.977,9.977l0,0c0,5.51-4.467,9.977-9.977,9.977H190.89z"/>
	<path fill="#323232" d="M250.89,270.259c-5.51,0-9.976-4.467-9.976-9.977l0,0c0-5.51,4.467-9.977,9.976-9.977h20.197
		c5.51,0,9.977,4.467,9.977,9.977l0,0c0,5.51-4.467,9.977-9.977,9.977H250.89z"/>
	<path fill="#323232" d="M250.89,210.259c-5.51,0-9.976-4.467-9.976-9.977l0,0c0-5.51,4.467-9.977,9.976-9.977h20.197
		c5.51,0,9.977,4.467,9.977,9.977l0,0c0,5.51-4.467,9.977-9.977,9.977H250.89z"/>
	<path fill="#323232" d="M250.89,149.259c-5.51,0-9.976-4.467-9.976-9.977l0,0c0-5.51,4.467-9.977,9.976-9.977h20.197
		c5.51,0,9.977,4.467,9.977,9.977l0,0c0,5.51-4.467,9.977-9.977,9.977H250.89z"/>
</g>
</svg>
