<svg id="Layer_1" data-name="Layer 1" xmlns="http://www.w3.org/2000/svg" viewBox="0 0 500 500"><defs><style>.cls-1{fill:#333;}</style></defs><title>files</title><path class="cls-1" d="M166,378.57a5.54,5.54,0,0,0-2.21-.45,5.63,5.63,0,0,0-2.25.45,5.89,5.89,0,0,0-1.82,1.2,5.29,5.29,0,0,0-1.2,1.8,5.94,5.94,0,0,0,0,4.44,5.32,5.32,0,0,0,1.2,1.78A5.63,5.63,0,0,0,161.5,389a5.86,5.86,0,0,0,2.25.43A5.77,5.77,0,0,0,166,389a5.43,5.43,0,0,0,1.8-1.18A5.73,5.73,0,0,0,169,386a5.71,5.71,0,0,0,0-4.44A5.51,5.51,0,0,0,166,378.57Z"/><polygon class="cls-1" points="192.8 388.88 192.8 342.96 209.11 342.96 209.11 334.68 166.34 334.68 166.34 342.96 182.72 342.96 182.72 388.88 192.8 388.88"/><path class="cls-1" d="M250.34,334.67a2.44,2.44,0,0,0-2.14,1.39l-11.28,17.8a10.32,10.32,0,0,0-.52,1q-0.23.47-.41,1l-12.33-19.9a2.54,2.54,0,0,0-.84-0.92,3.09,3.09,0,0,0-1.52-.28h-10L228.52,361l-18,27.89h9.45a2.15,2.15,0,0,0,1.5-.54,5.94,5.94,0,0,0,1-1.18l12-19.19q0.19-.34.38-0.73a7.28,7.28,0,0,0,.34-0.84l12.56,20.77a4.94,4.94,0,0,0,1,1.2,2.44,2.44,0,0,0,1.63.52H260.5l-18-28.3L260,334.67h-9.67Z"/><polygon class="cls-1" points="278.23 388.88 288.31 388.88 288.31 342.96 304.62 342.96 304.62 334.68 261.85 334.68 261.85 342.96 278.23 342.96 278.23 388.88"/><path class="cls-1" d="M319.64,131.19h0l0.34,0.2Z"/><path class="cls-1" d="M377.56,417.91V200.54a9.84,9.84,0,0,0-3.38-7.42l-78.43-78.44a9.9,9.9,0,0,0-17.11,6.75v77.76a10.16,10.16,0,0,0-.1,1.35,9.9,9.9,0,0,0,6.1,9.14,9.65,9.65,0,0,0,3.89.8,8.1,8.1,0,0,0,.86,0h68.38v198H120.3V131.33h95.15v3.16h0.21v98.19c-0.69,11.21-8.61,20.78-21.34,20.78h-4c-11.13,0-24.3-9-24.3-22.37h0V154.74h-0.18c0-.1,0-0.2,0-0.3a9.66,9.66,0,0,0-19.32,0c0,0.1,0,.2,0,0.3h0v76.34h-0.2c0,24,20,43.48,44.7,43.48s44.74-19.49,44.74-43.48h-0.19V134.49h0.05v-3.16h13.22a9.89,9.89,0,0,0,0-19.78H235.64V86.45h0a30.27,30.27,0,0,0-60.54.3h0v24.8H111.45a9.44,9.44,0,0,0-1-.06,9.89,9.89,0,0,0-9.89,9.89V418.19a10,10,0,0,0,9.93,10H367.69a9.89,9.89,0,0,0,9.89-9.9C377.57,418.19,377.56,418,377.56,417.91ZM298.42,190.66V146.13l45.09,44.53H298.42Zm-93.05-114a10.1,10.1,0,0,1,10.08,10.08v24.8H195.29V86.45h0A10.08,10.08,0,0,1,205.37,76.67Z"/></svg>