<svg id="Layer_1" data-name="Layer 1" xmlns="http://www.w3.org/2000/svg" viewBox="0 0 400 400"><defs><style>.cls-1{fill:#231f20;}</style></defs><title>icons-interests</title><path class="cls-1" d="M347.66,73.8c-46.94,28.58-84,67.84-118.73,107.09l17.26,18.76C274.05,179.43,330,120.45,347,92.48c3.25-5.38,3.77-12.41,5.55-18.68Z"/><path class="cls-1" d="M325.43,143.26,308.87,157.1c-20.5,17.13-41.71,34.84-62.42,52.44-3.27,2.78-4.87,7.34-5.64,10.68-3.21,13.92-12.27,23.53-26.91,28.57-11.17,3.84-13.73,11.12-16.7,19.55s-12,17.48-18.74,18.91c-6.9,1.48-19.36-3.43-24.25-9.54-4-5-5-17.6-1.88-25,6.95-16.65,17.64-32.13,27.11-45.33,6.45-9,13.36-14.82,19-16,16.4-3.46,24.69-14.38,32.71-24.94l2.08-2.73c2.87-3.74,6.16-7.36,9.33-10.87l2.51-2.78q21.28-23.74,42.54-47.4L305,83.37l-2.26-2.66C264,35,186.49,21.94,126.26,50.92,99.8,63.65,77.7,86.2,64,114.4,50.23,142.9,46.29,174.75,53,204.07c8.9,39.17,27,71.9,53.88,97.26,24.72,23.36,57.57,41.12,97.62,52.8a159.76,159.76,0,0,0,44.85,6.59,147.79,147.79,0,0,0,41.6-6c17.52-5.12,30.8-16.39,37.38-31.73,6.7-15.63,5.61-34.17-3-50.86-4.29-8.31-6.38-20.24-5.75-32.71.32-6.36,2.37-12.7,4.54-19.41a118.12,118.12,0,0,0,4.26-15.56c2.36-13.3,4.09-26.89,5.77-40,.7-5.54,1.43-11.27,2.2-16.89l.53-3.87-10-1.61Zm.73,20.18c-1.66,13-3.38,26.54-5.71,39.64a110.49,110.49,0,0,1-4,14.5c-2.23,6.91-4.55,14.05-4.92,21.47-.41,8.13-.1,23.72,6.63,36.78,7.62,14.78,8.6,30.42,2.75,44-5.62,13.11-17.08,22.77-32.27,27.21-26.46,7.73-54,7.52-82-.62-38.82-11.32-70.57-28.46-94.36-50.94-25.67-24.25-43-55.61-51.57-93.21-6.26-27.56-2.54-57.54,10.47-84.41,12.88-26.59,33.66-47.81,58.5-59.77a151.37,151.37,0,0,1,65.39-14.58,157.22,157.22,0,0,1,25.78,2.12c29.91,5,55.83,18.27,73.4,37.59L281.64,97.35q-21.23,23.64-42.55,47.4l-2.48,2.75c-3.28,3.62-6.67,7.37-9.75,11.36l-2.11,2.77c-7.79,10.25-14.51,19.1-28,21.95-10.32,2.18-19.35,12.95-23.82,19.17-9.73,13.56-20.72,29.49-28,46.92-3.79,9.08-3.3,25.13,3,33,6.75,8.44,22.39,14.45,32.17,12.36,10.44-2.23,21.16-14.25,24.61-24.08,3-8.57,4.53-12.15,11.75-14.64,17.42-6,28.23-17.55,32.1-34.33.68-2.92,1.84-5.37,3-6.38,20.69-17.57,41.88-35.28,62.37-52.4l13.66-11.41C327.15,155.72,326.65,159.63,326.16,163.44Z"/><path class="cls-1" d="M200.3,213.59c-25.83,9.55-35.33,25.1-30.76,51.34,9.41-5,18.71-9.25,27.24-14.71,5.82-3.72,14-8.47,15.06-13.92,1.94-10.27,8.51-14.65,15.48-19.82,4.47-3.32,8.74-6.9,12.82-10.14l-18.24-18c-3.77,4.79-7.38,9.6-11.24,14.21C207.4,206.47,204.54,212,200.3,213.59Z"/><path class="cls-1" d="M163.51,128.32a28.79,28.79,0,1,0-28.87-29.87C134.08,115.23,146.82,128.41,163.51,128.32Z"/><path class="cls-1" d="M105.89,150.93c-16.16-.12-28.51,12-28.77,28.23s11.7,28.86,27.73,29.33a28.79,28.79,0,1,0,1-57.56Z"/><path class="cls-1" d="M255.93,268a28.78,28.78,0,1,0,1,57.54c15.56-.45,28.54-13.92,28.23-29.28C284.83,280.71,271.72,268,255.93,268Z"/></svg>