<?xml version="1.0" encoding="utf-8"?>
<!-- Generator: Adobe Illustrator 19.1.0, SVG Export Plug-In . SVG Version: 6.00 Build 0)  -->
<svg version="1.1" id="Layer_1" xmlns="http://www.w3.org/2000/svg" xmlns:xlink="http://www.w3.org/1999/xlink" x="0px" y="0px"
	 viewBox="0 0 400 400" enable-background="new 0 0 400 400" xml:space="preserve">
<g>
	<path fill="#231F20" d="M152.139,359.179c0.597-1.075,1.084-2.231,1.807-3.213c60.759-82.576,121.536-165.138,182.312-247.701
		c0.664-0.901,1.338-1.795,2.416-3.24c0,13.355,0,26.017,0,39.18c-1.836,0-3.819-0.262-5.676,0.108
		c-0.965,0.192-1.708,1.498-2.552,2.301c0.814,0.846,1.514,2.215,2.468,2.425c1.78,0.393,3.708,0.113,5.777,0.113
		c0,3.294,0,6.373,0,9.885c-1.972,0-3.924,0.014-5.876-0.004c-1.751-0.016-2.682,0.997-2.265,2.538
		c0.243,0.899,1.379,2.027,2.266,2.183c1.898,0.333,3.895,0.102,5.96,0.102c0,3.444,0,6.442,0,9.902c-1.9,0-3.737,0.044-5.571-0.012
		c-1.799-0.055-2.777,0.677-2.755,2.545c0.022,1.908,1.104,2.502,2.858,2.432c1.746-0.07,3.498-0.015,5.416-0.015
		c0,3.371,0,6.451,0,9.953c-1.915,0-3.812-0.258-5.584,0.101c-0.994,0.201-2.303,1.283-2.551,2.213
		c-0.47,1.76,0.765,2.627,2.557,2.61c1.769-0.017,3.538-0.004,5.526-0.004c0,3.252,0,6.323,0,9.805
		c-1.889,0-3.733,0.017-5.576-0.005c-1.811-0.022-3.011,0.882-2.533,2.624c0.253,0.924,1.579,1.964,2.586,2.178
		c1.685,0.359,3.501,0.098,5.5,0.098c0,3.282,0,6.354,0,9.917c-1.828,0-3.815-0.266-5.672,0.11
		c-0.962,0.195-1.694,1.526-2.531,2.344c0.82,0.837,1.527,2.189,2.484,2.398c1.779,0.389,3.704,0.112,5.764,0.112
		c0,3.296,0,6.377,0,9.921c-1.939,0-3.922-0.226-5.809,0.098c-0.904,0.155-2.367,1.48-2.27,2.053
		c0.168,0.993,1.229,2.392,2.138,2.587c1.867,0.402,3.88,0.121,5.986,0.121c0,3.381,0,6.37,0,9.836
		c-1.463,0-2.874-0.011-4.285,0.003c-1.857,0.018-4.023-0.395-4.001,2.545c0.02,2.758,2.068,2.36,3.816,2.383
		c1.355,0.018,2.71,0.004,4.347,0.004c0,3.259,0,6.413,0,9.95c-1.825,0-3.724-0.26-5.497,0.102c-0.99,0.202-2.292,1.302-2.531,2.234
		c-0.444,1.733,0.739,2.647,2.561,2.615c1.767-0.032,3.534-0.007,5.524-0.007c0,3.249,0,6.33,0,9.888
		c-1.916,0-3.922-0.272-5.792,0.115c-0.932,0.193-2.044,1.508-2.242,2.484c-0.116,0.57,1.321,1.954,2.219,2.125
		c1.8,0.342,3.71,0.101,5.801,0.101c0,3.326,0,6.387,0,9.878c-1.087,0-2.202-0.104-3.291,0.023
		c-1.937,0.226-4.952-1.121-4.867,2.546c0.084,3.668,3.124,2.06,5.015,2.363c0.991,0.159,2.029,0.028,3.207,0.028
		c0,3.37,0,6.452,0,9.944c-2.013,0-4.001-0.231-5.891,0.101c-0.893,0.157-2.324,1.521-2.221,2.114
		c0.173,0.996,1.248,2.372,2.174,2.585c1.781,0.41,3.724,0.12,5.855,0.12c0,3.214,0,6.275,0,9.805c-1.581,0-3.205,0.024-4.829-0.006
		c-1.819-0.034-3.407,0.142-3.375,2.566c0.03,2.273,1.539,2.378,3.228,2.342c1.639-0.035,3.28-0.008,5.073-0.008
		c0,3.457,0,6.533,0,9.929c-1.898,0-3.647,0.054-5.39-0.015c-1.728-0.069-2.867,0.454-2.898,2.386
		c-0.034,2.077,1.142,2.691,3.022,2.607c1.658-0.074,3.322-0.016,5.425-0.016c0,5.964,0,11.767,0,17.57
		C276.644,359.179,214.392,359.179,152.139,359.179z M303.05,324.106c0-38.563,0-76.751,0-115.61
		c-28.347,38.796-56.26,76.998-84.472,115.61C247.13,324.106,275.045,324.106,303.05,324.106z"/>
	<path fill="#231F20" d="M143.365,38.307c5.974,1.959,7.006,3.386,7.006,9.702c0.001,10.436,0,20.872,0,31.372
		c8.066,3.072,13.786,8.403,16.662,16.472c3.724,10.45,0.576,21.804-8.107,29.166c-1.301,1.103-1.693,1.951-1.232,3.646
		c3.258,11.969,6.389,23.973,9.57,35.963c0.104,0.39,0.308,0.754,0.755,1.821c5.284-3.139,10.408-6.183,15.851-9.417
		c1.844,2.475,3.865,5.188,6.331,8.498c-6.627,3.866-12.976,7.57-19.618,11.445c0.361,1.392,0.818,3.156,1.538,5.933
		c7.462-4.25,14.452-8.231,21.757-12.392c4.088,5.496,8.427,11.33,12.866,17.298c-8.796,7.087-18.489,12.262-28.987,16.309
		c3.083,12.654,6.116,25.1,9.149,37.546c3.06,12.56,6.163,25.11,9.108,37.697c0.28,1.197-0.048,2.894-0.749,3.903
		c-3.374,4.859-6.972,9.562-10.879,14.845c-7.475-30.23-14.79-59.81-22.17-89.654c-13.801,2.373-27.384,2.469-41.289-0.426
		c-4.803,18.089-9.58,36.076-14.347,54.029c5.167,2.496,5.449,3.094,4.014,8.51c-3.284,12.394-6.571,24.788-9.871,37.178
		c-0.967,3.629-1.393,3.846-4.959,2.877c-6.639-1.805-13.262-3.677-19.937-5.337c-2.3-0.572-3.217-1.606-2.604-3.917
		c3.582-13.503,7.117-27.018,10.758-40.505c0.973-3.604,3.828-3.586,6.973-2.808c2.857-10.724,5.676-21.282,8.482-31.843
		c1.793-6.75,3.5-13.525,5.394-20.247c0.537-1.905,0.136-2.744-1.719-3.484c-9.462-3.775-18.112-8.956-26.355-15.634
		c4.359-5.893,8.669-11.72,12.848-17.371c7.061,4.218,13.988,8.355,21.348,12.751c0.747-2.54,1.259-4.283,1.729-5.88
		c-6.48-3.963-12.819-7.84-19.357-11.839c2.191-2.952,3.921-5.283,5.562-7.495c5.357,3.199,10.584,6.321,16.287,9.726
		c0.993-3.747,1.807-6.832,2.628-9.915c2.576-9.67,5.119-19.35,7.768-29c0.472-1.719,0.181-2.816-1.119-4.105
		c-13.597-13.488-9.764-35.432,7.584-43.27c1.86-0.84,2.398-1.785,2.379-3.707c-0.092-9.502-0.056-19.005-0.048-28.508
		c0.006-6.622,1-7.992,7.119-9.934C142.112,38.307,142.739,38.307,143.365,38.307z M159.237,104.553
		c-0.051-9.471-7.467-16.916-16.865-16.932c-9.319-0.016-16.855,7.543-16.893,16.947c-0.039,9.495,7.615,17.17,17.065,17.114
		C151.819,121.627,159.288,113.963,159.237,104.553z M152.314,171.085c-3.602-13.556-7.016-26.408-10.431-39.26
		c-0.254,0.016-0.508,0.031-0.762,0.047c-3.42,12.899-6.84,25.798-10.397,39.213C138.103,171.085,144.982,171.085,152.314,171.085z
		 M156.406,186.65c-0.525-1.997-1.009-3.836-1.422-5.41c-9.144,0-17.845,0-26.922,0c-0.326,1.266-0.778,3.022-1.303,5.058
		C136.779,188.366,146.444,188.475,156.406,186.65z"/>
	<path fill="#231F20" d="M84.677,328.73c-2.872,8.47-5.743,16.941-8.62,25.41c-0.268,0.788-0.392,1.72-0.903,2.305
		c-0.699,0.802-1.705,1.336-2.58,1.985c-0.384-1.046-1.235-2.17-1.076-3.127c0.937-5.648,2.105-11.257,3.201-16.878
		c0.658-3.372,1.448-6.726,1.91-10.124c0.123-0.903-0.758-1.937-1.164-2.917c-0.481-1.162-1.525-2.448-1.317-3.476
		c0.8-3.952,2.003-7.822,3.146-12.054c5.178,1.386,10.16,2.72,15.515,4.154c-1.155,4.288-2.019,8.457-3.493,12.398
		c-0.455,1.216-2.568,1.812-3.922,2.692C85.141,328.976,84.909,328.853,84.677,328.73z"/>
</g>
</svg>
