<?xml version="1.0" encoding="utf-8"?>
<!-- Generator: Adobe Illustrator 19.1.0, SVG Export Plug-In . SVG Version: 6.00 Build 0)  -->
<svg version="1.1" id="Layer_1" xmlns="http://www.w3.org/2000/svg" xmlns:xlink="http://www.w3.org/1999/xlink" x="0px" y="0px"
	 width="400px" height="400px" viewBox="0 0 400 400" enable-background="new 0 0 400 400" xml:space="preserve">
<g id="Layer_x25_20139">
	<path fill="#323232" d="M320.075,90.324c0-2.493-0.921-4.767-2.433-6.516c-1.828-2.275-4.63-3.734-7.775-3.734
		c-0.787,0-1.549,0.101-2.283,0.273h-51.387c-8.009-23.441-30.188-40.322-56.346-40.368c-26.234-0.047-48.524,16.852-56.558,40.368
		H92.306c-0.734-0.172-1.496-0.273-2.283-0.273c-4.163,0-7.727,2.552-9.223,6.175c-0.559,1.245-0.876,2.622-0.876,4.075
		c0,0.505,0.05,0.998,0.122,1.482v256.755c-0.072,0.485-0.122,0.978-0.122,1.482c0,5.51,4.467,9.977,9.977,9.977h180.197
		c5.51,0,9.977-4.467,9.977-9.977c0-5.51-4.467-9.977-9.977-9.977H100V100.3h40.105h19.537c-0.004-0.245-0.018-0.487-0.018-0.733
		c0.012-6.968,1.803-13.516,4.938-19.22c6.832-12.435,20.062-20.855,35.252-20.828c15.139,0.027,28.3,8.438,35.108,20.828
		c3.157,5.745,4.953,12.343,4.94,19.362c0,0.198-0.014,0.393-0.018,0.591h19.541h40.504V349.14c0,5.51,4.467,9.977,9.976,9.977
		c5.51,0,9.977-4.467,9.977-9.977V92.446C319.992,91.762,320.075,91.053,320.075,90.324z"/>
	<path fill="#323232" d="M220.598,80.347h-41.197c-5.51,0-9.977,4.467-9.977,9.977c0,5.51,4.467,9.977,9.977,9.977h41.197
		c5.51,0,9.977-4.467,9.977-9.977C230.575,84.814,226.108,80.347,220.598,80.347z"/>
</g>
</svg>
