<?xml version="1.0" encoding="utf-8"?>
<!-- Generator: Adobe Illustrator 19.1.0, SVG Export Plug-In . SVG Version: 6.00 Build 0)  -->
<svg version="1.1" id="Layer_1" xmlns="http://www.w3.org/2000/svg" xmlns:xlink="http://www.w3.org/1999/xlink" x="0px" y="0px"
	 width="400px" height="400px" viewBox="0 0 400 400" enable-background="new 0 0 400 400" xml:space="preserve">
<g id="Layer_x25_2012">
	<path fill="#333333" d="M200,40c-88.365,0-160,71.634-160,160c0,24.195,5.381,47.13,14.994,67.689
		c0.219,0.467,0.432,0.936,0.654,1.401c3.297,6.516,10.038,10.994,17.84,10.994c11.046,0,20-8.954,20-20
		c0-3.205-0.773-6.223-2.113-8.909l0.001,0.002c0.012-0.002,0.021-0.006,0.034-0.007C84.082,235.645,79.971,218.305,79.971,200
		c0-66.29,53.739-120.029,120.029-120.029c66.29,0,120.029,53.739,120.029,120.029c0,66.29-53.74,120.029-120.029,120.029
		c-18.324,0-35.685-4.113-51.221-11.455c-0.278-0.131-0.559-0.257-0.835-0.391c-2.366-0.985-4.96-1.534-7.683-1.534
		c-11.045,0-20,8.955-20,20c0,8.305,5.064,15.425,12.27,18.448c-0.002,0.003-0.004,0.006-0.005,0.009
		C153.03,354.657,175.889,360,200,360c88.365,0,160-71.634,160-160S288.365,40,200,40z"/>
	<path fill="#333333" d="M200,239.905c-11.045,0-20-8.954-20-20v-98.604c0-11.046,8.955-20,20-20l0,0c11.047,0,20,8.954,20,20
		v98.604C220,230.951,211.047,239.905,200,239.905L200,239.905z"/>
	<path fill="#333333" d="M220.089,279.56c0,11.095-8.994,20.089-20.089,20.089c-11.095,0-20.089-8.994-20.089-20.089
		c0-11.095,8.994-20.089,20.089-20.089C211.095,259.471,220.089,268.466,220.089,279.56z"/>
</g>
</svg>
