<svg id="Layer_1" data-name="Layer 1" xmlns="http://www.w3.org/2000/svg" viewBox="0 0 400 400"><defs><style>.cls-1{fill:#231f20;}</style></defs><title>icons-interests</title><path class="cls-1" d="M243.18,207.82A91.7,91.7,0,1,0,149,207.6,116.08,116.08,0,0,0,85.32,349.14a11.48,11.48,0,1,0,21.16-8,93.49,93.49,0,0,1,83.8-120.68c2,.13,4,.22,6,.22,1.87,0,3.71-.07,5.55-.18a93.48,93.48,0,0,1,82.85,122.2c-.13.4-.27.79-.4,1.19a11.48,11.48,0,1,0,22.51,3.76,116.1,116.1,0,0,0-63.61-139.86Zm-45.66-10.05-1.7,0h-1.08a68.74,68.74,0,1,1,2.78,0Z"/><path class="cls-1" d="M253.17,269.67H196.29v-9.32A1.39,1.39,0,0,0,194.9,259H160.41a1.39,1.39,0,0,0-1.39,1.39v9.32H139.41a6.83,6.83,0,0,0-6.82,6.82V349a6.83,6.83,0,0,0,6.82,6.82H253.17A6.83,6.83,0,0,0,260,349V276.5A6.83,6.83,0,0,0,253.17,269.67ZM254,349a.82.82,0,0,1-.82.82H139.41a.82.82,0,0,1-.82-.82V276.5a.82.82,0,0,1,.82-.82H253.17a.82.82,0,0,1,.82.82Z"/><circle class="cls-1" cx="196.29" cy="315.3" r="19.8"/></svg>