<svg id="Layer_1" data-name="Layer 1" xmlns="http://www.w3.org/2000/svg" viewBox="0 0 500 500"><defs><style>.cls-1{fill:#333;}</style></defs><title>files</title><path class="cls-1" d="M192.12,378.57a5.54,5.54,0,0,0-2.21-.45,5.63,5.63,0,0,0-2.25.45,5.9,5.9,0,0,0-1.82,1.2,5.29,5.29,0,0,0-1.2,1.8,5.94,5.94,0,0,0,0,4.44,5.33,5.33,0,0,0,1.2,1.78,5.63,5.63,0,0,0,1.82,1.18,5.86,5.86,0,0,0,2.25.43,5.77,5.77,0,0,0,2.21-.43,5.42,5.42,0,0,0,1.8-1.18,5.72,5.72,0,0,0,1.2-1.78,5.7,5.7,0,0,0,0-4.44A5.51,5.51,0,0,0,192.12,378.57Z"/><path class="cls-1" d="M242.53,338.38v-3.71H202.43v8h27.06L201.6,382.17a6,6,0,0,0-.67,1.29,4,4,0,0,0-.26,1.44v4h41.19v-8.06H213.75l27.81-39.28A5.45,5.45,0,0,0,242.53,338.38Z"/><rect class="cls-1" x="251.3" y="334.67" width="10.12" height="54.2"/><path class="cls-1" d="M284,369.8h7.57a29.19,29.19,0,0,0,9.22-1.31,18.32,18.32,0,0,0,6.56-3.67,15,15,0,0,0,3.94-5.64,20.39,20.39,0,0,0,.08-14.19,14,14,0,0,0-3.82-5.47,18.13,18.13,0,0,0-6.56-3.56,31,31,0,0,0-9.41-1.27H273.94v54.2H284V369.8Zm0-27.33h7.57a16,16,0,0,1,4.84.66,9,9,0,0,1,3.41,1.89,7.78,7.78,0,0,1,2,3,10.92,10.92,0,0,1,.67,3.94,12,12,0,0,1-.67,4.14,8.14,8.14,0,0,1-2,3.15,9,9,0,0,1-3.41,2,15.18,15.18,0,0,1-4.84.69H284V342.47Z"/><path class="cls-1" d="M334.79,131.19h0l0.34,0.2Z"/><path class="cls-1" d="M392.71,417.91V200.54a9.84,9.84,0,0,0-3.38-7.42L310.9,114.68a9.9,9.9,0,0,0-17.11,6.76v77.76a10.17,10.17,0,0,0-.1,1.35,9.9,9.9,0,0,0,6.1,9.14,9.65,9.65,0,0,0,3.89.8,8.12,8.12,0,0,0,.86,0h68.38v198H135.46V131.33h95.15v3.16h0.21v98.19c-0.69,11.21-8.61,20.78-21.34,20.78-0.22,0-3.73,0-4,0-11.13,0-24.3-9-24.3-22.37h0V154.74H181c0-.1,0-0.2,0-0.3a9.66,9.66,0,0,0-19.32,0c0,0.1,0,.2,0,0.3h0v76.35h-0.2c0,24,20,43.48,44.7,43.48s44.74-19.49,44.74-43.48h-0.19V134.49h0.05v-3.16H264a9.89,9.89,0,0,0,0-19.78H250.79V86.45h0a30.27,30.27,0,0,0-60.54.3h0v24.8H126.61a9.47,9.47,0,0,0-1-.06,9.89,9.89,0,0,0-9.89,9.89V418.19a10,10,0,0,0,9.93,10H382.84a9.89,9.89,0,0,0,9.89-9.9C392.73,418.19,392.71,418,392.71,417.91ZM313.58,190.66V146.13l45.09,44.53H313.58Zm-93.05-114a10.1,10.1,0,0,1,10.08,10.08v24.8H210.44V86.45h0A10.08,10.08,0,0,1,220.52,76.67Z"/></svg>