<?xml version="1.0" encoding="utf-8"?>
<!-- Generator: Adobe Illustrator 19.1.0, SVG Export Plug-In . SVG Version: 6.00 Build 0)  -->
<svg version="1.1" id="Layer_1" xmlns="http://www.w3.org/2000/svg" xmlns:xlink="http://www.w3.org/1999/xlink" x="0px" y="0px"
	 width="400px" height="400px" viewBox="0 0 400 400" enable-background="new 0 0 400 400" xml:space="preserve">
<g id="Layer_x25_20170">
	<path fill="#333333" d="M352.691,152.193C326.287,67.863,236.522,20.906,152.194,47.311
		C67.864,73.713,20.906,163.478,47.309,247.808c0.993,3.169,2.09,6.276,3.261,9.337c0,0.003,0.001,0.004,0.002,0.007
		c0.063,0.201,0.142,0.392,0.216,0.586c0.055,0.142,0.109,0.284,0.164,0.426c2.014,4.625,7.228,7.084,12.15,5.543
		c5.273-1.65,8.206-7.26,6.556-12.532c-0.104-0.336-0.227-0.662-0.363-0.979c-1.05-2.738-2.02-5.524-2.909-8.361
		C43.281,168.042,84.372,89.491,158.164,66.386c73.794-23.105,152.345,17.985,175.45,91.78
		c23.105,73.795-17.987,152.345-91.78,175.449c-51.08,15.993-104.436,1.222-140.106-33.86c-0.26-0.256-0.518-0.514-0.776-0.772
		c-2.539-2.264-6.163-3.185-9.646-2.094c-5.271,1.65-8.205,7.261-6.556,12.531c0.555,1.773,1.566,3.273,2.853,4.433
		c-0.001-0.002-0.002-0.003-0.004-0.004c-0.007,0.006-0.012,0.013-0.018,0.02c40.763,40.181,101.793,57.119,160.226,38.823
		C332.137,326.288,379.094,236.523,352.691,152.193z"/>
	<path fill="#333333" d="M206.953,215.017c-5.361-3.79-15.594-13.006-15.594-18.427c0-6.348,1.811-9.48,11.368-16.945
		c9.791-7.656,16.73-20.202,16.73-32.73c0-14.894-6.646-24.033-19.102-35.986h18.792l13.257-5.977c0,0-44.433,0-59.249,0
		c-26.567,0-51.557,20.094-51.557,43.398c0,23.824,18.104,43.04,45.131,43.04c1.877,0,3.7-0.048,5.493-0.167
		c-1.757,3.347-3.007,7.125-3.007,11.052c0,6.622,3.562,11.989,8.057,16.377c-3.389,0-6.682,0.096-10.262,0.096
		c-32.915-0.006-58.227,20.943-58.227,42.675c0,21.391,27.763,34.791,60.653,34.791c37.511,0,58.221-21.29,58.221-42.687
		C227.663,236.366,222.595,226.098,206.953,215.017z M175.299,185.33c-15.271-0.454-29.77-17.076-32.406-37.11
		c-2.63-20.052,7.603-35.395,22.855-34.941c15.265,0.466,29.771,16.544,32.413,36.591
		C200.797,169.922,190.553,185.784,175.299,185.33z M169.316,286.739c-22.742,0-39.167-14.386-39.167-31.683
		c0-16.938,20.369-31.05,43.117-30.805c5.308,0.06,10.251,0.909,14.733,2.361c12.349,8.595,21.206,13.448,23.717,23.22
		c0.454,1.984,0.723,4.035,0.723,6.115C212.44,273.232,201.293,286.739,169.316,286.739z"/>
	<path fill="#333333" d="M270.159,188.629v-29.884h-11.954v29.884H228.32v11.954h29.884v29.885h11.954v-29.885h29.884v-11.954
		H270.159z"/>
</g>
</svg>
