<?xml version="1.0" encoding="utf-8"?>
<!-- Generator: Adobe Illustrator 19.1.0, SVG Export Plug-In . SVG Version: 6.00 Build 0)  -->
<svg version="1.1" id="Layer_1" xmlns="http://www.w3.org/2000/svg" xmlns:xlink="http://www.w3.org/1999/xlink" x="0px" y="0px"
	 width="400px" height="400px" viewBox="0 0 400 400" enable-background="new 0 0 400 400" xml:space="preserve">
<g id="Layer_x25_20199">
	<path fill="#333333" d="M199.194,140.225c40,0,60,38.667,60,60s-18,60-60,60c0,0-17.333,0-26-7s-14,4-14,4s-4.333,8,3,13
		s20,10,37,10c20.011,0,80-13.667,80-80s-59.667-80-80-80s-80,18.333-80,80c0,0,1,23,10,36s17,4,17,4s5.667-5.333,1-14
		s-6.333-17.333-6-26S151.527,140.225,199.194,140.225z"/>
	<path fill="#333333" d="M112.194,67.225c4-4.667,18-11,27-15s17.333-6,25-8s17.333,1,17,9s-1.333,27,18,27s19.333-18.333,20-26
		s6.333-9.333,10-10s23.333,4.667,30,7s24.667,10.667,29,15s8.667,11,0,18s-13.333,17.667-3,30s26,1,30-4s11.667-3.333,15-1
		s14.333,22.333,16,26s9,23.333,10,29s2.333,17.333-10,16s-27,3.667-27,20s17.333,17.667,26,18s12.333,7.333,11,13
		s-6.333,23.333-9,29c-2.667,5.667-10.333,25.333-15,30s-10.333,3.667-16-2s-19.333-15.333-31-3s0.667,26,4,29s7,12,1,17
		s-13,8-27,15c-14,7-32.667,12.667-40,9s-4-15-4-15s-0.667-21.333-20-20s-18,20-18,20s2,7-2,12s-16,3-16,3
		c-26.333-3-54-22.333-56-29s3-11,3-11c6.333-3,8.333-6.333,9-15s9-10,9-10s10.667-2,11,10s-7,22-7,22c8,6.333,29,13,29,13
		c0-29,38-35,38-35c20.667,0,37,16.667,40,34c0,0,24-7.333,29-14c0,0-19-27.333,3-49s50-6,50-6s10.333-10.333,12-27c0,0-32-6-32-38
		s32-40,32-40s-7.333-20.667-12-27c0,0-30.333,17.667-51-3s-7.667-44.333-3-52c0,0-15.667-10.333-28-12c0,0-8,34-40,34s-38-34-38-34
		s-17.333,4-27,11c0,0,18,30.333-5,52s-50,3-50,3s-9.333,13.333-13,28c0,0,33,7.667,33,40s-33,38-33,38s3,16.333,10,28
		c0,0,14-7.333,27-6c0,0,8,1.667,7,11s-11,9-11,9s-8-0.333-11,3s-11.667,13.333-19,6s-23-34.333-26-59c0,0,2.333-10.333,10-10
		s26-3.333,26-20s-11.667-20-25-20s-10-20-10-20s7.333-29.333,24-49c0,0,8-6.667,15-1s19,17,32,5s0.333-28-4-31
		C106.26,80.81,108.194,71.892,112.194,67.225z"/>
	<path fill="#333333" d="M112.194,67.225c4-4.667,18-11,27-15s17.333-6,25-8s17.333,1,17,9s-1.333,27,18,27s19.333-18.333,20-26
		s6.333-9.333,10-10s23.333,4.667,30,7s24.667,10.667,29,15s8.667,11,0,18s-13.333,17.667-3,30s26,1,30-4s11.667-3.333,15-1
		s14.333,22.333,16,26s9,23.333,10,29s2.333,17.333-10,16s-27,3.667-27,20s17.333,17.667,26,18s12.333,7.333,11,13
		s-6.333,23.333-9,29c-2.667,5.667-10.333,25.333-15,30s-10.333,3.667-16-2s-19.333-15.333-31-3s0.667,26,4,29s7,12,1,17
		s-13,8-27,15c-14,7-32.667,12.667-40,9s-4-15-4-15s-0.667-21.333-20-20s-18,20-18,20s2,7-2,12s-16,3-16,3
		c-26.333-3-54-22.333-56-29s3-11,3-11c6.333-3,8.333-6.333,9-15s9-10,9-10s10.667-2,11,10s-7,22-7,22c8,6.333,29,13,29,13
		c0-29,38-35,38-35c20.667,0,37,16.667,40,34c0,0,24-7.333,29-14c0,0-19-27.333,3-49s50-6,50-6s10.333-10.333,12-27c0,0-32-6-32-38
		s32-40,32-40s-7.333-20.667-12-27c0,0-30.333,17.667-51-3s-7.667-44.333-3-52c0,0-15.667-10.333-28-12c0,0-8,34-40,34s-38-34-38-34
		s-17.333,4-27,11c0,0,18,30.333-5,52s-50,3-50,3s-9.333,13.333-13,28c0,0,33,7.667,33,40s-33,38-33,38s3,16.333,10,28
		c0,0,14-7.333,27-6c0,0,8,1.667,7,11s-11,9-11,9s-8-0.333-11,3s-11.667,13.333-19,6s-23-34.333-26-59c0,0,2.333-10.333,10-10
		s26-3.333,26-20s-11.667-20-25-20s-10-20-10-20s7.333-29.333,24-49c0,0,8-6.667,15-1s19,17,32,5s0.333-28-4-31
		C106.26,80.81,108.194,71.892,112.194,67.225z"/>
</g>
</svg>
