<?xml version="1.0" encoding="utf-8"?>
<!-- Generator: Adobe Illustrator 19.1.0, SVG Export Plug-In . SVG Version: 6.00 Build 0)  -->
<svg version="1.1" id="Layer_1" xmlns="http://www.w3.org/2000/svg" xmlns:xlink="http://www.w3.org/1999/xlink" x="0px" y="0px"
	 width="400px" height="400px" viewBox="0 0 400 400" enable-background="new 0 0 400 400" xml:space="preserve">
<g>
	<path fill="#333333" d="M199.604,159.664c-5.523,0-10,4.477-10,10v50c0,5.523,4.477,10,10,10s10-4.477,10-10v-50
		C209.604,164.141,205.127,159.664,199.604,159.664z"/>
	<path fill="#333333" d="M263.547,252.071l-28.284-28.284c-1.959-1.959-4.528-2.934-7.096-2.928
		c-2.567-0.006-5.137,0.969-7.096,2.928L200,244.858l-21.071-21.071c-1.959-1.959-4.528-2.934-7.096-2.928
		c-2.567-0.006-5.137,0.969-7.095,2.928l-28.285,28.284c-3.905,3.905-3.905,10.237,0,14.142c3.906,3.905,10.237,3.905,14.142,0
		l21.238-21.238l19.681,19.68c0.364,0.55,0.788,1.073,1.273,1.557c1.989,1.989,4.607,2.959,7.213,2.922
		c2.606,0.037,5.224-0.933,7.213-2.922c0.485-0.485,0.909-1.007,1.273-1.557l19.68-19.68l21.238,21.238
		c3.905,3.905,10.237,3.905,14.142,0S267.452,255.976,263.547,252.071z"/>
	<path fill="#333333" d="M179.604,20c-5.523,0-10,4.477-10,10v50c0,5.523,4.477,10,10,10s10-4.477,10-10V30
		C189.604,24.477,185.127,20,179.604,20z"/>
	<path fill="#333333" d="M219.604,20c-5.523,0-10,4.477-10,10v50c0,5.523,4.477,10,10,10s10-4.477,10-10V30
		C229.604,24.477,225.127,20,219.604,20z"/>
	<path fill="#333333" d="M199.604,279.943c-5.523,0-10,4.477-10,10V370c0,5.523,4.477,10,10,10s10-4.477,10-10v-80.057
		C209.604,284.42,205.127,279.943,199.604,279.943z"/>
	<path fill="#333333" d="M259.604,138.321V80.031c0-3.819-2.142-7.135-5.288-8.819c-1.419-0.773-3.045-1.212-4.775-1.212h-69.938
		c-5.523,0-10,4.477-10,10s4.477,10,10,10h60v21.571v26.671v1.727c0,0.385,0.027,0.764,0.069,1.138
		c-0.568,4.793-4.474,8.557-9.331,8.907c-0.003,0.012-0.007,0.025-0.011,0.037h-28.995h-3.377h-26.606
		c-0.229,0-0.454,0.019-0.679,0.034c-0.012-0.028-0.022-0.057-0.034-0.085c-0.312,0.029-0.628,0.048-0.948,0.048
		c-5.247,0-9.563-3.983-10.092-9.09c0.032-0.326,0.05-0.656,0.05-0.99v-1.452v-26.932V80.031c0-5.523-4.477-10-10-10
		s-10,4.477-10,10v59.87v0.068c0,0.023,0.003,0.045,0.003,0.068c0.073,16.529,13.492,29.906,30.038,29.906
		c0.078,0,0.155-0.005,0.232-0.006c0.468,0.067,0.943,0.114,1.429,0.114h59.938c1.076,0,2.109-0.174,3.081-0.489
		c14.325-2.285,25.274-14.693,25.274-29.661C259.646,139.371,259.632,138.844,259.604,138.321z"/>
</g>
</svg>
