<?xml version="1.0" encoding="utf-8"?>
<!-- Generator: Adobe Illustrator 20.1.0, SVG Export Plug-In . SVG Version: 6.00 Build 0)  -->
<svg version="1.1" id="Layer_1" xmlns="http://www.w3.org/2000/svg" xmlns:xlink="http://www.w3.org/1999/xlink" x="0px" y="0px"
	 width="400px" height="400px" viewBox="0 0 400 400" enable-background="new 0 0 400 400" xml:space="preserve">
<path fill="#333333" d="M361.8,152.9l0.1-0.2L201,63.7l-0.2-0.3l-0.2,0.1l-0.2-0.1l-0.2,0.3L39.4,152.7l0.1,0.2
	c-2.2,1.7-3.5,4.3-3.5,7.3c0,5.1,4.1,9.2,9.2,9.2c2.5,0,4.8-1,6.5-2.7l8.5-4.7v177.3h0.3c0,4.8,3.5,8.8,8.2,9.5v0.1H292v-0.2
	c4.4-0.9,7.7-4.8,7.7-9.5c0-4.7-3.3-8.5-7.7-9.5v-0.2H80.1V150.9l120.5-66.7L320,150.3v189h0.3c0,5.3,4.3,9.7,9.7,9.7
	s9.7-4.3,9.7-9.7h0.3V161.3l10.9,6c1.7,1.8,4.1,3,6.8,3c5.1,0,9.2-4.1,9.2-9.2C366.8,157.5,364.8,154.4,361.8,152.9z"/>
<path fill="#333333" d="M132.6,237.9c0,37.2,30.3,67.5,67.5,67.5s67.5-30.3,67.5-67.5s-30.3-67.5-67.5-67.5S132.6,200.6,132.6,237.9
	z M247.6,237.9c0,26.2-21.3,47.5-47.5,47.5s-47.5-21.3-47.5-47.5s21.3-47.5,47.5-47.5S247.6,211.7,247.6,237.9z"/>
</svg>
