<?xml version="1.0" encoding="utf-8"?>
<!-- Generator: Adobe Illustrator 19.1.0, SVG Export Plug-In . SVG Version: 6.00 Build 0)  -->
<svg version="1.1" id="Layer_1" xmlns="http://www.w3.org/2000/svg" xmlns:xlink="http://www.w3.org/1999/xlink" x="0px" y="0px"
	 width="400px" height="400px" viewBox="0 0 400 400" enable-background="new 0 0 400 400" xml:space="preserve">
<g id="Layer_x25_20173">
	<path fill="#333333" d="M352.691,152.193C326.288,67.863,236.522,20.906,152.194,47.311
		C67.864,73.713,20.906,163.478,47.309,247.808c0.993,3.169,2.09,6.276,3.261,9.337c0,0.003,0.001,0.004,0.002,0.007
		c0.063,0.201,0.142,0.392,0.216,0.586c0.055,0.142,0.109,0.284,0.164,0.426c2.014,4.625,7.228,7.084,12.15,5.543
		c5.273-1.65,8.206-7.26,6.556-12.532c-0.104-0.336-0.227-0.662-0.363-0.979c-1.05-2.738-2.02-5.524-2.909-8.361
		C43.281,168.042,84.372,89.491,158.164,66.386c73.794-23.105,152.345,17.985,175.45,91.78
		c23.105,73.795-17.987,152.345-91.78,175.449c-51.08,15.993-104.436,1.222-140.107-33.86c-0.26-0.256-0.518-0.514-0.776-0.772
		c-2.539-2.264-6.163-3.185-9.646-2.094c-5.271,1.65-8.205,7.261-6.556,12.531c0.555,1.773,1.566,3.273,2.853,4.433
		c-0.001-0.002-0.002-0.003-0.004-0.004c-0.007,0.006-0.012,0.013-0.018,0.02c40.763,40.181,101.794,57.119,160.226,38.823
		C332.137,326.288,379.094,236.523,352.691,152.193z"/>
	<path fill="#333333" d="M213.223,300.254V214.81h36.619l6.103-36.619h-42.722v-18.31c0-12.206,6.115-18.309,18.31-18.309h18.309
		v-36.619c-6.103,0-19.774,0-30.516,0c-30.516,0-42.722,18.309-42.722,48.825v24.413h-36.619v36.619h36.619v85.444H213.223z"/>
</g>
</svg>
