<?xml version="1.0" encoding="utf-8"?>
<!-- Generator: Adobe Illustrator 20.1.0, SVG Export Plug-In . SVG Version: 6.00 Build 0)  -->
<svg version="1.1" id="Layer_1" xmlns="http://www.w3.org/2000/svg" xmlns:xlink="http://www.w3.org/1999/xlink" x="0px" y="0px"
	 width="400px" height="400px" viewBox="0 0 400 400" enable-background="new 0 0 400 400" xml:space="preserve">
<path fill="#323232" d="M349.4,339.6l-8.3,0c0.2-3.4,0.4-6.8,0.4-10.3c0-59.1-36.5-109.6-88.2-130.2c52-20.5,88.7-71.2,88.7-130.4
	c0-3.1-0.1-6.1-0.3-9.1l7.7,0c5.5,0,10-4.5,10-10c0-5.5-4.5-10-10-10l-299,0c-5.5,0-10,4.5-10,10c0,5.5,4.5,10,10,10l11.6,0
	c-0.2,3-0.3,6.1-0.3,9.1c0,59.1,36.5,109.6,88.2,130.2c-52,20.5-88.7,71.2-88.7,130.4c0,3.4,0.1,6.9,0.4,10.2l-11.1,0
	c-5.5,0-10,4.5-10,10c0,5.5,4.5,10,10,10l299,0c5.5,0,10-4.5,10-10C359.4,344.1,355,339.6,349.4,339.6z M81.5,68.7
	c0-3.1,0.1-6.1,0.3-9.1l240,0c0.2,3,0.3,6,0.3,9.1c0,66.5-53.9,120.4-120.4,120.4C135.4,189.1,81.5,135.2,81.5,68.7z M81,329.3
	C81,262.9,134.9,209,201.4,209c66.5,0,120.4,53.9,120.4,120.4c0,3.5-0.1,6.9-0.4,10.3l-239.9,0C81.2,336.2,81,332.8,81,329.3z"/>
</svg>
