<?xml version="1.0" encoding="utf-8"?>
<!-- Generator: Adobe Illustrator 19.1.0, SVG Export Plug-In . SVG Version: 6.00 Build 0)  -->
<svg version="1.1" id="Layer_1" xmlns="http://www.w3.org/2000/svg" xmlns:xlink="http://www.w3.org/1999/xlink" x="0px" y="0px"
	 viewBox="0 0 400 400" enable-background="new 0 0 400 400" xml:space="preserve">
<path fill="#231F20" d="M75.368,195.168c1.765-1.329,2.989-2.171,4.126-3.118c21.308-17.732,42.589-35.495,63.912-53.208
	c10.388-8.629,20.566-6.759,27.264,4.955c14.758,25.809,29.491,51.631,44.241,77.444c0.828,1.45,1.72,2.863,2.938,4.882
	c0.938-1.921,1.642-3.256,2.254-4.631c15.955-35.867,31.961-71.711,47.784-107.636c2.471-5.611,6.089-9.477,11.624-12.184
	c20.375-9.964,40.593-20.251,60.901-30.353c5.784-2.877,11.588-2.696,16.887,1.109c5.306,3.81,7.365,9.208,6.349,15.651
	c-0.935,5.928-4.654,9.645-9.879,12.242c-17.651,8.772-35.218,17.715-52.916,26.392c-3.3,1.618-5.366,3.705-6.86,7.085
	c-19.6,44.343-39.362,88.615-59.015,132.935c-2.68,6.045-6.745,10.152-13.541,10.802c-7.586,0.727-12.776-2.81-16.464-9.294
	c-17.017-29.924-34.125-59.795-51.206-89.682c-0.768-1.344-1.591-2.658-2.615-4.362c-1.359,1.032-2.574,1.882-3.709,2.828
	c-23.105,19.244-46.226,38.468-69.236,57.826c-1.461,1.229-2.881,3.508-2.893,5.308c-0.18,27.88-0.125,55.761-0.114,83.642
	c0,0.46,0.142,0.92,0.312,1.961c1.538,0.103,3.179,0.308,4.82,0.308c88.342,0.01,176.685,0.003,265.027-0.002
	c11.65-0.001,18.672,6.239,18.488,16.422c-0.132,7.34-5.235,13.582-12.461,15.002c-2.13,0.419-4.353,0.508-6.534,0.509
	c-93.982,0.024-187.964,0.025-281.946,0.016c-13.887-0.001-19.648-5.811-19.648-19.729c-0.001-94.138-0.003-188.277,0.002-282.415
	c0.001-9.515,4.027-15.815,11.388-17.908c10.363-2.946,20.374,4.327,20.458,15.163c0.147,18.952,0.057,37.906,0.057,56.858
	c0,26.785-0.011,53.569-0.005,80.354C75.161,191.686,75.273,193.031,75.368,195.168z"/>
</svg>
