<svg id="Layer_1" data-name="Layer 1" xmlns="http://www.w3.org/2000/svg" viewBox="0 0 400 400"><defs><style>.cls-1{fill:#333;}</style></defs><title>icon</title><g id="Layer_20182" data-name="Layer%20182"><path class="cls-1" d="M315,308.23L317.78,285l-30.31-27.88Z"/><path class="cls-1" d="M106,272.84l-0.61-.62H71.09a19.51,19.51,0,0,1-19.49-19.49V111.46A19.52,19.52,0,0,1,71.09,92h34.36A105.22,105.22,0,0,1,114,84.14c2.72-2.17,4.68-3.7,6.4-5H67.2a30.13,30.13,0,0,0-30.13,30.13V254.91A30.13,30.13,0,0,0,67.2,285.05h53.21c-2.52-1.89-5.62-4.3-7.89-6.22C110.49,277.12,107.82,274.72,106,272.84Z"/><path class="cls-1" d="M283.93,238.82l-0.52-.09Z"/><path class="cls-1" d="M286.72,239.67l-0.69-.25Z"/><path class="cls-1" d="M276.6,134.25l-0.88.18,0,0Z"/><path class="cls-1" d="M289.88,241.06l-1-.5Z"/><path class="cls-1" d="M265.92,271.72l1.13-.89a73.17,73.17,0,0,0,6-5.22l1.61-1.58L274,262.75q-0.65-1.26-1.27-2.49l-0.24-.49-0.35-.71c-0.31-.63-0.6-1.26-0.87-1.89a17.19,17.19,0,0,1-1.72-8c-1.87,2-4.26,4.4-6.11,6.25l-0.2.18a61.66,61.66,0,0,1-4.68,4.07l-1.47,1.14c-1.13.89-2.41,1.91-3.22,2.45L252,264.5c-2.72,1.81-6.12,4.06-8.47,5.29-4.32,2.21-7.7,3.82-10.11,4.8a102,102,0,0,1-9.88,3.5c-2.92.81-5.94,1.65-8.69,2.16a95.77,95.77,0,0,1-12.14,1.63c-1,.1-2.31.17-3.2,0.19-1.37,0-3,0-4.61,0h-2.78l-2.32-.16c-1.78-.1-3.7-0.22-5.2-0.36-2.41-.25-2.93-0.34-7-1l-0.83-.14c-0.75-.12-1.64-0.33-2.48-0.51l-1.59-.35c-2.33-.5-4-1-7.43-2.06l-1.38-.42c-1.09-.35-2.91-1-4.9-1.79-1-.39-2.16-0.91-3.29-1.39l-0.43-.18-2.79-1.31c-1.56-.76-5.08-2.6-5.9-3.06l-0.23-.14c-2.46-1.43-6.59-3.84-9-5.64-2.08-1.55-5-3.83-7.11-5.59-1.56-1.3-3.61-3.16-4.91-4.46a92.88,92.88,0,0,1-8-8.93c-0.05-.08-0.16-0.21-0.21-0.27-1.38-1.75-3.25-4.16-4.32-5.79a103.6,103.6,0,0,1-5.6-9.17c-0.41-.88-0.89-1.86-1.39-2.88-0.76-1.52-1.54-3.1-2-4.33-1.31-3.07-2.83-7.3-3.79-10.14a118.31,118.31,0,0,1-3.49-15.38c0-.1,0-0.19,0-0.29a102.67,102.67,0,0,1-1-14.69,163.31,163.31,0,0,1,1.44-16.43,70,70,0,0,1,2-9.27c0.24-.76.49-1.58,0.75-2.44,0.54-1.77,1.15-3.78,1.68-5.18,1.3-3.47,2.87-7.24,4-9.57,1-2.13,2.46-4.81,3.45-6.49,1.46-2.46,3.8-6,5.93-9.1l0.14-.21a78,78,0,0,1,6.69-8.2c0.73-.79,1.47-1.56,2.19-2.3a1.69,1.69,0,0,0,1.5.55c2.4,0,3.39-3.26,2.89-4.86l0.34-.31a4.15,4.15,0,0,0,1.46,1.89c-2.28,7.44-.6,10.81,1.33,14.67a31.43,31.43,0,0,1,2.72,6.88c0.29,1.15,4.16,9.49,8.15,9.49a2.93,2.93,0,0,0,1.59-.46c4.06,5.9,12.59,9,19.59,9l1,0a2.61,2.61,0,0,1,2.32,1c1.51,2,2.26,7.85-2.69,23.9l-0.33,1.08c-2.07,7,3.69,12.9,9.26,18.58,4,4.07,8.12,8.28,8.15,12.08a156.89,156.89,0,0,1-1.31,17.66c-1.34,12.16-2.72,24.73.68,34.94,2.32,7,9.81,10.82,14.1,10.82,2.77,0,3.66-1.55,3.92-2.21,0.8-2.08-.57-4.77-4.18-8.19,0.43-1.44,1.78-4.77,2.89-7.51,2.81-6.92,4.73-11.8,5.19-14.73,8.47-1.53,12.1-11.48,15-19.58a56.74,56.74,0,0,1,3.14-7.57c1.43-2.54,3.4-3.87,5.48-5.28,3.68-2.48,7.49-5.05,6.77-13.64a32.24,32.24,0,0,1,1.48-3.58c2.92-6.49,5.16-12.13,3-15.49a5.17,5.17,0,0,0-4.69-2.2c-5.46,0-14.06-4.38-16.72-5.81-1.1-.78-1.54-1.65-2.39-3.33l-0.5-1c-2.36-4.52-6.59-5.44-10.32-6.26-2.84-.62-5.52-1.2-7.3-3.26-2.22-2.54-6-3.83-11.26-3.83a57,57,0,0,0-10.09,1.1,14.45,14.45,0,0,1,0-3.61c0.12-1.63.24-3.17-.85-4.35-0.84-.9-2.08-1.27-4-1.14,1-3.44.82-4.9,0.13-5.89a2.63,2.63,0,0,0-2.24-1.13c-1.66,0-3.52,1.26-6.17,3.18-0.74.54-1.79,1.3-2.4,1.63-1.8-1.17-1.73-2.24-1.71-2.61,0.23-3.66,7.62-8.77,10-10.05a17.8,17.8,0,0,1,1.8,2.61c1.44,2.36,2.92,4.81,5.3,4.81a3.5,3.5,0,0,0,2.23-.84c2.13-1.73,2.53-4.45,2.91-7.08s0.77-5.21,2.67-7.24a12.12,12.12,0,0,0,1.28-2.07c3.45-6.08,5.11-8,5.82-8.45a4.48,4.48,0,0,0,2.91.87c2.72,0,7.18-1.59,9.17-3.77a13.73,13.73,0,0,0,1.95.15c3.52,0,4.74-1.79,5.16-2.86C209,96,206.25,91.59,203,88.63c-1.8-1.65-2.81-2.67-3.37-3.3a2.85,2.85,0,0,0,.82-0.83,10.4,10.4,0,0,0,1.94,2.07c2.74,2.13,5,3.13,7.1,3.13a9.59,9.59,0,0,0,4.4-1.3A8.92,8.92,0,0,1,219,87.19a32.28,32.28,0,0,1,3.34,1.17c3.43,1.31,7.71,2.94,10.6,2.94a4.45,4.45,0,0,0,2.72-.77c1.68,0.75,3.59,1.67,6.13,3,0,0,0,.05-0.05.09-1,2.66,2.94,9.11,5.9,13a3.55,3.55,0,0,0-1.6,2c-1.07,3.26,1.95,9.19,4.07,12a128.89,128.89,0,0,0-7.9,14.43c-1.44,6.24-.17,11.39,1.06,16.36a67.83,67.83,0,0,1,1.46,7c1.31,9.42,6.66,10.18,11.39,10.85a19,19,0,0,1,6.54,1.75,4,4,0,0,1,1.91,2.61c2.36,8.21-7,29-16.57,45.73-3.35,5.86-4.27,9.23-3.09,11.27a3.55,3.55,0,0,0,3.32,1.69c2.81,0,7-2,11.37-4.07l2.55-1.2a3,3,0,0,0,.4,1.79,2.75,2.75,0,0,0,2.5,1.3c3.44,0,10.22-5,11.18-6,2.07-2.1,6-10.76,4.79-13.54a2.48,2.48,0,0,0-.21-0.39C288.18,200,295.2,188,294.06,180.58a6.1,6.1,0,0,0,1.25-.82c0,1,.06,2,0.06,2.9V183c0,1.37-.1,3.49-0.22,5.38-0.07,1-.12,1.93-0.17,2.91A68.31,68.31,0,0,1,293.4,202c0,0.07,0,.14,0,0.21A100.93,100.93,0,0,1,289.13,217c0,0.08-.07.16-0.11,0.25-1,2.61-2.63,6.42-4.18,9.63-0.68,1.46-1.93,3.73-3.51,6.42-1.06,1.81-2.49,4-3.84,5.92a10.91,10.91,0,0,1,3.78-.67c0.32,0,.64,0,1,0.06l0.34,0c0.28,0,.55.08,0.83,0.13l0.52,0.09L284.7,239l0.6,0.16,0.73,0.24,0.69,0.25,0.69,0.27,0.82,0.35,0.62,0.28,1,0.5,0.46,0.23,1.94,1c0.4-.63.79-1.26,1.15-1.86,1.9-3.27,3.24-5.75,4.13-7.63,1.52-3.13,3.36-7.38,4.57-10.56a114.56,114.56,0,0,0,4.92-17.1A83.29,83.29,0,0,0,309,191.62c0-.72.09-1.59,0.15-2.48,0.14-2.12.3-4.52,0.25-6.57,0-3.31-.26-7.47-0.47-10.83l-0.05-.86a83.65,83.65,0,0,0-1.25-9.2v-0.14c-0.66-3.18-1.66-7.2-2.46-10.44l-0.2-.8a89.15,89.15,0,0,0-3.79-11l-0.31-.78a128.17,128.17,0,0,0-7.73-15.38l0,0,0,0c-1.81-3.06-4.41-6.65-6.51-9.53l-0.75-1a101.08,101.08,0,0,0-10.17-11.45c-1.82-1.77-3.94-3.79-5.7-5.28-2.5-2.18-5.73-4.71-8.25-6.48-1.59-1.14-4-2.79-6-4s-5-3-7.34-4.23a115,115,0,0,0-17.06-7.23A111.35,111.35,0,0,0,216.32,70a114.12,114.12,0,0,0-17.06-1.86c-1.19-.06-2.91-0.08-4.11-0.08s-2.92,0-4.22.09c-2.48.11-5.75,0.36-8.37,0.64a112.33,112.33,0,0,0-14.22,2.51c-0.81.2-3.51,0.89-5.65,1.55-0.9.27-2,.63-3,1l-2.1.69-0.05,0-0.05,0c-1.22.42-2.66,1-3.93,1.49l-1.47.58,0,0,0,0c-1.94.79-4.36,1.92-6.46,2.92-1.12.53-4,1.92-6.17,3.23a106.29,106.29,0,0,0-16.73,11.5,118.22,118.22,0,0,0-11.4,10.86,94.32,94.32,0,0,0-8.19,10.1c-1.82,2.64-4.43,6.56-6.33,9.71-1.33,2.26-3,5.34-4.09,7.71-1.79,3.72-3.71,8.69-4.45,10.65s-1.45,4.29-2.09,6.4c-0.21.69-.41,1.36-0.6,2a84.77,84.77,0,0,0-2.56,11.79,162,162,0,0,0-1.54,18.1A114.37,114.37,0,0,0,82.61,199h0a131.49,131.49,0,0,0,4,17.44c1,3.05,2.65,7.55,4.17,11.13,0.66,1.61,1.54,3.38,2.38,5.1,0.45,0.91.88,1.78,1.24,2.57l0,0.05,0,0.05a109.13,109.13,0,0,0,6.28,10.47l0.23,0.36c1.42,2.15,3.33,4.61,5,6.76a107.13,107.13,0,0,0,9.27,10.38c1.58,1.6,3.92,3.73,6,5.45,2.64,2.23,6.21,4.93,7.62,6a112.62,112.62,0,0,0,10.31,6.5c1.46,0.89,5.89,3.15,7.21,3.78,0.66,0.32,2.71,1.3,3.7,1.7,1.62,0.73,2.79,1.22,3.79,1.61,1.7,0.65,4,1.52,5.76,2.09l0.06,0,0.06,0,1.79,0.54c3.23,1,5.36,1.63,8.25,2.25h0.07l1.59,0.34c1,0.22,2.08.45,3,.62,4.79,0.81,5.64,1,8.65,1.27h0.07c1.62,0.15,3.45.27,5.23,0.39l2.86,0.19,0.2,0h3.42c1.64,0,3.32,0,4.74,0s3-.12,4.48-0.28a109.63,109.63,0,0,0,13.14-1.75c3.55-.67,7-1.62,10-2.46a111.68,111.68,0,0,0,11.54-4.06c3.56-1.46,8-3.68,11-5.23s6.64-4,9.72-6l1.9-1.25C262.95,274.08,264.53,272.82,265.92,271.72ZM276.6,134.25l-0.86.19,0,0Z"/><path class="cls-1" d="M285.3,239.18l-0.6-.16Z"/><path class="cls-1" d="M288.22,240.29l-0.82-.35Z"/><path class="cls-1" d="M277.5,239.2h0a11,11,0,0,1,3.79-.68c0.33,0,.65,0,1,0-0.32,0-.64-0.06-1-0.06A10.91,10.91,0,0,0,277.5,239.2Z"/><path class="cls-1" d="M286,239.42l-0.73-.24Z"/><path class="cls-1" d="M287.41,239.94l-0.69-.27Z"/><path class="cls-1" d="M269.58,249.18h0a17.18,17.18,0,0,0,1.72,8c0.27,0.63.56,1.26,0.87,1.89C270.54,255.67,269.33,252.38,269.58,249.18Z"/><path class="cls-1" d="M285.07,91.71L285.34,92H323.2a19.52,19.52,0,0,1,19.49,19.49V252.74a19.39,19.39,0,0,1-4.83,12.8c4.56,2.42,9.1,4.84,13.51,7.22a30,30,0,0,0,5.85-17.84V109.28a30.13,30.13,0,0,0-30.13-30.13H270.3c2.74,2,6,4.55,8.34,6.62C280.65,87.45,283.19,89.89,285.07,91.71Z"/><path class="cls-1" d="M293.54,251.76c-6.76-3.25-10.11-5.58-12.53-5.58a3.54,3.54,0,0,0-2.62,1.21c-2.92,2.92-.16,5.7,4.39,15.16,12.15,25.3,36.86,69.39,36.86,69.39L325,294l37.88-5.41S318.83,263.93,293.54,251.76ZM315,308.23l-27.52-51.1L317.78,285Z"/></g></svg>