<?xml version="1.0" encoding="utf-8"?>
<!-- Generator: Adobe Illustrator 19.1.0, SVG Export Plug-In . SVG Version: 6.00 Build 0)  -->
<svg version="1.1" id="Layer_1" xmlns="http://www.w3.org/2000/svg" xmlns:xlink="http://www.w3.org/1999/xlink" x="0px" y="0px"
	 width="400px" height="400px" viewBox="0 0 400 400" enable-background="new 0 0 400 400" xml:space="preserve">
<g id="Layer_x25_20149">
	<path fill="#333333" d="M259.833,140.223c0-33.045-26.79-59.834-59.834-59.834c-33.045,0-59.833,26.788-59.833,59.834
		c0,33.046,26.788,59.834,59.833,59.834C233.043,200.057,259.833,173.27,259.833,140.223z M160.119,140.223
		c0-22.025,17.855-39.88,39.88-39.88s39.881,17.855,39.881,39.88c0,22.026-17.856,39.881-39.881,39.881
		S160.119,162.25,160.119,140.223z"/>
	<path fill="#333333" d="M352.691,152.193c-26.404-84.33-116.17-131.286-200.498-104.882
		C67.863,73.713,20.905,163.478,47.309,247.808c0.992,3.169,2.09,6.275,3.26,9.337l0.001,0.001l0.001,0.001c0,0.001,0,0.003,0,0.005
		c0.064,0.2,0.144,0.392,0.217,0.586c0.055,0.142,0.109,0.284,0.164,0.426c2.014,4.624,7.228,7.084,12.15,5.543
		c5.273-1.649,8.205-7.261,6.556-12.532c-0.104-0.336-0.227-0.662-0.363-0.979c-1.05-2.738-2.021-5.524-2.909-8.361
		C43.28,168.042,84.371,89.491,158.164,66.386s152.344,17.985,175.45,91.78c15.985,51.054,1.237,104.379-33.804,140.05
		c-0.953-54.313-45.274-98.049-99.812-98.049c-54.595,0-98.947,43.827-99.812,98.218c0.261,0.191,0.522,0.383,0.765,0.6
		c-2.539-2.264-6.164-3.185-9.646-2.094c-5.27,1.65-8.204,7.26-6.555,12.53c0.555,1.772,1.565,3.272,2.853,4.433
		c-0.001-0.002-0.002-0.003-0.004-0.004c-0.007,0.006-0.012,0.013-0.018,0.02c40.763,40.181,101.793,57.119,160.226,38.822
		C332.137,326.288,379.094,236.523,352.691,152.193z M279.135,315.507c-11.193,7.665-23.68,13.844-37.301,18.108
		c-42.605,13.341-86.785,5.263-120.975-18.137c-0.975-5.011-1.5-10.182-1.5-15.478c0-44.537,36.105-80.641,80.639-80.641
		c44.535,0,80.643,36.104,80.643,80.641C280.641,305.306,280.113,310.487,279.135,315.507z"/>
</g>
</svg>
