<svg id="Layer_1" data-name="Layer 1" xmlns="http://www.w3.org/2000/svg" viewBox="0 0 400 400"><defs><style>.cls-1{fill:#333;}</style></defs><title>icon</title><circle class="cls-1" cx="345.18" cy="70.91" r="9.67"/><circle class="cls-1" cx="91.59" cy="218.66" r="10.08"/><polygon class="cls-1" points="145.42 284.58 83.78 225.28 97.65 210.87 145.16 256.58 338.11 63.84 352.25 77.99 145.42 284.58"/><path class="cls-1" d="M305.45,151V318.75H65.15V117.4H265.24v-20H55.45a10.57,10.57,0,0,0-10.3,10.33v221h0a10,10,0,0,0,10,10h259c0.28,0,.55,0,0.83,0l0.47,0a10,10,0,0,0,10-10V151h-20Z"/></svg>