<?xml version="1.0" encoding="utf-8"?>
<!-- Generator: Adobe Illustrator 19.1.0, SVG Export Plug-In . SVG Version: 6.00 Build 0)  -->
<svg version="1.1" id="Layer_1" xmlns="http://www.w3.org/2000/svg" xmlns:xlink="http://www.w3.org/1999/xlink" x="0px" y="0px"
	 viewBox="0 0 400 400" enable-background="new 0 0 400 400" xml:space="preserve">
<g>
	<path d="M275.201,123.34c2.294,0.575,3.919,0.895,5.486,1.394c3.448,1.098,4.725,2.86,4.721,6.506
		c-0.009,8.357-0.003,16.715-0.14,25.071c-0.029,1.755,0.559,2.419,2.172,2.967c23.984,8.141,42.743,22.981,55.345,44.932
		c16.502,28.747,18.868,59.055,6.044,89.579c-14.347,34.15-40.464,55.328-77.092,60.929c-41.596,6.361-75.103-8.759-99.794-42.942
		c-1.266-1.753-2.456-2.333-4.553-2.312c-18.192,0.188-36.252-1.157-53.994-5.41c-4.298-1.031-8.592-2.269-12.683-3.92
		c-4.058-1.638-7.858-3.916-11.893-5.975c0,0.428,0.007,1.072-0.001,1.716c-0.086,6.474-0.132,12.949-0.278,19.422
		c-0.084,3.719,1.274,6.73,4.023,9.173c4.389,3.901,9.729,5.92,15.214,7.602c11.569,3.548,23.484,5.36,35.494,6.224
		c17.333,1.247,34.701,2.014,52.157,2.736c-0.99,0.203-1.974,0.443-2.97,0.605c-20.778,3.359-41.643,3.764-62.574,1.815
		c-10.212-0.951-20.308-2.523-30.01-5.998c-5.344-1.914-10.454-4.268-14.28-8.709c-2.044-2.372-3.176-5.064-3.153-8.23
		c0.068-9.627,0.084-19.254,0.22-28.879c0.013-0.925,0.541-1.992,1.154-2.721c0.757-0.901,1.852-1.517,3.325-2.665
		c-5.338-2.25-4.342-6.267-4.316-9.965c0.065-9.26,0.113-18.521,0.179-27.781c0.024-3.329-0.751-6.905,3.424-9.202
		c-4.055-2.417-3.291-5.958-3.26-9.304c0.063-6.695,1.015-13.536-0.031-20.055c-1.964-12.233-0.422-24.44-1.116-36.63
		c-0.043-0.754-0.716-1.666-1.361-2.151c-1.254-0.942-2.733-1.576-4.054-2.437c-4.282-2.791-6.425-6.496-6.291-11.885
		c0.31-12.49,0.231-24.99,0.182-37.486c-0.023-5.832,2.226-10.471,6.561-14.241c5.139-4.469,11.134-7.397,17.481-9.635
		c1.611-0.568,2.21-1.272,2.184-3.004c-0.094-6.247,0.174-12.505-0.063-18.744c-0.252-6.629,2.559-11.589,7.478-15.641
		c4.885-4.024,10.505-6.703,16.388-8.874c11.498-4.244,23.464-6.49,35.557-8.107c20.805-2.783,41.705-3.425,62.646-2.22
		c19.72,1.134,39.279,3.393,58.116,9.81c6.152,2.095,12.017,4.802,17.17,8.84c5.325,4.172,8.328,9.333,8.185,16.449
		c-0.232,11.512,0.048,23.036,0.199,34.554c0.021,1.621-0.338,2.71-1.865,3.409c-7.576,3.464-15.132,6.973-22.701,10.451
		C277.179,122.697,276.48,122.886,275.201,123.34z M255.686,168.904c-46.901-0.236-86.451,38.283-86.398,86.438
		c0.052,47.189,38.74,86.068,85.87,86.141c47.785,0.075,86.645-38.432,86.705-85.916
		C341.924,207.658,303.414,168.931,255.686,168.904z M101.305,159.02c-0.255,0.012-0.509,0.024-0.764,0.037
		c0-4.112,0.038-8.224-0.01-12.335c-0.063-5.38-0.092-5.38-5.388-6.668c-0.07-0.017-0.15,0.006-0.445,0.024
		c-0.61,5.683-1.224,11.407-1.838,17.131c-0.257-0.008-0.514-0.017-0.771-0.025c0-5.184,0.033-10.368-0.012-15.551
		c-0.028-3.238-0.08-3.238-3.607-3.903c-0.609,5.728-1.217,11.448-1.824,17.168c-0.283-0.012-0.566-0.024-0.848-0.036
		c0-5.703,0.03-11.407-0.037-17.109c-0.008-0.719-0.522-1.432-0.801-2.148c-0.203,0.069-0.407,0.139-0.61,0.208
		c-0.634,5.914-1.268,11.829-1.901,17.743c-0.27-0.009-0.54-0.018-0.809-0.027c0-5.943-0.036-11.887,0.024-17.829
		c0.016-1.599-0.494-2.528-2.571-2.745c0,6.223,0.318,12.34-0.097,18.407c-0.352,5.141,1.71,8.529,5.874,11.002
		c1.485,0.882,2.965,1.881,4.584,2.406c6.424,2.085,12.798,4.488,19.378,5.898c26.396,5.655,53.2,7.212,80.123,7.18
		c1-0.001,2.16-0.553,2.975-1.194c23.225-18.254,49.451-25.392,78.714-21.373c1.681,0.231,3.358,0.486,4.892,0.709
		c0-7.061,0-13.918,0-20.579c-5.288,1.213-10.316,2.366-15.344,3.519c-0.057-0.18-0.115-0.361-0.172-0.541
		c0.448-0.226,0.895-0.454,1.345-0.677c2.827-1.4,5.74-2.656,8.444-4.264c1.177-0.7,1.923-2.124,2.865-3.22
		c-1.149-0.855-2.199-1.93-3.474-2.507c-1.486-0.672-3.159-0.947-4.768-1.324c-2.034-0.477-4.085-0.884-6.69-1.441
		c1.953-0.675,3.297-1.141,4.642-1.603c9.567-3.284,18.816-7.203,27.096-13.161c1.613-1.161,2.375-2.347,2.31-4.425
		c-0.166-5.341-0.05-10.691-0.061-16.037c-0.001-0.69-0.083-1.379-0.125-2.032c-3.53,1.73-6.762,3.509-10.147,4.919
		c-3.463,1.441-7.029,2.686-10.634,3.728c-14.008,4.05-28.375,6.059-42.872,7.262c-19.101,1.584-38.207,1.64-57.3-0.047
		c-7.477-0.661-14.927-1.627-22.631-2.481c-0.628,5.876-1.264,11.829-1.9,17.783c-0.197-0.003-0.394-0.007-0.591-0.01
		c0-6.129,0-12.258,0-18.408c-3.61-0.735-6.802-1.385-10.17-2.071c-0.651,6.087-1.272,11.894-1.893,17.701
		c-0.203-0.008-0.407-0.017-0.61-0.025c0-6.086,0-12.172,0-18.302c-2.818-0.785-5.296-1.475-7.961-2.217
		c-0.636,6.043-1.24,11.785-1.845,17.527c-0.262-0.002-0.523-0.005-0.785-0.007c0-5.082,0.029-10.164-0.01-15.245
		c-0.029-3.79-0.154-3.883-4.238-4.47c-0.603,5.807-1.205,11.61-1.808,17.413c-0.333-0.724-0.441-1.451-0.462-2.181
		c-0.138-4.817-0.357-9.635-0.336-14.451c0.009-2.166-0.846-3.158-2.986-3.395c-0.611,5.799-1.215,11.523-1.818,17.246
		c-0.275-0.011-0.55-0.022-0.825-0.033c0-5.313-0.218-10.637,0.081-15.933c0.181-3.207-1.622-4.285-4.138-5.412
		c-0.044,0.969-0.102,1.768-0.114,2.567c-0.08,5.119,0.207,10.276-0.319,15.349c-0.593,5.722,1.71,9.612,6.556,11.904
		c4.866,2.301,9.88,4.483,15.051,5.913c20.278,5.609,41.126,7.454,62.037,8.599c8.92,0.488,17.864,0.541,27.222,0.803
		c-1.153,0.262-1.927,0.523-2.718,0.604c-9.876,1.002-19.735,2.402-29.637,2.871c-20.141,0.953-40.178-0.295-59.91-4.746
		c-7.57-1.707-15.013-3.89-21.504-8.416c-3.667-2.557-6.082-5.812-5.74-10.565c0.023-0.322-0.135-0.658-0.322-1.487
		c-3.207,1.735-6.275,3.159-9.081,4.985c-2.445,1.591-2.768,4.15-1.376,6.753c1.844,3.449,5.013,5.342,8.337,6.984
		c7.82,3.863,16.223,5.928,24.696,7.696c15.787,3.293,31.772,5.159,47.833,6.447c21.556,1.729,43.13,2.707,64.756,1.662
		c0.826-0.04,1.65-0.129,2.475-0.19c0.726-0.054,1.452-0.1,2.178-0.149c0,0.184,0.001,0.368,0.001,0.552
		c-44.417,6.237-88.773,7.665-133.147-2.082C102.433,148.126,101.869,153.573,101.305,159.02z M199.407,90.28
		c9.016-0.441,18.048-0.682,27.045-1.368c15.63-1.191,31.097-3.492,46.012-8.528c4.104-1.385,8.151-3.129,11.928-5.241
		c4.025-2.25,3.906-4.765-0.052-7.233c-2.091-1.304-4.351-2.406-6.653-3.292c-16.154-6.221-33.07-8.914-50.199-10.319
		c-25.739-2.111-51.424-1.611-76.96,2.602c-10.702,1.766-21.233,4.237-31.252,8.509c-2.056,0.876-4.06,1.997-5.863,3.313
		c-2.639,1.926-2.589,3.786,0.048,5.793c1.364,1.038,2.855,2.056,4.453,2.613c6.447,2.247,12.856,4.72,19.464,6.366
		C157.723,88.563,178.498,89.946,199.407,90.28z M167.803,305.214c-6.53-11.623-10.429-23.397-12.282-36.017
		c-1.434-0.109-2.773-0.17-4.102-0.32c-9.487-1.069-19.041-1.747-28.44-3.34c-11.809-2.001-23.468-4.813-33.178-12.558
		c-0.068-0.054-0.266,0.053-0.824,0.182c0,8.41,0.082,16.915-0.058,25.416c-0.035,2.102,0.615,3.544,2.108,4.889
		c5.303,4.776,11.607,7.749,18.196,10.195c13.26,4.922,27.072,7.504,41.019,9.448C155.89,303.898,161.57,304.474,167.803,305.214z
		 M90.699,177.453c0,6.737,0.267,12.982-0.086,19.192c-0.274,4.818,1.584,8.331,5.449,10.61c4.378,2.582,8.919,5.038,13.662,6.825
		c15.358,5.788,31.458,8.503,47.625,10.861c1.434,0.209,1.973-0.293,2.38-1.58c2.551-8.062,6.306-15.566,10.786-22.715
		c1.283-2.047,2.687-4.017,4.008-5.98c-9.13-0.604-18.013-0.939-26.841-1.828C128.162,190.871,108.87,187.871,90.699,177.453z
		 M157.297,230.346c-23.139-2.035-46.093-5.054-67.798-15.609c0,8.102-0.06,15.849,0.063,23.593c0.019,1.201,0.59,2.647,1.394,3.538
		c3.798,4.208,8.661,6.944,13.752,9.257c11.728,5.329,24.17,8.189,36.78,10.411c4.341,0.765,8.709,1.374,13.398,2.106
		c0-5.844-0.309-11.337,0.087-16.779C155.37,241.412,156.47,236.012,157.297,230.346z"/>
	<path d="M236.369,216.047c-3.524-8.421-6.993-16.714-10.529-25.164c3.141-1.209,6.272-2.415,9.559-3.68
		c1.489,4.327,2.898,8.503,4.365,12.659c1.301,3.684,2.704,7.333,3.988,11.023c0.466,1.341,1.009,1.602,2.478,1.178
		c5.615-1.619,11.293-3.022,16.956-4.473c0.704-0.18,1.458-0.162,2.368-0.254c0.685,4.369,1.345,8.577,1.97,12.558
		c-4.842,0.794-9.558,1.283-14.12,2.403c-3.915,0.961-7.73,2.468-11.44,4.076c-2.17,0.94-4.197,2.374-6.023,3.904
		c-2.552,2.139-3.967,4.898-3.119,8.397c0.919,3.791,3.02,6.63,6.908,7.583c2.683,0.658,5.473,0.992,8.235,1.189
		c7.871,0.563,15.841,0.402,23.612,1.584c14.619,2.223,23.044,14.218,20.581,28.301c-0.998,5.704-4.226,10.068-8.626,13.608
		c-2.1,1.689-4.395,3.136-6.858,4.872c1.566,3.905,3.139,7.944,4.804,11.944c1.669,4.012,3.43,7.985,5.241,12.187
		c-3.222,1.252-6.347,2.466-9.647,3.748c-2.932-8.134-5.818-16.142-8.752-24.284c-8.75,3.201-17.341,5.81-26.549,6.998
		c-0.708-4.422-1.391-8.682-2.049-12.785c4.991-0.736,10.005-0.993,14.731-2.294c5.759-1.586,11.323-3.934,16.87-6.199
		c1.829-0.747,3.48-2.113,4.979-3.456c5.441-4.878,4.538-12.609-2.213-15.456c-3.769-1.589-8.12-2.023-12.263-2.449
		c-7.696-0.791-15.554-0.524-23.127-1.899c-15.754-2.861-23.467-19.053-16.283-33.096c2.558-5,6.681-8.443,11.413-11.253
		C234.537,217.093,235.254,216.689,236.369,216.047z"/>
</g>
</svg>
