<svg id="Layer_1" data-name="Layer 1" xmlns="http://www.w3.org/2000/svg" viewBox="0 0 400 400"><defs><style>.cls-1{fill:#333;fill-rule:evenodd;}</style></defs><title>icon</title><path class="cls-1" d="M289.13,69.48l0-.13c0-.12,0-0.24-0.08-0.37-0.87-4.35-4.07-7.57-8.75-7.57h-162a10,10,0,1,0,0,20H269.85V309.57l-64.93-49.15a10,10,0,0,0-6.8-1.39,10,10,0,0,0-6.79,1.39l-64.81,49.07V109.21a9.71,9.71,0,0,0-9.71-9.71c-5.37,0-9.71,6.35-9.71,11.71V327.75a10,10,0,0,0,.42,4.63l0,0.15,0.09,0.25a9.67,9.67,0,0,0,12.48,5.91,10,10,0,0,0,2.14-1l75.86-57.43L274,337.69a9.94,9.94,0,0,0,5.38,1.5h0.2a9.71,9.71,0,0,0,9.71-9.71V71.13A9.72,9.72,0,0,0,289.13,69.48Z"/></svg>