<?xml version="1.0" encoding="utf-8"?>
<!-- Generator: Adobe Illustrator 19.1.0, SVG Export Plug-In . SVG Version: 6.00 Build 0)  -->
<svg version="1.1" id="Layer_1" xmlns="http://www.w3.org/2000/svg" xmlns:xlink="http://www.w3.org/1999/xlink" x="0px" y="0px"
	 width="400px" height="400px" viewBox="0 0 400 400" enable-background="new 0 0 400 400" xml:space="preserve">
<g id="Layer_x25_201100">
	<path fill="#333333" d="M210.95,130H211v-1C211,129.337,210.983,129.671,210.95,130z M191.05,130c0.502,5.053,4.765,9,9.95,9
		s9.448-3.947,9.95-9c0.033-0.329,0.05-0.663,0.05-1V48c0-5.523-4.477-10-10-10s-10,4.477-10,10v81
		C191,129.337,191.017,129.671,191.05,130z M191,130h0.05c-0.033-0.329-0.05-0.663-0.05-1V130z"/>
	<path fill="#333333" d="M211,268c0-5.523-4.477-10-10-10s-10,4.477-10,10v81c0,5.523,4.477,10,10,10s10-4.477,10-10V268z"/>
	<path fill="#333333" d="M300,188c0-5.523-4.477-10-10-10s-10,4.477-10,10v161c0,5.523,4.477,10,10,10s10-4.477,10-10V188z"/>
	<path fill="#333333" d="M171,199c0-16.569,13.431-30,30-30s30,13.431,30,30s-13.431,30-30,30S171,215.569,171,199z M151,199
		c0,27.615,22.385,50,50,50s50-22.385,50-50s-22.385-50-50-50S151,171.385,151,199z"/>
	<path fill="#333333" d="M119.95,350H120v-1C120,349.337,119.983,349.671,119.95,350z M100.05,350c0.502,5.053,4.765,9,9.95,9
		s9.448-3.947,9.95-9c0.033-0.329,0.05-0.663,0.05-1v1c0-5.523-4.477-10-10-10s-10,4.477-10,10v-1
		C100,349.337,100.017,349.671,100.05,350z M100,350h0.05c-0.033-0.329-0.05-0.663-0.05-1V350z"/>
	<path fill="#333333" d="M299.95,50H300v-1C300,49.337,299.983,49.671,299.95,50z M280.05,50c0.502,5.053,4.765,9,9.95,9
		s9.448-3.947,9.95-9c0.033-0.329,0.05-0.662,0.05-1v1c0-5.523-4.477-10-10-10s-10,4.477-10,10v-1
		C280,49.337,280.017,49.671,280.05,50z M280,50h0.05c-0.033-0.329-0.05-0.662-0.05-1V50z"/>
	<path fill="#333333" d="M120,48c0-5.523-4.477-10-10-10s-10,4.477-10,10v161c0,5.523,4.477,10,10,10s10-4.477,10-10V48z"/>
	<path fill="#333333" d="M80,281c0-16.569,13.431-30,30-30s30,13.431,30,30s-13.431,30-30,30S80,297.569,80,281z M60,281
		c0,27.615,22.385,50,50,50s50-22.385,50-50s-22.385-50-50-50S60,253.385,60,281z"/>
	<path fill="#333333" d="M261,119c0-16.569,13.431-30,30-30s30,13.431,30,30s-13.431,30-30,30S261,135.569,261,119z M241,119
		c0,27.615,22.385,50,50,50s50-22.385,50-50s-22.385-50-50-50S241,91.385,241,119z"/>
</g>
</svg>
