<?xml version="1.0" encoding="utf-8"?>
<!-- Generator: Adobe Illustrator 19.1.0, SVG Export Plug-In . SVG Version: 6.00 Build 0)  -->
<svg version="1.1" id="Layer_1" xmlns="http://www.w3.org/2000/svg" xmlns:xlink="http://www.w3.org/1999/xlink" x="0px" y="0px"
	 viewBox="0 0 400 400" enable-background="new 0 0 400 400" xml:space="preserve">
<path fill="#231F20" d="M336.317,353.713c-0.701-10.037-4.775-14.838-14.781-15.913c-5.256-0.565-5.022-3.659-5.576-7.174
	c-2.435-15.442-3.973-31.118-7.745-46.234c-6.011-24.088-20.368-43.231-39.169-59.173c-5.018-4.255-10.102-8.48-14.721-13.149
	c-6.593-6.666-6.108-12.406,0.607-18.892c11.812-11.41,24.683-21.998,34.939-34.685c17.079-21.129,23.097-46.854,25.535-73.461
	c0.3-3.276,0.476-6.574,0.503-9.863c0.04-4.838,1.243-7.719,7.139-8.151c8.062-0.59,12.427-6.021,13.193-14.947
	c0.337-3.931,0.144-7.993,0.092-12.512H66.463c-0.021,3.641-0.154,7.348,0.043,11.043c0.562,10.562,4.556,15.484,14.879,16.635
	c5.301,0.591,4.958,3.76,5.517,7.234c2.564,15.94,4.167,32.134,8.112,47.731c6.019,23.805,20.313,42.746,38.907,58.535
	c4.442,3.772,8.95,7.496,13.097,11.578c7.112,7,7.199,13.324,0.021,20.319c-8.523,8.306-17.924,15.758-26.042,24.424
	c-21.953,23.436-30.848,52.352-33.565,83.628c-0.329,3.785,0.095,7.752-0.93,11.319c-0.626,2.18-3.093,4.949-5.18,5.404
	c-10.157,2.216-14.253,6.456-14.815,17.018c-0.125,2.342-0.115,4.753-0.085,7.269h270.008
	C336.476,359.042,336.503,356.375,336.317,353.713z M260.802,337.009c0.437-29.994-15.486-51.967-34.574-72.235
	c-14.056-14.924-23.013-31.175-18.592-52.72c3.155-15.374,10.132-28.454,20.318-40.137c5.147-5.903,10.205-11.922,14.793-18.259
	c1.933-2.671,2.55-6.295,4.203-10.638c-30.821,0-59.649,0-91.041,0c3.759,6.155,6.465,11.227,9.771,15.872
	c7.311,10.27,16.605,19.501,22.069,30.638c11.922,24.3,13.83,48.666-6.857,70.332c-3.846,4.028-7.281,8.446-11.009,12.59
	c-16.369,18.202-28.037,38.468-27.775,64.428c-10.398,0-20.352,0-31.186,0c0.769-31.417,6.397-60.91,29.157-84.482
	c7.557-7.827,16.013-14.777,23.878-22.316c17.006-16.303,17.005-38.791,0.062-54.939c-4.218-4.02-8.448-8.066-12.992-11.7
	c-26.414-21.121-37.266-49.646-39.488-82.332c-0.287-4.217-0.434-8.444-0.669-13.126c60.6,0,120.526,0,181.093,0
	c-0.789,34.899-7.858,66.712-35.145,90.803c-6.46,5.703-13.074,11.241-19.351,17.138c-16.225,15.243-16.352,37.633-0.351,53.112
	c4.733,4.579,9.55,9.12,14.699,13.211c25.785,20.486,36.742,48.201,39.397,80.02c0.395,4.735,0.507,9.494,0.776,14.741
	C281.432,337.009,271.441,337.009,260.802,337.009z"/>
</svg>
