<svg id="Layer_1" data-name="Layer 1" xmlns="http://www.w3.org/2000/svg" viewBox="0 0 400 400"><defs><style>.cls-1{fill:#323232;}</style></defs><title>icon</title><g id="Layer_20167" data-name="Layer%20167"><path class="cls-1" d="M217.84,302.39l84.84-84.84,14.14,14.14L232,316.53ZM109.08,250.14a10,10,0,0,0,7.07,2.95l115,7.69-33.78,33.78a10,10,0,0,0-.8,14.86l28.28,28.28,0,0a10,10,0,0,0,14.14,0l99-99a10,10,0,0,0,0-14.14l-0.41-.38-27.49-27.49-0.43-.44a9.92,9.92,0,0,0-2.09-1.59,10,10,0,0,0-12,1.62l-0.76.77L249.91,242l-125.72-8.4c-0.12-.18-0.25-0.35-0.39-0.52L88.51,102.95l58.28,58.28a10,10,0,0,0,14.14-14.14L102.67,88.82l130.77,35.46,4.3,51.88a10,10,0,0,0,20,0l-4.95-59.69a10.08,10.08,0,0,0-7.4-9.67L71.65,59.69A10,10,0,0,0,62,62.25a10.06,10.06,0,0,0-2.9,8.17A9.94,9.94,0,0,0,59.39,72l45.71,168.58a10.44,10.44,0,0,0,1,3.55l0.19,0.4A10,10,0,0,0,109.08,250.14ZM307.62,194.7a10,10,0,0,0-12.77,2.39l0.76-.77A10,10,0,0,1,307.62,194.7Zm2.52,2-0.38-.41a9.92,9.92,0,0,0-2.14-1.62,9.92,9.92,0,0,1,2.09,1.59ZM62,62.25a9.94,9.94,0,0,0-2.9,8.17A10.06,10.06,0,0,1,62,62.25Zm44.5,183.43a9.91,9.91,0,0,0,2.59,4.46,10,10,0,0,1-2.83-5.66l-0.19-.4Z"/></g></svg>