<?xml version="1.0" encoding="utf-8"?>
<!-- Generator: Adobe Illustrator 19.1.0, SVG Export Plug-In . SVG Version: 6.00 Build 0)  -->
<svg version="1.1" id="Layer_1" xmlns="http://www.w3.org/2000/svg" xmlns:xlink="http://www.w3.org/1999/xlink" x="0px" y="0px"
	 viewBox="0 0 400 400" enable-background="new 0 0 400 400" xml:space="preserve">
<g>
	<path d="M43.273,194.299c2.872,0.68,4.538,1.074,7.242,1.714c-2.679-2.975-4.679-5.196-7.413-8.231
		c7.422-1.24,13.94-2.24,20.424-3.428c32.004-5.865,63.329-14.42,93.391-26.755c23.24-9.536,45.895-20.57,68.453-31.663
		c11-5.409,21.253-12.365,31.695-18.862c2.706-1.683,4.824-1.893,7.754-0.611c30.846,13.492,61.734,26.889,92.68,40.153
		c3.097,1.327,3.574,2.729,2.966,5.922c-2.241,11.761-3.89,23.636-6.205,35.38c-0.407,2.066-2.579,4.387-4.55,5.452
		c-30.096,16.255-60.425,32.084-90.436,48.493c-33.129,18.115-65.442,37.611-96.16,59.631c-2.955,2.119-5.327,2.465-8.602,0.917
		c-35.375-16.714-70.814-33.291-106.183-50.016c-1.384-0.654-2.763-2.231-3.27-3.683c-4.765-13.652-6.827-27.722-5.207-42.132
		C40.31,202.501,42.046,198.566,43.273,194.299z M310.177,210.439c14.05-7.15,28.101-14.301,42.151-21.451
		c-0.34-0.633-0.681-1.267-1.021-1.9c-13.827,7.65-27.655,15.301-41.482,22.952c-6.554,3.288-13.109,6.576-19.663,9.865
		c0.229,0.432,0.458,0.865,0.687,1.297C297.291,217.614,303.734,214.026,310.177,210.439z M202.393,153.517
		c18.822,10.558,37.092,20.841,55.432,30.999c1.003,0.555,2.832,0.535,3.858-0.008c13.862-7.329,27.672-14.76,41.418-22.304
		c1.183-0.649,2.381-2.182,2.619-3.479c0.78-4.256,1.121-8.592,1.705-13.525c-13.916-4.193-25.861-14.668-41.735-14.188
		c-1.697,0.051-3.722-0.322-5.08-1.251c-5.802-3.97-10.776-2.111-15.645,1.678c-0.411,0.319-0.925,0.507-1.394,0.75
		C230.141,139.145,216.712,146.1,202.393,153.517z M101.164,206.11c11.555,6.659,23.31,13.389,35.014,20.206
		c3.469,2.021,6.573,2.66,10.81,1.321c3.959-1.251,8.627-0.285,12.982-0.241c1.532,0.015,3.25,0.701,4.563,0.216
		c15.823-5.84,31.586-11.843,47.891-18.002c-1.274-1.352-1.564-1.845-1.996-2.093c-18.207-10.435-36.398-20.898-54.699-31.166
		c-1.371-0.769-3.728-0.637-5.304-0.054c-14.214,5.258-28.375,10.663-42.49,16.181c-1.374,0.537-2.8,1.922-3.395,3.27
		C103.286,198.588,102.566,201.664,101.164,206.11z M263.625,202.836c-0.808-0.757-1.116-1.177-1.529-1.414
		c-27.495-15.768-54.988-31.541-82.54-47.21c-1.178-0.67-3.087-0.888-4.345-0.442c-5.945,2.111-11.782,4.526-17.837,6.904
		c0.57,0.661,0.831,1.168,1.246,1.417c27.501,16.444,55.004,32.886,82.565,49.228c1.167,0.692,3.173,1.051,4.311,0.528
		C251.535,209.07,257.42,205.963,263.625,202.836z M143.686,170.48c-0.023-0.712-0.047-1.424-0.07-2.136
		c-2.698,0-5.554-0.586-8.068,0.094c-17.183,4.648-34.221,9.843-51.455,14.288c-11.016,2.841-22.286,4.698-34.681,7.251
		c3.892,3.389,6.679,6.623,10.154,8.713c27.648,16.627,55.446,33.003,83.14,49.554c3.499,2.091,6.737,2.167,10.447,0.732
		c23.011-8.896,46.069-17.671,69.099-26.518c2.497-0.959,4.913-2.127,7.515-3.262c-3.711-4.379-7.07-4.064-11.642-2.223
		c-22.233,8.952-44.644,17.466-67.07,25.928c-1.826,0.689-4.641,0.515-6.322-0.442c-21.615-12.296-43.142-24.749-64.609-37.304
		c-6.018-3.52-11.765-7.505-17.636-11.276C90.608,188.713,117.423,180.552,143.686,170.48z M341.542,149.592
		c-24.376,14.342-47.548,27.975-70.954,41.746c3.764,3.312,6.902,4.074,11.652,1.246c22.887-13.622,46.064-26.755,69.132-40.074
		c1.618-0.934,3.177-1.972,5.183-3.222c-1.507-0.724-2.435-1.211-3.394-1.625c-29.459-12.72-58.895-25.495-88.445-38.003
		c-1.932-0.818-5.12-0.272-7.071,0.813c-16.108,8.954-32.018,18.264-48.086,27.292c-5.793,3.255-11.853,6.034-17.791,9.031
		c0.132,0.618,0.264,1.235,0.397,1.853c2.36-0.373,5.056-0.133,7.028-1.214c19.414-10.633,38.766-21.383,57.978-32.375
		c3.239-1.853,5.563-2.485,9.038-0.522c6.437,3.636,13.175,6.767,19.903,9.858C304.046,132.634,322.041,140.74,341.542,149.592z
		 M145.898,272.4c0.475-0.663,0.95-1.325,1.426-1.988c-1.397-1.198-2.618-2.778-4.226-3.515c-3.514-1.611-7.233-2.772-10.853-4.156
		c-28.929-11.063-55.644-26.496-82.441-41.768c-1.734-0.988-3.543-1.846-5.469-2.843c-1.481,6.086,0.455,9.386,5.612,11.859
		c17.943,8.602,35.461,18.125,53.598,26.278C117.301,262.449,131.755,267.079,145.898,272.4z M247.892,244.524
		c6.556-3.682,12.344-6.871,18.044-10.211c0.747-0.437,1.469-1.64,1.48-2.497c0.109-8.53,0.066-17.062,0.066-26.78
		c-7.6,3.87-13.727,6.844-19.661,10.161c-0.959,0.536-1.543,2.622-1.484,3.955C246.698,227.219,247.297,235.276,247.892,244.524z
		 M46.507,199.865c-2.617,2.947-1.689,5.004,1.358,6.748c3.67,2.101,7.294,4.285,10.893,6.506
		c26.115,16.118,52.124,32.426,80.507,44.429c1.406,0.595,2.868,1.055,4.304,1.578c0.165-0.426,0.33-0.852,0.494-1.278
		C111.555,238.528,79.048,219.206,46.507,199.865z M150.768,287.314c0.48-0.68,0.959-1.359,1.439-2.039
		c-1.824-1.398-3.472-3.186-5.512-4.108c-3.356-1.516-7.081-2.212-10.451-3.704c-27.058-11.978-54.072-24.056-81.091-36.123
		c-2.617-1.169-5.172-2.477-7.756-3.721c-0.386,0.584-0.772,1.167-1.158,1.751c1.941,1.613,3.644,3.747,5.86,4.761
		c25.645,11.728,51.331,23.37,77.095,34.833C136.231,282.094,143.568,284.549,150.768,287.314z M148.382,279.691
		c0.421-0.555,0.842-1.111,1.264-1.666c-1.454-1.398-2.679-3.566-4.398-4.079c-34.273-10.24-66.271-25.657-97.639-42.54
		c-0.657-0.354-1.389-0.569-2.086-0.849c-0.321,0.469-0.642,0.939-0.963,1.408c1.675,1.372,3.153,3.172,5.056,4.052
		c27.469,12.703,54.962,25.352,82.535,37.828C137.374,276.208,142.962,277.763,148.382,279.691z M144.198,264.513
		c0.342-0.622,0.683-1.245,1.025-1.867c-35.797-13.832-68.313-33.633-101.134-53.781c0.121,1.985,0.421,4.389,1.694,5.139
		c27.172,16.006,53.974,32.725,83.315,44.684C134.093,260.724,139.163,262.576,144.198,264.513z M153.794,283.699
		c0.561,0.305,1.123,0.61,1.684,0.915c3.737-2.249,7.384-4.665,11.225-6.719c21.414-11.453,42.882-22.802,64.3-34.246
		c1.51-0.807,2.765-2.09,4.138-3.152c-0.519-0.77-1.038-1.54-1.557-2.31c-25.893,13.724-51.802,27.415-77.621,41.277
		C154.814,280.081,154.498,282.252,153.794,283.699z M279.221,207.921c26.662-11.742,51.972-24.819,76.578-41.334
		c-1.841-0.808-2.035-0.966-2.121-0.92c-24.119,12.82-48.244,25.627-72.295,38.574C280.312,204.817,279.926,206.665,279.221,207.921
		z M234.778,244.894c-0.137-0.282-0.274-0.563-0.411-0.845c-1.363,0.56-2.785,1.009-4.08,1.696
		c-17.903,9.494-35.847,18.913-53.646,28.597c-6.336,3.447-12.399,7.429-18.378,11.475c-1.187,0.803-1.422,3.013-2.415,5.314
		C183.087,275.175,208.933,260.034,234.778,244.894z M234.475,232.945c-0.218-0.395-0.436-0.789-0.655-1.184
		c-0.93,0.298-1.889,0.528-2.786,0.905c-26.124,10.98-52.241,21.974-78.36,32.966c-0.325,0.137-0.792,0.17-0.955,0.412
		c-0.506,0.751-0.898,1.58-1.334,2.379c0.834,0.355,1.7,1.056,2.496,0.983c1.187-0.108,2.355-0.695,3.48-1.193
		c25.121-11.112,50.237-22.233,75.339-33.388C232.705,234.378,233.553,233.579,234.475,232.945z M278.925,217.206
		c1.51,0.246,1.926,0.458,2.162,0.332c23.13-12.294,46.259-24.59,69.322-37.007c1.09-0.587,1.593-2.263,2.501-3.629
		c-24.059,12.434-47.477,24.51-70.841,36.687C280.915,214.19,280.222,215.674,278.925,217.206z M52.958,249.445
		c32.041,19.274,67.264,32.324,102.268,48.544c-0.713-2.14-0.749-3.211-1.179-3.404C120.371,279.494,86.663,264.472,52.958,249.445z
		 M152.802,277.569c27.469-13.808,54.424-27.358,81.378-40.907c-0.113-0.225-0.226-0.449-0.339-0.674
		c-27.322,12.302-54.644,24.604-82.242,37.03C151.986,274.48,152.421,276.129,152.802,277.569z M148.493,257.748
		c0.018,0.263,0.036,0.527,0.053,0.79c1.592-0.387,3.234-0.636,4.77-1.184c11.768-4.202,23.655-8.115,35.233-12.792
		c14.194-5.734,28.139-12.089,42.145-18.283c1.302-0.576,2.264-1.919,4.365-3.77C205.062,234.72,176.777,246.234,148.493,257.748z
		 M234.235,229.245c-0.275-0.505-0.55-1.01-0.824-1.515c-0.149-0.035-0.329-0.143-0.442-0.095
		c-27.062,11.493-53.392,24.817-81.902,32.711c-0.922,0.255-1.426,2.019-2.124,3.08c0.396,0.342,0.791,0.684,1.187,1.026
		C179.262,255.278,206.287,241.185,234.235,229.245z M280.217,198.364c1.127,0.074,1.539,0.236,1.783,0.098
		c24.245-13.7,48.49-27.403,72.676-41.207c1.197-0.683,1.883-2.263,2.807-3.425c-0.32-0.295-0.64-0.591-0.96-0.886
		C331.254,167.985,305.984,183.027,280.217,198.364z M235.924,250.671c-14.308,5.164-72.599,41.584-75.354,47.725
		C185.333,282.712,210.096,267.028,235.924,250.671z M352.741,184.178c-0.311-0.44-0.622-0.881-0.934-1.321
		c-23.401,12.184-46.809,24.354-70.176,36.602c-0.911,0.477-1.429,1.705-2.13,2.582c0.377,0.431,0.754,0.862,1.131,1.293
		C304.669,210.282,328.705,197.23,352.741,184.178z M353.896,172.668c-0.273-0.408-0.546-0.816-0.82-1.224
		c-24.379,13.448-48.759,26.895-73.138,40.343C305.51,200.396,330.55,188.062,353.896,172.668z M279.865,201.876
		c0.788-0.06,1.359,0.055,1.756-0.157c23.938-12.774,47.871-25.556,71.753-38.434c1.086-0.586,1.696-2.054,2.527-3.111
		c-0.228-0.17-0.456-0.339-0.684-0.509C330.197,173.682,305.176,187.698,279.865,201.876z M201.653,266.986
		c-0.33-0.39-0.661-0.78-0.991-1.17c-14.34,9.158-28.68,18.315-43.019,27.473c0.325,0.507,0.65,1.013,0.974,1.52
		C172.963,285.534,187.308,276.26,201.653,266.986z M152.205,291.554c0.171-0.46,0.342-0.921,0.514-1.381
		c-8.051-3.02-16.103-6.04-24.154-9.061c-0.144,0.388-0.289,0.777-0.433,1.165C136.156,285.37,144.18,288.462,152.205,291.554z"/>
	<path d="M250.741,143.655c8.993,0.012,16.542,6.042,16.431,13.125c-0.11,6.947-7.339,12.587-16.249,12.677
		c-0.176,0.002-0.352,0.002-0.529-0.001c-8.903-0.144-16.123-5.842-16.176-12.766C234.163,149.621,241.74,143.643,250.741,143.655z"
		/>
	<path d="M157.011,212.81c-2.475-0.484-4.411-0.7-6.247-1.25c-6.478-1.941-10.407-6.415-10.484-11.747
		c-0.08-5.554,3.852-10.83,10.661-11.99c4.608-0.785,9.785-0.216,14.319,1.094c4.811,1.39,7.896,5.47,7.858,10.797
		c-0.038,5.327-3.317,8.843-7.973,10.849C162.455,211.721,159.453,212.159,157.011,212.81z"/>
</g>
</svg>
