<?xml version="1.0" encoding="utf-8"?>
<!-- Generator: Adobe Illustrator 19.1.0, SVG Export Plug-In . SVG Version: 6.00 Build 0)  -->
<svg version="1.1" id="Layer_1" xmlns="http://www.w3.org/2000/svg" xmlns:xlink="http://www.w3.org/1999/xlink" x="0px" y="0px"
	 width="400px" height="400px" viewBox="0 0 400 400" enable-background="new 0 0 400 400" xml:space="preserve">
<g id="Layer_x25_201111">
	<path fill="#333333" d="M70,249c0,5.523,4.477,10,10,10s10-4.477,10-10v-60c0-5.523-4.477-10-10-10s-10,4.477-10,10V249z"/>
	<path fill="#333333" d="M210,189c0-5.523-4.477-10-10-10s-10,4.477-10,10v60c0,5.523,4.477,10,10,10s10-4.477,10-10V189z"/>
	<path fill="#333333" d="M130,249c0,5.523,4.477,10,10,10s10-4.477,10-10v-60c0-5.523-4.477-10-10-10s-10,4.477-10,10V249z"/>
	<path fill="#333333" d="M250,249c0,5.523,4.477,10,10,10c5.523,0,10-4.477,10-10v-60c0-5.523-4.477-10-10-10
		c-5.523,0-10,4.477-10,10V249z"/>
	<path fill="#333333" d="M330,189c0-5.523-4.477-10-10-10s-10,4.477-10,10v60c0,5.523,4.477,10,10,10s10-4.477,10-10V189z"/>
	<path fill="#333333" d="M200,59c-6.333,0-10,4-10,4L46,130c0,0-8,2.667-5,12c3.164,9.843,13,5,13,5l146-68l131,60l-219.602,0.045
		c0,0-0.075,0.005-0.21,0.03c-0.26-0.02-0.525-0.03-0.79-0.03c-5.523,0-10,4.477-10,10s4.477,10,10,10
		c0.315,0,0.628-0.017,0.935-0.045l0.065,0.045L343,159c7.667,0,15-6.667,15-16s-6-13-6-13L213,64C213,64,206,59,200,59z"/>
	<path fill="#333333" d="M109.333,339v0.05h1C109.996,339.05,109.662,339.033,109.333,339z M109.333,319.1
		c-5.053,0.502-9,4.765-9,9.95c0,5.185,3.947,9.448,9,9.95c0.329,0.033,0.662,0.05,1,0.05L350,339c5.523,0,10-4.477,10-10v-40
		c0-5.523-4.477-10-10-10H50c-5.523,0-10,4.477-10,10v40c0,5.523,4.477,10,10,10s10-4.477,10-10v-30h280v20l-229.667,0.05
		C109.996,319.05,109.662,319.067,109.333,319.1z M109.333,319.05v0.05c0.329-0.033,0.662-0.05,1-0.05H109.333z"/>
</g>
</svg>
