<?xml version="1.0" encoding="utf-8"?>
<!-- Generator: Adobe Illustrator 19.1.0, SVG Export Plug-In . SVG Version: 6.00 Build 0)  -->
<svg version="1.1" id="Layer_1" xmlns="http://www.w3.org/2000/svg" xmlns:xlink="http://www.w3.org/1999/xlink" x="0px" y="0px"
	 width="400px" height="400px" viewBox="0 0 400 400" enable-background="new 0 0 400 400" xml:space="preserve">
<g id="Layer_x25_201110">
	<path fill="#333333" d="M200,79c0,0,40,1.667,40,40c0,0-1.333,16.167-11,26v54c0,0-1.333,8-9,8s-20-11-20-11s-13.167,12-20,12
		s-9-5.5-9-10s0-30,0-30s1.333-8,9-8s10,5.5,10,9s0,15,0,15s4-6,10-6s10,6,10,6v-26v-14c0,0-0.5-7.167,3-10s9.333-10.833,6-21
		s-10.833-14-19-14s-20,7.167-20,20s14,19,14,19s9.833,4.833,6,13s-10.5,6.167-14,5s-26-12-26-37S182.167,79,200,79z"/>
	<path fill="#333333" d="M231.333,240.05V240h-1C230.671,240,231.004,240.017,231.333,240.05z M231.333,259.95
		c5.053-0.502,9-4.765,9-9.95s-3.947-9.448-9-9.95c-0.329-0.033-0.662-0.05-1-0.05H130c-5.523,0-10,4.477-10,10s4.477,10,10,10
		h100.333C230.671,260,231.004,259.983,231.333,259.95z M231.333,260v-0.05c-0.329,0.033-0.662,0.05-1,0.05H231.333z"/>
	<path fill="#333333" d="M231.333,279.05V279h-1C230.671,279,231.004,279.017,231.333,279.05z M231.333,298.95
		c5.053-0.502,9-4.765,9-9.95s-3.947-9.448-9-9.95c-0.329-0.033-0.662-0.05-1-0.05H130c-5.523,0-10,4.477-10,10s4.477,10,10,10
		h100.333C230.671,299,231.004,298.983,231.333,298.95z M231.333,299v-0.05c-0.329,0.033-0.662,0.05-1,0.05H231.333z"/>
	<path fill="#333333" d="M60,349v1h0.05C60.017,349.671,60,349.337,60,349z M70,39h-1v0.05C69.329,39.017,69.662,39,70,39z
		 M291,39.05V39h-1C290.337,39,290.671,39.017,291,39.05z M280.05,350c0.502,5.053,4.765,9,9.95,9c5.005,0,9.152-3.675,9.885-8.475
		l0.167,0.065L359,214l-0.275-0.11c0.812-1.446,1.275-3.114,1.275-4.89c0-5.523-4.477-10-10-10c-1.045,0-2.053,0.163-3,0.46V199h-27
		c-5.523,0-10,4.477-10,10s4.477,10,10,10h14.335L300,298.555V49c0-5.185-3.947-9.448-9-9.95c-0.329-0.033-0.663-0.05-1-0.05H70
		c-0.338,0-0.671,0.017-1,0.05c-5.053,0.502-9,4.765-9,9.95v300c0,0.337,0.017,0.671,0.05,1c0.502,5.053,4.765,9,9.95,9h160
		c5.523,0,10-4.477,10-10s-4.477-10-10-10H80V59h200v290C280,349.337,280.017,349.671,280.05,350z M280,350h0.05
		c-0.033-0.329-0.05-0.663-0.05-1V350z"/>
</g>
</svg>
