<svg id="Layer_1" data-name="Layer 1" xmlns="http://www.w3.org/2000/svg" viewBox="0 0 500 500"><defs><style>.cls-1{fill:#333;}</style></defs><title>files</title><path class="cls-1" d="M190.58,394.78a5.54,5.54,0,0,0-2.21-.45,5.63,5.63,0,0,0-2.25.45,5.89,5.89,0,0,0-1.82,1.2,5.28,5.28,0,0,0-1.2,1.8,5.93,5.93,0,0,0,0,4.44,5.32,5.32,0,0,0,1.2,1.78,5.62,5.62,0,0,0,1.82,1.18,5.86,5.86,0,0,0,2.25.43,5.77,5.77,0,0,0,2.21-.43,5.44,5.44,0,0,0,1.8-1.18,5.74,5.74,0,0,0,1.2-1.78,5.72,5.72,0,0,0,0-4.44A5.51,5.51,0,0,0,190.58,394.78Z"/><path class="cls-1" d="M236.24,355.72a18.13,18.13,0,0,0-6.56-3.56,31,31,0,0,0-9.41-1.27H202.61v54.2H212.7V386h7.57a29.2,29.2,0,0,0,9.22-1.31A18.31,18.31,0,0,0,236,381a15,15,0,0,0,3.94-5.64,20.38,20.38,0,0,0,.08-14.19A14,14,0,0,0,236.24,355.72Zm-5.7,16.59a8.14,8.14,0,0,1-2,3.15,9,9,0,0,1-3.41,2,15.18,15.18,0,0,1-4.84.69H212.7V358.68h7.57a16,16,0,0,1,4.84.66,9,9,0,0,1,3.41,1.89,7.78,7.78,0,0,1,2,3,10.92,10.92,0,0,1,.67,3.94A12,12,0,0,1,230.54,372.31Z"/><path class="cls-1" d="M269.82,350.89H249.13v54.2h20.69a30.43,30.43,0,0,0,11.21-2,24.57,24.57,0,0,0,14.24-14.17,31.13,31.13,0,0,0,0-21.89,24.94,24.94,0,0,0-5.58-8.57,25.35,25.35,0,0,0-8.66-5.58A30.17,30.17,0,0,0,269.82,350.89ZM285.75,370a27.3,27.3,0,0,1,0,16,17,17,0,0,1-3.41,6,14.7,14.7,0,0,1-5.38,3.77,18.49,18.49,0,0,1-7.14,1.31H259.29V358.91h10.53a18.5,18.5,0,0,1,7.14,1.31,14.73,14.73,0,0,1,5.38,3.77A17,17,0,0,1,285.75,370Z"/><polygon class="cls-1" points="315.33 383.01 335.61 383.01 335.61 374.95 315.33 374.95 315.33 358.91 339.35 358.91 339.35 350.89 305.17 350.89 305.17 405.09 315.33 405.09 315.33 383.01"/><path class="cls-1" d="M347.25,147.41h0l0.34,0.2Z"/><path class="cls-1" d="M405.17,434.12V216.75a9.84,9.84,0,0,0-3.38-7.42l-78.43-78.44a9.9,9.9,0,0,0-17.11,6.76V215.4a10.17,10.17,0,0,0-.1,1.35,9.9,9.9,0,0,0,6.1,9.14,9.65,9.65,0,0,0,3.89.8,8.13,8.13,0,0,0,.86,0h68.38v198H147.92V147.54h95.15v3.16h0.21v98.19c-0.69,11.21-8.61,20.77-21.34,20.77-0.22,0-3.73,0-4,0-11.13,0-24.3-9-24.3-22.37h0V170.95h-0.18c0-.1,0-0.2,0-0.3a9.66,9.66,0,0,0-19.32,0c0,0.1,0,.2,0,0.3h0v76.35h-0.2c0,24,20,43.48,44.7,43.48s44.74-19.49,44.74-43.48H263.2V150.7h0.05v-3.16h13.22a9.89,9.89,0,0,0,0-19.78H263.25V102.66h0a30.27,30.27,0,0,0-60.54.3h0v24.8H139.07a9.44,9.44,0,0,0-1-.06,9.89,9.89,0,0,0-9.89,9.89V434.4a10,10,0,0,0,9.93,10H395.3a9.89,9.89,0,0,0,9.89-9.9C405.19,434.4,405.17,434.26,405.17,434.12ZM326,206.87V162.34l45.09,44.53H326ZM233,92.88A10.1,10.1,0,0,1,243.07,103v24.8H222.91V102.66h0A10.08,10.08,0,0,1,233,92.88Z"/></svg>