<?xml version="1.0" encoding="utf-8"?>
<!-- Generator: Adobe Illustrator 19.1.0, SVG Export Plug-In . SVG Version: 6.00 Build 0)  -->
<svg version="1.1" id="Layer_1" xmlns="http://www.w3.org/2000/svg" xmlns:xlink="http://www.w3.org/1999/xlink" x="0px" y="0px"
	 width="400px" height="400px" viewBox="0 0 400 400" enable-background="new 0 0 400 400" xml:space="preserve">
<g id="Layer_x25_201120">
	<path fill="#323232" d="M302.722,95.139c-22.5-34.738-60.949-55.478-102.853-55.478c-21.15,0-41.958,5.542-60.175,16.026
		c-37.972,21.855-58.231,55.155-60.215,98.974c-1.118,24.709,4.629,50.124,17.571,77.696
		c20.485,43.635,51.072,83.056,96.261,124.058c2.505,2.273,4.617,3.288,6.845,3.288c2.315,0,4.622-1.133,7.48-3.673
		c37.826-33.632,66.318-68.217,87.104-105.731c11.916-21.503,26.16-53.519,26.352-83.931
		C321.244,136.957,315.578,114.99,302.722,95.139z M300.614,167.858c-2.187,28.159-12.464,55.952-32.344,87.464
		c-17.204,27.268-39.202,53.201-67.249,79.281c-0.252,0.234-0.543,0.462-0.949,0.771c-38.546-37.713-76.483-80.487-94.392-137.239
		c-9.916-31.423-8.526-58.726,4.25-83.466c15.116-29.271,39.21-46.918,71.614-52.453c7.043-1.203,13.988-1.813,20.642-1.813
		c27.695,0,51.849,10.427,71.791,30.991C293.989,112.028,302.952,137.754,300.614,167.858z"/>
	<path fill="#323232" d="M200,99.979c-33.102,0-59.938,26.835-59.938,59.938c0,3.357,0.29,6.646,0.82,9.853
		c0,0.021-0.003,0.042-0.003,0.063c0,1.403,0.292,2.737,0.813,3.949c1.532,3.558,5.067,6.051,9.188,6.051
		c5.523,0,10.001-4.477,10.001-10c0-0.58-0.06-1.145-0.155-1.698c-0.035-0.169-0.065-0.34-0.098-0.51
		c-0.485-2.495-0.747-5.071-0.747-7.708c0-22.157,17.962-40.119,40.119-40.119s40.119,17.962,40.119,40.119
		c0,11.874-5.158,22.544-13.357,29.889c-7.1,6.361-16.479,10.23-26.762,10.23c-8.472,0-16.326-2.633-22.802-7.115
		c-0.627-0.607-1.331-1.133-2.1-1.561c-1.436-0.798-3.087-1.256-4.847-1.256c-5.523,0-10,4.477-10,10
		c0,2.833,1.183,5.386,3.077,7.205c0.626,0.602,1.328,1.126,2.094,1.55c9.772,6.917,21.695,10.995,34.579,10.995
		c33.102,0,59.937-26.835,59.937-59.938S233.102,99.979,200,99.979z"/>
</g>
</svg>
