<svg id="Layer_1" data-name="Layer 1" xmlns="http://www.w3.org/2000/svg" viewBox="0 0 400 400"><defs><style>.cls-1{fill:#333;}</style></defs><title>icon</title><g id="Layer_20159" data-name="Layer%20159"><path class="cls-1" d="M356.68,286.8l-56.57-56.57a10.28,10.28,0,0,0-14.31-.13l-39.62,39.62H60.39V130h185.8l39.62,39.62,0.16,0.14h0a10,10,0,0,0,14.14,0l56.57-56.57a10,10,0,1,0-14.14-14.14L293,148.57,258.17,113.7a10,10,0,0,0-7.76-3.7h-200a10,10,0,0,0-10,10V279c0,0.19,0,.38,0,0.57s0,0.1,0,.15a10,10,0,0,0,10,10h200a10,10,0,0,0,7.76-3.7l34.73-34.73,49.65,49.65A10,10,0,0,0,356.68,286.8Z"/></g></svg>