<?xml version="1.0" encoding="utf-8"?>
<!-- Generator: Adobe Illustrator 19.1.0, SVG Export Plug-In . SVG Version: 6.00 Build 0)  -->
<svg version="1.1" id="Layer_1" xmlns="http://www.w3.org/2000/svg" xmlns:xlink="http://www.w3.org/1999/xlink" x="0px" y="0px"
	 width="400px" height="400px" viewBox="0 0 400 400" enable-background="new 0 0 400 400" xml:space="preserve">
<g id="Layer_x25_20114">
	<path fill="#333333" d="M352.691,152.193C326.287,67.863,236.522,20.907,152.194,47.311
		C67.864,73.713,20.906,163.478,47.309,247.808c0.992,3.169,2.091,6.276,3.261,9.337c0.001,0.003,0.001,0.004,0.002,0.007
		c0.063,0.201,0.143,0.392,0.216,0.586c0.055,0.142,0.109,0.284,0.164,0.426c2.014,4.625,7.228,7.084,12.15,5.543
		c5.273-1.65,8.206-7.26,6.556-12.532c-0.105-0.336-0.227-0.662-0.363-0.979c-1.05-2.738-2.02-5.524-2.909-8.361
		C43.281,168.042,84.372,89.491,158.164,66.386c73.794-23.105,152.345,17.985,175.45,91.78
		c23.105,73.795-17.987,152.345-91.78,175.449c-51.08,15.993-104.436,1.222-140.107-33.86c-0.26-0.256-0.519-0.514-0.776-0.772
		c-2.539-2.264-6.163-3.185-9.646-2.094c-5.271,1.65-8.205,7.261-6.556,12.531c0.555,1.773,1.565,3.273,2.853,4.433
		c-0.001-0.002-0.002-0.003-0.004-0.004c-0.007,0.006-0.012,0.013-0.018,0.02c40.763,40.181,101.793,57.119,160.225,38.823
		C332.137,326.288,379.094,236.523,352.691,152.193z"/>
	<path fill="#333333" d="M284.342,190.998l-129.996-70.031c-4.84-2.346-10.629-0.43-13.152,4.263
		c-0.001,0.002-0.002,0.004-0.004,0.007c-0.066,0.124-0.141,0.242-0.202,0.37c-0.068,0.14-0.119,0.283-0.181,0.425
		c-0.021,0.051-0.043,0.101-0.063,0.152c-0.101,0.245-0.191,0.49-0.27,0.738c-0.023,0.072-0.046,0.145-0.067,0.218
		c-0.071,0.239-0.133,0.478-0.185,0.719c-0.02,0.087-0.037,0.175-0.054,0.263c-0.044,0.232-0.079,0.464-0.107,0.697
		c-0.012,0.106-0.022,0.213-0.032,0.321c-0.018,0.212-0.028,0.424-0.032,0.637c-0.001,0.075-0.011,0.148-0.011,0.223l-0.001,139.999
		c0,0.074,0.01,0.146,0.012,0.221c-0.032,1.528,0.278,3.086,0.99,4.557c2.408,4.971,8.39,7.048,13.36,4.64l129.995-70.032
		c3.61-1.749,5.683-5.383,5.631-9.145C290.061,196.443,287.982,192.762,284.342,190.998z M159.985,146.699l99.293,53.492
		l-99.293,53.491V146.699z"/>
</g>
</svg>
