<?xml version="1.0" encoding="utf-8"?>
<!-- Generator: Adobe Illustrator 20.1.0, SVG Export Plug-In . SVG Version: 6.00 Build 0)  -->
<svg version="1.1" id="Layer_1" xmlns="http://www.w3.org/2000/svg" xmlns:xlink="http://www.w3.org/1999/xlink" x="0px" y="0px"
	 width="400px" height="400px" viewBox="0 0 400 400" enable-background="new 0 0 400 400" xml:space="preserve">
<path fill="#333333" d="M360.5,91c0-3.9-2.3-7.3-5.6-9c-1.4-0.8-3.1-1.2-4.8-1.2H249c-3.4-16.5-14.8-30-30-36.2
	c-1.3-0.5-2.7-1-4.1-1.5c-0.4,0-0.8-0.1-1.2-0.1c-5.5,0-10,4.5-10,10c0,4,2.4,7.5,5.8,9.1c0.5,0.2,1.1,0.4,1.6,0.6
	c8.2,3.1,14.7,9.8,17.6,18.1c1.1,3.1,1.7,6.4,1.7,9.9c0,0,0,0.1,0,0.1c0,0,0,0,0,0.1c0,5.3,4.2,9.6,9.4,9.9h1.2h8h91.5V341h-280
	V100.8h99.3c0.2,0,0.4,0,0.6,0s0.4,0,0.6,0c2.7-0.2,5.4-1.5,7.1-3.6c2-2.4,2.2-5.4,2.5-8.4c0.3-2.7,0.6-5.5,1.5-8
	c3-8.4,9.6-15.1,18-18.2c0,0,0,0,0,0c4-1.3,6.9-5.1,6.9-9.5c0-5.5-4.5-10-10-10c-0.6,0-1.2,0.1-1.8,0.2c-1,0.3-1.9,0.6-2.9,1
	c-15.9,6-27.9,19.7-31.3,36.6H50.1c-5.5,0-10,4.5-10,10c0,1,0.1,1.9,0.4,2.8V350c0,0.2,0,0.3,0,0.5c0,0.2,0,0.3,0,0.5
	c0,5.5,4.5,10,10,10h300c5.5,0,10-4.5,10-10c0-0.2,0-0.3,0-0.5c0-0.2,0-0.3,0-0.5V91z"/>
<path fill="#333333" d="M310,170.4h-80c-5.5,0-10,4.5-10,10c0,5.5,4.5,10,10,10h80c5.5,0,10-4.5,10-10
	C320,174.9,315.5,170.4,310,170.4z"/>
<path fill="#333333" d="M310,210h-80c-5.5,0-10,4.5-10,10c0,5.5,4.5,10,10,10h80c5.5,0,10-4.5,10-10C320,214.5,315.5,210,310,210z"
	/>
<path fill="#333333" d="M310,250.4h-80c-5.5,0-10,4.5-10,10c0,5.5,4.5,10,10,10h80c5.5,0,10-4.5,10-10
	C320,254.9,315.5,250.4,310,250.4z"/>
<path fill="#333333" d="M101.4,288.8c0-1.3-0.3-2.6-0.8-3.8c0.2,1.6,0.4,3.1,0.7,4.6C101.4,289.3,101.4,289.1,101.4,288.8z"/>
<path fill="#333333" d="M144.8,221c19.9-2.2,35.4-19.1,35.4-39.6c0-22-17.9-39.9-39.9-39.9s-39.9,17.9-39.9,39.9
	c0,20.6,15.7,37.6,35.8,39.7c-30.9,2.4-55.3,28.2-55.3,59.8c0,2.7,0.2,5.3,0.5,7.8c0.2,1.5,0.4,3,0.8,4.5c1.5,3.6,5.1,6.1,9.2,6.1
	c3.2,0,6.2-1.5,8-4.2c2.1-3.1,1.6-6.1,1.2-9.7c-0.1-1.3-0.2-2.6-0.2-3.9c0-22.1,17.9-40,40-40c22.1,0,40,17.9,40,40
	c0,2.3-0.2,4.5-0.6,6.7c0,0,0.1,0,0.1,0c0,0.4-0.1,0.7-0.1,1.1c0,5.5,4.5,10,10,10s10-4.5,10-10c0,0.2,0,0.3,0,0.5
	c0.1,0,0.1,0,0.2-0.1c0.4-2.9,0.7-5.9,0.7-8.9C200.8,249.1,176.1,223.1,144.8,221z M140.3,201.3c-11,0-19.8-8.9-19.8-19.8
	c0-11,8.9-19.8,19.8-19.8s19.8,8.9,19.8,19.8C160.2,192.4,151.3,201.3,140.3,201.3z"/>
</svg>
