<svg id="Layer_1" data-name="Layer 1" xmlns="http://www.w3.org/2000/svg" viewBox="0 0 400 400"><defs><style>.cls-1{fill:#333;}</style></defs><title>icon</title><g id="Layer_20186" data-name="Layer%20186"><path class="cls-1" d="M110,172.45A36,36,0,1,1,74,136,36.25,36.25,0,0,1,110,172.45Z"/><path class="cls-1" d="M360,129.54a36,36,0,1,1-36-36.48A36.25,36.25,0,0,1,360,129.54Z"/><path class="cls-1" d="M268.91,326.52a36,36,0,1,1-36-36.48A36.25,36.25,0,0,1,268.91,326.52Z"/><path class="cls-1" d="M76.26,215.68c-0.75,0-1.49.12-2.25,0.12a42.12,42.12,0,0,1-17.7-3.92c5.9,75.1,66.77,134.47,141.86,136.84a41.72,41.72,0,0,1-6.27-20.13C131.74,323.42,83.51,276,76.26,215.68Z"/><path class="cls-1" d="M93.27,133.78c22.26-37.75,63-63,109.55-63A126.17,126.17,0,0,1,289,104.68a43.17,43.17,0,0,1,14.55-13.21A145.47,145.47,0,0,0,202.81,51C146.91,51,98.3,82.61,73.44,129.14c0.19,0,.38,0,0.58,0A42.11,42.11,0,0,1,93.27,133.78Z"/><path class="cls-1" d="M330.34,199.92a129.44,129.44,0,0,1-60,109.55,41.87,41.87,0,0,1,3.63,17c0,1.29-.08,2.56-0.19,3.81a149.16,149.16,0,0,0,76-130.41,151.1,151.1,0,0,0-3.74-33.32,42.09,42.09,0,0,1-18.61,6.1A131.22,131.22,0,0,1,330.34,199.92Z"/></g></svg>