<?xml version="1.0" encoding="utf-8"?>
<!-- Generator: Adobe Illustrator 19.1.0, SVG Export Plug-In . SVG Version: 6.00 Build 0)  -->
<svg version="1.1" id="Layer_1" xmlns="http://www.w3.org/2000/svg" xmlns:xlink="http://www.w3.org/1999/xlink" x="0px" y="0px"
	 viewBox="0 0 400 400" enable-background="new 0 0 400 400" xml:space="preserve">
<g>
	<g>
		<path d="M168.698,48.799C85.678,74.791,39.45,163.16,65.443,246.18c0.978,3.122,2.059,6.182,3.212,9.197
			c-0.04-0.126-0.064-0.255-0.099-0.381c0.035,0.127,0.06,0.256,0.099,0.383c0.063,0.198,0.14,0.386,0.213,0.577
			c0.054,0.139,0.108,0.28,0.161,0.419c1.982,4.553,7.115,6.974,11.962,5.457c5.192-1.624,8.079-7.147,6.454-12.337
			c-0.103-0.331-0.223-0.652-0.358-0.964c-1.033-2.696-1.988-5.439-2.864-8.231c-22.745-72.647,17.708-149.977,90.353-172.723
			c72.647-22.745,149.977,17.706,172.724,90.354c22.746,72.648-17.708,149.978-90.354,172.723
			c-50.286,15.745-102.813,1.203-137.929-33.334c-0.256-0.252-0.511-0.506-0.764-0.76c-2.5-2.229-6.067-3.135-9.496-2.062
			c-5.189,1.625-8.078,7.148-6.454,12.336c0.546,1.745,1.541,3.222,2.808,4.364l-0.004-0.004c-0.007,0.006-0.012,0.012-0.017,0.019
			c40.129,39.556,100.211,56.231,157.736,38.219c83.02-25.992,129.247-114.363,103.254-197.383
			C340.086,69.032,251.716,22.805,168.698,48.799z"/>
	</g>
	<g>
		<path d="M230.223,246.827c-4.156-1.47-7.884-2.774-11.6-4.112c-1.223-0.44-2.398-1.017-3.625-1.446
			c-2.612-0.915-4.54,0.065-5.661,2.658c-1.822,4.215-3.511,8.513-5.712,12.526c-0.712,1.299-2.805,2.45-4.349,2.567
			c-4.554,0.344-9.17,0.389-13.717,0.009c-1.61-0.135-3.697-1.477-4.514-2.881c-2.269-3.901-3.99-8.12-5.917-12.219
			c-1.181-2.511-2.887-3.639-5.723-2.507c-4.282,1.709-8.669,3.167-12.894,5.001c-2.43,1.055-4.241,0.269-5.877-1.244
			c-3.244-2.999-6.36-6.138-9.529-9.218c-1.911-1.857-1.817-4.17-1.026-6.338c1.438-3.944,3.159-7.786,4.782-11.661
			c1.231-2.938,0.216-4.931-2.708-6.095c-4.409-1.755-8.821-3.563-13.012-5.768c-1.218-0.641-2.273-2.67-2.381-4.137
			c-0.318-4.339-0.048-8.717-0.158-13.076c-0.073-2.891,1.683-4.396,3.904-5.457c3.969-1.896,8.035-3.587,12.043-5.405
			c2.998-1.36,3.489-2.696,2.152-5.646c-1.553-3.428-3.405-6.755-4.593-10.304c-0.976-2.916-1.41-6.011,1.582-8.532
			c2.45-2.064,4.492-4.605,6.794-6.854c4.573-4.47,5.286-3.488,12.605-1.103c2.821,0.919,5.487,2.306,8.274,3.344
			c2.635,0.981,4.592-0.275,5.776-3.125c1.696-4.081,3.603-8.075,5.407-12.111c0.954-2.134,2.615-2.945,4.902-2.91
			c4.143,0.064,8.295,0.158,12.429-0.041c2.773-0.133,4.606,0.988,5.729,3.325c1.858,3.865,3.557,7.806,5.366,11.696
			c1.625,3.495,3.05,3.9,6.604,2.525c4.482-1.734,8.999-3.442,13.628-4.69c1.314-0.354,3.34,0.587,4.568,1.541
			c2.44,1.895,4.383,4.437,6.839,6.306c4.356,3.314,4.971,7.174,2.642,11.901c-1.148,2.33-1.973,4.817-3.049,7.185
			c-2.274,5.009-1.386,6.926,3.897,8.605c2.948,0.937,5.899,1.928,8.723,3.178c3.134,1.386,5.341,3.403,4.927,7.461
			c-0.375,3.67-0.192,7.411-0.056,11.113c0.093,2.514-0.987,4.221-3.095,5.241c-4.078,1.973-8.19,3.886-12.359,5.657
			c-3.022,1.285-4.01,3.141-2.767,6.005c1.55,3.569,3.133,7.123,4.716,10.677c1.378,3.095,1.139,5.7-1.656,8.083
			c-2.755,2.349-5.093,5.183-7.797,7.601C233.48,245.277,231.79,245.922,230.223,246.827z M227.183,234.836
			c3.998,0.08,6.863-4.08,5.542-6.948c-0.582-1.263-1.223-2.499-1.774-3.774c-1.882-4.355-4.837-8.597-1.588-13.552
			c1.536-2.343,2.614-5.38,4.759-6.834c3.062-2.077,6.87-3.114,10.443-4.355c2.378-0.826,3.034-2.34,3.008-4.662
			c-0.025-2.221-0.672-3.716-2.948-4.421c-2.449-0.758-4.903-1.583-7.22-2.667c-2.332-1.092-5.38-1.134-6.526-4.172
			c-0.825-2.187-2.045-4.26-2.591-6.505c-0.415-1.707-0.465-3.736,0.06-5.388c1.026-3.23,2.269-6.472,3.978-9.382
			c1.803-3.07-0.202-4.678-2.006-5.945c-1.248-0.877-3.503-1.203-4.96-0.722c-3.454,1.141-6.686,2.946-10.043,4.4
			c-0.856,0.371-2.031,0.873-2.744,0.571c-5.62-2.379-12.463-3.372-13.495-11.303c-0.132-1.014-0.718-2.009-1.25-2.922
			c-1.305-2.237-1.298-5.354-5.322-5.496c-4.101-0.145-5.159,2.051-6.091,5.209c-0.762,2.582-1.914,5.053-2.958,7.546
			c-0.372,0.887-0.728,2.114-1.445,2.467c-3.392,1.667-6.808,3.444-10.421,4.425c-1.58,0.429-3.68-0.873-5.493-1.531
			c-2.229-0.809-4.577-1.488-6.562-2.724c-2.953-1.84-4.863-0.809-7.089,1.296c-2.277,2.154-1.416,3.998-0.242,6.087
			c0.475,0.846,0.852,1.751,1.224,2.65c1.708,4.124,4.977,8.022,1.77,12.852c-0.589,0.887-0.909,1.955-1.337,2.947
			c-0.959,2.224-1.961,4.091-4.765,4.823c-3.278,0.856-6.34,2.538-9.498,3.857c-1.743,0.728-2.493,1.834-2.755,3.904
			c-0.499,3.95,1.93,4.866,4.768,6.007c5.202,2.092,11.734,2.475,13.241,9.693c0.215,1.031,0.933,1.969,1.079,2.998
			c0.229,1.616,0.61,3.412,0.142,4.882c-1.008,3.167-2.244,6.332-3.896,9.204c-1.539,2.675-0.668,4.187,1.2,6.135
			c2.017,2.102,3.991,1.791,6.183,0.83c2.584-1.132,5.14-2.333,7.684-3.553c2.388-1.145,4.548-1.276,7.247-0.305
			c5.654,2.034,9.768,5.075,11.091,11.278c0.395,1.85,1.479,3.587,2.438,5.266c0.425,0.744,1.239,1.564,2.021,1.755
			c4.329,1.055,6.49-0.284,7.937-4.525c0.729-2.137,1.88-4.157,2.394-6.335c0.773-3.274,3.034-4.694,5.844-5.898
			c4.417-1.893,8.621-3.261,13.276-0.351C222.011,233.221,225.04,233.976,227.183,234.836z"/>
		<path d="M262.026,211.865c0-1.414,0.017-2.491-0.003-3.567c-0.1-5.429,3.956-10.295,9.463-10.418
			c1.938-0.043,4.24,1.515,5.8,2.963c1.982,1.841,3.364,1.776,4.729-0.292c2.9-4.39,6.545-4.722,11.152-2.779
			c3.58,1.51,5.334,3.983,5.36,7.623c0.021,2.956,0.981,3.96,4.06,3.704c5.538-0.46,6.802,1.002,9.238,6.48
			c1.702,3.828,0.256,6.294-2.084,8.813c-1.759,1.893-2.201,3.2,0.402,5.101c3.798,2.773,3.563,5.731,2.419,10.266
			c-1.535,6.086-5.847,6.334-10.88,6.282c0,1.884-0.02,3.483,0.004,5.081c0.044,2.937-0.765,5.343-3.752,6.576
			c-1.094,0.452-2.138,1.057-3.143,1.689c-2.652,1.669-4.968,1.378-7.322-0.737c-3.805-3.42-3.891-3.364-7.11,0.343
			c-1.828,2.104-3.997,3.55-6.79,2.46c-3.759-1.467-8.482-1.87-8.746-7.616c-0.22-4.774-0.402-4.771-5.235-4.594
			c-2.923,0.107-4.797-0.798-6.442-3.688c-2.66-4.676-3.09-8.479,1.107-12.352c1.37-1.264,1.144-2.79-0.497-4.105
			c-4.63-3.709-5.064-10.938-0.612-14.839c1.462-1.281,3.925-1.45,5.957-2.035C259.918,211.992,260.804,212.007,262.026,211.865z
			 M290.025,203.004c-5.742,8.839-12.036,10.062-19.9,1.731c1.327,11.097-3.122,16.153-13.633,15.924
			c2.813,3.731,6.68,5.347,6.99,10.238c0.297,4.675-4.213,6.506-4.871,11.029c11.028-2.767,14.02,3.745,14.763,13.022
			c3.121-3.316,4.875-6.367,9.519-6.771c4.689-0.408,6.754,2.969,10.16,4.776c1.234-3.972-0.699-7.914,2.638-11.577
			c3.122-3.428,7.322-2.287,11.095-4.774c-0.781-0.449-1.333-0.634-1.706-1.001c-6.163-6.053-6.407-9.429-1.319-16.313
			c0.433-0.585,0.451-1.476,0.662-2.225c-0.808-0.134-1.741-0.597-2.402-0.346c-3.53,1.339-6.263-0.101-8.35-2.627
			c-1.344-1.626-2.138-3.782-2.872-5.811C290.304,206.909,290.343,205.347,290.025,203.004z"/>
		<path d="M216.499,195.266c0.397,13.31-11.775,24.271-24.843,23.908c-13.57-0.377-23.947-10.908-23.919-24.606
			c0.027-13.208,11.118-23.868,24.808-23.701C205.771,171.029,216.991,181.856,216.499,195.266z M178.086,194.76
			c-0.103,7.588,6.295,14.195,13.991,13.999c7.991-0.204,13.748-5.63,14.214-13.103c0.438-7.019-5.191-14.158-14.357-14.2
			C184.405,181.42,178.188,187.25,178.086,194.76z"/>
		<path d="M294.854,228.796c0.739,7.751-6.121,13.837-13.51,13.939c-6.907,0.095-12.974-6.407-12.903-13.552
			c0.076-7.641,5.686-13.088,13.264-13.41C288.666,215.478,295.536,221.757,294.854,228.796z M277.398,229.398
			c0.035,2.973,1.509,4.427,4.399,4.339c2.789-0.085,4.526-1.971,4.464-4.846c-0.059-2.732-1.812-4.439-4.527-4.408
			C278.965,224.515,277.362,226.331,277.398,229.398z"/>
	</g>
</g>
</svg>
