<svg id="Layer_1" data-name="Layer 1" xmlns="http://www.w3.org/2000/svg" viewBox="0 0 400 400"><defs><style>.cls-1{fill:#333;}</style></defs><title>icon</title><g id="Layer_201116" data-name="Layer%201116"><path class="cls-1" d="M265.78,45.94a91.94,91.94,0,0,0-51.21,15.38,10.3,10.3,0,1,0,11.43,17l0,0a71.22,71.22,0,0,1,95.44,13l13.85-13.85C318.8,57,294.79,46,265.78,45.94Z"/><path class="cls-1" d="M336.77,124.84a69.94,69.94,0,0,1-6.89,43.59,71.23,71.23,0,0,1-9.08,13.5c-2.65,3.1-5.95,5.55-8.82,8.42l-2.57,2.57-3.34,3.34L302,200.32,273.4,228.93l-6.92,6.92L259.32,243,252,250.34l-7.44,7.44-7.48,7.48-7.46,7.46-7.37,7.37L215,287.3l-7,7L201.37,301,195,307.29l-11.29,11.29-4.84,4.84-4.21,4.21-3.51,3.51-4.66,4.66-1,1-0.15.15-101-101L193.23,107.05A9.94,9.94,0,0,0,179.16,93L43.56,228.59c-0.11.1-.22,0.19-0.33,0.3a10,10,0,0,0,0,14.09c0.11,0.11.22,0.2,0.33,0.3L158,357.74c0.1,0.11.19,0.22,0.3,0.33a10,10,0,0,0,14.06,0l1.94-1.94,2.33-2.33,7-7,4.57-4.57,10.91-10.91,6.21-6.21,20.85-20.85,7.46-7.46,15.3-15.3,7.7-7.7,7.65-7.65,7.53-7.53,7.34-7.34,7.09-7.09,6.77-6.77,6.38-6.38,5.93-5.93,5.41-5.41,4.82-4.82,4.16-4.16,3.44-3.44,2.66-2.66,1.8-1.8a124.22,124.22,0,0,0,11.19-12.35,89.58,89.58,0,0,0,8.61-13.66,88.08,88.08,0,0,0,9.22-31.52q0.41-4.17.42-8.37a102.44,102.44,0,0,0-4.4-28Z"/><path class="cls-1" d="M359.49,77.55h0a9.93,9.93,0,0,0-14,0l-1.56,1.56-58.37,58.37-0.32.16a17,17,0,0,1-3.1,3c-0.65.5-1.28,1-1.92,1.57a10.1,10.1,0,0,1-7.87,3.67,9.9,9.9,0,0,1-9.9-9.87,9.78,9.78,0,0,1,3.46-7.4,10.06,10.06,0,0,1,3.73-2,14.89,14.89,0,0,1,4.31-.49c1.49,0,2.91.58,4.4,0.58a10,10,0,0,0,10-10,10.74,10.74,0,0,0-2.32-6.6c-1.82-2.21-4.88-2.76-7.45-3.27-0.84-.17-1.69-0.32-2.54-0.42A30,30,0,1,0,295,156.05l0.28-.26L353,98l6.47-6.47A9.93,9.93,0,0,0,359.49,77.55Z"/></g></svg>