<?xml version="1.0" encoding="utf-8"?>
<!-- Generator: Adobe Illustrator 19.1.0, SVG Export Plug-In . SVG Version: 6.00 Build 0)  -->
<svg version="1.1" id="Layer_1" xmlns="http://www.w3.org/2000/svg" xmlns:xlink="http://www.w3.org/1999/xlink" x="0px" y="0px"
	 width="400px" height="400px" viewBox="0 0 400 400" enable-background="new 0 0 400 400" xml:space="preserve">
<g id="Layer_x25_201121">
	<path fill="#323232" d="M41.309,221.379c0,2.029,1.492,8.535,3.501,16.104c0.566,2.131,1.174,4.348,1.8,6.571
		c1.684,5.983,3.506,12.023,5.044,16.635C86.826,335.172,146.827,360,200.62,360C287.517,360,362,291.724,362,198.62
		c0-59.742-32.274-112.641-82.699-139.867C255.993,45.541,229.051,38,200.346,38C111.788,38,40,109.788,40,198.345
		c0,6.974,0.445,13.844,1.309,20.583V221.379z M130.275,144.827H78.55c12.414-37.241,57.931-72.414,91.035-76.552
		C150.965,88.964,136.482,122.068,130.275,144.827z M213.034,88.964c12.414,16.552,22.759,37.242,28.966,55.862
		c-16.552,4.138-26.897,28.966-41.38,43.449l-41.38-43.449c4.138-14.483,24.828-68.276,41.38-68.276
		C206.827,76.55,210.965,84.826,213.034,88.964z M250.275,239.999h-99.311c-2.069-8.276,0-55.862,0-64.138
		c6.207,6.207,41.38,45.517,49.655,45.517c12.414,0,45.517-45.517,49.655-49.655C250.275,190.344,258.551,213.103,250.275,239.999z
		 M244.068,266.896c-6.207,10.345-26.897,55.862-43.449,55.862c-14.483,0-41.38-53.793-41.38-55.862H244.068z M164.958,328.474
		c-33.406-9.062-61.66-30.647-79.414-59.4c-0.282-0.723-0.544-1.448-0.787-2.178h45.518
		C136.433,287.422,144.626,307.948,164.958,328.474z M316.462,266.895c-8.513,14.389-19.622,27.059-32.684,37.364
		c-1.326,1.046-2.673,2.067-4.038,3.063c-12.543,9.154-26.724,16.192-42.024,20.596c15.442-24.934,25.38-39.157,35.318-61.022
		L316.462,266.895z M332.536,171.722c1.724,8.606,2.631,17.51,2.631,26.624c0,14.537-2.3,28.539-6.558,41.657l-49.368-0.003
		c0-2.069,2.069-6.207,2.069-47.586c0-8.276-2.069-14.483-4.138-20.69L332.536,171.722z M246.316,71.561
		c2.362,0.857,4.691,1.779,6.99,2.762c14.212,6.241,29.861,16.773,43.104,29.425c11.603,11.783,21.052,25.687,27.717,41.081
		l-53.161-0.003c-8.276-22.759-18.621-55.862-39.31-76.552C236.083,68.591,241.045,69.726,246.316,71.561z M66.99,178.391
		c0.332-2.241,0.717-4.465,1.158-6.669l53.85,0.002c0,20.69-2.069,39.311,0,68.276H72.344c-2.069-12.414-6.207-35.173-6.207-41.38
		C66.137,195.457,67.345,186.25,66.99,178.391z M44.81,237.483c0.554,2.208,1.156,4.4,1.8,6.571
		C45.985,241.831,45.376,239.614,44.81,237.483z"/>
</g>
</svg>
