<?xml version="1.0" encoding="utf-8"?>
<!-- Generator: Adobe Illustrator 19.1.0, SVG Export Plug-In . SVG Version: 6.00 Build 0)  -->
<svg version="1.1" id="Layer_1" xmlns="http://www.w3.org/2000/svg" xmlns:xlink="http://www.w3.org/1999/xlink" x="0px" y="0px"
	 width="400px" height="400px" viewBox="0 0 400 400" enable-background="new 0 0 400 400" xml:space="preserve">
<g id="Layer_x25_20166">
	<path fill="#333333" d="M268.459,253.484c-8.906-4.32-13.321-7.421-16.514-7.421c-1.275,0-2.363,0.49-3.456,1.603
		c-3.851,3.883-0.212,7.583,5.78,20.148c16.017,33.631,48.58,92.249,48.58,92.249l7.134-50.358l49.919-7.196
		C359.902,302.508,301.797,269.658,268.459,253.484z M296.725,328.553l-36.267-67.936l39.947,37.064L296.725,328.553z"/>
	<path fill="#333333" d="M268.687,322.013c-8.362,4.697-17.334,8.601-26.853,11.581c-51.08,15.994-104.436,1.222-140.106-33.859
		l-0.776-0.772c-2.539-2.265-6.163-3.185-9.646-2.095c-5.271,1.65-8.205,7.261-6.556,12.531c0.555,1.772,1.565,3.272,2.853,4.433
		l-0.021,0.016c40.763,40.181,101.793,57.119,160.226,38.823c10.339-3.237,20.116-7.428,29.265-12.443L268.687,322.013z
		 M352.691,152.172C326.288,67.842,236.522,20.886,152.194,47.29C67.864,73.692,20.906,163.457,47.309,247.787
		c0.992,3.17,2.091,6.276,3.261,9.338c0.063,0.201,0.145,0.398,0.218,0.592l0.164,0.426c2.014,4.624,7.228,7.084,12.15,5.543
		c5.273-1.65,8.206-7.261,6.556-12.532c-0.104-0.336-0.227-0.662-0.363-0.979c-1.05-2.738-2.02-5.524-2.909-8.361
		c-11.645-37.194-6.975-75.593,9.963-107.495c-1.675,3.485-1.873,7.006-2.007,9.634c-0.069,1.331-0.134,2.588-0.357,3.6
		c-0.545,2.473,0.19,4.993,1.896,6.767c-0.447,2.163-0.073,4.559,1.119,7.145l0.051,0.11c1.121,5.7,9.288,10.89,9.37,10.939
		c1.437,0.875,3.143,1.373,4.839,1.432c0.117,0.198,0.235,0.383,0.355,0.556c1.882,2.816,4.896,3.946,6.72,4.435
		c0.259,0.646,0.564,1.248,0.914,1.802c0.143,1.751,0.616,4.072,2.453,6c0.695,0.726,1.524,1.316,2.427,1.729
		c0.98,1.327,2.195,2.281,3.622,2.843l0.357,0.351c0.855,0.847,2.026,2.007,3.589,2.75c0.62,0.31,1.277,0.534,1.955,0.67
		c-0.628,0.716-1.274,1.522-1.802,2.456c-2.82,2.21-3.441,4.637-3.394,6.443l-0.194,0.516l-0.168,0.44
		c-1.257,3.342-1.34,6.151-0.246,8.553c-1.803,5.775-1.026,10.206,2.366,13.218c2.072,1.704,5.381,6.842,6.001,9.323
		c0.068,0.27,0.151,0.536,0.247,0.794c2.735,7.315,7.123,12.219,14.217,15.895c2.338,1.23,3.474,2.825,3.474,4.877l0.011,0.409
		c0.037,0.671,0.036,1.398,0.036,2.175c0.004,2.852,0.008,6.066,1.212,9.342l-0.056,0.477c-0.192,1.602-0.477,3.976,0.416,6.523
		c-0.068,1.415,0.193,2.776,0.772,4.036c0.169,0.379,0.389,0.823,0.635,1.308l0.392,0.791c-0.011,1.544,0.003,3.674,0.105,5.853
		c-0.313,1.259-0.856,4.124,0.925,6.909c0.689,1.39,2.173,5.51,2.35,6.403c0.06,1.549,0.6,3.082,1.507,4.293l0.117,0.367
		c0.067,0.206,0.093,0.286,0.108,0.399c-0.157,2.084,0.545,4.205,1.903,5.714c0.255,0.88,0.654,1.708,1.182,2.458
		c1.554,2.251,3.447,4.122,5.113,5.767l0.089,0.088c0.499,0.493,0.977,0.965,1.413,1.428c3.971,4.189,9.466,4.758,12.794,5.103
		c0.567,0.06,1.113,0.116,1.636,0.195c0.671,0.171,1.376,0.258,2.1,0.258c0.223,0,0.447-0.01,0.498-0.017
		c1.325-0.061,2.504-0.388,3.702-0.748l0.11-0.035c2.737-0.722,4.804-2.891,5.395-5.665c0.585-2.77-0.425-5.591-2.636-7.364
		c-1.266-1.013-2.619-1.567-3.805-1.939c0.507-1.309,0.659-2.679,0.451-4.096c-0.122-0.828-0.415-1.929-1.102-3.054
		c0.643-1.006,1.05-2.156,1.188-3.375c0.226-0.361,0.415-0.724,0.557-1.064c3.591-0.783,6.14-2.348,7.771-4.763
		c0.717-1.06,1.206-2.25,1.442-3.494c0.98-0.523,1.876-1.23,2.676-2.115l0.236-0.279c1.143-1.304,2.307-2.727,2.979-4.52
		c0.838-1.188,4.127-5.497,4.662-6.187c2.742-3.145,3.027-6.666,3.162-8.614c0.971-0.729,2.113-1.34,3.605-1.937
		c0.286-0.117,0.77-0.337,1.42-0.646l0.519-0.244c0.286,0.022,0.571,0.033,0.852,0.033c6.688,0,9.183-5.426,10.249-7.745
		c0.106-0.23,0.402-0.875,0.568-1.171c3.939-3.491,4.13-9.195,4.314-14.725c0.024-0.729,0.06-1.836,0.121-2.767
		c1.245-1.129,2.694-2.727,4.989-5.348c0.672-0.77,1.296-1.485,1.825-2.054c3.667-3.984,4.789-9.26,3.164-14.838
		c-1.424-5.052-4.385-7.734-9.043-8.195c-0.312-0.243-0.733-0.615-1.116-0.954c-1.835-1.625-4.609-4.081-8.828-4.679
		c-1.27-0.171-2.508-0.145-3.657-0.092c-0.266,0.012-0.537,0.017-0.759,0.017c-0.672-0.284-1.569-0.638-2.65-0.856
		c-2.14-1.967-5.755-3.131-8.376-3.75c-0.554-0.146-1.133-0.247-1.727-0.3c-0.379-0.252-0.779-0.467-1.197-0.645l-0.079-0.155
		c-0.334-0.911-0.758-1.803-1.177-2.681c-1.132-2.383-2.134-4.269-3.3-5.672c-3.142-5.456-11.2-7.725-14.866-7.725
		c-0.696,0-1.371,0.061-2.018,0.18c-0.552-0.948-1.508-2.582-3.418-3.97c-0.055-2.684-1.481-5.161-3.914-6.672
		c-1.318-0.824-2.853-1.209-4.456-1.111c-0.512,0.035-1.021,0.116-1.517,0.242c-0.52-0.008-1.039,0.039-1.573,0.145l-0.084-0.008
		c-2.202-0.189-4.169,0.052-5.86,0.715c-0.817-0.271-1.618-0.452-2.42-0.547c-0.34-0.271-0.702-0.524-1.08-0.757
		c-0.204-0.126-0.414-0.239-0.625-0.343l-0.275-0.165c-0.053-0.062-0.114-0.114-0.168-0.174c-2.972-0.023-5.947,0.199-8.926,0.413
		l-0.046,0.015c-3.143,0.224-5.96,0.893-8.508,2.001c-0.23,0.141-0.477,0.253-0.739,0.33c-0.835,0.4-1.644,0.847-2.421,1.35
		c-1.492-0.261-3.052-0.416-4.629-0.464c0.522-0.944,1.29-2,2.281-3.128c0.121-0.15,0.206-0.302,0.309-0.454
		c-0.298-1.037-0.039-2.247,0.733-3.012l0.141-0.131c0.377-0.359,0.828-0.71,1.311-0.925c0.186-0.285,0.378-0.566,0.579-0.837
		l0.057-0.067c1.012-2.889,3.042-4.993,5.381-7.358c4.266-4.314,4.896-9.764,4.986-15.644c0.001-0.066,0.017-0.122,0.021-0.186
		c-0.497-1.44-1.388-2.685-2.591-3.571c0.499-2.522,0.819-3.617,0.969-4.053c1.821-1.43,3.805-2.735,5.748-3.781l0.259-0.136
		c2.52-1.3,4.895-2.678,6.265-5.223c0.368-0.685,0.625-1.414,0.766-2.17l0.164-0.433c0.799-0.726,1.496-1.63,2.081-2.701
		c1.342-0.71,2.642-1.483,3.743-2.227c0.967-0.196,2.273-0.542,3.654-1.265c1.278-0.666,2.319-1.687,3.022-2.927
		c2.188,0.863,4.736,0.688,6.958-0.562c0.272-0.109,1.069-0.363,2.399-0.763c3.281-0.986,6.941-2.085,9.374-4.541
		c0.883,0.247,1.815,0.34,2.741,0.273c1.025,0.432,2.101,0.65,3.206,0.65c3.064,0,7.029-1.89,8.19-7.204
		c0.325-0.954,0.453-1.985,0.372-3.004c0.133-1.427-0.147-2.852-0.817-4.141c-0.171-0.325-0.365-0.638-0.578-0.931
		c-0.28-0.663-0.639-1.271-1.073-1.821c0.206-1.431,0.013-2.909-0.569-4.264c-0.432-1.005-1.071-1.925-1.904-2.739
		c-0.784-1.4-2.007-2.519-3.483-3.174l-0.09-0.04c0.745-0.287,1.496-0.647,2.218-1.063c0.498,0.777,1.066,1.548,1.693,2.297
		c1.917,2.477,8.308,5.672,12.471,5.672c2.952,0,5.54-1.346,7.11-3.707c0.68-1.044,1.437-2.237,2.096-3.556
		c1.254-0.31,2.707-0.81,4.101-1.743c0.213-0.121,0.866-0.311,1.396-0.457c0.944,1.052,2.16,1.809,3.543,2.191l0.191,0.087
		l0.473,0.217c1.925,1.46,4.28,2.229,6.828,2.229c2.903,0,5.514-1.011,7.248-1.781c4.17-1.914,5.367-5.846,4.703-8.895
		c-0.337-1.544-1.217-3.434-3.376-4.865c1.01-1.257,1.51-2.718,1.63-3.981c0.009-0.099-0.003-0.195,0.001-0.294
		c0.97,0.253,1.936,0.517,2.898,0.792l-0.091,0.115c-2.347,3.267-1.639,7.893,1.587,10.319c0.205,0.152,0.419,0.296,0.64,0.428
		l0.35,0.374c-1.954,1.212-3.291,3.237-3.594,5.613c-0.284,2.227,0.403,4.079,1.205,5.411c-0.083,0.445-0.126,0.898-0.127,1.354
		c-0.003,2.105,0.856,4.068,2.378,5.475c0.498,1.297,1.211,2.397,2.189,3.371c2.057,1.965,5.11,2.902,8.055,2.538
		c0.468,0.466,0.996,0.868,1.571,1.195l0.189,0.293c-0.31,0.406-0.542,0.789-0.71,1.107c-1.036,1.963-1.722,5.13,0.808,9.137
		c0.399,1.106,0.887,1.973,1.234,2.578c0.054,1.873,0.683,4.327,3.032,6.514c0.722,1.669,1.81,2.943,3.25,3.808
		c-0.096,0.261-0.183,0.531-0.261,0.809c-0.592,2.335-0.374,4.381-0.061,5.919c-1.44,1.032-3.254,2.701-3.98,5.376
		c-1.023,1.21-2.053,3.11-2.091,5.878c-4.229,6.223-1.838,12.572-0.533,16.037c0.432,1.146,1.083,2.877,1.001,3.377l-0.193,0.916
		c-0.782,3.663-1.126,6.219,0.724,10.389c0.615,4.933,2.561,8.063,5.789,9.319c0.845,0.921,1.707,1.619,2.363,2.15l0.372,0.302
		c1.605,4.995,5.507,7.701,8.119,9.514l0.121,0.084c0.52,0.361,1.038,0.719,1.566,1.133c0.194,0.15,0.375,0.317,0.6,0.521
		l0.133,0.122c0.851,0.766,2.137,1.923,3.84,2.787c1.568,0.806,3.226,1.214,4.929,1.214c2.666,0,4.734-1.024,5.972-1.637
		c0.211-0.104,0.565-0.279,0.701-0.323c0.153-0.043,0.461-0.026,0.641,0.058c1.016,0.5,2.312,0.798,3.467,0.798
		c2.414,0,4.418-1.036,7.229-2.489l0.582-0.301c1.398,1.895,3.43,3.117,5.709,3.454l-0.007,0.282
		c-4.136,5.128,0.054,11.92,1.877,14.876l0.303,0.481c1.085,2.166,1.867,5.915,1.681,7.252c-0.181,1.35-0.188,2.703-0.195,4.017
		c-0.004,1.648-0.051,2.384-0.08,2.682c-1.335,2.106-2.209,4.15-3.054,6.127l-0.087,0.204c-0.259,0.604-0.522,1.217-0.798,1.817
		c-2.364,5.104-2.333,10.105-2.307,14.522c0.018,2.927,0.035,5.693-0.718,7.75l-0.204,0.482l37.14,15.805
		C360.51,239.841,366.193,195.296,352.691,152.172z M122.769,208.194l0.132-0.441c0.916-0.901,1.592-1.868,2.053-2.935l0.313-0.35
		c1.323-1.476,5.236-5.841,3.49-10.705c0.21-1.023,0.444-2.232,0.457-3.551c0.22-0.299,0.424-0.609,0.618-0.927
		c1.415,0.887,3.061,1.37,4.771,1.37c2.326,0,4.475-0.926,6.012-2.537l0.113,0.028c0.198,0.053,0.405,0.096,0.573,0.124
		c0.335,0.061,0.676,0.096,0.908,0.105c0.247,0.018,0.404,0.017,0.485,0.02c0.957,0.057,1.909-0.147,2.796-0.485
		c2.135,0.683,4.268,0.666,6.248-0.01c0.787,1.452,2.222,3.026,4.834,3.935c0.355,0.567,0.863,1.298,1.566,2.063
		c0.8,0.849,5.062,5.085,10.419,5.085c1.06,0,2.085-0.164,3.059-0.487c0.48,0.151,1.031,0.381,1.462,0.599
		c0.415,0.798,0.973,1.517,1.644,2.118c0.478,0.867,1.08,2.1,1.441,2.913c0.108,0.72,0.313,1.435,0.609,2.128
		c0.851,1.999,2.676,4.1,4.827,5.582c1.482,2.561,3.951,4.017,6.852,4.017c0.678,0,1.339-0.083,1.999-0.25
		c0.412,0.989,1.017,1.85,1.809,2.57l0.143,0.132c0.113,0.099,0.228,0.194,0.41,0.336l0.423,0.301l0.193,0.123
		c0.497,0.308,1.034,0.557,1.594,0.741c1.723,0.567,3.585,0.48,5.238-0.222c1.532,0.459,3.325,0.625,5.617,0.511l0.221-0.011
		l0.412-0.02c0.378,0.283,1.003,0.836,1.276,1.079c0.942,0.834,2.115,1.872,3.642,2.793c0.495,0.292,0.994,0.547,1.501,0.767
		l-1.366,1.549c-0.699,0.799-2.734,3.127-3.602,3.952c-4.778,2.575-4.96,8.097-5.139,13.451c-0.099,2.934-0.227,4.345-0.325,5.023
		c-1.272,1.361-2.101,2.831-2.697,4.048c-1.801,0.284-3.449,1.066-5.056,1.828l-0.263,0.126l-0.251,0.12
		c-3.741,1.496-6.676,3.321-9.233,5.739c-3.256,3.061-3.521,6.851-3.665,8.902l-0.04,0.569c-0.747,0.953-2.145,2.787-3.231,4.233
		c-0.698,0.362-1.343,0.835-1.891,1.389l-0.121,0.112c-0.714,0.641-1.322,1.316-1.822,2.02c-0.672-0.268-1.434-0.508-2.277-0.643
		c-3.628-0.563-7.093,1.555-8.238,5.036c-0.489,1.488-0.548,2.996-0.185,4.463c-2.056,0.565-3.78,1.988-4.716,3.904
		c-0.947,0.425-1.798,1.036-2.543,1.827c-0.348,0.376-0.654,0.779-0.917,1.202c-0.588-0.824-1.354-1.536-2.239-2.08
		c-0.184-0.453-0.371-0.894-0.553-1.309c0.076-0.601,0.09-1.157,0.045-1.664c-0.107-1.776-0.149-4.143-0.115-6.501
		c0.025-2.265-0.756-4.306-1.598-6.042c0.059-1.387-0.198-2.742-0.756-3.98l0.025-0.205c0.216-1.803,0.543-4.528-0.733-7.333
		c-0.311-0.696-0.316-2.854-0.319-4.281c-0.001-0.893-0.003-1.906-0.046-2.694c-0.049-7.604-4.232-14.147-11.485-17.959
		c-3.759-1.949-5.609-3.941-7.032-7.588c-1.235-4.4-4.714-10.329-8.344-14.311c0.194-0.557,0.473-1.279,0.874-2.197
		C124.483,212.19,123.712,209.73,122.769,208.194z M115.256,159.59c-6.618-2.628-13.652-0.862-19.746,3.615
		c1.614-6.678,2.721-13.166,3.652-18.626l0.212-1.26c1.242-1.54,2.347-2.944,3.356-4.262c5.368,4.624,11.323,7.274,16.639,7.274
		c2.934,0,5.758-0.693,8.443-2.064C123.241,148.001,119.043,153.121,115.256,159.59z M130.835,118.251
		c-0.077,0.14-0.15,0.282-0.218,0.426c-2.792,1.554-5.473,3.37-7.974,5.402c-0.903,0.728-1.686,1.606-2.373,2.663
		c-0.502,0.004-1.003,0.034-1.495,0.116c-0.823-0.292-1.913-0.601-3.152-0.688c-1.252-0.116-2.351-0.174-3.265-0.174
		c-2.134,0-3.947,0.431-5.4,1.283c-0.515,0.039-1.005,0.103-1.46,0.168c-2.238-0.367-4.545,0.316-6.23,1.863
		c-0.331,0.304-0.634,0.636-0.904,0.99c-0.341,0.228-0.836,0.547-1.554,0.99c-0.493,0.304-0.972,0.63-1.215,0.828l-0.326,0.28
		c-0.495,0.451-0.923,0.934-1.295,1.432c0.316-1.927,0.478-3.871,0.262-5.404c0.388-1.227,0.619-2.403,0.703-3.57
		c1.703-3.324,11.158-14.984,15.677-19.562c3.009-3.03,5.727-5.602,8.335-7.878c0.21,0.722,0.53,1.418,0.959,2.059
		c0.093,0.14,0.191,0.276,0.294,0.41c-0.11,0.587-0.148,1.185-0.114,1.79c0.062,1.096,0.358,2.146,0.866,3.094
		c-0.989,1.853-1.553,3.449-1.68,4.758c-0.226,2.365,0.571,4.604,2.27,6.333c1.391,1.362,3.308,2.143,5.259,2.143
		c0.863,0,1.644-0.118,2.393-0.364c0.519,0.253,1.067,0.448,1.644,0.584L130.835,118.251z M271.658,95.667
		c0.739-0.115,1.521-0.309,2.302-0.64c0.325-0.022,0.663-0.062,1.024-0.119c1.651-0.263,3.142-1.07,4.261-2.263
		c0.716,0.507,1.428,1.021,2.129,1.538c-2.047,0.386-3.876,1.559-5.03,3.348c-0.423,0.242-0.821,0.524-1.188,0.843
		c-0.191,0.165-0.374,0.34-0.547,0.524c-0.204,0.027-0.406,0.06-0.604,0.099c-0.665-0.89-1.482-1.757-2.445-2.593
		C271.602,96.171,271.635,95.925,271.658,95.667z M330.473,194.824l-0.06,0.179c-0.278,0.83-0.825,2.465-0.592,4.531
		c-0.954,2.087-0.796,4.008-0.74,4.682c0.074,0.908,0.314,1.788,0.705,2.603c-0.395,0.665-0.686,1.393-0.86,2.155
		c-0.717,3.15-0.677,6.574-0.646,9.295l0.001,0.385l0.009,1.127c-1.053,1.516-1.542,3.328-1.528,5.631
		c0.011,2.17,0.97,4.207,2.575,5.597c-0.192,0.97-0.382,2.043-0.51,3.186c-3.844,2.728-3.699,6.191-3.232,8.088
		c0.225,0.917,0.627,1.78,1.184,2.548c-0.58,1.385-1.154,2.779-1.74,4.199c-1.102,2.677-2.101,5.092-3.146,7.508
		c-0.136,0.198-0.519,0.654-0.723,0.898c-0.693,0.824-1.691,2.013-2.483,3.504c0.497-2.995,0.479-5.858,0.462-8.492
		c-0.021-3.111-0.04-6.049,0.939-8.162c0.355-0.777,0.683-1.54,1.001-2.283l0.045-0.105c0.705-1.645,1.312-3.066,2.158-4.348
		c2.162-3.435,2.173-7.554,2.182-10.278c0.003-0.744,0.006-1.669,0.057-2.047c0.729-5.218-1.091-11.894-3.078-15.862
		c-0.184-0.38-0.479-0.894-0.986-1.715c-0.148-0.241-0.423-0.688-0.708-1.177c1.345-3.47,1.125-7.483,0.85-9.683
		c-0.91-7.28-4.143-10.179-6.688-11.326c-0.934-0.425-2.009-0.682-3.116-0.752c-1.007-1.462-2.308-2.589-3.873-3.355
		c-1.228-0.61-2.585-0.919-4.031-0.919c-3.161,0-6.21,1.451-10.171,3.499l-0.233,0.12l-0.425,0.219
		c-2.634-0.598-5.4-0.539-7.854,0.171c-0.74,0.204-1.413,0.461-1.983,0.709c-0.313-0.275-0.644-0.556-0.976-0.812
		c-0.745-0.584-1.5-1.114-2.339-1.697c-0.693-0.48-2.104-1.46-2.444-1.896c-0.976-3.869-3.606-5.996-5.2-7.285l-0.265-0.214
		c-0.501-1.517-1.497-2.835-2.841-3.767c-0.137-0.492-0.313-0.961-0.54-1.441c-0.106-0.215-0.219-0.485-0.239-0.444
		c0.001-0.154,0.117-0.696,0.241-1.277l0.214-1.018c0.956-4.714-0.616-8.884-1.655-11.644c-0.499-1.324-0.793-2.208-0.878-2.639
		l0.139-0.14c1.495-1.595,2.305-3.611,2.366-5.864c0.423-0.646,0.767-1.351,1.03-2.107c1.464-0.962,3.579-2.591,4.678-5.476
		c1.039-2.799,0.717-5.34,0.34-7.066l0.279-0.311c3.155,0.133,6.1-1.192,7.993-3.637c0.278-0.094,0.694-0.226,1.318-0.41
		l0.712-0.213c0.306-0.061,1.108-0.185,2.05-0.301c0.212,0.885,0.562,1.738,1.04,2.53c2.36,3.913,6.893,4.965,9.693,5.58
		c0.965,0.977,2.699,2.556,5.445,3.196c0.426,0.314,0.884,0.629,1.373,0.906c1.264,0.738,2.621,1.112,4.035,1.112
		c2.002,0,4.007-0.852,5.426-2.267c0.26,0.07,0.518,0.133,0.77,0.189c0.228,0.052,0.457,0.093,0.688,0.124
		c0.593,3.039,2.824,6.611,6.092,11.843c0.505,0.807,1.381,2.208,1.77,2.857c0.128,0.339,0.278,0.672,0.447,0.994
		c0.695,1.614,1.404,3.225,2.112,4.837l0.097,0.221c1.857,4.223,3.778,8.589,5.408,12.9c0.119,0.316,0.262,0.628,0.425,0.927
		l0.175,0.679c0.523,2.039,1.048,4.084,1.587,6.085c0.725,3.851,1.2,7.617,1.443,11.461
		C332.934,190.467,331.119,192.373,330.473,194.824z"/>
</g>
</svg>
