<?xml version="1.0" encoding="utf-8"?>
<!-- Generator: Adobe Illustrator 19.1.0, SVG Export Plug-In . SVG Version: 6.00 Build 0)  -->
<svg version="1.1" id="Layer_1" xmlns="http://www.w3.org/2000/svg" xmlns:xlink="http://www.w3.org/1999/xlink" x="0px" y="0px"
	 width="400px" height="400px" viewBox="0 0 400 400" enable-background="new 0 0 400 400" xml:space="preserve">
<g id="Layer_x25_20123">
	<path fill="#333333" d="M249.831,286.377l-39.498,39.498V210.017c0-5.523-4.476-10.001-10-10c-5.523,0-10,4.477-10,10v116.525
		l-40.164-40.164c-3.905-3.904-10.237-3.905-14.143,0c-3.905,3.905-3.904,10.237,0.001,14.143l56.568,56.568
		c2.038,2.039,4.737,3.003,7.408,2.913c0.091,0.003,0.18,0.013,0.27,0.013c0.02,0,0.04,0.003,0.06,0.003
		c0.011,0,0.02-0.001,0.031-0.001c0.319-0.001,0.637-0.017,0.955-0.048c0.149-0.015,0.295-0.043,0.442-0.064
		c0.176-0.025,0.352-0.046,0.526-0.08c0.166-0.033,0.326-0.079,0.49-0.12c0.152-0.039,0.307-0.072,0.459-0.118
		c0.158-0.048,0.311-0.107,0.465-0.163s0.309-0.106,0.46-0.168c0.141-0.059,0.275-0.127,0.413-0.192
		c0.159-0.075,0.319-0.146,0.475-0.229c0.128-0.068,0.248-0.146,0.373-0.22c0.156-0.093,0.314-0.182,0.467-0.284
		c0.131-0.088,0.254-0.186,0.38-0.28c0.136-0.101,0.274-0.195,0.405-0.303c0.205-0.168,0.399-0.349,0.59-0.533
		c0.046-0.043,0.095-0.081,0.14-0.126l56.568-56.569c3.906-3.905,3.906-10.236,0-14.142
		C260.067,282.472,253.736,282.472,249.831,286.377z"/>
	<path fill="#333333" d="M274.163,58.242c-78.301-40.96-174.978-10.689-215.936,67.61C28.839,182.029,36.12,247.663,71.495,295.396
		c0.257,0.346,0.518,0.688,0.776,1.03c1.834,2.138,4.55,3.497,7.588,3.497c5.524,0,10-4.477,10-10c0-2.437-0.873-4.668-2.321-6.402
		c0.008-0.009,0.013-0.018,0.021-0.027c-30.964-41.77-37.339-99.212-11.622-148.375c35.843-68.518,120.441-95.006,188.96-59.164
		c68.52,35.843,95.006,120.444,59.163,188.96c-3.326,6.357-7.084,12.341-11.197,17.958c0.036,0.038,0.066,0.077,0.093,0.12
		c-1.784,1.806-2.887,4.285-2.887,7.024c0,5.523,4.477,10,10,10c2.943,0,5.581-1.279,7.411-3.303
		c0.428-0.473,0.81-0.986,1.142-1.535c4.84-6.557,9.255-13.552,13.15-20.999C382.733,195.881,352.463,99.203,274.163,58.242z"/>
</g>
</svg>
