<?xml version="1.0" encoding="utf-8"?>
<!-- Generator: Adobe Illustrator 19.1.0, SVG Export Plug-In . SVG Version: 6.00 Build 0)  -->
<svg version="1.1" id="Layer_1" xmlns="http://www.w3.org/2000/svg" xmlns:xlink="http://www.w3.org/1999/xlink" x="0px" y="0px"
	 width="400px" height="400px" viewBox="0 0 400 400" enable-background="new 0 0 400 400" xml:space="preserve">
<g id="Layer_x25_20188">
	<path fill="none" d="M60,177v134c0,0,27-12,60-12s59.667,10.667,69,18V183c0,0-29.667-24-69-24S60,177,60,177z"/>
	<path fill="#333333" d="M354,161c-4.667-3.333-28.667-22-74-22s-80,24-80,24c-15-8.667-44-24-80-24s-61.333,14.667-72,20
		s-8,20-8,20s0,136.667,0,149s11,11,11,11h129c0,0,1.333,20,20,20s20-20,20-20s116.667,0,128,0s12-11,12-11s-0.667-153.333,0-157
		S358.667,164.333,354,161z M189,317c-9.333-7.333-36-18-69-18s-60,12-60,12V177c0,0,20.667-18,60-18s69,24,69,24V317z M340,311
		c0,0-27-12-60-12s-59.667,10.667-69,18V183c0,0,29.667-24,69-24s60,18,60,18V311z"/>
	<path fill="#333333" d="M200,41c4,0,11,3,11,3l140,65c0,0,10.667,5,5,14s-12,3.333-16,1S200,59,200,59S61.667,123.333,55,127
		s-13-0.667-15-5s2.667-10.333,6-12s144-66,144-66S193.667,41,200,41z"/>
</g>
</svg>
