<?xml version="1.0" encoding="utf-8"?>
<!-- Generator: Adobe Illustrator 19.1.0, SVG Export Plug-In . SVG Version: 6.00 Build 0)  -->
<svg version="1.1" id="Layer_1" xmlns="http://www.w3.org/2000/svg" xmlns:xlink="http://www.w3.org/1999/xlink" x="0px" y="0px"
	 width="400px" height="400px" viewBox="0 0 400 400" enable-background="new 0 0 400 400" xml:space="preserve">
<g id="Layer_x25_20169">
	<path fill="#333333" d="M352.691,152.193C326.288,67.863,236.522,20.906,152.194,47.311
		C67.864,73.713,20.906,163.478,47.309,247.808c0.993,3.169,2.091,6.276,3.261,9.337c0,0.003,0.001,0.004,0.002,0.007
		c0.063,0.201,0.143,0.392,0.216,0.586c0.055,0.142,0.109,0.284,0.164,0.426c2.014,4.625,7.228,7.084,12.151,5.543
		c5.273-1.65,8.206-7.26,6.556-12.532c-0.104-0.336-0.227-0.662-0.363-0.979c-1.05-2.738-2.02-5.524-2.909-8.361
		C43.281,168.042,84.373,89.491,158.164,66.386c73.794-23.105,152.345,17.985,175.45,91.78
		c23.105,73.795-17.987,152.345-91.78,175.449c-51.08,15.993-104.436,1.222-140.106-33.86c-0.26-0.256-0.519-0.514-0.777-0.772
		c-2.539-2.264-6.163-3.185-9.645-2.094c-5.271,1.65-8.205,7.261-6.556,12.531c0.555,1.773,1.565,3.273,2.853,4.433
		c-0.001-0.002-0.002-0.003-0.004-0.004c-0.007,0.006-0.012,0.013-0.018,0.02c40.763,40.181,101.793,57.119,160.226,38.823
		C332.137,326.288,379.094,236.523,352.691,152.193z"/>
	<path fill="#333333" d="M299.969,146.074c-7.106,3.158-14.753,5.289-22.777,6.243c8.193-4.905,14.475-12.674,17.437-21.941
		c-7.663,4.547-16.146,7.847-25.182,9.628c-7.231-7.706-17.539-12.524-28.945-12.524c-21.898,0-39.653,17.755-39.653,39.657
		c0,3.104,0.35,6.128,1.028,9.036c-32.96-1.656-62.183-17.441-81.743-41.435c-3.414,5.855-5.368,12.666-5.368,19.94
		c0,13.756,7,25.896,17.641,33.006c-6.498-0.208-12.615-1.994-17.963-4.964c-0.004,0.165-0.004,0.333-0.004,0.503
		c0,19.21,13.67,35.235,31.813,38.884c-3.327,0.902-6.831,1.389-10.449,1.389c-2.558,0-5.042-0.247-7.463-0.714
		c5.05,15.754,19.693,27.223,37.043,27.54c-13.572,10.637-30.667,16.978-49.25,16.978c-3.198,0-6.356-0.189-9.46-0.557
		c17.555,11.257,38.397,17.817,60.79,17.817c72.946,0,112.83-60.425,112.83-112.83c0-1.718-0.035-3.433-0.11-5.136
		C287.931,161.016,294.656,154.028,299.969,146.074z"/>
</g>
</svg>
