<?xml version="1.0" encoding="utf-8"?>
<!-- Generator: Adobe Illustrator 20.1.0, SVG Export Plug-In . SVG Version: 6.00 Build 0)  -->
<svg version="1.1" id="Layer_1" xmlns="http://www.w3.org/2000/svg" xmlns:xlink="http://www.w3.org/1999/xlink" x="0px" y="0px"
	 width="400px" height="400px" viewBox="0 0 400 400" enable-background="new 0 0 400 400" xml:space="preserve">
<g>
	<rect x="47.6" y="156.1" fill="#333333" width="66" height="198.4"/>
</g>
<path fill="#333333" d="M81,60.5c-22.6,0-37.3,14.8-37.3,34.3c0,19,14.3,34.3,36.5,34.3h0.4c23,0,37.3-15.3,37.3-34.3
	C117.4,75.3,103.5,60.5,81,60.5z"/>
<path fill="#333333" d="M275.4,151.5c-35,0-50.7,19.3-59.5,32.8v0.6h-0.4c0.1-0.2,0.3-0.4,0.4-0.6v-28.1h-66
	c0.9,18.6,0,198.4,0,198.4h66V243.7c0-6,0.5-11.8,2.2-16.1c4.8-11.9,15.6-24.1,33.9-24.1c23.9,0,33.4,18.2,33.4,44.9v106.2h66V240.8
	C351.4,179.8,318.9,151.5,275.4,151.5z"/>
</svg>
