<?xml version="1.0" encoding="utf-8"?>
<!-- Generator: Adobe Illustrator 19.1.0, SVG Export Plug-In . SVG Version: 6.00 Build 0)  -->
<svg version="1.1" id="Layer_1" xmlns="http://www.w3.org/2000/svg" xmlns:xlink="http://www.w3.org/1999/xlink" x="0px" y="0px"
	 width="400px" height="400px" viewBox="0 0 400 400" enable-background="new 0 0 400 400" xml:space="preserve">
<g id="Layer_x25_20191">
	<path fill="#333333" d="M194.412,79.892c-0.206-5.446-4.682-9.843-9.988-9.823c-3.088,0.011-5.778,1.517-7.444,3.846
		c-4.851,4.552-29.318,29.174-39.856,71.899c-13.479,54.651,4.775,87.043,4.775,87.043s0.479,0.822,1.371,2.178
		c1.175,1.787,3.066,4.498,5.52,7.46c1.664,0.957,3.581,1.504,5.607,1.505c6.081,0.002,10.83-4.936,10.594-11.025
		c-0.02-0.53-0.079-1.05-0.172-1.56c-2.001-2.244-3.963-4.882-5.67-7.94c-0.488-0.873-0.952-1.783-1.393-2.725
		c-7.25-15.5-7.477-37.138-2.396-67.886c5.298-32.058,28.773-58.249,34.944-64.669C192.898,86.439,194.544,83.375,194.412,79.892z
		 M211.247,316.724c-0.206-5.446-4.682-9.843-9.988-9.823c-5.294,0.02-9.417,4.431-9.219,9.855c0.199,5.429,4.649,9.833,9.951,9.835
		C207.304,326.593,211.453,322.174,211.247,316.724z M252.247,163.724c-0.206-5.446-4.682-9.843-9.988-9.823
		c-5.294,0.02-9.417,4.431-9.219,9.855c0.199,5.429,4.649,9.833,9.951,9.835C248.304,173.593,252.453,169.174,252.247,163.724z
		 M189.992,149.977c-0.214-5.532-4.872-9.997-10.393-9.977c-5.509,0.02-9.799,4.5-9.592,10.01c0.207,5.514,4.837,9.988,10.354,9.99
		C185.89,160.002,190.206,155.513,189.992,149.977z M180.326,189.055c-0.206-5.446-4.682-9.843-9.988-9.823
		c-5.295,0.02-9.417,4.431-9.219,9.856c0.009,0.237,0.027,0.47,0.051,0.703c-1.102,12.371,2.649,43.767,31.912,48.341
		c35.63,5.57,44.93-29.539,44.93-29.539s6.452-12.065-4.368-16.433c-10.82-4.368-13.729,6.755-13.729,6.755
		s-2.357,20.981-23.015,18.538c-20.658-2.443-16.408-26.687-16.408-26.687l-0.242-0.025
		C180.321,190.193,180.347,189.629,180.326,189.055z M330.1,216.29c-0.206-5.446-4.682-9.843-9.988-9.823
		c-4.879,0.018-8.763,3.764-9.187,8.598l-0.177-0.029C292.333,276,264.667,293,232.75,303.625c-4.75,1.5-12.75,0.75-12.25,12.375
		c0.375,7.75,11.007,6.813,11.955,6.58c82.212-20.247,97.79-104.242,97.79-104.242l-0.27-0.048
		C330.081,217.643,330.126,216.976,330.1,216.29z M91.473,187.908c-0.206-5.446-4.682-9.843-9.988-9.823
		c-5.295,0.02-9.417,4.431-9.219,9.855c0.01,0.277,0.032,0.553,0.064,0.824c-1.35,23.031,1.538,36.463,8.678,57.235
		c22.325,57.333,79.663,74.964,79.663,74.964c1.871,0.49,11.921,1.993,12.448,1.911c5.029-0.779,8.88-4.127,8.88-9.375
		c0-3.437-1.653-5.49-4.205-7.405c-1.754-1.317-14.073-4.13-14.073-4.13s-48.388-13.298-68.214-72.465
		c-4.554-13.59-4.261-28.395-4.248-39.1C91.432,189.604,91.505,188.768,91.473,187.908z M146.351,97.774
		c-0.206-5.446-4.682-9.843-9.988-9.823c-3.965,0.015-7.275,2.492-8.603,6.014c-4.718,6.975-24.603,38.188-25.695,70.266
		c-0.512,15.043-6.667,49.357,11.692,81.77c20.25,35.75,58.742,47.625,58.742,47.625s10.625,3.375,13.625,1.75
		c3.75-1,5.875-4.479,5.875-8.875c0-4.108-2.358-7.665-5.795-9.39c-1.181-0.593-40.448-4.86-60.287-53.297
		c-1.181-2.884-16.732-68.874,17.922-119.108C145.487,102.923,146.453,100.474,146.351,97.774z M328.214,172.269
		c-0.206-5.446-4.682-9.843-9.988-9.823c-3.08,0.011-5.764,1.51-7.431,3.829c-6.381,5.743-24.208,23.704-32.816,51.928
		c-6.019,19.734-25.155,47.73-56.035,56.837c-0.311-0.027-5.116,1.581-6.815,2.655c-3.082,1.949-5.13,4.389-5.13,8.305
		c0,5.239,3.665,9.623,8.57,10.73c0.782,0.176,6.305-0.605,8.99-1.9c11.093-2.871,23.123-7.993,34.259-16.647
		c21.383-16.617,32.041-40.839,36.154-54.926c6.056-20.742,20.595-33.959,26.62-42.946l-0.042-0.06
		C326.885,178.456,328.338,175.549,328.214,172.269z M315.296,139.224c-0.206-5.446-4.682-9.843-9.988-9.823
		c-2.242,0.008-4.275,0.806-5.858,2.133l-0.238-0.308c0,0-40.345,31.657-49.207,73.899c-8.111,38.658-37.623,42.918-49.127,42.888
		c-4.255-0.011-8.917-1.119-13.103-2.51c-3.378-1.122-6.441-2.425-8.735-3.49c-5.806,0.294-10.253,5.111-10.032,10.997
		c0.108,2.872,1.31,5.49,3.187,7.448c2.413,1.145,5.449,2.403,9.01,3.51c5.449,1.694,12.116,3.032,19.624,3.051
		c20.673,0.053,41.375-11.231,51.073-21.876c9.697-10.645,14.936-24.251,17.091-32.967c5.56-22.494,17.369-43.887,42.931-64.662
		l-0.264-0.336C313.977,145.384,315.419,142.49,315.296,139.224z M270.704,341.501c79.255-39.048,111.851-134.952,72.805-214.211
		c-1.469-2.981-3.032-5.882-4.659-8.729c-0.094-0.188-0.201-0.367-0.303-0.548l-0.228-0.395c-2.7-4.259-8.229-5.888-12.856-3.608
		c-4.956,2.441-6.991,8.434-4.551,13.389c0.155,0.316,0.326,0.619,0.509,0.911c1.458,2.544,2.844,5.148,4.159,7.814
		c34.167,69.355,5.643,153.279-63.708,187.449c-69.353,34.17-153.272,5.648-187.44-63.708
		c-34.168-69.357-5.644-153.28,63.709-187.449c42.766-21.071,91.07-18.295,129.832,3.189c-12.975,8.109-31.502,21.239-49.759,44.409
		c-19.403,24.625-26.355,69.29-26.208,76.96c0.099,5.176,2.808,10.011,8.977,10.027c9.336,0.024,10.029-9.978,10.029-9.978
		s6.299-33.936,21.162-59.967c11.902-20.845,48.152-44.252,59.034-50.966c0.435-0.144,0.867-0.32,1.29-0.528
		c4.953-2.441,6.99-8.435,4.551-13.388c-0.82-1.666-2.05-2.993-3.499-3.941l0.019-0.019
		c-46.446-33.432-109.344-40.786-164.26-13.727C50.055,93.535,17.46,189.44,56.506,268.699
		C95.551,347.957,191.451,380.551,270.704,341.501z"/>
</g>
</svg>
