<?xml version="1.0" encoding="utf-8"?>
<!-- Generator: Adobe Illustrator 20.1.0, SVG Export Plug-In . SVG Version: 6.00 Build 0)  -->
<svg version="1.1" id="Layer_1" xmlns="http://www.w3.org/2000/svg" xmlns:xlink="http://www.w3.org/1999/xlink" x="0px" y="0px"
	 width="400px" height="400px" viewBox="0 0 400 400" enable-background="new 0 0 400 400" xml:space="preserve">
<path fill-rule="evenodd" clip-rule="evenodd" fill="#333333" d="M358.8,205.6l-56.5-74.7l56.5-74.7c1-1.7,1.5-3.5,1.5-5.4
	c0-0.1,0-0.1,0-0.2c0-5.4-4.3-9.7-9.7-9.7H92.3c-5.4,0-9.7,4.3-9.7,9.7c0,5.4,4.3,9.7,9.7,9.7h238.4l-49.2,64.9
	c-1.1,1.8-1.6,3.7-1.5,5.7c-0.1,1.9,0.4,3.8,1.5,5.6l49.2,64.9H100.6V90.9c0-5.5-4.5-10-10-10s-10,4.5-10,10V341h-30
	c-5.5,0-10,4.5-10,10c0,5.5,4.5,10,10,10h80c5.5,0,10-4.5,10-10c0-5.5-4.5-10-10-10h-30V220.9h250.1c5.3,0,9.7-4.3,9.7-9.7
	c0-0.1,0-0.1,0-0.2C360.3,209.2,359.9,207.3,358.8,205.6z"/>
</svg>
