<svg xmlns="http://www.w3.org/2000/svg" viewBox="0 0 400 400"><title>arrow-right-simple</title><path d="M279.87,200.09s0,0,0,0,0,0,0,0c0-.31,0-.63,0-.94,0-.16,0-.31-.07-.46s0-.34-.08-.51-.08-.34-.12-.51-.07-.29-.11-.44-.11-.32-.17-.48-.1-.3-.16-.44-.13-.29-.2-.43-.14-.31-.22-.46-.15-.26-.23-.39-.17-.3-.27-.45-.19-.26-.29-.39-.19-.27-.29-.39-.34-.39-.52-.57l-.14-.15-56.57-56.57a10,10,0,1,0-14.14,14.14l39.5,39.5H109.88a10,10,0,1,0,0,20H246.4l-40.17,40.16a10,10,0,1,0,14.14,14.14l56.57-56.57a10,10,0,0,0,2.91-7.41C279.86,200.28,279.87,200.19,279.87,200.09Z" fill="#333" fill-rule="evenodd"/></svg>