<?xml version="1.0" encoding="utf-8"?>
<!-- Generator: Adobe Illustrator 19.1.0, SVG Export Plug-In . SVG Version: 6.00 Build 0)  -->
<svg version="1.1" id="Layer_1" xmlns="http://www.w3.org/2000/svg" xmlns:xlink="http://www.w3.org/1999/xlink" x="0px" y="0px"
	 width="400px" height="400px" viewBox="0 0 400 400" enable-background="new 0 0 400 400" xml:space="preserve">
<g id="Layer_x25_20162">
	<path fill="#333333" d="M359.671,171.995c0.021-0.107,0.047-0.213,0.064-0.321c0.959-5.141-2.218-10.211-7.359-11.518
		l-95.935-27.815l-47.449-76.788c-0.822-1.719-2.142-3.224-3.902-4.271c-1.613-0.959-3.387-1.401-5.137-1.396
		c-1.756-0.009-3.536,0.433-5.156,1.396c-1.762,1.048-3.083,2.554-3.905,4.275l-47.471,76.823l-95.799,27.776
		c-5.141,1.306-8.318,6.376-7.359,11.518c0.017,0.108,0.044,0.214,0.064,0.321c0.023,0.105,0.037,0.212,0.064,0.317
		c0.004,0.017,0.011,0.033,0.015,0.049c0.39,1.668,1.204,3.261,2.466,4.595l70.75,69.889l-13.459,90.727
		c-0.016,0.071-0.022,0.142-0.037,0.212c-0.428,1.944-0.288,4.033,0.541,6.009c2.137,5.092,7.998,7.488,13.091,5.35l85.529-38.205
		l56.95,37.205c5.093,2.138,10.954-0.258,13.091-5.35c2.138-5.093-0.258-10.954-5.351-13.092l-57.67-37.675
		c-0.59-0.49-1.232-0.908-1.912-1.249l-0.443-0.289c-1.293-0.542-2.636-0.79-3.954-0.779c-1.319-0.012-2.661,0.236-3.954,0.779
		l-73.61,32.881l11.579-78.061c0.916-4.071-0.794-8.118-4.009-10.378l-60.925-60.183l82.851-24.023
		c1.199-0.305,2.284-0.823,3.243-1.49c1.395-0.825,2.609-2.001,3.496-3.491l41.272-66.792l41.273,66.792
		c0.99,1.665,2.393,2.927,3.995,3.756c0.861,0.54,1.817,0.961,2.855,1.225l82.851,24.023l-60.925,60.183
		c-3.214,2.26-4.925,6.307-4.009,10.378l6.792,45.783l0.206,1.386c0.996,4.473,4.981,7.819,9.754,7.819c5.523,0,10-4.477,10-10
		c0-0.296-0.019-0.587-0.044-0.876l-0.183-1.232l-6.133-41.343l70.75-69.889c1.263-1.334,2.077-2.926,2.467-4.595
		c0.004-0.017,0.011-0.032,0.015-0.049C359.634,172.207,359.648,172.101,359.671,171.995z"/>
	<path fill="#333333" d="M352.324,240.833c-5.093-2.137-10.954,0.258-13.092,5.351l-35.119,78.619l-29.06-21.552
		c-4.667-2.952-10.844-1.561-13.796,3.106c-2.952,4.668-1.561,10.845,3.106,13.797l37.176,27.571l1.125,0.835
		c2.21,1.406,4.85,1.856,7.338,1.357c3.223-0.581,6.097-2.724,7.459-5.968l40.213-90.024
		C359.812,248.831,357.416,242.97,352.324,240.833z"/>
</g>
</svg>
