<?xml version="1.0" encoding="utf-8"?>
<!-- Generator: Adobe Illustrator 19.1.0, SVG Export Plug-In . SVG Version: 6.00 Build 0)  -->
<svg version="1.1" id="Layer_1" xmlns="http://www.w3.org/2000/svg" xmlns:xlink="http://www.w3.org/1999/xlink" x="0px" y="0px"
	 viewBox="0 0 400 400" enable-background="new 0 0 400 400" xml:space="preserve">
<g>
	<path fill="#231F20" d="M17.306,205.483c0-2.129,0-4.257,0-6.386c1.814-4.06,3.168-8.416,5.545-12.114
		c4.044-6.292,10.228-10.41,16.63-14.066c16.506-9.424,34.584-14.395,52.965-18.447c5.949-1.311,11.952-2.378,18.203-3.61
		c-0.58-1.627-1.075-2.817-1.433-4.046c-4.023-13.815-8.51-27.518-11.892-41.489c-3.234-13.358-4.68-27.017-1.924-40.772
		c3.731-18.62,17.834-27.18,35.823-21.028c6.509,2.226,12.487,6.044,18.624,9.293c1.546,0.819,2.569,1.351,4.42,0.358
		c10.661-5.722,22.784-4.183,31.221,3.711c8.618,8.063,10.741,19.665,5.772,31.224c-0.331,0.77-0.683,2.042-0.309,2.521
		c2.513,3.211,5.22,6.271,7.992,9.53c1.089-1.269,1.808-2.199,2.621-3.038c11.269-11.609,22.167-23.615,33.951-34.677
		c9.496-8.914,20.37-16.193,33.264-19.654c16.136-4.331,29.102,2.862,32.875,19.169c1.704,7.363,2.046,15.227,1.775,22.82
		c-0.529,14.832-4.188,29.184-8.57,43.318c-2.331,7.521-4.873,14.977-7.437,22.82c5.264,0.999,10.389,1.748,15.382,3.011
		c2.574,0.651,3.674-0.034,5.039-2.166c6.715-10.489,19.481-14.817,31.026-10.768c11.665,4.091,18.913,15.284,17.718,27.637
		c-0.209,2.165,0.241,3.365,2.218,4.502c10.186,5.856,18.699,13.242,21.799,25.252c0,2.365,0,4.73,0,7.096
		c-2.587,9.921-8.938,16.987-17.286,22.423c-3.653,2.379-7.455,4.584-11.372,6.493c-14.852,7.236-30.65,11.617-46.738,15.044
		c-5.85,1.246-11.73,2.348-17.919,3.58c0.563,1.563,0.993,2.759,1.425,3.955c6.343,17.581,11.761,35.411,14.172,54.017
		c1.468,11.329,1.891,22.65-1.846,33.684c-4.448,13.135-15.58,19.595-29.16,17.066c-11.243-2.094-20.631-7.987-29.55-14.702
		c-15.495-11.664-28.569-25.809-41.027-40.562c-0.73-0.865-1.517-1.682-2.394-2.649c-4.092,4.711-7.889,9.223-11.862,13.573
		c-1.301,1.424-1.471,2.559-0.812,4.361c4.081,11.158,1.188,22.439-7.506,29.904c-8.388,7.202-19.955,8.308-30.195,3.113
		c-1.186-0.602-3.103-0.507-4.401-0.008c-5.051,1.941-9.831,4.74-15,6.197c-16.001,4.51-28.62-2.636-32.912-18.649
		c-1.391-5.189-2.028-10.707-2.128-16.09c-0.271-14.654,2.683-28.906,6.673-42.916c2.87-10.077,6.236-20.013,9.501-30.393
		c-2.366-0.455-4.758-0.923-7.154-1.374c-19.772-3.728-39.296-8.374-57.473-17.295C32.919,228.01,21.317,220.421,17.306,205.483z
		 M287.864,76.951c-0.322-2.28-0.558-6.56-1.582-10.642c-1.972-7.863-6.057-10.549-13.591-7.704
		c-6.858,2.59-13.596,6.095-19.55,10.364c-16.443,11.792-29.754,26.883-42.624,42.36c-1.319,1.586-0.81,2.578,0.182,3.97
		c6.58,9.231,13.04,18.549,19.678,27.738c0.757,1.048,2.324,1.979,3.601,2.108c11.396,1.145,22.82,2.013,34.213,3.182
		c2.112,0.217,2.975-0.329,3.604-2.195c1.847-5.475,3.94-10.87,5.705-16.37C282.816,113.205,287.213,96.451,287.864,76.951z
		 M287.93,327.822c-1.285-26.064-8.318-48.542-16.615-70.701c-0.287-0.767-1.924-1.547-2.866-1.473
		c-11.535,0.907-23.061,1.924-34.575,3.068c-1.186,0.118-2.65,0.959-3.347,1.925c-6.703,9.286-13.221,18.706-19.919,27.996
		c-1.213,1.682-1.193,2.776,0.186,4.241c10.112,10.744,19.726,22.007,30.414,32.14c6.951,6.591,15.259,11.839,23.336,17.111
		c3.23,2.108,7.392,3.14,11.277,3.806c5.189,0.891,8.216-0.976,9.742-6.029C286.943,335.333,287.431,330.492,287.93,327.822z
		 M32.532,202.064c2.014,2.972,3.275,6.345,5.704,8.113c5.586,4.065,11.447,8.001,17.72,10.825
		c18.741,8.438,38.715,12.708,58.901,15.981c0.879,0.143,2.492-0.975,2.934-1.901c4.933-10.322,9.746-20.702,14.454-31.129
		c0.498-1.103,0.566-2.802,0.078-3.884c-4.746-10.539-9.697-20.985-14.47-31.511c-0.806-1.776-1.69-2.11-3.525-1.712
		c-4.378,0.95-8.836,1.528-13.221,2.448c-17.462,3.667-34.777,7.913-50.723,16.214c-4.656,2.424-8.99,5.632-13.024,9.014
		C35.357,196.202,34.369,199.091,32.532,202.064z M364.948,202.45c-0.889-2.215-1.085-4.186-2.173-5.151
		c-4.28-3.799-8.799-7.337-13.36-10.8c-0.48-0.365-1.983,0.156-2.731,0.672c-16.585,11.431-36.208,4.874-42.392-14.11
		c-0.371-1.14-1.779-2.483-2.926-2.74c-5.984-1.337-12.024-2.449-18.085-3.382c-0.948-0.146-2.656,0.762-3.073,1.633
		c-5,10.423-9.867,20.912-14.624,31.449c-0.491,1.088-0.47,2.787,0.025,3.882c4.709,10.429,9.617,20.766,14.345,31.186
		c0.846,1.865,1.742,2.391,3.763,1.895c3.086-0.757,6.278-1.066,9.402-1.684c17.857-3.534,35.56-7.715,52.01-15.748
		c5.446-2.66,10.49-6.316,15.274-10.081C362.519,207.805,363.529,204.735,364.948,202.45z M109.675,78.68
		c0.173,0.028,0.347,0.056,0.52,0.084c0,0.236-0.008,0.473,0.001,0.709c0.949,23.578,8.191,45.642,16.372,67.461
		c0.268,0.714,1.99,1.336,2.975,1.259c11.538-0.907,23.069-1.907,34.587-3.043c1.173-0.116,2.605-1.008,3.306-1.981
		c6.696-9.295,13.223-18.711,19.898-28.021c1.08-1.506,1.245-2.537-0.047-3.967c-2.454-2.716-4.799-5.537-7.087-8.396
		c-1.179-1.473-2.264-1.755-4.225-1.286c-3.513,0.841-7.251,1.688-10.782,1.349c-17.098-1.641-27.49-16.588-23.673-33.425
		c0.229-1.009-0.032-2.893-0.657-3.214c-5.636-2.888-11.203-6.151-17.189-8.046c-6.117-1.936-10.053,0.697-11.739,6.964
		C110.751,69.53,110.399,74.155,109.675,78.68z M109.536,325.654c0.917,4.832,1.456,9.777,2.857,14.465
		c1.404,4.697,4.382,6.626,9.185,5.838c4.111-0.674,8.041-2.465,12.045-3.782c2.169-0.713,2.639-2.007,2.095-4.318
		c-2.46-10.438,0.216-19.53,8.314-26.565c8.218-7.139,17.714-8.395,27.795-4.417c1.904,0.751,2.921,0.482,4.163-1.025
		c3.605-4.373,7.283-8.691,11.082-12.895c1.518-1.679,1.268-2.826,0.03-4.545c-6.621-9.196-13.063-18.52-19.687-27.713
		c-0.701-0.973-2.133-1.867-3.307-1.983c-11.393-1.126-22.814-1.974-34.199-3.164c-2.318-0.242-3.158,0.436-3.813,2.411
		c-1.595,4.811-3.441,9.541-5,14.363C115.497,289.649,110.824,307.174,109.536,325.654z M199.367,160.733
		c-7.086,0-14.176-0.127-21.254,0.106c-1.444,0.048-3.458,1.086-4.17,2.284c-7.23,12.171-14.29,24.444-21.239,36.779
		c-0.599,1.063-0.574,3.057,0.03,4.129c6.948,12.335,14.012,24.606,21.22,36.79c0.667,1.128,2.527,2.181,3.845,2.196
		c14.052,0.158,28.107,0.157,42.159,0.007c1.336-0.014,3.238-0.991,3.897-2.102c7.218-12.178,14.294-24.442,21.231-36.783
		c0.647-1.151,0.636-3.299-0.013-4.453c-6.939-12.34-14.024-24.599-21.225-36.788c-0.623-1.055-2.343-2.026-3.581-2.061
		C213.306,160.641,206.335,160.742,199.367,160.733z M198.931,126.078c-4.481,6.323-8.515,12.014-12.863,18.148
		c8.88,0,16.928,0,25.758,0C207.433,138.043,203.392,132.357,198.931,126.078z M185.977,259.534
		c4.51,6.342,8.555,12.029,12.975,18.243c4.436-6.255,8.511-12.001,12.938-18.243C202.959,259.534,194.96,259.534,185.977,259.534z
		 M264.606,164.066c-7.521-0.724-14.49-1.395-22.209-2.138c4.568,7.897,8.603,14.874,12.947,22.384
		C258.507,177.397,261.416,171.039,264.606,164.066z M133.298,164.092c3.185,6.959,6.094,13.316,9.261,20.236
		c4.388-7.629,8.45-14.692,12.906-22.439C147.731,162.657,140.776,163.349,133.298,164.092z M142.55,219.539
		c-3.191,7.038-6.051,13.344-9.179,20.243c7.454,0.734,14.398,1.417,22.101,2.175C151.018,234.228,146.988,227.238,142.55,219.539z
		 M255.34,219.551c-4.445,7.705-8.476,14.692-12.935,22.421c7.737-0.768,14.687-1.457,22.107-2.193
		C261.377,232.865,258.513,226.549,255.34,219.551z"/>
	<path fill="#231F20" d="M225.666,202.004c-0.059,14.615-12.08,26.612-26.696,26.642c-14.586,0.03-26.793-12.118-26.724-26.595
		c0.072-14.91,11.98-26.802,26.864-26.826C213.587,175.203,225.725,187.442,225.666,202.004z"/>
</g>
</svg>
