<?xml version="1.0" encoding="utf-8"?>
<!-- Generator: Adobe Illustrator 19.1.0, SVG Export Plug-In . SVG Version: 6.00 Build 0)  -->
<svg version="1.1" id="Layer_1" xmlns="http://www.w3.org/2000/svg" xmlns:xlink="http://www.w3.org/1999/xlink" x="0px" y="0px"
	 width="400px" height="400px" viewBox="0 0 400 400" enable-background="new 0 0 400 400" xml:space="preserve">
<g id="Layer_x25_201109">
	<path fill="#333333" d="M90,199c-8,0-10,10-10,10v87c0,13.667,10,16,10,16s41.667,27,110,27s113.333-24.333,117-29s3-18,3-18V167
		l29-13c0,0,11.333-3.667,11-15s-9-14-9-14S221.073,65.402,212,62c-8-3-12-3-12-3c-8,0.333-14,4-14,4L50,124c0,0-10,2.667-10,13
		c0,7.667,9,14,9,14s136.667,62,145,66c2.282,1.095,4.289,1.517,6,1.55V219c5.333,0,14.667-4.667,14.667-4.667L240,203.815v36.32
		c-6.525,3.294-11,10.056-11,17.865c0,11.046,8.954,20,20,20c11.046,0,20-8.954,20-20c0-6.982-3.578-13.128-9-16.705V190h-0.4
		c0.198-1.776-0.189-3.795-1.6-6c-5.333-8.333-12-4-12-4l-46,19v1L59,137l141-60l141,60l-32,16c0,0-9,3.333-9,15v8v121
		c0,0-47.333,22-100,22s-100-23-100-23v-87C100,200.333,90,199,90,199z"/>
</g>
</svg>
