<?xml version="1.0" encoding="utf-8"?>
<!-- Generator: Adobe Illustrator 19.1.0, SVG Export Plug-In . SVG Version: 6.00 Build 0)  -->
<svg version="1.1" id="Layer_1" xmlns="http://www.w3.org/2000/svg" xmlns:xlink="http://www.w3.org/1999/xlink" x="0px" y="0px"
	 width="400px" height="400px" viewBox="0 0 400 400" enable-background="new 0 0 400 400" xml:space="preserve">
<g id="Layer_x25_20140">
	<path fill="#333333" d="M349.774,347.952V49.965c0-5.522-4.478-10-10-10c-5.523,0-10,4.478-10,10v290.071h-219.8v-70.13h9.969
		c5.523,0,10-4.477,10-10s-4.477-10-10-10h-9.969v-40.074h9.969c5.523,0,10-4.477,10-10c0-5.523-4.477-10-10-10h-9.969v-39.943
		h9.969c5.523,0,10-4.477,10-10s-4.477-10-10-10h-9.969V59.965h169.938c5.523,0,10-4.477,10-10c0-5.523-4.477-10-10-10H99.974
		c-0.497,0-0.981,0.048-1.459,0.118c-0.186,0.027-0.374,0.047-0.557,0.085c-0.94,0.192-1.831,0.521-2.655,0.958
		c-0.031,0.017-0.064,0.029-0.096,0.046c-0.183,0.099-0.356,0.213-0.532,0.323c-0.096,0.061-0.197,0.114-0.293,0.178
		c-0.129,0.088-0.249,0.187-0.374,0.28c-0.132,0.099-0.269,0.191-0.396,0.296c-0.111,0.092-0.214,0.195-0.321,0.292
		c-0.13,0.117-0.265,0.229-0.389,0.353c-0.124,0.124-0.236,0.258-0.353,0.389c-0.098,0.107-0.2,0.21-0.293,0.322
		c-0.104,0.126-0.197,0.263-0.295,0.395c-0.094,0.125-0.193,0.245-0.28,0.375c-0.04,0.059-0.072,0.122-0.11,0.182
		c-0.658,1.021-1.143,2.164-1.395,3.394c-0.037,0.183-0.058,0.371-0.085,0.557c-0.069,0.477-0.118,0.961-0.118,1.458v79.924H60.005
		c-5.522,0-10,4.477-10,10s4.478,10,10,10h29.969v39.943H60.005c-5.522,0-10,4.477-10,10c0,5.523,4.478,10,10,10h29.969v40.074
		H60.005c-5.522,0-10,4.477-10,10s4.478,10,10,10h29.969v80.059c0,1.043,0.16,2.048,0.457,2.994c1.25,4.097,5.058,7.077,9.563,7.077
		h240c5.522,0,10-4.477,10-10C349.995,349.32,349.917,348.624,349.774,347.952z"/>
</g>
</svg>
