<svg xmlns="http://www.w3.org/2000/svg" viewBox="0 0 400 400"><path d="M110.756 142.209c.453-2.008.773-4.058 1.382-6.018 3.873-12.469 15.042-18.846 27.641-17.869 22.025 1.707 41.831 20.013 45.667 41.741 1.152 6.525.574 12.861-1.717 18.079 1.823 2.192 3.219 4.163 4.902 5.85a71808.569 71808.569 0 0 0 85.49 85.528c2.325 2.323 3.804 4.871 3.304 8.271-.916 6.226-8.105 9.326-13.242 5.68-.837-.594-1.582-1.333-2.312-2.063-29.33-29.323-58.655-58.651-87.975-87.985-.774-.774-1.485-1.611-2.187-2.377-2.656.686-5.283 1.626-7.988 2.018-10.433 1.509-19.883-1.442-28.53-7.057-11.419-7.415-19.382-17.543-23.068-30.796-.583-2.098-.917-4.265-1.366-6.4l-.001-6.602z"/><path d="M309.556 149.975c-.81 1.148-1.476 2.44-2.453 3.422-12.181 12.251-24.306 24.56-36.667 36.627-5.603 5.47-12.061 9.766-20.102 10.957-5.876.871-11.458.007-16.714-2.807-.964-.516-1.93-1.03-2.912-1.554l-9.425 9.223-11.734-11.652 8.83-9.016c-1.418-4.034-3.106-7.579-3.886-11.314-1.698-8.126.664-15.514 5.339-22.162 2.036-2.894 4.304-5.678 6.79-8.193 11.734-11.874 23.58-23.636 35.384-35.44 1.458-1.458 2.984-2.692 5.273-2.078 3.032.814 4.384 4.108 2.689 6.738-.484.751-1.125 1.415-1.761 2.052a37598.11 37598.11 0 0 1-34.581 34.596c-.501.501-1.076.928-1.463 1.259l6.926 6.932c.184-.327.418-1.075.908-1.567 11.64-11.693 23.311-23.356 34.966-35.034 1.37-1.373 2.802-2.466 4.924-2.109 3.029.51 4.725 3.869 3.183 6.52-.479.824-1.158 1.554-1.837 2.235-11.565 11.585-23.145 23.156-34.72 34.732-.495.495-.968 1.011-1.338 1.398l6.358 6.445c.428-.407.944-.876 1.437-1.369 11.533-11.526 23.062-23.056 34.602-34.575.682-.681 1.404-1.354 2.207-1.877 1.747-1.138 4.065-.815 5.521.664 1.35 1.371 1.685 3.701.653 5.356-.507.812-1.172 1.545-1.852 2.226a21054.244 21054.244 0 0 1-34.731 34.721c-.498.497-1.182.808-1.625 1.104l6.801 6.825c2.275-2.326 4.605-4.75 6.98-7.129 9.782-9.799 19.583-19.581 29.365-29.381 1.599-1.602 3.419-2.886 5.656-1.762 1.209.607 2.021 2.006 3.012 3.047-.003.646-.003 1.293-.003 1.94zM186.513 216.848l12.047 11.939c-.273.29-.657.719-1.064 1.126-17.003 17.01-34.014 34.011-51.005 51.033-2.539 2.544-5.386 3.983-9.062 3.01-5.953-1.575-8.31-8.641-4.483-13.463.401-.505.845-.979 1.301-1.436a226709.38 226709.38 0 0 1 51.423-51.437c.317-.316.66-.605.843-.772z"/><path d="M162.485 48.799C79.465 74.791 33.237 163.16 59.23 246.18a157.816 157.816 0 0 0 3.212 9.197c-.04-.126-.064-.255-.099-.381.035.127.06.256.099.383.063.198.14.386.213.577l.161.419c1.982 4.553 7.115 6.974 11.962 5.457 5.192-1.624 8.079-7.147 6.454-12.337a9.634 9.634 0 0 0-.358-.964 140.818 140.818 0 0 1-2.864-8.231C55.264 167.653 95.718 90.323 168.363 67.577c72.647-22.745 149.977 17.706 172.724 90.354 22.746 72.648-17.708 149.978-90.354 172.723-50.286 15.745-102.813 1.203-137.929-33.334-.256-.252-.511-.506-.764-.76-2.5-2.229-6.067-3.135-9.496-2.062-5.189 1.625-8.078 7.148-6.454 12.336a9.797 9.797 0 0 0 2.808 4.364l-.004-.004a.1.1 0 0 0-.017.019c40.129 39.556 100.211 56.231 157.736 38.219 83.02-25.992 129.247-114.363 103.254-197.383-25.994-83.017-114.364-129.244-197.382-103.25z"/></svg>