<svg width="400" height="400" viewBox="0 0 400 400" xmlns="http://www.w3.org/2000/svg"><title>icon-globe</title><path d="M201 44c-86.715 0-157 70.285-157 157s70.285 157 157 157 157-70.285 157-157S287.715 44 201 44zm136.489 151.935h-60.734c-.557-22.435-4.548-43.868-11.628-63.488 13.674-5.703 26.315-13.29 37.842-22.254 20.491 23.003 33.304 52.874 34.52 85.742zm-142.09 141.523c-16.835-14.018-30.955-32.22-41.286-53.36 13.259-4.142 27.308-6.411 41.822-6.877v60.258c-.182 0-.354-.01-.536-.02zM206.58 64.542c19.103 15.902 34.692 37.204 45.236 62.05-14.444 4.933-29.79 7.8-45.763 8.306V64.51l.527.03zm16.875 1.722c27.956 4.649 53.036 17.705 72.564 36.606-10.605 8.134-22.192 15.021-34.722 20.238-9.217-21.849-22.152-41.165-37.842-56.844zm-27.52-1.753v70.387c-15.974-.517-31.33-3.373-45.763-8.306 10.544-24.846 26.132-46.148 45.236-62.05l.526-.03zm-55.244 58.607c-12.51-5.217-24.107-12.104-34.712-20.238 19.518-18.9 44.608-31.957 72.564-36.606-15.7 15.67-28.625 34.985-37.852 56.844zm5.662 12.813c15.619 5.42 32.26 8.58 49.581 9.106v50.898h-60.561c.547-21.21 4.305-41.478 10.98-60.004zm49.581 70.134v61.027c-15.973.486-31.42 3.1-45.975 7.79-8.772-20.887-13.948-44.153-14.586-68.817h60.561zm-17.391 129.671a136.047 136.047 0 0 1-66.295-30.913c9.978-6.919 20.765-12.773 32.292-17.22 8.832 18.314 20.39 34.57 34.003 48.133zm27.52 1.753V277.23c14.505.466 28.564 2.735 41.823 6.878-10.341 21.139-24.451 39.34-41.286 53.36-.172 0-.354.01-.536.02zm51.395-49.886c11.517 4.447 22.294 10.312 32.292 17.22a136.137 136.137 0 0 1-66.295 30.913c13.613-13.562 25.16-29.82 34.003-48.133zm-5.419-12.722c-14.565-4.69-30.012-7.303-45.975-7.79v-61.026h60.561c-.638 24.664-5.824 47.93-14.586 68.816zm-45.975-78.946v-50.898c17.31-.527 33.952-3.677 49.581-9.096 6.665 18.526 10.423 38.794 10.98 60.005h-60.561v-.01zM99.04 110.193c11.527 8.964 24.168 16.551 37.832 22.254-7.08 19.62-11.07 41.053-11.628 63.488H64.511c1.216-32.868 14.029-62.739 34.53-85.742zm-34.53 95.872h60.734c.628 25.88 6.037 50.32 15.224 72.29-12.834 5.004-24.796 11.67-35.837 19.56-23.783-23.672-38.794-56.034-40.12-91.85zm232.857 91.84c-11.041-7.88-23.003-14.556-35.847-19.56 9.197-21.97 14.596-46.41 15.234-72.29h60.734c-1.327 35.826-16.349 68.188-40.121 91.85z" fill="#333" fill-rule="evenodd"/></svg>