<svg width="400" height="400" viewBox="0 0 400 400" xmlns="http://www.w3.org/2000/svg"><title>icon-lock-squared</title><path d="M190.915 281.13v50.194a8.007 8.007 0 0 0 8.009 8.004h15.317a8.002 8.002 0 0 0 8.009-8.004V281.13c9.365-5.286 15.667-15.165 15.667-26.48 0-16.884-14.03-30.571-31.335-30.571s-31.334 13.687-31.334 30.57c0 11.316 6.301 21.195 15.667 26.48zm102.702-95.466h45.722a1 1 0 0 1 1.001 1.003v180.33c0 .554-.455 1.003-1.001 1.003H61.001A1 1 0 0 1 60 366.997v-180.33c0-.554.455-1.003 1.001-1.003h56.623v-77.352h.537C123.025 65.387 160.326 32 205.621 32c45.294 0 82.595 33.387 87.459 76.312h.537v77.352zm-156.02-75.233h-.418v74.192h136.883v-74.192h-.418c-3.782-33.386-32.795-59.353-68.024-59.353-35.228 0-64.24 25.967-68.024 59.353z" fill="#333" fill-rule="evenodd"/></svg>