<svg xmlns="http://www.w3.org/2000/svg" viewBox="0 0 400 400"><g fill="#231F20"><path d="M106.217 362.189c6.451-17.179 11.908-34.758 19.763-51.19 3.335-6.976 11.899-11.35 17.718-17.268 5.459-5.551 13.591-10.903 15.012-17.529 3.883-18.116 4.848-36.857 7.123-56.7 14.928-6.486 31.264-.932 39.664 16.192-13.692-.197-22.313-17.501-34.504-11.885-1.472 22.706.561 43.825-10.56 63.49-1.652 2.921-.215 7.588-.206 11.447 3.628-1.157 8.899-1.177 10.615-3.657 10.441-15.088 19.86-30.878 30.123-46.095 2.574-3.817 6.991-6.391 13.038-11.718-2.167 5.308-2.853 8.486-4.576 10.934-5.564 7.906-12.705 14.933-17.044 23.421-7.617 14.899-14.949 30.207-19.956 46.113-6.951 22.082-19.667 35.712-43.23 38.705-8.073 1.024-15.908 3.921-22.98 5.74z"/><path d="M288.785 43.645c-.375 4.48.291 9.367-1.281 13.378-22.199 56.626-44.686 113.14-67.197 169.643-.848 2.128-2.653 3.874-5.546 5.055l37.48-116.622-6.35-2.899c-19.322 30.249-38.544 60.563-58.099 90.66-2.306 3.549-6.438 5.912-9.723 8.825-.057-4.679-1.988-10.557.119-13.853 21.581-33.756 43.697-67.174 65.934-100.505 8.309-12.455 17.202-24.529 26.078-36.593 4.755-6.463 10.039-12.537 15.085-18.787 1.167.565 2.333 1.131 3.5 1.698z"/></g></svg>