<svg xmlns="http://www.w3.org/2000/svg" viewBox="0 0 400 400"><path fill="#231F20" d="M310.936 46.445c5.186 1.54 10.042 2.599 14.602 4.406 14.252 5.65 20.755 17.368 18.032 32.423-5.854 32.355-11.883 64.679-17.686 97.044-.429 2.392.614 5.01.555 7.513-.103 4.319.234 8.863-.99 12.895-2.429 8-5.001 16.147-8.973 23.439-4.921 9.034-13.217 14.707-23.485 16.669-3.58.684-4.528 2.545-5.063 5.686-3.204 18.78-8.759 36.859-18.203 53.445-18.445 32.391-46.896 50.442-83.446 55.206-47.544 6.197-89.038-17.619-111.053-63.283-10.039-20.824-15.706-42.53-14.033-65.819 1.289-17.945 6.84-34.427 16.906-49.393 1.14-1.695 1.419-3.947 2.387-5.788.933-1.776 2.24-3.356 3.649-5.409-5.527-6.399-8.721-14.469-7.843-23.782.722-7.661 3.882-14.26 9.448-19.655 10.542-10.217 27.184-11.527 39.402-3.086 12.009 8.295 16.6 24.164 10.88 37.608-6.268 14.731-20.433 21.411-36.363 18.196-3.396 2.336-5.902 3.939-8.26 5.736-1.121.855-2.099 1.985-2.901 3.155-11.173 16.307-16.322 34.541-15.248 54.091 1.684 30.657 13.247 57.556 34.815 79.409 27.638 28.003 69.536 34.447 106.346 17.554 28.328-13.001 45.606-35.363 54.753-64.535 2.864-9.133 5.041-18.481 7.226-26.593-7.393-3.936-14.715-6.524-20.404-11.13-12.805-10.365-19.99-25.218-19.523-40.929.625-21.017-6.11-40.423-8.745-60.647-2.102-16.138-5.705-32.077-8.468-48.135-2.476-14.394 3.185-25.111 16.487-31.196 3.405-1.558 7.104-2.544 10.747-3.486 3.295-.852 6.684-.741 7.587-5.47.528-2.763 8.793-5.012 12.546-4.142 3.821.885 3.576 4.122 3.929 6.945.289 2.307.496 4.635.55 6.957.102 4.374-1.331 5.994-5.743 5.432-3.608-.46-7.09-1.883-10.64-2.835-.82-.22-1.72-.467-2.53-.345-7.129 1.072-14.024 2.869-19.618 7.749-5.247 4.577-7.288 10.538-6.113 17.302 3.907 22.504 7.991 44.976 12.038 67.455 1.882 10.453 3.356 21.011 5.891 31.307 2.615 10.623 5.471 21.331 9.7 31.38 6.413 15.24 19.232 21.907 34.287 19.441 10.334-1.693 16.765-8.21 20.966-17.275a50.273 50.273 0 0 0 3.281-9.462c2.694-11.344 5.511-22.675 7.681-34.124 5.5-29.019 10.712-58.093 15.96-87.159 1.809-10.017-2.089-17.916-11.302-22.258-4.03-1.9-8.487-2.925-12.804-4.162-1.003-.288-2.249.067-3.338.32-3.868.9-7.675 2.19-11.588 2.735-2.849.397-4.736-1.314-4.551-4.466.212-3.623.47-7.249.867-10.855.356-3.236 2.49-4.298 5.538-4.233 7.238.157 10.59 2.458 11.858 8.154zM84.85 144.673c.058 12.488 9.986 22.415 22.448 22.446 12.514.031 22.928-10.41 22.726-22.785-.201-12.362-10.388-22.487-22.641-22.506-12.604-.019-22.592 10.108-22.533 22.845z"/></svg>