<svg xmlns="http://www.w3.org/2000/svg" viewBox="0 0 400 400"><path d="M150.625 196.621c13.759-8.204 22.979-23.227 22.979-40.411 0-25.97-21.054-47.023-47.024-47.023-25.971 0-47.023 21.053-47.023 47.023 0 17.099 9.127 32.063 22.774 40.294-20.895 9.229-35.479 30.13-35.479 54.442 0 6.327.998 12.418 2.828 18.137a5.85 5.85 0 0 0 .515 1.534 5.884 5.884 0 0 0 5.272 3.276 5.89 5.89 0 0 0 5.854-6.531 5.851 5.851 0 0 0-.792-2.359 47.895 47.895 0 0 1-2.099-14.055c0-25.506 19.931-46.349 45.066-47.823 1.02.066 2.047.111 3.084.111.957 0 1.904-.038 2.847-.094 25.023 1.591 44.83 22.379 44.83 47.805 0 5.185-.826 10.177-2.35 14.853-.067.204-.137.406-.206.608a5.868 5.868 0 0 0-.224 1.594 5.89 5.89 0 0 0 10.772 3.297 5.88 5.88 0 0 0 .992-2.965 59.432 59.432 0 0 0 2.593-17.388c.001-24.208-14.458-45.035-35.209-54.325zm-59.314-40.41c0-19.479 15.792-35.27 35.27-35.27s35.271 15.791 35.271 35.27c0 19.268-15.451 34.915-34.637 35.255-.29-.004-.58-.011-.871-.011-.185 0-.369.005-.554.007-19.113-.423-34.479-16.036-34.479-35.251zM48.384 246.758c4.569-2.724 7.63-7.712 7.63-13.418 0-8.623-6.991-15.614-15.614-15.614-8.623 0-15.614 6.99-15.614 15.614 0 5.678 3.031 10.646 7.562 13.379-6.938 3.065-11.781 10.005-11.781 18.077 0 2.101.331 4.123.939 6.022a1.954 1.954 0 1 0 3.602-1.355 15.914 15.914 0 0 1-.697-4.667c0-8.469 6.618-15.39 14.964-15.879.339.022.68.037 1.024.037.318 0 .632-.013.945-.031 8.309.528 14.885 7.431 14.885 15.873a15.89 15.89 0 0 1-.78 4.932l-.068.202a1.956 1.956 0 0 0 3.502 1.624c.192-.284.309-.621.329-.984a19.73 19.73 0 0 0 .861-5.774c.002-8.038-4.799-14.954-11.689-18.038zm-19.696-13.419c0-6.468 5.243-11.711 11.711-11.711s11.712 5.243 11.712 11.711c0 6.398-5.13 11.593-11.501 11.706-.096-.001-.192-.004-.289-.004l-.184.002c-6.346-.139-11.449-5.323-11.449-11.704zM240.49 228.292c8.225-4.904 13.737-13.885 13.737-24.157 0-15.525-12.586-28.11-28.11-28.11-15.525 0-28.11 12.585-28.11 28.11 0 10.222 5.456 19.167 13.614 24.087-12.491 5.517-21.209 18.012-21.209 32.545 0 3.782.596 7.423 1.69 10.842a3.518 3.518 0 1 0 6.485-2.439 28.64 28.64 0 0 1-1.255-8.402c0-15.247 11.914-27.707 26.94-28.588.61.039 1.224.067 1.844.067.572 0 1.138-.023 1.702-.056 14.958.951 26.799 13.378 26.799 28.577 0 3.1-.494 6.084-1.405 8.879-.04.122-.082.243-.123.364a3.52 3.52 0 0 0 6.899 1.152 35.534 35.534 0 0 0 1.55-10.394c0-14.474-8.643-26.924-21.048-32.477zm-35.458-24.158c0-11.645 9.44-21.084 21.084-21.084s21.085 9.44 21.085 21.084c0 11.518-9.237 20.872-20.706 21.075-.173-.002-.346-.007-.521-.007-.111 0-.221.003-.331.004-11.425-.251-20.611-9.585-20.611-21.072zM352.471 200.009c13.759-8.204 22.979-23.227 22.979-40.411 0-25.97-21.054-47.023-47.024-47.023-25.971 0-47.023 21.053-47.023 47.023 0 17.099 9.127 32.063 22.774 40.294-20.895 9.229-35.479 30.13-35.479 54.442 0 6.327.998 12.418 2.828 18.137a5.85 5.85 0 0 0 .515 1.534 5.884 5.884 0 0 0 5.272 3.276 5.89 5.89 0 0 0 5.854-6.531 5.851 5.851 0 0 0-.792-2.359 47.895 47.895 0 0 1-2.099-14.055c0-25.506 19.931-46.349 45.066-47.823 1.02.066 2.047.111 3.084.111.957 0 1.904-.038 2.847-.094 25.023 1.591 44.83 22.379 44.83 47.805 0 5.185-.826 10.177-2.35 14.853-.067.204-.137.406-.206.608a5.868 5.868 0 0 0-.224 1.594 5.89 5.89 0 0 0 10.772 3.297 5.88 5.88 0 0 0 .992-2.965 59.432 59.432 0 0 0 2.593-17.388c.001-24.208-14.458-45.035-35.209-54.325zm-59.315-40.41c0-19.479 15.792-35.27 35.27-35.27 19.479 0 35.271 15.791 35.271 35.27 0 19.268-15.451 34.915-34.637 35.255-.29-.004-.58-.011-.871-.011-.185 0-.369.005-.554.007-19.112-.423-34.479-16.036-34.479-35.251z"/></svg>