<svg xmlns="http://www.w3.org/2000/svg" viewBox="0 0 400 400"><g fill="#231F20"><path d="M178.51 332.604a9.453 9.453 0 0 1-18.906 0V49.013a9.453 9.453 0 0 1 9.453-9.453 9.453 9.453 0 0 1 9.453 9.453v283.591z"/><path d="M102.359 134.103a9.453 9.453 0 0 1 0-18.906h132.284a9.453 9.453 0 0 1 9.453 9.453 9.453 9.453 0 0 1-9.453 9.453H102.359zM203.018 110.488l-.284-.539c.09.183.184.363.284.539z"/><path d="M260.774 350.687c82.252-32.891 122.265-126.229 89.375-208.479-23.597-59.012-78.31-96.279-137.719-100.484-.431-.03-.861-.054-1.291-.081a9.998 9.998 0 0 0-7.611 3.495c-3.603 4.205-3.115 10.532 1.09 14.135a9.982 9.982 0 0 0 6.388 2.409c.002.012.006.022.007.034 51.994 3.673 99.879 36.286 120.531 87.93 28.781 71.975-6.234 153.653-78.209 182.435-71.977 28.782-153.655-6.236-182.434-78.21a141.436 141.436 0 0 1-6.367-20.237.698.698 0 0 1-.152-.008 9.984 9.984 0 0 0-3.465-6.779c-4.205-3.603-10.532-3.115-14.135 1.09a9.991 9.991 0 0 0-2.32 7.796c.081.634.223 1.26.424 1.87a161.351 161.351 0 0 0 7.408 23.707c32.888 82.252 126.227 122.266 208.48 89.377z"/></g></svg>