<svg xmlns="http://www.w3.org/2000/svg" viewBox="0 0 400 400"><g fill="#231F20"><path d="M46.06 149.564c.167-.484.402-.956.491-1.454a16.146 16.146 0 0 1 15.861-13.334c7.904-.021 14.755 5.71 16.043 13.458a19.13 19.13 0 0 1 .233 3.128c.013 20.33.01 40.661.01 60.991v1.226c-.455.241-.876.459-1.293.684-5.754 3.099-9.878 7.625-11.64 13.978-2.137 7.705-.338 14.6 4.945 20.546 4.144 4.663 8.404 9.222 12.607 13.833 6.936 7.608 13.873 15.217 20.8 22.834a25.458 25.458 0 0 1 4.616 7.25c.72 1.7 1.153 3.47 1.244 5.321.036.736.111 1.469.172 2.256h10.454c.004-.589.031-1.177.008-1.762-.189-4.798-1.505-9.272-3.883-13.438-1.628-2.852-3.541-5.495-5.786-7.898-10.485-11.22-20.98-22.431-31.438-33.676-6.66-7.161-3.399-18.696 6.014-21.238 4.551-1.229 8.627-.152 12.157 2.969.326.288.624.61.932.919 22.228 22.318 44.458 44.634 66.682 66.956 4.736 4.757 8.176 10.29 9.945 16.807.884 3.255 1.4 6.573 1.458 9.94.078 4.536.069 9.073.064 13.61-.006 6.326-.043 12.651-.067 18.977h-58.377c.036-.213.104-.426.103-.639-.015-3.969-.002-7.939-.068-11.907-.085-5.136-2.041-9.481-5.692-13.082a110.804 110.804 0 0 1-2.819-2.916c-16.869-17.909-33.775-35.783-50.584-53.747-7.492-8.007-11.549-17.636-12.706-28.516-.091-.855-.321-1.696-.486-2.543v-89.533zM226.166 352.445c.02-.522.059-1.043.059-1.565-.013-8.986-.03-17.971-.05-26.957-.01-4.505.288-8.979 1.399-13.363 1.646-6.495 4.871-12.137 9.57-16.867a33804.09 33804.09 0 0 1 67.869-68.15c7.017-7.024 18.96-3.788 21.508 5.777 1.225 4.598.152 8.745-3.097 12.237-10.578 11.368-21.214 22.682-31.764 34.076-4.053 4.377-7.072 9.394-8.519 15.255-.589 2.384-.86 5.334-.662 7.443 3.4.018 6.819.01 10.328.005.102-1.126.193-2.154.287-3.182.195-2.117.894-4.078 1.853-5.956a27.269 27.269 0 0 1 4.147-6.011c10.609-11.635 21.212-23.277 31.818-34.916.646-.709 1.323-1.393 1.941-2.126 8.389-9.949 6.44-24.407-4.341-32.06-1.309-.929-2.736-1.692-4.196-2.586v-1.098c0-20.457-.031-40.915.019-61.372.016-6.507 3.038-11.393 8.758-14.424 8.8-4.662 19.681-.174 22.781 9.281.281.856.442 1.752.659 2.629v92.671c-.075.241-.181.477-.221.723-.369 2.275-.567 4.591-1.116 6.821-2.026 8.243-5.879 15.532-11.72 21.734-10.315 10.953-20.623 21.912-30.944 32.859a14632.899 14632.899 0 0 1-22.644 23.961c-2.619 2.765-4.409 5.949-4.962 9.743a35.272 35.272 0 0 0-.355 4.557c-.054 3.619-.024 7.239-.028 10.859-19.459.002-38.918.002-58.377.002zM134.281 38.307c.533.158 1.062.338 1.601.472 6.514 1.611 10.863 7.298 10.707 14.009-.148 6.35-4.864 11.868-11.265 13.182-7.372 1.514-14.825-3.245-16.458-10.508-1.684-7.489 2.832-14.812 10.274-16.667.584-.146 1.159-.325 1.739-.488h3.402z"/><path d="M294.934 139.964c-.373-.047-.583-.095-.793-.097-1.13-.008-2.259-.004-3.549-.004-.018.576-.047 1.08-.048 1.585-.003 12.565-.002 25.129-.002 37.694 0 7.897.001 15.793-.003 23.69 0 .522.006 1.053-.083 1.564-.51 2.907-3.112 4.991-5.961 4.807-2.915-.188-5.184-2.472-5.392-5.44-.03-.434-.013-.872-.013-1.308v-31.281-1.628h-4.42c-.015.491-.044.995-.044 1.498-.003 10.514-.002 21.028-.003 31.543 0 .48.013.961-.023 1.439-.216 2.859-2.71 5.156-5.614 5.182-2.858.026-5.365-2.145-5.681-4.952-.078-.691-.07-1.393-.07-2.091-.003-21.639-.003-43.279-.003-64.918v-1.782c-.342-.127-.65-.268-.972-.358-4.364-1.224-8.73-2.441-13.094-3.662a26.935 26.935 0 0 1-1.376-.416c-1.87-.632-3.075-1.861-3.604-3.804-2.406-8.83-4.845-17.651-7.273-26.475-.867-3.151-1.732-6.303-2.602-9.454-.103-.372-.23-.737-.356-1.138h-5.092c-.037.347-.088.677-.104 1.009-.018.392-.004.785-.004 1.178 0 35.513.001 71.026-.008 106.538 0 .868-.028 1.751-.188 2.6-.774 4.1-4.473 6.868-8.661 6.532-4.116-.33-7.25-3.616-7.407-7.775-.021-.566-.011-1.134-.011-1.701V139.38v-1.78c-1.006-.258-1.959-.102-2.895-.13-.958-.028-1.917-.006-3.062-.006-.016.549-.044 1.05-.044 1.551-.003 9.467-.002 18.934-.002 28.402 0 10.601.009 21.203-.015 31.804-.002.993-.086 2.02-.349 2.972-1.07 3.879-4.717 6.234-8.819 5.786-3.775-.412-6.778-3.567-7.055-7.431-.05-.695-.041-1.395-.041-2.093-.002-35.469-.002-70.938-.002-106.408v-1.872h-4.808c-.174.532-.377 1.094-.541 1.666-3.336 11.647-6.675 23.293-9.993 34.946-.604 2.121-1.77 3.759-3.957 4.309-3.696.929-6.725-.548-7.767-4.221-2.177-7.673-4.386-15.336-6.581-23.003-1.175-4.106-2.348-8.213-3.526-12.318-.131-.457-.29-.906-.447-1.394h-5.182l15.529 64.909c-4.595.047-9.053-.004-13.665.031v1.665c0 14.572.005 29.143-.011 43.715-.001.907-.036 1.849-.275 2.714-.896 3.25-4.101 5.36-7.388 4.96a6.875 6.875 0 0 1-6.058-6.517c-.029-.566-.018-1.134-.018-1.701l-.001-43.06v-1.722h-5.814c-.019.505-.053 1.007-.053 1.51-.003 12.085-.002 24.17-.003 36.254 0 2.879.052 5.76-.023 8.638-.098 3.773-3.257 6.704-7.029 6.63-3.544-.07-6.482-2.904-6.675-6.449-.031-.566-.021-1.134-.021-1.701l-.001-43.191v-1.73c-4.656-.07-9.208.016-13.904-.051l15.686-64.889h-5.219c-.132.429-.278.874-.407 1.323-3.402 11.855-6.82 23.705-10.189 35.569-.648 2.28-1.983 3.75-4.306 4.231-2.423.502-4.512-.215-6.147-2.037-1.41-1.572-1.507-3.453-.942-5.415 1.254-4.356 2.5-8.713 3.751-13.07 2.442-8.503 4.882-17.007 7.328-25.509.827-2.876 2.041-5.573 3.92-7.922 3.565-4.457 8.188-6.821 13.932-6.833 8.725-.018 17.451-.011 26.177-.003 6.119.006 10.923 2.6 14.521 7.486 1.674 2.273 2.75 4.841 3.525 7.545 1.644 5.74 3.295 11.478 4.945 17.216.096.333.208.66.398 1.259.198-.549.335-.87.431-1.203 1.656-5.736 3.308-11.474 4.957-17.212.938-3.262 2.301-6.315 4.547-8.898 3.512-4.038 7.94-6.181 13.32-6.19 11.43-.02 22.861-.015 34.291-.003 6.223.006 11.079 2.673 14.679 7.688 1.567 2.183 2.595 4.631 3.333 7.206 3.484 12.149 6.97 24.297 10.458 36.445.167.581.354 1.156.547 1.784 1.739.17 3.424.392 5.116.488 2.654.151 5.312.29 7.969.305 7.286.041 14.572-.021 21.857.03 4.225.029 7.678 1.783 10.314 5.079 1.69 2.113 2.579 4.553 2.586 7.265.02 8.115.016 16.229.003 24.344-.004 2.473-1.44 4.187-3.691 4.499-2.24.31-4.4-1.329-4.684-3.578-.065-.517-.056-1.045-.057-1.568-.003-6.326-.002-12.652-.002-18.978.003-.508.003-1.018.003-1.554zM207.554 66.135c-7.633-.042-13.804-6.259-13.765-13.867.039-7.606 6.291-13.838 13.86-13.815 7.664.023 13.848 6.28 13.809 13.975-.038 7.621-6.253 13.749-13.904 13.707z"/><path d="M266.708 109.922c.01-5.397 4.347-9.69 9.752-9.653 5.338.036 9.63 4.334 9.641 9.653.011 5.361-4.358 9.751-9.706 9.755-5.36.002-9.698-4.365-9.687-9.755z"/></g></svg>