<svg xmlns="http://www.w3.org/2000/svg" viewBox="0 0 400 400"><g fill="#231F20"><path d="M225.465 270.58c-39.028-.001-78.056.019-117.083-.014-10.438-.009-15.85-3.85-16.271-11.31-.432-7.659 5.822-13.086 15.881-13.283 11.054-.217 22.118-.241 33.171-.006 5.371.114 7.705-1.716 7.445-7.32-.332-7.139-.177-14.308-.046-21.461.19-10.383 5.198-15.143 15.199-14.117 48.391 4.965 96.768 10.056 145.154 15.064 8.066.835 16.157 1.427 24.226 2.229 12.946 1.287 19.71 8.709 19.966 21.782.557 28.438.557 28.438-28.121 28.438l-99.521-.002z"/><path d="M51.555 270.256c.001-24.397-.023-48.795.026-73.192.007-3.566.087-7.171.604-10.689 1.14-7.768 5.69-12.69 13.653-12.484 8.491.219 12.966 5.892 13.393 13.954.532 10.057.19 20.161.196 30.245.012 19.193.502 38.404-.21 57.57-.346 9.311 2.95 11.232 11.639 11.2 82.95-.306 165.902-.185 248.853-.18 13.191.001 13.21.015 13.223 13.308.016 16.265-.242 32.535.105 48.792.153 7.173-2.449 9.618-9.638 9.658-18.332.102-18.33.396-18.338-17.553-.003-6.831-.306-13.679.072-20.489.375-6.759-2.187-8.989-9.03-8.924-31.876.305-63.757.134-95.637.134-43.59 0-87.182.197-130.769-.176-8.117-.069-10.975 2.254-10.411 10.402.627 9.065-.114 18.216.21 27.312.236 6.603-2.124 9.158-8.993 9.285-18.949.349-18.947.623-18.95-17.909-.001-23.421.001-46.842.002-70.264zM364.042 118.625c-4.188 8.41-7.567 16.544-12.318 23.778-1.175 1.789-7.451 2.007-10.281.65-25.514-12.229-50.78-24.976-76.126-37.557-18.061-8.965-36.269-17.648-54.126-27.002-6.122-3.207-10.963-3.237-17.173-.099-42.346 21.393-84.889 42.395-127.375 63.511-3.188 1.585-6.426 3.069-11.283 5.382l-14.281-28.796c4.291-2.32 7.345-4.085 10.495-5.657 47.407-23.651 94.762-47.411 142.357-70.678 4.278-2.091 11.105-2.958 15.108-1.015 50.017 24.283 99.734 49.187 149.513 73.959 1.425.709 2.7 1.72 5.49 3.524z"/><path d="M115.445 191.052c13.293.16 22.967 10.296 22.75 23.837-.212 13.242-10.445 22.794-24.051 22.452-12.885-.324-22.282-10.158-22.243-23.278.04-13.366 10.074-23.173 23.544-23.011z"/></g></svg>