<svg xmlns="http://www.w3.org/2000/svg" viewBox="0 0 400 400"><path d="M122.354 235.104l27.717-19.011 7.465 7.124c-13.956 11.822-23.068 28.558-43.281 31.255-16.582 2.213-24.341-3.836-21.253-20.253 1.555-8.269 6.003-16.494 10.915-23.496 5.368-7.652 12.784-13.868 20.606-22.072l11.646 15.66c22.469-22.643 43.519-43.652 64.298-64.926 5.863-6.003 11.158-12.609 16.235-19.302 1.619-2.134 2.551-5.52 2.309-8.198-.697-7.727 2.962-13.917 9.034-16.269 3.489-1.352 9.336 2.556 13.769 4.795 2.415 1.22 4.734 3.573 5.961 5.991 2.008 3.958 5.555 10.265 4.056 12.231-3.259 4.277-9.188 8.681-14.214 8.911-6.538.298-10.27 2.822-14.503 6.887-34.173 32.824-68.519 65.468-102.813 98.167l2.053 2.506zm109.53-134.319c-8.166 8.33-7.175 17.056 1.792 19.615 3.103.886 7.173-1.619 10.802-2.576-.846-2.67-1.047-5.861-2.686-7.893-2.684-3.331-6.302-5.909-9.908-9.146zM249.386 186.136l7.172 7.826 37.65-41.181 4.097 2.907c-1.623 3.345-2.553 7.347-4.991 9.922-10.229 10.803-20.909 21.179-31.904 32.192l7.229 8.38 37.75-41.513 3.568 2.575c-1.568 3.158-2.496 6.921-4.814 9.367-9.593 10.122-19.834 19.632-29.386 29.791-6.36 6.764-12.086 6.386-17.4-.468-5.379-6.938-9.14-5.761-14.836.219-16.61 17.438-34.106 34.03-50.904 51.294-7.812 8.028-14.995 16.699-22.032 25.426-1.452 1.801-.437 5.403-1.52 7.727-2.545 5.461-4.717 11.768-9.005 15.43-1.849 1.579-8.755-2.153-12.998-4.222-2.425-1.183-4.722-3.551-6-5.957-2.204-4.15-6.136-9.945-4.752-12.904 2.89-6.184 8.876-10.499 17.048-9.543 2.386.279 5.729-.27 7.339-1.801 26.768-25.439 53.335-51.089 79.917-76.723.875-.844 1.438-2.012 2.246-3.172-.77-1.201-1.316-2.358-2.131-3.277-12.031-13.549-12.062-13.565.519-26.144 10.083-10.082 20.224-20.108 30.379-30.117.347-.342 1.133-.241 4.641-.877-2.527 4.892-3.594 8.872-6.097 11.467-10.319 10.703-21.074 20.987-32.111 31.86l7.157 7.676 37.824-40.485 3.668 2.205c-1.518 3.311-2.296 7.334-4.681 9.81-10.325 10.721-21.118 20.991-32.642 32.31zm-94.269 115.486c9.478-6.84 9.085-12.537 3.408-18.168-5.348-5.304-10.334-4.172-16.68 4.28l13.272 13.888z"/><g><path d="M152.961 46.971C67.96 73.583 20.629 164.061 47.242 249.063a161.134 161.134 0 0 0 3.289 9.417c-.041-.129-.066-.261-.101-.39.035.13.061.262.101.392.064.202.144.395.218.591l.165.429c2.03 4.661 7.285 7.14 12.247 5.587 5.315-1.663 8.271-7.318 6.608-12.631a9.844 9.844 0 0 0-.366-.987 142.84 142.84 0 0 1-2.932-8.428C43.182 168.662 84.6 89.486 158.979 66.198c74.381-23.288 153.556 18.128 176.845 92.51 23.289 74.382-18.13 153.557-92.51 176.844-51.486 16.12-105.266 1.231-141.221-34.129-.262-.258-.523-.518-.783-.778-2.559-2.282-6.212-3.21-9.722-2.111-5.312 1.663-8.27 7.318-6.608 12.63a10.029 10.029 0 0 0 2.875 4.468l-.004-.004c-.007.006-.012.013-.018.02 41.087 40.5 102.602 57.573 161.5 39.131 85.001-26.613 132.331-117.092 105.718-202.093-26.612-85-117.092-132.33-202.09-105.715z"/></g></svg>