<svg xmlns="http://www.w3.org/2000/svg" viewBox="0 0 400 400"><path fill="#231F20" d="M80.05 160.081c16.414 14.23 35.036 25.252 53.757 36.094 1.694.981 3.675 1.396 3.331 4.452-.318 2.835-1.46 3.888-3.916 4.724-5.025 1.711-9.957 3.703-14.893 5.662-3.394 1.347-6.732 2.836-10.284 4.341l1.554 3.113 26.917-10.853c.145 1.262.252 1.938.296 2.618 1.353 20.971 10.075 38.2 26.391 51.455 1.282 1.041 3.603 1.574 5.252 1.279 28.002-5.014 55.46-12.229 82.571-20.802.801-.253 1.577-.585 2.882-1.074-1.86-.761-3.132-1.29-4.41-1.802-45.317-18.155-89.49-38.674-131.33-63.954-12.669-7.655-25.188-15.595-35.738-26.157-1.776-1.777-3.384-3.835-4.614-6.019-2.177-3.866-.97-6.435 3.287-7.517 1.441-.366 2.986-.678 4.444-.555 5.631.474 11.318.757 16.85 1.812 8.126 1.55 16.137 3.7 24.197 5.595l.271-.6c-1.148-.375-2.275-.841-3.446-1.112-8.773-2.03-17.475-4.569-26.357-5.861-7.933-1.154-16.122-1.661-24.099-1.088-8.147.586-10.365 5.887-5.557 12.557 3.608 5.011 7.97 9.64 12.644 13.692zm64.247 42.235s54.356 31.373 90.959 40.337l-65.735 12.699s-31.774-21.662-25.224-53.036zM324.189 184.97c10.461.155 19.321-8.452 19.52-18.963.21-11.078-8.155-19.728-19.201-19.858-10.718-.126-19.576 8.534-19.632 19.192-.056 10.652 8.62 19.47 19.313 19.629zM108.99 85.832c8.248.071 14.81-6.316 14.915-14.517.104-8.119-6.445-14.679-14.693-14.717-8.032-.038-14.643 6.39-14.738 14.328-.098 8.211 6.354 14.836 14.516 14.906zM190.782 317.328c-7.485.094-13.303 6-13.311 13.512-.007 7.486 5.858 13.273 13.448 13.27 7.518-.004 13.335-5.878 13.283-13.412-.053-7.493-6.044-13.463-13.42-13.37zM82.405 224.187c.087 6.511 5.269 11.591 11.753 11.517 6.45-.073 11.521-5.317 11.445-11.837-.075-6.482-5.332-11.637-11.768-11.541-6.458.096-11.516 5.345-11.43 11.861zM294.22 110.828c4.535.012 8.22-3.57 8.28-8.046.06-4.539-3.873-8.437-8.423-8.346-4.477.089-8.106 3.838-8.044 8.31.063 4.589 3.589 8.07 8.187 8.082zM285.639 289.921c-4.537.103-8.023 3.749-7.949 8.312.072 4.455 3.825 8.138 8.264 8.111 4.375-.027 8.209-3.881 8.2-8.244-.009-4.591-3.854-8.285-8.515-8.179z"/><path fill="#231F20" d="M136.602 153.536c4.099.172 7.606-3.137 7.693-7.257.086-4.107-3.286-7.573-7.376-7.581-3.937-.007-7.25 3.284-7.311 7.262-.061 4.044 3.047 7.411 6.994 7.576z"/><path fill="none" d="M231.781 151.178c-30.038-13.502-64.867-2.199-81.675 25.12l117.104 52.639c9.275-30.705-5.39-64.256-35.429-77.759z"/><path fill="#231F20" d="M376.859 176.804c-8.155-7.15-18.377-8.337-28.565-9.8l-1.616 7.261c1.195.487 2.261.898 3.308 1.353 9.981 4.341 11.854 11.503 5.035 20.082-2.214 2.785-4.808 5.335-7.531 7.634-9.784 8.264-20.944 14.364-32.393 19.939-.964.469-2.685.182-3.704-.383-10.504-5.833-20.971-11.736-31.34-17.802-1.23-.72-2.445-2.463-2.605-3.854-1.014-8.804-3.131-17.258-6.991-25.256-.238-.493-.34-1.052-.661-2.08l31.41-3.125-.923-4.013c-9.748 1.141-19.287 2.056-28.75 3.482-3.042.458-4.473-.299-6.115-2.744-22.593-33.627-68.893-41.187-101.018-16.524-1.876 1.44-3.415 1.812-5.637.936-3.675-1.448-7.485-2.55-11.239-3.798l-.36 1.012 13.347 4.929c-8.522 7.846-14.893 16.606-18.872 27.132 1.021.603 1.796 1.097 2.602 1.532 37.97 20.484 77.168 38.283 117.464 53.672 5.023 1.918 9.73-.264 11.519-5.27.776-2.173 1.643-4.356 2.045-6.61 1.082-6.079 1.936-12.199 2.956-18.789l33.907 18.884c-1.049.642-1.389.909-1.772 1.075-8.366 3.633-16.639 7.503-25.123 10.838-41.637 16.367-84.625 27.916-128.733 35.208-23.634 3.907-47.409 6.684-71.452 5.051-8.778-.596-17.563-1.496-25.425-5.949-6.771-3.835-8.35-9.546-4.026-16.026 2.465-3.695 5.614-7.096 9.017-9.963 4.925-4.149 10.359-7.695 15.717-11.601l-1.96-3.735c-12.658 6.957-24.791 13.994-34.605 24.18-3.298 3.423-6.066 7.601-8.148 11.886-2.422 4.986-.93 10.349 3.548 13.639 3.29 2.417 7.083 4.394 10.939 5.751 10.81 3.801 22.176 4.433 33.503 4.723 20.051.512 39.975-1.35 59.788-4.194 40.45-5.806 80.016-15.413 118.843-28.139 1.893-.62 4.322-.465 6.271.111 5.863 1.733 11.57 3.984 17.411 5.797 19.864 6.166 39.764 12.285 60.689 13.645 4.204.273 8.584-.09 12.696-1.003 5.461-1.213 7.123-5.011 4.45-9.957-1.842-3.407-4.083-6.901-6.984-9.375-8.954-7.638-18.305-14.81-27.515-22.148-1.015-.809-2.11-1.518-3.486-2.501 2.38-1.227 4.223-2.169 6.059-3.124 13.356-6.952 26.532-14.26 37.527-24.702 3.872-3.677 7.25-8.124 9.912-12.759 3.04-5.294 1.906-10.74-2.414-14.528zM267.21 228.938l-117.104-52.639c16.808-27.319 51.636-38.622 81.675-25.12s44.704 47.053 35.429 77.759zm87.761 38.097c-13.521 2.985-47.892-5.86-72.514-15.492l36.887-16.697s49.148 29.204 35.627 32.189z"/></svg>