<svg xmlns="http://www.w3.org/2000/svg" viewBox="0 0 400 400"><path d="M275.201 123.34c2.294.575 3.919.895 5.486 1.394 3.448 1.098 4.725 2.86 4.721 6.506-.009 8.357-.003 16.715-.14 25.071-.029 1.755.559 2.419 2.172 2.967 23.984 8.141 42.743 22.981 55.345 44.932 16.502 28.747 18.868 59.055 6.044 89.579-14.347 34.15-40.464 55.328-77.092 60.929-41.596 6.361-75.103-8.759-99.794-42.942-1.266-1.753-2.456-2.333-4.553-2.312-18.192.188-36.252-1.157-53.994-5.41-4.298-1.031-8.592-2.269-12.683-3.92-4.058-1.638-7.858-3.916-11.893-5.975 0 .428.007 1.072-.001 1.716-.086 6.474-.132 12.949-.278 19.422-.084 3.719 1.274 6.73 4.023 9.173 4.389 3.901 9.729 5.92 15.214 7.602 11.569 3.548 23.484 5.36 35.494 6.224 17.333 1.247 34.701 2.014 52.157 2.736-.99.203-1.974.443-2.97.605-20.778 3.359-41.643 3.764-62.574 1.815-10.212-.951-20.308-2.523-30.01-5.998-5.344-1.914-10.454-4.268-14.28-8.709-2.044-2.372-3.176-5.064-3.153-8.23.068-9.627.084-19.254.22-28.879.013-.925.541-1.992 1.154-2.721.757-.901 1.852-1.517 3.325-2.665-5.338-2.25-4.342-6.267-4.316-9.965.065-9.26.113-18.521.179-27.781.024-3.329-.751-6.905 3.424-9.202-4.055-2.417-3.291-5.958-3.26-9.304.063-6.695 1.015-13.536-.031-20.055-1.964-12.233-.422-24.44-1.116-36.63-.043-.754-.716-1.666-1.361-2.151-1.254-.942-2.733-1.576-4.054-2.437-4.282-2.791-6.425-6.496-6.291-11.885.31-12.49.231-24.99.182-37.486-.023-5.832 2.226-10.471 6.561-14.241 5.139-4.469 11.134-7.397 17.481-9.635 1.611-.568 2.21-1.272 2.184-3.004-.094-6.247.174-12.505-.063-18.744-.252-6.629 2.559-11.589 7.478-15.641 4.885-4.024 10.505-6.703 16.388-8.874 11.498-4.244 23.464-6.49 35.557-8.107 20.805-2.783 41.705-3.425 62.646-2.22 19.72 1.134 39.279 3.393 58.116 9.81 6.152 2.095 12.017 4.802 17.17 8.84 5.325 4.172 8.328 9.333 8.185 16.449-.232 11.512.048 23.036.199 34.554.021 1.621-.338 2.71-1.865 3.409-7.576 3.464-15.132 6.973-22.701 10.451-.654.296-1.353.485-2.632.939zm-19.515 45.564c-46.901-.236-86.451 38.283-86.398 86.438.052 47.189 38.74 86.068 85.87 86.141 47.785.075 86.645-38.432 86.705-85.916.061-47.909-38.449-86.636-86.177-86.663zm-154.381-9.884l-.764.037c0-4.112.038-8.224-.01-12.335-.063-5.38-.092-5.38-5.388-6.668-.07-.017-.15.006-.445.024l-1.838 17.131-.771-.025c0-5.184.033-10.368-.012-15.551-.028-3.238-.08-3.238-3.607-3.903l-1.824 17.168-.848-.036c0-5.703.03-11.407-.037-17.109-.008-.719-.522-1.432-.801-2.148l-.61.208-1.901 17.743-.809-.027c0-5.943-.036-11.887.024-17.829.016-1.599-.494-2.528-2.571-2.745 0 6.223.318 12.34-.097 18.407-.352 5.141 1.71 8.529 5.874 11.002 1.485.882 2.965 1.881 4.584 2.406 6.424 2.085 12.798 4.488 19.378 5.898 26.396 5.655 53.2 7.212 80.123 7.18 1-.001 2.16-.553 2.975-1.194 23.225-18.254 49.451-25.392 78.714-21.373 1.681.231 3.358.486 4.892.709v-20.579l-15.344 3.519-.172-.541c.448-.226.895-.454 1.345-.677 2.827-1.4 5.74-2.656 8.444-4.264 1.177-.7 1.923-2.124 2.865-3.22-1.149-.855-2.199-1.93-3.474-2.507-1.486-.672-3.159-.947-4.768-1.324-2.034-.477-4.085-.884-6.69-1.441 1.953-.675 3.297-1.141 4.642-1.603 9.567-3.284 18.816-7.203 27.096-13.161 1.613-1.161 2.375-2.347 2.31-4.425-.166-5.341-.05-10.691-.061-16.037-.001-.69-.083-1.379-.125-2.032-3.53 1.73-6.762 3.509-10.147 4.919a100.022 100.022 0 0 1-10.634 3.728c-14.008 4.05-28.375 6.059-42.872 7.262-19.101 1.584-38.207 1.64-57.3-.047-7.477-.661-14.927-1.627-22.631-2.481l-1.9 17.783-.591-.01v-18.408l-10.17-2.071-1.893 17.701-.61-.025V97.747l-7.961-2.217-1.845 17.527-.785-.007c0-5.082.029-10.164-.01-15.245-.029-3.79-.154-3.883-4.238-4.47l-1.808 17.413c-.333-.724-.441-1.451-.462-2.181-.138-4.817-.357-9.635-.336-14.451.009-2.166-.846-3.158-2.986-3.395l-1.818 17.246-.825-.033c0-5.313-.218-10.637.081-15.933.181-3.207-1.622-4.285-4.138-5.412-.044.969-.102 1.768-.114 2.567-.08 5.119.207 10.276-.319 15.349-.593 5.722 1.71 9.612 6.556 11.904 4.866 2.301 9.88 4.483 15.051 5.913 20.278 5.609 41.126 7.454 62.037 8.599 8.92.488 17.864.541 27.222.803-1.153.262-1.927.523-2.718.604-9.876 1.002-19.735 2.402-29.637 2.871-20.141.953-40.178-.295-59.91-4.746-7.57-1.707-15.013-3.89-21.504-8.416-3.667-2.557-6.082-5.812-5.74-10.565.023-.322-.135-.658-.322-1.487-3.207 1.735-6.275 3.159-9.081 4.985-2.445 1.591-2.768 4.15-1.376 6.753 1.844 3.449 5.013 5.342 8.337 6.984 7.82 3.863 16.223 5.928 24.696 7.696 15.787 3.293 31.772 5.159 47.833 6.447 21.556 1.729 43.13 2.707 64.756 1.662.826-.04 1.65-.129 2.475-.19.726-.054 1.452-.1 2.178-.149l.001.552c-44.417 6.237-88.773 7.665-133.147-2.082-.566 5.483-1.13 10.93-1.694 16.377zm98.102-68.74c9.016-.441 18.048-.682 27.045-1.368 15.63-1.191 31.097-3.492 46.012-8.528 4.104-1.385 8.151-3.129 11.928-5.241 4.025-2.25 3.906-4.765-.052-7.233a39.314 39.314 0 0 0-6.653-3.292c-16.154-6.221-33.07-8.914-50.199-10.319-25.739-2.111-51.424-1.611-76.96 2.602-10.702 1.766-21.233 4.237-31.252 8.509a29.88 29.88 0 0 0-5.863 3.313c-2.639 1.926-2.589 3.786.048 5.793 1.364 1.038 2.855 2.056 4.453 2.613 6.447 2.247 12.856 4.72 19.464 6.366 20.345 5.068 41.12 6.451 62.029 6.785zm-31.604 214.934c-6.53-11.623-10.429-23.397-12.282-36.017-1.434-.109-2.773-.17-4.102-.32-9.487-1.069-19.041-1.747-28.44-3.34-11.809-2.001-23.468-4.813-33.178-12.558-.068-.054-.266.053-.824.182 0 8.41.082 16.915-.058 25.416-.035 2.102.615 3.544 2.108 4.889 5.303 4.776 11.607 7.749 18.196 10.195 13.26 4.922 27.072 7.504 41.019 9.448 5.648.789 11.328 1.365 17.561 2.105zM90.699 177.453c0 6.737.267 12.982-.086 19.192-.274 4.818 1.584 8.331 5.449 10.61 4.378 2.582 8.919 5.038 13.662 6.825 15.358 5.788 31.458 8.503 47.625 10.861 1.434.209 1.973-.293 2.38-1.58 2.551-8.062 6.306-15.566 10.786-22.715 1.283-2.047 2.687-4.017 4.008-5.98-9.13-.604-18.013-.939-26.841-1.828-19.52-1.967-38.812-4.967-56.983-15.385zm66.598 52.893c-23.139-2.035-46.093-5.054-67.798-15.609 0 8.102-.06 15.849.063 23.593.019 1.201.59 2.647 1.394 3.538 3.798 4.208 8.661 6.944 13.752 9.257 11.728 5.329 24.17 8.189 36.78 10.411 4.341.765 8.709 1.374 13.398 2.106 0-5.844-.309-11.337.087-16.779.397-5.451 1.497-10.851 2.324-16.517z"/><path d="M236.369 216.047l-10.529-25.164 9.559-3.68c1.489 4.327 2.898 8.503 4.365 12.659 1.301 3.684 2.704 7.333 3.988 11.023.466 1.341 1.009 1.602 2.478 1.178 5.615-1.619 11.293-3.022 16.956-4.473.704-.18 1.458-.162 2.368-.254l1.97 12.558c-4.842.794-9.558 1.283-14.12 2.403-3.915.961-7.73 2.468-11.44 4.076-2.17.94-4.197 2.374-6.023 3.904-2.552 2.139-3.967 4.898-3.119 8.397.919 3.791 3.02 6.63 6.908 7.583 2.683.658 5.473.992 8.235 1.189 7.871.563 15.841.402 23.612 1.584 14.619 2.223 23.044 14.218 20.581 28.301-.998 5.704-4.226 10.068-8.626 13.608-2.1 1.689-4.395 3.136-6.858 4.872 1.566 3.905 3.139 7.944 4.804 11.944 1.669 4.012 3.43 7.985 5.241 12.187l-9.647 3.748-8.752-24.284c-8.75 3.201-17.341 5.81-26.549 6.998l-2.049-12.785c4.991-.736 10.005-.993 14.731-2.294 5.759-1.586 11.323-3.934 16.87-6.199 1.829-.747 3.48-2.113 4.979-3.456 5.441-4.878 4.538-12.609-2.213-15.456-3.769-1.589-8.12-2.023-12.263-2.449-7.696-.791-15.554-.524-23.127-1.899-15.754-2.861-23.467-19.053-16.283-33.096 2.558-5 6.681-8.443 11.413-11.253.708-.424 1.425-.828 2.54-1.47z"/></svg>