<svg xmlns="http://www.w3.org/2000/svg" viewBox="0 0 400 400"><path d="M43.273 194.299l7.242 1.714-7.413-8.231c7.422-1.24 13.94-2.24 20.424-3.428 32.004-5.865 63.329-14.42 93.391-26.755 23.24-9.536 45.895-20.57 68.453-31.663 11-5.409 21.253-12.365 31.695-18.862 2.706-1.683 4.824-1.893 7.754-.611a13659.147 13659.147 0 0 0 92.68 40.153c3.097 1.327 3.574 2.729 2.966 5.922-2.241 11.761-3.89 23.636-6.205 35.38-.407 2.066-2.579 4.387-4.55 5.452-30.096 16.255-60.425 32.084-90.436 48.493-33.129 18.115-65.442 37.611-96.16 59.631-2.955 2.119-5.327 2.465-8.602.917-35.375-16.714-70.814-33.291-106.183-50.016-1.384-.654-2.763-2.231-3.27-3.683-4.765-13.652-6.827-27.722-5.207-42.132.458-4.079 2.194-8.014 3.421-12.281zm266.904 16.14l42.151-21.451-1.021-1.9a856215.89 856215.89 0 0 0-41.482 22.952l-19.663 9.865.687 1.297 19.328-10.763zm-107.784-56.922c18.822 10.558 37.092 20.841 55.432 30.999 1.003.555 2.832.535 3.858-.008a3019.486 3019.486 0 0 0 41.418-22.304c1.183-.649 2.381-2.182 2.619-3.479.78-4.256 1.121-8.592 1.705-13.525-13.916-4.193-25.861-14.668-41.735-14.188-1.697.051-3.722-.322-5.08-1.251-5.802-3.97-10.776-2.111-15.645 1.678-.411.319-.925.507-1.394.75l-41.178 21.328zM101.164 206.11c11.555 6.659 23.31 13.389 35.014 20.206 3.469 2.021 6.573 2.66 10.81 1.321 3.959-1.251 8.627-.285 12.982-.241 1.532.015 3.25.701 4.563.216 15.823-5.84 31.586-11.843 47.891-18.002-1.274-1.352-1.564-1.845-1.996-2.093-18.207-10.435-36.398-20.898-54.699-31.166-1.371-.769-3.728-.637-5.304-.054a2476.865 2476.865 0 0 0-42.49 16.181c-1.374.537-2.8 1.922-3.395 3.27-1.254 2.84-1.974 5.916-3.376 10.362zm162.461-3.274c-.808-.757-1.116-1.177-1.529-1.414-27.495-15.768-54.988-31.541-82.54-47.21-1.178-.67-3.087-.888-4.345-.442-5.945 2.111-11.782 4.526-17.837 6.904.57.661.831 1.168 1.246 1.417 27.501 16.444 55.004 32.886 82.565 49.228 1.167.692 3.173 1.051 4.311.528 6.039-2.777 11.924-5.884 18.129-9.011zM143.686 170.48l-.07-2.136c-2.698 0-5.554-.586-8.068.094-17.183 4.648-34.221 9.843-51.455 14.288-11.016 2.841-22.286 4.698-34.681 7.251 3.892 3.389 6.679 6.623 10.154 8.713 27.648 16.627 55.446 33.003 83.14 49.554 3.499 2.091 6.737 2.167 10.447.732 23.011-8.896 46.069-17.671 69.099-26.518 2.497-.959 4.913-2.127 7.515-3.262-3.711-4.379-7.07-4.064-11.642-2.223-22.233 8.952-44.644 17.466-67.07 25.928-1.826.689-4.641.515-6.322-.442-21.615-12.296-43.142-24.749-64.609-37.304-6.018-3.52-11.765-7.505-17.636-11.276 28.12-5.166 54.935-13.327 81.198-23.399zm197.856-20.888l-70.954 41.746c3.764 3.312 6.902 4.074 11.652 1.246 22.887-13.622 46.064-26.755 69.132-40.074 1.618-.934 3.177-1.972 5.183-3.222-1.507-.724-2.435-1.211-3.394-1.625-29.459-12.72-58.895-25.495-88.445-38.003-1.932-.818-5.12-.272-7.071.813-16.108 8.954-32.018 18.264-48.086 27.292-5.793 3.255-11.853 6.034-17.791 9.031l.397 1.853c2.36-.373 5.056-.133 7.028-1.214 19.414-10.633 38.766-21.383 57.978-32.375 3.239-1.853 5.563-2.485 9.038-.522 6.437 3.636 13.175 6.767 19.903 9.858 17.934 8.238 35.929 16.344 55.43 25.196zM145.898 272.4l1.426-1.988c-1.397-1.198-2.618-2.778-4.226-3.515-3.514-1.611-7.233-2.772-10.853-4.156-28.929-11.063-55.644-26.496-82.441-41.768-1.734-.988-3.543-1.846-5.469-2.843-1.481 6.086.455 9.386 5.612 11.859 17.943 8.602 35.461 18.125 53.598 26.278 13.756 6.182 28.21 10.812 42.353 16.133zm101.994-27.876c6.556-3.682 12.344-6.871 18.044-10.211.747-.437 1.469-1.64 1.48-2.497.109-8.53.066-17.062.066-26.78-7.6 3.87-13.727 6.844-19.661 10.161-.959.536-1.543 2.622-1.484 3.955.361 8.067.96 16.124 1.555 25.372zM46.507 199.865c-2.617 2.947-1.689 5.004 1.358 6.748a384.892 384.892 0 0 1 10.893 6.506c26.115 16.118 52.124 32.426 80.507 44.429 1.406.595 2.868 1.055 4.304 1.578l.494-1.278c-32.508-19.32-65.015-38.642-97.556-57.983zm104.261 87.449l1.439-2.039c-1.824-1.398-3.472-3.186-5.512-4.108-3.356-1.516-7.081-2.212-10.451-3.704-27.058-11.978-54.072-24.056-81.091-36.123-2.617-1.169-5.172-2.477-7.756-3.721l-1.158 1.751c1.941 1.613 3.644 3.747 5.86 4.761 25.645 11.728 51.331 23.37 77.095 34.833 7.037 3.13 14.374 5.585 21.574 8.35zm-2.386-7.623l1.264-1.666c-1.454-1.398-2.679-3.566-4.398-4.079-34.273-10.24-66.271-25.657-97.639-42.54-.657-.354-1.389-.569-2.086-.849l-.963 1.408c1.675 1.372 3.153 3.172 5.056 4.052 27.469 12.703 54.962 25.352 82.535 37.828 5.223 2.363 10.811 3.918 16.231 5.846zm-4.184-15.178l1.025-1.867c-35.797-13.832-68.313-33.633-101.134-53.781.121 1.985.421 4.389 1.694 5.139 27.172 16.006 53.974 32.725 83.315 44.684 4.995 2.036 10.065 3.888 15.1 5.825zm9.596 19.186l1.684.915c3.737-2.249 7.384-4.665 11.225-6.719 21.414-11.453 42.882-22.802 64.3-34.246 1.51-.807 2.765-2.09 4.138-3.152l-1.557-2.31c-25.893 13.724-51.802 27.415-77.621 41.277-1.149.617-1.465 2.788-2.169 4.235zm125.427-75.778c26.662-11.742 51.972-24.819 76.578-41.334-1.841-.808-2.035-.966-2.121-.92-24.119 12.82-48.244 25.627-72.295 38.574-1.071.576-1.457 2.424-2.162 3.68zm-44.443 36.973l-.411-.845c-1.363.56-2.785 1.009-4.08 1.696-17.903 9.494-35.847 18.913-53.646 28.597-6.336 3.447-12.399 7.429-18.378 11.475-1.187.803-1.422 3.013-2.415 5.314l78.93-46.237zm-.303-11.949l-.655-1.184c-.93.298-1.889.528-2.786.905-26.124 10.98-52.241 21.974-78.36 32.966-.325.137-.792.17-.955.412-.506.751-.898 1.58-1.334 2.379.834.355 1.7 1.056 2.496.983 1.187-.108 2.355-.695 3.48-1.193a48150.3 48150.3 0 0 0 75.339-33.388c1.005-.447 1.853-1.246 2.775-1.88zm44.45-15.739c1.51.246 1.926.458 2.162.332 23.13-12.294 46.259-24.59 69.322-37.007 1.09-.587 1.593-2.263 2.501-3.629-24.059 12.434-47.477 24.51-70.841 36.687-1.154.601-1.847 2.085-3.144 3.617zM52.958 249.445c32.041 19.274 67.264 32.324 102.268 48.544-.713-2.14-.749-3.211-1.179-3.404-33.676-15.091-67.384-30.113-101.089-45.14zm99.844 28.124l81.378-40.907-.339-.674-82.242 37.03 1.203 4.551zm-4.309-19.821l.053.79c1.592-.387 3.234-.636 4.77-1.184 11.768-4.202 23.655-8.115 35.233-12.792 14.194-5.734 28.139-12.089 42.145-18.283 1.302-.576 2.264-1.919 4.365-3.77l-86.566 35.239zm85.742-28.503l-.824-1.515c-.149-.035-.329-.143-.442-.095-27.062 11.493-53.392 24.817-81.902 32.711-.922.255-1.426 2.019-2.124 3.08l1.187 1.026c29.132-9.174 56.157-23.267 84.105-35.207zm45.982-30.881c1.127.074 1.539.236 1.783.098 24.245-13.7 48.49-27.403 72.676-41.207 1.197-.683 1.883-2.263 2.807-3.425l-.96-.886-76.306 45.42zm-44.293 52.307c-14.308 5.164-72.599 41.584-75.354 47.725l75.354-47.725zm116.817-66.493l-.934-1.321c-23.401 12.184-46.809 24.354-70.176 36.602-.911.477-1.429 1.705-2.13 2.582l1.131 1.293 72.109-39.156zm1.155-11.51l-.82-1.224-73.138 40.343c25.572-11.391 50.612-23.725 73.958-39.119zm-74.031 29.208c.788-.06 1.359.055 1.756-.157 23.938-12.774 47.871-25.556 71.753-38.434 1.086-.586 1.696-2.054 2.527-3.111l-.684-.509c-25.02 14.017-50.041 28.033-75.352 42.211zm-78.212 65.11l-.991-1.17-43.019 27.473.974 1.52 43.036-27.823zm-49.448 24.568l.514-1.381-24.154-9.061-.433 1.165 24.073 9.277z"/><path d="M250.741 143.655c8.993.012 16.542 6.042 16.431 13.125-.11 6.947-7.339 12.587-16.249 12.677-.176.002-.352.002-.529-.001-8.903-.144-16.123-5.842-16.176-12.766-.055-7.069 7.522-13.047 16.523-13.035zM157.011 212.81c-2.475-.484-4.411-.7-6.247-1.25-6.478-1.941-10.407-6.415-10.484-11.747-.08-5.554 3.852-10.83 10.661-11.99 4.608-.785 9.785-.216 14.319 1.094 4.811 1.39 7.896 5.47 7.858 10.797-.038 5.327-3.317 8.843-7.973 10.849-2.69 1.158-5.692 1.596-8.134 2.247z"/></svg>