<svg xmlns="http://www.w3.org/2000/svg" viewBox="0 0 400 400"><path fill="none" d="M228.154 265.857c-2.42-6.568-8.233-5.643-13.429-6.015-9.313-.666-18.63-1.289-28.256-1.951 1.118-6.331 2.492-12.009 3.052-17.767.845-8.691 2.882-17.515-1.439-25.989-2.033-3.987-7.908-5.281-10.22-1.635-2.973 4.69-6.649 9.766-7.175 14.965-.659 6.511-2.92 11.845-6.033 17.18-7.071 12.123-16.967 20.829-30.956 23.553-8.424 1.641-17.107 1.958-26.371 2.944l5.899 59.268c2.058.148 3.463.333 4.869.337 11.485.03 22.592 1.393 32.548 7.922 1.981 1.299 4.66 2.104 7.034 2.142 16.095.261 32.212.729 48.286.146 8.815-.32 11.935-7.553 7.833-15.626 9.071-7.441 10.35-12.781 5.184-21.637 7.789-6.032 8.527-10.787 3.283-21.156 5.878-4.749 8.042-10.84 5.891-16.681zM182.814 136.929c1.678 5.761 2.787 11.71 3.809 17.636 1.916 11.107 7.061 19.937 17.135 25.509 5.263 2.911 10.59 5.712 15.757 8.785 1.441.857 2.414 2.501 3.564 3.743 1.726-.149 3.699-.39 5.679-.477 4.689-.208 9.812.809 13.977-.753 8.058-3.023 15.637-7.366 23.302-11.375 9.629-5.036 14.871-13.236 16.854-23.814 1.369-7.303 3.032-14.555 4.744-21.788.382-1.611 1.229-3.329 2.371-4.501 3.153-3.234 5.823-15.935 3.835-19.833-.376-.737-1.073-1.79-1.696-1.845-4.914-.432-4.92-4.258-5.677-7.704-.797-3.628-1.548-7.3-2.776-10.793-4.895-13.924-14.964-20.512-29.494-18.288-13.286 2.034-26.352 2.26-39.59-.192-10.993-2.036-19.622 2.452-25.053 11.942-2.755 4.814-4.197 10.441-5.812 15.826-1.157 3.86-.332 8.769-6.288 9.348-.402.039-1.09.717-1.062 1.049.535 6.391.752 12.851 1.939 19.126.562 2.973 3.612 5.412 4.482 8.399zm73.709-26.344c3.79.257 7.277 1.7 7.99 6.337.27 1.753-.502 3.666-.798 5.507-1.582-.389-3.15-1.016-4.749-1.109-2.117-.124-4.471-.363-6.344.392-4.195 1.69-5.4 1.117-5.272-3.368.136-4.76 3.553-7.79 9.173-7.759zm-21.625 34.23c3.482-.058 6.925-2.418 10.746-3.188-1.069 5.149-4.624 7.564-9.203 8.377-5.349.95-10.193-2.421-12.585-8.751 3.995 1.391 7.537 3.621 11.042 3.562zm-21.07-34.296c5.257.039 9.275 3.733 8.922 8.357-.239 3.133-1.055 4.975-5.027 3.23-2.162-.949-5.272-.846-7.584-.088-3.628 1.19-5.175.468-5.139-3.559.039-4.501 3.904-7.977 8.828-7.94z"/><path d="M250.581 294.824c-1.073-8.103-2.355-15.076-2.855-22.104-1.189-16.686-8.14-33.201-1.677-50.201.285-.748-1.643-3.333-2.675-3.417-5.417-.444-10.884-.548-16.321-.382-3.114.095-4.076 1.986-3.187 5.154 1.242 4.424 2.052 8.968 3.071 13.456 1.495 6.582-1.151 9.743-7.68 9.247-3.888-.295-7.785-.628-11.679-.644-4.103-.016-4.69-1.84-4.559-5.684.294-8.622 1.296-17.637-.707-25.828-3.698-15.122-16.819-21.929-31.062-14.534-4.982 2.586-10.577 3.988-15.885 5.954-12.099 4.482-24.537 8.238-36.2 13.662-13.731 6.386-22.297 17.647-25.512 32.725-1.698 7.971-.55 15.726.465 23.683 2.242 17.569 3.626 35.248 5.43 52.874 1.159 11.328 5.299 15.014 16.84 15.208 9.831.166 19.266 1.344 28.062 6.621 3.932 2.359 9.051 3.665 13.673 3.781 16.631.416 33.35 1.037 49.9-.212 12.085-.912 19.304-7.699 21.251-21.337.265-1.853 1.114-3.615 1.585-5.447 1.475-5.738 3.536-11.426 4.118-17.259.38-3.8 1.319-4.719 4.899-4.844 3.68-.129 7.367-.218 11.055-.309l1.737-14.355c-.693 1.398-1.36 2.793-2.087 4.192zm-31.601 8.871c5.166 8.856 3.887 14.196-5.184 21.637 4.101 8.073.982 15.305-7.833 15.626-16.074.583-32.191.115-48.286-.146-2.374-.038-5.053-.843-7.034-2.142-9.956-6.529-21.063-7.892-32.548-7.922-1.406-.004-2.811-.189-4.869-.337l-5.899-59.268c9.264-.986 17.947-1.303 26.371-2.944 13.989-2.724 23.885-11.43 30.956-23.553 3.113-5.336 5.374-10.669 6.033-17.18.526-5.198 4.201-10.275 7.175-14.965 2.312-3.646 8.187-2.352 10.22 1.635 4.32 8.474 2.283 17.298 1.439 25.989-.56 5.758-1.934 11.436-3.052 17.767 9.626.662 18.942 1.285 28.256 1.951 5.195.372 11.009-.553 13.429 6.015 2.151 5.84-.012 11.932-5.891 16.681 5.245 10.369 4.506 15.124-3.283 21.156zM173.174 155.276c2.885 16.199 10.291 29.273 24.928 37.625 2.431 1.387 4.939 2.657 7.266 4.2 11.507 7.629 23.907 11.293 37.767 8.833 12.405-2.202 22.485-9.08 32.695-15.865 10.842-7.205 16.922-17.245 19.56-29.779 1.455-6.912 1.739-14.861 5.507-20.293 4.614-6.653 5.755-13.575 6.692-20.804.918-7.089.989-14.984-4.343-20.121-4.104-3.954-4.829-8.238-5.76-12.977-.853-4.342-1.498-8.729-2.492-13.037-5.454-23.655-17.387-33.233-41.512-33.339a4076.579 4076.579 0 0 0-39.873.005c-20.665.11-33.712 10.734-37.992 30.879-1.544 7.268-2.955 14.565-4.468 21.841-.246 1.182-.349 2.897-1.13 3.387-7.519 4.718-7.504 12.259-7.922 23.212.746 3.265.769 10.684 4.098 16.052 4.012 6.468 5.725 13.144 6.979 20.181zm4.281-46.92c5.955-.579 5.131-5.487 6.288-9.348 1.616-5.385 3.057-11.012 5.812-15.826 5.432-9.49 14.06-13.978 25.053-11.942 13.238 2.452 26.304 2.225 39.59.192 14.53-2.224 24.599 4.364 29.494 18.288 1.228 3.493 1.979 7.165 2.776 10.793.758 3.446.763 7.272 5.677 7.704.623.055 1.32 1.108 1.696 1.845 1.988 3.897-.682 16.598-3.835 19.833-1.142 1.172-1.989 2.89-2.371 4.501-1.712 7.232-3.375 14.484-4.744 21.788-1.983 10.578-7.225 18.778-16.854 23.814-7.666 4.009-15.245 8.352-23.302 11.375-4.165 1.562-9.289.545-13.977.753-1.98.088-3.953.328-5.679.477-1.15-1.242-2.123-2.886-3.564-3.743-5.167-3.072-10.494-5.874-15.757-8.785-10.074-5.572-15.219-14.402-17.135-25.509-1.022-5.927-2.131-11.875-3.809-17.636-.87-2.987-3.92-5.427-4.482-8.398-1.187-6.275-1.404-12.736-1.939-19.126-.028-.333.661-1.012 1.062-1.05z"/><path d="M210.14 122.018c2.312-.758 5.422-.861 7.584.088 3.971 1.744 4.788-.097 5.027-3.23.353-4.624-3.665-8.319-8.922-8.357-4.924-.036-8.789 3.439-8.828 7.94-.036 4.028 1.511 4.749 5.139 3.559zM252.622 121.71c1.872-.754 4.227-.516 6.344-.392 1.599.094 3.167.72 4.749 1.109.297-1.84 1.068-3.754.798-5.507-.713-4.637-4.2-6.08-7.99-6.337-5.62-.03-9.037 2.999-9.173 7.757-.128 4.488 1.076 5.061 5.272 3.37zM236.441 150.004c4.58-.813 8.134-3.228 9.203-8.377-3.82.77-7.264 3.13-10.746 3.188-3.505.059-7.048-2.171-11.043-3.561 2.393 6.33 7.237 9.701 12.586 8.75zM226.937 237.33l-13.051-26.978h47.015l-17.485 30.784 12.539 66.959h-26.987v-16.604l5.782-15.587s5.08-12.625 2.644-16.68c-2.437-4.056-10.457-21.894-10.457-21.894z"/></svg>