<?xml version="1.0" encoding="utf-8"?>
<!-- Generator: Adobe Illustrator 19.1.0, SVG Export Plug-In . SVG Version: 6.00 Build 0)  -->
<svg version="1.1" id="Layer_1" xmlns="http://www.w3.org/2000/svg" xmlns:xlink="http://www.w3.org/1999/xlink" x="0px" y="0px"
	 width="400px" height="400px" viewBox="0 0 400 400" enable-background="new 0 0 400 400" xml:space="preserve">
<g id="Layer_x25_20141">
	<path fill="#333333" d="M281.459,59.849c-0.002-0.001-0.008-0.003-0.012-0.005c0.121,0.062,0.23,0.137,0.346,0.202
		C281.681,59.983,281.575,59.911,281.459,59.849z"/>
	<path fill="#333333" d="M339.999,349.645V129.943c0-2.994-1.322-5.672-3.406-7.505l-79.282-79.28
		c-1.824-1.947-4.412-3.171-7.29-3.171c-5.522,0-10,4.477-10,10v78.587c-0.061,0.449-0.104,0.903-0.104,1.369
		c0,4.163,2.545,7.729,6.164,9.234c1.209,0.52,2.541,0.809,3.94,0.809c0.293,0,0.582-0.019,0.869-0.044h69.109v200.127H79.979
		V59.987h129.938c5.523,0,10-4.477,10-10c0-5.523-4.477-10-10-10H71.041c-0.349-0.037-0.702-0.058-1.062-0.058
		c-5.521,0-10,4.477-10,10v300c0,1.055,0.166,2.07,0.468,3.024c1.239,4.117,5.054,7.117,9.574,7.117h260c5.522,0,10-4.477,10-10
		C340.021,349.927,340.005,349.787,339.999,349.645z M260.021,74.938l45.576,45.005h-45.576V74.938z"/>
</g>
</svg>
