<?xml version="1.0" encoding="utf-8"?>
<!-- Generator: Adobe Illustrator 19.1.0, SVG Export Plug-In . SVG Version: 6.00 Build 0)  -->
<svg version="1.1" id="Layer_1" xmlns="http://www.w3.org/2000/svg" xmlns:xlink="http://www.w3.org/1999/xlink" x="0px" y="0px"
	 width="400px" height="400px" viewBox="0 0 400 400" enable-background="new 0 0 400 400" xml:space="preserve">
<g id="Layer_x25_20135">
	<path display="none" fill="#333333" d="M352.691,152.73C326.288,68.4,236.522,21.444,152.194,47.848
		C67.864,74.25,20.906,164.015,47.309,248.346c0.992,3.169,2.091,6.276,3.261,9.337c0.001,0.003,0.001,0.004,0.002,0.007
		c0.063,0.201,0.143,0.392,0.216,0.586c0.055,0.142,0.109,0.284,0.164,0.426c2.014,4.625,7.228,7.084,12.15,5.543
		c5.273-1.65,8.206-7.26,6.556-12.532c-0.105-0.336-0.227-0.662-0.363-0.979c-1.05-2.738-2.02-5.524-2.909-8.361
		C43.281,168.579,84.373,90.028,158.165,66.923c73.794-23.104,152.345,17.985,175.45,91.78
		c23.105,73.795-17.987,152.345-91.78,175.449c-51.08,15.993-104.436,1.222-140.107-33.86c-0.26-0.256-0.519-0.514-0.776-0.772
		c-2.539-2.264-6.163-3.185-9.646-2.094c-5.271,1.65-8.205,7.261-6.556,12.531c0.555,1.773,1.565,3.273,2.853,4.433
		c-0.001-0.002-0.002-0.003-0.004-0.004c-0.007,0.006-0.012,0.013-0.018,0.02c40.763,40.181,101.793,57.119,160.225,38.823
		C332.137,326.826,379.094,237.06,352.691,152.73z"/>
	<path display="none" d="M319.813,160.489c0,66.276-53.503,120-119.5,120s-119.5-53.724-119.5-120c0-66.275,53.503-120,119.5-120
		S319.813,94.213,319.813,160.489z M299.813,160.489c0,55.23-44.548,100-99.5,100s-99.5-44.77-99.5-100
		c0-55.229,44.548-100,99.5-100S299.813,105.259,299.813,160.489z"/>
	<path fill="#333333" d="M211.578,39.421c-55.234,0-100.011,44.775-100.011,100.011c0,3.373,0.173,6.705,0.499,9.992
		c0,0.013-0.002,0.025-0.002,0.037c0,0.757,0.092,1.491,0.251,2.199c1.007,4.464,5.005,7.801,9.792,7.801
		c5.547,0,10.044-4.477,10.044-10c0-0.243-0.02-0.481-0.037-0.72c-0.034-0.292-0.072-0.582-0.103-0.875
		c-0.292-2.772-0.446-5.584-0.446-8.433c0-44.189,35.822-80.011,80.011-80.011c44.188,0,80.011,35.821,80.011,80.011
		c0,10.35-2.003,20.673-5.922,30.255c-3.798,9.285-9.363,17.825-16.303,25.068c-7.398,7.721-16.284,13.087-25.696,17.973
		c-12.598,6.54-23.627,15.68-32.378,26.712c-13.533,17.059-21.618,38.635-21.618,62.102c0,6.005,0.553,11.878,1.568,17.591
		c0.472,5.084,4.746,9.065,9.953,9.065c5.084,0,9.272-3.797,9.907-8.708c0.055-0.424,0.093-0.853,0.093-1.292
		c0-0.639-0.066-1.262-0.18-1.866c0.012-0.001,0.023-0.003,0.036-0.004c-0.898-4.792-1.376-9.733-1.376-14.786
		c0-10.34,1.999-20.655,5.911-30.229c3.791-9.278,9.348-17.813,16.276-25.054c3.447-3.602,7.229-6.883,11.282-9.787
		c5.036-3.607,10.614-6.126,16.033-9.064c5.148-2.791,10.049-6.036,14.631-9.682c5.981-4.759,11.416-10.202,16.166-16.19
		c13.533-17.059,21.618-38.635,21.618-62.102C311.589,84.196,266.812,39.421,211.578,39.421z"/>
	<path fill="#333333" d="M200.461,339.489c-5.523,0-10,4.477-10,10s4.477,10,10,10c5.523,0,10-4.477,10-10
		S205.984,339.489,200.461,339.489z"/>
</g>
</svg>
