<?xml version="1.0" encoding="utf-8"?>
<!-- Generator: Adobe Illustrator 19.1.0, SVG Export Plug-In . SVG Version: 6.00 Build 0)  -->
<svg version="1.1" id="Layer_1" xmlns="http://www.w3.org/2000/svg" xmlns:xlink="http://www.w3.org/1999/xlink" x="0px" y="0px"
	 width="400px" height="400px" viewBox="0 0 400 400" enable-background="new 0 0 400 400" xml:space="preserve">
<path fill="#333333" d="M320.642,234.738c1.519-1.155,2.938-2.436,4.208-3.855c4.73-5.287,7.61-12.265,7.61-19.917
	c0-12.376-7.523-22.995-18.247-27.532c-0.02-0.008-0.04-0.016-0.06-0.023c-1.998-0.841-4.113-1.451-6.305-1.84
	c-1.082-0.416-2.25-0.654-3.476-0.654H157.318c-5.435,0-9.841,4.477-9.841,10c0,5.523,4.406,10,9.841,10h147.055
	c0.281,0,0.558-0.019,0.833-0.042c0.911,0.214,1.779,0.54,2.578,0.982c3.119,1.726,5.234,5.048,5.234,8.865
	c0,3.421-1.705,6.434-4.303,8.267c-2.495,1.326-8.169,1.449-11.508,1.394c-0.727-0.053-1.456-0.089-2.195-0.089
	c-0.069,0-0.137,0.009-0.205,0.01c-0.119-0.006-0.19-0.01-0.19-0.01l0.008,0.02c-5.342,0.205-9.613,4.588-9.613,9.98
	c0,5.395,4.274,9.779,9.62,9.981c0.127,0.004,0.251,0.019,0.38,0.019c0.06,0,0.12-0.008,0.181-0.009
	c5.365,0.202,9.657,4.604,9.657,10.019c0,5.478-4.39,9.923-9.841,10.029c0.001,0.034,0.003,0.068,0.004,0.102
	c0.785,0,1.546,0.1,2.278,0.271c-0.733-0.171-1.494-0.271-2.279-0.271c-0.785,0-1.546,0.1-2.279,0.271
	c-4.423,1.033-7.721,4.992-7.721,9.729c0,5.523,4.476,10,10,10c-0.181,0-0.358-0.011-0.539-0.015
	c0.002,0.06,0.004,0.119,0.006,0.179c0.111-0.003,0.221-0.017,0.334-0.017c5.543,0,10.037,4.495,10.037,10.038
	c0,5.106-3.815,9.312-8.748,9.947l0.014,0.131c-0.27-0.023-0.537-0.055-0.812-0.055c-0.773,0-1.523,0.096-2.246,0.262
	c-4.44,1.02-7.754,4.988-7.754,9.738c0,5.523,4.477,10,10,10c-0.188,0-0.369-0.018-0.554-0.028l-0.001,0.129
	c0.088,0,0.176,0.007,0.264,0.007c-0.027,0-0.054-0.002-0.081-0.002c0,0.021,0,0.042,0,0.063c5.488,0.064,9.919,4.529,9.919,10.032
	c0,5.295-4.103,9.622-9.301,10.001c0.002,0.012,0.002,0.025,0.004,0.037h-0.74h-28.095c0.017,0.046,0.038,0.091,0.054,0.137h-26.358
	h-57.989c-0.01-0.032-0.019-0.064-0.028-0.096c-1.434,0.068-2.876,0.105-4.326,0.105c-49.676,0-89.945-40.27-89.945-89.945
	c0-11.914,2.328-23.28,6.536-33.684c-0.077-0.048-0.158-0.091-0.235-0.141c0.079-0.149,0.165-0.292,0.237-0.447l21.807-57.327
	l24.973-65.649l9.534-25.062c0.031-0.067,0.054-0.136,0.083-0.204c0.142-0.545,0.322-1.072,0.547-1.576
	c1.556-3.507,5-5.951,9.01-5.951c5.466,0,9.898,4.535,9.898,10.128c0,0.791-0.098,1.557-0.266,2.296
	c-0.229,1.009-0.605,1.958-1.104,2.827l-9.293,24.431l-16.673,43.829l-0.832,2.187l-2.778,7.304
	c-0.226,0.477-0.417,0.971-0.565,1.485c-0.254,0.882-0.398,1.812-0.398,2.777c0,4.158,2.537,7.72,6.148,9.229
	c1.186,0.496,2.486,0.771,3.852,0.771c3.572,0,6.698-1.879,8.467-4.697c0.014-0.003,0.027-0.007,0.041-0.01l0.05-0.138
	c0.128-0.212,0.249-0.427,0.36-0.648l0.002,0.001l0.006-0.016c0.304-0.602,0.546-1.237,0.724-1.901l29.972-78.79
	c0.204-0.437,0.361-0.882,0.498-1.33c1.092-3.104,1.692-6.441,1.692-9.919c0-16.504-13.379-29.883-29.883-29.883
	c-14.262,0-26.182,9.993-29.159,23.357L78.946,202.155c-7.291,14.695-11.406,31.244-11.406,48.762
	c0,60.705,49.211,109.916,109.916,109.916c0.074,0,0.148-0.002,0.223-0.003c0.529,0.087,1.07,0.144,1.625,0.144h117.203
	c0.737,0,1.451-0.091,2.142-0.243c11.466-1.392,20.94-9.251,24.658-19.85c1.096-3.123,1.698-6.479,1.698-9.978
	c0-7.734-2.914-14.784-7.699-20.112c4.785-5.328,7.699-12.378,7.699-20.112c0-7.756-2.93-14.825-7.739-20.158
	c4.81-5.333,7.739-12.402,7.739-20.158C325.004,244.64,323.41,239.292,320.642,234.738z"/>
</svg>
