<?xml version="1.0" encoding="utf-8"?>
<!-- Generator: Adobe Illustrator 19.1.0, SVG Export Plug-In . SVG Version: 6.00 Build 0)  -->
<svg version="1.1" id="Layer_1" xmlns="http://www.w3.org/2000/svg" xmlns:xlink="http://www.w3.org/1999/xlink" x="0px" y="0px"
	 viewBox="0 0 400 400" enable-background="new 0 0 400 400" xml:space="preserve">
<g>
	<path fill="#231F20" d="M160.742,111.645c8.923-3.945,13.912,0.473,15.899,5.499c4.166,10.537,8.482,21.613,9.326,32.727
		c1.288,16.958-0.304,34.135-0.693,51.219c-0.057,2.488-0.222,4.973,0.683,7.79c21.438-37.941,41.287-76.442,48.066-120.381
		c2.778,19.332,1.881,38.733-2.535,57.614c-4.374,18.7-10.794,36.921-16.57,56.196c24.14,5.102,47.367,2.892,68.395-12.962
		c-10.959,13.089-25.425,20.811-40.587,27.162c-9.01,3.774-18.433,6.961-27.971,9.002c-34.884,7.466-49.861,34.304-41.548,70.856
		c1.791,7.876,5.272,15.353,7.631,23.118c2.189,7.208,4.306,14.482,5.732,21.866c1.223,6.33,0.805,12.555-7.087,14.862
		c-6.191,1.81-14.425-1.857-17.004-9.1c-5.722-16.068-11.745-32.172-15.579-48.739c-6.81-29.42-3.293-57.577,12.044-84.46
		c12.108-21.223,18.252-44.639,16.952-69.407C175.255,132.32,173.145,120.433,160.742,111.645z"/>
	<circle fill="#231F20" cx="81.547" cy="109.78" r="21.282"/>
	<circle fill="#231F20" cx="91.22" cy="202.369" r="20.637"/>
	<circle fill="#231F20" cx="170.543" cy="58.299" r="19.992"/>
	<circle fill="#231F20" cx="294.365" cy="117.63" r="23.861"/>
	<circle fill="#231F20" cx="338.218" cy="228.553" r="19.992"/>
	<circle fill="#231F20" cx="268.569" cy="271.117" r="14.833"/>
</g>
</svg>
