<?xml version="1.0" encoding="utf-8"?>
<!-- Generator: Adobe Illustrator 19.1.0, SVG Export Plug-In . SVG Version: 6.00 Build 0)  -->
<svg version="1.1" id="Layer_1" xmlns="http://www.w3.org/2000/svg" xmlns:xlink="http://www.w3.org/1999/xlink" x="0px" y="0px"
	 width="400px" height="400px" viewBox="0 0 400 400" enable-background="new 0 0 400 400" xml:space="preserve">
<g id="Layer_x25_201">
	<path fill="#333333" d="M264.408,50.018c-0.113-0.064-0.22-0.135-0.335-0.197c-0.002-0.001-0.008-0.003-0.011-0.005
		C264.182,49.877,264.291,49.952,264.408,50.018z"/>
	<path fill="#333333" d="M152.194,47.311C67.864,73.713,20.906,163.478,47.309,247.808c0.993,3.171,2.092,6.279,3.263,9.342
		c-0.041-0.128-0.065-0.259-0.101-0.387c0.035,0.129,0.061,0.26,0.101,0.389c0.063,0.201,0.143,0.392,0.216,0.586
		c0.055,0.142,0.109,0.284,0.164,0.426c2.014,4.625,7.228,7.084,12.15,5.543c5.273-1.65,8.206-7.26,6.556-12.532
		c-0.104-0.336-0.227-0.662-0.363-0.979c-1.05-2.738-2.02-5.524-2.909-8.361C43.281,168.042,84.372,89.49,158.164,66.386
		c73.794-23.105,152.345,17.985,175.45,91.78c23.105,73.795-17.987,152.345-91.78,175.449
		c-51.08,15.993-104.436,1.222-140.106-33.86c-0.26-0.256-0.519-0.514-0.776-0.772c-2.539-2.264-6.163-3.185-9.646-2.094
		c-5.271,1.65-8.205,7.261-6.556,12.531c0.555,1.773,1.565,3.273,2.853,4.433c-0.001-0.002-0.002-0.003-0.004-0.004
		c-0.007,0.006-0.012,0.013-0.018,0.02c40.763,40.181,101.793,57.119,160.226,38.823c84.33-26.403,131.287-116.168,104.884-200.499
		C326.288,67.863,236.522,20.906,152.194,47.311z"/>
	<path fill="#333333" d="M199.999,259.049c-5.523,0.001-10-4.477-9.999-10.001l-0.001-138.999c0-5.523,4.477-10,10-10l0,0
		c5.523-0.001,10,4.477,10,10l0.001,139C209.999,254.571,205.522,259.049,199.999,259.049L199.999,259.049z"/>
	<path fill="#333333" d="M209.999,290.568c0,5.523-4.478,10-10,10c-5.523,0-10-4.477-10-10c0-5.523,4.477-10,10-10
		C205.522,280.568,209.999,285.045,209.999,290.568z"/>
</g>
</svg>
