<?xml version="1.0" encoding="utf-8"?>
<!-- Generator: Adobe Illustrator 19.1.0, SVG Export Plug-In . SVG Version: 6.00 Build 0)  -->
<svg version="1.1" id="Layer_1" xmlns="http://www.w3.org/2000/svg" xmlns:xlink="http://www.w3.org/1999/xlink" x="0px" y="0px"
	 viewBox="0 0 400 400" enable-background="new 0 0 400 400" xml:space="preserve">
<g>
	<path fill="none" d="M228.154,265.857c-2.42-6.568-8.233-5.643-13.429-6.015c-9.313-0.666-18.63-1.289-28.256-1.951
		c1.118-6.331,2.492-12.009,3.052-17.767c0.845-8.691,2.882-17.515-1.439-25.989c-2.033-3.987-7.908-5.281-10.22-1.635
		c-2.973,4.69-6.649,9.766-7.175,14.965c-0.659,6.511-2.92,11.845-6.033,17.18c-7.071,12.123-16.967,20.829-30.956,23.553
		c-8.424,1.641-17.107,1.958-26.371,2.944c1.961,19.705,3.931,39.498,5.899,59.268c2.058,0.148,3.463,0.333,4.869,0.337
		c11.485,0.03,22.592,1.393,32.548,7.922c1.981,1.299,4.66,2.104,7.034,2.142c16.095,0.261,32.212,0.729,48.286,0.146
		c8.815-0.32,11.935-7.553,7.833-15.626c9.071-7.441,10.35-12.781,5.184-21.637c7.789-6.032,8.527-10.787,3.283-21.156
		C228.141,277.789,230.305,271.698,228.154,265.857z"/>
	<path fill="none" d="M182.814,136.929c1.678,5.761,2.787,11.71,3.809,17.636c1.916,11.107,7.061,19.937,17.135,25.509
		c5.263,2.911,10.59,5.712,15.757,8.785c1.441,0.857,2.414,2.501,3.564,3.743c1.726-0.149,3.699-0.39,5.679-0.477
		c4.689-0.208,9.812,0.809,13.977-0.753c8.058-3.023,15.637-7.366,23.302-11.375c9.629-5.036,14.871-13.236,16.854-23.814
		c1.369-7.303,3.032-14.555,4.744-21.788c0.382-1.611,1.229-3.329,2.371-4.501c3.153-3.234,5.823-15.935,3.835-19.833
		c-0.376-0.737-1.073-1.79-1.696-1.845c-4.914-0.432-4.92-4.258-5.677-7.704c-0.797-3.628-1.548-7.3-2.776-10.793
		c-4.895-13.924-14.964-20.512-29.494-18.288c-13.286,2.034-26.352,2.26-39.59-0.192c-10.993-2.036-19.622,2.452-25.053,11.942
		c-2.755,4.814-4.197,10.441-5.812,15.826c-1.157,3.86-0.332,8.769-6.288,9.348c-0.402,0.039-1.09,0.717-1.062,1.049
		c0.535,6.391,0.752,12.851,1.939,19.126C178.894,131.503,181.944,133.942,182.814,136.929z M256.523,110.585
		c3.79,0.257,7.277,1.7,7.99,6.337c0.27,1.753-0.502,3.666-0.798,5.507c-1.582-0.389-3.15-1.016-4.749-1.109
		c-2.117-0.124-4.471-0.363-6.344,0.392c-4.195,1.69-5.4,1.117-5.272-3.368C247.486,113.584,250.903,110.554,256.523,110.585z
		 M234.898,144.815c3.482-0.058,6.925-2.418,10.746-3.188c-1.069,5.149-4.624,7.564-9.203,8.377
		c-5.349,0.95-10.193-2.421-12.585-8.751C227.851,142.644,231.393,144.874,234.898,144.815z M213.828,110.519
		c5.257,0.039,9.275,3.733,8.922,8.357c-0.239,3.133-1.055,4.975-5.027,3.23c-2.162-0.949-5.272-0.846-7.584-0.088
		c-3.628,1.19-5.175,0.468-5.139-3.559C205.039,113.958,208.904,110.482,213.828,110.519z"/>
	<path d="M250.581,294.824c-1.073-8.103-2.355-15.076-2.855-22.104c-1.189-16.686-8.14-33.201-1.677-50.201
		c0.285-0.748-1.643-3.333-2.675-3.417c-5.417-0.444-10.884-0.548-16.321-0.382c-3.114,0.095-4.076,1.986-3.187,5.154
		c1.242,4.424,2.052,8.968,3.071,13.456c1.495,6.582-1.151,9.743-7.68,9.247c-3.888-0.295-7.785-0.628-11.679-0.644
		c-4.103-0.016-4.69-1.84-4.559-5.684c0.294-8.622,1.296-17.637-0.707-25.828c-3.698-15.122-16.819-21.929-31.062-14.534
		c-4.982,2.586-10.577,3.988-15.885,5.954c-12.099,4.482-24.537,8.238-36.2,13.662c-13.731,6.386-22.297,17.647-25.512,32.725
		c-1.698,7.971-0.55,15.726,0.465,23.683c2.242,17.569,3.626,35.248,5.43,52.874c1.159,11.328,5.299,15.014,16.84,15.208
		c9.831,0.166,19.266,1.344,28.062,6.621c3.932,2.359,9.051,3.665,13.673,3.781c16.631,0.416,33.35,1.037,49.9-0.212
		c12.085-0.912,19.304-7.699,21.251-21.337c0.265-1.853,1.114-3.615,1.585-5.447c1.475-5.738,3.536-11.426,4.118-17.259
		c0.38-3.8,1.319-4.719,4.899-4.844c3.68-0.129,7.367-0.218,11.055-0.309l1.737-14.355
		C251.975,292.03,251.308,293.425,250.581,294.824z M218.98,303.695c5.166,8.856,3.887,14.196-5.184,21.637
		c4.101,8.073,0.982,15.305-7.833,15.626c-16.074,0.583-32.191,0.115-48.286-0.146c-2.374-0.038-5.053-0.843-7.034-2.142
		c-9.956-6.529-21.063-7.892-32.548-7.922c-1.406-0.004-2.811-0.189-4.869-0.337c-1.967-19.77-3.937-39.563-5.899-59.268
		c9.264-0.986,17.947-1.303,26.371-2.944c13.989-2.724,23.885-11.43,30.956-23.553c3.113-5.336,5.374-10.669,6.033-17.18
		c0.526-5.198,4.201-10.275,7.175-14.965c2.312-3.646,8.187-2.352,10.22,1.635c4.32,8.474,2.283,17.298,1.439,25.989
		c-0.56,5.758-1.934,11.436-3.052,17.767c9.626,0.662,18.942,1.285,28.256,1.951c5.195,0.372,11.009-0.553,13.429,6.015
		c2.151,5.84-0.012,11.932-5.891,16.681C227.508,292.908,226.769,297.663,218.98,303.695z"/>
	<path d="M173.174,155.276c2.885,16.199,10.291,29.273,24.928,37.625c2.431,1.387,4.939,2.657,7.266,4.2
		c11.507,7.629,23.907,11.293,37.767,8.833c12.405-2.202,22.485-9.08,32.695-15.865c10.842-7.205,16.922-17.245,19.56-29.779
		c1.455-6.912,1.739-14.861,5.507-20.293c4.614-6.653,5.755-13.575,6.692-20.804c0.918-7.089,0.989-14.984-4.343-20.121
		c-4.104-3.954-4.829-8.238-5.76-12.977c-0.853-4.342-1.498-8.729-2.492-13.037c-5.454-23.655-17.387-33.233-41.512-33.339
		c-13.291-0.059-26.582-0.066-39.873,0.005c-20.665,0.11-33.712,10.734-37.992,30.879c-1.544,7.268-2.955,14.565-4.468,21.841
		c-0.246,1.182-0.349,2.897-1.13,3.387c-7.519,4.718-7.504,12.259-7.922,23.212c0.746,3.265,0.769,10.684,4.098,16.052
		C170.207,141.563,171.92,148.239,173.174,155.276z M177.455,108.356c5.955-0.579,5.131-5.487,6.288-9.348
		c1.616-5.385,3.057-11.012,5.812-15.826c5.432-9.49,14.06-13.978,25.053-11.942c13.238,2.452,26.304,2.225,39.59,0.192
		c14.53-2.224,24.599,4.364,29.494,18.288c1.228,3.493,1.979,7.165,2.776,10.793c0.758,3.446,0.763,7.272,5.677,7.704
		c0.623,0.055,1.32,1.108,1.696,1.845c1.988,3.897-0.682,16.598-3.835,19.833c-1.142,1.172-1.989,2.89-2.371,4.501
		c-1.712,7.232-3.375,14.484-4.744,21.788c-1.983,10.578-7.225,18.778-16.854,23.814c-7.666,4.009-15.245,8.352-23.302,11.375
		c-4.165,1.562-9.289,0.545-13.977,0.753c-1.98,0.088-3.953,0.328-5.679,0.477c-1.15-1.242-2.123-2.886-3.564-3.743
		c-5.167-3.072-10.494-5.874-15.757-8.785c-10.074-5.572-15.219-14.402-17.135-25.509c-1.022-5.927-2.131-11.875-3.809-17.636
		c-0.87-2.987-3.92-5.427-4.482-8.398c-1.187-6.275-1.404-12.736-1.939-19.126C176.365,109.073,177.054,108.394,177.455,108.356z"/>
	<path d="M210.14,122.018c2.312-0.758,5.422-0.861,7.584,0.088c3.971,1.744,4.788-0.097,5.027-3.23
		c0.353-4.624-3.665-8.319-8.922-8.357c-4.924-0.036-8.789,3.439-8.828,7.94C204.965,122.487,206.512,123.208,210.14,122.018z"/>
	<path d="M252.622,121.71c1.872-0.754,4.227-0.516,6.344-0.392c1.599,0.094,3.167,0.72,4.749,1.109
		c0.297-1.84,1.068-3.754,0.798-5.507c-0.713-4.637-4.2-6.08-7.99-6.337c-5.62-0.03-9.037,2.999-9.173,7.757
		C247.222,122.828,248.426,123.401,252.622,121.71z"/>
	<path d="M236.441,150.004c4.58-0.813,8.134-3.228,9.203-8.377c-3.82,0.77-7.264,3.13-10.746,3.188
		c-3.505,0.059-7.048-2.171-11.043-3.561C226.248,147.584,231.092,150.955,236.441,150.004z"/>
	<path d="M226.937,237.33l-13.051-26.978h47.015l-17.485,30.784l12.539,66.959h-26.987v-16.604l5.782-15.587
		c0,0,5.08-12.625,2.644-16.68C234.957,255.168,226.937,237.33,226.937,237.33z"/>
</g>
</svg>
