<svg id="Layer_1" data-name="Layer 1" xmlns="http://www.w3.org/2000/svg" viewBox="0 0 400 400"><defs><style>.cls-1{fill:#333;}</style></defs><title>icon</title><g id="Layer_20186" data-name="Layer%20186"><path class="cls-1" d="M109,163.45A36,36,0,1,1,73,127,36.25,36.25,0,0,1,109,163.45Z"/><path class="cls-1" d="M359,120.54a36,36,0,1,1-36-36.48A36.25,36.25,0,0,1,359,120.54Z"/><path class="cls-1" d="M267.91,317.52a36,36,0,1,1-36-36.48A36.25,36.25,0,0,1,267.91,317.52Z"/><path class="cls-1" d="M75.26,206.68c-0.75,0-1.49.12-2.25,0.12a42.12,42.12,0,0,1-17.7-3.92c5.9,75.1,66.77,134.47,141.86,136.84a41.72,41.72,0,0,1-6.27-20.13C130.74,314.42,82.51,267,75.26,206.68Z"/><path class="cls-1" d="M92.27,124.78c22.26-37.75,63-63,109.55-63A126.17,126.17,0,0,1,288,95.68a43.17,43.17,0,0,1,14.55-13.21A145.47,145.47,0,0,0,201.81,42C145.91,42,97.3,73.61,72.44,120.14c0.19,0,.38,0,0.58,0A42.11,42.11,0,0,1,92.27,124.78Z"/><path class="cls-1" d="M329.34,190.92a129.44,129.44,0,0,1-60,109.55,41.87,41.87,0,0,1,3.63,17c0,1.29-.08,2.56-0.19,3.81a149.16,149.16,0,0,0,76-130.41,151.1,151.1,0,0,0-3.74-33.32,42.09,42.09,0,0,1-18.61,6.1A131.22,131.22,0,0,1,329.34,190.92Z"/><path class="cls-1" d="M146.3,251.24s-1.63-43,32.21-81.93A130.83,130.83,0,0,1,200.67,149l0.14,55h25.24c-1.21,1.52-2.46,3-3.78,4.55C188.47,247.63,146.3,251.24,146.3,251.24Zm63.64-108.29c23.79-14.23,44.22-16,44.22-16s1.41,33.05-21.2,67.5H210.08Z"/></g></svg>