<?xml version="1.0" encoding="utf-8"?>
<!-- Generator: Adobe Illustrator 19.1.0, SVG Export Plug-In . SVG Version: 6.00 Build 0)  -->
<svg version="1.1" id="Layer_1" xmlns="http://www.w3.org/2000/svg" xmlns:xlink="http://www.w3.org/1999/xlink" x="0px" y="0px"
	 width="400px" height="400px" viewBox="0 0 400 400" enable-background="new 0 0 400 400" xml:space="preserve">
<g id="Layer_x25_20155">
	<path fill="#333333" d="M360.029,120.026c0-5.205-3.977-9.477-9.058-9.952c-0.449-0.062-0.904-0.105-1.37-0.105
		c-0.357,0-0.71,0.021-1.058,0.057h-48.072V60.031c0-5.523-4.477-10-10-10c-5.523,0-10,4.477-10,10v49.996H121.138V60.031
		c0-5.523-4.477-10-10-10c-5.523,0-10,4.477-10,10v49.996H51.029c-0.348-0.037-0.701-0.057-1.058-0.057c-5.523,0-10,4.477-10,10v220
		c0,5.523,4.477,10,10,10c0.471,0,0.932-0.044,1.385-0.107h239.615c5.523,0,10-4.477,10-10c0-5.523-4.477-10-10-10h-231V130.026
		h41.167v11.004c0,5.522,4.477,10,10,10c5.523,0,10-4.478,10-10v-11.004h159.333v11.004c0,5.522,4.477,10,10,10
		c5.523,0,10-4.478,10-10v-11.004h39.13v209.943c0,5.523,4.477,10,10,10c5.523,0,10-4.477,10-10V122.916
		C359.877,122,360.029,121.032,360.029,120.026z"/>
</g>
</svg>
