<svg id="Layer_1" data-name="Layer 1" xmlns="http://www.w3.org/2000/svg" viewBox="0 0 400 400"><defs><style>.cls-1{fill:#333;}</style></defs><title>icon</title><g id="Layer_20179" data-name="Layer%20179"><path class="cls-1" d="M345.09,161.12c-0.68-14.28.07-28.73-7-40.86C331,108,318,101.4,306.17,93.82,298.6,81.95,292,69,279.74,61.89c-12.13-7-26.59-6.3-40.86-7C226.64,48.5,214.5,40.55,200,40.55s-26.63,7.95-38.87,14.37c-14.3.67-29.27-.16-40.89,7C107,70,101.39,81.95,93.84,93.82,82,101.4,69,108,61.87,120.26c-7,12.13-6.27,26.57-7,40.86C48.51,173.38,40.55,185.5,40.55,200s8,26.62,14.35,38.87c0.7,14.27-.05,28.72,7,40.85C69,292,82,298.59,93.84,306.19c7.55,11.86,14.14,24.78,26.42,31.92s26.59,6.3,40.89,7c12.23,6.42,24.37,14.36,38.87,14.36s26.63-7.93,38.87-14.36c14.27-.67,28.72.07,40.86-7s18.86-20.06,26.43-31.92C318,298.59,331,292,338.11,279.73c7.05-12.13,6.3-26.59,7-40.85,6.42-12.25,14.36-24.37,14.36-38.87S351.52,173.38,345.09,161.12ZM200,303.65A103.66,103.66,0,1,1,303.68,200,103.67,103.67,0,0,1,200,303.65Z"/><path class="cls-1" d="M201.84,168.17a113.93,113.93,0,0,0-20.17,16C150.86,214.82,152,249,152,249s37.84-2.46,68.64-33.11c1.19-1.2,2.32-2.41,3.46-3.58L201.37,212Z"/><path class="cls-1" d="M210.26,163.38l-0.45,41.14,20.57,0.21C251.15,177.5,250.32,151,250.32,151S231.87,152.22,210.26,163.38Z"/></g></svg>