<?xml version="1.0" encoding="utf-8"?>
<!-- Generator: Adobe Illustrator 20.1.0, SVG Export Plug-In . SVG Version: 6.00 Build 0)  -->
<svg version="1.1" id="Layer_1" xmlns="http://www.w3.org/2000/svg" xmlns:xlink="http://www.w3.org/1999/xlink" x="0px" y="0px"
	 width="400px" height="400px" viewBox="0 0 400 400" enable-background="new 0 0 400 400" xml:space="preserve">
<g>
	<path fill="#323232" d="M299.6,326.6l-37.3-14.9c-1.3-0.5-2.7-0.7-4-0.7c-2.6,0-5.2,0.9-7.2,2.9l-12.4,12.4l-0.1-50
		c0-0.9-0.1-1.7-0.3-2.6c10.1-3.4,19.6-8.1,28.2-13.9l17.6,48.1c1.9,5.2,7.6,7.8,12.8,5.9c5.2-1.9,7.8-7.6,5.9-12.8l-19.9-54.5
		c22.8-21.8,37-52.6,37-86.6c0-66.2-53.7-119.9-119.9-119.9S80.1,93.9,80.1,160.1c0,34.8,14.8,66.1,38.4,88l-19.4,53.1
		c-1.9,5.2,0.8,10.9,5.9,12.8c5.2,1.9,10.9-0.8,12.8-5.9l17.2-47.1c7.9,5.1,16.5,9.3,25.5,12.5c-0.3,0.9-0.5,1.9-0.5,3l-0.1,49.5
		l-11.7-11.7c-2-2-4.6-3-7.2-2.9c-1.3,0-2.7,0.2-4,0.7l-37.3,14.9c-5.1,2-7.6,7.8-5.6,13c2,5.1,7.8,7.6,13,5.6l31.6-12.6l23.9,23.9
		c2,2,4.6,2.9,7.2,2.9c0,0,0.1,0,0.1,0c5.5,0,10-4.4,10-10l0.1-71.2c6.5,1.1,13.1,1.7,19.9,1.7c6.3,0,12.6-0.5,18.6-1.4l0.1,71
		c0,5.5,4.5,10,10,10c0.6,0,1.2-0.1,1.7-0.2c2.3-0.2,4.5-1.1,6.3-2.9l23.9-23.9l31.6,12.6c5.1,2,10.9-0.4,13-5.6
		C307.2,334.5,304.7,328.7,299.6,326.6z M200,260c-55.2,0-99.9-44.7-99.9-99.9s44.7-99.9,99.9-99.9s99.9,44.7,99.9,99.9
		S255.2,260,200,260z"/>
	<path fill="#323232" d="M257.8,124.2l-25.1-6.4l-24.1-28.4c-2-2.3-4.7-3.5-7.5-3.5c-0.1,0-0.1,0-0.2,0c-0.1,0-0.1,0-0.2,0
		c-2.8,0-5.6,1.2-7.5,3.5l-24.1,28.4l-25.1,6.4c-2.4,0.1-4.7,1-6.5,2.8c-3.9,3.8-4,10.2-0.2,14.1l24.2,24.8l-9.9,36.8
		c-0.2,0.8-0.3,1.7-0.4,2.5c-0.2,1.9,0.2,4,1.3,5.8c0.5,0.8,1,1.5,1.7,2.1c0,0,0.1,0.1,0.1,0.1c0.1,0.1,0.2,0.2,0.3,0.2
		c1.1,1,2.4,1.8,3.9,2.2c1.1,0.3,2.3,0.4,3.4,0.3c1.5-0.1,3-0.5,4.5-1.4l33-18.4l35.2,19c3.2,1.8,7,1.7,10.2,0
		c4.5-2,6.9-7.2,5.5-12.4l-9.9-36.8l24.2-24.8c3.8-3.9,3.8-10.3-0.2-14.1C262.5,125.2,260.2,124.3,257.8,124.2z M222.1,155.9
		c-1.9,2-2.9,4.6-2.8,7.1c0,1.1,0.1,2.1,0.4,3.2l5.3,19.9l-19.3-10.4c-1.4-0.8-2.9-1.2-4.3-1.3c-2.2-0.3-4.4,0.1-6.5,1.3l-18.1,10.1
		l5.3-19.6c0.3-1.1,0.4-2.2,0.4-3.2c0-2.6-0.9-5.1-2.8-7.1l-15.8-16.2l13.3-3.4c1.8-0.4,3.3-1.3,4.5-2.5c0.3-0.3,0.6-0.6,0.9-0.9
		l18.5-21.8l18.5,21.8c0.3,0.3,0.6,0.6,0.9,0.9c1.2,1.2,2.7,2.1,4.5,2.5l13.3,3.4L222.1,155.9z"/>
</g>
</svg>
