<?xml version="1.0" encoding="utf-8"?>
<!-- Generator: Adobe Illustrator 19.1.0, SVG Export Plug-In . SVG Version: 6.00 Build 0)  -->
<svg version="1.1" id="Layer_1" xmlns="http://www.w3.org/2000/svg" xmlns:xlink="http://www.w3.org/1999/xlink" x="0px" y="0px"
	 width="400px" height="400px" viewBox="0 0 400 400" enable-background="new 0 0 400 400" xml:space="preserve">
<path fill-rule="evenodd" clip-rule="evenodd" fill="#333333" d="M49.972,300.943c-5.523,0-10-4.477-10-10v-200
	c0-5.523,4.477-10,10-10l0,0c5.523,0,10,4.477,10,10v200C59.972,296.466,55.495,300.943,49.972,300.943L49.972,300.943z"/>
<path fill-rule="evenodd" clip-rule="evenodd" fill="#333333" d="M39.972,290.836c0-5.523,4.477-10,10-10h78c5.523,0,10,4.477,10,10
	l0,0c0,5.523-4.477,10-10,10h-78C44.449,300.836,39.972,296.359,39.972,290.836L39.972,290.836z"/>
<path fill-rule="evenodd" clip-rule="evenodd" fill="#333333" d="M179.712,290.836c0-5.523,4.477-10,10-10h120
	c5.523,0,10,4.477,10,10l0,0c0,5.523-4.477,10-10,10h-120C184.189,300.836,179.712,296.359,179.712,290.836L179.712,290.836z"/>
<path fill-rule="evenodd" clip-rule="evenodd" fill="#333333" d="M40.269,90.943c0-5.523,4.477-10,10-10h260c5.523,0,10,4.477,10,10
	l0,0c0,5.523-4.477,10-10,10h-260C44.746,100.943,40.269,96.466,40.269,90.943L40.269,90.943z"/>
<path fill-rule="evenodd" clip-rule="evenodd" fill="#333333" d="M79.186,50.276c0-5.523,4.477-10,10-10h261c5.523,0,10,4.477,10,10
	l0,0c0,5.523-4.477,10-10,10h-261C83.663,60.276,79.186,55.799,79.186,50.276L79.186,50.276z"/>
<path fill-rule="evenodd" clip-rule="evenodd" fill="#333333" d="M123.839,357.404c-3.905-3.905-3.905-10.237,0-14.142
	l59.275-59.275c3.905-3.905,10.237-3.905,14.142,0l0,0c3.905,3.905,3.905,10.237,0,14.142l-59.275,59.275
	C134.076,361.31,127.744,361.31,123.839,357.404L123.839,357.404z"/>
<path fill-rule="evenodd" clip-rule="evenodd" fill="#333333" d="M350.269,260.276c-5.523,0-10-4.477-10-10v-200
	c0-5.523,4.477-10,10-10l0,0c5.523,0,10,4.477,10,10v200C360.269,255.799,355.792,260.276,350.269,260.276L350.269,260.276z"/>
<path fill-rule="evenodd" clip-rule="evenodd" fill="#333333" d="M310.227,300.943c-5.523,0-10-4.477-10-10v-200
	c0-5.523,4.477-10,10-10l0,0c5.523,0,10,4.477,10,10v200C320.227,296.466,315.75,300.943,310.227,300.943L310.227,300.943z"/>
</svg>
