<?xml version="1.0" encoding="utf-8"?>
<!-- Generator: Adobe Illustrator 19.1.0, SVG Export Plug-In . SVG Version: 6.00 Build 0)  -->
<svg version="1.1" id="Layer_1" xmlns="http://www.w3.org/2000/svg" xmlns:xlink="http://www.w3.org/1999/xlink" x="0px" y="0px"
	 viewBox="0 0 400 400" enable-background="new 0 0 400 400" xml:space="preserve">
<g>
	<path fill="#231F20" d="M225.465,270.58c-39.028-0.001-78.056,0.019-117.083-0.014c-10.438-0.009-15.85-3.85-16.271-11.31
		c-0.432-7.659,5.822-13.086,15.881-13.283c11.054-0.217,22.118-0.241,33.171-0.006c5.371,0.114,7.705-1.716,7.445-7.32
		c-0.332-7.139-0.177-14.308-0.046-21.461c0.19-10.383,5.198-15.143,15.199-14.117c48.391,4.965,96.768,10.056,145.154,15.064
		c8.066,0.835,16.157,1.427,24.226,2.229c12.946,1.287,19.71,8.709,19.966,21.782c0.557,28.438,0.557,28.438-28.121,28.438
		C291.812,270.581,258.638,270.581,225.465,270.58z"/>
	<path fill="#231F20" d="M51.555,270.256c0.001-24.397-0.023-48.795,0.026-73.192c0.007-3.566,0.087-7.171,0.604-10.689
		c1.14-7.768,5.69-12.69,13.653-12.484c8.491,0.219,12.966,5.892,13.393,13.954c0.532,10.057,0.19,20.161,0.196,30.245
		c0.012,19.193,0.502,38.404-0.21,57.57c-0.346,9.311,2.95,11.232,11.639,11.2c82.95-0.306,165.902-0.185,248.853-0.18
		c13.191,0.001,13.21,0.015,13.223,13.308c0.016,16.265-0.242,32.535,0.105,48.792c0.153,7.173-2.449,9.618-9.638,9.658
		c-18.332,0.102-18.33,0.396-18.338-17.553c-0.003-6.831-0.306-13.679,0.072-20.489c0.375-6.759-2.187-8.989-9.03-8.924
		c-31.876,0.305-63.757,0.134-95.637,0.134c-43.59,0-87.182,0.197-130.769-0.176c-8.117-0.069-10.975,2.254-10.411,10.402
		c0.627,9.065-0.114,18.216,0.21,27.312c0.236,6.603-2.124,9.158-8.993,9.285c-18.949,0.349-18.947,0.623-18.95-17.909
		C51.552,317.099,51.554,293.678,51.555,270.256z"/>
	<path fill="#231F20" d="M364.042,118.625c-4.188,8.41-7.567,16.544-12.318,23.778c-1.175,1.789-7.451,2.007-10.281,0.65
		c-25.514-12.229-50.78-24.976-76.126-37.557c-18.061-8.965-36.269-17.648-54.126-27.002c-6.122-3.207-10.963-3.237-17.173-0.099
		c-42.346,21.393-84.889,42.395-127.375,63.511c-3.188,1.585-6.426,3.069-11.283,5.382c-4.771-9.62-9.392-18.938-14.281-28.796
		c4.291-2.32,7.345-4.085,10.495-5.657c47.407-23.651,94.762-47.411,142.357-70.678c4.278-2.091,11.105-2.958,15.108-1.015
		c50.017,24.283,99.734,49.187,149.513,73.959C359.977,115.81,361.252,116.821,364.042,118.625z"/>
	<path fill="#231F20" d="M115.445,191.052c13.293,0.16,22.967,10.296,22.75,23.837c-0.212,13.242-10.445,22.794-24.051,22.452
		c-12.885-0.324-22.282-10.158-22.243-23.278C91.941,200.697,101.975,190.89,115.445,191.052z"/>
</g>
</svg>
