<?xml version="1.0" encoding="utf-8"?>
<!-- Generator: Adobe Illustrator 19.1.0, SVG Export Plug-In . SVG Version: 6.00 Build 0)  -->
<svg version="1.1" id="Layer_1" xmlns="http://www.w3.org/2000/svg" xmlns:xlink="http://www.w3.org/1999/xlink" x="0px" y="0px"
	 width="400px" height="400px" viewBox="0 0 400 400" enable-background="new 0 0 400 400" xml:space="preserve">
<rect x="48.645" y="329.583" fill="#333333" width="284.343" height="19.333"/>
<circle fill="#333333" cx="50.144" cy="339.25" r="9.667"/>
<circle fill="#333333" cx="330.987" cy="339.25" r="9.667"/>
<circle fill="#333333" cx="50.144" cy="174.917" r="9.667"/>
<circle fill="#333333" cx="330.987" cy="174.917" r="9.667"/>
<rect x="40.478" y="176.75" fill="#333333" width="19.333" height="162.5"/>
<rect x="321.321" y="176.75" fill="#333333" width="19.333" height="162.5"/>
<rect x="260.396" y="165.25" fill="#333333" width="72.591" height="19.333"/>
<rect x="48.645" y="165.25" fill="#333333" width="71.814" height="19.333"/>
<rect x="180.258" y="111.417" fill="#333333" width="19.604" height="182.583"/>
<g>
	<polygon fill="#333333" points="189.657,305.072 189.491,305.408 189.27,305.286 189.048,305.408 188.883,305.072 110.091,241.449 
		110.091,220.708 189.27,284.545 270.029,219.833 270.029,240.574 	"/>
</g>
</svg>
