<?xml version="1.0" encoding="utf-8"?>
<!-- Generator: Adobe Illustrator 19.1.0, SVG Export Plug-In . SVG Version: 6.00 Build 0)  -->
<svg version="1.1" id="Layer_1" xmlns="http://www.w3.org/2000/svg" xmlns:xlink="http://www.w3.org/1999/xlink" x="0px" y="0px"
	 viewBox="0 0 400 400" enable-background="new 0 0 400 400" xml:space="preserve">
<g>
	<path d="M37.52,201.539c2.021-88.627,68.826-160.38,161.069-160.773c90.052-0.383,161.47,69.837,161.215,161.357
		c-0.253,90.78-72.925,160.923-161.557,160.53C107.15,362.249,39.35,291.034,37.52,201.539z M179.218,228.052
		c-1.273,9.312-6.344,2.364-8.045,1.138c-9.032-6.507-17.502-13.789-26.324-20.597c-2.1-1.621-4.69-3.068-7.251-3.548
		c-10.462-1.961-19.369-11.402-21.618-21.617c-1.511-6.862-4.836-13.324-7.35-19.964c-0.524,0.194-1.047,0.389-1.571,0.583
		c0.914,4.881,1.829,9.762,2.743,14.642c-3.125-2.479-4.757-5.475-5.227-8.644c-1.18-7.958,0.2-17.003-3.155-23.774
		c-5.736-11.578-0.282-19.276,4.684-28.45c6.461-11.935,11.633-24.568,17.832-37.917c-6.81,1.159-11.744,1.999-16.678,2.839
		c-54.192,36.611-75.514,110.982-51.271,173.649c23.973,61.968,86.09,99.813,139.019,97.186c0.653-4.094,0.913-8.001,1.935-11.697
		c3.042-11.002,6.762-21.833,9.361-32.931c0.722-3.084-0.696-9.286-2.559-9.93c-11.575-4.002-15.037-14.64-21.35-23.165
		c-7.333-9.903-6.861-18.463,0.841-27.611c6.933-8.235,5.272-14.867-4.407-19.813c8.165-0.443,14.757-6.095,21.979-7.672
		c9.099-1.987,20.224-1.718,28.66,1.858c14.044,5.952,26.605,15.376,39.874,23.197c4.983,2.937,10.024,5.907,15.358,8.08
		c5.033,2.051,10.486,3.074,17.722,5.101c-8.406,14.547-15.654,27.857-23.774,40.61c-2.069,3.25-6.9,4.749-10.476,7.031
		c-2.259,1.441-5.482,2.3-6.667,4.349c-9.049,15.653-24.749,21.973-39.75,29.527c-4.539,2.286-8.209,6.297-14.282,11.105
		c67.916,4.328,147.561-64,143.136-150.67c-3.267,4.493-5.779,7.949-8.378,11.523c-17.975-10.177-16.188-29.536-19.742-44.448
		c-3.915-16.428-0.68-34.339-15.188-47.581c-5.519-5.038-2.188-16.052-11.789-19.101c-0.67-0.213-0.539-2.95-0.769-4.441
		c-11.258,1.339-11.258,1.339-19.362-13.144c2.055-0.491,4.11-0.982,5.391-1.288c-15.173-9.554-30.144-18.98-43.882-27.63
		c-4.456,0.88-9.807,3.261-10.974,1.941c-5.595-6.324-11.945-6.366-19.439-5.484c-8.693,1.023-17.606,0.209-26.285,1.296
		c-12.14,1.52-24.151,4.062-36.681,6.247c7.665,15.667,25.714,21.09,33.337,13.594c1.882,2.089,3.753,4.167,5.624,6.244
		c0.931-0.691,1.863-1.382,2.794-2.072c0-2.171,0-4.342,0-9.184c9.323,4.025,17.02,7.349,26.908,11.619
		c-4.678,3.305-7.441,5.257-10.204,7.209c-1.238-2.767-2.051-5.855-3.833-8.21c-1.764-2.33-4.505-3.921-9.035-7.671
		c-0.914,8.041-1.476,12.985-1.76,15.489c-7.125,1.783-13.646,3.415-22.892,5.729c10.162,7.645,17.122,12.881,24.063,18.104
		c1.419-6.522,3.137-14.422,5.14-23.631c11.945,6.567,23.034,12.662,37.514,20.622c-10.905,3.873-18.576,6.597-26.514,9.416
		c4.641,2.062,8.029,3.568,10.652,4.733c-5.093,5.216-9.362,8.755-12.578,13.077c-4.789,6.436-7.43,15.416-13.524,19.713
		c-9.25,6.522-12.129,12.955-7.914,23.145c0.527,1.275-0.517,3.2-0.939,5.372c-4.736-6.187-7.858-12.813-13.08-16.192
		c-3.501-2.266-10.066-0.399-15.105,0.494c-4.442,0.788-11.945,2.127-12.401,4.376c-1.613,7.963-10.865,16.416-1.8,24.249
		c2.657,2.296,9.209,0.85,13.744-0.05c3.251-0.645,6.117-3.236,11.344-6.2c-2.794,8.243-4.453,13.137-6.158,18.166
		c5.048,0.497,9.407,0.927,14.138,1.392C170.077,217.616,166.465,226.791,179.218,228.052z"/>
	<path d="M237.877,69.773c-0.698,6.399-1.277,11.716-2.195,20.138c-4.672-3.612-9.402-6.882-13.678-10.666
		c-6.386-5.652-12.453-11.665-19.192-18.032C208.599,51.789,223.673,54.557,237.877,69.773z"/>
</g>
</svg>
