<?xml version="1.0" encoding="utf-8"?>
<!-- Generator: Adobe Illustrator 19.1.0, SVG Export Plug-In . SVG Version: 6.00 Build 0)  -->
<svg version="1.1" id="Layer_1" xmlns="http://www.w3.org/2000/svg" xmlns:xlink="http://www.w3.org/1999/xlink" x="0px" y="0px"
	 width="400px" height="400px" viewBox="0 0 400 400" enable-background="new 0 0 400 400" xml:space="preserve">
<g id="Layer_x25_20193">
	<path id="Ellipse9" fill="#333333" d="M301,280c0,5.523-4.477,10-10,10s-10-4.477-10-10s4.477-10,10-10S301,274.477,301,280z"/>
	<path id="Ellipse10" fill="#333333" d="M280,280c0,5.523-4.477,10-10,10s-10-4.477-10-10s4.477-10,10-10S280,274.477,280,280z"/>
	<path id="Ellipse11" fill="#333333" d="M211,280c0,5.523-4.477,10-10,10s-10-4.477-10-10s4.477-10,10-10S211,274.477,211,280z"/>
	<path id="Ellipse12" fill="#333333" d="M103,126c0-5.523,4.477-10,10-10s10,4.477,10,10c0,5.523-4.477,10-10,10
		S103,131.523,103,126z"/>
	<path id="Ellipse13" fill="#333333" d="M104,165c0-5.523,4.477-10,10-10s10,4.477,10,10s-4.477,10-10,10S104,170.523,104,165z"/>
	<path id="Ellipse14" fill="#333333" d="M103,205c0-5.523,4.477-10,10-10s10,4.477,10,10s-4.477,10-10,10S103,210.523,103,205z"/>
	<path id="Ellipse15" fill="#333333" d="M61,280c0-5.523,4.477-10,10-10s10,4.477,10,10s-4.477,10-10,10S61,285.523,61,280z"/>
	<path id="Ellipse16" fill="#333333" d="M81,280c0,5.523-4.477,10-10,10s-10-4.477-10-10s4.477-10,10-10S81,274.477,81,280z"/>
	<path id="Ellipse17" fill="#333333" d="M81,70c0,5.523-4.477,10-10,10s-10-4.477-10-10s4.477-10,10-10S81,64.477,81,70z"/>
	<path id="Ellipse18" fill="#333333" d="M233,126c0-5.523,4.477-10,10-10s10,4.477,10,10c0,5.523-4.477,10-10,10
		S233,131.523,233,126z"/>
	<path id="Ellipse19" fill="#333333" d="M233,165c0-5.523,4.477-10,10-10s10,4.477,10,10s-4.477,10-10,10S233,170.523,233,165z"/>
	<path id="Ellipse20" fill="#333333" d="M233,205c0-5.523,4.477-10,10-10s10,4.477,10,10s-4.477,10-10,10S233,210.523,233,205z"/>
	<path id="Ellipse21" fill="#333333" d="M281,280c0-5.523,4.477-10,10-10s10,4.477,10,10s-4.477,10-10,10S281,285.523,281,280z"/>
	<path id="Ellipse22" fill="#333333" d="M281,70c0-5.523,4.477-10,10-10s10,4.477,10,10s-4.477,10-10,10S281,75.523,281,70z"/>
	<path fill="#333333" d="M291,290h-20v-20h20V290z"/>
	<path fill="#333333" d="M291,80H70V60h221V80z"/>
	<path fill="#333333" d="M61,281V69h20v212H61z"/>
	<path fill="#333333" d="M201,290H70v-20h131V290z"/>
	<path fill="#333333" d="M113,116h131v20H113V116z"/>
	<path fill="#333333" d="M113,155h131v20H113V155z"/>
	<path fill="#333333" d="M113,195h131v20H113V195z"/>
	<path fill="#333333" d="M281,280.041V69h20v211.041H281z"/>
	<path fill="#333333" d="M301,69h-0.05c0.033,0.329,0.05,0.663,0.05,1V69z"/>
	<path fill="#333333" d="M292,60.05V60h-1C291.337,60,291.671,60.017,292,60.05z"/>
	<path fill="#333333" d="M291,290h1v-0.05C291.671,289.983,291.337,290,291,290z"/>
	<path fill="#333333" d="M318.505,83.525l-0.011-0.089c-0.041-0.334-0.096-0.663-0.169-0.986c-1.039-4.623-5.218-7.885-9.955-7.775
		c-0.33,0.008-0.665,0.03-0.999,0.071l-0.036,0.004L306,74.915v70.545l18.225,148.44L126.1,318.225L123.25,295h-20.11l4.36,35.515
		l0.006,0.05c0.672,5.471,5.651,9.361,11.123,8.69l217.936-26.761c0.334-0.041,0.664-0.096,0.985-0.169
		c4.945-1.112,8.335-5.817,7.704-10.954L318.505,83.525z"/>
	<path fill="#333333" d="M313.494,78.436l-0.122-0.991l-0.047,0.005C313.397,77.772,313.452,78.101,313.494,78.436z"/>
	<path fill="#333333" d="M303.37,79.675l-0.008-0.051l-0.991,0.122C302.705,79.705,303.04,79.683,303.37,79.675z"/>
	<path fill="#333333" d="M331.564,307.494l0.991-0.122l-0.005-0.047C332.228,307.398,331.899,307.453,331.564,307.494z"/>
</g>
</svg>
