<?xml version="1.0" encoding="utf-8"?>
<!-- Generator: Adobe Illustrator 19.1.0, SVG Export Plug-In . SVG Version: 6.00 Build 0)  -->
<svg version="1.1" id="Layer_1" xmlns="http://www.w3.org/2000/svg" xmlns:xlink="http://www.w3.org/1999/xlink" x="0px" y="0px"
	 viewBox="0 0 400 400" enable-background="new 0 0 400 400" xml:space="preserve">
<g id="Layer_x25_20152_5_">
	<path fill="#323232" d="M238.682,229.31c19.159-11.425,32-32.346,32-56.275c0-36.165-29.319-65.483-65.483-65.483
		c-36.166,0-65.482,29.317-65.482,65.483c0,23.811,12.711,44.649,31.715,56.111c-29.098,12.852-49.407,41.958-49.407,75.813
		c0,8.81,1.39,17.292,3.938,25.256c0.141,0.754,0.386,1.469,0.717,2.136c1.342,2.701,4.121,4.561,7.341,4.561
		c4.531,0,8.202-3.672,8.202-8.202c0-0.302-0.018-0.6-0.05-0.893c-0.13-1.192-0.519-2.303-1.103-3.285
		c-1.898-6.189-2.923-12.761-2.923-19.573c0-35.519,27.754-64.543,62.756-66.596c1.421,0.092,2.85,0.155,4.295,0.155
		c1.333,0,2.652-0.052,3.965-0.13c34.846,2.216,62.428,31.164,62.428,66.571c0,7.221-1.15,14.172-3.273,20.683
		c-0.093,0.284-0.191,0.565-0.287,0.847c-0.199,0.707-0.312,1.449-0.312,2.22c0,4.53,3.673,8.202,8.202,8.202
		c2.829,0,5.324-1.433,6.799-3.612c0.804-1.19,1.295-2.605,1.381-4.128c2.339-7.661,3.611-15.787,3.611-24.213
		C287.713,271.249,267.579,242.246,238.682,229.31z M156.083,173.036c0-27.126,21.99-49.116,49.116-49.116
		s49.117,21.99,49.117,49.116c0,26.832-21.517,48.622-48.234,49.095c-0.404-0.006-0.807-0.016-1.213-0.016
		c-0.258,0-0.514,0.008-0.772,0.01C177.483,221.536,156.083,199.793,156.083,173.036z"/>
	<path fill="#323232" d="M296.96,205.553c15.86-9.458,25.621-24.393,28.515-42.829c0.702-3.84,1.08-7.792,1.08-11.835
		c0-25.312-14.371-47.254-35.39-58.154c-0.26-0.136-0.517-0.278-0.78-0.411c-0.258-0.13-0.517-0.257-0.776-0.386
		c-0.065-0.031-0.128-0.065-0.193-0.096c-0.099-0.048-0.195-0.099-0.295-0.147c-0.039-0.016-0.082-0.026-0.121-0.042
		c-8.472-4.001-17.936-6.248-27.927-6.248c-5.789,0-11.391,0.781-16.736,2.194c-0.095,0.019-0.185,0.048-0.278,0.07
		c-0.054,0.014-0.109,0.027-0.163,0.042v0c-3.517,0.925-6.115,4.117-6.115,7.924c0,4.53,3.673,8.202,8.202,8.202
		c0.368,0,0.728-0.033,1.084-0.08c0.026,0.017,0.055,0.032,0.083,0.05c0.183-0.054,0.37-0.102,0.554-0.155
		c0.305-0.065,0.602-0.151,0.895-0.249c3.983-1.055,8.159-1.633,12.475-1.633c8.419,0,16.341,2.121,23.267,5.854
		c0.221,0.12,0.438,0.245,0.656,0.368c0.313,0.175,0.622,0.354,0.932,0.535c14.423,8.553,24.095,24.27,24.095,42.256
		c0,12.398-4.63,23.772-12.24,32.468c-1.472,1.534-3.178,3.21-4.925,4.878c-0.316,0.273-0.623,0.555-0.945,0.82
		c-0.002,0.028-0.005,0.055-0.007,0.084c-5.014,4.735-10.085,9.167-10.823,9.81c-2.222,1.936-3.914,4.903-3.417,7.909
		c0.496,3,2.772,5.077,5.151,6.729c1.358,0.943,2.799,1.767,4.148,2.721c2.772,1.959,5.462,4.042,8.081,6.2
		c4.007,3.302,7.93,6.761,11.519,10.516c1.702,1.781,3.362,3.627,4.764,5.658l-0.022,0.007c9.994,11.926,15.993,27.41,15.993,44.122
		c0,7.221-1.15,14.172-3.273,20.683c-0.093,0.284-0.191,0.566-0.287,0.847c-0.199,0.707-0.312,1.45-0.312,2.22
		c0,4.531,3.673,8.202,8.202,8.202c2.829,0,5.324-1.432,6.799-3.612c0.495-1.36,0.955-2.736,1.381-4.128
		c2.339-7.661,3.611-15.787,3.611-24.214C343.421,249,325.856,218.488,296.96,205.553z"/>
	<path fill="#323232" d="M111.526,205.553c-15.86-9.458-25.621-24.393-28.515-42.829c-0.702-3.84-1.08-7.792-1.08-11.835
		c0-25.312,14.371-47.254,35.39-58.154c0.26-0.136,0.517-0.278,0.78-0.411c0.258-0.13,0.517-0.257,0.776-0.386
		c0.065-0.031,0.128-0.065,0.193-0.096c0.099-0.048,0.195-0.099,0.295-0.147c0.039-0.016,0.082-0.026,0.121-0.042
		c8.472-4.001,17.936-6.248,27.927-6.248c5.789,0,11.391,0.781,16.736,2.194c0.094,0.019,0.185,0.048,0.278,0.07
		c0.054,0.014,0.109,0.027,0.163,0.042v0c3.517,0.925,6.115,4.117,6.115,7.924c0,4.53-3.673,8.202-8.202,8.202
		c-0.368,0-0.728-0.033-1.084-0.08c-0.026,0.017-0.055,0.032-0.083,0.05c-0.183-0.054-0.37-0.102-0.554-0.155
		c-0.305-0.065-0.602-0.151-0.895-0.249c-3.983-1.055-8.159-1.633-12.475-1.633c-8.42,0-16.342,2.121-23.267,5.854
		c-0.221,0.12-0.438,0.245-0.656,0.368c-0.313,0.175-0.622,0.354-0.932,0.535c-14.423,8.553-24.095,24.27-24.095,42.256
		c0,12.398,4.63,23.772,12.24,32.468c1.472,1.534,3.178,3.21,4.925,4.878c0.316,0.273,0.623,0.555,0.945,0.82
		c0.002,0.028,0.005,0.055,0.007,0.084c5.014,4.735,10.085,9.167,10.823,9.81c2.222,1.936,3.914,4.903,3.417,7.909
		c-0.496,3-2.771,5.077-5.151,6.729c-1.358,0.943-2.8,1.767-4.148,2.721c-2.772,1.959-5.462,4.042-8.081,6.2
		c-4.007,3.302-7.93,6.761-11.519,10.516c-1.702,1.781-3.362,3.627-4.764,5.658l0.022,0.007
		c-9.994,11.926-15.993,27.41-15.993,44.122c0,7.221,1.15,14.172,3.273,20.683c0.093,0.284,0.191,0.566,0.287,0.847
		c0.199,0.707,0.312,1.45,0.312,2.22c0,4.531-3.673,8.202-8.202,8.202c-2.829,0-5.324-1.432-6.799-3.612
		c-0.495-1.36-0.955-2.736-1.381-4.128c-2.339-7.661-3.611-15.787-3.611-24.214C65.065,249,82.63,218.488,111.526,205.553z"/>
	<path fill="#323232" d="M50.897,149.593c-8.473-5.053-13.688-13.032-15.234-22.881c-0.375-2.051-0.577-4.163-0.577-6.323
		c0-13.523,7.678-25.245,18.907-31.068c0.139-0.073,0.276-0.149,0.417-0.22c0.138-0.07,0.276-0.138,0.415-0.206
		c0.035-0.017,0.068-0.035,0.103-0.051c0.053-0.026,0.104-0.053,0.157-0.078c0.021-0.008,0.044-0.014,0.065-0.022
		c4.526-2.138,9.582-3.338,14.919-3.338c3.093,0,6.086,0.417,8.941,1.172c0.05,0.01,0.099,0.026,0.148,0.038
		c0.029,0.008,0.058,0.014,0.087,0.022v0c1.879,0.494,3.267,2.199,3.267,4.233c0,2.42-1.962,4.382-4.382,4.382
		c-0.197,0-0.389-0.018-0.579-0.043c-0.014,0.009-0.03,0.017-0.044,0.027c-0.098-0.029-0.198-0.054-0.296-0.083
		c-0.163-0.035-0.322-0.08-0.478-0.133c-2.128-0.564-4.359-0.872-6.665-0.872c-4.498,0-8.73,1.133-12.43,3.128
		c-0.118,0.064-0.234,0.131-0.35,0.197c-0.167,0.094-0.332,0.189-0.498,0.286c-7.705,4.569-12.873,12.966-12.873,22.575
		c0,6.624,2.473,12.7,6.539,17.346c0.787,0.82,1.698,1.715,2.631,2.606c0.169,0.146,0.333,0.297,0.505,0.438
		c0.001,0.015,0.003,0.03,0.004,0.045c2.679,2.53,5.388,4.897,5.782,5.241c1.187,1.034,2.091,2.619,1.826,4.225
		c-0.265,1.603-1.481,2.712-2.752,3.595c-0.725,0.504-1.496,0.944-2.216,1.454c-1.481,1.047-2.918,2.16-4.317,3.312
		c-2.141,1.764-4.237,3.612-6.154,5.618c-0.909,0.952-1.796,1.937-2.545,3.023l0.012,0.004c-5.339,6.371-8.544,14.643-8.544,23.572
		c0,3.858,0.615,7.571,1.749,11.05c0.05,0.152,0.102,0.302,0.153,0.453c0.106,0.378,0.167,0.775,0.167,1.186
		c0,2.42-1.962,4.382-4.382,4.382c-1.511,0-2.844-0.765-3.632-1.93c-0.264-0.727-0.51-1.462-0.738-2.205
		c-1.25-4.093-1.929-8.434-1.929-12.936C26.076,172.804,35.46,156.504,50.897,149.593z"/>
	<path fill="#323232" d="M348.214,144.104c8.473-5.053,13.688-13.032,15.234-22.881c0.375-2.051,0.577-4.163,0.577-6.323
		c0-13.523-7.678-25.245-18.907-31.068c-0.139-0.073-0.276-0.149-0.417-0.22c-0.138-0.07-0.276-0.138-0.415-0.206
		c-0.035-0.017-0.068-0.035-0.103-0.051c-0.053-0.026-0.104-0.053-0.157-0.078c-0.021-0.008-0.044-0.014-0.065-0.022
		c-4.526-2.138-9.582-3.338-14.919-3.338c-3.093,0-6.086,0.417-8.941,1.172c-0.05,0.01-0.099,0.026-0.148,0.038
		c-0.029,0.008-0.058,0.014-0.087,0.022v0c-1.879,0.494-3.267,2.199-3.267,4.233c0,2.42,1.962,4.382,4.382,4.382
		c0.197,0,0.389-0.018,0.579-0.043c0.014,0.009,0.03,0.017,0.044,0.027c0.098-0.029,0.198-0.054,0.296-0.083
		c0.163-0.035,0.322-0.08,0.478-0.133c2.128-0.564,4.359-0.872,6.665-0.872c4.498,0,8.73,1.133,12.43,3.128
		c0.118,0.064,0.234,0.131,0.35,0.197c0.167,0.094,0.332,0.189,0.498,0.286c7.705,4.569,12.873,12.966,12.873,22.575
		c0,6.624-2.473,12.7-6.539,17.346c-0.787,0.82-1.698,1.715-2.631,2.606c-0.169,0.146-0.333,0.297-0.505,0.438
		c-0.001,0.015-0.003,0.03-0.004,0.045c-2.679,2.53-5.388,4.897-5.782,5.241c-1.187,1.034-2.091,2.619-1.826,4.225
		c0.265,1.603,1.481,2.712,2.752,3.595c0.725,0.504,1.496,0.944,2.216,1.454c1.481,1.047,2.918,2.16,4.317,3.312
		c2.141,1.764,4.237,3.612,6.154,5.618c0.909,0.952,1.796,1.937,2.545,3.023l-0.012,0.004c5.339,6.371,8.544,14.643,8.544,23.572
		c0,3.858-0.615,7.571-1.749,11.05c-0.05,0.152-0.102,0.302-0.153,0.453c-0.106,0.378-0.167,0.775-0.167,1.186
		c0,2.42,1.962,4.382,4.382,4.382c1.511,0,2.844-0.765,3.632-1.93c0.264-0.727,0.51-1.462,0.738-2.205
		c1.25-4.093,1.929-8.434,1.929-12.936C373.035,167.315,363.651,151.014,348.214,144.104z"/>
</g>
</svg>
