<svg id="Layer_1" data-name="Layer 1" xmlns="http://www.w3.org/2000/svg" viewBox="0 0 400 400"><defs><style>.cls-1{fill:#323232;}</style></defs><title>icon-</title><path class="cls-1" d="M332.83,63.73Q305.76,33.23,267,32.52T200,60.89q-28.33-29.08-67-28.37T67.17,63.77C48.28,85,38.84,110.55,38.84,140.05h0q0,44.25,28.33,76.2c17.45,19.55,23.62,26.37,34.19,38.17,0.88,1.06,1.77,2.12,2.7,3.17,20.54,23,25.45,28.38,40.29,45a11.17,11.17,0,0,0,2.14,2.3,11.31,11.31,0,0,0,1.68,1.93q30.06,33.5,30.41,33.53,8.81,9.93,21.4,9.93t21.4-9.93Q331.57,217.62,332.83,216.2q28.33-31.91,28.33-76.24T332.83,63.73Z"/></svg>