<?xml version="1.0" encoding="utf-8"?>
<!-- Generator: Adobe Illustrator 19.1.0, SVG Export Plug-In . SVG Version: 6.00 Build 0)  -->
<svg version="1.1" id="Layer_1" xmlns="http://www.w3.org/2000/svg" xmlns:xlink="http://www.w3.org/1999/xlink" x="0px" y="0px"
	 width="400px" height="400px" viewBox="0 0 400 400" enable-background="new 0 0 400 400" xml:space="preserve">
<g id="Layer_x25_20161">
	<path fill="#333333" d="M359.668,172.105c0.022-0.113,0.05-0.225,0.068-0.339c0.958-5.14-2.219-10.208-7.359-11.515l-95.935-27.816
		l-47.45-76.79c-0.823-1.718-2.142-3.222-3.901-4.269c-1.453-0.864-3.036-1.313-4.614-1.391h-0.001
		c-0.174-0.008-0.348-0.005-0.522-0.005c-1.756-0.009-3.536,0.433-5.155,1.396c-1.762,1.048-3.082,2.554-3.905,4.275l-47.471,76.823
		l-95.799,27.776c-5.141,1.306-8.317,6.374-7.359,11.515c0.018,0.113,0.046,0.224,0.067,0.336c0.022,0.102,0.035,0.203,0.061,0.305
		c0.004,0.016,0.01,0.031,0.015,0.047c0.389,1.669,1.203,3.262,2.467,4.596l70.751,69.889l-13.459,90.727
		c-0.016,0.07-0.022,0.14-0.037,0.211c-0.428,1.945-0.288,4.035,0.541,6.011c2.137,5.092,7.998,7.488,13.091,5.35L200,310.715
		l86.239,38.523c5.093,2.138,10.954-0.258,13.091-5.35c2.137-5.093-0.258-10.954-5.351-13.092l-90.025-40.214
		c-1.294-0.543-2.636-0.791-3.954-0.779c-1.319-0.012-2.662,0.236-3.955,0.779l-73.61,32.881l11.58-78.06
		c0.916-4.071-0.795-8.119-4.009-10.379l-60.925-60.183l82.851-24.022c1.2-0.305,2.285-0.824,3.245-1.491
		c1.394-0.825,2.607-2,3.494-3.49l41.272-66.792l41.272,66.792c0.991,1.665,2.394,2.928,3.997,3.757
		c0.86,0.54,1.816,0.961,2.854,1.225l82.851,24.022l-60.925,60.183c-3.214,2.26-4.925,6.308-4.009,10.379l6.791,45.783l0.206,1.386
		c0.996,4.473,4.981,7.819,9.754,7.819c5.522,0,10-4.477,10-10c0-0.296-0.02-0.587-0.044-0.876l-0.183-1.232l-6.133-41.343
		l70.75-69.89c1.263-1.335,2.077-2.928,2.467-4.597c0.004-0.016,0.01-0.031,0.014-0.047
		C359.633,172.306,359.646,172.205,359.668,172.105z"/>
</g>
</svg>
