<svg id="Layer_1" data-name="Layer 1" xmlns="http://www.w3.org/2000/svg" viewBox="0 0 400 400"><defs><style>.cls-1{fill:#323232;}</style></defs><title>icon-list-view-simple</title><g id="Layer_20129" data-name="Layer%20129"><path class="cls-1" d="M89.8,294.79a13.13,13.13,0,0,1-13.12-13.12h0A13.13,13.13,0,0,1,89.8,268.54h26.57a13.13,13.13,0,0,1,13.12,13.12h0a13.13,13.13,0,0,1-13.12,13.12Z"/><path class="cls-1" d="M89.8,217.17A13.13,13.13,0,0,1,76.67,204h0A13.13,13.13,0,0,1,89.8,190.92h26.57A13.13,13.13,0,0,1,129.49,204h0a13.13,13.13,0,0,1-13.12,13.12Z"/><path class="cls-1" d="M89.8,139.56a13.13,13.13,0,0,1-13.12-13.12h0A13.13,13.13,0,0,1,89.8,113.31h26.57a13.13,13.13,0,0,1,13.12,13.12h0a13.13,13.13,0,0,1-13.12,13.12Z"/><path class="cls-1" d="M163,294.79a13.13,13.13,0,0,1-13.12-13.12h0A13.13,13.13,0,0,1,163,268.54H308a13.13,13.13,0,0,1,13.12,13.12h0A13.13,13.13,0,0,1,308,294.79Z"/><path class="cls-1" d="M163,217.18a13.13,13.13,0,0,1-13.12-13.12h0A13.13,13.13,0,0,1,163,190.93H308a13.13,13.13,0,0,1,13.12,13.12h0A13.13,13.13,0,0,1,308,217.18Z"/><path class="cls-1" d="M163,139.56a13.13,13.13,0,0,1-13.12-13.12h0A13.13,13.13,0,0,1,163,113.31H308a13.13,13.13,0,0,1,13.12,13.12h0A13.13,13.13,0,0,1,308,139.56Z"/></g></svg>