<?xml version="1.0" encoding="utf-8"?>
<!-- Generator: Adobe Illustrator 19.1.0, SVG Export Plug-In . SVG Version: 6.00 Build 0)  -->
<svg version="1.1" id="Layer_1" xmlns="http://www.w3.org/2000/svg" xmlns:xlink="http://www.w3.org/1999/xlink" x="0px" y="0px"
	 width="400px" height="400px" viewBox="0 0 400 400" enable-background="new 0 0 400 400" xml:space="preserve">
<path fill="#323232" d="M360,212.69c0-5.529-4.626-10.011-10.333-10.011c-4.474,0-8.273,2.76-9.71,6.614
	c-0.004-0.004-0.008-0.008-0.012-0.013c-0.027,0.086-0.056,0.177-0.083,0.264c-0.044,0.129-0.084,0.261-0.123,0.393
	c-2.475,7.912-6.404,18.39-12.209,28.537c-24.066,38.279-66.722,65.055-115.163,68.494v0.021c-3.418,0.237-6.862,0.365-10.333,0.365
	c-66.425,0-122.409-43.267-139.594-102.294c-0.588-2.428-1.066-4.591-1.4-6.157c0.306-1.401,0.691-3.103,1.142-4.964
	c17.186-59.027,73.169-102.294,139.594-102.294c52.769,0,99.948,27.833,125.754,68.88c4.611,8.06,7.583,15.815,10.038,22.842
	c0.001,0,0.003,0.001,0.004,0c1.218,4.215,5.202,7.309,9.941,7.309c5.707,0,10.333-4.482,10.333-10.011
	c0-1.446-0.323-2.818-0.893-4.06c-22.178-58.083-77.958-100.311-144.586-104.294v0.013C208.865,72.111,205.334,72,201.776,72
	C123.404,72,57.8,124.844,40.781,195.753c-0.192,0.566-0.329,1.154-0.415,1.76c-0.233,0.83-0.367,1.7-0.367,2.602
	c0,1.037,0.168,2.071,0.499,3.058c2.241,6.706,4.836,13.349,7.485,19.914c2.621,6.495,5.478,12.904,8.734,19.126
	c3.215,6.145,6.818,12.099,10.845,17.778c4.023,5.673,8.459,11.067,13.258,16.142c4.83,5.108,10.02,9.895,15.511,14.331
	c5.513,4.454,11.329,8.558,17.412,12.252c6.079,3.693,12.427,6.973,18.994,9.777c6.593,2.815,13.402,5.141,20.346,7.003
	c7.047,1.889,14.222,3.296,21.444,4.386c7.35,1.109,14.747,1.892,22.146,2.608c1.758,0.17,3.596,0.51,5.361,0.51
	c73.362,0,135.53-46.308,157.141-110.387C359.705,215.408,360,214.082,360,212.69z"/>
<path fill="#323232" d="M235.632,180.768c-0.053-0.119-0.093-0.243-0.15-0.36c-0.302-0.522-0.615-1.04-0.94-1.55
	c-0.18-0.281-0.377-0.552-0.564-0.829c-0.26-0.487-0.552-0.962-0.899-1.415c-0.228-0.295-0.474-0.563-0.728-0.822
	c-2.868-3.665-6.412-6.9-10.604-9.484c-18.981-11.703-43.855-5.801-55.557,13.181c-3.826,6.205-5.758,13.04-5.979,19.839
	c-0.002,0.047-0.003,0.094-0.005,0.141c-0.015,0.529-0.021,1.059-0.015,1.587c0.001,0.214,0.006,0.428,0.011,0.643
	c0.009,0.359,0.021,0.719,0.041,1.078c0.019,0.389,0.046,0.776,0.076,1.164c0.015,0.185,0.03,0.369,0.048,0.553
	c0.051,0.555,0.115,1.108,0.189,1.662c0.002,0.019,0.005,0.038,0.008,0.057c0.918,6.752,3.548,13.364,8.003,19.151
	c13.6,17.67,38.951,20.97,56.621,7.369c3.374-2.597,6.213-5.626,8.521-8.943c0.334-0.392,0.651-0.804,0.931-1.257
	c0.189-0.308,0.349-0.624,0.498-0.943C242.547,209.29,242.975,193.628,235.632,180.768z M212.713,216.522
	c-0.456,0.351-0.928,0.666-1.403,0.972c-6.389,3.697-14.739,4.129-21.207,0.141c-4.671-2.88-7.735-7.377-8.918-12.323
	c-0.013-0.056-0.023-0.112-0.035-0.167c-0.123-0.534-0.224-1.073-0.303-1.616c-0.029-0.21-0.047-0.42-0.069-0.63
	c-0.044-0.385-0.083-0.771-0.105-1.16c-0.02-0.395-0.02-0.79-0.017-1.184c0.001-0.205-0.003-0.41,0.004-0.615
	c0.023-0.555,0.068-1.108,0.136-1.658c0.006-0.05,0.009-0.1,0.016-0.15c0.665-5.043,3.249-9.834,7.598-13.183
	c1.375-1.059,2.96-1.975,4.577-2.678c5.696-2.337,12.385-2.03,18.026,1.447c2.458,1.516,4.764,3.708,6.293,5.95
	c0.104-0.047-0.098-0.318,0.007-0.364c0.237,0.489,0.525,0.954,0.839,1.403C222.449,199.15,220.443,210.575,212.713,216.522z"/>
</svg>
