<?xml version="1.0" encoding="utf-8"?>
<!-- Generator: Adobe Illustrator 19.1.0, SVG Export Plug-In . SVG Version: 6.00 Build 0)  -->
<svg version="1.1" id="Layer_1" xmlns="http://www.w3.org/2000/svg" xmlns:xlink="http://www.w3.org/1999/xlink" x="0px" y="0px"
	 width="400px" height="400px" viewBox="0 0 400 400" enable-background="new 0 0 400 400" xml:space="preserve">
<path fill-rule="evenodd" clip-rule="evenodd" fill="#333333" d="M352.691,152.193C326.288,67.863,236.522,20.906,152.194,47.311
	C67.864,73.713,20.906,163.478,47.309,247.809c0.992,3.169,2.091,6.275,3.261,9.337c0.001,0.003,0.001,0.005,0.002,0.007
	c0.063,0.201,0.142,0.392,0.216,0.586c0.055,0.142,0.109,0.284,0.164,0.426c2.014,4.625,7.228,7.084,12.15,5.543
	c5.274-1.649,8.206-7.26,6.556-12.531c-0.104-0.336-0.227-0.662-0.363-0.98c-1.05-2.738-2.02-5.524-2.909-8.361
	C43.281,168.042,84.372,89.49,158.164,66.386c73.794-23.104,152.345,17.985,175.45,91.78
	c23.105,73.795-17.987,152.345-91.78,175.449c-51.08,15.993-104.436,1.222-140.106-33.86c-0.26-0.256-0.519-0.514-0.776-0.772
	c-2.539-2.264-6.163-3.185-9.646-2.094c-5.271,1.65-8.205,7.261-6.556,12.53c0.555,1.773,1.565,3.273,2.853,4.433
	c-0.001-0.002-0.002-0.003-0.004-0.004c-0.007,0.006-0.012,0.013-0.018,0.02c40.763,40.181,101.793,57.119,160.226,38.823
	C332.137,326.288,379.094,236.524,352.691,152.193z"/>
<g>
	<g>
		<path fill="#333333" d="M265.952,157.999c-0.096-1.229-0.161-2.453-0.227-3.67c-0.146-2.695-0.295-5.484-0.762-8.257
			c-5.095-30.302-33.508-54.038-64.687-54.038c-3.771,0-7.548,0.351-11.227,1.046c-30.218,5.705-51.179,28.153-54.703,58.585
			c-0.503,4.345-0.337,8.661,0.066,13.805c0.409,5.203,4.887,9.089,10.195,8.735c5.204-0.347,8.967-4.598,8.947-10.109
			c-0.003-0.992-0.052-1.959-0.104-2.982c-0.673-13.293,3.857-25.769,12.755-35.128c8.835-9.294,20.854-14.413,33.841-14.413
			c2.425,0,4.894,0.184,7.337,0.547c14.534,2.157,26.901,11.005,33.932,24.274c7.05,13.306,7.422,28.554,1.023,41.834
			c-4.63,9.609-12.223,17.045-23.212,22.732c-16.316,8.442-27.449,21.559-33.089,38.985c-3.396,10.493-4.036,21.275-1.904,32.048
			c0.929,4.69,4.741,7.966,9.27,7.966c0.324,0,0.651-0.017,0.981-0.052c5.354-0.564,8.845-4.692,8.688-10.271
			c-0.075-2.681-0.218-5.352-0.25-8.033c-0.047-4.021-0.092-7.818,0.624-11.381c2.901-14.424,11.595-25.286,26.579-33.207
			c23.33-12.333,35.42-32.074,35.935-58.675l0.003-0.17L265.952,157.999z"/>
	</g>
	<circle fill="#333333" cx="196.788" cy="297.966" r="10"/>
</g>
</svg>
