<?xml version="1.0" encoding="utf-8"?>
<!-- Generator: Adobe Illustrator 19.1.0, SVG Export Plug-In . SVG Version: 6.00 Build 0)  -->
<svg version="1.1" id="Layer_1" xmlns="http://www.w3.org/2000/svg" xmlns:xlink="http://www.w3.org/1999/xlink" x="0px" y="0px"
	 viewBox="0 0 400 400" enable-background="new 0 0 400 400" xml:space="preserve">
<g>
	<path fill="#231F20" d="M310.936,46.445c5.186,1.54,10.042,2.599,14.602,4.406c14.252,5.65,20.755,17.368,18.032,32.423
		c-5.854,32.355-11.883,64.679-17.686,97.044c-0.429,2.392,0.614,5.01,0.555,7.513c-0.103,4.319,0.234,8.863-0.99,12.895
		c-2.429,8-5.001,16.147-8.973,23.439c-4.921,9.034-13.217,14.707-23.485,16.669c-3.58,0.684-4.528,2.545-5.063,5.686
		c-3.204,18.78-8.759,36.859-18.203,53.445c-18.445,32.391-46.896,50.442-83.446,55.206c-47.544,6.197-89.038-17.619-111.053-63.283
		c-10.039-20.824-15.706-42.53-14.033-65.819c1.289-17.945,6.84-34.427,16.906-49.393c1.14-1.695,1.419-3.947,2.387-5.788
		c0.933-1.776,2.24-3.356,3.649-5.409c-5.527-6.399-8.721-14.469-7.843-23.782c0.722-7.661,3.882-14.26,9.448-19.655
		c10.542-10.217,27.184-11.527,39.402-3.086c12.009,8.295,16.6,24.164,10.88,37.608c-6.268,14.731-20.433,21.411-36.363,18.196
		c-3.396,2.336-5.902,3.939-8.26,5.736c-1.121,0.855-2.099,1.985-2.901,3.155c-11.173,16.307-16.322,34.541-15.248,54.091
		c1.684,30.657,13.247,57.556,34.815,79.409c27.638,28.003,69.536,34.447,106.346,17.554c28.328-13.001,45.606-35.363,54.753-64.535
		c2.864-9.133,5.041-18.481,7.226-26.593c-7.393-3.936-14.715-6.524-20.404-11.13c-12.805-10.365-19.99-25.218-19.523-40.929
		c0.625-21.017-6.11-40.423-8.745-60.647c-2.102-16.138-5.705-32.077-8.468-48.135c-2.476-14.394,3.185-25.111,16.487-31.196
		c3.405-1.558,7.104-2.544,10.747-3.486c3.295-0.852,6.684-0.741,7.587-5.47c0.528-2.763,8.793-5.012,12.546-4.142
		c3.821,0.885,3.576,4.122,3.929,6.945c0.289,2.307,0.496,4.635,0.55,6.957c0.102,4.374-1.331,5.994-5.743,5.432
		c-3.608-0.46-7.09-1.883-10.64-2.835c-0.82-0.22-1.72-0.467-2.53-0.345c-7.129,1.072-14.024,2.869-19.618,7.749
		c-5.247,4.577-7.288,10.538-6.113,17.302c3.907,22.504,7.991,44.976,12.038,67.455c1.882,10.453,3.356,21.011,5.891,31.307
		c2.615,10.623,5.471,21.331,9.7,31.38c6.413,15.24,19.232,21.907,34.287,19.441c10.334-1.693,16.765-8.21,20.966-17.275
		c1.398-3.017,2.513-6.227,3.281-9.462c2.694-11.344,5.511-22.675,7.681-34.124c5.5-29.019,10.712-58.093,15.96-87.159
		c1.809-10.017-2.089-17.916-11.302-22.258c-4.03-1.9-8.487-2.925-12.804-4.162c-1.003-0.288-2.249,0.067-3.338,0.32
		c-3.868,0.9-7.675,2.19-11.588,2.735c-2.849,0.397-4.736-1.314-4.551-4.466c0.212-3.623,0.47-7.249,0.867-10.855
		c0.356-3.236,2.49-4.298,5.538-4.233C306.316,38.448,309.668,40.749,310.936,46.445z M84.85,144.673
		c0.058,12.488,9.986,22.415,22.448,22.446c12.514,0.031,22.928-10.41,22.726-22.785c-0.201-12.362-10.388-22.487-22.641-22.506
		C94.779,121.809,84.791,131.936,84.85,144.673z"/>
</g>
</svg>
