<?xml version="1.0" encoding="utf-8"?>
<!-- Generator: Adobe Illustrator 19.1.0, SVG Export Plug-In . SVG Version: 6.00 Build 0)  -->
<svg version="1.1" id="Layer_1" xmlns="http://www.w3.org/2000/svg" xmlns:xlink="http://www.w3.org/1999/xlink" x="0px" y="0px"
	 viewBox="0 0 400 400" enable-background="new 0 0 400 400" xml:space="preserve">
<g>
	<g>
		<path fill="#231F20" d="M178.51,332.604c0,5.22-4.232,9.453-9.453,9.453l0,0c-5.221,0-9.453-4.233-9.453-9.453V49.013
			c0-5.221,4.232-9.453,9.453-9.453l0,0c5.221,0,9.453,4.232,9.453,9.453V332.604z"/>
		<path fill="#231F20" d="M102.359,134.103c-5.22,0-9.453-4.232-9.453-9.453l0,0c0-5.221,4.233-9.453,9.453-9.453h132.284
			c5.221,0,9.453,4.232,9.453,9.453l0,0c0,5.221-4.232,9.453-9.453,9.453H102.359z"/>
		<path fill="#231F20" d="M203.018,110.488c-0.094-0.18-0.19-0.359-0.284-0.539C202.824,110.132,202.918,110.312,203.018,110.488z"
			/>
	</g>
	<path fill="#231F20" d="M260.774,350.687c82.252-32.891,122.265-126.229,89.375-208.479
		C326.552,83.196,271.839,45.929,212.43,41.724c-0.431-0.03-0.861-0.054-1.291-0.081c-2.823,0.002-5.63,1.183-7.611,3.495
		c-3.603,4.205-3.115,10.532,1.09,14.135c1.855,1.589,4.123,2.38,6.388,2.409c0.002,0.012,0.006,0.022,0.007,0.034
		c51.994,3.673,99.879,36.286,120.531,87.93c28.781,71.975-6.234,153.653-78.209,182.435
		c-71.977,28.782-153.655-6.236-182.434-78.21c-2.67-6.679-4.774-13.442-6.367-20.237c-0.053,0.003-0.101,0-0.152-0.008
		c-0.211-2.536-1.379-4.992-3.465-6.779c-4.205-3.603-10.532-3.115-14.135,1.09c-1.92,2.241-2.666,5.083-2.32,7.796
		c0.081,0.634,0.223,1.26,0.424,1.87c1.834,7.961,4.28,15.884,7.408,23.707C85.182,343.562,178.521,383.576,260.774,350.687z"/>
</g>
</svg>
