<?xml version="1.0" encoding="utf-8"?>
<!-- Generator: Adobe Illustrator 19.1.0, SVG Export Plug-In . SVG Version: 6.00 Build 0)  -->
<svg version="1.1" id="Layer_1" xmlns="http://www.w3.org/2000/svg" xmlns:xlink="http://www.w3.org/1999/xlink" x="0px" y="0px"
	 width="400px" height="400px" viewBox="0 0 400 400" enable-background="new 0 0 400 400" xml:space="preserve">
<g id="Layer_x25_201118">
	<path fill="#323232" d="M118.968,89.952c-5.42,0.208-9.987-4.082-10.211-9.58l0,0c-0.222-5.493,3.981-10.122,9.394-10.342
		l170.43-0.135c5.547-0.223,10.263,4.109,10.527,9.68l0,0c0.265,5.575-4.029,10.269-9.584,10.479L118.968,89.952z"/>
	<path fill="#323232" d="M119.968,205.952c-5.42,0.208-9.987-4.081-10.211-9.58l0,0c-0.222-5.493,3.981-10.122,9.394-10.342
		l230.43-0.135c5.547-0.223,10.263,4.109,10.527,9.68l0,0c0.265,5.575-4.029,10.269-9.584,10.479L119.968,205.952z"/>
	<path fill="#323232" d="M80.968,341.952c-5.42,0.208-9.987-4.081-10.211-9.58l0,0c-0.222-5.493,3.981-10.122,9.394-10.342
		l210.43-0.135c5.547-0.223,10.263,4.109,10.527,9.68l0,0c0.265,5.575-4.029,10.268-9.584,10.479L80.968,341.952z"/>
	<path fill="#323232" d="M321.017,299.376c-10.868,0-19.68,8.81-19.68,19.678c0,10.868,8.812,19.679,19.68,19.679
		c10.867,0,19.678-8.811,19.678-19.679C340.695,308.186,331.885,299.376,321.017,299.376z M321.016,358.935
		c-22.024,0-39.88-17.855-39.88-39.88c0-22.025,17.855-39.881,39.88-39.881c22.026,0,39.881,17.855,39.881,39.881
		C360.897,341.08,343.043,358.935,321.016,358.935z"/>
	<path fill="#323232" d="M340.1,95.199c-0.206-5.409,4.048-9.968,9.501-10.191l0,0c5.447-0.221,10.038,3.973,10.257,9.376
		l0.134,100.098c0.221,5.537-4.075,10.243-9.6,10.507l0,0c-5.529,0.264-10.184-4.021-10.392-9.565L340.1,95.199z"/>
	<path fill="#323232" d="M70.1,244.199c-0.206-5.409,4.048-9.968,9.501-10.191l0,0c5.447-0.221,10.038,3.973,10.257,9.375
		l0.134,80.098c0.221,5.537-4.075,10.243-9.6,10.507l0,0c-5.529,0.264-10.183-4.021-10.392-9.565L70.1,244.199z"/>
	<path fill="#323232" d="M90.017,190.376c-10.868,0-19.68,8.81-19.68,19.678c0,10.868,8.812,19.679,19.68,19.679
		c10.867,0,19.678-8.811,19.678-19.679C109.695,199.186,100.885,190.376,90.017,190.376z M90.016,249.935
		c-22.024,0-39.88-17.855-39.88-39.88c0-22.025,17.856-39.881,39.88-39.881c22.026,0,39.881,17.855,39.881,39.881
		C129.897,232.08,112.043,249.935,90.016,249.935z"/>
	<path fill="#323232" d="M79.017,61.376c-10.868,0-19.68,8.811-19.68,19.678c0,10.868,8.812,19.679,19.68,19.679
		c10.867,0,19.678-8.811,19.678-19.679C98.695,70.186,89.885,61.376,79.017,61.376z M79.016,120.935
		c-22.024,0-39.88-17.855-39.88-39.88c0-22.025,17.855-39.881,39.88-39.881c22.026,0,39.881,17.855,39.881,39.881
		C118.897,103.08,101.043,120.935,79.016,120.935z"/>
	<path fill="#323232" d="M322.017,61.376c-10.868,0-19.68,8.811-19.68,19.678c0,10.868,8.812,19.679,19.68,19.679
		c10.867,0,19.678-8.811,19.678-19.679C341.695,70.186,332.885,61.376,322.017,61.376z M322.016,120.935
		c-22.024,0-39.88-17.855-39.88-39.88c0-22.025,17.855-39.881,39.88-39.881c22.026,0,39.881,17.855,39.881,39.881
		C361.897,103.08,344.043,120.935,322.016,120.935z"/>
	<path fill="#323232" d="M96.906,283.915c0.539,0.259,1.069,0.533,1.595,0.815C97.997,284.415,97.466,284.14,96.906,283.915z"/>
</g>
</svg>
