<?xml version="1.0" encoding="utf-8"?>
<!-- Generator: Adobe Illustrator 19.1.0, SVG Export Plug-In . SVG Version: 6.00 Build 0)  -->
<svg version="1.1" id="Layer_1" xmlns="http://www.w3.org/2000/svg" xmlns:xlink="http://www.w3.org/1999/xlink" x="0px" y="0px"
	 viewBox="0 0 400 400" enable-background="new 0 0 400 400" xml:space="preserve">
<g>
	<path d="M62.714,114.196c-2.872-15.209,8.955-18.037,18.277-22.056c38.618-16.648,76.793-16.233,113.852,4.826
		c4.378,2.488,7.478,2.319,11.759-0.069c40.579-22.639,81.37-21.27,122.259-0.647c5.881,2.966,10.825,6.2,9.781,13.937
		c-0.152,1.123,0.533,2.358,0.954,4.033c2.752,0,5.423,0.003,8.093-0.001c9.58-0.013,9.598-0.017,11.278,9.198
		c10.662,58.483,21.263,116.978,32.096,175.429c0.687,3.709-0.653,5.432-2.798,7.987c-7.636,9.096-16.814,11.138-28.574,10.475
		c-40.685-2.295-81.442-3.313-122.166-4.953c-4.048-0.163-7.09,0.43-9.357,4.229c-9.344,15.654-46.085,15.528-55.717-0.445
		c-1.221-2.024-5.006-3.644-7.542-3.563c-42.398,1.363-84.796,2.809-127.168,4.807c-8.698,0.41-15.304-1.377-21.67-7.577
		c-4.652-4.531-6.483-8.206-5.218-14.894c11.01-58.205,21.642-116.483,32.148-174.782c0.845-4.69,2.446-6.457,7.149-6.012
		C54.026,114.488,57.964,114.196,62.714,114.196z M336.913,254.865c0.274-0.78,0.557-1.178,0.524-1.548
		c-4.322-48.87-8.634-97.742-13.136-146.595c-0.17-1.848-1.777-4.325-3.407-5.166c-36.257-18.705-72.749-19.639-109.455-1.134
		c-3.689,1.86-4.724,4.328-4.695,8.373c0.331,46.564,0.457,93.13,0.665,139.695c0.009,2.116,0.27,4.23,0.432,6.612
		C267.242,232.994,274.042,232.992,336.913,254.865z M193.845,256.134c0-3.876-0.008-5.927,0.001-7.979
		c0.207-46.169,0.312-92.338,0.767-138.505c0.051-5.223-1.772-7.866-6.159-10.005c-36.04-17.572-71.815-16.52-107.263,1.532
		c-2.037,1.037-3.979,4.219-4.202,6.57c-3.84,40.567-7.406,81.16-11.023,121.748c-0.747,8.381-1.459,16.765-2.314,26.598
		C107.217,233.895,150.001,232.667,193.845,256.134z M356.253,288.296c-3.367,0-5.81,0.099-8.244-0.015
		c-41.346-1.941-82.692-3.899-124.036-5.883c-3.591-0.172-6.539-0.452-8.066,4.308c-2.508,7.818-8.211,11.838-15.212,11.597
		c-7.67-0.264-13.103-4.224-15.381-11.508c-1.191-3.807-3.119-4.661-6.729-4.479c-32.406,1.633-64.812,3.29-97.232,4.607
		c-11.931,0.484-23.898,0.078-36.141,0.078c5.43-55.021,10.929-110.74,16.427-166.452c-11.263-1.075-11.224-1.069-12.792,8.706
		c-8.599,53.584-17.223,107.165-25.816,160.75c-0.445,2.773-0.678,5.58-1.065,8.844c2.524,0,4.356,0.043,6.185-0.006
		c48.243-1.312,96.487-2.586,144.727-4.027c4.672-0.14,7.741,0.768,10.888,4.892c9.566,12.534,25.25,11.979,34.744-0.978
		c2.305-3.146,4.546-4.069,8.176-3.956c41.167,1.287,82.336,2.499,123.509,3.603c9.673,0.259,19.358,0.038,29.179,0.038
		c-0.07-1.373-0.024-2.419-0.188-3.431c-8.963-55.421-17.93-110.842-26.935-166.257c-1.583-9.742-2.753-10.407-12.523-7.594
		C345.218,176.683,350.714,232.27,356.253,288.296z M68.757,274.416c0.08,0.67,0.16,1.34,0.241,2.01c2.198,0,4.395,0,6.593,0
		c34.907-0.002,69.814,0.061,104.72-0.094c4.048-0.018,6.423,0.816,7.872,4.964c1.472,4.214,4.15,7.862,10.04,8.322
		c-3.124-4.394-5.595-8.391-8.615-11.917c-1.795-2.095-4.266-4.533-6.756-4.969c-26.308-4.603-52.843-6.075-79.449-3.628
		C91.79,270.172,80.302,272.603,68.757,274.416z M203.789,289.267c0.443,0.448,0.886,0.895,1.33,1.343
		c2.655-2.877,6.43-5.334,7.703-8.729c1.892-5.05,4.881-5.55,9.411-5.532c34.891,0.14,69.783,0.081,104.675,0.064
		c1.886-0.001,3.773-0.185,5.659-0.284c-1.121-1.194-2.247-1.616-3.408-1.897c-37.421-9.066-74.984-7.221-112.581-1.351
		c-1.292,0.202-2.889,0.978-3.59,2.002C209.774,279.577,206.83,284.455,203.789,289.267z M375.995,305.97
		c-0.255-0.858-0.51-1.716-0.765-2.574c-49.283-1.498-98.565-2.996-147.848-4.494c-0.235,0.716-0.47,1.432-0.705,2.148
		c1.983,0.887,3.936,2.475,5.952,2.558c44.819,1.839,89.642,3.573,134.473,5.081C370.031,308.787,373.028,306.922,375.995,305.97z
		 M174.766,300.86c-0.243-0.658-0.485-1.316-0.728-1.974c-49.393,1.514-98.786,3.028-148.179,4.543
		c-0.17,0.841-0.34,1.681-0.51,2.522c2.794,0.964,5.594,2.768,8.38,2.746c11.422-0.09,22.838-0.744,34.258-1.177
		c33.636-1.276,67.275-2.5,100.905-3.928C170.885,303.506,172.81,301.807,174.766,300.86z M195.153,269.353
		c-1.853-5.702-31.374-15.068-55.77-16.63c-30.541-1.955-74.257,7.772-79.203,18.246
		C105.533,251.931,150.429,254.734,195.153,269.353z M206.4,269.406c21.74-7.82,44.314-11.371,67.455-11.795
		c23.074-0.423,45.282,4.182,66.919,11.87c-28.65-15.775-59.302-20.04-91.352-15.34C226.864,257.449,208.163,264.585,206.4,269.406z
		 M340.696,273.762c-3.204-1.374-6.354-2.897-9.621-4.098c-37.856-13.913-75.818-11.378-114.093-1.488
		c-8.391,2.168-9.342,8.274-12.079,13.968c1.396-0.961,2.913-2.151,3.247-3.612c1.626-7.101,6.916-8.1,12.988-8.931
		C261.184,264.122,301.018,262.751,340.696,273.762z M60.822,274.292c42.742-12.531,85.793-9.948,128.957-3.779
		C146.327,257.338,103.171,254.568,60.822,274.292z M338.328,263.469c-40.218-24.305-96.18-22.804-130.587-0.054
		c20.952-8.546,42.668-13.366,65.306-13.431C295.737,249.918,317.428,254.889,338.328,263.469z M191.705,262.465
		c-29.064-21.935-104.508-21.756-126.828,0.72C107.663,245.318,149.666,246.082,191.705,262.465z M179.304,302.477
		c-4.544,4.118-3.649,7.576,0.266,11.169c9.736,8.935,32.704,8.876,42.3-0.102c4.125-3.859,4.62-7.338-0.026-11.044
		C208.143,317.07,193.761,317.095,179.304,302.477z"/>
</g>
</svg>
