<?xml version="1.0" encoding="utf-8"?>
<!-- Generator: Adobe Illustrator 19.1.0, SVG Export Plug-In . SVG Version: 6.00 Build 0)  -->
<svg version="1.1" id="Layer_1" xmlns="http://www.w3.org/2000/svg" xmlns:xlink="http://www.w3.org/1999/xlink" x="0px" y="0px"
	 width="400px" height="400px" viewBox="0 0 400 400" enable-background="new 0 0 400 400" xml:space="preserve">
<path fill="#323232" d="M332.831,72.352c-18.046-20.33-39.975-30.732-65.786-31.205c-25.811-0.473-48.159,8.983-67.045,28.368
	c-18.886-19.385-41.234-28.841-67.045-28.368c-25.811,0.473-47.739,10.917-65.786,31.248C48.283,93.672,38.84,119.177,38.84,148.678
	h0.001c0,29.501,9.443,54.92,28.329,76.196c20.535,23.003,25.445,28.381,40.294,44.977c1.924,2.781,4.935,4.562,8.321,4.562
	c5.81,0,10.519-5.275,10.519-11.775c0-4.129-1.902-7.762-4.777-9.862l-39.878-44.256c-15.109-16.548-22.664-36.525-22.664-59.929
	c0-23.403,7.555-43.38,22.664-59.928c14.269-16.075,31.476-24.349,51.621-24.822c20.145-0.473,37.771,6.855,52.881,21.985
	l13.849,14.184l13.85-14.184c15.108-15.13,32.735-22.458,52.88-21.985c20.146,0.473,37.353,8.747,51.622,24.822
	c15.108,16.548,22.663,36.523,22.663,59.927c0,23.404-7.555,43.38-22.663,59.928l-111.427,124.11c-4.617,5.673-9.233,5.673-13.85,0
	l-29.818-33.212c-0.003,0.004-0.006,0.009-0.008,0.014c-1.895-3.001-5.003-4.962-8.521-4.962c-5.77,0-10.449,5.271-10.449,11.772
	c0,3.71,1.524,7.017,3.904,9.174c20.042,22.332,30.196,33.525,30.413,33.525c5.875,6.62,13.01,9.929,21.404,9.929
	c8.394,0,15.528-3.309,21.404-9.929c73.445-81.794,110.587-123.165,111.427-124.11c18.886-21.276,28.329-46.689,28.329-76.24
	C361.16,119.041,351.717,93.628,332.831,72.352z"/>
</svg>
