<?xml version="1.0" encoding="utf-8"?>
<!-- Generator: Adobe Illustrator 19.1.0, SVG Export Plug-In . SVG Version: 6.00 Build 0)  -->
<svg version="1.1" id="Layer_1" xmlns="http://www.w3.org/2000/svg" xmlns:xlink="http://www.w3.org/1999/xlink" x="0px" y="0px"
	 width="400px" height="400px" viewBox="0 0 400 400" enable-background="new 0 0 400 400" xml:space="preserve">
<g id="Layer_x25_20171">
	<path fill="#333333" d="M352.691,152.193C326.288,67.863,236.522,20.906,152.194,47.311
		C67.864,73.713,20.906,163.478,47.309,247.808c0.993,3.169,2.09,6.276,3.261,9.337c0,0.003,0.001,0.004,0.002,0.007
		c0.063,0.201,0.142,0.392,0.216,0.586c0.055,0.142,0.109,0.284,0.164,0.426c2.014,4.625,7.228,7.084,12.15,5.543
		c5.273-1.65,8.206-7.26,6.556-12.532c-0.104-0.336-0.227-0.662-0.363-0.979c-1.05-2.738-2.02-5.524-2.909-8.361
		C43.281,168.042,84.372,89.491,158.164,66.386c73.794-23.105,152.345,17.985,175.45,91.78
		c23.105,73.795-17.987,152.345-91.78,175.449c-51.08,15.993-104.436,1.222-140.107-33.86c-0.26-0.256-0.518-0.514-0.776-0.772
		c-2.539-2.264-6.163-3.185-9.646-2.094c-5.271,1.65-8.205,7.261-6.556,12.531c0.555,1.773,1.566,3.273,2.853,4.433
		c-0.001-0.002-0.002-0.003-0.004-0.004c-0.007,0.006-0.012,0.013-0.018,0.02c40.763,40.181,101.794,57.119,160.226,38.823
		C332.137,326.288,379.094,236.523,352.691,152.193z"/>
	<path fill="#333333" d="M205.981,99.734c-54.362,0-81.775,38.973-81.775,71.479c0,19.679,7.45,37.185,23.428,43.703
		c2.621,1.081,4.969,0.04,5.73-2.861c0.528-2.001,1.78-7.066,2.337-9.183c0.764-2.869,0.468-3.869-1.648-6.378
		c-4.605-5.43-7.555-12.464-7.555-22.436c0-28.913,21.635-54.798,56.335-54.798c30.726,0,47.608,18.774,47.608,43.843
		c0,32.995-14.601,60.84-36.272,60.84c-11.972,0-20.927-9.895-18.062-22.04c3.437-14.497,10.099-30.134,10.099-40.605
		c0-9.363-5.03-17.174-15.429-17.174c-12.236,0-22.067,12.66-22.067,29.614c0,10.799,3.649,18.106,3.649,18.106
		s-12.52,53.058-14.717,62.349c-4.37,18.506-0.656,41.185-0.34,43.474c0.184,1.361,1.929,1.689,2.721,0.665
		c1.124-1.477,15.705-19.466,20.655-37.449c1.404-5.085,8.046-31.446,8.046-31.446c3.978,7.586,15.597,14.253,27.954,14.253
		c36.776,0,61.732-33.527,61.732-78.406C278.413,131.34,249.667,99.734,205.981,99.734z"/>
</g>
</svg>
