<?xml version="1.0" encoding="utf-8"?>
<!-- Generator: Adobe Illustrator 19.1.0, SVG Export Plug-In . SVG Version: 6.00 Build 0)  -->
<svg version="1.1" id="Layer_1" xmlns="http://www.w3.org/2000/svg" xmlns:xlink="http://www.w3.org/1999/xlink" x="0px" y="0px"
	 width="400px" height="400px" viewBox="0 0 400 400" enable-background="new 0 0 400 400" xml:space="preserve">
<g id="Layer_x25_20136">
	<path display="none" fill="#333333" d="M352.691,152.196C326.288,67.866,236.522,20.91,152.194,47.314
		C67.864,73.716,20.906,163.481,47.309,247.812c0.992,3.169,2.091,6.276,3.261,9.337c0.001,0.003,0.001,0.004,0.002,0.007
		c0.063,0.201,0.143,0.392,0.216,0.586c0.055,0.142,0.109,0.284,0.164,0.426c2.014,4.625,7.228,7.084,12.15,5.543
		c5.273-1.65,8.206-7.26,6.556-12.532c-0.105-0.336-0.227-0.662-0.363-0.979c-1.05-2.738-2.02-5.524-2.909-8.361
		C43.281,168.045,84.373,89.494,158.165,66.389c73.794-23.105,152.345,17.985,175.45,91.78
		c23.105,73.795-17.987,152.345-91.78,175.449c-51.08,15.993-104.436,1.222-140.107-33.86c-0.26-0.256-0.519-0.514-0.776-0.772
		c-2.539-2.264-6.163-3.185-9.646-2.094c-5.271,1.65-8.205,7.261-6.556,12.531c0.555,1.773,1.565,3.273,2.853,4.433
		c-0.001-0.002-0.002-0.003-0.004-0.004c-0.007,0.006-0.012,0.013-0.018,0.02c40.763,40.181,101.793,57.119,160.225,38.823
		C332.137,326.292,379.094,236.527,352.691,152.196z"/>
	<path display="none" d="M319.813,159.955c0,66.276-53.503,120-119.5,120s-119.5-53.724-119.5-120c0-66.275,53.503-120,119.5-120
		S319.813,93.679,319.813,159.955z M299.813,159.955c0,55.23-44.548,100-99.5,100s-99.5-44.77-99.5-100
		c0-55.229,44.548-100,99.5-100S299.813,104.725,299.813,159.955z"/>
	<path fill="#333333" d="M199.813,319.955c-10.77,0-19.5,8.731-19.5,19.5s8.73,19.5,19.5,19.5s19.5-8.731,19.5-19.5
		S210.583,319.955,199.813,319.955z"/>
	<path fill="#333333" d="M303.313,132.455c0,95.5-83.5,78.167-83.5,122.167l-1.5,21.833c0,13.167-5.833,22-18,22
		c-12.5,0-19-8.167-19-22v-17c0-5.677,1.167-24.167,8.167-36.833c6.058-10.963,17.778-22.667,30.333-28.333
		c15.121-6.825,45.5-22,45.5-60.833c0-34-27.5-55.5-58.5-55.5c-14.667,0-27.636,4.4-37.5,13c-17.893,15.599-22,45.5-22,45.5
		c-1,12-10,20-19,20c-3,0-18-0.5-18-23c0,0-2.209-27.578,16.5-53.5c17.64-24.441,43.5-39.5,79.5-39.5
		C260.313,40.455,303.313,78.455,303.313,132.455z"/>
</g>
</svg>
