<?xml version="1.0" encoding="utf-8"?>
<!-- Generator: Adobe Illustrator 19.1.0, SVG Export Plug-In . SVG Version: 6.00 Build 0)  -->
<svg version="1.1" id="Layer_1" xmlns="http://www.w3.org/2000/svg" xmlns:xlink="http://www.w3.org/1999/xlink" x="0px" y="0px"
	 width="400px" height="400px" viewBox="0 0 400 400" enable-background="new 0 0 400 400" xml:space="preserve">
<g id="Layer_x25_20175">
	<path fill="#333333" d="M173.521,196.239c-11.138-7.991-22.206-15.947-33.289-23.88c-12.73-9.112-25.432-18.264-38.234-27.273
		c-4.205-2.958-5.92-6.719-4.541-11.618c1.337-4.75,5.095-6.981,10.754-7.101c57.108-1.207,114.216-2.449,171.324-3.671
		c1.995-0.043,4.012-0.173,5.985,0.043c8.557,0.937,12.194,7.947,8.103,15.496c-13.404,24.737-26.818,49.47-40.223,74.208
		c-0.86,1.588-1.672,3.202-2.742,5.258c9.37,3.963,18.554,7.434,27.307,11.773c3.062,1.519,5.934,4.789,7.341,7.949
		c1.963,4.408-0.31,8.178-4.997,10.488c-34.506,17.012-69.031,33.982-103.538,50.99c-13.294,6.553-26.688,12.918-39.801,19.816
		c-19.067,10.029-39.02,6.832-53.568-9.06c-68.08-74.37-54.417-187.739,29.372-243.712c71.46-47.738,171.3-27.612,219.652,44.278
		c50.44,74.994,29.791,175.963-46.416,224.569c-36.942,23.562-77.308,30.406-120.249,21.332c-6.932-1.465-10.099-6.042-8.779-12.082
		c1.199-5.485,6.131-8.375,12.823-7.008c30.828,6.298,60.889,3.867,89.22-9.925c46.597-22.683,74.326-60.017,80.047-111.666
		C347.04,143.52,301.874,80.513,231.76,63.431C154.031,44.492,73.787,98.059,61.777,177.033
		c-6.955,45.734,5.413,85.668,36.712,119.705c6.526,7.098,10.968,6.662,15.965-1.619c19.354-32.069,38.607-64.199,57.886-96.314
		C172.758,198.11,173.026,197.326,173.521,196.239z M252.983,239.764c-6.595-2.757-11.905-5.105-17.312-7.208
		c-8.465-3.291-10.563-8.804-6.176-16.863c10.184-18.707,20.397-37.397,30.586-56.102c2.915-5.353,5.783-10.73,9.152-16.989
		c-44.491,0.913-87.945,1.804-131.4,2.695c0.973,2,2.207,2.989,3.498,3.896c16.615,11.676,33.252,23.32,49.852,35.019
		c5.133,3.618,6.675,9.939,3.693,14.893c-18.455,30.654-36.932,61.293-55.396,91.941c-1.08,1.793-2.11,3.615-3.164,5.424
		c0.223,0.248,0.445,0.495,0.668,0.743C175.317,278.229,213.648,259.245,252.983,239.764z"/>
</g>
</svg>
