<svg id="Layer_1" data-name="Layer 1" xmlns="http://www.w3.org/2000/svg" viewBox="0 0 400 400"><title>icons-interests</title><path d="M301,210.65c2.28-2.92,8.81-11.29-.19-24.33,7.28-2.76,13-9.51,15.86-18.88,4.17-13.85,0-26-6.32-32.8,1.54-3.82.62-7.54-2.68-10.68a1.86,1.86,0,0,1-.12-0.69c0.93-10.57-1.68-15.48-11.05-20h0a18.14,18.14,0,0,0-6.3-14.89A17.15,17.15,0,0,0,275,84.46l-0.16,0c-3-4.29-8.11-8.19-16.77-5.78-2.94-5.79-7-8.88-12.23-9.18-3.63-.22-7.07.62-10.71,1.49-0.87.21-1.76,0.42-2.66,0.62a18.47,18.47,0,0,0-15.71-8.09h-0.09c-7.82,0-12.65,4.38-15.8,8.62-12.24-7.68-20.9-5.83-30.65,6.43C154.67,73,141.46,77.2,134.59,90.14c-0.3.57-.59,1.14-0.87,1.7-1.42,2.81-2.54,5-5.15,6.29-3,1.46-4.57,5.5-5,7.65s-1,2.76-2.91,3.53c-9.08,3.57-14.52,10.59-15.74,20.29-1.31,10.43,2.72,19.2,11.34,24.68,2,1.3,2.6,2.29,2.83,5,1.25,15.13,12.66,26.35,27.73,27.28A28.23,28.23,0,0,0,163,182.71c0,0.71,0,1.42,0,2.14a28.34,28.34,0,0,0,11.83,22,26.63,26.63,0,0,0,23.46,3.94c4.14-1.27,5.6-.16,7.5,3a35.21,35.21,0,0,1,3.07,6.41c2.47,7.06,4.86,14,6.91,21,0.69,2.34,2.48,8.44,9.77,8.44l0.67,0c6.35-.31,7.23-5.26,7.7-7.91,0.08-.48.17-1,0.28-1.42,0.65-2.64,1.23-5.27,1.87-8.22,4.9,5.18,13.21,11,24.64,6.41,10.47-4.21,14.61-13.42,16.64-21.12C286.41,219.83,295.79,217.29,301,210.65Zm-24.69,0-3.34-1.38-0.75,3.53c-2.32,11-6.57,17.18-13.79,20.08-8,3.21-14.42.41-21.6-9.33l-3.92-5.31-1.43,6.44c-0.39,1.78-.75,3.43-1.09,5-0.73,3.36-1.36,6.26-2.07,9.14-0.14.58-.25,1.19-0.36,1.8-0.52,2.89-.7,2.9-2.09,3-2.35.11-3.31-.46-4.38-4.13-2.09-7.11-4.5-14.11-7-21.25a41.29,41.29,0,0,0-3.58-7.52c-1.88-3.13-4.63-6.43-9.77-6.43a15.78,15.78,0,0,0-4.64.77A20.68,20.68,0,0,1,178.28,202,22,22,0,0,1,169,184.66a47,47,0,0,1,.2-4.89c0.07-.91.14-1.86,0.19-2.86l0.35-6.71-5.23,4.21c-5.62,4.54-11.27,6.56-17.25,6.19a23.29,23.29,0,0,1-22.13-21.79c-0.32-3.83-1.39-6.93-5.58-9.6-6.74-4.29-9.64-10.64-8.61-18.87,0.94-7.49,5-12.69,12-15.45,3.88-1.53,5.8-3.84,6.6-8a6.33,6.33,0,0,1,1.69-3.38c4.46-2.14,6.29-5.79,7.91-9,0.26-.53.53-1.06,0.81-1.58,5.67-10.67,16.66-13.58,30.15-8l2.16,0.9L173.6,84c9.1-12.23,14.76-13.36,26.31-5.24l2.58,1.82,1.68-2.68c3.68-5.85,7.4-8.35,12.44-8.35h0.07a12.61,12.61,0,0,1,11.64,6.88l1,1.92,2.15-.4c1.73-.32,3.38-0.72,5-1.1,3.2-.77,6.23-1.51,9-1.34,1.26,0.07,5.1.3,8.18,8l1.11,2.78,2.79-1.11c6-2.4,9.86-1.4,12.77,3.36,1.33,2.17,4.51,2.09,6,1.75a11.15,11.15,0,0,1,9.93,2.61,12,12,0,0,1,4.27,9.84,11.2,11.2,0,0,0,0,1.93c0,0.23,0,.46,0,0.72l0.09,1.86,1.7,0.75c8.39,3.69,9.93,6.17,9.18,14.74a7,7,0,0,0,1.89,5.5c1.92,1.79,2.1,3.19.68,5.37l-1.43,2.19,2,1.71c8.07,7,8.94,19.19,6.23,28.2s-8.58,14.94-15.68,15.86l-5.55.71,3.66,4.23c7.05,8.13,7.9,14.06,2.91,20.44C292.15,212.2,283.75,213.77,276.28,210.67Z"/><path d="M307.22,246c23.35-26.11,35-56.08,34.71-89.1-0.53-55.69-39.41-101.91-94.54-112.4-5.94-1.13-12-2.06-17.84-3-2.72-.42-5.45-0.84-8.17-1.28l-25.63,0-0.28.05c-2.9.55-5.87,1.06-8.75,1.55-6.36,1.08-12.94,2.2-19.31,3.94-41.79,11.38-70,38.88-83.82,81.74a256.33,256.33,0,0,0-8.53,34c-0.63,3.56.39,7.07,1.38,10.47a40.79,40.79,0,0,1,1.2,4.78c0.38,2.35.41,3.8,0.11,4.31-6.93,11.74-14.16,23.59-21.15,35l-6.12,10-0.44.72v6.66l1.42,0.88c1,0.6,1.93,1.26,2.94,2a38.83,38.83,0,0,0,7.46,4.32c8.62,3.43,9.1,4.37,6.48,12.57-1.86,5.83,0,10.3,5.14,12.65-1.82,1.58-3.61,3.47-3.68,6-0.07,2.8,2,4.95,3.89,6.74,2.65,2.48,4.39,4.12,4.63,5.1s-0.57,3.19-1.79,6.53C72.31,301.81,73,312,78.45,318.89s15.4,9.93,27.83,8.43c8.88-1.08,16.08-2,22.63-3,4.46-.65,7.36-0.31,9.13,1.05s2.83,4.12,3.31,8.65,1.06,9,1.63,13.35c0.48,3.7,1,7.53,1.4,11.29,0.5,4.38,2.84,6.51,7.17,6.51h0c35.29-.06,71.18-0.07,105.88-0.07h38.6a10.54,10.54,0,0,0,2-.24l1.07-.19,3.06-.48-0.57-3c-0.08-.44-0.13-0.88-0.17-1.31a10.22,10.22,0,0,0-1-4c-10.89-19.73-14.44-42.13-11.17-70.48C290.94,270.47,296.83,257.57,307.22,246Zm-12.08,112.8a1.46,1.46,0,0,1,.12.34h-37.8c-34.71,0-70.59,0-105.89.07a5.51,5.51,0,0,1-1-.1,4.24,4.24,0,0,1-.23-1.09c-0.43-3.81-.93-7.66-1.41-11.39-0.56-4.33-1.14-8.82-1.61-13.22-0.67-6.26-2.45-10.31-5.6-12.75s-7.49-3.15-13.67-2.25c-6.51.95-13.66,1.89-22.49,3-10.28,1.25-18.24-1-22.41-6.2s-4.47-13.32-1-22.89c3.55-9.73,3.26-10.92-4.38-18.07a9.48,9.48,0,0,1-2-2.2,9.11,9.11,0,0,1,2-2c0.58-.49,1.17-1,1.86-1.5l4.86-3.89-4.17-2.1L79,261.81c-0.92-.49-1.8-0.95-2.75-1.34-2.38-1-3.32-2-2.22-5.5,3.61-11.28,1.56-15.38-10-20a33.87,33.87,0,0,1-6.3-3.7L56,230.12v-1.67l5.68-9.32c7-11.47,14.24-23.34,21.19-35.12,1.44-2.43,1.09-5.57.65-8.31a45.55,45.55,0,0,0-1.36-5.51c-0.83-2.86-1.62-5.56-1.24-7.74a250.3,250.3,0,0,1,8.33-33.15c13.17-40.81,40-67,79.69-77.79,6.09-1.66,12.52-2.75,18.74-3.81,2.82-.48,5.73-1,8.6-1.52h24.34c2.66,0.43,5.31.84,8,1.25,5.8,0.9,11.8,1.82,17.63,2.93,52.29,10,89.16,53.77,89.66,106.56,0.3,31.47-10.86,60.09-33.19,85-11.25,12.57-17.62,26.55-19.48,42.74C279.85,314.35,283.62,337.88,295.14,358.76Z"/></svg>