<?xml version="1.0" encoding="utf-8"?>
<!-- Generator: Adobe Illustrator 19.1.0, SVG Export Plug-In . SVG Version: 6.00 Build 0)  -->
<svg version="1.1" id="Layer_1" xmlns="http://www.w3.org/2000/svg" xmlns:xlink="http://www.w3.org/1999/xlink" x="0px" y="0px"
	 width="400px" height="400px" viewBox="0 0 400 400" enable-background="new 0 0 400 400" xml:space="preserve">
<g id="Layer_x25_20145">
	<path fill="#333333" d="M320.178,104.93h-0.062c0-5.523-4.477-10-10-10c-5.524,0-10,4.477-10,10h-0.006
		c0,55.191-44.74,99.932-99.932,99.932c-55.189,0-99.932-44.74-99.932-99.932c0-5.523-4.477-10-10-10c-5.523,0-10,4.477-10,10
		h-0.068c0,66.275,53.726,120,120,120C266.451,224.93,320.178,171.205,320.178,104.93z"/>
	<path fill="#333333" d="M359.895,348.144V50.412c0.006-0.142,0.021-0.282,0.021-0.425c0-1.727-0.438-3.352-1.209-4.769
		c-1.687-3.139-4.999-5.274-8.812-5.274c-0.293,0-0.582,0.019-0.869,0.044H51.302c-0.349-0.037-0.703-0.058-1.062-0.058
		c-0.718,0-1.417,0.079-2.092,0.223c-4.679,0.836-8.232,4.916-8.232,9.834c0,0.86,0.12,1.69,0.324,2.486v297.456
		c0,5.522,4.477,10,10,10c5.523,0,10-4.478,10-10V59.987h221.348c0.033,0.02,0.067,0.041,0.102,0.06
		c-0.034-0.02-0.068-0.04-0.102-0.06h58.307v280.083H130.146c-5.522,0-10,4.477-10,10c0,5.523,4.478,10,10,10h219.938
		c5.523,0,10-4.477,10-10C360.084,349.411,360.017,348.768,359.895,348.144z"/>
</g>
</svg>
