<?xml version="1.0" encoding="utf-8"?>
<!-- Generator: Adobe Illustrator 19.1.0, SVG Export Plug-In . SVG Version: 6.00 Build 0)  -->
<svg version="1.1" id="Layer_1" xmlns="http://www.w3.org/2000/svg" xmlns:xlink="http://www.w3.org/1999/xlink" x="0px" y="0px"
	 viewBox="0 0 400 400" enable-background="new 0 0 400 400" xml:space="preserve">
<g>
	<path fill="#231F20" d="M80.05,160.081c16.414,14.23,35.036,25.252,53.757,36.094c1.694,0.981,3.675,1.396,3.331,4.452
		c-0.318,2.835-1.46,3.888-3.916,4.724c-5.025,1.711-9.957,3.703-14.893,5.662c-3.394,1.347-6.732,2.836-10.284,4.341
		c0.615,1.232,1.057,2.117,1.554,3.113c9.014-3.634,17.848-7.196,26.917-10.853c0.145,1.262,0.252,1.938,0.296,2.618
		c1.353,20.971,10.075,38.2,26.391,51.455c1.282,1.041,3.603,1.574,5.252,1.279c28.002-5.014,55.46-12.229,82.571-20.802
		c0.801-0.253,1.577-0.585,2.882-1.074c-1.86-0.761-3.132-1.29-4.41-1.802c-45.317-18.155-89.49-38.674-131.33-63.954
		c-12.669-7.655-25.188-15.595-35.738-26.157c-1.776-1.777-3.384-3.835-4.614-6.019c-2.177-3.866-0.97-6.435,3.287-7.517
		c1.441-0.366,2.986-0.678,4.444-0.555c5.631,0.474,11.318,0.757,16.85,1.812c8.126,1.55,16.137,3.7,24.197,5.595
		c0.09-0.2,0.18-0.4,0.271-0.6c-1.148-0.375-2.275-0.841-3.446-1.112c-8.773-2.03-17.475-4.569-26.357-5.861
		c-7.933-1.154-16.122-1.661-24.099-1.088c-8.147,0.586-10.365,5.887-5.557,12.557C71.014,151.4,75.376,156.029,80.05,160.081z
		 M144.297,202.316c0,0,54.356,31.373,90.959,40.337l-65.735,12.699C169.521,255.352,137.747,233.69,144.297,202.316z"/>
	<path fill="#231F20" d="M324.189,184.97c10.461,0.155,19.321-8.452,19.52-18.963c0.21-11.078-8.155-19.728-19.201-19.858
		c-10.718-0.126-19.576,8.534-19.632,19.192C304.82,175.993,313.496,184.811,324.189,184.97z"/>
	<path fill="#231F20" d="M108.99,85.832c8.248,0.071,14.81-6.316,14.915-14.517c0.104-8.119-6.445-14.679-14.693-14.717
		c-8.032-0.038-14.643,6.39-14.738,14.328C94.376,79.137,100.828,85.762,108.99,85.832z"/>
	<path fill="#231F20" d="M190.782,317.328c-7.485,0.094-13.303,6-13.311,13.512c-0.007,7.486,5.858,13.273,13.448,13.27
		c7.518-0.004,13.335-5.878,13.283-13.412C204.149,323.205,198.158,317.235,190.782,317.328z"/>
	<path fill="#231F20" d="M82.405,224.187c0.087,6.511,5.269,11.591,11.753,11.517c6.45-0.073,11.521-5.317,11.445-11.837
		c-0.075-6.482-5.332-11.637-11.768-11.541C87.377,212.422,82.319,217.671,82.405,224.187z"/>
	<path fill="#231F20" d="M294.22,110.828c4.535,0.012,8.22-3.57,8.28-8.046c0.06-4.539-3.873-8.437-8.423-8.346
		c-4.477,0.089-8.106,3.838-8.044,8.31C286.096,107.335,289.622,110.816,294.22,110.828z"/>
	<path fill="#231F20" d="M285.639,289.921c-4.537,0.103-8.023,3.749-7.949,8.312c0.072,4.455,3.825,8.138,8.264,8.111
		c4.375-0.027,8.209-3.881,8.2-8.244C294.145,293.509,290.3,289.815,285.639,289.921z"/>
	<path fill="#231F20" d="M136.602,153.536c4.099,0.172,7.606-3.137,7.693-7.257c0.086-4.107-3.286-7.573-7.376-7.581
		c-3.937-0.007-7.25,3.284-7.311,7.262C129.547,150.004,132.655,153.371,136.602,153.536z"/>
	<path fill="none" d="M231.781,151.178c-30.038-13.502-64.867-2.199-81.675,25.12l117.104,52.639
		C276.485,198.232,261.82,164.681,231.781,151.178z"/>
	<path fill="#231F20" d="M376.859,176.804c-8.155-7.15-18.377-8.337-28.565-9.8c-0.604,2.714-1.097,4.929-1.616,7.261
		c1.195,0.487,2.261,0.898,3.308,1.353c9.981,4.341,11.854,11.503,5.035,20.082c-2.214,2.785-4.808,5.335-7.531,7.634
		c-9.784,8.264-20.944,14.364-32.393,19.939c-0.964,0.469-2.685,0.182-3.704-0.383c-10.504-5.833-20.971-11.736-31.34-17.802
		c-1.23-0.72-2.445-2.463-2.605-3.854c-1.014-8.804-3.131-17.258-6.991-25.256c-0.238-0.493-0.34-1.052-0.661-2.08
		c10.566-1.051,20.865-2.076,31.41-3.125c-0.284-1.235-0.555-2.414-0.923-4.013c-9.748,1.141-19.287,2.056-28.75,3.482
		c-3.042,0.458-4.473-0.299-6.115-2.744c-22.593-33.627-68.893-41.187-101.018-16.524c-1.876,1.44-3.415,1.812-5.637,0.936
		c-3.675-1.448-7.485-2.55-11.239-3.798c-0.12,0.337-0.24,0.675-0.36,1.012c4.317,1.594,8.634,3.189,13.347,4.929
		c-8.522,7.846-14.893,16.606-18.872,27.132c1.021,0.603,1.796,1.097,2.602,1.532c37.97,20.484,77.168,38.283,117.464,53.672
		c5.023,1.918,9.73-0.264,11.519-5.27c0.776-2.173,1.643-4.356,2.045-6.61c1.082-6.079,1.936-12.199,2.956-18.789
		c11.154,6.212,22.286,12.412,33.907,18.884c-1.049,0.642-1.389,0.909-1.772,1.075c-8.366,3.633-16.639,7.503-25.123,10.838
		c-41.637,16.367-84.625,27.916-128.733,35.208c-23.634,3.907-47.409,6.684-71.452,5.051c-8.778-0.596-17.563-1.496-25.425-5.949
		c-6.771-3.835-8.35-9.546-4.026-16.026c2.465-3.695,5.614-7.096,9.017-9.963c4.925-4.149,10.359-7.695,15.717-11.601
		c-0.562-1.071-1.186-2.259-1.96-3.735c-12.658,6.957-24.791,13.994-34.605,24.18c-3.298,3.423-6.066,7.601-8.148,11.886
		c-2.422,4.986-0.93,10.349,3.548,13.639c3.29,2.417,7.083,4.394,10.939,5.751c10.81,3.801,22.176,4.433,33.503,4.723
		c20.051,0.512,39.975-1.35,59.788-4.194c40.45-5.806,80.016-15.413,118.843-28.139c1.893-0.62,4.322-0.465,6.271,0.111
		c5.863,1.733,11.57,3.984,17.411,5.797c19.864,6.166,39.764,12.285,60.689,13.645c4.204,0.273,8.584-0.09,12.696-1.003
		c5.461-1.213,7.123-5.011,4.45-9.957c-1.842-3.407-4.083-6.901-6.984-9.375c-8.954-7.638-18.305-14.81-27.515-22.148
		c-1.015-0.809-2.11-1.518-3.486-2.501c2.38-1.227,4.223-2.169,6.059-3.124c13.356-6.952,26.532-14.26,37.527-24.702
		c3.872-3.677,7.25-8.124,9.912-12.759C382.313,186.038,381.179,180.592,376.859,176.804z M267.21,228.938l-117.104-52.639
		c16.808-27.319,51.636-38.622,81.675-25.12S276.485,198.232,267.21,228.938z M354.971,267.035
		c-13.521,2.985-47.892-5.86-72.514-15.492l36.887-16.697C319.344,234.846,368.492,264.05,354.971,267.035z"/>
</g>
</svg>
