<?xml version="1.0" encoding="utf-8"?>
<!-- Generator: Adobe Illustrator 19.1.0, SVG Export Plug-In . SVG Version: 6.00 Build 0)  -->
<svg version="1.1" id="Layer_1" xmlns="http://www.w3.org/2000/svg" xmlns:xlink="http://www.w3.org/1999/xlink" x="0px" y="0px"
	 width="400px" height="400px" viewBox="0 0 400 400" enable-background="new 0 0 400 400" xml:space="preserve">
<g id="Layer_x25_20119">
	<path fill="#333333" d="M352.691,152.193C326.288,67.863,236.522,20.906,152.194,47.311
		C67.864,73.713,20.906,163.478,47.309,247.809c0.992,3.17,2.091,6.276,3.261,9.338c0.001,0.002,0.001,0.004,0.002,0.006
		c0.063,0.201,0.143,0.392,0.216,0.586c0.055,0.142,0.109,0.285,0.164,0.427c2.014,4.624,7.228,7.083,12.15,5.542
		c5.274-1.649,8.206-7.26,6.556-12.531c-0.104-0.336-0.227-0.662-0.363-0.98c-1.05-2.738-2.02-5.523-2.909-8.36
		C43.281,168.042,84.373,89.49,158.165,66.386c73.794-23.104,152.345,17.985,175.45,91.78
		c23.105,73.795-17.987,152.345-91.78,175.449c-51.08,15.993-104.436,1.222-140.106-33.86c-0.26-0.256-0.519-0.514-0.776-0.772
		c-2.539-2.264-6.163-3.185-9.646-2.094c-5.271,1.65-8.205,7.261-6.556,12.53c0.555,1.773,1.565,3.273,2.853,4.433
		c-0.001-0.002-0.002-0.003-0.004-0.004c-0.007,0.006-0.012,0.013-0.018,0.021c40.763,40.18,101.793,57.118,160.226,38.822
		C332.137,326.288,379.094,236.524,352.691,152.193z"/>
	<path fill="#333333" d="M293.308,200.049c0,5.523-4.477,10-10,10H146.782l40.166,40.164c3.904,3.906,3.905,10.237,0,14.144
		c-3.905,3.905-10.237,3.904-14.143-0.002l-56.568-56.567c-2.039-2.039-3.003-4.737-2.913-7.408
		c-0.003-0.096-0.014-0.19-0.014-0.286c0-0.015-0.002-0.029-0.002-0.044c0-0.016,0.002-0.031,0.002-0.047
		c0.002-0.313,0.017-0.626,0.048-0.938c0.015-0.155,0.044-0.307,0.066-0.459c0.024-0.17,0.044-0.34,0.077-0.509
		c0.034-0.172,0.081-0.339,0.124-0.509c0.037-0.146,0.069-0.294,0.113-0.439c0.05-0.165,0.111-0.324,0.17-0.485
		c0.053-0.146,0.101-0.295,0.161-0.439c0.061-0.147,0.133-0.289,0.2-0.434c0.072-0.152,0.14-0.306,0.22-0.455
		c0.071-0.134,0.153-0.261,0.23-0.391c0.09-0.15,0.175-0.303,0.273-0.45c0.091-0.135,0.191-0.262,0.288-0.392
		c0.099-0.132,0.19-0.267,0.296-0.396c0.161-0.196,0.336-0.383,0.512-0.566c0.051-0.053,0.095-0.11,0.147-0.163l56.569-56.567
		c3.905-3.906,10.236-3.907,14.142-0.001c3.905,3.905,3.905,10.236,0,14.143l-39.498,39.497l135.858,0.001
		C288.832,190.049,293.309,194.526,293.308,200.049z"/>
</g>
</svg>
