<?xml version="1.0" encoding="utf-8"?>
<!-- Generator: Adobe Illustrator 19.1.0, SVG Export Plug-In . SVG Version: 6.00 Build 0)  -->
<svg version="1.1" id="Layer_1" xmlns="http://www.w3.org/2000/svg" xmlns:xlink="http://www.w3.org/1999/xlink" x="0px" y="0px"
	 width="400px" height="400px" viewBox="0 0 400 400" enable-background="new 0 0 400 400" xml:space="preserve">
<g id="Layer_x25_201106">
	<path fill="#333333" d="M126.36,149.096l39.499,39.556H50c-5.523,0-10.001,4.482-10,10.015c0,5.531,4.477,10.015,10,10.015h116.525
		l-40.165,40.223c-3.904,3.911-3.905,10.252,0,14.163c3.905,3.911,10.237,3.91,14.143-0.001l56.568-56.651
		c2.039-2.041,3.003-4.744,2.913-7.419c0.003-0.091,0.013-0.18,0.013-0.27c0-0.021,0.003-0.04,0.003-0.06
		c0-0.011-0.001-0.02-0.001-0.031c-0.001-0.32-0.017-0.638-0.048-0.956c-0.015-0.15-0.043-0.295-0.064-0.443
		c-0.025-0.176-0.046-0.352-0.08-0.527c-0.033-0.166-0.079-0.327-0.12-0.491c-0.039-0.152-0.072-0.307-0.118-0.46
		c-0.048-0.159-0.107-0.311-0.163-0.465c-0.055-0.155-0.106-0.309-0.169-0.461c-0.059-0.141-0.127-0.276-0.192-0.414
		c-0.075-0.159-0.145-0.32-0.229-0.475c-0.068-0.128-0.146-0.248-0.22-0.374c-0.093-0.156-0.182-0.315-0.284-0.467
		c-0.088-0.131-0.186-0.254-0.28-0.38c-0.101-0.136-0.195-0.275-0.303-0.406c-0.169-0.205-0.349-0.4-0.533-0.591
		c-0.043-0.046-0.081-0.095-0.125-0.14l-56.569-56.651c-3.905-3.912-10.236-3.912-14.142,0
		C122.455,138.845,122.455,145.185,126.36,149.096z"/>
	<path fill="#333333" d="M120.05,350c0.502,5.053,4.765,9,9.95,9h220c5.523,0,10-4.477,10-10V49c0-5.523-4.477-10-10-10H130
		c-5.523,0-10,4.477-10,10v40.333c0,5.523,4.477,10,10,10s10-4.477,10-10V59h200v280H140v-29.667h-0.05
		c0.033-0.329,0.05-0.663,0.05-1c0-5.523-4.477-10-10-10s-10,4.477-10,10c0,0.337,0.017,0.671,0.05,1H120V349
		C120,349.337,120.017,349.671,120.05,350z M120,350h0.05c-0.033-0.329-0.05-0.663-0.05-1V350z"/>
</g>
</svg>
