<svg id="Layer_1" data-name="Layer 1" xmlns="http://www.w3.org/2000/svg" viewBox="0 0 500 500"><defs><style>.cls-1{fill:#333;}</style></defs><title>files</title><path class="cls-1" d="M176.39,383.64a5.54,5.54,0,0,0-2.21-.45,5.63,5.63,0,0,0-2.25.45,5.89,5.89,0,0,0-1.82,1.2,5.29,5.29,0,0,0-1.2,1.8,5.94,5.94,0,0,0,0,4.44,5.32,5.32,0,0,0,1.2,1.78,5.63,5.63,0,0,0,1.82,1.18,5.86,5.86,0,0,0,2.25.43,5.77,5.77,0,0,0,2.21-.43,5.43,5.43,0,0,0,1.8-1.18,5.73,5.73,0,0,0,1.2-1.78,5.71,5.71,0,0,0,0-4.44A5.51,5.51,0,0,0,176.39,383.64Z"/><path class="cls-1" d="M228.64,347.33a25.35,25.35,0,0,0-8.66-5.58,30.18,30.18,0,0,0-11.21-2H188.08v54.2h20.69A30.43,30.43,0,0,0,220,392a24.57,24.57,0,0,0,14.24-14.17,31.12,31.12,0,0,0,0-21.89A25,25,0,0,0,228.64,347.33Zm-3.94,27.51a17,17,0,0,1-3.41,6,14.71,14.71,0,0,1-5.38,3.77,18.49,18.49,0,0,1-7.14,1.31H198.24V347.76h10.53a18.5,18.5,0,0,1,7.14,1.31,14.73,14.73,0,0,1,5.38,3.77,17,17,0,0,1,3.41,6A27.3,27.3,0,0,1,224.71,374.85Z"/><path class="cls-1" d="M257.45,341.22a25.45,25.45,0,0,0-8.7,5.79,26,26,0,0,0-5.6,8.79,31.67,31.67,0,0,0,0,22.08,26,26,0,0,0,5.6,8.79,25.45,25.45,0,0,0,8.7,5.79,31.29,31.29,0,0,0,22.43,0,25.3,25.3,0,0,0,8.66-5.79,26.18,26.18,0,0,0,5.58-8.79,31.67,31.67,0,0,0,0-22.08,26,26,0,0,0-5.58-8.77,25.67,25.67,0,0,0-8.66-5.79,29,29,0,0,0-11.21-2.1A29.35,29.35,0,0,0,257.45,341.22Zm23.75,11.6a16.93,16.93,0,0,1,3.39,6,27.71,27.71,0,0,1,0,16,16.73,16.73,0,0,1-3.39,6,14.7,14.7,0,0,1-5.38,3.77,20.13,20.13,0,0,1-14.3,0,14.83,14.83,0,0,1-5.42-3.77,16.8,16.8,0,0,1-3.43-6,27.3,27.3,0,0,1,0-16,17,17,0,0,1,3.43-6,14.74,14.74,0,0,1,5.42-3.79,20.14,20.14,0,0,1,14.3,0A14.61,14.61,0,0,1,281.19,352.82Z"/><path class="cls-1" d="M316.11,352.86a15.62,15.62,0,0,1,5.51-3.8A20.24,20.24,0,0,1,334,348.4a18.72,18.72,0,0,1,3.5,1.46,21.75,21.75,0,0,1,2.29,1.46,3,3,0,0,0,1.76.67,2.17,2.17,0,0,0,1.29-.34,3.06,3.06,0,0,0,.77-0.79l3.37-4.69a24.68,24.68,0,0,0-7.74-5.12,26.68,26.68,0,0,0-10.55-1.93,30.23,30.23,0,0,0-11.3,2,25.28,25.28,0,0,0-14.49,14.47,30,30,0,0,0-2,11.19A32.93,32.93,0,0,0,302.73,378a25.09,25.09,0,0,0,5.23,8.77,23.91,23.91,0,0,0,8.23,5.74A27.31,27.31,0,0,0,327,394.54a28,28,0,0,0,11.56-2.17,21.84,21.84,0,0,0,8.12-6.26l-4-4.31a1.89,1.89,0,0,0-1.42-.64,2,2,0,0,0-.9.21,3.57,3.57,0,0,0-.79.54,16.55,16.55,0,0,1-2.49,1.89,13.6,13.6,0,0,1-2.66,1.26,15.77,15.77,0,0,1-3.07.71,28,28,0,0,1-3.73.23,16.1,16.1,0,0,1-6.45-1.29A14.94,14.94,0,0,1,316,381a17.86,17.86,0,0,1-3.5-6,23.74,23.74,0,0,1-1.29-8.13,23.11,23.11,0,0,1,1.29-8A17.49,17.49,0,0,1,316.11,352.86Z"/><path class="cls-1" d="M333.06,136.26h0l0.34,0.2Z"/><path class="cls-1" d="M391,423V205.61a9.84,9.84,0,0,0-3.38-7.42l-78.43-78.44a9.9,9.9,0,0,0-17.11,6.75v77.76a10.17,10.17,0,0,0-.1,1.35,9.9,9.9,0,0,0,6.1,9.14,9.65,9.65,0,0,0,3.89.8,8.23,8.23,0,0,0,.86,0h68.38v198H133.73V136.4h95.15v3.16h0.21v98.19c-0.69,11.21-8.61,20.78-21.34,20.78-0.22,0-3.73,0-4,0-11.13,0-24.3-9-24.3-22.37h0V159.81h-0.18c0-.1,0-0.2,0-0.3a9.66,9.66,0,0,0-19.32,0c0,0.1,0,.2,0,0.3h0v76.35h-0.2c0,24,20,43.48,44.7,43.48s44.74-19.49,44.74-43.48H249V139.56h0.05V136.4h13.22a9.89,9.89,0,0,0,0-19.78H249.06V91.51h0a30.27,30.27,0,0,0-60.54.3h0v24.8H124.88a9.48,9.48,0,0,0-1-.06,9.89,9.89,0,0,0-9.89,9.89V423.26a10,10,0,0,0,9.93,10H381.11a9.89,9.89,0,0,0,9.89-9.9C391,423.26,391,423.11,391,423ZM311.85,195.73V151.2l45.09,44.53H311.85Zm-93.06-114a10.1,10.1,0,0,1,10.08,10.08v24.8H208.71V91.51h0A10.08,10.08,0,0,1,218.79,81.73Z"/></svg>