<?xml version="1.0" encoding="utf-8"?>
<!-- Generator: Adobe Illustrator 19.1.0, SVG Export Plug-In . SVG Version: 6.00 Build 0)  -->
<svg version="1.1" id="Layer_1" xmlns="http://www.w3.org/2000/svg" xmlns:xlink="http://www.w3.org/1999/xlink" x="0px" y="0px"
	 width="400px" height="400px" viewBox="0 0 400 400" enable-background="new 0 0 400 400" xml:space="preserve">
<g id="Layer_x25_20146">
	<path fill="#333333" d="M201.893,204.823c43.474-0.712,78.505-36.154,78.505-79.8c0-44.091-35.744-79.834-79.834-79.834
		c-44.091,0-79.833,35.742-79.833,79.834c0,43.52,34.827,78.88,78.128,79.79c-76.798,0.614-138.869,63.05-138.869,139.997h0.057
		c0,5.523,4.478,10,10,10c5.523,0,10-4.477,10-10c0-0.309-0.018-0.611-0.045-0.912c0.491-65.861,54.024-119.099,119.998-119.099
		c66.28,0,120.012,53.73,120.012,120.011c0,5.523,4.478,10,10,10c5.522,0,10-4.477,10-10
		C340.011,268.115,278.345,205.838,201.893,204.823z M140.684,125.023c0-33.071,26.809-59.88,59.88-59.88
		c33.07,0,59.881,26.809,59.881,59.88c0,33.072-26.811,59.881-59.881,59.881C167.493,184.904,140.684,158.095,140.684,125.023z"/>
</g>
</svg>
