<?xml version="1.0" encoding="utf-8"?>
<!-- Generator: Adobe Illustrator 19.1.0, SVG Export Plug-In . SVG Version: 6.00 Build 0)  -->
<svg version="1.1" id="Layer_1" xmlns="http://www.w3.org/2000/svg" xmlns:xlink="http://www.w3.org/1999/xlink" x="0px" y="0px"
	 viewBox="0 0 400 400" enable-background="new 0 0 400 400" xml:space="preserve">
<g>
	<path fill="#231F20" d="M106.217,362.189c6.451-17.179,11.908-34.758,19.763-51.19c3.335-6.976,11.899-11.35,17.718-17.268
		c5.459-5.551,13.591-10.903,15.012-17.529c3.883-18.116,4.848-36.857,7.123-56.7c14.928-6.486,31.264-0.932,39.664,16.192
		c-13.692-0.197-22.313-17.501-34.504-11.885c-1.472,22.706,0.561,43.825-10.56,63.49c-1.652,2.921-0.215,7.588-0.206,11.447
		c3.628-1.157,8.899-1.177,10.615-3.657c10.441-15.088,19.86-30.878,30.123-46.095c2.574-3.817,6.991-6.391,13.038-11.718
		c-2.167,5.308-2.853,8.486-4.576,10.934c-5.564,7.906-12.705,14.933-17.044,23.421c-7.617,14.899-14.949,30.207-19.956,46.113
		c-6.951,22.082-19.667,35.712-43.23,38.705C121.124,357.473,113.289,360.37,106.217,362.189z"/>
	<path fill="#231F20" d="M288.785,43.645c-0.375,4.48,0.291,9.367-1.281,13.378c-22.199,56.626-44.686,113.14-67.197,169.643
		c-0.848,2.128-2.653,3.874-5.546,5.055c12.493-38.874,24.987-77.748,37.48-116.622c-2.117-0.966-4.234-1.933-6.35-2.899
		c-19.322,30.249-38.544,60.563-58.099,90.66c-2.306,3.549-6.438,5.912-9.723,8.825c-0.057-4.679-1.988-10.557,0.119-13.853
		c21.581-33.756,43.697-67.174,65.934-100.505c8.309-12.455,17.202-24.529,26.078-36.593c4.755-6.463,10.039-12.537,15.085-18.787
		C286.452,42.512,287.618,43.078,288.785,43.645z"/>
</g>
</svg>
