<?xml version="1.0" encoding="utf-8"?>
<!-- Generator: Adobe Illustrator 19.1.0, SVG Export Plug-In . SVG Version: 6.00 Build 0)  -->
<svg version="1.1" id="Layer_1" xmlns="http://www.w3.org/2000/svg" xmlns:xlink="http://www.w3.org/1999/xlink" x="0px" y="0px"
	 width="400px" height="400px" viewBox="0 0 400 400" enable-background="new 0 0 400 400" xml:space="preserve">
<g id="Layer_x25_20184">
	<path fill="#333333" d="M125.676,360l71.742-0.001l3.635,0.001l68.584-0.001l3.148,0l72.215,0V203.581
		c0-1.984-0.864-3.821-2.489-5.219c-1.586-1.378-3.719-2.142-5.965-2.142h-58.465c-2.208,0-4.407,0.782-5.975,2.142
		c-1.586,1.369-2.47,3.253-2.47,5.219l-0.002,23.789c-1.49-0.856-3.358-1.317-5.313-1.317h-58.455c-2.218,0-4.407,0.644-5.965,1.741
		c-1.596,1.116-2.484,2.677-2.484,4.275l0.002,36.661c-1.411-0.805-3.092-1.238-4.826-1.238h-58.46
		c-2.208,0-4.398,0.735-5.956,1.994c-1.586,1.312-2.503,3.101-2.503,4.899l-0.001,29.37c0.812,0.406,1.564,0.948,2.228,1.618
		c1.605,1.584,2.455,3.735,2.455,5.982v48.641L125.676,360z M55,359.997L125.676,360l4.682-0.003v-48.641
		c0-2.247-0.85-4.398-2.455-5.982c-0.663-0.67-1.415-1.213-2.228-1.618c-1.154-0.576-2.43-0.876-3.757-0.876h-58.45
		c-2.237,0-4.408,0.901-5.984,2.466c-1.596,1.584-2.484,3.792-2.484,6.01V359.997z"/>
	<path fill="#333333" d="M161.248,84.717l0.109-0.009c12.524-0.057,22.654-10.266,22.654-22.854
		c0-12.622-10.197-22.854-22.764-22.854c-12.576,0-22.783,10.232-22.783,22.854c0,5.199,1.81,9.951,4.721,13.8
		C147.342,81.121,153.844,84.717,161.248,84.717z"/>
	<path fill="#333333" d="M109.683,187.136c0,0-10.201,29.675-16.528,66.429c-6.336,36.744-4.474,68.065,25.685,8.83
		c15.825-31.087,21.22-54.876,21.22-54.876s16.875,6.559,17.478,19.548c0.332,7.48-0.817,34.536,5.88,34.903
		c6.682,0.344,11.869-6.764,18.389-29.246c2.251-7.732,5.97-31.159-8.107-40.699c-14.072-9.54-23.908-16.901-23.908-16.901
		l7.385-29.336c0,0,6.345,11.663,18.304,19.434c11.954,7.78,32.082,17.33,33.421,0c0.655-8.515-4.925-6.707-15.131-11.653
		c-10.202-4.947-23.22-27.214-29.907-43.108c-6.687-15.904-13.365-29.694-30.961-24.027c-17.587,5.653-27.442,55.835-28.496,63.958
		C103.356,158.515,98.783,175.835,109.683,187.136z"/>
</g>
</svg>
