<?xml version="1.0" encoding="utf-8"?>
<!-- Generator: Adobe Illustrator 19.1.0, SVG Export Plug-In . SVG Version: 6.00 Build 0)  -->
<svg version="1.1" id="Layer_1" xmlns="http://www.w3.org/2000/svg" xmlns:xlink="http://www.w3.org/1999/xlink" x="0px" y="0px"
	 viewBox="0 0 400 400" enable-background="new 0 0 400 400" xml:space="preserve">
<g>
	<path fill="#231F20" d="M48.246,252.476c0-3.631,0-7.262,0-10.893c1.233-4.998,1.898-10.193,4.952-14.567
		c1.097-1.571,2.26-3.096,3.391-4.64c-2.879-1.061-5.611-2.068-8.343-3.075c0-0.495,0-0.99,0-1.485c1.958-1.18,3.8-2.654,5.897-3.48
		c4.669-1.838,9.447-3.407,14.222-4.961c1.339-0.436,2.007-0.978,2.17-2.476c0.648-5.945,0.694-11.852-0.574-17.724
		c-0.907-4.199-2.453-8.159-5.957-10.811c-1.921-1.453-4.391-2.165-6.565-3.303c-2.056-1.075-4.302-2.18-4.209-4.963
		c0.1-2.98,2.751-3.123,4.803-3.782c3.304-1.061,6.637-2.029,10.17-3.101c-0.894-1.112-1.523-1.869-2.124-2.649
		c-0.601-0.78-1.265-1.531-1.743-2.383c-7.321-13.072-8.432-27.01-4.55-41.157c2.461-8.968,8.65-14.77,18.366-16.105
		c24.748-3.401,49.487-6.87,74.228-10.316c28.253-3.936,56.497-7.94,84.768-11.744c3.924-0.528,7.836-1.829,11.972-0.547
		c14.007,4.345,28.067,8.519,42.111,12.745c19.723,5.935,39.45,11.859,59.175,17.787c3.042,0.914,3.941,3.974,1.561,6.028
		c-1.519,1.311-3.383,2.394-5.275,3.067c-4.475,1.592-7.294,4.69-8.907,8.982c-2.371,6.31-2.681,12.859-2.008,19.499
		c0.441,4.354,0.459,4.261,4.752,5.602c6.188,1.932,12.485,3.665,17.676,7.857c0,0.495,0,0.99,0,1.485
		c-1.372,0.529-2.71,1.189-4.124,1.561c-4.01,1.055-8.05,1.992-12.354,3.043c7.063,9.099,7.563,19.243,6.569,29.73
		c-1,10.553-3.608,20.363-12.415,27.362c0.344,0.286,0.453,0.44,0.598,0.488c1.564,0.522,3.134,1.025,4.701,1.537
		c2.923,0.955,3.736,3.874,1.412,5.911c-1.508,1.322-3.387,2.394-5.281,3.067c-4.462,1.585-7.224,4.65-8.905,8.942
		c-2.57,6.564-2.51,13.348-2.137,20.242c0.152,2.816,1.256,3.849,3.784,4.692c5.453,1.818,10.798,3.984,16.093,6.229
		c1.022,0.433,1.617,1.876,2.409,2.853c-0.924,0.587-1.804,1.27-2.787,1.732c-0.808,0.379-1.735,0.513-2.616,0.726
		c-16.668,4.021-33.341,8.025-50.006,12.059c-18.187,4.402-36.368,8.829-54.552,13.245c-18.186,4.417-36.394,8.745-54.541,13.315
		c-4.168,1.05-7.974,1.006-12.013-0.47c-6.345-2.318-12.82-4.281-19.245-6.378c-13.868-4.525-27.734-9.055-41.61-13.555
		c-12.545-4.068-25.111-8.07-37.646-12.166c-3.907-1.277-8.019-2.279-11.555-4.265c-6.321-3.551-9.473-9.705-11.262-16.493
		C49.661,260.74,49.057,256.581,48.246,252.476z M187.383,187.13c0.186-0.641,0.345-0.948,0.355-1.26
		c0.4-11.46,0.771-22.921,1.195-34.38c0.051-1.389-0.629-1.755-1.805-2.133c-11.533-3.709-23.042-7.488-34.557-11.252
		c-23.816-7.786-47.627-15.587-71.449-23.355c-6.158-2.008-10.095-0.345-11.977,5.788c-3.082,10.043-2.367,20.07,1.833,29.698
		c1.33,3.048,3.67,5.429,7.15,6.376c11.454,3.117,22.903,6.251,34.333,9.455c21.507,6.028,42.999,12.11,64.499,18.165
		C180.36,185.189,183.765,186.124,187.383,187.13z M218.969,245.049c0.546-0.076,0.794-0.081,1.025-0.146
		c24.04-6.715,48.081-13.422,72.115-20.159c11.421-3.201,22.757-6.741,34.269-9.569c5.417-1.331,8.319-4.466,10.154-9.286
		c2.776-7.291,2.901-14.831,2.055-22.426c-0.233-2.092-0.907-4.201-1.741-6.147c-2.066-4.825-5.926-6.382-10.919-4.717
		c-6.64,2.215-13.291,4.4-19.947,6.568c-28.739,9.358-57.478,18.718-86.235,28.022c-1.71,0.553-2.288,1.351-2.215,3.158
		c0.442,10.954,0.764,21.913,1.14,32.87C218.689,243.769,218.845,244.316,218.969,245.049z M178.193,303.28
		c0.112-0.848,0.183-1.169,0.193-1.491c0.351-11.215,0.668-22.43,1.076-33.643c0.059-1.615-0.491-2.335-2.008-2.821
		c-9.023-2.891-18.011-5.891-27.021-8.821c-26.409-8.587-52.824-17.154-79.234-25.738c-5.529-1.797-9.751,0.085-11.438,5.674
		c-2.958,9.8-2.364,19.566,1.407,29.056c1.336,3.362,3.59,6.116,7.346,7.164c13.807,3.854,27.613,7.709,41.418,11.567
		c18.889,5.279,37.777,10.562,56.667,15.84C170.379,301.125,174.167,302.165,178.193,303.28z M193.992,187.212
		c45.55-11.34,90.996-22.655,136.478-33.979c-1.329-10.789-1.741-21.15,2.858-31.351c-1.63,0.283-2.764,0.449-3.885,0.68
		c-21.074,4.34-42.144,8.7-63.22,13.029c-23.014,4.728-46.028,9.454-69.059,14.097c-1.847,0.372-2.346,1.109-2.387,2.909
		c-0.173,7.504-0.556,15.002-0.766,22.505C193.902,179.038,193.992,182.979,193.992,187.212z M73.223,179.851
		c0.87,2.62,1.737,4.757,2.288,6.972c1.84,7.394,1.65,14.884,0.691,22.368c-0.214,1.67,0.211,2.38,1.896,2.687
		c2.345,0.427,4.638,1.137,6.957,1.71c23.921,5.916,47.849,11.807,71.763,17.75c17.035,4.233,34.051,8.539,51.079,12.8
		c1.486,0.372,2.995,0.651,4.66,1.009c0.062-0.935,0.159-1.58,0.139-2.221c-0.346-10.964-0.742-21.926-1.028-32.892
		c-0.044-1.689-0.889-1.972-2.249-2.249c-21.646-4.406-43.284-8.855-64.922-13.299c-17.682-3.632-35.363-7.271-53.044-10.904
		C85.499,182.361,79.542,181.145,73.223,179.851z M184.493,303.127c0.764-0.098,1.412-0.116,2.026-0.268
		c26.236-6.53,52.468-13.073,78.702-19.612c17.834-4.445,35.662-8.913,53.513-13.289c1.863-0.457,2.251-1.161,2.006-3.043
		c-0.966-7.397-1.175-14.807,0.82-22.105c0.593-2.17,1.341-4.297,2.097-6.696c-0.878,0.099-1.442,0.119-1.987,0.23
		c-6.704,1.367-13.406,2.742-20.106,4.125c-12.756,2.633-25.531,5.174-38.259,7.937c-11.829,2.568-23.613,5.342-35.401,8.093
		c-4.392,1.025-8.489,3.919-13.324,1.977c-0.196-0.079-0.482,0.056-0.723,0.105c-8.803,1.802-17.6,3.632-26.412,5.387
		c-1.569,0.313-2.097,1.018-2.134,2.638c-0.203,8.825-0.551,17.646-0.806,26.469C184.429,297.696,184.493,300.321,184.493,303.127z"
		/>
</g>
</svg>
