<?xml version="1.0" encoding="utf-8"?>
<!-- Generator: Adobe Illustrator 19.1.0, SVG Export Plug-In . SVG Version: 6.00 Build 0)  -->
<svg version="1.1" id="Layer_1" xmlns="http://www.w3.org/2000/svg" xmlns:xlink="http://www.w3.org/1999/xlink" x="0px" y="0px"
	 width="400px" height="400px" viewBox="0 0 400 400" enable-background="new 0 0 400 400" xml:space="preserve">
<g id="Layer_x25_20189">
	<path fill="#333333" d="M267.601,196.949c-2.026,0.183-4.048,0.277-6.07,0.277c-13.329,0-26.258-3.847-37.735-11.265
		c-15.654-10.128-26.192-25.133-29.692-42.259c-3.518-17.224,0.307-35.639,10.764-51.864c11.147-17.309,29.474-28.275,50.245-30.096
		c1.942-0.169,3.884-0.245,5.816-0.245c13.499,0,26.753,4.079,37.86,11.743c32.582,22.491,40.59,62.067,19.03,94.117
		C306.374,184.39,288.065,195.169,267.601,196.949z M358.935,290.661l-40.559-82.062c-1.269-2.58-3.487-4.383-6.012-5.209
		l-4.614-8.337c8.065-5.7,14.937-12.783,20.469-21.089c11.878-17.862,16.113-39.304,11.913-60.353
		c-4.195-21.049-16.322-39.201-34.141-51.114C292.795,53.691,277.203,49,261.45,49c-2.298,0-4.587,0.094-6.876,0.281
		c-24.432,2.143-46.224,15.073-59.816,35.501c-24.53,36.867-14.55,86.874,22.232,111.457c13.316,8.895,28.494,13.515,44.255,13.515
		c2.365,0,4.739-0.107,7.126-0.317c6.898-0.598,13.681-2.089,20.184-4.419l4.235,7.788c-1.024,2.598-0.998,5.592,0.33,8.293
		l40.563,82.053c1.795,3.629,5.42,5.727,9.192,5.727c1.523,0,3.073-0.344,4.529-1.067l6.885-3.401
		C359.363,301.891,361.447,295.74,358.935,290.661z M204.876,126.559c-0.045,0.558-0.098,1.133-0.129,1.691
		c0.37-0.469,0.739-0.937,1.109-1.415C205.856,126.836,205.42,126.697,204.876,126.559z M209.673,131.384
		c0.027-0.714,0.058-1.424,0.085-2.147c0.009,0.005-2.027-1.201-3.273-0.634c-0.971,0.437-1.541,0.067-1.737-0.129
		c-0.089,1.852-0.085,3.7,0.018,5.525l0.263-0.125c0.134,0.589,0.272,1.187,0.401,1.781c0.619,0.397,1.243,0.799,1.848,1.201
		c0,0,1.283,0.013,1.991-0.567c0.708-0.594,0.851-1.772,0.851-1.772l-0.387-0.982C209.722,132.816,209.691,132.102,209.673,131.384z
		 M292.821,175.941c-0.686,0.014-1.051,1.317-1.617,1.884l-0.044,0.067c1.189-0.71,2.351-1.468,3.474-2.272
		C294.028,175.468,293.334,175.941,292.821,175.941z M284.137,179.837c-0.445-0.005-0.681,0-0.802-1.424
		c-0.129-1.433-0.922-1.741-0.922-1.741s-1.835-0.286-2.641-0.299c-0.802,0-1.492-0.299-2.071-0.303l-0.837-0.839l-0.788-0.629
		c-0.695-0.004-0.94-0.888-0.94-0.888s-0.481-0.741-0.387-1.629c0.098-0.875,0.664-1.321,1.006-2.071
		c0.321-0.75-0.285-1.968-0.525-2.419c-0.245-0.451,0.775-1.986,0.775-1.986s-1.033,0.915-1.051,0.143
		c-0.013-0.768-1.43-1.08-1.43-1.08c-0.503,0.161-1.002,0.313-1.51,0.473l-1.514,0.147l-1.519,0.147h-1.986
		c0,0-1.038,0.308-3.247,0.745c-2.205,0.442-2.32,0.29-2.677,0.29l-1.158,0.295c0,0-1.389,0.281-1.835,0.723
		c-0.459,0.442-0.552,0.875-1.024,0.866c-0.463-0.004-0.926,0.134-1.839,0.696c-0.917,0.562,0,0-0.33,0.567
		c-0.236,0.419-0.352,0.603-0.632,0.616l-0.392-0.063c-0.592-0.147-0.601-0.29-0.958-0.433c-0.356-0.156-0.704-0.013-1.18-0.027
		c-0.463-0.013-1.055-0.027-1.519-0.031c-0.481,0-1.193-0.589-1.193-0.589s-0.521-0.995-1.349-1.156
		c-0.833-0.147-0.681,0.558-0.681,0.558s-0.098,0.705-0.196,1.254c-0.094,0.558-0.539,1.241-0.521,1.932
		c0.018,0.687-0.926,0.661-1.149,1.201c-0.223,0.531-0.815,0.513-1.514,0.893c-0.704,0.375-1.309,0.214-1.773,1.134
		c-0.454,0.915-1.051,1.553-1.162,2.209c-0.111,0.652-0.592,0.884-0.57,1.678c0.004,0.79,0.263,1.723,0.263,1.723l-0.102,1.027
		c6.943,2.843,14.327,4.329,21.796,4.329c1.684,0,3.398-0.08,5.091-0.223c6.948-0.611,13.597-2.482,19.685-5.427l-0.076-0.098
		C286.186,179.413,284.596,179.837,284.137,179.837z M281.278,139.069l0.379,0.054l0.036,0.009L281.278,139.069z M247.551,109.991
		l-0.009-0.04l0.013,0.049L247.551,109.991z M243.102,113.901l0.045,0.138l0.013,0.04L243.102,113.901z M239.739,98.98l-0.855,0.33
		l-0.428,0.464l-0.619,0.482l-0.508,0.178l0.022-0.022c0.356-0.58,0.788-1.66,1.047-2.312c0.516,0.277,1.051,0.572,1.577,0.857
		L239.739,98.98z M306.32,160.877c-2.124-5.275-4.57-10.386-7.304-15.322l-0.053-0.094c-2.739-4.932-5.763-9.672-9.05-14.206
		l-0.049-0.071c-3.3-4.539-6.872-8.882-10.702-12.988v-0.004c-10.466-11.257-22.767-20.755-36.435-28.021l-0.018-0.013
		c-3.113-1.647-6.293-3.187-9.535-4.606l-0.053-0.018c-1.545-0.674-3.104-1.317-4.676-1.932c-2.757,2.022-5.331,4.289-7.673,6.815
		c1.015,0.357,2.049,0.71,3.051,1.089c0.316,1.531,0.445,3.575,1.434,4.392c1.202,0.986,1.439,2.013,3.18,2.602
		c1.732,0.594,2.779,0.567,3.095,0.598c0.316,0.027,0.708,0.839,1.376,1.589l0.913,0.62l-0.196,0.139
		c-0.209,0.071-0.325,0.045-0.779,0.116c-0.459,0.071-0.744,0.013-0.811,0.156l0.053,0.482l1.06,0.268
		c-0.468-0.058-0.944-0.121-1.407-0.179l-0.236,0.884l1.06-0.179l-1.096,0.71l0.178,0.817c0,0-0.223,0.397,0.944,0.46
		c1.171,0.076,1.501-0.308,1.75-0.308c0.258-0.013,0.989-0.799,0.895-0.375c-0.085,0.375-0.094,0.415,0.312,0.505l0.174,0.031
		c0.592,0.12-0.868,0.16-0.325,0.553c0.552,0.397,0.374,0.353,0.414,1.169c0.031,0.812-0.191,0.879-0.263,1.093l0.41,0.674
		l0.708-0.192c0.129-0.218,0.61-0.112,1.038-0.027c0.41,0.094,0.873,0.067,1.042-0.652c0.178-0.723,0.574-1.317,0.574-1.317
		s1.768-0.143,1.782-0.754c0.004-0.616-1.069-0.621-0.873-1.723c0.196-1.094,1.398-0.96,2.227-1.21
		c0.833-0.263,1.412-0.504,1.412-0.504s-0.588-0.281-0.174-0.402l0.445-0.201c0.543,0.321,1.082,0.661,1.621,1
		c-0.566,0.174-1.367,0.491-1.367,0.491s-1.042,0.111-1.064,0.75c-0.018,0.638-0.076,1.397-0.076,1.397l0.272,0.339l0.788,0.549
		l1.078,0.236l0.993,0.089l0.597,0.129l0.597-0.272l0.227,0.054l0.436,0.085l0.615,0.299l-0.828,0.223l-0.423,0.134
		c-0.748-0.134-1.505-0.281-2.254-0.42c0,0-1.817,0.299-0.998,0.995l0.339,0.37c0.383,0.527,0.134,0.96-0.276,0.919
		c-0.499-0.049-0.526-0.406-0.526-0.406s-0.298-0.933-1.167-0.826c-0.868,0.103-0.828,0.17-0.575,0.812
		c0.254,0.638-0.12,0.384-0.005,0.638l-0.147,0.678l-0.392,0.228l-0.405,0.259c0.499,0.29-1.354-0.04-1.354-0.04l-0.338-0.553
		c0,0-0.98,0.027-1.528,0.085c-0.534,0.067-1.599,0.138-1.599,0.138l-0.196-0.103l-0.414-0.21l-0.682-0.442l-0.998,0.089
		l-0.681-0.442c-0.12-0.201-0.673-0.085-0.356-0.603c0.307-0.527,0.334-0.402,0.904-0.576c0.57-0.174,0.686-0.147,0.592-0.397
		l-0.419-0.438l0.499-0.692l-0.908,0.098l-0.615,0.268l-0.797,0.12l-0.289,0.75l0.334,1.009l-0.677,0.638
		c-0.223-0.054,0.076,0.058-1.149,0.169l-0.196,0.013c-1.456,0.116-1.327-0.397-2.008,0.245c-0.682,0.634-0.37,0.83-1.323,0.804
		h-0.12c-0.806,0-0.615,0.218-0.842,0.344l-0.762,0.116l-0.035-0.259c-0.419-0.406-0.962,0.031-0.41-0.397
		c0.539-0.433,0.655-0.237,0.989-0.607l0.227-0.594l-1.145-0.098c-0.205-0.312,0.178-0.107,0.214-0.67
		c0.045-0.567,0.334-0.598,0.031-1.004c-0.303-0.411-0.597-0.254-0.597-0.254s0.717-0.723,0.04-1.12
		c-0.668-0.393-1.096-0.255-1.096-0.255s0.08-0.071,0.94-0.25c0.864-0.161,1.145-0.696,1.145-0.696l-1.064-0.415l-0.784,0.094
		l0.628-0.505l0.762-0.254c-0.445-0.134-0.891-0.259-1.327-0.388c0,0-0.512,0.388-1.029,0.62c-0.517,0.228-0.681,0.406-0.811,0.674
		l0.526,0.482l-0.539,0.361l0.77,0.156l-0.757,0.143l0.512,0.102l-0.784,0.411l1.055,0.031c0,0,0.468-0.121,0.285,0.321
		c-0.187,0.442-0.04,0.861-0.04,0.861s0.601,0.25-0.33,0.46c-0.931,0.21-0.886,0.223-1.1,0.174l-0.018,0.71l-1.002-0.08l0.388,0.54
		c0.272,0.058,0.628,0.67,1.336,0.089c0,0-0.534,0.62-1.078,0.46c-0.548-0.161-1.22-0.027-1.621,0.71c0,0,0.481-0.129,1.225,0.027
		c0.739,0.152,0.708,0.013,1.149,0.107c0.432,0.094,0.499,0.054,0.971,0.157c0.494,0.107,0.998,0.16,1.363,0.196l0.788,0.018
		l-0.156,0.129l-0.632,0.67l-0.592,0.37c0,0-0.811,0.134-1.078-0.353c-0.263-0.491-0.365-0.393-0.428,0.089
		c-0.054,0.491,0.08,0.643-0.33,0.553c-0.423-0.089-0.851-0.116-0.851-0.116l-1.122-0.37l-0.659,0.857
		c-0.089,0.236,0.539-0.255,0.971,0.464c0.428,0.719,0.73,1.299,0.726,1.482c-0.009,0.201-0.04,0.634-0.214,1.107
		c-0.178,0.473-0.45,1.79-0.811,1.714l-0.459-0.014l-0.619,0.103c-1.367-0.504-2.734-1-4.075-1.491c0,0-1.964-0.049-1.688,1.058
		l-0.067,0.326c-0.071,0.272-0.196,0.714-0.405,1.281c-0.361,0.978-1.007,1.17-1.301,1.433l-0.441,0.897l-0.205,1.642
		c0,0-0.183,0.17,0.53,0.33c0.637,0.147,0.476,0.263,0.637,0.21l0.08-0.04c0.316-0.138,0.958-0.129,0.904,0.616
		c-0.062,0.736-0.04,0.884,0.343,0.902c0.392,0.022,0.356-0.674,0.971-0.535c0.61,0.143,0.793-0.009,1.47,0.138
		c0.668,0.156,1.105,0.259,1.105,0.259l0.962-0.536c0.285,0.138,0.739-1.049,1.167-0.96c0.436,0.107,0.103-1.263,0.962-1.674
		c0.868-0.402,1.207-0.986,1.692-0.884c0.49,0.12,1.06-0.027,1.06-0.027c0.276-0.406,0.543-0.812,0.806-1.218
		c0,0,0.116-0.897,0.909-0.714c0.788,0.174,1.394,0.969,1.995,0.969c0.592,0.013,0.904-0.326,1.247-0.571l0.143-0.152
		c0.183-0.259,0.223-0.58,1.033-0.183c0.975,0.491,1.345,0.567,1.109,1.308c-0.223,0.75-0.218,0.5,0.298,1.201
		c0.525,0.723,0.868,1.357,1.385,1.669c0.512,0.326,1.18,0.143,1.479,1.433c0.307,1.299,0.989,1.803,0.37,1.803
		c-0.615-0.009-0.036,0.616-1.064,0.37c-1.033-0.241-1.064-0.116-1.706-0.263c-0.641-0.147-0.984,0.116-0.868,0.42l1.92,1.629
		l0.784-1.062l1.109-0.295l1.091-0.643l-0.33-1.25c-0.209-0.246,0.588-0.884,0.998,0.098c0.41,0.996,1.363,0.522,0.383-0.66
		c-0.962-1.169-1.434-1.147-1.59-1.326l-0.094-0.625l-0.855-0.535l-0.107-0.763c0,0,0.027-0.321-0.468-0.902
		c-0.494-0.576-0.713-0.96-0.713-0.96s0.036-1.183,0.592-1.049l0.681-0.031l0.223,0.361c0.307,0.732,0.552,1.049,0.704,1.219
		c0.151,0.16,0.209,0.843,0.663,1.147c0.459,0.299,0.49,0.647,0.721,0.763l0.753,0.25l0.062,0.076
		c0.303,0.41,0.619,0.821,0.931,1.228l-0.361,1.486c0.076,0.214,0.036,1.379,0.436,1.397l0.174,0.04l0.2,0.607
		c0.022,0.415-0.102,1.143-0.102,1.143l0.263,0.83l0.61,0.567l1.007,0.379l0.111-0.674l0.352,0.014l-0.352-0.781l0.739,0.607
		l0.503-0.308c-0.231-0.455-0.463-0.897-0.686-1.343l-0.267-1.031c0,0,0.062-0.803,0.276-0.277c0.196,0.531,0.316,0.348,0.739,0.04
		c0.432-0.312-0.249-0.334,0.432-0.312c0.628,0.027,0.904-0.197,1.091,0.04l0.053,0.089l0.864,0.741l0.044,0.027l-0.044-0.027
		c-0.049,0.014-0.129,0.143-0.263,0.647c-0.209,0.839-0.192,1.272-0.143,1.629l0.49,1.089l0.623,0.571l0.16,1.018
		c0.41,0.143,0.815,0.294,1.234,0.428l0.579,0.21l0.592-0.419c0,0,0.628-0.263,1.096,0.406c0.468,0.679,0.383,0.723,1.198,0.853
		c0.828,0.134,0.682-0.755,1.118-0.509c0.436,0.25,1.104,0.406,1.43,0.486l0.33,0.201l-0.04,0.366l-0.521,2.209l-0.543,0.799
		l-0.089,0.044c-0.396,0.192-0.833,0.224-0.962,0.764c-0.129,0.536-0.138,0.893-0.254,1.37c-0.071,0.303-0.325,1.486-0.41,2.606
		c-0.031,0.612-0.018,1.21,0.102,1.629c0.365,1.165,0.249,0.486,0.931,2.093c0.686,1.607,0.143,2.12,0.65,2.964
		c0.526,0.844,1.162,0.576,1.18,2.299c0,0-0.779,2.044-0.053,2.928c0.721,0.884,1.127,0.701,1.363,2.107
		c0.227,1.419,0.882,1.709,1.234,2.357l0.214,0.612l-0.129,0.763c-0.147,0.593-0.396,1.031-0.472,1.915
		c-0.085,0.897-0.16,1.223,0.085,1.7c0.24,0.482,0.084,0.786,1.189,0.692c1.1-0.089,0.392-0.67,1.545-0.406
		c1.154,0.263,2.717,0.067,2.717,0.067s0.289-0.906,1.176-0.701c0.877,0.201,1.06-0.25,1.826-0.415
		c0.762-0.179,1.229-0.071,1.416-0.518c0.191-0.451,0.655-0.902,0.859-0.852l0.067,0.013c0.151,0.04,0.267,0.062,0.739,0.17
		c0.548,0.129,1.015,0.245,1.372,0.245c0.352,0.013-0.428-1.143,0.45-0.946c0.877,0.196,1.104,0.397,1.327-0.192
		c0.218-0.58,1.162-0.638,1.162-0.638l0.183-0.737c0.049-0.196-0.16-1.089,0.445-0.946c0.601,0.143,0.263,0.062,1.234-0.419
		c0.971-0.486,1.096-1.303,0.975-1.683l-0.356-0.652l-0.588-1.067l-1.104-0.469c-0.267-0.348-0.672-0.728-0.788-1.187l-0.027-0.393
		c0-0.518,0.116-1.223,0.116-1.223s-1.835,1.486-2.436,1.629c-0.606,0.134-1.906-0.384-2.302-0.254l-0.209-0.062
		c-0.428-0.286-1.078-1.473-1.305-2.317c-0.272-1,0.316-0.785-0.254-1.71c-0.401-0.643-0.851-1.549-1.042-2.2l-0.089-0.651
		c0.102-0.478,1.701-1.875,2.018-0.728c0.316,1.152,0.646,2.522,1.888,3.321c0,0,0.356,1.232,1.318,1.678
		c0.98,0.437,2.463-0.496,2.779,0.022c0.316,0.504-0.036,1.701,1.198,2.21c1.225,0.509,2.124,1.223,2.797,1.375l0.761,0.134
		c0.503,0.054,1.18,0.147,2.405,0.487c1.91,0.518,2.204-0.116,2.432,0.714c0.223,0.839-0.111,1.384,1.073,1.669l0.383,0.17
		c0.539,0.437-0.036,1.37,2.107,1.397c0,0-0.307,0.696-1.581,0.469c0.276,0.598,0.548,1.205,0.815,1.794c0,0,0.445,0.736,1.43,0.397
		c0.984-0.322,1.443-2.241,1.381-0.857c-0.054,1.384-0.419,3.093-0.477,4.111c-0.062,1.022-0.013,2.129,0.134,2.843
		c0.156,0.719,0.735,1.866,0.534,2.812c-0.205,0.964,0.583,2.473,0.548,3.254c-0.018,0.79-0.356,3.379,0.744,3.33
		c1.091-0.031,1.314-0.754,1.314-0.754l0.641-0.513c0.267-0.21,0.886-0.277,1.078-0.889c0.196-0.607,0.044-0.571,0.236-1.187
		c0.178-0.634,0.543-0.473,0.726-1.102c0.183-0.625-0.004-1.134,0.143-1.625c0.134-0.513,0.058-1.665,0.828-1.5
		c0.762,0.161,1.563-0.33,1.764-0.83c0.209-0.487,0.788-0.629,1.136-0.96l1.131-0.701l0.659-0.527l0.601-0.482h0.699
		c0.931,2.285,1.786,4.597,2.579,6.932c2.481-2.294,4.779-4.829,6.85-7.592c-0.316-0.804-0.61-1.607-0.926-2.41L306.32,160.877z
		 M206.742,123.193c-0.61,0.027-1.1,0.036-1.496,0.054c-0.102,0.705-0.196,1.41-0.272,2.116
		C206.698,124.394,208.577,123.113,206.742,123.193z M176.69,85.653c0.018-0.014-3.095,2.294-1.091,2.365
		c2.008,0.058,1.394-0.424,2.659-0.38c0.445,0.014,1.323-0.076,2.307-0.107c0.387-0.763,0.793-1.513,1.198-2.263
		c-1.002-0.21-2.018-0.41-2.503-0.254C178.418,85.269,176.69,85.653,176.69,85.653z M86.892,304.899
		c-24.401-24.535-37.833-57.153-37.833-91.841c0-6.271,0.45-12.475,1.305-18.572l0.494,0.397c0.793,0.576-0.036,0.205,0.677,1.576
		c0.744,1.37,1.327,0.647,2.743,2.437c1.403,1.785,5.122,3.714,5.937,5.74c0.81,1.995,1.002,2.16,0.748,2.973
		c-0.254,0.817-1.073,1.232,0.254,2.04c1.314,0.848,5.318,3.258,6.435,3.361c1.113,0.152,3.224,0.553,3.224,0.553
		c0,0.013,4.574,1.883,6.435,2.432c1.844,0.571,1.194,0.54,3.086,0.857c1.893,0.33,4.667,1.241,4.837,0.759
		c0.174-0.486,1.038-0.982,2.245-0.763c1.216,0.255,4.378,1.901,5.059,2.08l0.837,0.232c0.828,0.232,2.066,0.536,3.291,0.759
		c0.962,0.17,1.902,0.29,2.614,0.303c2.022,0.041,1.345,0.228,3.358,0.25c0.499,0.013,0.815,0.053,1.024,0.107l0.299,0.134
		c0.267,0.192,0.24,0.433,1.02,0.589c0.931,0.192,2.058,0.406,2.806,0.531l0.539,0.085l0.169,0.018l0.156,0.04l0.356-0.067
		l-0.062-0.018c0.722,0.058,1.51,0.473,1.421,1.071c-0.107,0.692,1.363,1.04,1.256,0.022c-0.067-0.536-0.289-0.621-0.392-0.683
		l-0.018-0.089l0.196-0.169l0.232,0.036c0.86,0.107,1.768,0.165,1.51,0.013l-0.111-0.603v-0.634c0.49-0.161,1.238-0.317,1.381,0.178
		c0.174,0.611,0.04,1.303-0.036,1.66c-0.067,0.352,0.615,0.647,0.668,1.133c0.04,0.433-0.864,4.834-0.904,5.187
		c-0.04,0.303-0.294,1.87-1.265,2.365c-0.962,0.505-1.287,0.505-1.349,1.375c-0.04,0.884,0.329,0.562-0.04,0.884l-0.134,0.13
		l-1.02,1.2c-0.329,0.08-1.082,0.125-0.975,1.415c0.102,1.29-0.432,1.696-0.641,2.008c-0.214,0.321-0.477,0.576-0.539,1.857
		c-0.067,1.29-0.281,2.812,0.61,2.183c0.909-0.62,0.085,0.915-0.076,1.486l-0.517,0.643c-0.281,0.433-0.597,1.317-0.784,3.714
		c-0.054,0.544-0.828,2.044,0.102,2.174c0.935,0.143,1.461,0.625,1.946,2.339c0.49,1.714,1.024,3.388,1.096,5.374
		c0.049,1.986,1.274,3.553,1.666,4.597c0.378,1.035,0.619,2.111,0.619,2.111c0.013,0,0.12,1.674,1.55,2.982
		c1.452,1.33,2.454,2.223,3.376,2.812c0.922,0.58,2.832,0.299,3.451,1.45c0.615,1.147,1.421,2.741,1.995,2.946l0.334,0.236
		l0.806,0.723c0.183-0.455,0.815,9.311,0.833,12.444c-0.04,3.182,0.628,12.56,0.65,12.52c-0.009,0.013,1.073,4.82,0.267,4.164
		c-0.815-0.647,0.423,1.562,0.646,2.482c0.223,0.924,0.419,0.835,0.463,2.642c0.053,1.808,0.325,4.463,0.365,5.32
		c0.022,0.897-0.013,4.901-0.004,4.883c0,0-1.39-0.245-0.437,1.254c0.949,1.491,2.686,2.325,2.641,3.366
		c-0.053,1.031-1.283,1.937-0.325,2.955c0.935,1.013,0.53,2.276,1.211,2.285c0.695,0.005-0.053,0.714,0.325,1.87
		c0.374,1.134,0.797,1.558,1.158,1.267c0.379-0.29-0.08-1.174-0.236-2.04c-0.151-0.835-0.196-1.714,0.316-1.482
		c0.508,0.254,0.971,1.415,0.984,1.718c0.027,0.308,0.272,1.223,0.526,2.089c0.143,0.491,0.196,1.004,0.214,1.37
		C116.473,328.728,100.444,318.512,86.892,304.899z M279.817,233.526c-2.013-4.539-2.013-9.426-0.151-14.171
		c-3.229,0.643-6.507,1.102-9.793,1.392c-2.694,0.237-5.429,0.357-8.106,0.357c-13.147,0-26.009-2.87-37.882-8.346l-0.116,0.634
		c-0.022,0.62-0.036,0.745-0.067,1.495c-0.04,0.754,0,0-0.356,1.098c-0.361,1.111,0,0-0.191,0.866
		c-0.201,0.87,0.975,1.576,0.975,1.576l0.062,0.098l0.499,0.674c0.566,0.79,1.911,0.495,1.911,0.495
		c-0.361,0.723,0.428,1.236,0.859,1.437l0.258,0.121c0,0,0.539,1.018,1.105,1.419c0.566,0.397,0.419,0.643,1.265,1.29
		c0.521,0.415,0.855,1.08,1.047,1.54l0.174,0.482l-0.053,1.464c-0.018,0.366,0.971,1.013,1.381,1.383
		c0.419,0.384,0.699,0.513,1.67,1.031l0.548,0.37c0.441,0.375,0.53,0.746,0.949,1.12c0.552,0.509,2.966,2.352,2.966,2.352
		s1.47,0.853,2.521,1.696c1.051,0.844,1.447,0.37,1.447,0.37l0.343-0.04l1.131-0.17l1.715-0.674c0.392,0.009,0.931-0.558,2.338-0.54
		c1.394,0.027,1.773,0.04,2.895,0.054c1.122,0.022,0.494,0.348,1.229,0.705c0.432,0.214,0.873,0.174,1.154,0.12l0.33-0.094
		c0.414-0.152,0.828-0.29,1.238-0.442l1.332-0.433c0.374-0.219,1.1-0.665,1.697-0.661c0.592,0.013,0.726-0.554,1.43-0.54
		c0.708,0.014,0.721-0.66,0.721-0.66l0.392-0.063c0.481-0.067,1.256-0.174,1.71-0.241h0.089c0.677-0.089,1.456,0.022,2.338,0.04
		c0.922,0.022,0.802,0.46,2.044,1.37c1.238,0.906,0.223,0.893,0.093,1.897c-0.125,0.995,0.329,0.884,1.122,0.897
		c0.797,0,1.586-0.437,2.258-0.429c0.677,0,2.231-0.652,2.231-0.652l0.022,0.027l0.753,1.089c0,0,0.552,0.442,1.305,1.759
		c0.548,0.942,0.312,1.491,0.045,1.964l-0.285,0.567c-0.156,0.424-0.356,1.112-0.481,1.714l-0.102,0.803
		c-0.009,0.656-0.797,1.201-1.042,2.857c-0.214,1.384,1.683,3.843,3.407,5.566l0.958,0.897c0.436,0.384,0.73,0.83,0.953,1.29
		c0.28,0.576,0.432,1.196,0.534,1.816c0.174,1.053,0.223,2.12,0.53,2.986c0.655,1.79,1.773,2,1.096,2.013
		c-0.668,0-0.254,2.714,0.414,3.16c0.664,0.451,0.877,3.187-0.53,5.298c-1.198,1.807-2.485,6.106-3.019,8.869
		c-0.089,0.446-0.156,0.839-0.196,1.187c-0.325,2.374,4.258,10.685,4.293,10.748c0,0,0.098,0.491,0.236,1.254
		c-3.625,4.838-7.607,9.449-11.949,13.818c-24.379,24.512-56.815,38.018-91.303,38.018c-10.074,0-19.965-1.156-29.545-3.405
		l0.53-0.259c0.761-0.21,0.935,0.33,0.984-0.955c0.058-1.316-0.721-1.2-1.786-1.08c-1.06,0.121-2.031,0.049-2.521-0.79
		c-0.49-0.839-0.191-1.745,1.193-2.018c1.394-0.268,1.71-1.12,1.71-1.473c0.009-0.353-1.292-0.366,0.027-1.29
		c1.323-0.937,2.432-1.219,1.332-1.549c-1.1-0.33-2.926-0.071-3.024-0.696c-0.094-0.594-2.757-1.821-0.294-1.937
		c2.467-0.125,3.362,0.714,4.088-0.067c0.73-0.794,1.251-0.933,0.548-1.754c-0.686-0.812-2.334-2.102-1.296-2.209
		c1.06-0.062,6.057-0.049,7.5-1.629c1.456-1.553,1.679-2.285,1.724-3.347c0.036-1.054-0.579-0.71-1.358-1.683
		c-0.779-0.986,1.768-1.486,0.147-1.924c-1.608-0.447-3.073-0.303-3.158-1.049l0.236-0.424c0.383-0.089,1.207,0.103,2.552,0.134
		c2.044,0.036,2.205,1.196,4.022,0.397c1.799-0.808,2.77-0.875,3.465-1.897l0.053-0.08c0.686-1.085,1.314-3.928,1.523-5.245
		c0.223-1.352,1.104-3.089,1.104-3.089s0.73,0.366,0.245,1.58c-0.494,1.196,0.37,0.12,1.136-1.79
		c0.757-1.897,0.592-2.441,1.853-3.665c1.242-1.223,1.403-1.513,0.73-2.856c-0.69-1.326-2.022-2.562-1.046-3.723
		c0.993-1.169,2.507-3.321,3.162-4.03c0.673-0.732,2.77-3.022,3.683-2.884c0.989,0.125,2.899,0.054,2.939-0.21
		c0.053-0.272-0.539-1.294,0.276-1.343c0.788-0.054,0.815-0.661,0.815-0.661c0.08-0.786,0.156-1.562,0.218-2.339
		c0.013-0.009,0.57-1.455,0.543-2.129c-0.031-0.674,0-1.353-0.044-2.276c-0.036-0.937,0.396-0.732,0.392-1.982
		c0.005-1.245-0.196-6.231-0.307-8.043c-0.107-1.816,0.468-0.571,0.628-0.116c0.169,0.464-0.053-0.272,0.258-1.339
		c0.294-1.053,0.134-1.424,0.281-1.901c0.16-0.473,0.454-0.643,0.895-1.138c0.432-0.505,0.771-1.121,0.691-2.941
		c-0.08-1.812-0.183-2.781-0.441-3.99c-0.249-1.232,0.33-1.593-0.294-2.075c-0.659-0.473-0.463,0.317-1.438-1.263
		c-1.02-1.598-1.577-2.611-1.879-3.071c-0.307-0.473-1.394-2.343-1.977-2.682c-0.575-0.339-0.846-0.446-1.505-0.723
		c-0.672-0.281-1.265-0.197-1.799-0.701c-0.53-0.487-1.599-1.946-2.948-0.911l-0.481,0.402c0.005-0.473,0.013-1.214-0.053-1.714
		c-0.094-0.79-0.16-0.817-1.577-1.843c-1.43-1.009-2.32-1.687-3.091-2.102c-0.784-0.424-1.496-0.304-1.875,0.062l-0.485,0.438
		c0.272-0.294,0.49-0.701,0.316-1.152c-0.356-0.902-1.024-0.977-1.639-1.107c-0.597-0.13-2.022-0.576-2.022-0.576
		s-0.962-0.924,0.053-1.08c1.002-0.152,1.149-0.268,0.98-1.004c-0.182-0.745,0.241-0.103-1.06-1.062
		c-1.3-0.951-0.806-1.049-1.162-1.852c-0.352-0.803-1.114-2.071-1.114-2.071l-0.646-0.424l-0.272-0.178
		c0-0.022-3.126-2.093-3.893-2.187l-0.289-0.058c-0.757-0.192-1.795-0.652-2.85-0.795c-1.202-0.16-2.075-0.268-2.075-0.268
		l-0.151-0.125c-0.423-0.335-1.581-1.228-2.142-1.236c-0.69-0.058-1.247-2.017-2.494-2.062l-0.116-0.009
		c-1.216-0.12-2.369-0.576-2.369-0.576s1.505-0.344,1.02-0.652c-0.481-0.299-0.575-0.103-1.612-0.495
		c-1.051-0.397-2.69-0.87-1.327-0.741c1.358,0.134,1.051-0.009,1.051-0.009c-1.167-0.192-2.325-0.397-3.478-0.585
		c0-0.009-0.877,0.424-1.541,0.464c-0.655,0.018-1.024-0.602-2.133-0.701c-1.109-0.094-1.265,0.187-2.302,0.098
		c-1.033-0.076-0.811-0.585-0.811-0.585s-0.134-0.433-0.673-0.482c-0.552-0.058-1.87-0.174-2.418-0.227
		c-0.543-0.067-2.788,0.446-2.249,1.116c0.539,0.634,0.935,1.335,0.138,1.303c-0.793-0.027-1.625-0.223-1.367-0.902
		c0.272-0.687,1.568-1.035,1.22-1.486l-0.205-0.455l0.414-0.178c0.508-0.089,1.104-0.192,1.104-0.192
		c0-0.009,0.837-0.326-0.289-0.335c-1.113-0.005-1.113-0.005-1.67,0.205c-0.552,0.219-0.949,0.478-1.724,0.415
		c-0.784-0.071-1.073,0.112-1.229,0.362l-0.583,0.389c0,0,0.04-0.964-0.508-0.692c-0.561,0.281-1.879,0.25-2.053,0.884
		c-0.169,0.634-0.414,1.598-0.414,1.598s-2.169,0.098-2.392,1.169c-0.227,1.049-1.568,1.816-1.563,1.826
		c-0.005-0.036,2.049-2.062,0.855-2.74c-1.198-0.71-0.909-0.991-2.12-0.92l-0.784,0.214l-0.766-0.607
		c-0.486-0.362-0.984-0.656-0.984-0.656s-0.851-0.415-3.389-0.491l-0.628-0.433c-0.343-0.014-0.343-0.286-0.998-0.304
		c-0.619-0.027-1.536-0.388-1.706-0.196l0.076,1.022c-0.926,0.089-1.314,0.178-2.026,0l-0.468-0.085
		c-0.868-0.08-1.755,0.143-1.599-0.08l0.214-0.21c0.873-0.647,0.717-0.08,1.158-1c0.459-0.959-0.116-0.723,0.597-1.749
		c0.352-0.5,0.575-0.696,0.65-0.884c0.085-0.21,0.004-0.406-0.205-1.053c-0.419-1.263-0.152-1.58,0.379-2.2
		c0.53-0.598,2.009-1.893-1.131-2c-3.14-0.107-7.838-0.357-7.326,1.218c0.512,1.549,0.45,2.267-0.49,2.754
		c-0.957,0.464-1.26,0.817-0.9,1.107c0.352,0.29,0.294,0.897-1.162,0.161c-1.465-0.75-2.16,0.397-4.4,0.29
		c-2.254-0.089-1.421-1.093-3.002-1.174c-1.572-0.089-1.162,0.094-2.334-0.986c-1.162-1.12-2.855-1.656-3.594-3.504
		c-0.757-1.839-0.882-4.932-1.194-6.922c-0.321-1.973,0.628-1.937,0.535-2.741l-0.027-0.723c0-0.745,0.071-1.647-0.031-2.522
		c-0.151-1.183-0.37-2.187,2.049-2.839c2.432-0.665,1.715,0.094,2.815-1.321c1.104-1.428-1.581-1.901,2.436-1.727
		c4.039,0.17,3.554,0.147,5.077,0.21c1.532,0.053,2.196-0.736,3.207,0.116c1.002,0.848,1.777,1.803,3.073,0.919
		c1.291-0.875,0.882-2.191,0.882-2.191s-1.532-1.834,3.305-0.75c4.828,1.094,4.587-1.678,5.821,0.156
		c1.225,1.826,1.844,2.772,2.962,1.973c1.113-0.799,0.984-2.477,2.173-0.906c1.198,1.576,3.367,2.076,3.042,2.995
		c-0.321,0.915-0.174,1.044,0.098,2.62c0.276,1.575,0.437,3.204,1.643,4.794c1.194,1.598,2.053,3.7,3.5,1.611
		c1.492-2.152,1.465-0.862,1.194-4.307c-0.249-3.49-0.958-6.499-0.984-6.847c-0.005-0.348-2.022-3.959,2.378-6.833
		c4.422-2.865,4.841-3.798,7.184-4.695c2.347-0.893,2.218-0.111,3.598-1.544c1.376-1.459,1.234-2.263,2.075-2.263
		c0.842,0.004,0.561-0.804,1.269-0.804c0.699,0.005,1.817-0.665,1.817-0.665v-1.754h-1.839c0.802-0.361,1.599-0.727,2.4-1.085
		c-0.093-0.549-0.191-1.098-0.289-1.651c0,0-2.267-0.134-1.692-0.268c0.566-0.143,2.405-0.549,2.405-1.513
		c0-0.973-0.009-3.624-0.009-3.624s0.721-5.776,0.864-1.129c0.138,4.633-0.713,6.267,1.416,3.638
		c2.151-2.651,1.723-4.057,1.723-4.057c0.477,0.188,0.953,0.371,1.425,0.558c0,0.009,3.456-3.245,3.603-4.954
		c0.147-1.709-0.281-1.424,2.735-1.857c3.006-0.428,4.445-1.576,5.58-1.58c0.864,0,2.218-0.009,2.832-0.013
		c-0.432-0.076-0.971-0.58,0.486-3.147c2.022-3.593,3.015-4.459,5.006-4.892c1.986-0.428,2.561-2.013,4.253-2.013
		c0.534,0,1.069,0.022,1.541,0.049h0.512c-0.588-3.7-0.962-7.387-1.113-11.082c-0.512,0.437-1.064,0.915-1.595,1.37
		c-0.913,0.777-1.768,1.513-2.325,1.852l-0.445,0.21c-0.98,0.134-1.563-0.879-1.563-0.879s0.989-0.853,2.538-1.553
		c1.403-0.656,1.995-1.767,3.354-2.486c-0.338-13.546,2.334-26.896,7.838-39.268c-1.635,0.237-2.788,0.683-3.639,0.259
		c-0.971-0.478-4.102-1.808-4.382,0.571c-0.294,2.424-1.782,2.294-1.688,3.365c0.08,1.071,0.298,2.053-1.042,2.017
		c-1.34-0.027-5.162,1.616-3.153,3.539c2.008,1.915,2.164,2.044,1.683,3.446c-0.472,1.41-1.893,5.035-11.388,6.856
		c0.004-0.009-1.18,3.638-1.02,5.298c0.178,1.66-0.102,1.799-1.657,2.62c-1.55,0.826-1.256,1.946-2.824,1.946
		c-1.559,0-2.129,0.835-2.423-0.986c-0.298-1.808-1.149-0.419-0.73-2.361c0.41-1.933-0.998-1.388,1.247-3.031
		c2.245-1.624,0.143-0.942,1.666-2.566c1.528-1.616,1.79-2.549,1.096-2.549c-0.704-0.013-6.885-0.428-6.885-0.428
		s-0.713-1.852-2.944-1.852c-2.245-0.004-3.625-3.272-6.395-3.254c-2.775,0.013-5.148,0.429-5.148,0.429
		c0.004-0.009,2.271-2.218,2.298-3.718c0.036-1.517-3.126-1.241-3.126-1.241c0.045-0.125,8.595-9.739,15.984-9.569
		c1.211-0.004,4.218-1.772,1.568-1.888c-2.659-0.125,1.839-0.656,3.296-0.75c1.443-0.103,0.904-0.321,2.877-0.308
		c1.973,0.022-1.011,0.638,2.614-0.402c3.612-1.04,4.24-1.12,4.204-1.643c-0.045-0.518-2.147-0.094-3.403-0.621
		c7.562-1.361,15.294-2.071,23.141-2.071c1.563,0,3.113,0.04,4.676,0.103c0.944-1.629,1.928-3.245,2.971-4.82
		c0.9-1.348,1.826-2.665,2.792-3.954c-0.98-0.076-1.955-0.143-2.939-0.205l-0.191-0.014c-1.056-0.058-2.124-0.094-3.18-0.12
		l-0.486-0.022c-1.211-0.027-2.423-0.054-3.643-0.054c-4.048,0-8.061,0.192-12.016,0.536l-0.098,0.009
		c-5.812,0.504-11.512,1.375-17.097,2.58l-0.076,0.027c-5.589,1.201-11.036,2.754-16.345,4.619l-0.098,0.031
		c-5.291,1.866-10.43,4.039-15.4,6.512l-0.16,0.085c-4.948,2.459-9.731,5.213-14.323,8.239l-0.196,0.134
		c-4.565,3.008-8.947,6.293-13.125,9.828l-0.223,0.192c-2.77,2.352-5.456,4.811-8.03,7.378l-0.027,0.031
		c-1.274,1.259-2.516,2.549-3.732,3.856l-0.24,0.263c-2.463,2.656-4.819,5.419-7.072,8.253l-0.04,0.049
		c-1.104,1.406-2.178,2.83-3.233,4.276l-0.232,0.308c-2.129,2.946-4.142,5.963-6.048,9.074l-0.04,0.049
		c-0.926,1.526-1.835,3.089-2.703,4.642l-0.196,0.353c-1.777,3.191-3.429,6.467-4.952,9.801l-0.013,0.049
		c-0.748,1.647-1.47,3.307-2.164,4.99l-0.143,0.357c-1.389,3.423-2.645,6.923-3.772,10.471v0.018
		c-0.552,1.749-1.064,3.513-1.545,5.289l-0.107,0.384C41.657,188.358,40,200.511,40,213.058C40,289.791,101.869,352,178.204,352
		c43.565,0,82.418-20.272,107.75-51.944l0.049-0.067c0.601-0.745,1.193-1.5,1.772-2.263l0.049-0.053
		c4.129-5.405,7.874-11.118,11.183-17.099l0.178-0.312c0.414-0.75,0.815-1.504,1.225-2.263l0.245-0.478
		c0.383-0.736,0.757-1.473,1.136-2.223l0.258-0.518c0.37-0.759,0.73-1.5,1.091-2.249l0.196-0.438
		c0.423-0.893,0.797-1.803,1.198-2.705l-16.207-27.016C284.467,240.44,281.518,237.409,279.817,233.526z M207.455,120.609
		c0.258-1.736,0.566-2.517,0.129-3.191c-0.209-0.321-0.677-0.317-1.109-0.41c-0.45,1.768-0.824,3.539-1.104,5.329
		C206.787,122.158,207.272,121.801,207.455,120.609z M217.213,108.143c0.441,0.272,0.53,0.067,1.136-0.036
		c0.601-0.094,0.561-0.107,1.34-0.076c0.784,0.022,0.762-1.134,1.007-1.259c0,0,0.249,0.272-0.018-0.183
		c-0.272-0.442-0.494-0.576,0.53-0.366c1.024,0.201,0.236-0.428,0.049-0.638c-0.183-0.205-0.374-0.116-1.046-0.254
		c-0.673-0.143-0.739,0.629-0.739,0.629l-0.668-0.272c-0.343-0.37-0.57-0.161-0.944,0.469c-0.37,0.616-0.049,0.419,0.33,0.504
		l-0.548,0.272l-0.873,0.625C216.647,107.849,216.767,107.867,217.213,108.143z"/>
</g>
</svg>
