<?xml version="1.0" encoding="utf-8"?>
<!-- Generator: Adobe Illustrator 19.1.0, SVG Export Plug-In . SVG Version: 6.00 Build 0)  -->
<svg version="1.1" id="Layer_1" xmlns="http://www.w3.org/2000/svg" xmlns:xlink="http://www.w3.org/1999/xlink" x="0px" y="0px"
	 width="400px" height="400px" viewBox="0 0 400 400" enable-background="new 0 0 400 400" xml:space="preserve">
<g>
	<path fill-rule="evenodd" clip-rule="evenodd" fill="#333333" d="M50.417,70.034c5.523,0,10,4.478,10,10v240
		c0,5.523-4.477,10-10,10l0,0c-5.523,0-10-4.477-10-10v-240C40.417,74.511,44.894,70.034,50.417,70.034L50.417,70.034z"/>
	<path fill-rule="evenodd" clip-rule="evenodd" fill="#333333" d="M350.104,150.034c5.523,0,10,4.478,10,10v160
		c0,5.523-4.477,10-10,10l0,0c-5.522,0-10-4.477-10-10v-160C340.104,154.511,344.582,150.034,350.104,150.034L350.104,150.034z"/>
	<path fill-rule="evenodd" clip-rule="evenodd" fill="#333333" d="M360.657,80.034c0,5.523-4.478,10-10,10h-300
		c-5.523,0-10-4.477-10-10l0,0c0-5.523,4.477-10,10-10h300C356.18,70.034,360.657,74.511,360.657,80.034L360.657,80.034z"/>
	<path fill-rule="evenodd" clip-rule="evenodd" fill="#333333" d="M360.657,319.87c0,5.523-4.478,10-10,10h-300
		c-5.523,0-10-4.477-10-10l0,0c0-5.523,4.477-10,10-10h300C356.18,309.87,360.657,314.347,360.657,319.87L360.657,319.87z"/>
	<path fill-rule="evenodd" clip-rule="evenodd" fill="#333333" d="M357.458,72.963c3.904,3.905,4.005,10.136,0.225,13.915
		L207.106,237.456c-3.78,3.78-10.01,3.678-13.915-0.227l0,0c-3.906-3.905-4.008-10.134-0.227-13.915L343.542,72.735
		C347.321,68.957,353.553,69.057,357.458,72.963L357.458,72.963z"/>
	<path fill-rule="evenodd" clip-rule="evenodd" fill="#333333" d="M207.301,237.106c-3.94,3.94-10.331,3.939-14.27-0.002
		l-99.873-99.872c-3.942-3.941-3.94-10.327,0-14.268l0,0c3.938-3.941,10.326-3.941,14.267,0l99.874,99.873
		C211.24,226.778,211.24,233.165,207.301,237.106L207.301,237.106z"/>
</g>
</svg>
