<?xml version="1.0" encoding="utf-8"?>
<!-- Generator: Adobe Illustrator 19.1.0, SVG Export Plug-In . SVG Version: 6.00 Build 0)  -->
<svg version="1.1" id="Layer_1" xmlns="http://www.w3.org/2000/svg" xmlns:xlink="http://www.w3.org/1999/xlink" x="0px" y="0px"
	 width="400px" height="400px" viewBox="0 0 400 400" enable-background="new 0 0 400 400" xml:space="preserve">
<g id="Layer_x25_20185">
	<path fill="#333333" d="M147.108,200.085l-20.78-52.725h15.713l9.834,29.841c0.842,2.604,1.415,5.665,1.725,9.204h0.281
		c0.342-3.254,1.004-6.316,2.008-9.204l9.642-29.841h15.382l-22.145,60.088c-2.027,5.553-4.926,9.733-8.689,12.53
		c-3.773,2.787-8.167,4.19-13.194,4.19c-2.469,0-4.897-0.274-7.265-0.813v-11.523c1.706,0.407,3.582,0.62,5.608,0.62
		c2.529,0,4.736-0.803,6.622-2.41c1.887-1.607,3.352-4.038,4.415-7.283L147.108,200.085z M222.873,200.461
		c-2.87,0.61-6.371,0.925-10.495,0.925c-8.509,0-15.161-2.339-19.957-7.028c-4.796-4.678-7.184-11.32-7.184-19.914
		c0-8.828,2.207-15.663,6.642-20.494c4.425-4.821,10.546-7.241,18.362-7.241c7.465,0,13.275,2.146,17.44,6.428
		c4.154,4.292,6.24,10.211,6.24,17.768v7.048h-34.146c0.162,3.885,1.376,6.926,3.652,9.102c2.268,2.177,5.459,3.265,9.573,3.265
		c3.191,0,6.2-0.305,9.05-0.936c2.84-0.63,5.809-1.627,8.911-3.01v11.249C228.432,198.895,225.743,199.84,222.873,200.461z
		 M361,176.237C361,111.944,289.167,60,200.499,60C111.83,60,40,112.125,40,176.237c0,36.869,23.645,69.742,60.545,90.992
		c-8.419,30.33-21.316,41.228-32.602,54.123c-2.686,3.269-5.732,5.993-4.836,10.534v0.182c0.896,4.359,4.658,7.265,8.598,6.902
		c6.987-0.908,13.972-2.18,20.421-3.996c30.989-7.992,58.933-22.884,82.399-43.952c8.419,0.908,17.196,1.453,25.974,1.453
		C289.167,292.474,361,240.531,361,176.237z M281.169,178.248c0.923,1.871,1.385,4.089,1.385,6.672c0,5.37-1.887,9.449-5.659,12.256
		c-3.773,2.807-9.422,4.21-16.938,4.21c-3.852,0-7.143-0.265-9.852-0.773c-2.72-0.509-5.258-1.261-7.626-2.258v-11.859
		c2.689,1.271,5.729,2.339,9.101,3.193c3.372,0.854,6.35,1.282,8.92,1.282c5.257,0,7.896-1.495,7.896-4.485
		c0-1.119-0.351-2.024-1.044-2.726c-0.702-0.702-1.906-1.496-3.612-2.39c-1.716-0.885-4.003-1.922-6.853-3.113
		c-4.094-1.678-7.094-3.234-9.011-4.668c-1.916-1.424-3.311-3.072-4.184-4.923c-0.873-1.851-1.304-4.14-1.304-6.855
		c0-4.8,1.816-8.523,5.468-11.157c3.642-2.624,8.809-3.946,15.512-3.946c6.371,0,12.572,1.445,18.613,4.312l-4.375,10.669
		c-2.669-1.139-5.157-2.085-7.465-2.817c-2.308-0.732-4.666-1.098-7.073-1.098c-4.285,0-6.422,1.139-6.422,3.417
		c0,1.282,0.683,2.38,2.068,3.316c1.374,0.936,4.395,2.329,9.06,4.16c4.145,1.648,7.185,3.193,9.121,4.628
		C278.822,174.73,280.247,176.377,281.169,178.248z M217.665,160.013c-1.806-1.923-4.254-2.889-7.324-2.889
		c-3.081,0-5.489,0.966-7.235,2.889c-1.746,1.922-2.749,4.648-3,8.177h20.368C220.414,164.66,219.472,161.935,217.665,160.013z"/>
</g>
</svg>
