<svg id="Layer_1" data-name="Layer 1" xmlns="http://www.w3.org/2000/svg" viewBox="0 0 400 400"><defs><style>.cls-1{fill:#323232;}</style></defs><title>icon</title><path class="cls-1" d="M357.07,330.8,300.5,274.23a10.28,10.28,0,0,0-14.31-.13l-39.62,39.62H60.77V174h185.8l39.62,39.62.16.14h0a10,10,0,0,0,14.14,0l56.57-56.57a10,10,0,0,0-14.14-14.14l-49.5,49.5L258.55,157.7a10,10,0,0,0-7.76-3.7h-200a10,10,0,0,0-10,10V323c0,.19,0,.38,0,.57s0,.1,0,.15a10,10,0,0,0,10,10h200a10,10,0,0,0,7.76-3.7l34.73-34.73,49.65,49.65a10,10,0,0,0,14.14-14.14Z"/><path class="cls-1" d="M99.95,129.82A44.83,44.83,0,1,0,55.05,85.07,44.93,44.93,0,0,0,99.95,129.82ZM99.28,60a25,25,0,1,1-25,24.87A25,25,0,0,1,99.28,60Z"/><path class="cls-1" d="M215.95,129.82a44.83,44.83,0,1,0-44.89-44.75A44.93,44.93,0,0,0,215.95,129.82ZM215.28,60a25,25,0,1,1-25,24.87A25,25,0,0,1,215.28,60Z"/></svg>