<?xml version="1.0" encoding="utf-8"?>
<!-- Generator: Adobe Illustrator 19.1.0, SVG Export Plug-In . SVG Version: 6.00 Build 0)  -->
<svg version="1.1" id="Layer_1" xmlns="http://www.w3.org/2000/svg" xmlns:xlink="http://www.w3.org/1999/xlink" x="0px" y="0px"
	 width="400px" height="400px" viewBox="0 0 400 400" enable-background="new 0 0 400 400" xml:space="preserve">
<g id="Layer_x25_20150">
	<path fill="#333333" d="M201.893,204.824c43.475-0.712,78.505-36.154,78.505-79.8c0-44.091-35.744-79.834-79.834-79.834
		c-44.092,0-79.834,35.742-79.834,79.834c0,43.52,34.828,78.88,78.129,79.79c-76.799,0.614-138.869,63.05-138.869,139.997h0.057
		c0,5.523,4.479,10,10,10c5.523,0,10-4.477,10-10c0-0.309-0.018-0.611-0.045-0.912c0.386-51.848,33.646-95.864,79.969-112.252
		c0.459,1.542,1.296,2.996,2.514,4.214l7.02,7.019l-23.283,23.283c-1.714,1.714-2.674,3.896-2.884,6.135
		c-0.405,2.988,0.53,6.124,2.827,8.42l46.305,41.306c1.958,1.957,4.525,2.933,7.091,2.928c2.565,0.005,5.132-0.971,7.089-2.928
		l46.307-41.306c2.744-2.744,3.551-6.684,2.438-10.141c-0.443-1.616-1.293-3.145-2.562-4.414l-23.283-23.283l7.02-7.019
		c1.297-1.298,2.154-2.866,2.589-4.521c47.054,16.234,80.856,60.902,80.856,113.471c0,5.523,4.477,10,10,10c5.522,0,10-4.477,10-10
		C340.011,268.115,278.345,205.838,201.893,204.824z M140.683,125.023c0-33.071,26.811-59.88,59.881-59.88
		c33.07,0,59.881,26.809,59.881,59.88c0,33.072-26.811,59.881-59.881,59.881C167.493,184.904,140.683,158.095,140.683,125.023z
		 M208.401,235.74c-1.969,1.97-2.943,4.558-2.925,7.14c-0.019,2.583,0.956,5.17,2.925,7.141l23.088,23.088l-31.931,28.483
		l-31.967-28.516l23.056-23.056c1.969-1.971,2.943-4.558,2.925-7.141c0.019-2.582-0.956-5.169-2.925-7.14l-9.467-9.467
		c6.131-0.966,12.416-1.473,18.818-1.473c6.118,0,12.127,0.461,17.998,1.344L208.401,235.74z"/>
</g>
</svg>
