<svg id="Layer_1" data-name="Layer 1" xmlns="http://www.w3.org/2000/svg" viewBox="0 0 400 400"><defs><style>.cls-1{fill:#333;}</style></defs><title>icon</title><g id="Layer_20181" data-name="Layer%20181"><path class="cls-1" d="M279.51,122.85H104.89V147H279.51V122.85Z"/><path class="cls-1" d="M104.89,231.44v24.14h113a81.13,81.13,0,0,1,0-24.14h-113Z"/><path class="cls-1" d="M246.44,177.15H104.89v24.15H227.53A89.64,89.64,0,0,1,246.44,177.15Z"/><path class="cls-1" d="M282.43,191.71v58.42c0,16.54,12.12,30,27.05,30s27-13.41,27-30V191.71c0-16.53-12.1-29.95-27-29.95S282.43,175.18,282.43,191.71Z"/><path class="cls-1" d="M344.26,231.39h0v18.74c0,20.78-15.6,37.68-34.78,37.68s-34.78-16.9-34.78-37.68V231.39H259.25v18.74c0,26.6,18.6,48.64,42.75,52.48v10.24c-13.89,1.57-24.24,7.33-24.24,14.27,0,8.14,63.46,8.14,63.46,0,0-6.93-10.35-12.71-24.24-14.27V302.61c24.15-3.84,42.75-25.88,42.75-52.48V231.39H344.26Z"/><path class="cls-1" d="M248.69,297.42H64.45V90.93H320v63.51a79.08,79.08,0,0,1,24.14,8.13V87.2A20.42,20.42,0,0,0,323.7,66.78h-263a20.56,20.56,0,0,0-4.12.41,18.66,18.66,0,0,0-2.11.67,15.91,15.91,0,0,0-1.72.52c-0.52.23-1,.56-1.49,0.83a18.39,18.39,0,0,0-2,1.06c-0.08.06-.15,0.15-0.25,0.21a20.33,20.33,0,0,0-8.73,16.7v214a20.43,20.43,0,0,0,20.4,20.41h199S250.19,317.29,248.69,297.42Z"/></g></svg>