<?xml version="1.0" encoding="utf-8"?>
<!-- Generator: Adobe Illustrator 19.1.0, SVG Export Plug-In . SVG Version: 6.00 Build 0)  -->
<svg version="1.1" id="Layer_1" xmlns="http://www.w3.org/2000/svg" xmlns:xlink="http://www.w3.org/1999/xlink" x="0px" y="0px"
	 width="400px" height="400px" viewBox="0 0 400 400" enable-background="new 0 0 400 400" xml:space="preserve">
<g id="Layer_x25_20180">
	<path fill="#333333" d="M348.103,100.235h-6.427c-3.259-0.604-6.758-0.765-10.504-0.567c-16.528,0.873-33.136,0.217-51.149,0.217
		c0-7.068,0.253-13.18-0.053-19.263c-0.634-12.598-7.95-20.529-20.355-20.626c-39.558-0.312-79.122-0.294-118.681-0.021
		c-13.214,0.091-20.437,7.9-20.929,21.269c-0.211,5.736-0.035,11.487-0.035,18.642c-18.723,0-36.498-0.057-54.272,0.016
		c-2.298,0.01-4.414,0.119-6.366,0.334h-7.435c-6.6,0-12,5.4-12,12v216c0,6.6,5.4,12,12,12h296.206c6.601,0,12-5.4,12-12v-216
		C360.103,105.635,354.704,100.235,348.103,100.235z M140.53,80.724c39.33,0,78.632,0,118.982,0c0,6.506,0,12.188,0,18.511
		c-39.832,0-79.131,0-118.982,0C140.53,92.946,140.53,87.263,140.53,80.724z M332.735,120.803c3.082,1.234,5.537,3.71,6.747,6.803
		c0,30.858,0,61.062,0,92.063c-39.616,0-78.641,0-118.882,0c-1.303,10.506,0.941,23.919-3.952,32.121
		c-3.166,3.571-7.429,6.145-12.263,7.194c-1.686,0.211-3.532,0.303-5.603,0.228c-2.913-0.106-5.37-0.528-7.453-1.21
		c-1.858-0.71-3.599-1.656-5.189-2.8c-8.615-7.199-5.358-22.67-6.698-35.091c-39.561,0-78.86,0-118.75,0v-88.169
		c0-5.038,3.15-9.368,7.575-11.14C156.134,120.803,244.032,120.803,332.735,120.803z M60.78,309.91c0-22.753,0-45.734,0-69.251
		c32.309,0,66.273,0.279,95.369,0.283c2.177,22.021,20.745,39.224,43.335,39.234c1.165,0.057,2.309,0.08,3.412,0.067
		c8.799-0.101,16.238-3.005,22.245-8.414c9.883-7.205,16.614-18.462,17.755-31.333c32.474,0,64.167,0,96.508,0
		c0,24.243,0,48.059,0,72.576c-1.802,4.361-6.103,7.453-11.094,7.453H72.693C66.562,320.526,61.473,315.864,60.78,309.91z"/>
</g>
</svg>
