<?xml version="1.0" encoding="utf-8"?>
<!-- Generator: Adobe Illustrator 19.1.0, SVG Export Plug-In . SVG Version: 6.00 Build 0)  -->
<svg version="1.1" id="Layer_1" xmlns="http://www.w3.org/2000/svg" xmlns:xlink="http://www.w3.org/1999/xlink" x="0px" y="0px"
	 viewBox="0 0 400 400" enable-background="new 0 0 400 400" xml:space="preserve">
<g>
	<path fill="#231F20" d="M377.368,232.178c-2.793-1.574-4.802-1.264-6.494,1.555c-4.633,7.716-9.127,15.519-13.539,23.364
		c-1.424,2.531-0.661,4.811,1.824,6.359c2.415,1.505,4.901,2.902,7.401,4.264c2.192,1.195,3.937,0.913,5.587-0.924
		c0.812-0.904,1.482-1.958,2.101-3.012c3.388-5.767,6.74-11.555,10.104-17.335c0-3.401,0-6.803,0-10.204
		C382.025,234.887,379.715,233.501,377.368,232.178z"/>
	<path fill="#231F20" d="M359.203,224.568c-1.758-0.96-3.516-1.922-5.296-2.84c-8.908-4.594-17.835-9.151-26.733-13.765
		c-13.148-6.818-26.267-13.69-39.416-20.506c-13.215-6.85-26.454-13.652-39.676-20.487c-11.988-6.198-23.97-12.409-35.949-18.623
		c-3.197-1.659-6.376-3.352-9.823-5.167c4.209-7.307,8.169-14.187,12.136-21.063c2.815-4.878,5.648-9.745,8.455-14.627
		c1.196-2.08,1.71-4.263-0.059-6.232c-0.852-0.949-2.062-1.615-3.191-2.27c-8.805-5.101-17.636-10.16-26.448-15.248
		c-9.216-5.321-18.412-10.675-27.634-15.985c-4.746-2.733-9.492-5.473-14.31-8.076c-2.748-1.485-5.406-0.556-6.908,2.064
		c-7.636,13.308-15.27,26.616-22.937,39.905c-8.596,14.899-17.226,29.778-25.841,44.665c-2.236,3.864-1.593,6.174,2.3,8.399
		c8.234,4.706,16.472,9.406,24.688,14.144c14.561,8.398,29.101,16.833,43.663,25.23c3.593,2.072,5.814,1.502,7.905-2.071
		c3.698-6.32,7.318-12.686,10.98-19.027c3.158-5.467,6.329-10.927,9.591-16.555c3.135,1.947,6.084,3.73,8.985,5.589
		c9.217,5.903,18.405,11.851,27.626,17.749c14.031,8.975,28.08,17.922,42.121,26.884c11.307,7.217,22.624,14.417,33.913,21.661
		c12.008,7.705,23.99,15.452,35.981,23.183c3.052,1.968,5.391,1.639,7.258-1.438c3.721-6.13,7.345-12.325,10.833-18.59
		C363.093,228.454,362.224,226.217,359.203,224.568z M172.674,177.868c-3.329,5.588-10.558,7.42-16.146,4.091l-44.68-26.617
		c-5.588-3.329-7.42-10.558-4.091-16.146l38.21-64.139c3.329-5.588,10.558-7.42,16.146-4.091l44.68,26.617
		c5.588,3.329,7.42,10.558,4.091,16.146L172.674,177.868z"/>
	<path fill="#231F20" d="M222.444,320.885c-0.075-4.087-2.537-6.522-6.583-7.143c-1.893-0.291-3.85-0.171-5.78-0.211
		c-1.255-0.026-2.511-0.005-4.244-0.005c2.446-4.393,1.475-8.537,1.604-12.565c0.079-2.472-0.894-4.823-3.122-5.817
		c-2.16-0.964-4.695-1.509-7.067-1.513c-48.391-0.083-96.782-0.064-145.173-0.048c-1.229,0-2.497,0.037-3.679,0.331
		c-2.615,0.651-4.678,2.117-5.196,4.925c-0.874,4.74-0.99,9.482,0.934,14.693c-2.965,0-5.562-0.056-8.156,0.012
		c-5.382,0.14-8.441,3.267-8.451,8.617c-0.017,9.199-0.013,18.398,0.009,27.597c0.002,0.916,0.047,1.873,0.308,2.74
		c1.265,4.208,4.056,6.016,9.257,6.017c58.672,0.008,117.344,0.008,176.016,0c0.845,0,1.699-0.074,2.535-0.202
		c3.983-0.61,6.729-3.237,6.797-7.286C222.623,340.982,222.629,330.93,222.444,320.885z M212.298,340.149
		c-0.299,4.524-3.062,7.404-7.561,7.928c-1.299,0.151-2.622,0.129-3.933,0.129c-25.111,0.007-50.223,0.005-75.334,0.005
		c-25.42,0.001-50.841,0.006-76.262-0.01c-1.384-0.001-2.792-0.036-4.148-0.285c-3.173-0.582-5.568-2.514-6.036-5.62
		c-0.544-3.611-0.704-7.403-0.234-11.013c0.581-4.468,3.683-6.728,8.203-6.927c1.465-0.064,2.936-0.021,4.404-0.021
		c50.3-0.001,100.601-0.001,150.901-0.003c6.949,0,10.035,3.068,10.049,10.024C212.35,336.288,212.425,338.225,212.298,340.149z"/>
	<path fill="#231F20" d="M151.37,51.634c6.446,3.792,12.927,7.524,19.411,11.25c9.887,5.682,19.796,11.324,29.68,17.01
		c9.484,5.456,18.916,11.004,28.461,16.35c1.176,0.659,3.204,0.895,4.331,0.326c2.912-1.472,4.267-4.423,4.845-7.485
		c0.554-2.934-1.896-4.107-3.986-5.311c-6.809-3.923-13.63-7.825-20.436-11.753c-10.409-6.008-20.815-12.022-31.212-18.05
		c-6.733-3.903-13.434-7.863-20.181-11.742c-2.318-1.332-4.733-2.493-7.466-3.922c-1.299,0.961-2.611,1.714-3.629,2.755
		c-0.783,0.8-1.198,1.961-1.772,2.965C147.543,47.298,148.109,49.715,151.37,51.634z"/>
	<path fill="#231F20" d="M83.833,170.221c10.879,6.298,21.758,12.596,32.643,18.881c14.558,8.406,29.121,16.8,43.683,25.198
		c1.679,0.968,3.567,1.672,5.227,0.434c2.547-1.9,3.988-4.618,4.403-6.845c0.179-3.105-1.122-4.38-2.796-5.351
		c-5.534-3.211-11.092-6.383-16.636-9.578c-14.956-8.62-29.908-17.247-44.865-25.867c-5.343-3.079-10.658-6.211-16.057-9.188
		c-2.892-1.595-4.879-0.968-6.739,1.758c-0.435,0.637-0.849,1.291-1.227,1.963C79.213,165.629,79.837,167.907,83.833,170.221z"/>
</g>
</svg>
