<?xml version="1.0" encoding="utf-8"?>
<!-- Generator: Adobe Illustrator 19.1.0, SVG Export Plug-In . SVG Version: 6.00 Build 0)  -->
<svg version="1.1" id="Layer_1" xmlns="http://www.w3.org/2000/svg" xmlns:xlink="http://www.w3.org/1999/xlink" x="0px" y="0px"
	 width="400px" height="400px" viewBox="0 0 400 400" enable-background="new 0 0 400 400" xml:space="preserve">
<circle fill-rule="evenodd" clip-rule="evenodd" fill="#333333" cx="119.959" cy="159.943" r="10"/>
<circle fill-rule="evenodd" clip-rule="evenodd" fill="#333333" cx="279.897" cy="159.943" r="10"/>
<circle fill-rule="evenodd" clip-rule="evenodd" fill="#333333" cx="200" cy="159.943" r="10"/>
<path fill-rule="evenodd" clip-rule="evenodd" fill="#333333" d="M360.262,50c0,5.523-4.477,10-10,10h-300c-5.523,0-10-4.477-10-10
	l0,0c0-5.523,4.477-10,10-10h300C355.785,40,360.262,44.477,360.262,50L360.262,50z"/>
<path fill-rule="evenodd" clip-rule="evenodd" fill="#333333" d="M50.203,279.943c-5.523,0-10-4.477-10-10v-220
	c0-5.523,4.477-10,10-10l0,0c5.523,0,10,4.477,10,10v220C60.203,275.466,55.726,279.943,50.203,279.943L50.203,279.943z"/>
<path fill-rule="evenodd" clip-rule="evenodd" fill="#333333" d="M349.834,279.943c-5.523,0-10-4.477-10-10v-220
	c0-5.523,4.477-10,10-10l0,0c5.523,0,10,4.477,10,10v220C359.834,275.466,355.357,279.943,349.834,279.943L349.834,279.943z"/>
<path fill-rule="evenodd" clip-rule="evenodd" fill="#333333" d="M40.203,269.836c0-5.523,4.477-10,10-10h120
	c5.523,0,10,4.477,10,10l0,0c0,5.523-4.477,10-10,10h-120C44.68,279.836,40.203,275.359,40.203,269.836L40.203,269.836z"/>
<path fill-rule="evenodd" clip-rule="evenodd" fill="#333333" d="M219.943,269.836c0-5.523,4.477-10,10-10h120
	c5.523,0,10,4.477,10,10l0,0c0,5.523-4.477,10-10,10h-120C224.42,279.836,219.943,275.359,219.943,269.836L219.943,269.836z"/>
<path fill-rule="evenodd" clip-rule="evenodd" fill="#333333" d="M162.737,337.071c-3.905-3.905-3.905-10.237,0-14.142
	l59.275-59.275c3.905-3.905,10.237-3.905,14.142,0l0,0c3.905,3.905,3.905,10.237,0,14.142l-59.275,59.275
	C172.974,340.976,166.642,340.976,162.737,337.071L162.737,337.071z"/>
</svg>
