<?xml version="1.0" encoding="utf-8"?>
<!-- Generator: Adobe Illustrator 19.1.0, SVG Export Plug-In . SVG Version: 6.00 Build 0)  -->
<svg version="1.1" id="Layer_1" xmlns="http://www.w3.org/2000/svg" xmlns:xlink="http://www.w3.org/1999/xlink" x="0px" y="0px"
	 width="400px" height="400px" viewBox="0 0 400 400" enable-background="new 0 0 400 400" xml:space="preserve">
<g id="Layer_x25_20152">
	<path fill="#323232" d="M241.987,222.128C265.346,208.2,281,182.694,281,153.521c0-44.091-35.744-79.833-79.834-79.833
		c-44.092,0-79.833,35.742-79.833,79.833c0,29.03,15.496,54.435,38.665,68.408c-35.475,15.669-60.234,51.153-60.234,92.428
		c0,10.741,1.694,21.082,4.801,30.792c0.172,0.919,0.471,1.792,0.874,2.604c1.636,3.293,5.024,5.561,8.95,5.561
		c5.523,0,10-4.477,10-10c0-0.368-0.022-0.731-0.061-1.089c-0.158-1.453-0.633-2.807-1.345-4.005
		c-2.313-7.546-3.563-15.557-3.563-23.862c0-43.303,33.837-78.688,76.51-81.191c1.732,0.112,3.475,0.189,5.236,0.189
		c1.625,0,3.233-0.064,4.834-0.159c42.482,2.701,76.109,37.993,76.109,81.16c0,8.803-1.402,17.278-3.99,25.216
		c-0.113,0.346-0.233,0.689-0.35,1.033c-0.242,0.862-0.381,1.767-0.381,2.707c0,5.523,4.477,10,10,10
		c3.449,0,6.491-1.747,8.289-4.403c0.98-1.451,1.579-3.176,1.684-5.033c2.852-9.339,4.402-19.247,4.402-29.52
		C301.764,273.258,277.217,237.899,241.987,222.128z M141.286,153.521c0-33.071,26.81-59.88,59.88-59.88s59.881,26.809,59.881,59.88
		c0,32.712-26.232,59.277-58.805,59.854c-0.492-0.007-0.984-0.019-1.479-0.019c-0.314,0-0.627,0.009-0.941,0.012
		C167.375,212.651,141.286,186.143,141.286,153.521z"/>
	<path fill="#323232" d="M303.316,193.165c19.336-11.531,31.236-29.739,34.765-52.215c0.855-4.681,1.316-9.5,1.316-14.429
		c0-30.86-17.521-57.61-43.147-70.898c-0.317-0.166-0.631-0.339-0.951-0.501c-0.314-0.159-0.631-0.314-0.946-0.471
		c-0.079-0.038-0.156-0.079-0.235-0.117c-0.12-0.059-0.238-0.121-0.359-0.179c-0.048-0.019-0.1-0.032-0.147-0.051
		c-10.329-4.878-21.866-7.617-34.047-7.617c-7.058,0-13.888,0.952-20.404,2.674c-0.115,0.023-0.226,0.059-0.339,0.086
		c-0.066,0.018-0.133,0.033-0.199,0.051v0c-4.288,1.127-7.455,5.019-7.455,9.661c0,5.523,4.477,10,10,10
		c0.449,0,0.888-0.04,1.321-0.097c0.032,0.021,0.067,0.04,0.101,0.061c0.224-0.066,0.451-0.124,0.676-0.189
		c0.372-0.079,0.734-0.184,1.091-0.304c4.856-1.286,9.947-1.991,15.209-1.991c10.265,0,19.923,2.586,28.366,7.137
		c0.27,0.146,0.534,0.299,0.8,0.449c0.382,0.213,0.759,0.432,1.136,0.653c17.584,10.427,29.376,29.589,29.376,51.517
		c0,15.115-5.645,28.982-14.922,39.583c-1.795,1.871-3.874,3.914-6.005,5.947c-0.385,0.333-0.76,0.677-1.152,0.999
		c-0.002,0.034-0.006,0.067-0.009,0.102c-6.113,5.773-12.295,11.176-13.195,11.96c-2.709,2.36-4.771,5.978-4.166,9.643
		c0.604,3.657,3.379,6.19,6.28,8.204c1.655,1.149,3.413,2.155,5.058,3.317c3.379,2.389,6.659,4.928,9.852,7.559
		c4.885,4.025,9.668,8.242,14.044,12.821c2.075,2.172,4.099,4.421,5.808,6.898l-0.027,0.009
		c12.184,14.54,19.498,33.417,19.498,53.792c0,8.804-1.402,17.278-3.99,25.216c-0.113,0.347-0.232,0.689-0.35,1.033
		c-0.242,0.862-0.381,1.768-0.381,2.707c0,5.523,4.478,10,10,10c3.449,0,6.491-1.746,8.289-4.403
		c0.604-1.658,1.164-3.336,1.684-5.032c2.852-9.34,4.402-19.247,4.402-29.521C359.959,246.134,338.545,208.935,303.316,193.165z"/>
	<path fill="#323232" d="M96.684,193.165c-19.336-11.531-31.236-29.739-34.765-52.215c-0.855-4.681-1.317-9.5-1.317-14.429
		c0-30.86,17.521-57.61,43.147-70.898c0.317-0.166,0.631-0.339,0.951-0.501c0.315-0.159,0.631-0.314,0.946-0.471
		c0.079-0.038,0.156-0.079,0.235-0.117c0.12-0.059,0.238-0.121,0.359-0.179c0.048-0.019,0.1-0.032,0.147-0.051
		c10.329-4.878,21.866-7.617,34.047-7.617c7.058,0,13.888,0.952,20.404,2.674c0.115,0.023,0.225,0.059,0.339,0.086
		c0.066,0.018,0.133,0.033,0.199,0.051v0c4.288,1.127,7.455,5.019,7.455,9.661c0,5.523-4.478,10-10,10
		c-0.449,0-0.888-0.04-1.321-0.097c-0.032,0.021-0.067,0.04-0.101,0.061c-0.224-0.066-0.451-0.124-0.676-0.189
		c-0.372-0.079-0.734-0.184-1.091-0.304c-4.856-1.286-9.947-1.991-15.209-1.991c-10.265,0-19.923,2.586-28.366,7.137
		c-0.27,0.146-0.534,0.299-0.8,0.449c-0.382,0.213-0.759,0.432-1.136,0.653c-17.584,10.427-29.376,29.589-29.376,51.517
		c0,15.115,5.645,28.982,14.922,39.583c1.795,1.871,3.874,3.914,6.005,5.947c0.385,0.333,0.76,0.677,1.152,0.999
		c0.002,0.034,0.006,0.067,0.009,0.102c6.113,5.773,12.295,11.176,13.195,11.96c2.709,2.36,4.771,5.978,4.166,9.643
		c-0.604,3.657-3.379,6.19-6.28,8.204c-1.655,1.149-3.413,2.155-5.058,3.317c-3.379,2.389-6.659,4.928-9.852,7.559
		c-4.885,4.025-9.668,8.242-14.044,12.821c-2.075,2.172-4.099,4.421-5.808,6.898l0.027,0.009
		c-12.185,14.54-19.498,33.417-19.498,53.792c0,8.804,1.402,17.278,3.99,25.216c0.113,0.347,0.232,0.689,0.35,1.033
		c0.242,0.862,0.381,1.768,0.381,2.707c0,5.523-4.478,10-10,10c-3.449,0-6.491-1.746-8.289-4.403
		c-0.604-1.658-1.164-3.336-1.684-5.032c-2.852-9.34-4.402-19.247-4.402-29.521C40.041,246.134,61.455,208.935,96.684,193.165z"/>
</g>
</svg>
