<?xml version="1.0" encoding="utf-8"?>
<!-- Generator: Adobe Illustrator 19.1.0, SVG Export Plug-In . SVG Version: 6.00 Build 0)  -->
<svg version="1.1" id="Layer_1" xmlns="http://www.w3.org/2000/svg" xmlns:xlink="http://www.w3.org/1999/xlink" x="0px" y="0px"
	 viewBox="0 0 400 400" enable-background="new 0 0 400 400" xml:space="preserve">
<g>
	<path fill="#231F20" d="M276.313,108.71c9.264,9.297,18.528,18.594,28.025,28.125c-2.726,2.78-5.153,5.297-7.624,7.769
		c-20.719,20.729-41.444,41.454-62.172,62.174c-28.39,28.378-56.794,56.742-85.167,85.138c-4.041,4.044-8.465,7.163-14.371,7.844
		c-8.506,0.98-17.442-4.342-20.52-12.392c-3.16-8.264-1.51-15.686,4.53-21.85c14.015-14.3,28.26-28.375,42.414-42.539
		c14.7-14.71,29.399-29.419,44.104-44.123c12.639-12.639,25.286-25.27,37.928-37.906c9.969-9.964,19.947-19.92,29.882-29.918
		c0.717-0.721,1.12-1.754,1.668-2.642C275.445,108.497,275.879,108.603,276.313,108.71z"/>
	<path fill="#231F20" d="M347.256,150.821c-28.393-28.417-56.757-56.806-84.988-85.061c5.24-5.398,10.312-11.112,15.903-16.262
		c7.371-6.789,16.449-9.979,26.387-9.938c11.234,0.046,20.895,4.419,28.868,12.316c9.029,8.944,17.806,18.146,26.948,26.972
		c16.219,15.658,17.362,40.273,2.213,56.786C357.772,140.882,352.469,145.684,347.256,150.821z"/>
	<path fill="#231F20" d="M247.174,80.345c4.773,4.764,9.266,9.248,14.002,13.975c-2.506,2.542-5.061,5.159-7.644,7.748
		c-8.171,8.191-16.348,16.376-24.533,24.553c-7.03,7.022-14.079,14.025-21.11,21.046c-8.004,7.993-15.996,15.997-23.997,23.994
		c-7.148,7.145-14.301,14.286-21.451,21.429c-7.033,7.026-14.065,14.053-21.099,21.078c-7.216,7.206-14.435,14.41-21.65,21.617
		c-4.973,4.968-9.949,9.933-14.912,14.911c-4.205,4.219-10.402,4.545-14.364,0.735c-4.221-4.06-4.176-10.332,0.199-14.721
		c12.082-12.118,24.198-24.202,36.3-36.301c39.466-39.46,78.93-78.921,118.4-118.377C245.908,81.438,246.558,80.901,247.174,80.345z
		"/>
	<path fill="#231F20" d="M318.592,151.832c4.672,4.651,9.218,9.177,14.238,14.175c-2.078,1.927-4.268,3.83-6.316,5.876
		C276.399,221.96,226.3,272.051,176.196,322.139c-2.735,2.735-6.001,4.134-9.825,3.102c-3.946-1.066-6.533-3.691-7.385-7.797
		c-0.72-3.472,0.307-6.525,2.73-8.969c13.881-14.001,27.804-27.961,41.75-41.897c13.699-13.689,27.466-27.31,41.16-41.004
		c11.816-11.817,23.555-23.711,35.358-35.541c12.289-12.317,24.613-24.6,36.934-36.885
		C317.452,152.615,318.11,152.207,318.592,151.832z"/>
	<path fill="#231F20" d="M139,319.863c1.325,6.724,3.645,12.925,9.221,18.113c-32.801,8.213-65.093,16.299-97.852,24.502
		c8.175-32.706,16.265-65.071,24.44-97.776c4.955,4.934,10.435,8.023,16.931,9.277c0.503,0.097,1.2,1.383,1.114,2.023
		c-2.727,20.19,11.993,39.483,32.129,43.646c2.255,0.466,4.603,0.618,6.912,0.651C134.192,320.332,136.495,320.031,139,319.863z"/>
</g>
</svg>
