<?xml version="1.0" encoding="utf-8"?>
<!-- Generator: Adobe Illustrator 20.1.0, SVG Export Plug-In . SVG Version: 6.00 Build 0)  -->
<svg version="1.1" id="Layer_1" xmlns="http://www.w3.org/2000/svg" xmlns:xlink="http://www.w3.org/1999/xlink" x="0px" y="0px"
	 width="400px" height="400px" viewBox="0 0 400 400" enable-background="new 0 0 400 400" xml:space="preserve">
<g>
	<path fill="#323232" d="M160,118.7c3.2,0.8,6.6,1.3,10,1.3v0.1l30.2,0v0c5.5,0,9.9-4.4,9.9-9.9c0-5.5-4.4-9.9-9.9-9.9v0l-29.9,0
		c0,0,0-0.1,0-0.1c-0.1,0-0.2,0-0.3,0c-10.9,0-19.8-8.9-19.8-19.8c0-7.3,4-13.7,9.8-17.1l0,7.2l0,0v0c0,5.5,4.4,9.9,9.9,9.9
		c0,0,0,0,0,0v0l60.4,0v-0.1c5.2-0.3,9.3-4.6,9.3-9.9l0-7.2c5.9,3.4,9.9,9.8,9.9,17.1c0,10.9-8.9,19.8-19.8,19.8c-0.1,0-0.2,0-0.3,0
		c0,0,0,0.1,0,0.1c-1.7,0.1-3.2,0.5-4.6,1.3c0,0,0,0,0,0c-0.3,0.2-0.5,0.3-0.8,0.5c0,0,0,0,0,0c-0.2,0.2-0.5,0.3-0.7,0.5
		c0,0-0.1,0-0.1,0.1c-0.2,0.2-0.4,0.4-0.6,0.6c0,0-0.1,0.1-0.1,0.1c-0.2,0.2-0.3,0.4-0.5,0.6c-0.1,0.1-0.1,0.1-0.1,0.2
		c-0.1,0.2-0.3,0.4-0.4,0.6c-0.1,0.1-0.1,0.2-0.2,0.3c-0.1,0.2-0.2,0.4-0.3,0.5c-0.1,0.1-0.1,0.2-0.2,0.4c-0.1,0.2-0.2,0.3-0.2,0.5
		c-0.1,0.1-0.1,0.3-0.2,0.4c-0.1,0.2-0.1,0.3-0.2,0.5c-0.1,0.2-0.1,0.4-0.1,0.5c0,0.1-0.1,0.3-0.1,0.4c0,0.2-0.1,0.4-0.1,0.7
		c0,0.1,0,0.2,0,0.3c0,0.3-0.1,0.7-0.1,1l0.1,149.4c0,5.5,4.5,10,10,10c5.5,0,10-4.5,10-10l-0.1-140.8c17.1-4.5,29.7-20,29.7-38.5
		c0-22-17.8-39.7-39.8-39.7c0,0,0,0,0,0c0,0,0,0,0,0c0,0,0,0,0,0c-0.5,0-1,0-1.5,0c0,0,0,0.1,0,0.1c-4.8,0.7-8.4,4.8-8.4,9.8l0,10
		l-39.9,0l0-9.6c0-0.1,0-0.2,0-0.3c0-5.5-4.4-9.9-9.9-9.9c0,0,0,0,0,0c0,0,0,0,0,0c-22,0-39.7,17.8-39.7,39.8
		C130.3,98.8,142.9,114.3,160,118.7z"/>
	<path fill="#323232" d="M239.9,280.9c-3.2-0.8-6.6-1.3-10-1.3c-0.1,0-0.1,0-0.2,0v-0.1l-30.2,0v0c-5.5,0-9.9,4.4-9.9,9.9
		c0,5.5,4.4,9.9,9.9,9.9c0,0,0,0,0,0v0l29.6,0c0.1,0,0.3,0,0.4,0c0,0,0,0.1,0,0.1c0.1,0,0.2,0,0.3,0c10.9,0,19.8,8.9,19.8,19.8
		c0,7.3-4,13.7-9.8,17.1l0-7.2l0,0v0c0-5.5-4.4-9.9-9.9-9.9c0,0,0,0,0,0v0l-60.4,0v0.1c-5.2,0.3-9.3,4.6-9.3,9.9l0,7.2
		c-5.9-3.4-9.9-9.8-9.9-17.1c0-11,8.9-19.8,19.8-19.8c0.1,0,0.2,0,0.3,0c0,0,0-0.1,0-0.1c4.6-0.2,8.4-3.5,9.3-7.8
		c0.2-0.7,0.3-1.5,0.3-2.3L180,140c0-5.5-4.5-10-10-10c-5.5,0-10,4.5-10,10l0.1,140.9c0,0,0,0,0,0c-17.1,4.5-29.7,20-29.7,38.5
		c0,22,17.8,39.7,39.8,39.7c0,0,0,0,0,0c0,0,0,0,0,0c0,0,0,0,0,0c0.5,0,1,0,1.5,0c0,0,0-0.1,0-0.1c0,0,0,0-0.1,0
		c4.8-0.7,8.5-4.8,8.5-9.8l0-10l39.9,0l0,9.6c0,0.1,0,0.2,0,0.4c0,5.5,4.4,9.9,9.9,9.9c0,0,0,0,0,0c0,0,0,0,0,0
		c22,0,39.7-17.8,39.7-39.8C269.6,300.8,257,285.3,239.9,280.9z"/>
</g>
</svg>
