<?xml version="1.0" encoding="utf-8"?>
<!-- Generator: Adobe Illustrator 19.1.0, SVG Export Plug-In . SVG Version: 6.00 Build 0)  -->
<svg version="1.1" id="Layer_1" xmlns="http://www.w3.org/2000/svg" xmlns:xlink="http://www.w3.org/1999/xlink" x="0px" y="0px"
	 width="400px" height="400px" viewBox="0 0 400 400" enable-background="new 0 0 400 400" xml:space="preserve">
<g id="Layer_x25_2018">
	<path fill="#333333" d="M136.1,353.9c-3.921,3.921-10.234,3.966-14.1,0.1l0,0c-3.866-3.866-3.821-10.179,0.1-14.1L340.9,41.1
		c3.921-3.921,10.234-3.966,14.1-0.1l0,0c3.866,3.866,3.821,10.179-0.1,14.1L136.1,353.9z"/>
	<path fill="#333333" d="M40.059,272.059C36.161,268.161,36.134,261.866,40,258l0,0c3.866-3.866,10.161-3.839,14.059,0.059
		l80.882,81.882c3.899,3.898,3.925,10.192,0.059,14.059l0,0c-3.866,3.866-10.16,3.84-14.059-0.059L40.059,272.059z"/>
</g>
</svg>
