<?xml version="1.0" encoding="utf-8"?>
<!-- Generator: Adobe Illustrator 19.1.0, SVG Export Plug-In . SVG Version: 6.00 Build 0)  -->
<svg version="1.1" id="Layer_1" xmlns="http://www.w3.org/2000/svg" xmlns:xlink="http://www.w3.org/1999/xlink" x="0px" y="0px"
	 viewBox="0 0 400 400" enable-background="new 0 0 400 400" xml:space="preserve">
<g>
	<g id="Layer_x25_20152_1_">
		<path d="M150.625,196.621c13.759-8.204,22.979-23.227,22.979-40.411c0-25.97-21.054-47.023-47.024-47.023
			c-25.971,0-47.023,21.053-47.023,47.023c0,17.099,9.127,32.063,22.774,40.294c-20.895,9.229-35.479,30.13-35.479,54.442
			c0,6.327,0.998,12.418,2.828,18.137c0.101,0.541,0.277,1.056,0.515,1.534c0.964,1.94,2.959,3.276,5.272,3.276
			c3.253,0,5.89-2.637,5.89-5.89c0-0.217-0.013-0.431-0.036-0.641c-0.093-0.856-0.373-1.653-0.792-2.359
			c-1.362-4.445-2.099-9.163-2.099-14.055c0-25.506,19.931-46.349,45.066-47.823c1.02,0.066,2.047,0.111,3.084,0.111
			c0.957,0,1.904-0.038,2.847-0.094c25.023,1.591,44.83,22.379,44.83,47.805c0,5.185-0.826,10.177-2.35,14.853
			c-0.067,0.204-0.137,0.406-0.206,0.608c-0.143,0.508-0.224,1.041-0.224,1.594c0,3.253,2.637,5.89,5.89,5.89
			c2.032,0,3.823-1.029,4.882-2.593c0.577-0.855,0.93-1.871,0.992-2.965c1.68-5.501,2.593-11.337,2.593-17.388
			C185.835,226.738,171.376,205.911,150.625,196.621z M91.311,156.211c0-19.479,15.792-35.27,35.27-35.27
			s35.271,15.791,35.271,35.27c0,19.268-15.451,34.915-34.637,35.255c-0.29-0.004-0.58-0.011-0.871-0.011
			c-0.185,0-0.369,0.005-0.554,0.007C106.677,191.039,91.311,175.426,91.311,156.211z"/>
	</g>
	<g id="Layer_x25_20152_2_">
		<path d="M48.384,246.758c4.569-2.724,7.63-7.712,7.63-13.418c0-8.623-6.991-15.614-15.614-15.614
			c-8.623,0-15.614,6.99-15.614,15.614c0,5.678,3.031,10.646,7.562,13.379c-6.938,3.065-11.781,10.005-11.781,18.077
			c0,2.101,0.331,4.123,0.939,6.022c0.034,0.18,0.092,0.35,0.171,0.509c0.32,0.644,0.983,1.088,1.75,1.088
			c1.08,0,1.956-0.876,1.956-1.956c0-0.072-0.004-0.143-0.012-0.213c-0.031-0.284-0.124-0.549-0.263-0.783
			c-0.452-1.476-0.697-3.043-0.697-4.667c0-8.469,6.618-15.39,14.964-15.879c0.339,0.022,0.68,0.037,1.024,0.037
			c0.318,0,0.632-0.013,0.945-0.031c8.309,0.528,14.885,7.431,14.885,15.873c0,1.722-0.274,3.379-0.78,4.932
			c-0.022,0.068-0.046,0.135-0.068,0.202c-0.047,0.169-0.075,0.346-0.075,0.529c0,1.08,0.876,1.956,1.956,1.956
			c0.675,0,1.27-0.342,1.621-0.861c0.192-0.284,0.309-0.621,0.329-0.984c0.558-1.827,0.861-3.764,0.861-5.774
			C60.075,256.758,55.274,249.842,48.384,246.758z M28.688,233.339c0-6.468,5.243-11.711,11.711-11.711s11.712,5.243,11.712,11.711
			c0,6.398-5.13,11.593-11.501,11.706c-0.096-0.001-0.192-0.004-0.289-0.004c-0.061,0-0.123,0.002-0.184,0.002
			C33.791,244.904,28.688,239.72,28.688,233.339z"/>
	</g>
	<g id="Layer_x25_20152_3_">
		<path d="M240.49,228.292c8.225-4.904,13.737-13.885,13.737-24.157c0-15.525-12.586-28.11-28.11-28.11
			c-15.525,0-28.11,12.585-28.11,28.11c0,10.222,5.456,19.167,13.614,24.087c-12.491,5.517-21.209,18.012-21.209,32.545
			c0,3.782,0.596,7.423,1.69,10.842c0.061,0.324,0.166,0.631,0.308,0.917c0.576,1.159,1.769,1.958,3.151,1.958
			c1.945,0,3.521-1.576,3.521-3.521c0-0.13-0.008-0.257-0.021-0.383c-0.056-0.512-0.223-0.988-0.474-1.41
			c-0.814-2.657-1.255-5.478-1.255-8.402c0-15.247,11.914-27.707,26.94-28.588c0.61,0.039,1.224,0.067,1.844,0.067
			c0.572,0,1.138-0.023,1.702-0.056c14.958,0.951,26.799,13.378,26.799,28.577c0,3.1-0.494,6.084-1.405,8.879
			c-0.04,0.122-0.082,0.243-0.123,0.364c-0.085,0.303-0.134,0.622-0.134,0.953c0,1.945,1.576,3.521,3.521,3.521
			c1.214,0,2.286-0.615,2.919-1.55c0.345-0.511,0.556-1.118,0.593-1.772c1.004-3.288,1.55-6.777,1.55-10.394
			C261.538,246.295,252.895,233.845,240.49,228.292z M205.032,204.134c0-11.645,9.44-21.084,21.084-21.084
			c11.644,0,21.085,9.44,21.085,21.084c0,11.518-9.237,20.872-20.706,21.075c-0.173-0.002-0.346-0.007-0.521-0.007
			c-0.111,0-0.221,0.003-0.331,0.004C214.218,224.955,205.032,215.621,205.032,204.134z"/>
	</g>
	<g id="Layer_x25_20152_4_">
		<path d="M352.471,200.009c13.759-8.204,22.979-23.227,22.979-40.411c0-25.97-21.054-47.023-47.024-47.023
			c-25.971,0-47.023,21.053-47.023,47.023c0,17.099,9.127,32.063,22.774,40.294c-20.895,9.229-35.479,30.13-35.479,54.442
			c0,6.327,0.998,12.418,2.828,18.137c0.101,0.541,0.277,1.056,0.515,1.534c0.964,1.94,2.959,3.276,5.272,3.276
			c3.253,0,5.89-2.637,5.89-5.89c0-0.217-0.013-0.431-0.036-0.641c-0.093-0.856-0.373-1.653-0.792-2.359
			c-1.362-4.445-2.099-9.163-2.099-14.055c0-25.506,19.931-46.349,45.066-47.823c1.02,0.066,2.047,0.111,3.084,0.111
			c0.957,0,1.904-0.038,2.847-0.094c25.023,1.591,44.83,22.379,44.83,47.805c0,5.185-0.826,10.177-2.35,14.853
			c-0.067,0.204-0.137,0.406-0.206,0.608c-0.143,0.508-0.224,1.041-0.224,1.594c0,3.253,2.637,5.89,5.89,5.89
			c2.032,0,3.823-1.029,4.882-2.593c0.577-0.855,0.93-1.871,0.992-2.965c1.68-5.501,2.593-11.337,2.593-17.388
			C387.681,230.126,373.222,209.299,352.471,200.009z M293.156,159.599c0-19.479,15.792-35.27,35.27-35.27
			c19.479,0,35.271,15.791,35.271,35.27c0,19.268-15.451,34.915-34.637,35.255c-0.29-0.004-0.58-0.011-0.871-0.011
			c-0.185,0-0.369,0.005-0.554,0.007C308.523,194.427,293.156,178.814,293.156,159.599z"/>
	</g>
</g>
</svg>
