<?xml version="1.0" encoding="utf-8"?>
<!-- Generator: Adobe Illustrator 19.1.0, SVG Export Plug-In . SVG Version: 6.00 Build 0)  -->
<svg version="1.1" id="Layer_1" xmlns="http://www.w3.org/2000/svg" xmlns:xlink="http://www.w3.org/1999/xlink" x="0px" y="0px"
	 width="400px" height="400px" viewBox="0 0 400 400" enable-background="new 0 0 400 400" xml:space="preserve">
<g id="Layer_x25_20127">
	<path fill="#323232" d="M229.586,157.944l-96.962,81.962c-3.889,3.889-10.253,3.889-14.142-0.001l0,0
		c-3.889-3.889-3.889-10.253-0.001-14.142l96.962-81.962c3.89-3.889,10.253-3.889,14.142,0l0,0
		C233.474,147.691,233.475,154.055,229.586,157.944z"/>
	<path fill="#323232" d="M232.074,173.947l-15.49-15.49c-3.99-3.99-4.105-10.405-0.255-14.255l0,0
		c3.85-3.85,10.265-3.735,14.255,0.255l15.49,15.49c3.99,3.99,4.105,10.405,0.255,14.255l0,0
		C242.479,178.052,236.064,177.937,232.074,173.947z"/>
	<path fill="#323232" d="M295.586,180.944L172.624,285.906c-3.889,3.889-10.253,3.889-14.142,0l0,0
		c-3.889-3.889-3.889-10.253-0.001-14.142l122.962-104.962c3.89-3.889,10.253-3.889,14.142,0l0,0
		C299.474,170.691,299.475,177.055,295.586,180.944z"/>
	<path fill="#323232" d="M164.016,289.175h-41.35c-5.499,0-9.999-4.5-9.999-10l0,0c0-5.5,4.5-10,9.999-10h41.35c5.5,0,10,4.5,10,10
		l0,0C174.016,284.675,169.516,289.175,164.016,289.175z"/>
	<path fill="#323232" d="M132.507,235.834v40.35c0,5.5-4.5,10-10,10l0,0c-5.5,0-10-4.5-10-10v-40.35c0-5.5,4.5-10,10-10l0,0
		C128.007,225.834,132.507,230.334,132.507,235.834z"/>
	<path fill="#323232" d="M352.691,152.193C326.288,67.863,236.522,20.906,152.194,47.311
		C67.864,73.713,20.905,163.478,47.309,247.808c0.992,3.169,2.091,6.276,3.261,9.337c0.001,0.003,0.001,0.004,0.001,0.007
		c0.064,0.201,0.144,0.392,0.217,0.586c0.055,0.142,0.109,0.284,0.164,0.426c2.014,4.625,7.228,7.084,12.15,5.543
		c5.273-1.65,8.206-7.26,6.556-12.532c-0.104-0.336-0.227-0.662-0.363-0.979c-1.05-2.738-2.02-5.524-2.909-8.361
		C43.281,168.042,84.372,89.49,158.165,66.386c73.794-23.104,152.345,17.985,175.45,91.78
		c23.105,73.795-17.987,152.345-91.78,175.449c-51.08,15.993-104.436,1.222-140.105-33.86c-0.261-0.256-0.52-0.514-0.777-0.771
		c-2.539-2.264-6.164-3.185-9.646-2.094c-5.27,1.65-8.204,7.261-6.555,12.531c0.555,1.773,1.565,3.273,2.854,4.433
		c-0.002-0.002-0.003-0.003-0.005-0.004c-0.007,0.006-0.012,0.013-0.018,0.02c40.763,40.181,101.793,57.119,160.226,38.823
		C332.137,326.288,379.094,236.523,352.691,152.193z"/>
	<path display="none" fill="#323232" d="M226.329,171.202c0-16.569,13.431-30,30-30s30,13.431,30,30s-13.431,30-30,30
		S226.329,187.771,226.329,171.202z M206.329,171.202c0,24.108,17.063,44.229,39.77,48.95l60.1-52.585
		c-1.863-25.917-23.478-46.365-49.87-46.365C228.714,121.202,206.329,143.587,206.329,171.202z"/>
	<path id="Ellipse" fill="#323232" d="M236.329,130.702c0-5.799,4.701-10.5,10.5-10.5c5.799,0,10.5,4.701,10.5,10.5
		s-4.701,10.5-10.5,10.5C241.03,141.202,236.329,136.501,236.329,130.702z"/>
	<path fill="#323232" d="M286.329,153.202c0,7.58-4.219,14.178-10.435,17.57l14.435,14.435c9.715-7.298,16-18.918,16-32.005
		c0-22.092-17.908-40-40-40c-9.836,0-18.844,3.551-25.81,9.44c1.558-0.915,3.373-1.44,5.31-1.44c5.799,0,10.5,4.701,10.5,10.5
		c0,1.792-0.449,3.479-1.24,4.955c3.203-2.181,7.073-3.455,11.24-3.455C277.375,133.202,286.329,142.156,286.329,153.202z"/>
</g>
</svg>
