<svg id="Layer_1" data-name="Layer 1" xmlns="http://www.w3.org/2000/svg" viewBox="0 0 400 400"><defs><style>.cls-1{fill:none;}.cls-2{fill:#333;}</style></defs><title>book-open</title><g id="Layer_20188" data-name="Layer%20188"><path class="cls-1" d="M60,123V257a164.16,164.16,0,0,1,60-12c33,0,59.67,10.67,69,18V129s-29.67-24-69-24S60,123,60,123Z"/><path class="cls-2" d="M354,107c-4.67-3.33-28.67-22-74-22s-80,24-80,24c-15-8.67-44-24-80-24S58.67,99.67,48,105s-8,20-8,20V274c0,12.33,11,11,11,11H180s1.33,20,20,20,20-20,20-20H348c11.33,0,12-11,12-11s-.67-153.33,0-157S358.67,110.33,354,107ZM189,263c-9.33-7.33-36-18-69-18a164.16,164.16,0,0,0-60,12V123s20.67-18,60-18,69,24,69,24Zm151-6a164.16,164.16,0,0,0-60-12c-33,0-59.67,10.67-69,18V129s29.67-24,69-24,60,18,60,18Z"/></g></svg>