<svg id="Layer_1" data-name="Layer 1" xmlns="http://www.w3.org/2000/svg" viewBox="0 0 400 400"><defs><style>.cls-1,.cls-2{fill:#333;}.cls-1{fill-rule:evenodd;}</style></defs><title>icon</title><path class="cls-1" d="M281.46,59.85h0l0.35,0.2Z"/><path class="cls-1" d="M340,349.65V130h0v0c0-.22,0-0.44,0-0.66s0-.17,0-0.26a10,10,0,0,0-3.36-6.58L257.3,43.15A10,10,0,0,0,240,50v78.59A10.11,10.11,0,0,0,250,140c0.29,0,.58,0,0.87,0H320V340.07H80V60H209.92a10,10,0,0,0,0-20H71A10.11,10.11,0,0,0,70,39.93a10,10,0,0,0-10,10v300a10.17,10.17,0,0,0,10,10.14H330a10,10,0,0,0,10-10C340,349.93,340,349.79,340,349.65ZM260,74.94l45.58,45H260v-45Z"/><circle class="cls-2" cx="119.98" cy="219.93" r="10"/><circle class="cls-2" cx="279.92" cy="219.93" r="10"/><circle class="cls-2" cx="200.02" cy="219.93" r="10"/></svg>