<?xml version="1.0" encoding="utf-8"?>
<!-- Generator: Adobe Illustrator 20.1.0, SVG Export Plug-In . SVG Version: 6.00 Build 0)  -->
<svg version="1.1" id="Layer_1" xmlns="http://www.w3.org/2000/svg" xmlns:xlink="http://www.w3.org/1999/xlink" x="0px" y="0px"
	 width="400px" height="400px" viewBox="0 0 400 400" enable-background="new 0 0 400 400" xml:space="preserve">
<path fill="#333333" d="M360.8,110.1c0-0.1,0-0.3,0-0.4c0-5.5-4.5-10-10-10h-30V69.5c0-5.5-4.5-10-10-10c-0.3,0-0.6,0-0.8,0h-98.2
	c-0.7,0-1.5,0.1-2.2,0.2c-4.8,0.7-8.5,4.9-8.5,9.9v30.2H51.4c-2.7,0-5.1,1.1-6.9,2.8c-3.2,1.7-5.5,5-5.5,8.9v219c0,5.5,4.5,10,10,10
	c1.2,0,2.3-0.2,3.3-0.6h258.5c5.5,0,10-4.5,10-10c0-5.5-4.5-10-10-10H59.1V119.8h151.3c0.9,0,1.7-0.1,2.5-0.3
	c4.7-0.8,8.3-4.9,8.3-9.8V79.5h79.7v30c0,0,0,0.1,0,0.1c0,0,0,0.1,0,0.1c0,5.5,4.5,10,10,10h30.1v209.6c0,5.5,4.5,10,10,10
	c5.5,0,10-4.5,10-10v-218C360.9,110.9,360.9,110.5,360.8,110.1z"/>
</svg>
