<svg id="Layer_1" data-name="Layer 1" xmlns="http://www.w3.org/2000/svg" viewBox="0 0 500 500"><defs><style>.cls-1{fill:#333;}</style></defs><title>files</title><path class="cls-1" d="M176.88,394.78a5.54,5.54,0,0,0-2.21-.45,5.63,5.63,0,0,0-2.25.45,5.9,5.9,0,0,0-1.82,1.2,5.29,5.29,0,0,0-1.2,1.8,5.94,5.94,0,0,0,0,4.44,5.33,5.33,0,0,0,1.2,1.78,5.63,5.63,0,0,0,1.82,1.18,5.86,5.86,0,0,0,2.25.43,5.77,5.77,0,0,0,2.21-.43,5.42,5.42,0,0,0,1.8-1.18,5.72,5.72,0,0,0,1.2-1.78,5.7,5.7,0,0,0,0-4.44A5.51,5.51,0,0,0,176.88,394.78Z"/><path class="cls-1" d="M222.53,355.72a18.12,18.12,0,0,0-6.56-3.56,31,31,0,0,0-9.41-1.27H188.91v54.2H199V386h7.57a29.19,29.19,0,0,0,9.22-1.31,18.31,18.31,0,0,0,6.56-3.67,15,15,0,0,0,3.94-5.64,20.38,20.38,0,0,0,.08-14.19A14,14,0,0,0,222.53,355.72Zm-5.7,16.59a8.16,8.16,0,0,1-2,3.15,9,9,0,0,1-3.41,2,15.17,15.17,0,0,1-4.83.69H199V358.68h7.57a16,16,0,0,1,4.83.66,9,9,0,0,1,3.41,1.89,7.79,7.79,0,0,1,2,3,10.92,10.92,0,0,1,.67,3.94A12,12,0,0,1,216.83,372.31Z"/><path class="cls-1" d="M269.39,355.72a18.13,18.13,0,0,0-6.56-3.56,31,31,0,0,0-9.41-1.27H235.76v54.2h10.08V386h7.57a29.19,29.19,0,0,0,9.22-1.31A18.32,18.32,0,0,0,269.2,381a15,15,0,0,0,3.94-5.64,20.39,20.39,0,0,0,.08-14.19A14,14,0,0,0,269.39,355.72Zm-5.7,16.59a8.14,8.14,0,0,1-2,3.15,9,9,0,0,1-3.41,2,15.18,15.18,0,0,1-4.84.69h-7.57V358.68h7.57a16,16,0,0,1,4.84.66,9,9,0,0,1,3.41,1.89,7.78,7.78,0,0,1,2,3,10.92,10.92,0,0,1,.67,3.94A12,12,0,0,1,263.69,372.31Z"/><polygon class="cls-1" points="294.09 405.09 304.17 405.09 304.17 359.17 320.48 359.17 320.48 350.89 277.71 350.89 277.71 359.17 294.09 359.17 294.09 405.09"/><path class="cls-1" d="M333.55,147.4h0l0.34,0.2Z"/><path class="cls-1" d="M391.47,434.12V216.75a9.84,9.84,0,0,0-3.38-7.42l-78.43-78.44a9.9,9.9,0,0,0-17.11,6.75V215.4a10.17,10.17,0,0,0-.1,1.35,9.9,9.9,0,0,0,6.1,9.14,9.65,9.65,0,0,0,3.89.8,8.23,8.23,0,0,0,.86,0h68.38v198H134.21V147.54h95.15v3.16h0.21v98.19c-0.69,11.21-8.61,20.78-21.34,20.78-0.22,0-3.73,0-4,0-11.13,0-24.3-9-24.3-22.37h0V170.95h-0.18c0-.1,0-0.2,0-0.3a9.66,9.66,0,0,0-19.32,0c0,0.1,0,.2,0,0.3h0v76.35h-0.2c0,24,20,43.48,44.7,43.48s44.74-19.49,44.74-43.48h-0.19V150.7h0.05v-3.16h13.22a9.89,9.89,0,0,0,0-19.78H249.55V102.66h0A30.27,30.27,0,0,0,189,103h0v24.8H125.37a9.47,9.47,0,0,0-1-.06,9.89,9.89,0,0,0-9.89,9.89V434.4a10,10,0,0,0,9.93,10H381.6a9.89,9.89,0,0,0,9.89-9.9C391.49,434.4,391.47,434.25,391.47,434.12ZM312.34,206.87V162.34l45.09,44.53H312.34Zm-93.05-114A10.1,10.1,0,0,1,229.36,103v24.8H209.2V102.66h0A10.08,10.08,0,0,1,219.28,92.88Z"/></svg>