<?xml version="1.0" encoding="utf-8"?>
<!-- Generator: Adobe Illustrator 19.1.0, SVG Export Plug-In . SVG Version: 6.00 Build 0)  -->
<svg version="1.1" id="Layer_1" xmlns="http://www.w3.org/2000/svg" xmlns:xlink="http://www.w3.org/1999/xlink" x="0px" y="0px"
	 width="400px" height="400px" viewBox="0 0 400 400" enable-background="new 0 0 400 400" xml:space="preserve">
<g id="Layer_x25_20160">
	<path fill="#333333" d="M350,299.792H50c-5.523,0-10,4.477-10,10c0,5.523,4.477,10,10,10h301c5.523,0,9-4.477,9-10
		C360,304.269,355.523,299.792,350,299.792z"/>
	<path fill="#333333" d="M60.474,272.831c1.139,4.27,5.022,7.419,9.651,7.419c1.045,0,2.052-0.162,2.998-0.458H271
		c5.523,0,9-4.477,9-10c0-5.523-4.477-10-10-10H80.125V100.208h240.042V270.25c0,5.523,4.477,10,10,10c5.523,0,10-4.477,10-10v-180
		c0-2.77-1.128-5.277-2.948-7.088c-1.811-1.824-4.32-2.954-7.094-2.954h-260c-5.523,0-10,4.477-10,10
		c0,0.007,0.001,0.014,0.001,0.021c0,0.007-0.001,0.014-0.001,0.021v178.038C60.051,268.78,60,269.28,60,269.792
		C60,270.852,60.168,271.872,60.474,272.831z"/>
</g>
</svg>
