<svg id="Layer_1" data-name="Layer 1" xmlns="http://www.w3.org/2000/svg" viewBox="0 0 400 400"><defs><style>.cls-1{fill:#231f20;}</style></defs><title>icons-interests</title><path class="cls-1" d="M323.72,54.21C314.63,42,300.4,38.42,287.46,45c-5.63,2.87-10.32,7.12-14.85,11.24-1,.93-2,1.86-3.07,2.76a28.36,28.36,0,0,0-4.64,5.66l-.91-.49c-2.91-1.56-5.66-3-8.53-4.42a24.85,24.85,0,0,1-4.12-2.27,12.61,12.61,0,0,1,.44-2.82c4-1.42,6.64-3.74,7.42-6.66a7.15,7.15,0,0,0-2.31-7.15c-2.83-2.66-7.45-3.1-10-3.12-12.19-.13-24.56-.11-36.54-.09H186.77q-12,0-24.05,0h0c-8.27,0-9.9,5-10.13,7.93-.31,3.9,1.56,8.22,7.54,9.29a13.44,13.44,0,0,1-1,3.32,56.85,56.85,0,0,1-10.19,5.39l-1.23.55c-1.81-1.6-3.58-3.24-5.3-4.83-5.46-5-10.61-9.79-16.74-13.59C113.14,38,97.32,41.47,88,54A51.93,51.93,0,0,0,77.92,80.71c-3,33.24,6.61,58.68,29.2,77.72a6.27,6.27,0,0,1,.8,2.52c.89,4.73,1.68,9.59,2.45,14.29,1.51,9.32,3.08,19,5.56,28.3,15.8,59.69,43.72,114.11,66.27,154.85,1.87,3.39,6.68,4.79,9.27,4.88,4.49.15,9,.13,13.41.11s9,0,13.49.12h.78c5.8,0,9.68-2.45,12.17-7.67,4.81-10.09,9.82-20.32,14.66-30.2,8.81-18,17.92-36.58,26.24-55.17,17.69-39.53,28-75.72,31.62-110.65a2.87,2.87,0,0,1,.76-1.43c19.48-16,29.23-38.1,29.79-67.62C334.67,76.16,331.18,64.21,323.72,54.21ZM326.4,90.6c-.52,27.41-9.06,47-26.86,61.59a10.65,10.65,0,0,0-3.65,6.8c-3.51,34.07-13.63,69.46-31,108.2-8.26,18.47-17.34,37-26.12,54.92-4.85,9.91-9.87,20.15-14.7,30.28-1.23,2.58-2.35,3.21-5.44,3.1s-6.08-.14-9.09-.14l-4.73,0c-4.31,0-8.76,0-13.1-.1a5.57,5.57,0,0,1-2.63-.92c-22.32-40.32-49.9-94.1-65.45-152.85-2.37-9-3.91-18.41-5.39-27.54-.77-4.75-1.57-9.66-2.48-14.49-.4-2.14-1.2-5.2-3.44-7.09-20.51-17.3-29.16-40.51-26.45-71a44,44,0,0,1,8.55-22.63c6.76-9.12,18.11-11.76,27-6.26,5.48,3.39,10.36,7.9,15.53,12.67,2.39,2.2,4.86,4.48,7.45,6.71l2,1.72,2.37-1.16c1-.48,2.15-1,3.39-1.55a63.6,63.6,0,0,0,11.72-6.28c2.73-2,3.44-5.31,4.06-8.24a26.93,26.93,0,0,1,.68-2.77l1.16-3.48-3.36-1.46c-.57-.25-1-.46-1.35-.63a7.75,7.75,0,0,0-2.9-1,4.12,4.12,0,0,1-1.65-.38,2.08,2.08,0,0,1,0-.49,2.14,2.14,0,0,1,0-.32,6.1,6.1,0,0,1,2.1-.24h0q12,0,24.08,0h23.63c11.95,0,24.3,0,36.44.09a11.63,11.63,0,0,1,3.94.62,11.32,11.32,0,0,1-3.26,1.23l-2.35.55-.6,2.34c-2.52,9.77-1.41,12.24,7.4,16.49,2.71,1.31,5.38,2.74,8.22,4.26,1.33.71,2.69,1.44,4.09,2.18l3,1.59,2-2.73c.69-.91,1.31-1.84,1.91-2.74A23.79,23.79,0,0,1,274.83,65c1.06-.93,2.1-1.88,3.16-2.84,4.33-3.93,8.42-7.65,13.1-10,9.44-4.8,19.49-2.18,26.23,6.86C323.67,67.51,326.64,77.85,326.4,90.6Z"/><path class="cls-1" d="M256,97.48c-4.13-3.94-9.11-4.09-12.73-.71s-3.49,7.89.05,12.39c3.19,4.06,7.2,8.21,8.43,12.9,2.64,10.09,5.16,20.57,5.18,30.89.07,34.88-8.77,68.22-20.89,100.86-1.45,3.9-1.86,8.16-2.75,12.26l3,1c1.6-2.55,3.66-4.93,4.73-7.67,5.79-14.83,11.77-29.6,16.86-44.66,8.27-24.43,14.72-49.3,14-75.29C271.42,123.88,268.09,109,256,97.48Z"/><path class="cls-1" d="M310.61,72.81C305.4,64,295.85,61.65,287,66.64c-4.45,2.51-8.12,6.31-10.82,8.48,6.44,11.09,13.42,20.47,17.53,30.9s5.37,21.9,7.95,33.25c1-1.14,2.22-2.43,3.26-3.86a62.32,62.32,0,0,0,11.72-45.57A45.33,45.33,0,0,0,310.61,72.81Z"/><path class="cls-1" d="M113.52,64.41c-10.31,1.34-15.14,9.22-17,18a79.71,79.71,0,0,0-1.39,23.53,56.2,56.2,0,0,0,15.36,34c8.33-40.25,8.33-40.25,25.7-63.29C130.3,69.69,123.84,63.07,113.52,64.41Z"/></svg>