<?xml version="1.0" encoding="utf-8"?>
<!-- Generator: Adobe Illustrator 19.1.0, SVG Export Plug-In . SVG Version: 6.00 Build 0)  -->
<svg version="1.1" id="Layer_1" xmlns="http://www.w3.org/2000/svg" xmlns:xlink="http://www.w3.org/1999/xlink" x="0px" y="0px"
	 width="400px" height="400px" viewBox="0 0 400 400" enable-background="new 0 0 400 400" xml:space="preserve">
<g id="Layer_x25_20151">
	<path fill="#333333" d="M201.567,209.191c23.358-13.929,39.013-39.435,39.013-68.607c0-44.091-35.744-79.833-79.834-79.833
		c-44.091,0-79.833,35.742-79.833,79.833c0,29.03,15.496,54.435,38.664,68.408c-35.474,15.669-60.233,51.153-60.233,92.428
		c0,10.741,1.694,21.082,4.801,30.792c0.171,0.919,0.47,1.792,0.873,2.604c1.636,3.293,5.024,5.561,8.951,5.561
		c5.523,0,10-4.477,10-10c0-0.368-0.023-0.731-0.062-1.089c-0.158-1.453-0.633-2.807-1.344-4.005
		c-2.314-7.546-3.564-15.557-3.564-23.862c0-43.303,33.837-78.688,76.511-81.191c1.732,0.112,3.475,0.189,5.236,0.189
		c1.624,0,3.233-0.064,4.834-0.159c42.483,2.701,76.109,37.993,76.109,81.16c0,8.803-1.401,17.278-3.99,25.216
		c-0.113,0.346-0.232,0.689-0.349,1.033c-0.242,0.862-0.381,1.767-0.381,2.707c0,5.523,4.477,10,10,10
		c3.449,0,6.491-1.747,8.288-4.403c0.982-1.451,1.58-3.176,1.684-5.033c2.852-9.339,4.403-19.247,4.403-29.52
		C261.344,260.321,236.797,224.961,201.567,209.191z M100.866,140.583c0-33.071,26.81-59.88,59.88-59.88s59.881,26.809,59.881,59.88
		c0,32.712-26.233,59.277-58.805,59.854c-0.492-0.007-0.983-0.019-1.478-0.019c-0.315,0-0.628,0.009-0.942,0.012
		C126.954,199.713,100.866,173.205,100.866,140.583z"/>
	<path fill="#333333" d="M280.88,208.066c23.358-13.93,39.012-39.435,39.012-68.607c0-43.932-35.488-79.563-79.356-79.822
		c-0.08-0.002-0.158-0.012-0.239-0.012c-0.027,0-0.053,0.004-0.08,0.004c-0.053,0-0.106-0.004-0.159-0.004
		c-0.135,0-0.267,0.01-0.402,0.01v0.022c-5.223,0.333-9.359,4.662-9.359,9.968c0,5.523,4.477,10,10,10
		c0.182,0,0.359-0.018,0.539-0.027c32.71,0.418,59.103,27.049,59.103,59.861c0,32.711-26.233,59.277-58.805,59.854
		c-0.492-0.008-0.983-0.02-1.478-0.02v0.026c-0.042,0-0.083-0.006-0.125-0.006c-5.523,0-10,4.477-10,10c0,5.523,4.477,10,10,10
		c0.144,0,0.283-0.016,0.426-0.021c0.034,0,0.067,0.002,0.101,0.002c1.626,0,3.238-0.063,4.84-0.159
		c42.48,2.704,76.103,37.995,76.103,81.16c0,8.804-1.401,17.278-3.99,25.216c-0.113,0.347-0.232,0.689-0.349,1.033
		c-0.242,0.862-0.381,1.768-0.381,2.707c0,5.523,4.477,10,10,10c3.449,0,6.491-1.746,8.288-4.403
		c0.604-1.658,1.165-3.336,1.684-5.032c2.852-9.34,4.403-19.247,4.403-29.521C340.656,259.196,316.109,223.836,280.88,208.066z"/>
</g>
</svg>
