<?xml version="1.0" encoding="utf-8"?>
<!-- Generator: Adobe Illustrator 19.1.0, SVG Export Plug-In . SVG Version: 6.00 Build 0)  -->
<svg version="1.1" id="Layer_1" xmlns="http://www.w3.org/2000/svg" xmlns:xlink="http://www.w3.org/1999/xlink" x="0px" y="0px"
	 width="400px" height="400px" viewBox="0 0 400 400" enable-background="new 0 0 400 400" xml:space="preserve">
<g id="Layer_x25_20198">
	<path fill="#333333" d="M129.502,330l30.5,0.072V333h0.35c1.426,9.296,8.303,37,39.65,37c30.392,0,37.779-26.69,39.5-37h0.5v-2.738
		l100.5,0.238c8.167,0,15.833-8.5,17.5-13.5s4-15.667-8-24s-23-9.333-44-41s-8-82-8-82s8.667-47-18-80s-60-37-60-37
		c0-23.333-20-23-20-23c-18.333,0.333-19,22-19,22c-21.333,2.333-43.667,17-61,38s-23,54.667-17,80s3.333,53.667-8,80
		s-41.333,40.667-48,45s-7.667,15-5,24s14.667,11,22,11s11.667-1.333,14-6s0.5-10-2.25-11.75c-4.612-2.935-9.75-2.25-9.75-2.25
		s23.667-3,49-51s8-93,8-93s-12.333-38.333,17-68s60-28,60-28s28.333-3.667,60,28s12,81,12,81s-9.5,48,13,82
		c24.113,36.437,49.5,49.5,49.5,49.5l-64-0.155V310l-30.5,0.073l-12-0.073c0,0-8,1.951-8,10.732V324v5c0,0-1.333,21-20,21
		s-20-23-20-23v-3v-3c0-9-8-11-8-11l-12,0.074l-30.5-0.074v0.5c0,0-9.5-0.5-9.5,9.5s9.5,10.5,9.5,10.5V330z"/>
</g>
</svg>
