<?xml version="1.0" encoding="utf-8"?>
<!-- Generator: Adobe Illustrator 19.1.0, SVG Export Plug-In . SVG Version: 6.00 Build 0)  -->
<svg version="1.1" id="Layer_1" xmlns="http://www.w3.org/2000/svg" xmlns:xlink="http://www.w3.org/1999/xlink" x="0px" y="0px"
	 width="400px" height="400px" viewBox="0 0 400 400" enable-background="new 0 0 400 400" xml:space="preserve">
<g id="Layer_x25_20125">
	<path fill="#333333" d="M205.636,95.96l54.73-11.536l-63.284,97.205c-3.017,4.634-1.705,10.833,2.933,13.846
		c4.635,3.012,10.837,1.7,13.853-2.933l63.63-97.738l11.727,55.62c1.14,5.404,6.443,8.86,11.844,7.717
		c5.401-1.143,8.855-6.45,7.716-11.854l-16.503-78.343c-0.595-2.825-2.33-5.111-4.618-6.497c-0.074-0.053-0.144-0.109-0.219-0.159
		c-0.017-0.011-0.032-0.024-0.048-0.035c-0.009-0.006-0.018-0.01-0.027-0.016c-0.268-0.174-0.543-0.334-0.827-0.482
		c-0.133-0.069-0.271-0.125-0.406-0.188c-0.161-0.075-0.32-0.154-0.485-0.221c-0.157-0.063-0.316-0.112-0.476-0.168
		c-0.149-0.051-0.297-0.107-0.449-0.152c-0.159-0.047-0.319-0.08-0.478-0.118c-0.159-0.038-0.317-0.08-0.478-0.11
		c-0.15-0.028-0.301-0.044-0.451-0.065c-0.174-0.024-0.347-0.053-0.523-0.068c-0.145-0.013-0.288-0.013-0.433-0.02
		c-0.182-0.008-0.363-0.02-0.546-0.018c-0.158,0.002-0.314,0.017-0.471,0.027c-0.169,0.01-0.337,0.013-0.505,0.032
		c-0.264,0.029-0.526,0.074-0.786,0.125c-0.062,0.011-0.124,0.016-0.186,0.029l-78.383,16.507c-5.416,1.14-8.877,6.456-7.73,11.873
		C194.904,93.637,200.222,97.101,205.636,95.96z"/>
	<path fill="#333333" d="M60.477,274.21c43.499,76.987,141.171,104.092,218.164,60.733c55.188-31.077,84.87-89.967,81.33-149.18
		c-0.026-0.429-0.058-0.858-0.087-1.286c-0.367-2.789-1.896-5.407-4.436-7.063c-4.618-3.01-10.802-1.7-13.814,2.927
		c-1.329,2.041-1.815,4.386-1.55,6.628c-0.011,0.003-0.021,0.009-0.033,0.011c3.113,51.835-22.867,103.391-71.181,130.591
		c-67.392,37.939-152.862,14.194-190.911-53.184C39.84,196.884,63.806,111.28,131.49,73.334c6.277-3.519,12.712-6.487,19.246-8.951
		c-0.01-0.052-0.013-0.101-0.012-0.152c2.489-0.539,4.772-2.018,6.271-4.319c3.021-4.64,1.704-10.856-2.943-13.885
		c-2.477-1.614-5.396-1.986-8.043-1.289c-0.619,0.163-1.221,0.385-1.801,0.664c-7.661,2.855-15.205,6.313-22.559,10.435
		C44.271,99.205,16.887,197.059,60.477,274.21z"/>
</g>
</svg>
