<?xml version="1.0" encoding="utf-8"?>
<!-- Generator: Adobe Illustrator 19.1.0, SVG Export Plug-In . SVG Version: 6.00 Build 0)  -->
<svg version="1.1" id="Layer_1" xmlns="http://www.w3.org/2000/svg" xmlns:xlink="http://www.w3.org/1999/xlink" x="0px" y="0px"
	 width="400px" height="400px" viewBox="0 0 400 400" enable-background="new 0 0 400 400" xml:space="preserve">
<g id="Layer_x25_20164_1_">
	<path fill="#323232" d="M267.425,116.387c-1.103-2.039-2.491-3.958-3.604-5.431c-3.542-4.687-7.814-8.893-12.304-12.667
		c-8.727-7.336-19.25-12.943-30.261-15.942c-1.623-0.442-19.634-3.353-19.634-2.759c0,0.061,0.001,0.123,0.001,0.185
		c-5.231,0.325-9.374,4.657-9.374,9.968c0,5.086,3.8,9.276,8.715,9.908c-0.005,0.076-0.012,0.151-0.018,0.227
		c16.476,0.255,31.954,7.303,43.116,19.341c4.435,4.781,7.648,13.191,15.254,13.191c5.523,0,10-4.477,10-10.001
		C269.317,120.277,268.421,118.23,267.425,116.387z"/>
	<path fill="#323232" d="M200,40.244c-66.223,0-119.906,53.683-119.906,119.906c0,30.239,11.198,57.86,29.668,78.953
		c3.957,4.518,8.248,8.734,12.833,12.614c0.085,0.096,0.147,0.168,0.163,0.187c4.078,5.043,8.274,9.921,11.569,15.603
		c1.807,3.116,3.778,6.283,4.979,9.695c0.712,2.022,1.054,4.135,1.193,6.27c0.102,1.583,0.095,3.148,0.036,4.708
		c-0.024,0.648-0.057,1.296-0.096,1.943c0.242,5.446,4.721,9.79,10.227,9.79h8.849h28.945c5.661,0,10.25-4.589,10.25-10.25
		c0-5.661-4.589-10.25-10.25-10.25h-25.683c0.074-0.835,0.118-1.677,0.118-2.527c0-0.917-0.042-1.822-0.103-2.723
		c-0.413-6.139-2.209-11.895-5.082-16.964c-4.044-7.135-10.73-11.953-17.245-16.794c-1.661-1.487-3.413-2.875-5.233-4.171
		c-21.51-18.328-35.154-45.61-35.154-76.083c0-55.186,44.736-99.922,99.922-99.922c55.186,0,99.922,44.736,99.922,99.922
		c0,15.256-3.436,30.192-10.227,43.829c-3.303,6.633-7.1,13.119-11.707,18.937c-6.44,8.131-15.127,13.985-22.887,20.736
		c-0.653,0.568-1.3,1.143-1.938,1.727c-4.066,3.717-8.489,7.246-11.275,12.093c-2.949,5.13-4.699,10.944-5.136,16.84
		c-0.073,0.988-0.123,1.983-0.123,2.989c0,6.688,2.628,13.056,3.255,19.655c0.573,6.038-0.67,12.64-2.932,18.243
		c-1.384,3.426-3.423,6.704-5.722,9.593c-7.393,9.293-18.072,14.431-29.061,15.075c-9.516,0.558-19.265-2.253-27.312-8.655
		c-3.525-2.805-6.546-6.219-8.962-10.017c-0.334-0.525-0.654-1.059-0.965-1.599c-1.821-2.463-4.737-4.066-8.036-4.066
		c-5.524,0-10,4.477-10,10c0,1.299,0.255,2.536,0.706,3.674c0.52,0.927,1.061,1.846,1.633,2.749
		c3.48,5.486,7.916,10.497,13.286,14.77c25.905,20.608,63.611,16.314,84.22-9.59c2.513-3.159,4.629-6.502,6.419-9.951
		c0.106-0.206,0.936-1.48,1.57-2.924c0.271-0.617,0.528-1.258,0.761-1.863c1.353-3.091,2.47-6.182,3.311-9.285
		c1.793-6.618,1.814-14.043,1.559-20.838c-0.192-5.11-0.681-10.403,1.172-15.293c3.113-8.219,8.648-16.116,14.398-22.691
		c0.298-0.341,4.485-4.472,4.229-4.96c2.669-2.399,6.029-5.606,9.709-9.771c3.449-3.905,7.18-8.652,10.892-14.395
		c12.11-18.73,19.147-41.046,19.147-65.01C319.906,93.927,266.223,40.244,200,40.244z"/>
</g>
</svg>
