<?xml version="1.0" encoding="utf-8"?>
<!-- Generator: Adobe Illustrator 20.1.0, SVG Export Plug-In . SVG Version: 6.00 Build 0)  -->
<svg version="1.1" id="Layer_1" xmlns="http://www.w3.org/2000/svg" xmlns:xlink="http://www.w3.org/1999/xlink" x="0px" y="0px"
	 width="400px" height="400px" viewBox="0 0 400 400" enable-background="new 0 0 400 400" xml:space="preserve">
<path fill="#333332" d="M377.1,225.7c-0.5-0.5-1-0.9-1.6-1.3L298.1,147c-4.4-4.4-11.6-4.4-16,0c-2.8,2.8-3.8,6.6-3.1,10.2l0,32.1
	l-167.5,0c-0.1,0-0.2,0-0.3,0c-0.4,0-0.8,0-1.3,0.1c-5.7,0.6-10.1,5.4-10.1,11.2c0,0.5,0,1,0.1,1.5l0,16.6l-51.4-51.4l51.4-51.4
	l0,16.8c0,0.4-0.1,0.8-0.1,1.1c0,6.2,5,11.3,11.3,11.3l100.4,0.1c6.2,0,11.3-5,11.3-11.3c0-6.2-5-11.3-11.3-11.3l-89-0.1l0-32.1
	c0.6-3.5-0.4-7.2-3.1-9.9c-1.9-1.9-4.4-3-7-3.3c-0.4,0-0.8-0.1-1.2-0.1c-3.8,0-7.1,1.8-9.1,4.6l-76.2,76.1c-0.5,0.4-1,0.8-1.5,1.3
	c-2.2,2.2-3.3,5.2-3.3,8.1c0,2.9,1.1,5.9,3.3,8.1c0.5,0.5,1,0.9,1.5,1.2l77.5,77.4c4.4,4.4,11.5,4.4,15.9,0
	c2.8-2.8,3.8-6.6,3.1-10.2l0-32l167.9,0.1c6.2,0,11.3-5,11.3-11.3c0-0.5,0-1.1-0.1-1.6l0-16.6l51.4,51.4l-51.4,51.4l0-17.7
	c0-6.2-5-11.3-11.3-11.3c-0.1,0-0.2,0-0.3,0l-100.2,0c-6.2,0-11.3,5-11.3,11.3c0,6.2,5,11.3,11.3,11.3l89.2,0l0,31.8
	c-0.6,3.5,0.4,7.3,3.1,10c2,2,4.4,3,7,3.3c0.4,0,0.8,0.1,1.2,0.1c3.7,0,7-1.8,9.1-4.6l76.1-76.1c0.5-0.4,1.1-0.8,1.5-1.3
	c2.2-2.2,3.3-5.2,3.3-8.1C380.4,230.9,379.3,227.9,377.1,225.7z"/>
</svg>
