<?xml version="1.0" encoding="utf-8"?>
<!-- Generator: Adobe Illustrator 19.1.0, SVG Export Plug-In . SVG Version: 6.00 Build 0)  -->
<svg version="1.1" id="Layer_1" xmlns="http://www.w3.org/2000/svg" xmlns:xlink="http://www.w3.org/1999/xlink" x="0px" y="0px"
	 width="400px" height="400px" viewBox="0 0 400 400" enable-background="new 0 0 400 400" xml:space="preserve">
<g id="Layer_x25_20144">
	<path fill="#333333" d="M60,349.548c0,5.522-4.477,10-10,10l0,0c-5.523,0-10-4.478-10-10v-219c0-5.523,4.477-10,10-10l0,0
		c5.523,0,10,4.477,10,10V349.548z"/>
	<path fill="#333333" d="M60,89.548c0,5.522-4.477,10-10,10l0,0c-5.523,0-10-4.478-10-10v-39c0-5.523,4.477-10,10-10l0,0
		c5.523,0,10,4.477,10,10V89.548z"/>
	<path fill="#333333" d="M360,89.548c0,5.522-4.477,10-10,10l0,0c-5.523,0-10-4.478-10-10v-39c0-5.523,4.477-10,10-10l0,0
		c5.523,0,10,4.477,10,10V89.548z"/>
	<path fill="#333333" d="M359,349.548c0,5.522-4.477,10-10,10l0,0c-5.523,0-10-4.478-10-10v-219c0-5.523,4.477-10,10-10l0,0
		c5.523,0,10,4.477,10,10V349.548z"/>
	<path fill="#333333" d="M50.342,360c-5.522,0-10-4.477-10-10l0,0c0-5.523,4.478-10,10-10h299c5.523,0,10,4.477,10,10l0,0
		c0,5.523-4.477,10-10,10H50.342z"/>
	<path fill="#333333" d="M50.342,141c-5.522,0-10-4.477-10-10l0,0c0-5.523,4.478-10,10-10h299c5.523,0,10,4.477,10,10l0,0
		c0,5.523-4.477,10-10,10H50.342z"/>
	<path fill="#333333" d="M109.342,200c-5.522,0-10-4.477-10-10l0,0c0-5.523,4.478-10,10-10h180c5.523,0,10,4.477,10,10l0,0
		c0,5.523-4.477,10-10,10H109.342z"/>
	<path fill="#333333" d="M50.342,60c-5.522,0-10-4.477-10-10l0,0c0-5.523,4.478-10,10-10h299c5.523,0,10,4.477,10,10l0,0
		c0,5.523-4.477,10-10,10H50.342z"/>
	<path fill="#333333" d="M50.342,100c-5.522,0-10-4.477-10-10l0,0c0-5.523,4.478-10,10-10h299c5.523,0,10,4.477,10,10l0,0
		c0,5.523-4.477,10-10,10H50.342z"/>
</g>
</svg>
