<?xml version="1.0" encoding="utf-8"?>
<!-- Generator: Adobe Illustrator 19.1.0, SVG Export Plug-In . SVG Version: 6.00 Build 0)  -->
<svg version="1.1" id="Layer_1" xmlns="http://www.w3.org/2000/svg" xmlns:xlink="http://www.w3.org/1999/xlink" x="0px" y="0px"
	 viewBox="0 0 400 400" enable-background="new 0 0 400 400" xml:space="preserve">
<g>
	<path d="M261.108,220.135c1.534-1.014,3.012-1.557,3.762-2.616c0.653-0.923,0.592-2.422,0.65-3.676
		c0.065-1.417-0.13-2.844-0.141-4.267c-0.019-2.478,1.9-4.941,4.273-5.889c2.083-0.832,4.193-1.702,6.08-2.891
		c1.402-0.883,2.618-2.038,2.665-4.141c0.066-2.944-1.059-5.349-2.421-7.786c-1.008-1.802-1.825-3.71-2.757-5.556
		c-0.539-1.069-1.168-2.093-1.699-3.165c-0.424-0.854-0.85-1.725-1.117-2.634c-0.453-1.543-0.5-3.268-1.22-4.657
		c-1.512-2.917-0.815-5.951-0.748-8.908c0.036-1.586,1.019-3.155,1.594-4.724c0.394-1.077,0.768-2.166,1.245-3.206
		c0.555-1.212,1.259-2.355,1.811-3.568c0.461-1.013,0.769-2.093,1.19-3.126c0.53-1.301,1.106-2.583,1.663-3.873
		c0.043-0.099,0.116-0.191,0.137-0.293c0.368-1.812,0.947-3.613,1.045-5.44c0.176-3.279,0.26-6.59,0.01-9.858
		c-0.212-2.762-0.663-5.529-1.756-8.163c-0.608-1.466-0.675-3.148-1.166-4.675c-0.459-1.428-1.187-2.768-1.738-4.17
		c-0.44-1.12-0.704-2.315-1.203-3.405c-0.825-1.801-1.782-3.541-2.673-5.313c-0.424-0.844-0.773-1.73-1.247-2.543
		c-0.871-1.496-1.855-2.928-2.707-4.435c-0.834-1.475-1.437-3.093-2.369-4.497c-1.192-1.796-2.581-3.466-3.944-5.143
		c-1.25-1.538-2.528-3.059-3.884-4.502c-2.003-2.132-4.027-4.251-6.156-6.255c-1.501-1.414-3.128-2.716-4.813-3.906
		c-1.709-1.208-3.571-2.198-5.344-3.319c-2.881-1.82-5.713-3.719-8.63-5.479c-1.007-0.607-2.222-0.859-3.312-1.341
		c-1.137-0.503-2.234-1.095-3.356-1.632c-0.284-0.136-0.604-0.194-0.896-0.315c-1.383-0.575-2.746-1.2-4.146-1.729
		c-1.206-0.456-2.455-0.794-3.677-1.209c-0.81-0.275-1.587-0.665-2.412-0.878c-1.644-0.425-3.314-0.751-4.967-1.142
		c-2.362-0.559-4.706-1.206-7.083-1.683c-1.22-0.245-2.498-0.197-3.748-0.296c-3.513-0.277-7.026-0.768-10.54-0.777
		c-2.722-0.007-5.469,0.45-8.16,0.948c-2.406,0.445-4.802,1.081-7.105,1.905c-1.996,0.714-3.847,1.827-5.775,2.735
		c-1.627,0.765-3.413,1.282-4.88,2.277c-2.315,1.57-4.527,3.332-6.588,5.225c-2.596,2.384-5.106,4.883-7.437,7.523
		c-1.362,1.543-2.318,3.449-3.43,5.208c-0.756,1.195-1.454,2.427-2.203,3.626c-0.492,0.787-1.14,1.495-1.518,2.329
		c-0.508,1.123-0.76,2.361-1.238,3.5c-0.462,1.102-1.136,2.114-1.596,3.217c-0.496,1.189-0.847,2.438-1.269,3.658
		c-0.284,0.821-0.644,1.622-0.857,2.46c-0.425,1.677-0.738,3.382-1.158,5.06c-0.559,2.23-1.175,4.446-1.767,6.668
		c-0.028,0.105-0.059,0.21-0.076,0.317c-0.365,2.324-0.776,4.641-1.079,6.973c-0.415,3.191-0.713,6.397-1.129,9.587
		c-0.239,1.836-0.498,3.684-0.96,5.472c-0.396,1.531-1.105,2.979-1.652,4.472c-0.404,1.103-0.695,2.253-1.167,3.324
		c-1.163,2.635-2.633,4.859-5.41,6.32c-1.744,0.917-3.388,0.931-4.9,0.566c-1.764-0.425-3.448-1.586-4.497-3.206
		c-1.361-2.102-2.671-4.223-3.112-6.811c-0.296-1.74-1.105-3.393-1.68-5.086c-0.035-0.102-0.044-0.215-0.056-0.324
		c-0.639-5.542-1.615-11.07-1.005-16.68c0.23-2.119,0.576-4.236,1.039-6.316c0.532-2.391,1.124-4.785,1.931-7.093
		c0.707-2.021,1.762-3.918,2.634-5.883c0.423-0.952,0.749-1.948,1.176-2.898c0.725-1.615,1.473-3.222,2.256-4.81
		c0.534-1.083,1.107-2.151,1.729-3.187c0.758-1.263,1.586-2.483,2.381-3.723c0.879-1.37,1.731-2.758,2.642-4.105
		c0.605-0.894,1.268-1.752,1.95-2.589c1.262-1.547,2.484-3.137,3.856-4.582c2.073-2.183,4.2-4.324,6.419-6.357
		c1.795-1.644,3.701-3.184,5.672-4.614c1.28-0.929,2.766-1.574,4.155-2.354c2.238-1.257,4.44-2.585,6.724-3.751
		c1.084-0.554,2.345-0.75,3.487-1.206c1.117-0.447,2.186-1.016,3.273-1.537c0.139-0.067,0.249-0.213,0.392-0.249
		c1.567-0.398,3.154-0.73,4.705-1.184c1.692-0.496,3.351-1.102,5.024-1.661c0.155-0.052,0.305-0.129,0.464-0.153
		c2.522-0.379,5.11-0.511,7.553-1.177c4.104-1.12,8.368-0.36,12.392-1.196c3.51-0.729,7.032-0.951,10.355-0.394
		c3.755,0.628,7.549,0.089,11.165,0.887c2.185,0.482,4.355,0.53,6.507,0.902c2.985,0.517,5.943,1.215,8.887,1.94
		c2.31,0.569,4.621,1.182,6.856,1.985c2.071,0.744,4.028,1.8,6.062,2.654c1.129,0.474,2.36,0.721,3.463,1.243
		c1.682,0.797,3.291,1.75,4.935,2.627c0.79,0.421,1.614,0.783,2.383,1.238c1.531,0.904,3.04,1.846,4.55,2.786
		c1.67,1.04,3.37,2.037,4.986,3.155c2.799,1.936,5.533,3.948,7.88,6.462c1.065,1.141,2.517,1.912,3.638,3.009
		c1.449,1.419,2.747,2.992,4.101,4.507c1.469,1.644,3.006,3.237,4.366,4.968c1.001,1.274,1.739,2.75,2.64,4.106
		c1.04,1.564,2.136,3.091,3.194,4.643c0.548,0.804,1.09,1.615,1.597,2.445c0.935,1.529,1.861,3.064,2.752,4.618
		c0.421,0.733,0.802,1.497,1.117,2.281c0.76,1.897,1.412,3.84,2.217,5.717c0.842,1.963,1.851,3.854,2.709,5.811
		c0.43,0.982,0.75,2.025,1.005,3.069c0.422,1.722,0.752,3.467,1.121,5.202c0.56,2.635,1.212,5.255,1.647,7.91
		c0.263,1.607,0.348,3.281,0.235,4.905c-0.224,3.212-0.519,6.43-1.035,9.604c-0.227,1.399-1.094,2.687-1.619,4.046
		c-0.44,1.14-0.749,2.333-1.217,3.46c-0.717,1.729-1.518,3.424-2.29,5.13c-0.548,1.21-1.126,2.405-1.657,3.622
		c-0.607,1.391-1.189,2.794-1.75,4.204c-0.136,0.341-0.203,0.733-0.204,1.101c-0.014,3.177-0.2,6.371,0.074,9.524
		c0.151,1.742,1.073,3.421,1.672,5.12c0.334,0.947,0.727,1.874,1.079,2.815c0.724,1.94,1.348,3.924,2.182,5.815
		c0.874,1.981,1.905,3.896,2.944,5.799c0.85,1.558,1.852,3.033,2.716,4.585c1.558,2.8-0.288,7.54-3.231,8.646
		c-2.427,0.912-5.015,1.666-7.108,3.105c-1.489,1.024-2.875,2.4-3.565,4.593c-0.826,2.624,0.656,4.777,0.31,7.211
		c-0.323,2.268-1.304,4.061-3.488,4.835c-1.61,0.571-1.639,2.133-0.069,3.748c2.242,2.308,1.85,4.703-0.989,6.143
		c-1.28,0.649-2.593,1.258-3.783,2.048c-0.596,0.396-1.082,1.098-1.381,1.768c-0.505,1.131-0.798,2.354-1.222,3.523
		c-1.053,2.906-0.574,6.019-1.175,8.93c-0.41,1.983-1.017,4.08-2.395,5.91c-1.151,1.528-1.844,3.43-3.374,4.725
		c-0.594,0.503-1.181,1.07-1.871,1.396c-2.901,1.369-5.889,1.801-8.968,0.552c-0.293-0.119-0.612-0.19-0.925-0.245
		c-2.133-0.377-4.331-0.539-6.385-1.17c-2.236-0.687-4.34-1.807-6.501-2.736c-1.684-0.724-3.389-1.406-5.047-2.185
		c-0.99-0.465-1.908-1.081-2.859-1.63c-0.089-0.051-0.17-0.132-0.265-0.154c-2.816-0.625-5.658-1.739-8.534-0.952
		c-2.604,0.712-5.051,2.009-6.905,4.09c-1.833,2.058-3.179,4.409-4.094,7.037c-0.806,2.314-1.944,4.514-2.714,6.838
		c-0.571,1.724-0.525,3.675-1.222,5.328c-0.92,2.185-0.346,4.582-1.097,6.599c-0.779,2.095-0.446,4.157-0.877,6.177
		c-0.418,1.961-1.13,3.858-1.69,5.789c-0.105,0.363-0.136,0.756-0.144,1.136c-0.036,1.702-0.853,3.097-1.688,4.502
		c-0.461,0.775-0.922,1.579-1.193,2.431c-0.381,1.196-1.088,2.022-2.298,2.196c-1.725,0.248-3.509,0.336-4.707-1.298
		c-1.232-1.68-2.076-3.512-2.001-5.691c0.075-2.19-0.098-4.395,0.079-6.574c0.202-2.489,0.635-4.962,1.039-7.431
		c0.245-1.5,0.343-3.123,1.013-4.432c0.997-1.947,0.37-4.092,1.035-5.905c0.68-1.855,0.558-3.691,0.909-5.51
		c0.526-2.722,1.118-5.451,1.962-8.087c0.783-2.446,1.729-4.888,2.97-7.129c1.821-3.289,4.074-6.332,6.881-8.869
		c0.737-0.666,1.97-0.747,2.855-1.291c2.57-1.581,5.372-0.915,8.054-0.78c1.499,0.075,2.984,0.937,4.425,1.561
		c1.614,0.699,3.189,1.495,4.747,2.314c1.214,0.639,2.389,1.357,3.556,2.081c0.863,0.535,1.631,1.256,2.542,1.675
		c1.149,0.528,2.545,0.61,3.578,1.28c2.159,1.4,4.475,0.785,6.728,0.856c2.064,0.065,3.615-1.108,4.814-2.65
		c1.339-1.722,2.506-3.509,3.276-5.646c0.92-2.554,1.59-5.061,1.755-7.777c0.124-2.041,0.315-4.232,1.171-6.025
		c0.681-1.424,2.23-2.849,3.716-3.39c3.571-1.3,3.223-2.261,2.93-5.477c-0.051-0.557-0.685-1.07-1.072-1.586
		C261.916,221.113,261.52,220.647,261.108,220.135z"/>
	<path d="M186.381,343.323c-0.728-7.667,6.936-14.497,14.143-14.245c2.834,0.099,5.292,0.942,7.703,2.338
		c4.628,2.681,6.492,7.259,6.51,11.946c0.028,7.586-6.117,13.986-13.986,14.272C193.321,357.906,185.951,351.659,186.381,343.323z"
		/>
</g>
</svg>
