<?xml version="1.0" encoding="utf-8"?>
<!-- Generator: Adobe Illustrator 19.1.0, SVG Export Plug-In . SVG Version: 6.00 Build 0)  -->
<svg version="1.1" id="Layer_1" xmlns="http://www.w3.org/2000/svg" xmlns:xlink="http://www.w3.org/1999/xlink" x="0px" y="0px"
	 width="400px" height="400px" viewBox="0 0 400 400" enable-background="new 0 0 400 400" xml:space="preserve">
<g id="Layer_x25_201104">
	<path fill="#323232" d="M319.539,230.27l0.293-39.734c0-0.54-0.055-1.065-0.137-1.583c-0.495-5.046-4.779-9.024-9.95-9.024H99.321
		c0-0.042,0-0.082,0-0.125c0.215-55.296,45.481-99.763,101.327-99.531c44.312,0.183,81.768,29.362,94.699,69.604
		c0.542,5.012,4.783,8.913,9.938,8.913c5.523,0,10-4.477,10-10c0-1.802-0.483-3.489-1.317-4.949
		c-14.67-49.778-60.076-84-114.457-83.917c-65.965,0.101-119.705,54.435-119.688,121.009c0.001,2.649,0.093,5.276,0.262,7.883
		l0.081-0.001v50.526c-0.001,0.192-0.01,0.382-0.009,0.574c0.001,0.211,0.008,0.42,0.009,0.631v5.989
		c0,0.909,0.132,1.785,0.359,2.621c0.079,1.011,0.169,2.019,0.273,3.024c6.254,60.808,57.548,108.507,119.379,108.413
		c65.964-0.101,119.705-54.435,119.688-121.009C319.864,236.32,319.755,233.244,319.539,230.27z M199.04,340.245
		c-50.725-0.21-91.714-38.106-97.964-87.412c-0.251-1.977-0.607-4.037-0.92-6.116c0.002-0.061,0.009-0.12,0.009-0.181v-46.607
		h199.742l0.361,44.695C297.993,298.09,253.562,340.471,199.04,340.245z"/>
	<path fill="#323232" d="M264.457,220.96c4.155,3.878,4.365,10.218,0.446,14.137l-73.806,73.806
		c-3.919,3.919-10.259,3.709-14.137-0.446l0,0c-3.854-4.129-3.819-10.599,0.056-14.473l72.968-72.968
		C253.858,217.141,260.328,217.106,264.457,220.96L264.457,220.96z"/>
	<path fill="#323232" d="M158.955,257.9c4.835-3.045,11.05-1.624,13.855,3.19l19.818,34.659c2.805,4.814,0.975,10.922-4.057,13.626
		l0,0c-5.001,2.687-11.281,0.994-14.053-3.765l-19.218-33.628C152.527,267.223,154.151,260.926,158.955,257.9L158.955,257.9z"/>
</g>
</svg>
