<?xml version="1.0" encoding="utf-8"?>
<!-- Generator: Adobe Illustrator 20.1.0, SVG Export Plug-In . SVG Version: 6.00 Build 0)  -->
<svg version="1.1" id="Layer_1" xmlns="http://www.w3.org/2000/svg" xmlns:xlink="http://www.w3.org/1999/xlink" x="0px" y="0px"
	 width="400px" height="400px" viewBox="0 0 400 400" enable-background="new 0 0 400 400" xml:space="preserve">
<path fill="#323232" d="M343.2,114c0.2-1,0.2-1.9,0.1-2.8c0-0.1,0-0.1,0-0.2c0-5.5-4.5-10-10-10h-56.9V71c0-2.1-0.7-4-1.8-5.7
	c-1.8-2.7-4.9-4.5-8.3-4.5h-133c-5.5,0-10,4.5-10,10c0,0.4,0,0.8,0.1,1.2V101H66.5c-5.5,0-10,4.5-10,10c0,5.5,4.5,10,10,10h67
	c5.5,0,10-4.5,10-10c0-0.4,0-0.8-0.1-1.2V80.8h113v28.9c0,0.4-0.1,0.8-0.1,1.2c0,5.5,4.5,10,10,10h55.6l-30.4,199.9h-54.3L268.3,153
	c1-5.4-2.5-10.7-8-11.7c-5.4-1-10.7,2.5-11.7,8l-31.8,171.6h-39.5l-31.8-171.6c-1-5.4-6.3-9-11.7-8c-5.4,1-9,6.3-8,11.7L157,320.9
	h-48.7L76.6,149.3c-1-5.4-6.3-9-11.7-8c-5.4,1-9,6.3-8,11.7l33.3,179.9c1,5.3,6,8.8,11.4,8h65.9c1,0.2,2,0.2,3.1,0h53
	c1,0.2,2.1,0.2,3.1,0h71.8c4.9,0.8,9.6-2.2,11.1-6.9c0.2-0.7,0.4-1.4,0.4-2.2L343.2,114z"/>
</svg>
