<svg id="Layer_1" data-name="Layer 1" xmlns="http://www.w3.org/2000/svg" viewBox="0 0 400 400"><defs><style>.cls-1{fill:#333;}</style></defs><title>icon</title><path class="cls-1" d="M262,258.23a10,10,0,0,0,0-14.14L205.4,187.52l-0.16-.15c-0.18-.18-0.37-0.35-0.57-0.51l-0.4-.3-0.39-.29-0.45-.27-0.39-.23-0.46-.22-0.43-.2-0.44-.16-0.49-.17-0.44-.11-0.51-.12-0.51-.08-0.46-.07c-0.31,0-.62,0-0.94,0H198a10,10,0,0,0-7.41,2.91L134,244.09a10,10,0,1,0,14.14,14.14l40.16-40.17V330a10,10,0,1,0,20,0V218.73l39.5,39.5A10,10,0,0,0,262,258.23Z"/><path class="cls-1" d="M149,319.07a10.08,10.08,0,0,0,1.23-.08h-2.46A10.08,10.08,0,0,0,149,319.07Z"/><path class="cls-1" d="M249,319.07a10.08,10.08,0,0,0,1.23-.08h-2.46A10.08,10.08,0,0,0,249,319.07Z"/><path class="cls-1" d="M344.35,211.28a69,69,0,0,0,8.56-33.38c0-38-30.45-68.72-68-68.72a67.35,67.35,0,0,0-45.79,17.93c-1.28-4.84-6.14-13.9-7.22-16.16s-2.28-4.53-3.56-6.71a91.68,91.68,0,0,0-8.75-12.45,90.34,90.34,0,0,0-10.75-10.87A88.31,88.31,0,0,0,196.26,72a86.8,86.8,0,0,0-22.83-9.33C125.93,50.72,77.86,80,66.07,128a90.41,90.41,0,0,0,1.1,47.25l-1.31,1A68.83,68.83,0,0,0,39,230.91c0,38,30.44,68.72,68,68.72,1.1,0,2.2,0,3.29-.08h40a10.1,10.1,0,0,0-.62-20.1v-0.06h-21.2c-5.73,0-11.45,0-17.17,0-5.49,0-11,0-16.37-1.43a47.7,47.7,0,0,1-13.16-5.68A48.68,48.68,0,0,1,61.23,246c-0.52-1.61-1.41-3.7-1.41-5.41A49.41,49.41,0,0,1,72.1,197.23a47.41,47.41,0,0,1,12.17-9.3l0.24-.13a10,10,0,0,0,4.77-11.48,9.85,9.85,0,0,0-.69-1.77,74.87,74.87,0,0,1-2.9-9.66s0-.09,0-0.1A69.08,69.08,0,0,1,134,83.34a67,67,0,0,1,34.51-.47A67.4,67.4,0,0,1,196,97.07c9.23,7.9,16.8,18.75,22.51,29.41a72.53,72.53,0,0,1,4.3,9.55c2.29,6.32,3.75,14.88,12.23,14.88a10.17,10.17,0,0,0,4.42-1l0.07,0a10,10,0,0,0,2.32-1.6l2.59-1.79c3.15-2.17,7.25-5,10.71-7.35,2.95-2,5.42-3.66,6.42-4.27a47.83,47.83,0,0,1,23.37-6.06c26.85,0,48.63,22,48.63,49.14a49.33,49.33,0,0,1-5.84,23.36l-0.06,0a49.54,49.54,0,0,1-3.62,6.21h0a10,10,0,0,0,2.21,14l0.69,0.45a31.42,31.42,0,0,1,13.9,25.48q0,0.79,0,1.59a30.21,30.21,0,0,1-26,30,31,31,0,0,1-5.1.43c-0.58,0-1.15,0-1.72-.05H248.65s0,0,0,0a10.1,10.1,0,0,0-.92,20.11h60.33c0.93,0.05,1.87.08,2.82,0.08C338.56,299.63,361,277,361,249A50.76,50.76,0,0,0,344.35,211.28Z"/></svg>