<?xml version="1.0" encoding="utf-8"?>
<!-- Generator: Adobe Illustrator 19.1.0, SVG Export Plug-In . SVG Version: 6.00 Build 0)  -->
<svg version="1.1" id="Layer_1" xmlns="http://www.w3.org/2000/svg" xmlns:xlink="http://www.w3.org/1999/xlink" x="0px" y="0px"
	 width="400px" height="400px" viewBox="0 0 400 400" enable-background="new 0 0 400 400" xml:space="preserve">
<g id="Layer_x25_20133">
	<path fill="#333333" d="M40,50v300c0,5.523,4.477,10,10,10s10-4.477,10-10V58.375h58c0.75,0,5.5,0.5,8,0.75
		c18,2.25,36.5,5.75,54.75,8.5c9,1.5,18.5,2.75,27.75,3.75c6.25,0.75,13,1.25,19.5,1.75l26.75,0.25c12.75-0.5,26.25-2.75,38.75-5
		c14.75-2.75,43.75-9,44.25-9c1.75,0,3.25,1.25,3.75,3.75v107.25c0,1.016,0.272,2.018,0.75,2.955v62.045c-0.75,2-1.75,4.75-4,4.75
		c-0.75,0-34-7.5-51-10.75c-5.5-1-11.25-1.75-16.5-2.5c-5-0.5-10-0.75-15-1.25H231.5c-0.75,0-6.25,0.5-9,0.5
		c-24.75,1.5-50.75,6.75-75.25,10.5c-8.45,1.3-25.75,2.875-25.75,2.875h-11c-5.523,0-10,4.477-10,10s4.477,10,10,10l11-0.345
		c17.266-1.154,42.711-6.473,54.5-8.03c11.75-1.75,23.5-4,35.25-5l20-1.5H256c6,0,34.25,4.75,34.75,4.75c7,1.5,43,10,47.5,10
		c10.75,0,22.5-10,23-23.5v-106.75c0-1.065-0.276-2.077-0.75-3.01v-63.74c0-0.75-0.75-3.25-1-4.75c-2.75-11-12.75-17.5-21.25-17.5
		c-3,0-42.25,8.75-54.75,10.75c-4.5,0.75-9,1.5-13.5,2c-4.75,0.5-9.75,1-14.75,1.5h-23c-20,0-71.25-9.5-83.25-11.25
		c-10.25-1.5-20.5-2.75-31-3.75H55.75c-1.319,0.11-2.507,0.411-3.555,0.865C51.488,40.081,50.755,40,50,40
		C44.477,40,40,44.477,40,50z"/>
</g>
</svg>
