<svg xmlns="http://www.w3.org/2000/svg" viewBox="0 0 400 400"><defs><style>.a{fill:#333;}</style></defs><title>icon</title><path class="a" d="M360,194.42a21.23,21.23,0,0,0-1.39-6.63,46.93,46.93,0,0,0-2.58-5.67q-1.38-2.6-3.06-5.33-1.49-2.42-2.86-4.78-1.28-2.2-2.22-4.14a15.23,15.23,0,0,1-1-2.53,11,11,0,0,1-.18-2.33c0-1.59.06-3.19,0.17-4.86s0.24-3.53.41-5.54c0.19-2.16.31-4.22,0.36-6.2a49.56,49.56,0,0,0-.22-6.12,21.07,21.07,0,0,0-1.7-6.64l-0.07-.15a25.76,25.76,0,0,0-5.86-7.53q-2-1.89-4.44-3.73l-1-.77L331.11,119,327,115.85a37.12,37.12,0,0,1-3-2.49q-0.53-.5-0.91-0.91c-0.21-.24-0.42-0.48-0.59-0.72a12.21,12.21,0,0,1-1.14-2.21q-0.9-2.14-1.7-4.49c-0.58-1.67-1.15-3.41-1.73-5.24q-1-3.06-2.08-5.88a53.43,53.43,0,0,0-2.52-5.51,20.63,20.63,0,0,0-4.12-5.5L309,82.76l-0.16-.14a26.47,26.47,0,0,0-8.47-4.54q-4.14-1.43-8.62-2.58c-2.61-.67-5.26-1.38-8-2.15a16,16,0,0,1-4.22-1.68,9.59,9.59,0,0,1-.78-0.56c-0.28-.22-0.6-0.5-1-0.83a36.9,36.9,0,0,1-2.67-2.79l-3.46-3.94-3.51-4q-2-2.27-4-4.17a40.12,40.12,0,0,0-3.44-2.89A17.39,17.39,0,0,0,256,50h0l-0.16-.05-0.08,0h0a24.77,24.77,0,0,0-9.61-1.08q-4.37.27-9,.94c-2.58.38-5.25,0.74-8.31,1.15a16.37,16.37,0,0,1-4.54.1,11.12,11.12,0,0,1-2.42-.75c-1.36-.57-2.81-1.23-4.37-2-1.77-.87-3.42-1.69-5-2.51-1.93-1-3.77-1.87-5.55-2.66a47.23,47.23,0,0,0-5.78-2.16,21.28,21.28,0,0,0-6.71-.94,24.15,24.15,0,0,0-9.64,2.64q-3.95,1.92-8,4.31-3.64,2.17-7.23,4.21a18,18,0,0,1-4.31,1.91,16.8,16.8,0,0,1-4.56.23c-2.68-.14-5.43-0.33-8.26-0.56-3.19-.25-6.2-0.37-9.06-0.34a24.12,24.12,0,0,0-9.81,1.93,19.83,19.83,0,0,0-4.31,2.74,35,35,0,0,0-3.39,3.2q-1.89,2-3.73,4.44l-0.91,1.19-0.36.47L119,68.93l-3.16,4.16a38,38,0,0,1-2.49,3c-0.34.37-.65,0.68-0.93,0.93s-0.48.41-.69,0.57a11.58,11.58,0,0,1-2.14,1.09c-1.41.58-2.91,1.14-4.51,1.7s-3.48,1.17-5.23,1.73q-3,1-5.88,2.07a53.43,53.43,0,0,0-5.51,2.52,20.72,20.72,0,0,0-5.5,4.13,21,21,0,0,0-3.74,5.77A48.65,48.65,0,0,0,77,102.32q-0.87,2.83-1.64,5.93c-0.44,1.79-.91,3.59-1.39,5.41q-0.66,2.46-1.38,4.62a11.45,11.45,0,0,1-1,2.32c-0.07.11-.27,0.38-0.49,0.67s-0.49.58-.83,0.95a38.81,38.81,0,0,1-2.83,2.72l-3.94,3.46-4,3.51q-2.28,2-4.12,4a25.66,25.66,0,0,0-5.33,7.93l-0.09.24a24.85,24.85,0,0,0-1.19,9.77q0.24,4.37.95,9.07,0.63,4.16,1.13,8.21a16.73,16.73,0,0,1,.08,4.58,19,19,0,0,1-1.6,4.5q-1.76,3.73-3.62,7.45-2.06,4.11-3.71,8.11a23.71,23.71,0,0,0-2,9.83,21.16,21.16,0,0,0,1.4,6.63,51.59,51.59,0,0,0,2.49,5.58q1.42,2.75,3.07,5.47,1.48,2.45,2.86,4.84,1.27,2.2,2.29,4.22a11.14,11.14,0,0,1,.9,2.28,11.87,11.87,0,0,1,.23,2.55c0,1.48-.05,3.06-0.17,4.75-0.12,1.87-.26,3.75-0.42,5.64q-0.26,3.18-.3,6.24a53.16,53.16,0,0,0,.24,6.05,21.59,21.59,0,0,0,1.51,6.24h0l0.06,0.13,0.05,0.14h0a17.17,17.17,0,0,0,2.83,4.53,40.66,40.66,0,0,0,3.12,3.23q2,1.91,4.45,3.74l1,0.78,1,0.77,2.18,1.67L73,284.21a38.61,38.61,0,0,1,3,2.48q0.5,0.47.91,0.91c0.23,0.25.44,0.51,0.64,0.77a17,17,0,0,1,2,4.13c0.88,2.47,1.8,5.11,2.81,8.06s2.09,5.77,3.21,8.41A24,24,0,0,0,91,317.29,20.81,20.81,0,0,0,96.79,321a51.9,51.9,0,0,0,5.7,2.11q2.91,0.9,6,1.63c1.78,0.43,3.57.88,5.36,1.35q2.37,0.62,4.43,1.32a12.32,12.32,0,0,1,2.24,1c0.25,0.17.5,0.34,0.73,0.53s0.64,0.53,1,.84a38.4,38.4,0,0,1,2.68,2.8l3.44,3.93,2.1,2.38,1.2,1.36,0.21,0.24q2,2.25,4,4.16a40.53,40.53,0,0,0,3.43,2.89,17.27,17.27,0,0,0,4.65,2.49h0l0.25,0.08,0.1,0h0a24.14,24.14,0,0,0,9.67,1.1q4.29-.28,9-1,4.3-.65,8.22-1.16a16.11,16.11,0,0,1,4.52-.1,15.05,15.05,0,0,1,2.58.82q2,0.8,4.3,1.93c1.64,0.81,3.3,1.65,5,2.52q2.83,1.48,5.66,2.7a50.91,50.91,0,0,0,5.74,2.1,19.7,19.7,0,0,0,13.33-.46,46.69,46.69,0,0,0,5.66-2.58q2.62-1.41,5.27-3c1.83-1.09,3.39-2,4.84-2.85s3-1.68,4.27-2.33a11.13,11.13,0,0,1,2.32-.93,11.84,11.84,0,0,1,2.5-.22q2.25,0,4.82.14c1.73,0.1,3.55.24,5.49,0.42q3.2,0.29,6.28.35a50.14,50.14,0,0,0,6.16-.22,20.33,20.33,0,0,0,6.2-1.57h0l0.29-.13,0.2-.08h0a17.45,17.45,0,0,0,4.28-2.71,41.19,41.19,0,0,0,3.25-3.14c1.22-1.31,2.44-2.76,3.67-4.37l3.22-4.2,3.21-4.22c0.88-1.16,1.72-2.16,2.5-3,0.32-.34.62-0.64,0.9-0.89s0.43-.37.61-0.51a19.45,19.45,0,0,1,4.24-2q3.71-1.31,7.84-2.66c3-1,5.85-2,8.51-3.17A21.62,21.62,0,0,0,322,300.51q1.42-4.11,2.57-8.7c0.73-2.9,1.42-5.55,2.09-8a18.11,18.11,0,0,1,1.71-4.4c0-.07.22-0.31,0.43-0.58s0.52-.63.84-1c0.77-.83,1.71-1.72,2.81-2.69l3.89-3.4,4-3.53c1.54-1.36,2.92-2.7,4.17-4a41.28,41.28,0,0,0,2.88-3.42,17.5,17.5,0,0,0,2.49-4.66h0l0.05-.17,0.07-.18h0a21.22,21.22,0,0,0,1.13-6.4,49.15,49.15,0,0,0-.21-6.11c-0.19-2-.44-4-0.75-6.09-0.29-1.87-.56-3.73-0.82-5.6-0.24-1.7-.4-3.27-0.5-4.73a11.87,11.87,0,0,1,0-2.58,17.44,17.44,0,0,1,1.59-4.26c1.35-2.73,2.56-5.16,3.75-7.52,1.44-2.88,2.67-5.61,3.74-8.26A24,24,0,0,0,360,194.42ZM324.73,134l1,0.78c1.22,0.93,2.3,1.83,3.26,2.73a11.83,11.83,0,0,1,2.36,2.75,6.11,6.11,0,0,1,.34,1.61,33.9,33.9,0,0,1,.14,4.17c0,1.63-.14,3.35-0.3,5.18-0.13,1.48-.24,2.87-0.33,4.2l-2.76-3.32a31.8,31.8,0,0,1-2-2.66c-0.23-.34-0.41-0.64-0.56-0.9s-0.23-.44-0.32-0.65a10,10,0,0,1-.47-1.9q-0.34-2-.57-4.13c-0.16-1.54-.31-3.14-0.45-4.83-0.1-1.31-.24-2.58-0.4-3.84ZM295.26,93a12.2,12.2,0,0,1,3.31,1.6,6.07,6.07,0,0,1,.79,1.19,37.8,37.8,0,0,1,1.78,3.89q0.9,2.3,1.71,4.85c0.54,1.7,1.07,3.31,1.6,4.87-1.63-.86-3.28-1.73-5-2.66a13.32,13.32,0,0,1-3.07-2.11,7.56,7.56,0,0,1-.5-0.57c-0.18-.22-0.38-0.51-0.61-0.84a31.58,31.58,0,0,1-1.69-2.84l-2.19-4.07-2.22-4.12c-0.23-.43-0.47-0.83-0.7-1.24C290.82,91.59,293.1,92.27,295.26,93ZM239.39,65.4c2.65-.38,5.21-0.65,7.68-0.8a9.77,9.77,0,0,1,3.55.26,16.92,16.92,0,0,1,2.73,2.1q1.44,1.34,2.95,3.06l3.5,4L262.47,77c-1.91-.16-3.9-0.34-6.13-0.56a13.65,13.65,0,0,1-3.65-.74,9,9,0,0,1-1.74-1q-1.56-1.12-3.32-2.54c-1.34-1.09-2.59-2.12-3.8-3.14-1.48-1.24-2.9-2.37-4.28-3.42l-0.28-.2Zm-54.49-4.86q3.47-2.06,6.8-3.68A9.22,9.22,0,0,1,195,55.79a6,6,0,0,1,1.69.3,31.52,31.52,0,0,1,3.82,1.44c1.53,0.68,3.12,1.44,4.8,2.3s3.4,1.72,5.27,2.64l1,0.49q-3.3,1.05-6.54,2a15.06,15.06,0,0,1-3.83.75,14,14,0,0,1-3.7-.67c-2.27-.65-4.58-1.36-7-2.11s-4.51-1.34-6.65-1.84Zm-53.38,18L133.46,76l1.27-1.66q1.38-1.81,2.73-3.25a19.33,19.33,0,0,1,1.86-1.76,4.37,4.37,0,0,1,.84-0.58,9.23,9.23,0,0,1,3.39-.5c2.39,0,4.93.07,7.66,0.29s5.44,0.4,8.08.55l-1.6,1.33-3.55,2.95a32.51,32.51,0,0,1-2.65,2q-0.52.35-.92,0.58c-0.21.12-.44,0.23-0.62,0.31a9.54,9.54,0,0,1-1.83.45c-1.31.22-2.69,0.4-4.16,0.56s-3.21.32-4.82,0.45q-2.83.22-5.53,0.62c-0.77.11-1.5,0.25-2.22,0.39ZM90.71,112q0.66-2.67,1.4-5.06a33,33,0,0,1,1.45-3.9,5.71,5.71,0,0,1,.9-1.5,5.32,5.32,0,0,1,1.36-1,37.77,37.77,0,0,1,3.88-1.77c1.54-.61,3.17-1.18,4.85-1.71,1.89-.6,3.76-1.22,5.63-1.86q1.45-.5,2.81-1c-0.27.51-.54,1-0.81,1.54-0.73,1.44-1.48,2.89-2.26,4.35q-1,2-2.07,3.65a9.26,9.26,0,0,1-1.19,1.63c-0.05,0-.25.22-0.48,0.41s-0.49.37-.84,0.6a33.39,33.39,0,0,1-2.89,1.73l-4.08,2.19-4.12,2.22q-2.38,1.28-4.37,2.62C90.16,114.16,90.45,113.1,90.71,112ZM64.83,149.5A12,12,0,0,1,67,146.66q1.29-1.38,3-2.89l4-3.51,3.91-3.44c0.57-.5,1.11-1,1.64-1.51-0.1.9-.2,1.8-0.27,2.73q-0.29,3.69-.65,7.25A14,14,0,0,1,77.8,149a16,16,0,0,1-2.15,3.34q-2.24,2.84-4.57,5.66-2.6,3.15-4.84,6.29l-0.28.41q-0.29-2.06-.6-4.15-0.6-4-.79-7.58A10.39,10.39,0,0,1,64.83,149.5Zm2.69,52.9c-0.28,1.25-.64,2.58-1.07,4-0.48,1.58-1,3.16-1.48,4.75q-0.87,2.71-1.51,5.37-0.33,1.34-.58,2.65c-0.78-1.34-1.57-2.68-2.39-4.05q-1.38-2.29-2.55-4.55a35.8,35.8,0,0,1-1.73-3.85,5.82,5.82,0,0,1-.41-1.67,8.9,8.9,0,0,1,.84-3.26q1.42-3.45,3.23-7.06,1.95-3.88,3.78-7.79c0.09-.19.16-0.36,0.24-0.55,0.31,1.11.65,2.23,1,3.35q0.78,2.39,1.49,4.71c0.43,1.41.8,2.75,1.11,4a9,9,0,0,1,.29,1.92A9.62,9.62,0,0,1,67.51,202.41Zm10.9,66.09-2.17-1.66-1-.77-1-.79c-1.21-.92-2.29-1.83-3.26-2.73a25,25,0,0,1-1.91-2,5.29,5.29,0,0,1-.73-2.34,37.48,37.48,0,0,1-.16-4.27c0-1.69.1-3.4,0.25-5.15q0.24-3,.44-5.87,0.11-1.56.16-3.06l0.43,0.55,0.8,1,1.15,1.4,1,1.24,2.95,3.55a33,33,0,0,1,2,2.65q0.32,0.47.56,0.9c0.13,0.24.25,0.47,0.36,0.71a14.22,14.22,0,0,1,.79,3.67c0.26,2.29.53,4.74,0.81,7.48,0.27,2.58.61,5,1,7.4Zm33.71,40.91c-1.71-.41-3.37-0.86-5-1.36a36,36,0,0,1-3.93-1.45,5.31,5.31,0,0,1-1.4-.85,9.24,9.24,0,0,1-1.77-3q-1.45-3.41-2.8-7.35c-0.95-2.76-1.81-5.24-2.64-7.58,1.13,0.63,2.28,1.25,3.47,1.84,1.44,0.72,2.88,1.46,4.32,2.21q1.89,1,3.48,2a10,10,0,0,1,1.56,1.15c0.16,0.17.31,0.34,0.46,0.52s0.42,0.54.63,0.86a33,33,0,0,1,1.7,2.86l2.18,4.06,1.37,2.54,0.86,1.58c0.57,1.05,1.16,2,1.77,3C115,310.11,113.55,309.75,112.13,309.41Zm48.42,25.23q-4,.61-7.66.85a9,9,0,0,1-3.46-.26,15.93,15.93,0,0,1-2.82-2.13q-1.45-1.36-2.94-3l-1.43-1.62-2.09-2.37-3.4-3.88h0c1.12,0.12,2.24.24,3.41,0.33q3.81,0.29,7.28.63a13.38,13.38,0,0,1,3.63.74,12.46,12.46,0,0,1,1.88,1.12q1.53,1.06,3.25,2.47c1.24,1,2.5,2.07,3.75,3.14q2.17,1.86,4.38,3.48Zm54.5,4.83q-2.33,1.39-4.63,2.62a30.88,30.88,0,0,1-3.72,1.7,5.8,5.8,0,0,1-1.65.41,5.87,5.87,0,0,1-1.71-.3,35.27,35.27,0,0,1-4-1.45c-1.52-.65-3-1.38-4.6-2.2-1.77-.92-3.53-1.82-5.29-2.69l-0.09,0,2.32-.72c1.79-.58,3.3-1.05,4.71-1.48s2.87-.84,4.08-1.14a9,9,0,0,1,2-.31,9.64,9.64,0,0,1,2,.28q1.91,0.43,4.06,1.06c1.45,0.43,3,.91,4.61,1.44s3,0.92,4.44,1.31Zm53.33-17.85-3.21,4.19c-0.92,1.2-1.82,2.27-2.67,3.19a25.37,25.37,0,0,1-2,1.91,6.16,6.16,0,0,1-.85.48,5,5,0,0,1-1.44.3,34.38,34.38,0,0,1-4.22.14q-2.55-.06-5.22-0.29c-1.73-.16-3.37-0.28-5-0.38l2.2-1.82,3.6-3c1-.8,1.86-1.48,2.66-2,0.32-.22.62-0.4,0.88-0.55l0.53-.27a16.4,16.4,0,0,1,3.79-.79c2.29-.26,4.71-0.5,7.24-0.73,1.25-.11,2.47-0.25,3.67-0.4ZM309.27,288q-1,3.94-2.18,7.39a6.26,6.26,0,0,1-4.54,4.88c-2.24,1-4.64,1.85-7.23,2.7l-3.9,1.3,0.19-.37c1.2-2.35,2.31-4.48,3.38-6.46a15.13,15.13,0,0,1,2.19-3.24l0.4-.34c0.26-.21.54-0.41,0.86-0.63,0.8-.54,1.75-1.11,2.87-1.71l4-2.15,4.14-2.24,0,0Zm11.32-56.32c-1.5,1.8-3.06,3.69-4.78,5.8a29.3,29.3,0,0,0-4.43,7.06,24.88,24.88,0,0,0-1.49,5.53c-0.26,1.62-.48,3.36-0.64,5.21s-0.3,3.45-.43,5.17c-0.12,1.54-.28,3.05-0.47,4.52a28.66,28.66,0,0,1-.67,3.48,4.31,4.31,0,0,1-.44,1.16l-0.1.15-0.09.16c0-.07,0,0-0.11.07a21.58,21.58,0,0,1-1.82,1.36q-1.39.94-3.14,1.89l-4.12,2.23-4,2.12a49.36,49.36,0,0,0-4.27,2.55q-1,.69-1.91,1.41a21.91,21.91,0,0,0-1.75,1.55,30.2,30.2,0,0,0-4.86,6.85c-1.12,2.09-2.29,4.32-3.53,6.76q-1.61,3.15-3.3,5.84a7.46,7.46,0,0,1-1.67,2.05,7.35,7.35,0,0,1-2.57.81c-2.09.37-4.3,0.66-6.67,0.87q-4,.35-7.63.77a30.91,30.91,0,0,0-7.94,1.85l-0.19.08a22.36,22.36,0,0,0-2.1,1c-0.65.36-1.32,0.78-2,1.24-1.27.85-2.58,1.85-4,3l-3.56,3-3.58,3c-1,.83-2,1.55-2.86,2.15a21.44,21.44,0,0,1-2,1.2c-0.11.06-.15,0.07-0.07,0.06l-0.26,0-0.26.06a4,4,0,0,1-1,0,29.45,29.45,0,0,1-3.54-.69q-2.15-.55-4.37-1.27c-1.77-.58-3.46-1.11-5.08-1.58s-3.4-.94-5-1.3a24.83,24.83,0,0,0-5.57-.68,24.22,24.22,0,0,0-5.69.78c-1.49.37-3.11,0.82-4.88,1.36-1.5.46-3.09,1-4.95,1.55q-2.26.72-4.46,1.32a26.31,26.31,0,0,1-3.41.7,4.35,4.35,0,0,1-1.2,0,4.4,4.4,0,0,1-1.13-.49,30.14,30.14,0,0,1-3-2q-1.73-1.27-3.46-2.76-2-1.73-4-3.37C164.72,314,163.32,313,162,312a27.62,27.62,0,0,0-4.7-2.68,28.3,28.3,0,0,0-8.32-1.94q-3.61-.35-7.57-0.66-3.54-.27-6.68-0.78a7.2,7.2,0,0,1-2.56-.77l-0.16-.1-0.16-.09c0.08,0,.06,0,0-0.09a21.07,21.07,0,0,1-1.38-1.84q-1-1.41-1.87-3.12l-0.87-1.6-1.36-2.52-2.15-4a48.58,48.58,0,0,0-2.54-4.25q-0.68-1-1.39-1.9c-0.47-.59-1-1.15-1.48-1.68l-0.16-.16a25.1,25.1,0,0,0-4.4-3.39q-2.09-1.29-4.47-2.54c-1.53-.8-3.06-1.59-4.6-2.36-1.37-.68-2.69-1.39-4-2.13a30.74,30.74,0,0,1-3-2,3.85,3.85,0,0,1-.82-0.78,7.44,7.44,0,0,1-.79-2.53q-0.56-3.18-.94-6.8c-0.29-2.79-.56-5.29-0.83-7.64a28.84,28.84,0,0,0-2-8.24c-0.34-.75-0.67-1.42-1-2.08s-0.78-1.33-1.23-2a48.62,48.62,0,0,0-3-3.94L84.55,234l-1-1.22-1.15-1.39-0.81-1c-0.84-1-1.57-2-2.21-2.92a21.14,21.14,0,0,1-1.2-2c-0.07-.13-0.08-0.15-0.06,0l0-.29a4.85,4.85,0,0,1,0-1.27,32.14,32.14,0,0,1,.69-3.59c0.35-1.43.75-2.86,1.22-4.32q0.8-2.5,1.55-5c0.53-1.74,1-3.43,1.35-5.06a24.86,24.86,0,0,0,.68-5.59,24.23,24.23,0,0,0-.74-5.58c-0.39-1.6-.84-3.24-1.36-4.93s-1-3.3-1.58-5c-0.48-1.48-.91-2.93-1.27-4.36a30.67,30.67,0,0,1-.7-3.54,4.35,4.35,0,0,1,0-1.22,7.16,7.16,0,0,1,1.21-2.27q1.89-2.65,4.13-5.37,2.45-3,4.81-6a30.69,30.69,0,0,0,4.31-7,28.8,28.8,0,0,0,1.91-8.17q0.39-3.77.69-7.64,0.27-3.49.81-6.58a8.58,8.58,0,0,1,.77-2.57,10.24,10.24,0,0,1,2.14-1.77q1.34-.91,3.08-1.84l4.12-2.22,4-2.18a49,49,0,0,0,4.26-2.55q1-.68,1.88-1.37c0.65-.52,1.21-1,1.74-1.54a24.67,24.67,0,0,0,3.55-4.61q1.27-2.08,2.52-4.43c0.83-1.56,1.63-3.1,2.42-4.65s1.45-2.77,2.18-4a28.27,28.27,0,0,1,2-3,4.26,4.26,0,0,1,.85-0.9,3.88,3.88,0,0,1,1.08-.42,32.36,32.36,0,0,1,3.58-.73c1.42-.21,2.91-0.38,4.44-0.5,1.75-.14,3.49-0.3,5.23-0.48s3.45-.41,5.06-0.68a24.39,24.39,0,0,0,5.47-1.51,23.89,23.89,0,0,0,2.16-1.07c0.69-.39,1.34-0.8,2-1.25a48.16,48.16,0,0,0,3.95-3l3.5-2.91,2-1.66,0.52-.43,1.08-.89q1.52-1.26,2.92-2.2a16.12,16.12,0,0,1,1.84-1.08,3.13,3.13,0,0,1,.62-0.25,7.44,7.44,0,0,1,2.63.24c2,0.45,4.17,1,6.44,1.75q3.75,1.19,7.34,2.23a28.8,28.8,0,0,0,8.27,1.29,29.88,29.88,0,0,0,8.19-1.42q3.61-1.09,7.29-2.26,3.35-1.07,6.5-1.79A7.4,7.4,0,0,1,226,75.8a4.57,4.57,0,0,1,1.11.49A26.85,26.85,0,0,1,230,78.22c1.16,0.88,2.37,1.84,3.63,2.9s2.59,2.16,4,3.32,2.76,2.18,4.06,3.11a24.14,24.14,0,0,0,4.9,2.78,28.31,28.31,0,0,0,8.17,1.87c2.78,0.27,5.21.48,7.57,0.68s4.56,0.47,6.68.82a7.9,7.9,0,0,1,2.65.79l0.21,0.13c-0.07,0,0,0,.07.12a20.62,20.62,0,0,1,1.37,1.83q0.95,1.4,1.88,3.13h0l2.22,4.11,2.17,4a47.09,47.09,0,0,0,2.53,4.24q0.69,1,1.39,1.9c0.51,0.63,1,1.2,1.54,1.74a28.2,28.2,0,0,0,6.84,4.95c2.3,1.24,4.51,2.42,6.7,3.56s4,2.19,5.88,3.35a10.26,10.26,0,0,1,2.25,1.78,5,5,0,0,1,.31.89,32.4,32.4,0,0,1,.73,3.6q0.31,2.12.5,4.44c0.15,1.83.31,3.56,0.48,5.24s0.42,3.47.7,5.13a24.91,24.91,0,0,0,1.52,5.46,23.8,23.8,0,0,0,1.06,2.16c0.38,0.68.79,1.34,1.25,2a47.34,47.34,0,0,0,3,4l2.89,3.48,2.09,2.52,0.89,1.07c0.84,1,1.57,2,2.2,2.92a10,10,0,0,1,1.34,2.5,4.83,4.83,0,0,1,0,1.14,28.91,28.91,0,0,1-.68,3.5c-0.35,1.37-.77,2.81-1.27,4.33-0.6,1.83-1.11,3.5-1.58,5.08s-0.93,3.3-1.31,4.9a23.77,23.77,0,0,0-.72,5.59v0.22a27.62,27.62,0,0,0,.73,5.37q0.55,2.42,1.38,5.09,0.77,2.48,1.62,5c0.5,1.51.94,2.94,1.31,4.32a26.56,26.56,0,0,1,.71,3.45,4.39,4.39,0,0,1,0,1.21,7.31,7.31,0,0,1-1.22,2.33C323.5,228,322.13,229.78,320.59,231.65Zm14.53,18.93a15.81,15.81,0,0,1-2.13,2.82q-1.34,1.43-3.06,3l-4,3.52L324.61,261c0.11-1.47.23-2.93,0.36-4.39s0.3-2.85.5-4.09a9.63,9.63,0,0,1,.49-2,14.62,14.62,0,0,1,2.07-3.11c1.7-2.08,3.22-3.92,4.71-5.71,0.64-.77,1.24-1.53,1.83-2.28v0.08c0.27,1.76.48,3.49,0.64,5.17a33.55,33.55,0,0,1,.15,4.15A5.75,5.75,0,0,1,335.12,250.58Zm8.25-52.28c-0.91,2.26-2,4.6-3.21,7.08l-1.69,3.37c-0.39-1.17-.77-2.34-1.12-3.48q-0.66-2.12-1.07-3.93a12.61,12.61,0,0,1-.33-2.18,8.88,8.88,0,0,1,.28-1.81c0.32-1.35.68-2.7,1.09-4.1s0.9-3,1.45-4.66c0.35-1.07.66-2.11,1-3.14,0.86,1.41,1.65,2.78,2.35,4.11a31.18,31.18,0,0,1,1.72,3.75,5.88,5.88,0,0,1,.41,1.66A9.12,9.12,0,0,1,343.38,198.3Z"/></svg>