<?xml version="1.0" encoding="utf-8"?>
<!-- Generator: Adobe Illustrator 19.1.0, SVG Export Plug-In . SVG Version: 6.00 Build 0)  -->
<svg version="1.1" id="Layer_1" xmlns="http://www.w3.org/2000/svg" xmlns:xlink="http://www.w3.org/1999/xlink" x="0px" y="0px"
	 width="400px" height="400px" viewBox="0 0 400 400" enable-background="new 0 0 400 400" xml:space="preserve">
<g>
	<path fill="#333333" d="M360.057,72.083c0-5.339-4.328-9.667-9.667-9.667c-0.41,0-0.811,0.034-1.208,0.083H51.437
		c-0.396-0.05-0.798-0.083-1.208-0.083c-5.339,0-9.667,4.328-9.667,9.667v272h0.333c0,5.283,4.239,9.568,9.5,9.658v0.008h249.995
		v-0.103c4.706-0.651,8.333-4.679,8.333-9.564s-3.627-8.913-8.333-9.564v-0.436H120.578V82.167h219.813v261.917h0.333
		c0,5.339,4.328,9.667,9.667,9.667c5.339,0,9.667-4.328,9.667-9.667h0.333v-272H360.057z M100.578,334.083H60.562V82.167h40.015
		V334.083z"/>
	<rect x="140.562" y="143.167" fill="#333333" width="179.828" height="19.667"/>
	<rect x="140.562" y="199.833" fill="#333333" width="179.828" height="19.667"/>
	<rect x="140.562" y="256.5" fill="#333333" width="179.828" height="19.667"/>
</g>
</svg>
