<?xml version="1.0" encoding="utf-8"?>
<!-- Generator: Adobe Illustrator 19.1.0, SVG Export Plug-In . SVG Version: 6.00 Build 0)  -->
<svg version="1.1" id="Layer_1" xmlns="http://www.w3.org/2000/svg" xmlns:xlink="http://www.w3.org/1999/xlink" x="0px" y="0px"
	 viewBox="0 0 400 400" enable-background="new 0 0 400 400" xml:space="preserve">
<g>
	<path fill="#231F20" d="M89.065,214.527c-9.196-9.294-17.897-18.113-26.627-26.903c-4.853-4.886-4.924-6.801-0.062-11.662
		c23.181-23.176,46.268-46.448,69.728-69.338c2.877-2.807,7.668-4.471,11.788-5.009c7.969-1.04,12.793-4.791,15.018-12.456
		c0.862-2.967,2.498-5.716,3.845-8.535c6.544-13.693,20.214-18.715,33.899-12.184c22.845,10.903,45.611,21.973,68.378,33.038
		c1.623,0.789,3.163,1.932,4.446,3.207c23.351,23.206,46.607,46.508,70.034,69.637c3.026,2.988,2.752,4.845-0.07,7.635
		c-14.185,14.021-28.227,28.187-42.313,42.308c-0.699,0.701-1.348,1.453-2.867,3.099c4.382,3.946,8.894,7.656,12.985,11.784
		c5.052,5.098,7.875,11.213,6.099,18.596c-2.521,10.479-10.5,15.712-22.475,14.945c-1.106,17.127-7.983,24.059-22.919,23.105
		c-2.595,17.954-9.326,24.666-23.664,22.984c0,2.38,0.34,4.779-0.062,7.045c-1.353,7.62-5.599,13.066-13.113,15.389
		c-7.421,2.294-14.115,0.612-19.647-4.865c-5.44-5.388-10.704-10.954-16.355-16.761c-5.76,5.84-11.033,11.213-16.337,16.557
		c-7.606,7.664-18.419,8.043-25.479,0.919c-6.835-6.896-6.447-17.72,0.937-25.211c5.202-5.278,10.444-10.516,15.663-15.776
		c0.09-0.09,0.112-0.247,0.287-0.653c-0.626-0.725-1.341-1.553-2.127-2.463c-0.541,0.443-1.001,0.761-1.391,1.149
		c-5.152,5.127-10.239,10.321-15.453,15.384c-7.492,7.274-18.076,7.507-24.895,0.658c-7.034-7.064-6.817-17.609,0.604-25.151
		c5.393-5.481,10.883-10.867,16.721-16.685c-0.876-0.883-1.632-1.644-2.369-2.386c-0.813,0.47-1.216,0.605-1.488,0.874
		c-5.07,5.008-10.111,10.044-15.184,15.048c-7.73,7.625-18.651,8.1-25.518,1.133c-7.177-7.282-6.777-17.629,1-25.472
		c2.709-2.732,5.416-5.466,8.174-8.147c2.64-2.566,5.345-5.065,8.401-7.952c-1.207-1.036-2.016-1.73-3.545-3.041
		c-5.522,5.748-10.958,11.512-16.514,17.159c-5.073,5.156-11.268,6.571-18.045,4.358c-6.884-2.248-10.696-7.387-11.6-14.473
		c-0.711-5.567,1.328-10.341,5.284-14.273C77.787,225.628,83.37,220.148,89.065,214.527z M171.096,289.97
		c2.642,0.465,4.596,1.42,6.154,0.979c6.844-1.939,13.047-1.244,18.207,3.862c5.231,5.176,6.521,11.386,4.27,18.468
		c-0.387,1.217,0.102,3.293,0.978,4.234c4.464,4.796,9.161,9.378,13.83,13.98c6.354,6.263,14.582,6.768,20.127,1.3
		c5.81-5.729,5.479-13.978-0.912-20.414c-7.231-7.283-14.528-14.5-21.795-21.746c-4.945-4.931-9.983-9.777-14.746-14.878
		c-0.878-0.94-0.643-2.918-0.922-4.417c1.603,0.198,3.27,0.196,4.785,0.673c0.845,0.266,1.441,1.326,2.148,2.031
		c11.299,11.279,22.473,22.688,33.992,33.738c2.625,2.518,6.251,4.669,9.756,5.44c5.688,1.251,11.12-2.223,13.653-7.364
		c2.508-5.091,1.445-11.342-2.895-15.7c-12.373-12.425-24.852-24.746-37.138-37.255c-0.938-0.955-1.465-3.551-0.843-4.549
		c1.398-2.243,3.127-0.733,4.512,0.635c3.042,3.003,6.103,5.985,9.133,8.999c9.498,9.452,18.916,18.984,28.504,28.343
		c4.707,4.594,10.717,5.312,16.088,2.393c5.312-2.887,8.059-8.18,6.684-14.353c-0.582-2.611-2.095-5.364-3.974-7.279
		c-12.064-12.297-24.399-24.327-36.474-36.613c-1.191-1.212-2.273-4.403-1.611-5.22c2.112-2.604,3.882-0.066,5.542,1.38
		c0.106,0.092,0.172,0.228,0.273,0.328c11.922,11.814,23.826,23.646,35.776,35.432c6.292,6.206,14.478,6.511,20.105,0.848
		c5.576-5.611,5.027-14.437-1.245-20.523c-3.265-3.169-6.498-6.37-9.722-9.581c-27.873-27.756-55.755-55.503-83.599-83.288
		c-7.645-7.628-15.171-15.375-23.056-23.377c-0.91,1.848-1.548,3.094-2.144,4.361c-5.753,12.224-11.202,24.604-17.349,36.626
		c-4.36,8.526-11.738,13.081-21.609,12.425c-7.47-0.497-13.74-6.027-16.084-13.937c-1.724-5.821-1.132-11.556,1.4-17.052
		c3.452-7.492,6.991-14.945,10.476-22.422c3.186-6.836,6.351-13.682,9.878-21.282c-6.614,2.493-12.929,2.334-17.787,7.421
		c-12.695,13.293-25.908,26.091-38.92,39.081c-9.959,9.942-19.927,19.874-30.081,30.001c9.427,9.426,18.537,18.626,27.823,27.645
		c0.729,0.708,2.784,0.504,4.049,0.134c6.929-2.03,13.166-0.6,18.124,4.379c4.74,4.759,6.086,10.947,3.818,17.306
		c-1.102,3.091-0.48,4.607,2.065,5.937c12.976-11.895,20.822-13.338,29.306-4.7c2.568,2.615,4.367,6.676,5.019,10.341
		c1.48,8.332-4.182,13.679-9.93,18.994c1.074,1,1.911,1.779,2.718,2.53c12.853-11.423,21.936-12.801,29.793-4.737
		C184.996,267.477,183.462,276.437,171.096,289.97z"/>
	<path fill="#231F20" d="M381.083,139.655c-1.01,1.295-1.676,2.36-2.541,3.227c-8.553,8.578-17.176,17.087-25.69,25.703
		c-2.274,2.301-4.031,2.433-6.419,0.037c-23.037-23.112-46.13-46.169-69.285-69.164c-2.541-2.524-2.349-4.32,0.108-6.721
		c8.562-8.365,17.043-16.815,25.418-25.367c2.439-2.49,4.244-2.569,6.736-0.066c22.929,23.021,45.94,45.962,68.907,68.945
		C379.274,137.206,380.037,138.356,381.083,139.655z M362.484,134.554c-3.311,0.509-5.242,2.233-5.269,5.627
		c-0.023,2.909,2.681,5.694,5.429,5.337c3.115-0.404,5.296-2.082,5.183-5.588C367.716,136.502,365.65,134.937,362.484,134.554z"/>
	<path fill="#231F20" d="M127.071,97.963c-0.908,1.139-1.512,2.066-2.278,2.831C101.618,123.97,78.4,147.103,55.276,170.33
		c-2.451,2.462-4.184,2.107-6.398-0.129c-8.525-8.608-17.094-17.173-25.738-25.66c-2.338-2.295-2.395-4.069-0.021-6.428
		c23.14-23.005,46.225-46.065,69.275-69.161c2.24-2.244,4.001-2.617,6.406-0.166c8.584,8.746,17.32,17.345,25.961,26.035
		C125.608,95.671,126.206,96.77,127.071,97.963z M44.576,141.546c-0.285-3.032-1.881-5.164-5.298-5.171
		c-3.348-0.007-5.294,1.902-5.37,5.264c-0.078,3.434,2.048,5.194,5.239,5.488C42.027,147.394,44.553,144.724,44.576,141.546z"/>
</g>
</svg>
