<?xml version="1.0" encoding="utf-8"?>
<!-- Generator: Adobe Illustrator 19.1.0, SVG Export Plug-In . SVG Version: 6.00 Build 0)  -->
<svg version="1.1" id="Layer_1" xmlns="http://www.w3.org/2000/svg" xmlns:xlink="http://www.w3.org/1999/xlink" x="0px" y="0px"
	 viewBox="0 0 400 400" enable-background="new 0 0 400 400" xml:space="preserve">
<g>
	<path fill="#231F20" d="M162.311,293.964c-70.754-0.67-126.962-57.732-126.225-128.145C36.817,95.97,94.132,39.459,163.515,40.179
		c70.373,0.73,126.37,57.941,125.656,128.379C288.465,238.143,231.336,294.618,162.311,293.964z M269.48,166.91
		c-0.051-59.062-47.896-106.948-106.928-107.017C103.994,59.824,55.787,108.077,55.766,166.78
		c-0.022,59.368,47.758,107.43,106.83,107.462C221.732,274.273,269.53,226.275,269.48,166.91z"/>
	<path fill="#231F20" d="M299.921,134.433c2.013,0,3.596,0.111,5.149-0.056c0.599-0.065,1.131-0.762,1.693-1.172
		c-0.507-0.583-1.049-1.698-1.514-1.667c-5.94,0.398-7.292-3.545-8.582-8.197c-1.384-4.99-3.506-9.774-5.254-14.508
		c9.184-6.292,18.461-12.244,27.285-18.806c8.729-6.49,17-13.595,25.472-20.43c-0.224-0.485-0.447-0.971-0.671-1.456
		c-1.072,0.344-2.328,0.437-3.189,1.068c-15.824,11.587-32.883,21.091-50.318,29.966c-0.799,0.407-1.641,0.73-2.182,0.969
		c-7.039-9.909-13.98-19.679-21.052-29.634c30.253-4.263,61.519-5.362,91.28-17.563c-7.247,48.227-21.446,92.941-54.718,129.821
		C304.511,166.528,303.645,150.497,299.921,134.433z"/>
	<path fill="#231F20" d="M261.686,287.482c-0.015-9.332,4.635-16.438,11.956-19.543c7.681-3.257,16.043-1.559,22.241,4.643
		c16.145,16.156,32.256,32.347,48.376,48.527c2.566,2.576,5.22,5.075,7.646,7.778c7.278,8.105,6.835,20.194-0.915,27.667
		c-7.692,7.417-19.635,7.62-27.376-0.039c-18.903-18.7-37.625-37.583-56.364-56.448
		C263.493,296.286,261.618,291.603,261.686,287.482z"/>
	<path fill="#231F20" d="M271.927,257.465c-1.186,1.903-1.856,3.5-2.971,4.675c-3.752,3.956-7.627,7.799-11.524,11.615
		c-2.868,2.808-6.035,2.953-8.425,0.539c-2.274-2.298-2.088-5.745,0.578-8.466c3.975-4.058,7.996-8.073,12.039-12.063
		c1.918-1.893,4.388-2.359,6.545-0.949C269.699,253.816,270.608,255.767,271.927,257.465z"/>
	<path fill="#231F20" d="M91.218,226.272c-3.309-4.919-6.882-10.231-10.521-15.641c13.993-13.277,29.288-23.748,45.69-32.858
		c17.552,20.09,40.166,30.687,65.569,37.067c0.425-1.093,0.807-2.072,1.326-3.406c-22.633-7.227-40.199-20.997-54.658-39.836
		c2.98-1.381,5.567-2.709,8.251-3.801c13.878-5.647,27.768-11.268,41.704-16.769c0.965-0.381,2.773-0.153,3.466,0.528
		c16.253,15.971,36.116,24.874,57.991,29.908c1.097,0.252,2.178,0.572,3.757,0.991c-0.603,2.863-0.847,5.827-1.862,8.497
		c-2.816,7.407-5.738,14.793-9.095,21.964c-0.991,2.116-3.292,4.058-5.462,5.117c-26.191,12.789-53.333,13.421-81.034,5.909
		c-13.656-3.703-26.595-9.184-38.979-15.981c-1.928-1.058-3.347-1.223-5.125,0.331C105.497,214.185,98.641,219.943,91.218,226.272z"
		/>
	<path fill="#231F20" d="M91.36,184.033c1.384-26.836,9.202-50.312,29.693-68.285c14.339-12.576,31.387-19.903,49.495-24.874
		c10.053-2.76,20.349-4.647,30.56-6.811c1.109-0.235,2.554-0.002,3.551,0.546c4.169,2.29,8.228,4.782,12.461,7.279
		c-6.186,12.477-11.218,24.917-9.225,39.434c-13.961,5.705-27.972,11.432-42.304,17.289c-5.334-15.434-8.004-30.762-4.668-46.635
		c-2.4-1.653-3.229-0.585-3.87,1.595c-4.418,15.035-5.107,30.163-1.368,45.434c0.189,0.772,0.378,1.544,0.543,2.321
		c0.046,0.215,0.007,0.448,0.007,0.917C134.323,161.778,111.578,169.802,91.36,184.033z"/>
	<path fill="#231F20" d="M253.924,178.243c-20.619-5.731-38.423-15.771-53.08-31.927c1.246-0.624,2.182-1.142,3.157-1.575
		c9.643-4.283,19.321-8.49,28.915-12.879c1.91-0.874,3.115-0.685,4.855,0.479c3.47,2.32,7.266,4.148,10.872,6.274
		c0.995,0.587,2.326,1.347,2.606,2.294c3.52,11.895,4.733,24.02,3.16,36.371C254.382,177.485,254.216,177.674,253.924,178.243z"/>
	<path fill="#231F20" d="M215.97,127.92c-2.286-11.939-1.042-22.781,3.379-33.814c8.484,6.255,15.066,13.861,21.06,22.885
		C232.272,120.63,224.388,124.156,215.97,127.92z"/>
	<path fill="#231F20" d="M242.392,127.298c4.621-2.702,3.692,1.611,4.577,3.466C245.521,129.668,244.073,128.571,242.392,127.298z"
		/>
</g>
</svg>
