<?xml version="1.0" encoding="utf-8"?>
<!-- Generator: Adobe Illustrator 19.1.0, SVG Export Plug-In . SVG Version: 6.00 Build 0)  -->
<svg version="1.1" id="Layer_1" xmlns="http://www.w3.org/2000/svg" xmlns:xlink="http://www.w3.org/1999/xlink" x="0px" y="0px"
	 width="400px" height="400px" viewBox="0 0 400 400" enable-background="new 0 0 400 400" xml:space="preserve">
<g id="Layer_x25_20194">
	<path id="Ellipse23" fill="#333333" d="M93.333,199c0-58.909,47.755-106.667,106.667-106.667
		c58.912,0,106.667,47.758,106.667,106.667c0,58.909-47.755,106.667-106.667,106.667C141.089,305.667,93.333,257.909,93.333,199z"/>
	<path fill="#333333" d="M59.2,199c0-77.763,63.037-140.8,140.8-140.8S340.8,121.237,340.8,199S277.763,339.8,200,339.8
		S59.2,276.763,59.2,199z M40,199c0,88.367,71.633,160,160,160s160-71.633,160-160S288.367,39,200,39S40,110.633,40,199z"/>
</g>
</svg>
