<?xml version="1.0" encoding="utf-8"?>
<!-- Generator: Adobe Illustrator 19.1.0, SVG Export Plug-In . SVG Version: 6.00 Build 0)  -->
<svg version="1.1" id="Layer_1" xmlns="http://www.w3.org/2000/svg" xmlns:xlink="http://www.w3.org/1999/xlink" x="0px" y="0px"
	 viewBox="0 0 400 400" enable-background="new 0 0 400 400" xml:space="preserve">
<g>
	<path fill="#231F20" d="M165.172,94.571c-48.76,15.266-75.911,67.168-60.645,115.928c0.574,1.834,1.209,3.631,1.886,5.402
		c-0.024-0.074-0.038-0.15-0.058-0.224c0.02,0.075,0.035,0.15,0.058,0.225c0.037,0.116,0.082,0.226,0.125,0.339
		c0.032,0.082,0.063,0.164,0.095,0.246c1.164,2.674,4.179,4.096,7.025,3.205c3.049-0.954,4.745-4.198,3.791-7.246
		c-0.06-0.194-0.131-0.383-0.21-0.566c-0.607-1.583-1.168-3.194-1.682-4.835c-13.359-42.668,10.4-88.086,53.067-101.445
		c42.668-13.359,88.086,10.399,101.446,53.067c13.36,42.668-10.4,88.086-53.068,101.445c-29.535,9.247-60.385,0.706-81.01-19.578
		c-0.15-0.148-0.3-0.297-0.449-0.446c-1.468-1.309-3.564-1.841-5.577-1.211c-3.047,0.954-4.744,4.198-3.79,7.245
		c0.321,1.025,0.905,1.892,1.649,2.563l-0.002-0.002c-0.004,0.003-0.007,0.007-0.01,0.011
		c23.569,23.232,58.857,33.026,92.643,22.447c48.76-15.266,75.91-67.169,60.644-115.929
		C265.834,106.454,213.931,79.304,165.172,94.571z"/>
	<g>
		<path fill-rule="evenodd" clip-rule="evenodd" fill="#231F20" d="M319.628,42.671c2.239,2.277,2.207,5.938-0.07,8.177
			l-65.972,64.855c-2.277,2.239-5.938,2.207-8.177-0.07l0,0c-2.239-2.277-2.208-5.938,0.07-8.177l65.972-64.855
			C313.728,40.363,317.389,40.394,319.628,42.671L319.628,42.671z"/>
		<path fill-rule="evenodd" clip-rule="evenodd" fill="#231F20" d="M321.286,46.774c-0.027,3.193-2.638,5.76-5.832,5.732
			L269.2,52.111c-3.193-0.027-5.76-2.638-5.732-5.831l0,0c0.027-3.194,2.638-5.76,5.831-5.732l46.254,0.395
			C318.747,40.971,321.314,43.581,321.286,46.774L321.286,46.774z"/>
		<path fill-rule="evenodd" clip-rule="evenodd" fill="#231F20" d="M315.33,99.036c3.193,0.027,5.804-2.54,5.831-5.733l0.395-46.254
			c0.027-3.193-2.539-5.804-5.732-5.831l0,0c-3.194-0.028-5.804,2.539-5.831,5.732l-0.396,46.255
			C309.571,96.398,312.137,99.009,315.33,99.036L315.33,99.036z"/>
	</g>
	<path fill-rule="evenodd" clip-rule="evenodd" fill="#231F20" d="M234.685,312.956c0.02,3.194-2.552,5.798-5.746,5.818
		l-80.946,0.509c-3.193,0.02-5.798-2.552-5.818-5.745l0,0c-0.021-3.193,2.552-5.798,5.746-5.818l80.946-0.51
		C232.06,307.191,234.665,309.763,234.685,312.956L234.685,312.956z"/>
	<path fill-rule="evenodd" clip-rule="evenodd" fill="#231F20" d="M188.721,359.502c3.194-0.02,5.766-2.625,5.745-5.819
		l-0.509-80.946c-0.02-3.193-2.625-5.766-5.818-5.745l0,0c-3.193,0.019-5.766,2.625-5.745,5.818l0.509,80.946
		C182.924,356.949,185.528,359.522,188.721,359.502L188.721,359.502z"/>
</g>
</svg>
