<?xml version="1.0" encoding="utf-8"?>
<!-- Generator: Adobe Illustrator 19.1.0, SVG Export Plug-In . SVG Version: 6.00 Build 0)  -->
<svg version="1.1" id="Layer_1" xmlns="http://www.w3.org/2000/svg" xmlns:xlink="http://www.w3.org/1999/xlink" x="0px" y="0px"
	 viewBox="0 0 400 400" enable-background="new 0 0 400 400" xml:space="preserve">
<g>
	<path d="M176.406,322.565c46.724,4.008,96.947,28.671,141.253-27.124c-22.478-2.65-37.503-5.234-52.623-6.046
		c-38.909-2.09-48.771-13.393-41.854-52.033c2.38-13.296,7.88-26.033,14.476-47.064c0,11.321,0.478,14.166-0.07,16.797
		c-12.994,62.316-6.936,69.167,57.121,72.108c11.411,0.524,22.426,9.681,33.624,14.852c-8.212,12.129-13.707,29.818-25.12,35.395
		C260.724,350.213,217.869,342.104,176.406,322.565z"/>
	<path d="M162.377,358.521c-22.945-9.639-47.398-16.797-68.43-29.583c-23.195-14.101-19.839-33.028,5.526-42.242
		c12.863-4.673,26.446-7.794,39.958-10.161c27.388-4.798,33.468-20.162,24.455-44.696c-3.289-8.952-5.193-18.414-2.915-29.737
		c5.557,10.746,12.327,21.049,16.432,32.323c10.431,28.652,1.103,43.844-27.931,53.793c-16.372,5.611-31.349,15.29-46.955,23.137
		c16.531,12.208,32.903,24.645,49.729,36.433c3.397,2.38,8.515,2.303,12.839,3.358C164.183,353.605,163.28,356.063,162.377,358.521z
		"/>
	<path d="M273.156,156.347c-2.306,14.969-5.988,29.887-6.541,44.92c-0.58,15.744-3.429,41.18,4.1,45.323
		c13.785,7.586,34.475,2.663,52.286,2.849c2.555,0.027,5.117-0.543,12.276-1.364c-24.015,19.445-47.752,20.809-68.767,9.407
		c-8.428-4.573-12.967-24.008-12.167-36.213c1.445-22.04,8.237-43.729,12.795-65.564
		C269.144,155.919,271.15,156.133,273.156,156.347z"/>
	<path d="M72.557,251.5c5.904,2.455,11.625,5.576,17.741,7.256c36.969,10.153,54.154-7.272,45.226-44.397
		c-4.878-20.283-7.655-41.071-6.449-62.307c5.181,21.941,9.754,44.048,15.674,65.788c11.08,40.691-3.666,57.42-46.059,50.131
		c-9.804-1.686-19.002-6.904-28.478-10.496C70.994,255.482,71.776,253.491,72.557,251.5z"/>
	<path d="M243.682,71.222c-26.416-5.761-51.842-20.001-65.829-12.606c-32.502,17.184-21.302,49.536-10.269,77.915
		c-3.814,0.316-7.627,0.632-11.441,0.948c-1.182-24.605-9.072-51.729-1.119-72.903c5.054-13.456,33.506-24.094,51.731-24.516
		C218.733,39.782,231.185,59.968,243.682,71.222z"/>
	<path d="M175.785,140.165c0,0,33.031,35.478,55.646-29.626C231.431,110.539,209.751,208.574,175.785,140.165z"/>
</g>
</svg>
