<?xml version="1.0" encoding="utf-8"?>
<!-- Generator: Adobe Illustrator 19.1.0, SVG Export Plug-In . SVG Version: 6.00 Build 0)  -->
<svg version="1.1" id="Layer_1" xmlns="http://www.w3.org/2000/svg" xmlns:xlink="http://www.w3.org/1999/xlink" x="0px" y="0px"
	 width="400px" height="400px" viewBox="0 0 400 400" enable-background="new 0 0 400 400" xml:space="preserve">
<g id="Layer_x25_20138">
	<path fill="#333333" d="M340.063,49.987c0-4.564-3.06-8.406-7.238-9.605c-0.942-0.294-1.943-0.453-2.982-0.453
		c-0.359,0-0.713,0.021-1.062,0.058H71.084c-0.349-0.037-0.703-0.058-1.062-0.058c-5.523,0-10,4.478-10,10v298.894
		c-0.051,0.41-0.086,0.824-0.086,1.247c0,5.523,4.477,10,10,10h189.938c5.523,0,10-4.477,10-10c0-5.523-4.477-10-10-10H80.022
		V59.987h189.836v69.938c0,5.523,4.477,10,10,10c5.523,0,10-4.477,10-10V59.987h29.984v289.942c0,5.522,4.477,10,10,10
		c5.523,0,10-4.478,10-10V52.071C339.985,51.398,340.063,50.702,340.063,49.987z"/>
</g>
</svg>
