<svg id="Layer_1" data-name="Layer 1" xmlns="http://www.w3.org/2000/svg" viewBox="0 0 400 400"><defs><style>.cls-1{fill:#333;}</style></defs><title>icon</title><g id="Layer_20153" data-name="Layer%20153"><path class="cls-1" d="M229.6,339.5l0.32,0,0.35,0H349.49a10,10,0,0,0,10-10v-120s0,0,0,0a10,10,0,0,0-10-10h-60a10,10,0,1,0,0,20h50V319.5H239.6v-109c0-.31,0-0.61,0-0.92A140.05,140.05,0,0,1,333.92,80.13l1.28-.44a10,10,0,0,0-7.39-18.57h0v0c-65.13,22.24-106.87,82.75-108.15,148.32a10.08,10.08,0,0,0-.06,1.09v119A10,10,0,0,0,229.6,339.5Z"/><path class="cls-1" d="M40.5,329.5a10,10,0,0,0,10,10l0.32,0,0.35,0H170.4a10,10,0,0,0,10-10v-120s0,0,0,0a10,10,0,0,0-10-10h-60a10,10,0,1,0,0,20h50V319.5H60.51v-109c0-.31,0-0.61,0-0.92A140.05,140.05,0,0,1,154.82,80.13l1.28-.44a10,10,0,0,0-7.39-18.57h0v0C83.59,83.33,41.85,143.85,40.56,209.42a10.08,10.08,0,0,0-.06,1.09v119Z"/></g></svg>