<?xml version="1.0" encoding="utf-8"?>
<!-- Generator: Adobe Illustrator 19.1.0, SVG Export Plug-In . SVG Version: 6.00 Build 0)  -->
<svg version="1.1" id="Layer_1" xmlns="http://www.w3.org/2000/svg" xmlns:xlink="http://www.w3.org/1999/xlink" x="0px" y="0px"
	 width="400px" height="400px" viewBox="0 0 400 400" enable-background="new 0 0 400 400" xml:space="preserve">
<g id="Layer_x25_20131">
	<path fill="#333333" d="M347.3,344.579l-70.717-70.717c-3.879-3.878-10.147-3.902-14.06-0.076
		c-20.183,15.409-45.389,24.575-72.741,24.575c-66.274,0-120-53.725-120-120s53.727-120,120-120c66.273,0,120,53.725,120,120
		c0,16.903-3.502,32.985-9.809,47.571c0.018,0.007,0.043,0.005,0.062,0.013c-0.818,1.45-1.291,3.121-1.291,4.904
		c0,5.523,4.477,10,10,10c4.522,0,8.339-3.003,9.575-7.122c0.023,0.008,0.056,0.006,0.077,0.016
		c7.326-16.986,11.395-35.706,11.395-55.382c0-77.327-62.685-140.011-140.011-140.011S49.771,101.033,49.771,178.361
		c0,77.328,62.686,140.01,140.011,140.01c29.211,0,56.326-8.955,78.77-24.256l64.604,64.605c3.907,3.907,10.238,3.907,14.145,0
		C351.205,354.816,351.205,348.484,347.3,344.579z"/>
</g>
</svg>
