<?xml version="1.0" encoding="utf-8"?>
<!-- Generator: Adobe Illustrator 19.1.0, SVG Export Plug-In . SVG Version: 6.00 Build 0)  -->
<svg version="1.1" id="Layer_1" xmlns="http://www.w3.org/2000/svg" xmlns:xlink="http://www.w3.org/1999/xlink" x="0px" y="0px"
	 width="400px" height="400px" viewBox="0 0 400 400" enable-background="new 0 0 400 400" xml:space="preserve">
<g id="Layer_x25_20143">
	<path fill="#333333" d="M260.414,49.642c-0.002-0.001-0.008-0.003-0.011-0.005c0.12,0.062,0.229,0.137,0.346,0.202
		C260.635,49.775,260.529,49.704,260.414,49.642z"/>
	<path fill="#333333" d="M360.276,160.363c0-5.523-4.478-10-10-10h-260c-5.524,0-10,4.477-10,10c0,5.523,4.476,10,10,10h249.928v160
		H59.934V130.78h190.271c5.2,0,9.472-3.971,9.951-9.046c0.042-0.368,0.067-0.742,0.067-1.121V90.489h79.75v29.957
		c0,5.522,4.477,10,10,10c5.523,0,10-4.478,10-10v-40c0-5.523-4.477-10-10-10c-0.285,0-0.564,0.019-0.843,0.043h-98.196
		c-0.744,0-1.467,0.087-2.163,0.241c-4.831,0.705-8.548,4.854-8.548,9.883v30.167H50.998c-0.35-0.037-0.704-0.058-1.063-0.058
		c-5.522,0-10,4.477-10,10v217.6c-0.137,0.659-0.21,1.342-0.21,2.042c0,5.523,4.479,10,10,10h300.001
		c0.413,0,0.817-0.033,1.217-0.081c5.177-0.379,9.262-4.688,9.262-9.962v-178c0-0.203-0.018-0.4-0.03-0.6
		C360.234,161.275,360.276,160.824,360.276,160.363z"/>
</g>
</svg>
