<svg id="Layer_1" data-name="Layer 1" xmlns="http://www.w3.org/2000/svg" viewBox="0 0 400 400"><defs><style>.cls-1{fill:#333;}</style></defs><title>icon-chain</title><path class="cls-1" d="M345,143.42a79.58,79.58,0,0,0-57.82-23.35,10.13,10.13,0,0,0-1.16-.07h-36a10,10,0,1,0,0,20h36.23l0,0.06a59.87,59.87,0,1,1,0,119.65l0,0H235.78s-17.35.1-18.07,0.26a40,40,0,0,1-27.53-66.67l0-.11a10,10,0,1,0-14.27-13.86,60,60,0,0,0,44.06,100.71,60.42,60.42,0,0,0,6.18-.33H286a10.26,10.26,0,0,0,1.08-.06A79.81,79.81,0,0,0,345,143.42Z"/><path class="cls-1" d="M345,143.42a79.58,79.58,0,0,0-57.82-23.35,10.13,10.13,0,0,0-1.16-.07h-36a10,10,0,1,0,0,20h36.23l0,0.06a59.87,59.87,0,1,1,0,119.65l0,0H235.78s-17.35.1-18.07,0.26a40,40,0,0,1-27.53-66.67l0-.11a10,10,0,1,0-14.27-13.86,60,60,0,0,0,44.06,100.71,60.42,60.42,0,0,0,6.18-.33H286a10.26,10.26,0,0,0,1.08-.06A79.81,79.81,0,0,0,345,143.42Z"/><path class="cls-1" d="M52.31,256.63A79.58,79.58,0,0,0,110.13,280a10.13,10.13,0,0,0,1.16.07h37a10,10,0,1,0,0-20H111.06l0-.06a59.87,59.87,0,1,1,0-119.65l0,0h66.3a10,10,0,0,0,2.25-.26,40,40,0,0,1,27.53,66.67l0,0.11a10,10,0,1,0,14.27,13.86A60,60,0,0,0,177.42,120a60.42,60.42,0,0,0-6.18.33H111.39a10.26,10.26,0,0,0-1.08.06A79.81,79.81,0,0,0,52.31,256.63Z"/><path class="cls-1" d="M52.31,256.63A79.58,79.58,0,0,0,110.13,280a10.13,10.13,0,0,0,1.16.07h37a10,10,0,1,0,0-20H111.06l0-.06a59.87,59.87,0,1,1,0-119.65l0,0h66.3a10,10,0,0,0,2.25-.26,40,40,0,0,1,27.53,66.67l0,0.11a10,10,0,1,0,14.27,13.86A60,60,0,0,0,177.42,120a60.42,60.42,0,0,0-6.18.33H111.39a10.26,10.26,0,0,0-1.08.06A79.81,79.81,0,0,0,52.31,256.63Z"/></svg>