<svg id="Layer_1" data-name="Layer 1" xmlns="http://www.w3.org/2000/svg" viewBox="0 0 400 400"><defs><style>.cls-1{fill:#333;}</style></defs><title>icon</title><g id="Layer_20154" data-name="Layer%20154"><path class="cls-1" d="M170.42,60.5l-0.31,0-0.35,0H50.58a10,10,0,0,0-10,10v120s0,0,0,0a10,10,0,0,0,10,10h60a10,10,0,0,0,0-20h-50V80.5h99.83v109c0,0.31,0,.61,0,0.92A140,140,0,0,1,66.15,319.87l-1.28.44a10,10,0,0,0,7.39,18.57h0v0c65.09-22.24,106.81-82.76,108.1-148.33a10.08,10.08,0,0,0,.06-1.09V70.5A10,10,0,0,0,170.42,60.5Z"/><path class="cls-1" d="M359.42,70.5a10,10,0,0,0-10-10l-0.31,0-0.35,0H229.58a10,10,0,0,0-10,10v120s0,0,0,0a10,10,0,0,0,10,10h60a10,10,0,0,0,0-20h-50V80.5h99.83v109c0,0.31,0,.61,0,0.92a140,140,0,0,1-94.31,129.46l-1.28.44a10,10,0,0,0,7.39,18.57h0v0c65.09-22.24,106.81-82.76,108.1-148.33a10.08,10.08,0,0,0,.06-1.09V70.5Z"/></g></svg>