<svg xmlns="http://www.w3.org/2000/svg" width="31" height="32" viewBox="0 0 31 32">
  <path fill="#FFF" fill-rule="evenodd" d="M26.0834631,25.4152867 C25.257227,26.5464675 24.1547017,27.4089253 22.920986,27.9324916 C23.0705957,27.7027084 23.2145667,27.4671422 23.346133,27.2203952 C24.0317812,25.934612 25.0568704,24.8832386 26.3105089,24.1803952 C26.5525908,24.0442988 26.7837716,23.8954795 27.0096896,23.7412627 C26.7736222,24.3284434 26.466133,24.8913349 26.0834631,25.4152867 M12.5802535,29.8682988 C12.85128,29.8131663 13.1215547,29.7499373 13.3891981,29.669359 C14.7514728,29.2602988 16.2190005,29.2602988 17.5808993,29.669359 C17.8489186,29.7499373 18.1191933,29.8131663 18.3898439,29.8682988 C17.4929378,30.2522988 16.5114535,30.4577928 15.4852366,30.4577928 C14.4590198,30.4577928 13.4775354,30.2522988 12.5802535,29.8682988 M4.88738602,25.4164434 C4.50434024,24.892106 4.19647518,24.3288289 3.96078361,23.7408771 C4.18670169,23.8954795 4.41788241,24.0442988 4.66034024,24.1803952 C5.91360289,24.8832386 6.93831614,25.9342265 7.62434024,27.2200096 C7.75590651,27.4671422 7.89987759,27.7027084 8.04948723,27.9332627 C6.81614747,27.4093108 5.71362217,26.5472386 4.88738602,25.4164434 M2.07825831,13.1384675 C2.13163663,13.4160578 2.19403663,13.6928771 2.27260048,13.9681542 C2.67444145,15.374612 2.67444145,16.8612627 2.27260048,18.2673349 C2.19403663,18.542612 2.13163663,18.8194313 2.07825831,19.0970217 C1.70385831,18.1767325 1.50350169,17.1700819 1.50350169,16.1175518 C1.50350169,15.0650217 1.70385831,14.0587566 2.07825831,13.1384675 M4.88738602,6.81943133 C5.71362217,5.6882506 6.81614747,4.82617831 8.04948723,4.30261205 C7.89987759,4.53278072 7.75590651,4.76834699 7.62434024,5.01547952 C6.93831614,6.30126265 5.9139788,7.3522506 4.66034024,8.05547952 C4.41788241,8.19119036 4.18670169,8.34039518 3.96078361,8.49461205 C4.19685108,7.90704578 4.50434024,7.34376867 4.88738602,6.81943133 M18.3902198,2.3675759 C18.1191933,2.42270843 17.8492945,2.48593735 17.5812752,2.56613012 C16.2186246,2.97519036 14.7514728,2.97519036 13.3891981,2.56613012 C13.1211788,2.48593735 12.8509041,2.42270843 12.5798776,2.36719036 C13.4771595,1.98319036 14.4586439,1.77769639 15.4852366,1.77769639 C16.5114535,1.77769639 17.4929378,1.98319036 18.3902198,2.3675759 M26.0830872,6.81904578 C26.4665089,7.34376867 26.774374,7.90743133 27.0104414,8.49538313 C26.7841475,8.34078072 26.5525908,8.1915759 26.310133,8.05547952 C25.0564945,7.35186506 24.0314053,6.30087711 23.346133,5.01547952 C23.2141908,4.76834699 23.0702198,4.53278072 22.9206101,4.30222651 C24.1543258,4.82579277 25.257227,5.6882506 26.0830872,6.81904578 M25.5883981,22.8271422 C24.0825282,23.6722506 22.850692,24.9352867 22.0267113,26.4801542 C21.6135933,27.2547084 21.0922149,27.9317205 20.4870101,28.4976964 C20.3712318,28.5034795 20.2550776,28.5084916 20.1389234,28.5084916 L20.1377957,28.5084916 C19.426586,28.5084916 18.7086101,28.4013108 18.0037908,28.1892627 C17.1850728,27.9436723 16.337786,27.8187566 15.4852366,27.8187566 C14.6323113,27.8187566 13.7850246,27.9436723 12.9663065,28.1892627 C12.2614872,28.4013108 11.5431354,28.5084916 10.8319258,28.5084916 C10.7153957,28.5084916 10.5992414,28.5034795 10.4830872,28.4976964 C9.87788241,27.9317205 9.3565041,27.2547084 8.94338602,26.4801542 C8.1194053,24.9349012 6.88794506,23.6718651 5.38207518,22.8271422 C4.62838843,22.404588 3.9694294,21.8709976 3.4183547,21.2518169 C3.37813301,20.4067084 3.47398843,19.5461783 3.71531855,18.7006843 C4.1979788,17.010853 4.1979788,15.2246361 3.71531855,13.5348048 C3.47398843,12.6893108 3.37813301,11.8291663 3.4183547,10.9836723 C3.9694294,10.3644916 4.62838843,9.83128675 5.38207518,9.40834699 C6.88832096,8.5636241 8.1197812,7.30058795 8.94338602,5.75533494 C9.3565041,4.98078072 9.87788241,4.30376867 10.4830872,3.73779277 C10.5988655,3.73200964 10.7150198,3.72699759 10.8315499,3.72699759 C11.5431354,3.72699759 12.2611113,3.83456386 12.9666824,4.04622651 C14.6033667,4.53779277 16.3663547,4.53779277 18.0037908,4.04622651 C18.708986,3.83456386 19.4273378,3.72699759 20.1389234,3.72699759 C20.2550776,3.72699759 20.3712318,3.73200964 20.487386,3.73779277 C21.0925908,4.30376867 21.6135933,4.98078072 22.0267113,5.75533494 C22.8503161,7.30020241 24.0821523,8.5636241 25.588774,9.40834699 C26.3424607,9.83128675 27.0014198,10.3648771 27.5524945,10.9836723 C27.5927161,11.8291663 27.4964848,12.6893108 27.2551547,13.5348048 C26.7724945,15.2246361 26.7724945,17.010853 27.2551547,18.7006843 C27.4968607,19.5461783 27.5927161,20.4063229 27.5521186,21.2518169 C27.0010439,21.8709976 26.3420848,22.4042024 25.5883981,22.8271422 M28.8922149,19.0966361 C28.8388366,18.8194313 28.7764366,18.542612 28.6978728,18.2673349 C28.2964077,16.8612627 28.2964077,15.374612 28.6978728,13.9681542 C28.7764366,13.6928771 28.8388366,13.4160578 28.8922149,13.1384675 C29.2666149,14.0587566 29.4669716,15.0650217 29.4669716,16.1175518 C29.4669716,17.1700819 29.2666149,18.1767325 28.8922149,19.0966361 M30.970586,16.1175518 C30.970586,13.9554313 30.268774,11.9544675 29.0132559,10.3614072 C28.8425957,8.76410602 28.260321,7.22772048 27.2863547,5.89451566 C25.7861234,3.84034699 23.5224318,2.51986506 21.0967258,2.24188916 C19.5431161,0.954949398 17.5925523,0.235527711 15.4852366,0.235527711 C13.3775451,0.235527711 11.4269812,0.954949398 9.87374747,2.24188916 C7.44841735,2.51986506 5.18472578,3.84034699 3.68411855,5.8949012 C2.71052819,7.22772048 2.12825349,8.76410602 1.95759325,10.3610217 C0.702075181,11.9544675 -0.000112771084,13.9554313 -0.000112771084,16.1175518 C-0.000112771084,18.2800578 0.701699277,20.2810217 1.95721735,21.8744675 C2.12787759,23.4713831 2.71052819,25.0077687 3.68411855,26.3409735 C5.18472578,28.3955277 7.44841735,29.7156241 9.87374747,29.9939855 C11.4273571,31.2809253 13.3775451,31.9999614 15.4852366,31.9999614 C17.5925523,31.9999614 19.5431161,31.2809253 21.0963499,29.9939855 C23.5224318,29.7152386 25.7861234,28.3947566 27.2867306,26.3398169 C28.2599451,25.0069976 28.8422198,23.4709976 29.01288,21.874853 C30.268774,20.2810217 30.970586,18.2800578 30.970586,16.1175518"/>
</svg>
